<?xml version="1.0" encoding="utf-8"?>
<!-- Generator: Adobe Illustrator 24.0.1, SVG Export Plug-In . SVG Version: 6.00 Build 0)  -->
<svg version="1.1" id="Layer_1" xmlns="http://www.w3.org/2000/svg" xmlns:xlink="http://www.w3.org/1999/xlink" x="0px" y="0px"
	 viewBox="0 0 606 768" style="enable-background:new 0 0 606 768;" xml:space="preserve">
<style type="text/css">
	.st0{fill-rule:evenodd;clip-rule:evenodd;fill:#FFFFFF;}
	.st1{fill-rule:evenodd;clip-rule:evenodd;fill:#F5D032;}
	.st2{fill-rule:evenodd;clip-rule:evenodd;fill:#689FB1;}
	.st3{fill-rule:evenodd;clip-rule:evenodd;fill:#F2F2F2;}
	.st4{fill:none;stroke:#F5D032;stroke-width:3;stroke-miterlimit:10;}
	.st5{fill-rule:evenodd;clip-rule:evenodd;fill:#EB8E95;}
</style>
<title>Untitled-2</title>
<g id="Group">
	<path id="Fill-17" class="st0" d="M125.4,372.7c-8.7-19.5-9.3-36.4,2.3-44s78.8-36,95.1-26.5s13.6,70.3,10.1,77.8
		c-3.7,8.2-3.9,25.1-3.6,31.8s9.6,17.9,9.6,17.9l-36.6,8.6c0,0-21.6-27.3-30.7-28.2c-9.8-0.9-19.1-5-26.5-11.6
		C135.6,389.4,129.2,381.1,125.4,372.7"/>
	<polygon id="Fill-1" class="st0" points="206.1,616.7 209.5,697.7 228.4,698.7 234.4,616 	"/>
	<path id="Fill-3" class="st1" d="M204,701.4c-1.4-9.9,12.9-13.8,21.9-12.8c6.8,0.8,13.5,11.1,11.6,15.5s-6.1,7.5-16.4,8.1
		C214.3,712.6,205.3,710.9,204,701.4"/>
	<path id="Fill-5" class="st0" d="M104.3,481.6L81.7,486c0,0-0.8,13.1-14.2,12.3S49.8,487.9,48,480.2s4.1-17.6,13.9-18.1
		c8.5-0.4,14.2,9.8,14.2,9.8l28.1-9.3L104.3,481.6z"/>
	<polygon id="Fill-9" class="st2" points="234.2,673.8 223.7,704.3 112.2,719 112.2,744 307.1,732.2 307.1,744 338.5,744 
		345.4,726.3 338.5,673.8 	"/>
	<polygon id="Fill-11" class="st2" points="422.1,673.8 411.6,704.3 300.1,719 300.1,744 495,732.2 495,744 526.4,744 533.3,726.3 
		526.4,673.8 	"/>
	<polygon id="Fill-13" class="st3" points="224.2,576 246.9,653.4 266.1,649.8 252.5,568.5 	"/>
	<path id="Fill-15" class="st3" d="M280.8,447.3l15.2,18.9c0,0-8.2,11.5,3.2,19.8s21.2,3.2,27.8-2s8.5-17.4,0.9-24.5
		c-6.5-6.1-18-1.4-18-1.4l-16.4-26.6L280.8,447.3z"/>
	<g id="Fill-21">
		<path id="path-51" class="st1" d="M268.1,364c-0.9,8.5-28.9,13.9-35.9,9c-12.1-8.4-11.2-28.5-20.8-36.1s-16.5-2.9-42.1,4.6
			s-27.2,9.3-33,12.1s7,27.8,3,41.1c-2.2,7.2-18.9,11.2-24.8,6.6c-25.1-19.7-23.7-77.1,1.3-101.3s86.2-37.8,112.9-23
			S270.6,340.2,268.1,364"/>
	</g>
	<g id="Fill-23">
		<path id="path-55" class="st1" d="M214.1,417.6c-15,4.8-40.8,11.1-60.4,17.8c-17.6,6-39.2,3.1-54.4,15.3
			c-8,6.4-14.1,29.6,6.7,37.6s72.4-3.1,72.4-3.1s-5.9,120.5,24.3,139.6c30.7,19.5,125.4-4.3,140.8-37c14-29.6-55.8-118.4-55.8-118.4
			s52.1,34.2,61.1,20.2s16.3-20.8,14.4-28.5c-5.7-23.1-50.3-44.8-80.9-51.2S230.4,412.3,214.1,417.6"/>
	</g>
	<path id="Fill-25" class="st1" d="M156.3,369.8c3.7-3.6,8.7,1.9,9.5,4.1c0.4,1.4,0,2.9-1,4.1c-1.1,1.5-4.1,2-6.1,1.1
		c-2-1-3.5-4.1-3.6-5.7C155.2,372.1,155.6,370.8,156.3,369.8"/>
	<path id="Fill-27" class="st1" d="M189.6,361.9c2.6-1.3,6.6,0.1,7.8,2.3c1.2,2.2,1.3,6-2,7.8s-6.6-1.7-7.2-2.6
		C186.9,366.9,186.1,363.7,189.6,361.9"/>
	<path id="Stroke-29" class="st4" d="M177,379.9c4.9-4.1,9.5,1.1,10.5,2.8c1.2,2,0.6,8-3.3,9.7c-3.6,1.6-7.8,0.4-10.1-2.8
		C171.8,386.6,175,381.5,177,379.9z"/>
	<path id="Fill-31" class="st3" d="M232.2,332.6c-0.4-5.2,0.1-13.4,8.5-16.4s15-1.1,18,7.9c2.2,6.7-2.5,23.4-10.3,24.6
		s-12.4-7.2-12.4-7.2S232.4,335,232.2,332.6"/>
	<path id="Fill-33" class="st0" d="M138.4,372c-3.3-3.5-7.6-7.3-15.5-3.3s-8.6,7.6-6.1,15.6c1.9,6.2,13.8,12.3,21.5,8.8
		c7-3.1,3.6-13,3.6-13S139.9,373.6,138.4,372"/>
	<path id="Fill-35" class="st5" d="M244.1,659.6c-3.6-9.1,9.4-16.2,18.4-17.4c6.8-0.9,15.6,7.3,14.9,12s-4.2,8.7-14.2,11.6
		C256.7,667.8,247.5,668.3,244.1,659.6"/>
	<g id="Fill-37">
		<polygon id="path-59" class="st2" points="353.3,683.5 223.3,683.5 223.3,0.3 396.6,0.3 		"/>
		<polygon id="path-59-2" class="st2" points="353.3,683.5 223.3,683.5 223.3,0.3 396.6,0.3 		"/>
	</g>
	<g id="Fill-40">
		<polygon id="path-63" class="st2" points="530.9,682.8 398.6,682.8 398.6,3.7 561.6,3.7 		"/>
	</g>
	<path id="Fill-42" class="st0" d="M349.1,429.2c-1.8-7.8,4-17.6,13.5-18.1c8.2-0.4,13.7,9.8,13.7,9.8s4.6,27.2-8.3,26.4
		S350.8,437,349.1,429.2z"/>
</g>
</svg>
