<?xml version="1.0" encoding="utf-8"?>
<!-- Generator: Adobe Illustrator 24.0.1, SVG Export Plug-In . SVG Version: 6.00 Build 0)  -->
<svg version="1.1" id="Layer_1" xmlns="http://www.w3.org/2000/svg" xmlns:xlink="http://www.w3.org/1999/xlink" x="0px" y="0px"
	 viewBox="0 0 713.8 676.4" style="enable-background:new 0 0 713.8 676.4;" xml:space="preserve">
<style type="text/css">
	.st0{fill:none;stroke:#CCCCCC;stroke-miterlimit:10;}
	.st1{fill:none;stroke:#CCCCCC;}
	.st2{fill:none;stroke:#CCCCCC;stroke-linecap:round;stroke-dasharray:6.03,6.03;}
	.st3{fill-rule:evenodd;clip-rule:evenodd;fill:#A3D3DC;fill-opacity:0.3;}
	.st4{fill-rule:evenodd;clip-rule:evenodd;fill:#A3D3DC;}
	.st5{fill-rule:evenodd;clip-rule:evenodd;fill:#528C9C;}
	.st6{fill:none;stroke:#000000;}
	.st7{font-family:'EuclidCircularA-Regular';}
	.st8{font-size:12px;}
</style>
<title>Untitled-2</title>
<line class="st0" x1="554" y1="-35.2" x2="555.3" y2="-37.4"/>
<polyline id="Stroke-1" class="st1" points="40.8,320.5 244.2,321.7 290.5,322 380.9,312 440.9,317.8 474.8,313.9 553.2,321.7 
	698.8,321.7 "/>
<line id="Stroke-3" class="st1" x1="113.8" y1="642" x2="114.8" y2="640"/>
<line id="Stroke-4" class="st2" x1="153.3" y1="561.5" x2="509.4" y2="47.5"/>
<g id="Group-6">
	<path id="Fill-7" class="st3" d="M462.8,316.9c13.2,0,23.9,10.7,23.9,23.9c0,13.2-10.7,23.9-23.9,23.9c-13.2,0-23.9-10.7-23.9-23.9
		l0,0C438.9,327.6,449.6,316.9,462.8,316.9"/>
	<path id="Fill-10" class="st3" d="M448.2,143.5c12.6,0,22.9,10.2,22.9,22.9c0,12.6-10.2,22.9-22.9,22.9
		c-12.6,0-22.9-10.2-22.9-22.9l0,0C425.4,153.7,435.6,143.5,448.2,143.5"/>
	<path id="Fill-13" class="st3" d="M269.9,378c13.1,0,23.8,10.6,23.8,23.7s-10.6,23.8-23.7,23.8s-23.8-10.6-23.8-23.7l0,0
		C246.2,388.7,256.8,378,269.9,378"/>
	<path id="Fill-16" class="st3" d="M499.3,472.5c13,0,23.6,10.6,23.6,23.6s-10.6,23.6-23.6,23.6s-23.6-10.6-23.6-23.6l0,0
		C475.7,483.1,486.3,472.5,499.3,472.5L499.3,472.5"/>
	<path id="Fill-19" class="st3" d="M219.4,248c12.6,0,22.8,10.2,22.8,22.8c0,12.6-10.2,22.8-22.8,22.8c-12.6,0-22.8-10.2-22.8-22.8
		l0,0C196.6,258.3,206.8,248.1,219.4,248"/>
	<path id="Fill-22" class="st3" d="M390.2,533.8c13.2,0,23.9,10.7,23.9,23.9s-10.7,23.9-23.9,23.9c-13.2,0-23.9-10.7-23.9-23.9l0,0
		C366.3,544.5,377,533.8,390.2,533.8"/>
	<path id="Fill-25" class="st3" d="M302.1,542.8c13,0,23.5,10.5,23.5,23.5s-10.5,23.5-23.5,23.5s-23.5-10.5-23.5-23.5l0,0
		C278.6,553.3,289.1,542.8,302.1,542.8"/>
	<path id="Fill-28" class="st3" d="M273,458.3c13.6,0,24.6,11,24.7,24.6c0,13.6-11,24.6-24.6,24.7c-13.6,0-24.6-11-24.7-24.6l0,0
		C248.4,469.3,259.4,458.3,273,458.3"/>
	<path id="Fill-31" class="st3" d="M338.4,619.1c12.7,0,23,10.3,23,23s-10.3,23-23,23s-23-10.3-23-23S325.7,619.1,338.4,619.1
		L338.4,619.1"/>
	<path id="Fill-34" class="st3" d="M412.6,194.6c12.4,0,22.5,10.1,22.5,22.5c0,12.4-10.1,22.5-22.5,22.5s-22.5-10.1-22.5-22.5l0,0
		C390.2,204.7,400.2,194.6,412.6,194.6"/>
	<path id="Fill-37" class="st3" d="M605.8,6.4c11.1,0,20.2,9,20.2,20.1s-9,20.2-20.1,20.2s-20.2-9-20.2-20.1v-0.1
		C585.6,15.4,594.6,6.4,605.8,6.4"/>
	<path id="Fill-40" class="st3" d="M397.7,281.9c12.8,0,23.1,10.3,23.1,23.1s-10.3,23.1-23.1,23.1c-12.8,0-23.1-10.3-23.1-23.1l0,0
		C374.6,292.3,385,281.9,397.7,281.9L397.7,281.9"/>
	<path id="Fill-43" class="st3" d="M409.6,352.8c13.3,0,24,10.7,24,24s-10.7,24-24,24s-24-10.7-24-24S396.3,352.8,409.6,352.8"/>
	<path id="Fill-46" class="st3" d="M386,415.3c13,0,23.5,10.5,23.5,23.5S399,462.4,386,462.4s-23.5-10.5-23.5-23.5l0,0
		C362.5,425.9,373,415.3,386,415.3L386,415.3"/>
	<path id="Fill-49" class="st3" d="M490,311c13.8,0,25,11.2,25,25s-11.2,25-25,25s-25-11.2-25-25l0,0C465,322.1,476.2,311,490,311
		L490,311"/>
	<path id="Fill-56" class="st3" d="M438,404.4c12.1,0,21.8,9.8,21.9,21.8s-9.8,21.8-21.8,21.9c-12.1,0-21.8-9.8-21.9-21.8l0,0
		C416.2,414.2,425.9,404.4,438,404.4L438,404.4"/>
	<path id="Fill-59" class="st4" d="M582.7,56.8c11,0,20,8.9,20,19.9s-8.9,20-19.9,20s-19.9-8.9-20-19.9
		C562.8,65.8,571.7,56.9,582.7,56.8L582.7,56.8"/>
	<path id="Fill-62" class="st3" d="M547.3,112.7c11,0,19.9,8.9,20,19.9c0,11-8.9,19.9-19.9,19.9s-19.9-8.9-20-19.9l0,0
		C527.4,121.7,536.3,112.7,547.3,112.7L547.3,112.7"/>
	<path id="Fill-65" class="st3" d="M361.8,120.5c12,0,21.7,9.7,21.7,21.7s-9.7,21.7-21.7,21.7s-21.7-9.7-21.7-21.7l0,0
		C340.1,130.2,349.8,120.5,361.8,120.5"/>
	<path id="Fill-68" class="st3" d="M265.1,181.1c13.4,0,24.2,10.8,24.2,24.2s-10.8,24.2-24.2,24.2c-13.4,0-24.2-10.8-24.2-24.2l0,0
		C240.8,191.9,251.7,181.1,265.1,181.1"/>
	<path id="Fill-71" class="st3" d="M183.6,233.4c12.8,0,23.2,10.4,23.2,23.2c0,12.8-10.4,23.2-23.2,23.2s-23.2-10.4-23.2-23.2l0,0
		C160.5,243.8,170.8,233.4,183.6,233.4"/>
	<path id="Fill-74" class="st3" d="M313.2,294.8c12.9,0,23.4,10.5,23.4,23.4s-10.5,23.4-23.4,23.4s-23.4-10.5-23.4-23.4l0,0
		C289.9,305.3,300.3,294.8,313.2,294.8L313.2,294.8"/>
	<path id="Fill-77" class="st3" d="M458,231.4c12.6,0,22.8,10.2,22.8,22.8S470.6,277,458,277c-12.6,0-22.8-10.2-22.8-22.8l0,0
		C435.2,241.6,445.4,231.4,458,231.4L458,231.4"/>
	<path id="Fill-83" class="st3" d="M377.6,200.6c11.5,0,20.9,9.3,20.9,20.8s-9.3,20.9-20.8,20.9s-20.9-9.3-20.9-20.8l0,0
		C356.7,209.9,366.1,200.6,377.6,200.6C377.6,200.5,377.6,200.5,377.6,200.6"/>
	<path id="Fill-86" class="st3" d="M225.3,348.7c13.3,0,24.1,10.8,24.1,24s-10.8,24.1-24,24.1s-24.1-10.8-24.1-24l0,0
		C201.3,359.5,212,348.7,225.3,348.7L225.3,348.7"/>
	<path id="Fill-89" class="st3" d="M461.5,165.8c12,0,21.8,9.7,21.8,21.8c0,12-9.7,21.8-21.8,21.8s-21.8-9.7-21.8-21.8l0,0
		C439.8,175.5,449.5,165.8,461.5,165.8L461.5,165.8"/>
	<path id="Fill-92" class="st4" d="M49,37.5c14,0,25.3,11.3,25.3,25.3S63,88.2,49,88.2S23.7,76.9,23.7,62.9l0,0
		C23.7,48.9,35,37.5,49,37.5"/>
	<path id="Fill-95" class="st3" d="M110.6,369.5c12.2,0,22.1,9.9,22.1,22.1s-9.9,22.1-22.1,22.1s-22.1-9.9-22.1-22.1l0,0
		C88.6,379.4,98.4,369.5,110.6,369.5"/>
	<path id="Fill-98" class="st3" d="M201.4,499.9c13.3,0,24.2,10.8,24.2,24.1c0,13.3-10.8,24.2-24.1,24.2s-24.2-10.8-24.2-24.1l0,0
		C177.3,510.7,188.1,499.9,201.4,499.9L201.4,499.9"/>
	<path id="Fill-101" class="st3" d="M515.3,360.5c12.8,0,23.3,10.4,23.3,23.2c0,12.8-10.4,23.3-23.2,23.3s-23.3-10.4-23.3-23.2l0,0
		C492,370.9,502.4,360.5,515.3,360.5L515.3,360.5"/>
	<path id="Fill-80" class="st5" d="M562.1,358c0,13-10.5,23.6-23.6,23.6s-23.6-10.5-23.6-23.6s10.5-23.6,23.6-23.6l0,0
		C551.5,334.4,562,344.9,562.1,358z"/>
</g>
<g id="Anhui">
	<g>
		<path d="M451.4,337.7h0.8l3.1,7.1h-1l-0.9-2.1h-3.3l-0.9,2.1h-1L451.4,337.7z M453.1,341.9l-1.3-2.9l-1.3,2.9H453.1z"/>
		<path d="M456.2,339.8h0.9v0.8c0.3-0.6,0.9-0.9,1.6-0.9c1,0,1.9,0.8,1.9,1.8c0,0.1,0,0.1,0,0.2v3.1h-0.9v-3c0.1-0.7-0.4-1.3-1-1.3
			c0,0-0.1,0-0.2,0c-0.8,0-1.5,0.7-1.5,1.8v2.5h-0.9v-5H456.2z"/>
		<path d="M462.1,337.3h0.9v3.3c0.3-0.6,0.9-0.9,1.6-0.9c1,0,1.9,0.8,1.9,1.8c0,0.1,0,0.1,0,0.2v3.1h-0.9v-3c0.1-0.7-0.4-1.3-1-1.3
			c0,0-0.1,0-0.2,0c-0.8,0-1.5,0.7-1.5,1.8v2.5H462L462.1,337.3z"/>
		<path d="M467.9,339.8h0.9v2.9c0,0.8,0.4,1.4,1.1,1.4s1.4-0.7,1.4-1.8v-2.5h0.9v5h-0.9V344c-0.3,0.6-0.9,0.9-1.5,0.9
			c-1,0-1.8-0.8-1.8-1.8c0-0.1,0-0.1,0-0.2v-3.1H467.9z"/>
		<path d="M474.2,338.4c-0.3,0-0.6-0.3-0.6-0.6l0,0c0-0.3,0.3-0.6,0.6-0.6c0.3,0,0.6,0.3,0.6,0.6l0,0
			C474.8,338.1,474.6,338.4,474.2,338.4L474.2,338.4z M473.8,339.7h0.9v5h-0.9V339.7z"/>
	</g>
</g>
<g id="Beijing">
	<g>
		<path d="M432.7,163.2h2.3c1.1-0.1,2,0.7,2.1,1.8v0.1c0,0.6-0.3,1.1-0.8,1.4c0.8,0.2,1.3,0.9,1.2,1.7c0,1.2-1,2.1-2.2,2.1
			c-0.1,0-0.1,0-0.2,0h-2.5L432.7,163.2z M435.1,166.2c0.6,0.1,1.1-0.4,1.2-1v-0.1c0-0.6-0.5-1.1-1.1-1.1h-0.1h-1.4v2.2L435.1,166.2
			L435.1,166.2z M435.3,169.4c1,0,1.4-0.5,1.4-1.2s-0.5-1.2-1.4-1.2h-1.7v2.4H435.3z"/>
		<path d="M441,170.4c-1.4,0-2.6-1.2-2.6-2.6c0-1.4,1.2-2.6,2.6-2.6c1.3,0,2.4,1.1,2.4,2.4c0,0.1,0,0.3,0,0.4h-4.1
			c0,0.9,0.8,1.6,1.7,1.6c0.6,0,1.2-0.3,1.5-0.8h0.9C443,169.8,442.1,170.5,441,170.4z M439.4,167.4h3.1c-0.1-0.8-0.7-1.4-1.5-1.4
			S439.5,166.6,439.4,167.4z"/>
		<path d="M445.1,164c-0.3,0-0.6-0.3-0.6-0.6l0,0c0-0.3,0.3-0.6,0.6-0.6c0.3,0,0.6,0.3,0.6,0.6l0,0C445.7,163.7,445.5,164,445.1,164
			L445.1,164z M444.7,165.3h0.9v5h-0.9V165.3z"/>
		<path d="M448.1,171c0.1,0.8-0.5,1.5-1.3,1.5c-0.1,0-0.2,0-0.3,0c-0.1,0-0.3,0-0.4,0v-0.8h0.3c0.5,0,0.8-0.2,0.8-0.9v-5.6h0.9V171z
			 M447.7,164c-0.3,0-0.6-0.3-0.6-0.6l0,0c0-0.3,0.3-0.6,0.6-0.6c0.3,0,0.6,0.3,0.6,0.6l0,0C448.3,163.7,448,164,447.7,164
			L447.7,164L447.7,164z"/>
		<path d="M450.2,164c-0.3,0-0.6-0.3-0.6-0.6l0,0c0-0.3,0.3-0.6,0.6-0.6c0.3,0,0.6,0.3,0.6,0.6l0,0C450.8,163.7,450.5,164,450.2,164
			L450.2,164z M449.8,165.3h0.9v5h-0.9V165.3z"/>
		<path d="M452.2,165.3h0.9v0.8c0.3-0.6,0.9-0.9,1.6-0.9c1,0,1.9,0.8,1.9,1.8c0,0.1,0,0.1,0,0.2v3.1h-0.9v-3c0.1-0.7-0.4-1.3-1-1.3
			c0,0-0.1,0-0.2,0c-0.8,0-1.5,0.7-1.5,1.8v2.5h-0.9v-5H452.2z"/>
		<path d="M458.8,170.8c0.2,0.7,0.9,1.1,1.6,1c0.9,0,1.6-0.7,1.6-1.5c0-0.1,0-0.1,0-0.2v-0.7c-0.4,0.6-1.1,0.9-1.7,0.9
			c-1.4-0.1-2.5-1.3-2.4-2.7c0.1-1.3,1.1-2.3,2.4-2.4c0.7,0,1.3,0.3,1.7,0.9v-0.8h0.9v4.7c0.1,1.3-0.8,2.4-2.1,2.5
			c-0.1,0-0.2,0-0.4,0c-1.1,0.1-2.2-0.6-2.4-1.7H458.8z M460.3,166c-1,0-1.8,0.7-1.8,1.7s0.7,1.8,1.7,1.8s1.8-0.7,1.8-1.7
			c0,0,0,0,0-0.1c0-0.9-0.7-1.7-1.6-1.7C460.4,166,460.4,166,460.3,166z"/>
	</g>
</g>
<g id="Chongqing">
	<g>
		<path d="M249.9,398.6c1.6-0.1,3,1,3.4,2.5h-1c-0.4-1-1.4-1.6-2.4-1.6c-1.5,0-2.8,1.3-2.8,2.8s1.2,2.8,2.8,2.8c1.1,0,2-0.6,2.4-1.6
			h1c-0.4,1.5-1.8,2.5-3.4,2.5c-2,0.1-3.8-1.4-3.9-3.5s1.4-3.8,3.5-3.9C249.6,398.6,249.7,398.6,249.9,398.6L249.9,398.6z"/>
		<path d="M254.4,398.3h0.9v3.3c0.3-0.6,0.9-0.9,1.6-0.9c1,0,1.9,0.8,1.9,1.8c0,0.1,0,0.1,0,0.2v3.1h-0.9v-3c0.1-0.7-0.4-1.3-1-1.3
			c0,0-0.1,0-0.2,0c-0.8,0-1.5,0.7-1.5,1.8v2.5h-0.9v-7.5H254.4z"/>
		<path d="M262.5,405.9c-1.4,0-2.6-1.2-2.6-2.6s1.2-2.6,2.6-2.6s2.6,1.2,2.6,2.6C265.2,404.7,264,405.9,262.5,405.9
			C262.6,405.9,262.6,405.9,262.5,405.9z M262.5,405.1c1,0,1.8-0.7,1.9-1.7s-0.7-1.8-1.7-1.9s-1.8,0.7-1.9,1.7c0,0,0,0,0,0.1
			c0,0.9,0.7,1.7,1.6,1.8H262.5L262.5,405.1z"/>
		<path d="M266.4,400.8h0.9v0.8c0.3-0.6,0.9-0.9,1.6-0.9c1,0,1.9,0.8,1.9,1.8c0,0.1,0,0.1,0,0.2v3.1h-0.9v-3c0.1-0.7-0.4-1.3-1-1.3
			c0,0-0.1,0-0.2,0c-0.8,0-1.5,0.7-1.5,1.8v2.5h-0.9v-5H266.4z"/>
		<path d="M272.9,406.2c0.2,0.7,0.9,1.1,1.6,1c0.9,0,1.6-0.7,1.6-1.5c0-0.1,0-0.1,0-0.2v-0.6c-0.4,0.6-1.1,0.9-1.7,0.9
			c-1.4-0.1-2.5-1.3-2.4-2.7c0.1-1.3,1.1-2.3,2.4-2.4c0.7,0,1.3,0.3,1.7,0.9v-0.8h0.9v4.7c0.1,1.3-0.8,2.4-2.1,2.5
			c-0.1,0-0.2,0-0.4,0c-1.1,0.1-2.2-0.6-2.4-1.7L272.9,406.2z M274.4,401.5c-1,0-1.8,0.7-1.8,1.7s0.7,1.8,1.7,1.8s1.8-0.7,1.8-1.7
			c0,0,0,0,0-0.1c0-0.9-0.7-1.7-1.6-1.7C274.5,401.5,274.5,401.5,274.4,401.5z"/>
		<path d="M282.4,405c-0.4,0.6-1.1,0.9-1.8,0.9c-1.4,0-2.6-1.2-2.6-2.6s1.2-2.6,2.6-2.6l0,0c0.7,0,1.3,0.3,1.8,0.9v-0.8h0.9v7.1
			h-0.9V405z M280.7,401.5c-1-0.1-1.9,0.7-1.9,1.7c-0.1,1,0.7,1.9,1.7,1.9c1,0.1,1.9-0.7,1.9-1.7v-0.1
			C282.5,402.3,281.8,401.5,280.7,401.5C280.8,401.5,280.8,401.5,280.7,401.5L280.7,401.5z"/>
		<path d="M285.3,399.4c-0.3,0-0.6-0.2-0.7-0.5c0-0.3,0.2-0.6,0.5-0.7c0.1,0,0.1,0,0.2,0c0.3,0,0.6,0.3,0.5,0.7
			C285.8,399.1,285.6,399.4,285.3,399.4z M284.8,400.7h0.9v5h-0.9V400.7z"/>
		<path d="M287.3,400.8h0.9v0.8c0.3-0.6,0.9-0.9,1.6-0.9c1,0,1.9,0.8,1.9,1.8c0,0.1,0,0.1,0,0.2v3.1h-0.9v-3c0.1-0.7-0.4-1.3-1-1.3
			c0,0-0.1,0-0.2,0c-0.8,0-1.5,0.7-1.5,1.8v2.5h-0.9v-5H287.3z"/>
		<path d="M293.8,406.2c0.2,0.7,0.9,1.1,1.6,1c0.9,0,1.6-0.7,1.6-1.5c0-0.1,0-0.1,0-0.2v-0.6c-0.4,0.6-1.1,0.9-1.7,0.9
			c-1.4-0.1-2.5-1.3-2.4-2.7c0.1-1.3,1.1-2.3,2.4-2.4c0.7,0,1.3,0.3,1.7,0.9v-0.8h0.9v4.7c0.1,1.3-0.8,2.4-2.1,2.5
			c-0.1,0-0.2,0-0.4,0c-1.1,0.1-2.2-0.6-2.4-1.7L293.8,406.2z M295.4,401.5c-1,0-1.8,0.7-1.8,1.7s0.7,1.8,1.7,1.8s1.8-0.7,1.8-1.7
			c0,0,0,0,0-0.1c0-0.9-0.7-1.7-1.6-1.7C295.5,401.5,295.4,401.5,295.4,401.5z"/>
	</g>
</g>
<g id="Fujian">
	<g>
		<path d="M485,493h4.1v0.9h-3.2v2.2h2.5v0.9h-2.5v3.2H485V493z"/>
	</g>
	<g>
		<path d="M489.4,495.1h0.9v2.9c0,0.8,0.4,1.4,1.1,1.4s1.4-0.7,1.4-1.8v-2.5h0.9v5h-0.9v-0.7c-0.3,0.5-0.9,0.9-1.5,0.9
			c-1,0-1.8-0.8-1.8-1.8c0-0.1,0-0.1,0-0.2v-3.2H489.4z"/>
		<path d="M495.8,500.8c0.1,0.8-0.5,1.5-1.3,1.5c-0.1,0-0.2,0-0.3,0s-0.3,0-0.4,0v-0.8h0.3c0.5,0,0.8-0.2,0.8-0.8v-5.5h0.9V500.8z
			 M495.4,493.8c-0.3,0-0.6-0.3-0.6-0.6l0,0c0-0.3,0.3-0.6,0.6-0.6s0.6,0.3,0.6,0.6l0,0C496,493.5,495.8,493.8,495.4,493.8
			L495.4,493.8L495.4,493.8z"/>
		<path d="M497.5,493.8c-0.3,0-0.6-0.3-0.6-0.6l0,0c0-0.3,0.3-0.6,0.6-0.6s0.6,0.3,0.6,0.6l0,0C498.1,493.5,497.9,493.8,497.5,493.8
			C497.6,493.8,497.5,493.8,497.5,493.8z M497.1,495.1h0.9v5h-0.9V495.1z"/>
		<path d="M501.3,495c0.7,0,1.3,0.3,1.8,0.9v-0.8h0.9v5h-1v-0.7c-0.4,0.5-1.1,0.9-1.8,0.9c-1.4-0.1-2.5-1.3-2.4-2.8
			C498.9,496.2,499.9,495.2,501.3,495L501.3,495z M501.4,495.8c-1-0.1-1.9,0.7-1.9,1.7s0.7,1.9,1.7,1.9c1,0.1,1.9-0.7,1.9-1.7v-0.1
			C503.2,496.7,502.4,495.9,501.4,495.8C501.5,495.8,501.4,495.8,501.4,495.8L501.4,495.8z"/>
		<path d="M505.2,495.1h0.8v0.8c0.3-0.6,0.9-0.9,1.6-0.9c1,0,1.9,0.8,1.9,1.8c0,0.1,0,0.1,0,0.2v3.1h-0.8v-2.9
			c0.1-0.7-0.4-1.3-1-1.3c0,0-0.1,0-0.2,0c-0.8,0-1.5,0.7-1.5,1.8v2.5h-0.8V495.1z"/>
	</g>
</g>
<g id="Gansu">
	<g>
		<path d="M207.3,267.7c1.5,0,2.8,0.8,3.4,2.2h-1c-0.5-0.9-1.4-1.4-2.3-1.3c-1.5,0-2.8,1.3-2.8,2.8s1.2,2.8,2.8,2.8
			c1.4,0,2.5-1,2.6-2.4h-2.6v-0.9h3.6c0.3,1.9-1,3.8-2.9,4.1c-0.2,0-0.4,0.1-0.6,0.1c-2,0-3.7-1.6-3.7-3.7S205.3,267.7,207.3,267.7
			C207.4,267.7,207.4,267.7,207.3,267.7L207.3,267.7z"/>
		<path d="M214.2,269.8c0.7,0,1.3,0.3,1.8,0.9v-0.8h0.9v5H216v-0.8c-0.4,0.6-1.1,0.9-1.8,0.9c-1.4,0-2.6-1.2-2.6-2.6
			S212.8,269.8,214.2,269.8L214.2,269.8L214.2,269.8z M214.4,270.6c-1-0.1-1.9,0.7-1.9,1.7c-0.1,1,0.7,1.9,1.7,1.9s1.9-0.7,1.9-1.7
			v-0.1C216.1,271.4,215.4,270.6,214.4,270.6L214.4,270.6L214.4,270.6z"/>
		<path d="M218.5,269.9h0.9v0.8c0.3-0.6,0.9-0.9,1.6-0.9c1,0,1.9,0.8,1.9,1.8c0,0.1,0,0.1,0,0.2v3.1H222v-3c0.1-0.7-0.4-1.3-1-1.3
			c0,0-0.1,0-0.2,0c-0.8,0-1.4,0.7-1.4,1.8v2.5h-0.9L218.5,269.9z"/>
		<path d="M226,275c-1,0.1-1.9-0.6-2-1.5h0.9c0.1,0.5,0.6,0.9,1.2,0.8c0.5,0,1-0.2,1-0.7s-0.2-0.6-0.8-0.8l-0.7-0.2
			c-0.7-0.1-1.3-0.7-1.3-1.5s0.7-1.4,1.7-1.4c0.9-0.1,1.7,0.5,1.8,1.4h-0.9c-0.1-0.4-0.5-0.7-1-0.7s-0.9,0.2-0.9,0.6
			s0.2,0.6,0.8,0.7l0.8,0.2c0.7,0.1,1.3,0.7,1.3,1.5C227.8,274.5,227,275,226,275z"/>
		<path d="M229,269.9h0.9v2.9c0,0.8,0.4,1.4,1.1,1.4s1.4-0.7,1.4-1.8v-2.5h0.9v5h-0.9v-0.8c-0.3,0.6-0.9,0.9-1.5,0.9
			c-1,0-1.8-0.8-1.8-1.8c0-0.1,0-0.1,0-0.2L229,269.9L229,269.9z"/>
	</g>
</g>
<g id="Guangdong">
	<g>
		<path d="M368.5,554.5c1.5,0,2.8,0.8,3.4,2.2h-1c-0.5-0.9-1.4-1.4-2.3-1.3c-1.5,0-2.8,1.2-2.8,2.8c0,1.5,1.2,2.8,2.8,2.8l0,0
			c1.4,0,2.5-1,2.6-2.4h-2.6v-0.9h3.6c0.3,1.9-1,3.8-2.9,4.1c-0.2,0-0.4,0.1-0.6,0.1c-2,0-3.7-1.6-3.7-3.7
			C364.8,556.2,366.5,554.5,368.5,554.5L368.5,554.5z"/>
	</g>
	<g>
		<path d="M373.2,556.7h0.9v2.9c0,0.8,0.4,1.4,1.1,1.4s1.4-0.7,1.4-1.8v-2.5h0.9v5h-0.9v-0.8c-0.3,0.6-0.9,0.9-1.5,0.9
			c-1,0-1.8-0.8-1.8-1.8c0-0.1,0-0.1,0-0.2v-3.1H373.2z"/>
		<path d="M381.1,556.6c0.7,0,1.3,0.3,1.8,0.9v-0.8h0.9v5h-0.9v-0.8c-0.4,0.6-1.1,0.9-1.8,0.9c-1.4,0-2.6-1.2-2.6-2.6
			C378.5,557.8,379.7,556.6,381.1,556.6L381.1,556.6L381.1,556.6z M381.2,557.4c-1-0.1-1.9,0.7-1.9,1.7c-0.1,1,0.7,1.9,1.7,1.9
			c1,0.1,1.9-0.7,1.9-1.7v-0.1C383,558.3,382.3,557.5,381.2,557.4C381.3,557.4,381.3,557.4,381.2,557.4L381.2,557.4z"/>
		<path d="M385.3,556.7h0.9v0.8c0.3-0.6,0.9-0.9,1.6-0.9c1,0,1.9,0.8,1.9,1.8c0,0.1,0,0.1,0,0.2v3.1h-0.9v-3c0.1-0.7-0.4-1.3-1-1.3
			c0,0-0.1,0-0.2,0c-0.8,0-1.5,0.7-1.5,1.8v2.5h-0.9v-5H385.3z"/>
		<path d="M391.8,562.2c0.2,0.7,0.9,1.1,1.6,1c0.9,0,1.6-0.7,1.6-1.5c0-0.1,0-0.2,0-0.3v-0.6c-0.4,0.6-1.1,0.9-1.7,0.9
			c-1.4-0.1-2.5-1.3-2.4-2.7c0.1-1.3,1.1-2.3,2.4-2.4c0.7,0,1.3,0.3,1.7,0.9v-0.8h0.9v4.7c0.1,1.3-0.8,2.4-2.1,2.5
			c-0.1,0-0.2,0-0.4,0c-1.1,0.1-2.2-0.6-2.4-1.7L391.8,562.2z M393.4,557.4c-1,0-1.8,0.7-1.8,1.7s0.7,1.8,1.7,1.8s1.8-0.7,1.8-1.7
			c0,0,0,0,0-0.1c0.1-0.9-0.6-1.7-1.5-1.8C393.5,557.4,393.4,557.4,393.4,557.4L393.4,557.4z"/>
		<path d="M399.5,556.6c0.7,0,1.3,0.3,1.8,0.9v-3.3h0.9v7.5h-0.9v-0.8c-0.4,0.6-1.1,0.9-1.8,0.9c-1.4,0-2.6-1.2-2.6-2.6
			C396.9,557.8,398.1,556.6,399.5,556.6L399.5,556.6z M399.7,557.4c-1-0.1-1.9,0.7-1.9,1.7c-0.1,1,0.7,1.9,1.7,1.9
			c1,0.1,1.9-0.7,1.9-1.7v-0.1C401.4,558.3,400.7,557.5,399.7,557.4L399.7,557.4L399.7,557.4z"/>
		<path d="M406,561.8c-1.4,0-2.6-1.2-2.6-2.6c0-1.4,1.2-2.6,2.6-2.6s2.6,1.2,2.6,2.6S407.5,561.8,406,561.8L406,561.8z M406,561
			c1,0,1.8-0.7,1.9-1.7c0-1-0.7-1.8-1.7-1.9s-1.8,0.7-1.9,1.7c0,0,0,0,0,0.1c0,0.9,0.7,1.7,1.6,1.8C405.9,561,406,561,406,561z"/>
		<path d="M409.8,556.7h0.9v0.8c0.3-0.6,0.9-0.9,1.6-0.9c1,0,1.9,0.8,1.9,1.8c0,0.1,0,0.1,0,0.2v3.1h-0.9v-3
			c0.1-0.7-0.4-1.2-1.1-1.3h-0.1c-0.8,0-1.5,0.7-1.5,1.8v2.5h-0.9v-5H409.8z"/>
		<path d="M416.3,562.2c0.2,0.7,0.9,1.1,1.6,1c0.9,0,1.6-0.7,1.6-1.5c0-0.1,0-0.1,0-0.2v-0.6c-0.4,0.6-1.1,0.9-1.7,0.9
			c-1.4-0.1-2.5-1.3-2.4-2.7c0.1-1.3,1.1-2.3,2.4-2.4c0.7,0,1.3,0.3,1.7,0.9v-0.8h0.9v4.6c0.1,1.3-0.8,2.4-2.1,2.5
			c-0.1,0-0.2,0-0.4,0c-1.1,0.1-2.2-0.6-2.4-1.7H416.3z M417.8,557.4c-1,0-1.8,0.7-1.8,1.7s0.7,1.8,1.7,1.8s1.8-0.7,1.8-1.7
			c0,0,0,0,0-0.1c0.1-0.9-0.6-1.7-1.5-1.8C417.9,557.4,417.9,557.4,417.8,557.4L417.8,557.4z"/>
	</g>
</g>
<g id="Guangxi">
	<g>
		<path d="M286.7,563.1c1.5,0,2.8,0.8,3.4,2.2h-1c-0.5-0.9-1.4-1.4-2.3-1.3c-1.5,0-2.8,1.2-2.8,2.8c0,1.5,1.2,2.8,2.8,2.8
			c1.4,0,2.5-1,2.6-2.4h-2.7v-0.9h3.6c0.3,1.9-1,3.8-2.9,4.1c-0.2,0-0.4,0.1-0.6,0.1c-2,0-3.7-1.6-3.7-3.7
			C283.1,564.8,284.7,563.1,286.7,563.1L286.7,563.1z"/>
	</g>
	<g>
		<path d="M291.5,565.3h0.9v2.9c0,0.8,0.4,1.4,1.1,1.4s1.4-0.7,1.4-1.8v-2.5h0.9v5h-0.9v-0.8c-0.3,0.6-0.9,0.9-1.5,0.9
			c-1,0-1.8-0.8-1.8-1.8c0-0.1,0-0.1,0-0.2v-3.1H291.5z"/>
		<path d="M299.4,565.2c0.7,0,1.3,0.3,1.8,0.9v-0.8h0.9v5h-0.9v-0.8c-0.4,0.6-1.1,0.9-1.8,0.9c-1.4,0-2.6-1.2-2.6-2.6
			C296.8,566.4,297.9,565.2,299.4,565.2L299.4,565.2z M299.5,566c-1-0.1-1.9,0.7-1.9,1.7c-0.1,1,0.7,1.9,1.7,1.9
			c1,0.1,1.9-0.7,1.9-1.7v-0.1C301.2,566.9,300.5,566.1,299.5,566L299.5,566z"/>
		<path d="M303.6,565.3h0.9v0.8c0.3-0.6,0.9-0.9,1.6-0.9c1,0,1.9,0.8,1.9,1.8c0,0.1,0,0.1,0,0.2v3.1h-0.9v-2.9
			c0.1-0.7-0.4-1.3-1-1.3c0,0-0.1,0-0.2,0c-0.8,0-1.5,0.7-1.5,1.8v2.5h-0.9v-5.1H303.6z"/>
		<path d="M310.1,570.8c0.2,0.7,0.9,1.1,1.6,1c0.9,0,1.6-0.7,1.6-1.5c0-0.1,0-0.1,0-0.2v-0.7c-0.4,0.6-1.1,0.9-1.7,0.9
			c-1.4-0.1-2.5-1.3-2.4-2.7c0.1-1.3,1.1-2.3,2.4-2.4c0.7,0,1.3,0.3,1.7,0.9v-0.8h0.9v4.7c0.1,1.3-0.8,2.4-2.1,2.5
			c-0.1,0-0.2,0-0.4,0c-1.1,0.1-2.2-0.6-2.4-1.7H310.1z M311.6,566c-1,0-1.8,0.7-1.8,1.7s0.7,1.8,1.7,1.8s1.8-0.7,1.8-1.7
			c0,0,0,0,0-0.1c0-0.9-0.7-1.7-1.6-1.7C311.7,566,311.7,566,311.6,566L311.6,566z"/>
		<path d="M317,567.8l-1.9-2.5h1l1.4,1.8l1.4-1.8h1.1l-1.9,2.5l2,2.5H319l-1.5-1.9l-1.6,1.9h-1L317,567.8z"/>
		<path d="M321.4,564c-0.3,0-0.6-0.3-0.6-0.6l0,0c0-0.3,0.3-0.6,0.6-0.6c0.3,0,0.6,0.3,0.6,0.6l0,0C322,563.7,321.8,564,321.4,564
			L321.4,564z M321,565.3h0.9v5H321V565.3z"/>
	</g>
</g>
<g id="Guizhou">
	<g>
		<path d="M257.6,479.7c1.5,0,2.8,0.8,3.4,2.2h-1c-0.5-0.9-1.4-1.4-2.3-1.3c-1.5,0.1-2.7,1.4-2.6,3c0.1,1.4,1.2,2.5,2.6,2.6
			c1.4,0,2.5-1,2.6-2.4h-2.6v-0.9h3.6c0.3,2-1,3.8-2.9,4.1c-0.2,0-0.4,0.1-0.6,0c-2,0.1-3.8-1.4-3.9-3.5c-0.1-2,1.4-3.8,3.5-3.9
			C257.4,479.7,257.5,479.7,257.6,479.7L257.6,479.7z"/>
	</g>
	<g>
		<path d="M262.4,482h0.9v2.9c0,0.8,0.4,1.4,1.1,1.4s1.4-0.7,1.4-1.8V482h0.9v5h-0.9v-0.8c-0.3,0.6-0.9,0.9-1.5,0.9
			c-1,0-1.8-0.8-1.8-1.8c0-0.1,0-0.1,0-0.2V482H262.4z"/>
		<path d="M268.6,480.6c-0.3,0-0.6-0.3-0.6-0.6l0,0c0-0.3,0.3-0.6,0.6-0.6c0.3,0,0.6,0.3,0.6,0.6l0,0
			C269.2,480.3,269,480.6,268.6,480.6L268.6,480.6z M268.2,482h0.9v5h-0.9V482z"/>
		<path d="M270.2,486.3l2.9-3.5h-2.8V482h3.9v0.7l-2.9,3.5h2.9v0.8h-4.1v-0.7H270.2z"/>
		<path d="M275.5,479.5h0.9v3.3c0.3-0.6,0.9-0.9,1.6-0.9c1,0,1.9,0.8,1.9,1.8c0,0.1,0,0.1,0,0.2v3.1H279v-2.9c0.1-0.7-0.4-1.3-1-1.3
			c0,0-0.1,0-0.2,0c-0.8,0-1.5,0.7-1.5,1.8v2.5h-0.9L275.5,479.5z"/>
		<path d="M283.6,487.1c-1.4,0-2.6-1.2-2.6-2.6s1.2-2.6,2.6-2.6s2.6,1.2,2.6,2.6S285,487,283.6,487.1L283.6,487.1z M283.6,486.3
			c1,0,1.8-0.7,1.9-1.7c0-1-0.7-1.8-1.7-1.9c-1,0-1.8,0.7-1.9,1.7c0,0,0,0,0,0.1c0,0.9,0.7,1.7,1.6,1.8
			C283.5,486.3,283.5,486.3,283.6,486.3L283.6,486.3z"/>
		<path d="M287.3,482h0.9v2.9c0,0.8,0.4,1.4,1.1,1.4s1.4-0.7,1.4-1.8V482h0.9v5h-0.9v-0.8c-0.3,0.6-0.9,0.9-1.5,0.9
			c-1,0-1.8-0.8-1.8-1.8c0-0.1,0-0.1,0-0.2V482H287.3z"/>
	</g>
</g>
<g id="Hainan">
	<g>
		<path d="M322.2,639h0.9v3h3.9v-3h0.9v7.1H327v-3.2h-3.9v3.2h-0.9V639z"/>
	</g>
	<g>
		<path d="M331.6,641c0.7,0,1.3,0.3,1.8,0.9v-0.8h0.9v5h-0.9v-0.7c-0.4,0.6-1.1,0.9-1.8,0.9c-1.4,0-2.6-1.2-2.6-2.6
			C329,642.2,330.1,641.1,331.6,641L331.6,641z M331.7,641.8c-1-0.1-1.9,0.7-1.9,1.7c-0.1,1,0.7,1.9,1.7,1.9c1,0.1,1.9-0.7,1.9-1.7
			v-0.1C333.4,642.7,332.7,641.9,331.7,641.8L331.7,641.8z"/>
		<path d="M336.1,639.8c-0.3,0-0.6-0.3-0.6-0.6l0,0c0-0.3,0.3-0.6,0.6-0.6c0.3,0,0.6,0.3,0.6,0.6l0,0
			C336.8,639.5,336.5,639.8,336.1,639.8C336.2,639.8,336.2,639.8,336.1,639.8z M335.7,641.1h0.9v5h-0.9V641.1z"/>
		<path d="M338.1,641.1h0.9v0.8c0.3-0.6,0.9-0.9,1.6-0.9c1,0,1.9,0.8,1.9,1.8c0,0.1,0,0.1,0,0.2v3.1h-0.9v-3c0.1-0.7-0.4-1.3-1-1.3
			c0,0-0.1,0-0.2,0c-0.8,0-1.5,0.7-1.5,1.8v2.5H338L338.1,641.1z"/>
		<path d="M346,641c0.7,0,1.3,0.3,1.8,0.9v-0.8h0.9v5h-0.9v-0.7c-0.4,0.6-1.1,0.9-1.8,0.9c-1.4,0-2.6-1.2-2.6-2.6
			C343.4,642.2,344.6,641.1,346,641L346,641L346,641z M346.1,641.8c-1-0.1-1.9,0.7-1.9,1.7c-0.1,1,0.7,1.9,1.7,1.9
			c1,0.1,1.9-0.7,1.9-1.7v-0.1C347.9,642.7,347.2,641.9,346.1,641.8C346.2,641.8,346.1,641.8,346.1,641.8L346.1,641.8z"/>
		<path d="M350.1,641.1h0.9v0.8c0.3-0.6,0.9-0.9,1.6-0.9c1,0,1.9,0.8,1.9,1.8c0,0.1,0,0.1,0,0.2v3.1h-0.8v-3c0.1-0.7-0.4-1.3-1-1.3
			c0,0-0.1,0-0.2,0c-0.8,0-1.5,0.7-1.5,1.8v2.5h-0.9V641.1z"/>
	</g>
</g>
<g id="Hebei">
	<g>
		<path d="M398.8,214h0.9v3h3.9v-3h0.9v7.1h-0.9v-3.2h-3.9v3.2h-0.9V214z"/>
	</g>
	<g>
		<path d="M408.2,221.2c-1.4,0-2.6-1.2-2.6-2.6s1.2-2.6,2.6-2.6c1.3,0,2.4,1.1,2.4,2.4c0,0.1,0,0.3,0,0.4h-4.1
			c0,0.9,0.8,1.6,1.7,1.6c0.6,0,1.2-0.3,1.4-0.8h0.9C410.2,220.6,409.3,221.3,408.2,221.2z M406.6,218.2h3.1
			c-0.1-0.8-0.7-1.4-1.5-1.4C407.4,216.8,406.7,217.4,406.6,218.2L406.6,218.2z"/>
		<path d="M412.6,221.1h-0.9v-7.5h0.9v3.3c0.4-0.6,1.1-0.9,1.8-0.9c1.4,0.1,2.5,1.4,2.4,2.8c-0.1,1.3-1.1,2.3-2.4,2.4
			c-0.7,0-1.3-0.3-1.8-0.9V221.1z M414.3,216.8c-1-0.1-1.9,0.7-1.9,1.7c-0.1,1,0.7,1.9,1.7,1.9c1,0.1,1.9-0.7,1.9-1.7v-0.1
			C416,217.7,415.3,216.9,414.3,216.8L414.3,216.8L414.3,216.8z"/>
		<path d="M420.1,221.2c-1.4,0-2.6-1.2-2.6-2.6s1.2-2.6,2.6-2.6c1.3,0,2.4,1.1,2.4,2.4c0,0.1,0,0.3,0,0.4h-4.1
			c0,0.9,0.8,1.6,1.7,1.6c0.6,0,1.2-0.3,1.4-0.8h0.9C422.1,220.6,421.2,221.3,420.1,221.2z M418.5,218.2h3.1
			c-0.1-0.8-0.7-1.4-1.5-1.4C419.3,216.8,418.6,217.4,418.5,218.2L418.5,218.2z"/>
		<path d="M424.1,214.8c-0.3,0-0.6-0.3-0.6-0.6l0,0c0-0.3,0.3-0.6,0.6-0.6c0.3,0,0.6,0.3,0.6,0.6l0,0
			C424.7,214.5,424.5,214.8,424.1,214.8L424.1,214.8z M423.7,216.1h0.9v5h-0.9V216.1z"/>
	</g>
</g>
<g id="Heilongjiang">
	<g>
		<path d="M579.7,23.4h0.9v3h3.9v-3h0.9v7.1h-0.9v-3.2h-3.9v3.2h-0.9V23.4z"/>
	</g>
	<g>
		<path d="M589.1,30.6c-1.4,0-2.6-1.2-2.6-2.6s1.2-2.6,2.6-2.6l0,0c1.3,0,2.4,1.1,2.4,2.4c0,0.1,0,0.3,0,0.4h-4.1
			c0,0.9,0.8,1.6,1.7,1.6c0.6,0,1.2-0.3,1.5-0.8h0.9C591.1,30,590.2,30.7,589.1,30.6z M587.5,27.6h3.1c-0.1-0.8-0.7-1.4-1.5-1.4
			C588.3,26.2,587.6,26.8,587.5,27.6L587.5,27.6z"/>
		<path d="M593.1,24.2c-0.3,0-0.6-0.3-0.6-0.6l0,0c0-0.3,0.3-0.6,0.6-0.6s0.6,0.3,0.6,0.6l0,0C593.7,23.9,593.5,24.2,593.1,24.2
			L593.1,24.2z M592.7,25.5h0.9v5h-0.9V25.5z"/>
		<path d="M595.1,23h0.9v7.5h-0.9V23z"/>
		<path d="M599.7,30.6c-1.4,0-2.6-1.2-2.6-2.6s1.2-2.6,2.6-2.6c1.4,0,2.6,1.2,2.6,2.6S601.2,30.6,599.7,30.6L599.7,30.6z
			 M599.7,29.8c1,0,1.8-0.7,1.9-1.7s-0.7-1.8-1.7-1.9c-1,0-1.8,0.7-1.9,1.7c0,0,0,0,0,0.1c0,0.9,0.7,1.7,1.6,1.8H599.7z"/>
		<path d="M603.4,25.5h0.9v0.8c0.3-0.6,0.9-0.9,1.6-0.9c1,0,1.9,0.8,1.9,1.8c0,0.1,0,0.1,0,0.2v3.1H607v-3c0.1-0.7-0.4-1.3-1-1.3
			c0,0-0.1,0-0.2,0c-0.8,0-1.5,0.7-1.5,1.8v2.4h-0.9V25.5z"/>
		<path d="M609.8,31c0.2,0.7,0.9,1.1,1.6,1c0.9,0,1.6-0.7,1.6-1.5c0-0.1,0-0.2,0-0.2v-0.6c-0.4,0.6-1.1,0.9-1.7,0.9
			c-1.4-0.1-2.5-1.3-2.4-2.7c0.1-1.3,1.1-2.3,2.4-2.4c0.7,0,1.3,0.3,1.7,0.9v-0.8h0.9v4.7c0.1,1.3-0.8,2.4-2.1,2.5
			c-0.1,0-0.2,0-0.4,0c-1.1,0.1-2.2-0.6-2.4-1.7h0.8V31z M611.4,26.2c-1,0-1.8,0.7-1.8,1.7s0.7,1.8,1.7,1.8s1.8-0.7,1.8-1.7
			c0,0,0,0,0-0.1c0-0.9-0.7-1.7-1.6-1.7C611.5,26.2,611.5,26.2,611.4,26.2z"/>
		<path d="M616.3,31.2c0.1,0.8-0.5,1.5-1.3,1.5c-0.1,0-0.2,0-0.3,0s-0.3,0-0.4,0v-0.8h0.3c0.5,0,0.8-0.2,0.8-0.8v-5.5h0.9V31.2z
			 M615.9,24.2c-0.3,0-0.6-0.3-0.6-0.6l0,0c0-0.3,0.3-0.6,0.6-0.6s0.6,0.3,0.6,0.6l0,0C616.5,23.9,616.3,24.2,615.9,24.2L615.9,24.2
			z"/>
		<path d="M618.3,24.2c-0.3,0-0.6-0.3-0.6-0.6l0,0c0-0.3,0.3-0.6,0.6-0.6s0.6,0.3,0.6,0.6l0,0C618.9,23.9,618.7,24.2,618.3,24.2
			L618.3,24.2z M617.9,25.5h0.9v5h-0.9V25.5z"/>
		<path d="M622.3,25.4c0.7,0,1.3,0.3,1.8,0.9v-0.8h0.8v5h-0.8v-0.8c-0.4,0.6-1.1,0.9-1.8,0.9c-1.4,0-2.6-1.2-2.6-2.6
			C619.7,26.6,620.9,25.4,622.3,25.4L622.3,25.4z M622.5,26.2c-1-0.1-1.9,0.7-1.9,1.7s0.7,1.9,1.7,1.9s1.9-0.7,1.9-1.7V28
			C624.2,27.1,623.5,26.2,622.5,26.2L622.5,26.2L622.5,26.2z"/>
		<path d="M626.5,25.5h0.9v0.8c0.3-0.6,0.9-0.9,1.6-0.9c1,0,1.9,0.8,1.9,1.8c0,0.1,0,0.1,0,0.2v3.1H630v-3c0.1-0.7-0.4-1.3-1-1.3
			c0,0-0.1,0-0.2,0c-0.8,0-1.5,0.7-1.5,1.8v2.4h-0.9L626.5,25.5z"/>
		<path d="M632.9,31c0.2,0.7,0.9,1.1,1.6,1c0.9,0,1.6-0.7,1.6-1.5c0-0.1,0-0.1,0-0.2v-0.6c-0.4,0.6-1.1,0.9-1.7,0.9
			c-1.4-0.1-2.5-1.3-2.4-2.7c0.1-1.3,1.1-2.3,2.4-2.4c0.7,0,1.3,0.3,1.7,0.9v-0.8h0.9v4.7c0.1,1.3-0.8,2.4-2.1,2.5
			c-0.1,0-0.2,0-0.4,0c-1.1,0.2-2.2-0.6-2.5-1.7h0.9V31z M634.4,26.2c-1,0-1.8,0.7-1.8,1.7s0.7,1.8,1.7,1.8s1.8-0.7,1.8-1.7
			c0,0,0,0,0-0.1c0-0.9-0.7-1.7-1.6-1.7C634.5,26.2,634.5,26.2,634.4,26.2z"/>
	</g>
</g>
<g id="Henan">
	<g>
		<path d="M382.5,301.9h0.9v3h3.9v-3h0.9v7.1h-0.9v-3.2h-3.9v3.2h-0.9V301.9z"/>
	</g>
	<g>
		<path d="M391.9,309.1c-1.4,0-2.6-1.2-2.6-2.6s1.2-2.6,2.6-2.6l0,0c1.3,0,2.4,1.1,2.4,2.4c0,0.1,0,0.3,0,0.4h-4.1
			c0,0.9,0.8,1.6,1.7,1.6c0.6,0,1.2-0.3,1.4-0.8h0.9C393.9,308.5,393,309.2,391.9,309.1z M390.3,306.1h3.1c-0.1-0.8-0.7-1.4-1.5-1.4
			C391.1,304.6,390.4,305.3,390.3,306.1z"/>
		<path d="M395.5,304h0.9v0.8c0.3-0.6,0.9-0.9,1.6-0.9c1,0,1.9,0.8,1.9,1.8c0,0.1,0,0.1,0,0.2v3.1H399v-3c0.1-0.7-0.4-1.3-1-1.3
			c0,0-0.1,0-0.2,0c-0.8,0-1.5,0.7-1.5,1.8v2.5h-0.9L395.5,304z"/>
		<path d="M403.3,303.9c0.7,0,1.3,0.3,1.8,0.9V304h0.9v5h-0.9v-0.8c-0.4,0.6-1.1,0.9-1.8,0.9c-1.4,0-2.6-1.2-2.6-2.6
			S401.9,303.9,403.3,303.9L403.3,303.9L403.3,303.9z M403.4,304.7c-1-0.1-1.9,0.7-1.9,1.7c-0.1,1,0.7,1.9,1.7,1.9
			c1,0.1,1.9-0.7,1.9-1.7v-0.1C405.2,305.6,404.5,304.8,403.4,304.7C403.5,304.7,403.5,304.7,403.4,304.7z"/>
		<path d="M407.5,304h0.9v0.8c0.3-0.6,0.9-0.9,1.6-0.9c1,0,1.9,0.8,1.9,1.8c0,0.1,0,0.1,0,0.2v3.1H411v-3c0-0.8-0.5-1.4-1.2-1.4
			s-1.5,0.7-1.5,1.8v2.5h-0.9L407.5,304z"/>
	</g>
</g>
<g id="Hubei">
	<g>
		<path d="M395.7,373.7h0.9v3h3.9v-3h0.9v7.1h-0.9v-3.2h-3.9v3.2h-0.9V373.7z"/>
	</g>
	<g>
		<path d="M403.1,375.8h0.9v2.9c0,0.8,0.4,1.4,1.1,1.4s1.4-0.7,1.4-1.8v-2.5h0.9v5h-0.9V380c-0.3,0.6-0.9,0.9-1.5,0.9
			c-1,0-1.8-0.8-1.8-1.8c0-0.1,0-0.1,0-0.2v-3.1H403.1z"/>
		<path d="M409.7,380.8h-0.9v-7.5h0.9v3.3c0.4-0.6,1.1-0.9,1.8-0.9c1.4,0.1,2.5,1.3,2.4,2.8c-0.1,1.3-1.1,2.4-2.4,2.4
			c-0.7,0-1.3-0.3-1.8-0.9V380.8z M411.3,376.5c-1-0.1-1.9,0.7-1.9,1.7c-0.1,1,0.7,1.9,1.7,1.9c1,0.1,1.9-0.7,1.9-1.7v-0.1
			C413.1,377.3,412.4,376.5,411.3,376.5C411.4,376.5,411.4,376.5,411.3,376.5L411.3,376.5z"/>
		<path d="M417.2,380.9c-1.4-0.1-2.5-1.3-2.4-2.8c0.1-1.3,1.1-2.4,2.4-2.4s2.4,1.1,2.4,2.4c0,0.1,0,0.3,0,0.4h-4.1
			c0,0.9,0.8,1.6,1.7,1.6c0.6,0,1.2-0.3,1.5-0.8h0.9C419.2,380.3,418.3,380.9,417.2,380.9z M415.6,377.9h3.1
			c-0.1-0.8-0.7-1.4-1.5-1.4C416.4,376.5,415.7,377,415.6,377.9L415.6,377.9z"/>
		<path d="M421.2,374.4c-0.3,0-0.6-0.3-0.6-0.6l0,0c0-0.3,0.3-0.6,0.6-0.6c0.3,0,0.6,0.3,0.6,0.6l0,0
			C421.8,374.2,421.6,374.4,421.2,374.4L421.2,374.4z M420.8,375.8h0.9v5h-0.9V375.8z"/>
	</g>
</g>
<g id="Hunan">
	<g>
		<path d="M370.8,435.8h0.9v3h3.9v-3h0.9v7.1h-0.9v-3.2h-3.9v3.2h-0.9V435.8z"/>
	</g>
	<g>
		<path d="M378.1,437.9h0.9v2.9c0,0.8,0.4,1.4,1.1,1.4s1.4-0.7,1.4-1.8v-2.5h0.9v5h-0.9v-0.8c-0.3,0.6-0.9,0.9-1.5,0.9
			c-1,0-1.8-0.8-1.8-1.8c0-0.1,0-0.1,0-0.2L378.1,437.9z"/>
		<path d="M383.9,437.9h0.9v0.8c0.3-0.6,0.9-0.9,1.6-0.9c1,0,1.9,0.8,1.9,1.8c0,0.1,0,0.1,0,0.2v3.1h-0.9V440c0.1-0.7-0.4-1.3-1-1.3
			c0,0-0.1,0-0.2,0c-0.8,0-1.5,0.7-1.5,1.8v2.5h-0.9v-5.1H383.9z"/>
		<path d="M391.8,437.8c0.7,0,1.3,0.3,1.8,0.9v-0.8h0.9v5h-0.9v-0.8c-0.4,0.6-1.1,0.9-1.8,0.9c-1.4-0.1-2.5-1.3-2.4-2.8
			C389.4,438.9,390.5,437.9,391.8,437.8L391.8,437.8z M391.9,438.6c-1-0.1-1.9,0.7-1.9,1.7c-0.1,1,0.7,1.9,1.7,1.9
			c1,0.1,1.9-0.7,1.9-1.7v-0.1C393.6,439.4,392.9,438.6,391.9,438.6C392,438.6,391.9,438.6,391.9,438.6z"/>
		<path d="M395.9,437.9h0.9v0.8c0.3-0.6,0.9-0.9,1.6-0.9c1,0,1.9,0.8,1.9,1.8c0,0.1,0,0.1,0,0.2v3.1h-0.9V440c0.1-0.7-0.4-1.3-1-1.3
			c0,0-0.1,0-0.2,0c-0.8,0-1.5,0.7-1.5,1.8v2.5h-0.9v-5.1H395.9z"/>
	</g>
</g>
<g id="Jiangsu">
	<g>
		<path d="M474,340c-1.1,0.1-2-0.8-2.1-1.9V338h0.9c0,0.6,0.4,1.1,1.1,1.2h0.1c0.6,0,1.2-0.4,1.2-1.3v-5h0.8v5.1
			c0.1,1.1-0.8,2-1.8,2C474.1,340.1,474.1,340.1,474,340z"/>
	</g>
	<g>
		<path d="M478,333.6c-0.3,0-0.6-0.3-0.6-0.6l0,0c0-0.3,0.3-0.6,0.6-0.6c0.3,0,0.6,0.3,0.6,0.6l0,0
			C478.6,333.3,478.3,333.6,478,333.6z M477.6,334.9h0.9v5h-0.9V334.9z"/>
		<path d="M482.1,334.8c0.7,0,1.3,0.3,1.8,0.9v-0.8h0.9v5h-0.9v-0.8c-0.4,0.6-1.1,0.9-1.8,0.9c-1.4,0-2.6-1.2-2.6-2.6
			S480.6,334.8,482.1,334.8L482.1,334.8z M482.2,335.6c-1-0.1-1.9,0.7-1.9,1.7c-0.1,1,0.7,1.9,1.7,1.9c1,0.1,1.9-0.7,1.9-1.7v-0.1
			C484,336.5,483.2,335.7,482.2,335.6C482.3,335.6,482.2,335.6,482.2,335.6z"/>
		<path d="M486.2,334.9h0.9v0.8c0.3-0.6,0.9-0.9,1.6-0.9c1,0,1.9,0.8,1.9,1.8c0,0.1,0,0.1,0,0.2v3.1h-0.8v-3c0.1-0.7-0.4-1.3-1-1.3
			c0,0-0.1,0-0.2,0c-0.8,0-1.5,0.7-1.5,1.8v2.5h-0.9V334.9z"/>
		<path d="M492.7,340.4c0.2,0.7,0.9,1.1,1.6,1c0.9,0,1.6-0.7,1.6-1.5c0-0.1,0-0.1,0-0.2v-0.6c-0.4,0.6-1.1,0.9-1.7,0.9
			c-1.4-0.1-2.5-1.3-2.4-2.7c0.1-1.3,1.1-2.3,2.4-2.4c0.7,0,1.3,0.3,1.7,0.9V335h0.8v4.7c0.1,1.3-0.8,2.4-2.1,2.5
			c-0.1,0-0.2,0-0.3,0c-1.1,0.1-2.2-0.6-2.4-1.7L492.7,340.4z M494.2,335.6c-1,0-1.8,0.7-1.8,1.7s0.7,1.8,1.7,1.8s1.8-0.7,1.8-1.7
			c0,0,0,0,0-0.1c0.1-0.9-0.6-1.7-1.6-1.8C494.3,335.6,494.3,335.6,494.2,335.6L494.2,335.6z"/>
		<path d="M499.9,340c-1,0.1-1.9-0.6-2-1.5h0.9c0.1,0.5,0.6,0.9,1.2,0.8c0.5,0,1-0.2,1-0.7s-0.2-0.6-0.8-0.8l-0.7-0.2
			c-0.7-0.1-1.3-0.7-1.3-1.5s0.7-1.4,1.7-1.4c0.9-0.1,1.7,0.5,1.8,1.4h-0.9c-0.1-0.4-0.5-0.7-1-0.7s-0.9,0.2-0.9,0.6
			s0.2,0.6,0.8,0.7l0.8,0.2c0.7,0.1,1.3,0.7,1.3,1.5C501.7,339.6,500.9,340,499.9,340z"/>
		<path d="M502.8,334.9h0.9v2.9c0,0.8,0.4,1.4,1.1,1.4s1.4-0.7,1.4-1.8v-2.5h0.9v5h-0.9v-0.8c-0.3,0.6-0.9,0.9-1.5,0.9
			c-1,0-1.8-0.8-1.8-1.8c0-0.1,0-0.1,0-0.2v-3.1H502.8z"/>
	</g>
</g>
<g id="Heihe-_Heilongjiang_">
	<g>
		<path d="M500.6,18.2h1.1v3.6h4.7v-3.6h1.1v8.5h-1.1v-3.8h-4.7v3.8h-1.1V18.2z"/>
		<path d="M511.9,26.9c-1.7,0-3-1.3-3-3v-0.1c-0.1-1.7,1.2-3.1,2.9-3.1h0.1c1.6,0,2.9,1.3,2.9,2.9c0,0.2,0,0.3,0,0.5H510
			c0,1.1,0.9,1.9,2,1.9c0.7,0,1.4-0.3,1.7-1h1.1C514.4,26.2,513.2,27,511.9,26.9z M510,23.2h3.7c-0.1-0.9-0.9-1.7-1.8-1.7
			C510.9,21.5,510.1,22.3,510,23.2z"/>
		<path d="M516.7,19.2c-0.4,0-0.7-0.3-0.7-0.7l0,0c0-0.4,0.3-0.7,0.7-0.7s0.7,0.3,0.7,0.7C517.5,18.8,517.2,19.1,516.7,19.2
			C516.8,19.2,516.8,19.2,516.7,19.2z M516.2,20.8h1v6h-1V20.8z"/>
		<path d="M519.1,17.8h1v3.9c0.4-0.7,1.1-1,1.9-1c1.2,0,2.2,0.9,2.3,2.2c0,0.1,0,0.2,0,0.3v3.7h-1v-3.6c0.1-0.8-0.4-1.5-1.2-1.6
			c-0.1,0-0.1,0-0.2,0c-1,0-1.7,0.8-1.7,2.2v3h-1L519.1,17.8z"/>
		<path d="M528.6,26.9c-1.7,0-3.1-1.4-3.1-3.1c0-1.7,1.4-3.1,3.1-3.1c1.6,0,2.9,1.3,2.9,2.9c0,0.2,0,0.3,0,0.5h-4.9
			c0,1.1,0.9,1.9,2,1.9c0.7,0,1.4-0.3,1.7-1h1.1C531,26.2,529.8,27,528.6,26.9z M526.6,23.2h3.7c-0.1-1-0.9-1.7-1.8-1.7
			C527.6,21.5,526.7,22.3,526.6,23.2z"/>
	</g>
	<g>
		<path d="M479.3,41.7c-2.1-3.6-2.1-8,0-11.5h0.8c-1.9,3.6-1.9,7.9,0,11.5H479.3z"/>
		<path d="M481.5,31.2h1.1v3.6h4.7v-3.6h1.1v8.5h-1.1v-3.8h-4.7v3.8h-1.1L481.5,31.2z"/>
		<path d="M492.8,39.9c-1.7,0-3.1-1.4-3.1-3.1s1.4-3.1,3.1-3.1c1.6,0,2.9,1.3,2.9,2.9c0,0.2,0,0.3,0,0.5h-4.9c0,1.1,0.9,1.9,2,1.9
			c0.7,0,1.4-0.3,1.7-1h1.1C495.2,39.2,494.1,40,492.8,39.9z M490.9,36.2h3.7c-0.1-1-0.9-1.7-1.8-1.7
			C491.8,34.5,491,35.3,490.9,36.2z"/>
		<path d="M497.6,32.2c-0.4,0-0.7-0.3-0.7-0.7c0-0.4,0.3-0.7,0.7-0.7s0.7,0.3,0.7,0.7C498.3,31.8,498,32.2,497.6,32.2L497.6,32.2z
			 M497.1,33.8h1v6h-1V33.8z"/>
		<path d="M500,30.8h1v9h-1V30.8z"/>
		<path d="M505.5,39.9c-1.7,0-3.1-1.4-3.1-3.1s1.4-3.1,3.1-3.1c1.7,0,3.1,1.4,3.1,3.1S507.3,39.9,505.5,39.9
			C505.6,39.9,505.5,39.9,505.5,39.9z M505.5,38.9c1.2,0,2.2-0.9,2.2-2.1s-0.9-2.2-2.1-2.2s-2.2,0.9-2.2,2.1c0,0,0,0,0,0.1
			c-0.1,1.1,0.8,2.1,1.9,2.2C505.4,38.9,505.4,38.9,505.5,38.9L505.5,38.9z"/>
		<path d="M510,33.8h1v0.9c0.4-0.7,1.1-1,1.9-1c1.2,0,2.2,0.9,2.3,2.1c0,0.1,0,0.2,0,0.3v3.7h-1v-3.6c0.1-0.8-0.4-1.5-1.2-1.6
			c-0.1,0-0.1,0-0.2,0c-1,0-1.7,0.8-1.7,2.2v3h-1L510,33.8z"/>
		<path d="M517.7,40.3c0.3,0.8,1.1,1.3,1.9,1.2c1,0,1.9-0.8,1.9-1.8c0-0.1,0-0.2,0-0.3v-0.7c-0.5,0.7-1.3,1.1-2.1,1.1
			c-1.7-0.1-3-1.5-2.9-3.2c0.1-1.6,1.3-2.8,2.9-2.9c0.8,0,1.6,0.4,2.1,1v-0.9h1v5.6c0.1,1.5-1,2.9-2.5,3c-0.2,0-0.3,0-0.5,0
			c-1.4,0.2-2.6-0.7-2.9-2.1H517.7z M519.5,34.6c-1.2-0.1-2.1,0.8-2.2,2s0.8,2.1,2,2.2s2.1-0.8,2.2-2v-0.1
			C521.6,35.6,520.7,34.7,519.5,34.6C519.6,34.6,519.6,34.6,519.5,34.6z"/>
		<path d="M525.5,40.6c0.1,0.9-0.6,1.7-1.5,1.8c-0.1,0-0.2,0-0.3,0c-0.2,0-0.3,0-0.5,0v-1c0.1,0,0.2,0,0.3,0c0.6,0,0.9-0.2,0.9-1
			v-6.6h1L525.5,40.6z M525,32.2c-0.4,0-0.7-0.3-0.7-0.7l0,0c0-0.4,0.3-0.7,0.7-0.7s0.7,0.3,0.7,0.7C525.7,31.8,525.4,32.1,525,32.2
			L525,32.2z"/>
		<path d="M527.8,32.2c-0.4,0-0.7-0.3-0.7-0.7l0,0c0-0.4,0.3-0.7,0.7-0.7s0.7,0.3,0.7,0.7C528.6,31.8,528.3,32.1,527.8,32.2
			C527.9,32.2,527.8,32.2,527.8,32.2z M527.3,33.8h1v6h-1V33.8z"/>
		<path d="M532.6,33.6c0.8,0,1.6,0.4,2.1,1v-0.9h1v6h-1v-0.9c-0.5,0.6-1.3,1-2.1,1c-1.7-0.1-3-1.6-2.9-3.4
			C529.9,34.9,531.1,33.7,532.6,33.6L532.6,33.6z M532.8,34.6c-1.2-0.1-2.2,0.8-2.3,2s0.8,2.2,2,2.3c1.2,0.1,2.2-0.8,2.3-2
			c0-0.1,0-0.1,0-0.2C534.9,35.6,534,34.6,532.8,34.6C532.9,34.6,532.8,34.6,532.8,34.6L532.8,34.6z"/>
		<path d="M537.6,33.8h1v0.9c0.4-0.7,1.1-1,1.9-1c1.2,0,2.2,0.9,2.3,2.2c0,0.1,0,0.2,0,0.3v3.7h-1v-3.6c0.1-0.8-0.4-1.5-1.2-1.6
			c-0.1,0-0.1,0-0.2,0c-1,0-1.7,0.8-1.7,2.2v3h-1L537.6,33.8z"/>
		<path d="M545.3,40.3c0.3,0.8,1.1,1.3,1.9,1.2c1,0,1.9-0.8,1.9-1.8c0-0.1,0-0.2,0-0.3v-0.7c-0.5,0.7-1.3,1.1-2.1,1.1
			c-1.7-0.1-3-1.5-2.9-3.2c0.1-1.6,1.3-2.8,2.9-2.9c0.8,0,1.6,0.4,2.1,1v-0.9h1v5.6c0.1,1.5-1,2.9-2.5,3c-0.1,0-0.3,0-0.4,0
			c-1.4,0.2-2.6-0.7-2.9-2.1H545.3z M547.2,34.6c-1.2-0.1-2.1,0.8-2.2,2s0.8,2.1,2,2.2s2.1-0.8,2.2-2v-0.1
			C549.3,35.6,548.4,34.7,547.2,34.6C547.2,34.6,547.2,34.6,547.2,34.6z"/>
		<path d="M552.8,35.9c0-2-0.5-4-1.5-5.8h0.8c2.1,3.6,2.1,8,0,11.5h-0.8C552.3,39.9,552.8,37.9,552.8,35.9z"/>
	</g>
</g>
<g id="Jiangxi">
	<g>
		<path d="M423.4,430.4c-1.1,0.1-2-0.8-2.1-1.9v-0.1h0.9c0,0.6,0.4,1.1,1.1,1.2h0.1c0.6,0,1.2-0.4,1.2-1.3v-5h0.9v5.1
			c0.1,1.1-0.7,2-1.8,2C423.6,430.4,423.5,430.4,423.4,430.4z"/>
	</g>
	<g>
		<path d="M427.5,423.9c-0.3,0-0.6-0.2-0.7-0.5c0-0.3,0.2-0.6,0.5-0.7c0.1,0,0.1,0,0.2,0c0.3,0,0.6,0.3,0.5,0.7
			C428,423.6,427.8,423.9,427.5,423.9z M427,425.2h0.9v5H427V425.2z"/>
		<path d="M431.5,425.1c0.7,0,1.3,0.3,1.8,0.9v-0.8h0.9v5h-0.9v-0.8c-0.4,0.6-1.1,0.9-1.8,0.9c-1.4-0.1-2.5-1.4-2.4-2.8
			C429.3,426.3,430.3,425.3,431.5,425.1z M431.7,425.9c-1-0.1-1.9,0.7-1.9,1.7c-0.1,1,0.7,1.9,1.7,1.9c1,0.1,1.9-0.7,1.9-1.7v-0.1
			C433.4,426.8,432.7,426,431.7,425.9L431.7,425.9z"/>
		<path d="M435.7,425.2h0.9v0.8c0.3-0.6,0.9-0.9,1.6-0.9c1,0,1.9,0.8,1.9,1.8c0,0.1,0,0.1,0,0.2v3.1h-0.9v-3c0.1-0.7-0.4-1.3-1-1.3
			c0,0-0.1,0-0.2,0c-0.8,0-1.5,0.7-1.5,1.8v2.5h-0.9v-5H435.7z"/>
		<path d="M442.1,430.7c0.2,0.7,0.9,1.1,1.6,1c0.9,0,1.6-0.7,1.6-1.5c0-0.1,0-0.1,0-0.2v-0.6c-0.4,0.6-1.1,0.9-1.7,0.9
			c-1.4-0.1-2.5-1.3-2.4-2.7c0.1-1.3,1.1-2.3,2.4-2.4c0.7,0,1.3,0.3,1.7,0.9v-0.8h0.9v4.7c0.1,1.3-0.8,2.4-2.1,2.5
			c-0.1,0-0.2,0-0.4,0c-1.1,0.1-2.2-0.6-2.4-1.7L442.1,430.7z M443.7,425.9c-1,0-1.8,0.7-1.8,1.7s0.7,1.8,1.7,1.8s1.8-0.7,1.8-1.7
			c0,0,0,0,0-0.1c0-0.9-0.7-1.7-1.6-1.7C443.8,425.9,443.7,425.9,443.7,425.9z"/>
		<path d="M449,427.7l-1.9-2.5h1l1.4,1.8l1.4-1.8h1.1l-1.9,2.5l2,2.5H451l-1.5-1.8l-1.5,1.9h-1L449,427.7z"/>
		<path d="M453.4,423.9c-0.3,0-0.6-0.2-0.7-0.5c0-0.3,0.2-0.6,0.5-0.7c0.1,0,0.1,0,0.2,0c0.3,0,0.6,0.3,0.5,0.7
			C453.9,423.6,453.7,423.9,453.4,423.9z M453,425.2h0.9v5H453V425.2z"/>
	</g>
</g>
<g id="Jilin">
	<g>
		<path d="M576,80.9c-1.1,0.1-2-0.8-2.1-1.9v-0.1h0.9c0,0.6,0.4,1.1,1.1,1.2h0.1c0.6,0,1.2-0.3,1.2-1.3v-5h0.9v5.1
			c0.1,1.1-0.7,2-1.8,2C576.2,80.9,576.1,80.9,576,80.9z"/>
	</g>
	<g>
		<path d="M580.1,74.4c-0.3,0-0.6-0.3-0.6-0.6l0,0c0-0.3,0.3-0.6,0.6-0.6s0.6,0.3,0.6,0.6l0,0C580.7,74.1,580.5,74.4,580.1,74.4
			L580.1,74.4z M579.7,75.7h0.9v5h-0.9V75.7z"/>
		<path d="M582.1,73.3h0.9v7.5h-0.9V73.3z"/>
		<path d="M585,74.4c-0.3,0-0.6-0.3-0.6-0.6l0,0c0-0.3,0.3-0.6,0.6-0.6s0.6,0.3,0.6,0.6l0,0C585.6,74.1,585.3,74.4,585,74.4
			L585,74.4z M584.6,75.7h0.9v5h-0.9V75.7z"/>
		<path d="M586.9,75.8h0.9v0.8c0.3-0.6,0.9-0.9,1.6-0.9c1,0,1.9,0.8,1.9,1.8c0,0.1,0,0.1,0,0.2v3.1h-0.8v-3c0.1-0.7-0.4-1.3-1-1.3
			c0,0-0.1,0-0.2,0c-0.8,0-1.5,0.7-1.5,1.8v2.5h-0.9V75.8z"/>
	</g>
</g>
<g id="Liaoning">
	<g>
		<path d="M528.5,129.6h0.9v6.2h3.4v0.9h-4.4L528.5,129.6L528.5,129.6z"/>
	</g>
	<g>
		<path d="M534.3,130.3c-0.3,0-0.6-0.3-0.6-0.6l0,0c0-0.3,0.3-0.6,0.6-0.6s0.6,0.3,0.6,0.6l0,0C534.9,130.1,534.6,130.3,534.3,130.3
			L534.3,130.3z M533.9,131.7h0.9v5h-0.9V131.7z"/>
		<path d="M538.4,131.6c0.7,0,1.3,0.3,1.8,0.9v-0.8h0.8v5h-0.9v-0.8c-0.4,0.6-1.1,0.9-1.8,0.9c-1.4,0-2.6-1.2-2.6-2.6
			C535.8,132.7,536.9,131.6,538.4,131.6L538.4,131.6z M538.5,132.4c-1-0.1-1.9,0.7-1.9,1.7s0.7,1.9,1.7,1.9s1.9-0.7,1.9-1.7v-0.1
			C540.3,133.2,539.5,132.4,538.5,132.4L538.5,132.4L538.5,132.4z"/>
		<path d="M544.8,136.8c-1.4,0-2.6-1.2-2.6-2.6c0-1.4,1.2-2.6,2.6-2.6c1.4,0,2.6,1.2,2.6,2.6C547.5,135.6,546.3,136.8,544.8,136.8
			C544.9,136.8,544.9,136.8,544.8,136.8z M544.8,136c1,0,1.8-0.7,1.9-1.7c0-1-0.7-1.8-1.7-1.9c-1,0-1.8,0.7-1.9,1.7c0,0,0,0,0,0.1
			c0,0.9,0.7,1.7,1.6,1.8C544.7,136,544.8,136,544.8,136z"/>
		<path d="M548.7,131.7h0.9v0.8c0.3-0.6,0.9-0.9,1.6-0.9c1,0,1.9,0.8,1.9,1.8c0,0.1,0,0.1,0,0.2v3.1h-0.8v-2.9
			c0.1-0.7-0.4-1.2-1.1-1.3c0,0,0,0-0.1,0c-0.8,0-1.5,0.7-1.5,1.8v2.5h-0.9L548.7,131.7z"/>
		<path d="M555,130.3c-0.3,0-0.6-0.3-0.6-0.6l0,0c0-0.3,0.3-0.6,0.6-0.6s0.6,0.3,0.6,0.6l0,0C555.6,130.1,555.3,130.3,555,130.3
			L555,130.3z M554.6,131.7h0.9v5h-0.9V131.7z"/>
		<path d="M557,131.7h0.9v0.8c0.3-0.6,0.9-0.9,1.6-0.9c1,0,1.9,0.8,1.9,1.8c0,0.1,0,0.1,0,0.2v3.1h-0.8v-2.9
			c0.1-0.7-0.4-1.2-1.1-1.3h-0.1c-0.8,0-1.5,0.7-1.5,1.8v2.5H557V131.7z"/>
		<path d="M563.5,137.1c0.2,0.7,0.9,1.1,1.6,1c0.9,0,1.6-0.7,1.6-1.5c0-0.1,0-0.1,0-0.2v-0.6c-0.4,0.6-1.1,0.9-1.7,0.9
			c-1.4-0.1-2.5-1.3-2.4-2.7c0.1-1.3,1.1-2.3,2.4-2.4c0.7,0,1.3,0.3,1.7,0.9v-0.8h0.9v4.7c0.1,1.3-0.8,2.4-2.1,2.5
			c-0.1,0-0.2,0-0.4,0c-1.1,0.1-2.2-0.6-2.4-1.7L563.5,137.1z M565,132.4c-1,0-1.8,0.7-1.8,1.7s0.7,1.8,1.7,1.8s1.8-0.7,1.8-1.7
			c0,0,0,0,0-0.1c0-0.9-0.7-1.7-1.6-1.7C565.1,132.4,565,132.4,565,132.4z"/>
	</g>
</g>
<g id="NeiMongol">
	<g>
		<path d="M344,146.1l-4.3-5.5v5.5h-0.9V139h0.8l4.3,5.5V139h0.9v7.1H344z"/>
	</g>
	<g>
		<path d="M348.5,146.2c-1.4,0-2.6-1.2-2.6-2.6c0-1.4,1.2-2.6,2.6-2.6c1.3,0,2.4,1.1,2.4,2.4c0,0.1,0,0.3,0,0.4h-4.1
			c0,0.9,0.8,1.6,1.7,1.6c0.6,0,1.2-0.3,1.5-0.8h0.9C350.5,145.6,349.6,146.3,348.5,146.2z M346.9,143.2h3.1
			c-0.1-0.8-0.7-1.4-1.5-1.4C347.7,141.8,347,142.4,346.9,143.2z"/>
		<path d="M352.5,139.8c-0.3,0-0.6-0.3-0.6-0.6l0,0c0-0.3,0.3-0.6,0.6-0.6c0.3,0,0.6,0.3,0.6,0.6l0,0
			C353.1,139.5,352.9,139.8,352.5,139.8L352.5,139.8z M352.1,141.1h0.9v5h-0.9V141.1z"/>
	</g>
	<g>
		<path d="M355.7,140.6v5.5h-0.9V139h0.9l2.6,3.5l2.6-3.5h0.8v7.1h-0.9v-5.5l-2.6,3.4L355.7,140.6z"/>
	</g>
	<g>
		<path d="M365.6,146.2c-1.4,0-2.6-1.2-2.6-2.6s1.2-2.6,2.6-2.6s2.6,1.2,2.6,2.6C368.2,145.1,367,146.2,365.6,146.2L365.6,146.2z
			 M365.6,145.4c1,0,1.8-0.7,1.9-1.7c0-1-0.7-1.8-1.7-1.9s-1.8,0.7-1.9,1.7c0,0,0,0,0,0.1C363.8,144.6,364.5,145.4,365.6,145.4
			C365.5,145.4,365.5,145.4,365.6,145.4L365.6,145.4z"/>
		<path d="M369.3,141.1h0.9v0.8c0.3-0.6,0.9-0.9,1.6-0.9c1,0,1.9,0.8,1.9,1.8c0,0.1,0,0.1,0,0.2v3.1h-0.9v-3c0.1-0.7-0.4-1.3-1-1.3
			c0,0-0.1,0-0.2,0c-0.8,0-1.5,0.7-1.5,1.8v2.5h-0.9v-5H369.3z"/>
		<path d="M375.7,146.6c0.2,0.7,0.9,1.1,1.6,1c0.9,0,1.6-0.7,1.6-1.5c0-0.1,0-0.1,0-0.2v-0.6c-0.4,0.6-1.1,0.9-1.7,0.9
			c-1.4-0.1-2.5-1.3-2.4-2.7c0.1-1.3,1.1-2.3,2.4-2.4c0.7,0,1.3,0.3,1.7,0.9v-0.8h0.9v4.7c0.1,1.3-0.8,2.4-2.1,2.5
			c-0.1,0-0.2,0-0.4,0c-1.1,0.1-2.2-0.6-2.4-1.7L375.7,146.6z M377.3,141.8c-1,0-1.8,0.7-1.8,1.7s0.7,1.8,1.7,1.8s1.8-0.7,1.8-1.7
			c0,0,0,0,0-0.1c0-0.9-0.7-1.7-1.6-1.7H377.3z"/>
		<path d="M383.5,146.2c-1.4,0-2.6-1.2-2.6-2.6s1.2-2.6,2.6-2.6s2.6,1.2,2.6,2.6C386.1,145.1,385,146.2,383.5,146.2L383.5,146.2z
			 M383.5,145.4c1,0,1.8-0.7,1.9-1.7c0-1-0.7-1.8-1.7-1.9s-1.8,0.7-1.9,1.7c0,0,0,0,0,0.1C381.7,144.6,382.5,145.4,383.5,145.4
			C383.4,145.4,383.5,145.4,383.5,145.4L383.5,145.4z"/>
		<path d="M387.2,138.6h0.9v7.5h-0.9V138.6z"/>
	</g>
</g>
<g id="Ningxia">
	<g>
		<path d="M253.4,209.3l-4.3-5.5v5.5h-0.9v-7.1h0.9l4.3,5.5v-5.5h0.9v7.1H253.4z"/>
	</g>
	<g>
		<path d="M256.3,203c-0.3,0-0.6-0.3-0.6-0.6l0,0c0-0.3,0.3-0.6,0.6-0.6c0.3,0,0.6,0.3,0.6,0.6l0,0C256.9,202.7,256.7,203,256.3,203
			L256.3,203z M255.9,204.3h0.9v5h-0.9V204.3z"/>
		<path d="M258.4,204.3h0.9v0.8c0.3-0.6,0.9-0.9,1.6-0.9c1,0,1.9,0.8,1.9,1.8c0,0.1,0,0.1,0,0.2v3.1h-0.9v-2.9
			c0.1-0.7-0.4-1.3-1-1.3c0,0-0.1,0-0.2,0c-0.8,0-1.5,0.6-1.5,1.8v2.5h-0.9v-5.1H258.4z"/>
		<path d="M264.8,209.8c0.2,0.7,0.9,1.1,1.6,1c0.9,0,1.6-0.6,1.6-1.5c0-0.1,0-0.2,0-0.3v-0.6c-0.4,0.6-1.1,0.9-1.7,0.9
			c-1.4,0-2.5-1.1-2.5-2.5s1.1-2.5,2.5-2.5l0,0c0.7,0,1.3,0.3,1.7,0.9v-0.8h0.9v4.7c0.1,1.3-0.8,2.4-2.1,2.5c-0.1,0-0.2,0-0.4,0
			c-1.1,0.1-2.2-0.6-2.4-1.7L264.8,209.8z M266.4,205c-1,0-1.8,0.7-1.8,1.7s0.7,1.8,1.7,1.8s1.8-0.7,1.8-1.7c0,0,0,0,0-0.1
			c0-0.9-0.7-1.7-1.6-1.7H266.4z"/>
		<path d="M271.7,206.8l-1.9-2.5h1l1.4,1.8l1.4-1.8h1l-1.9,2.5l2,2.5h-1l-1.5-1.9l-1.5,1.9h-1.1L271.7,206.8z"/>
		<path d="M276.1,203c-0.3,0-0.6-0.3-0.6-0.6l0,0c0-0.3,0.3-0.6,0.6-0.6c0.3,0,0.6,0.3,0.6,0.6l0,0C276.7,202.7,276.5,203,276.1,203
			L276.1,203z M275.7,204.3h0.9v5h-0.9V204.3z"/>
		<path d="M280.2,204.2c0.7,0,1.3,0.3,1.8,0.9v-0.8h0.9v5H282v-0.8c-0.4,0.6-1.1,0.9-1.8,0.9c-1.4-0.1-2.5-1.3-2.4-2.8
			C277.9,205.3,278.9,204.3,280.2,204.2L280.2,204.2z M280.3,205c-1-0.1-1.9,0.7-1.9,1.7s0.7,1.9,1.7,1.9c1,0.1,1.9-0.7,1.9-1.7
			v-0.1C282.1,205.9,281.4,205.1,280.3,205C280.4,205,280.4,205,280.3,205L280.3,205z"/>
	</g>
</g>
<g id="Qinghai">
	<g>
		<path d="M171.7,260c-0.6,0.5-1.4,0.7-2.2,0.7c-2,0-3.6-1.7-3.6-3.7s1.7-3.6,3.7-3.6s3.6,1.7,3.6,3.7c0,0.8-0.3,1.6-0.8,2.2
			l1.3,1.2h-1.3L171.7,260z M169.4,259.9c0.6,0,1.1-0.2,1.6-0.5l-1.1-1l0.6-0.6l1.2,1.1c0.4-0.5,0.6-1.1,0.6-1.7
			c0-1.5-1.3-2.7-2.8-2.7s-2.7,1.3-2.7,2.8C166.7,258.7,167.9,259.9,169.4,259.9L169.4,259.9z"/>
	</g>
	<g>
		<path d="M174.9,254.3c-0.3,0-0.6-0.3-0.6-0.6l0,0c0-0.3,0.3-0.6,0.6-0.6s0.6,0.3,0.6,0.6l0,0C175.5,254,175.3,254.3,174.9,254.3
			L174.9,254.3z M174.5,255.6h0.9v5h-0.9V255.6z"/>
		<path d="M177,255.6h0.9v0.8c0.3-0.6,0.9-0.9,1.6-0.9c1,0,1.9,0.8,1.9,1.8c0,0.1,0,0.1,0,0.2v3.1h-0.9v-3c0.1-0.7-0.4-1.3-1-1.3
			c0,0-0.1,0-0.2,0c-0.8,0-1.4,0.7-1.4,1.8v2.5H177V255.6z"/>
		<path d="M183.5,261.1c0.2,0.7,0.9,1.1,1.6,1c0.9,0,1.6-0.7,1.6-1.5c0-0.1,0-0.1,0-0.2v-0.6c-0.4,0.6-1.1,0.9-1.7,0.9
			c-1.4-0.1-2.5-1.3-2.4-2.7c0.1-1.3,1.1-2.3,2.4-2.4c0.7,0,1.3,0.3,1.7,0.9v-0.8h0.9v4.7c0.1,1.3-0.8,2.4-2.1,2.5
			c-0.1,0-0.2,0-0.4,0c-1.1,0.1-2.2-0.6-2.4-1.7L183.5,261.1z M185,256.3c-1,0-1.8,0.7-1.8,1.7s0.7,1.8,1.7,1.8s1.8-0.7,1.8-1.7
			c0,0,0,0,0-0.1C186.8,257.1,186,256.3,185,256.3C185.1,256.3,185.1,256.3,185,256.3L185,256.3z"/>
		<path d="M189.1,253.1h0.9v3.3c0.3-0.6,0.9-0.9,1.6-0.9c1,0,1.9,0.8,1.9,1.8c0,0.1,0,0.1,0,0.2v3.1h-0.9v-3c0.1-0.7-0.4-1.3-1-1.3
			c0,0-0.1,0-0.2,0c-0.8,0-1.4,0.7-1.4,1.8v2.5h-0.9L189.1,253.1z"/>
		<path d="M197.1,255.5c0.7,0,1.3,0.3,1.8,0.9v-0.8h0.9v5h-0.9v-0.8c-0.4,0.6-1.1,0.9-1.8,0.9c-1.4,0-2.6-1.2-2.6-2.6
			S195.6,255.5,197.1,255.5L197.1,255.5z M197.2,256.3c-1-0.1-1.9,0.7-1.9,1.7c-0.1,1,0.7,1.9,1.7,1.9s1.9-0.7,1.9-1.7v-0.1
			C198.9,257.2,198.2,256.4,197.2,256.3L197.2,256.3L197.2,256.3z"/>
		<path d="M201.7,254.3c-0.3,0-0.6-0.3-0.6-0.6l0,0c0-0.3,0.3-0.6,0.6-0.6s0.6,0.3,0.6,0.6l0,0C202.3,254,202.1,254.3,201.7,254.3
			L201.7,254.3z M201.3,255.6h0.9v5h-0.9V255.6z"/>
	</g>
</g>
<g id="Shaanxi">
	<g>
		<path d="M295.6,320.3c0.1,0.7,0.8,1.2,1.5,1.1c0.7,0,1.3-0.4,1.3-1.1s-0.4-1-1-1.2l-1-0.4c-1-0.2-1.6-1-1.6-2
			c0-1.1,0.9-1.9,1.9-1.9c0.1,0,0.1,0,0.2,0c1.1-0.1,2.1,0.8,2.2,1.9h-0.9c-0.1-0.6-0.7-1.1-1.3-1c-0.7,0-1.2,0.4-1.2,1
			s0.3,0.9,1,1.1l0.9,0.3c1.1,0.4,1.7,1,1.7,2.1s-0.9,2-2,2c-0.1,0-0.2,0-0.3,0c-1.2,0.1-2.3-0.8-2.5-2l0,0L295.6,320.3z"/>
	</g>
	<g>
		<path d="M300.6,314.7h0.9v3.3c0.3-0.6,0.9-0.9,1.6-0.9c1,0,1.9,0.8,1.9,1.8c0,0.1,0,0.1,0,0.2v3.1h-0.9v-2.9
			c0.1-0.7-0.4-1.3-1-1.3c0,0-0.1,0-0.2,0c-0.8,0-1.5,0.6-1.5,1.8v2.5h-0.9v-7.6H300.6z"/>
		<path d="M308.5,317.1c0.7,0,1.3,0.3,1.8,0.9v-0.8h0.9v5h-0.9v-0.8c-0.4,0.6-1.1,0.9-1.8,0.9c-1.4-0.1-2.5-1.3-2.4-2.8
			C306.2,318.2,307.2,317.2,308.5,317.1L308.5,317.1z M308.7,317.9c-1-0.1-1.9,0.7-1.9,1.7c-0.1,1,0.7,1.9,1.7,1.9
			c1,0.1,1.9-0.7,1.9-1.7v-0.1C310.4,318.7,309.7,317.9,308.7,317.9L308.7,317.9L308.7,317.9z"/>
		<path d="M314.8,317.1c0.7,0,1.3,0.3,1.8,0.9v-0.8h0.9v5h-0.9v-0.8c-0.4,0.6-1.1,0.9-1.8,0.9c-1.4-0.1-2.5-1.3-2.4-2.8
			C312.5,318.2,313.5,317.2,314.8,317.1L314.8,317.1z M315,317.9c-1-0.1-1.9,0.7-1.9,1.7c-0.1,1,0.7,1.9,1.7,1.9
			c1,0.1,1.9-0.7,1.9-1.7v-0.1C316.7,318.7,316,317.9,315,317.9L315,317.9L315,317.9z"/>
		<path d="M319,317.2h0.9v0.8c0.3-0.6,0.9-0.9,1.6-0.9c1,0,1.9,0.8,1.9,1.8c0,0.1,0,0.1,0,0.2v3.1h-0.9v-2.9c0.1-0.7-0.4-1.3-1-1.3
			c0,0-0.1,0-0.2,0c-0.8,0-1.5,0.6-1.5,1.8v2.5H319V317.2z"/>
		<path d="M326.2,319.7l-1.9-2.5h1l1.4,1.8l1.4-1.8h1l-1.9,2.5l2,2.5h-1.1l-1.5-1.9l-1.5,1.9H324L326.2,319.7z"/>
		<path d="M330.6,315.9c-0.3,0-0.6-0.3-0.6-0.6l0,0c0-0.3,0.3-0.6,0.6-0.6c0.3,0,0.6,0.3,0.6,0.6l0,0
			C331.2,315.6,331,315.9,330.6,315.9L330.6,315.9z M330.2,317.2h0.9v5h-0.9V317.2z"/>
	</g>
</g>
<g id="Shandong">
	<g>
		<path d="M436.3,256.3c0.1,0.7,0.8,1.2,1.5,1.1c0.7,0,1.3-0.4,1.3-1.1s-0.4-1-1-1.2l-1-0.4c-1-0.2-1.7-1-1.6-2c0-1.1,0.9-1.9,2-1.9
			c0.1,0,0.1,0,0.2,0c1.1-0.1,2.1,0.8,2.2,1.9H439c-0.2-0.6-0.7-1-1.3-1c-0.7,0-1.2,0.4-1.2,1s0.3,0.9,1,1.1l0.9,0.3
			c1,0.2,1.7,1.1,1.7,2.1c0,1.1-0.9,2-2,2c-0.1,0-0.2,0-0.3,0c-1.2,0.1-2.3-0.8-2.5-2L436.3,256.3z"/>
	</g>
	<g>
		<path d="M441.3,250.7h0.9v3.3c0.3-0.6,0.9-0.9,1.6-0.9c1,0,1.9,0.8,1.9,1.8c0,0.1,0,0.1,0,0.2v3.1h-0.9v-3c0.1-0.7-0.4-1.3-1-1.3
			c0,0-0.1,0-0.2,0c-0.8,0-1.5,0.7-1.5,1.8v2.5h-0.9v-7.5H441.3z"/>
		<path d="M449.3,253.1c0.7,0,1.3,0.3,1.8,0.9v-0.8h0.9v5h-1v-0.8c-0.4,0.6-1.1,0.9-1.8,0.9c-1.4,0-2.6-1.2-2.6-2.6
			S447.8,253.1,449.3,253.1L449.3,253.1z M449.4,253.9c-1-0.1-1.9,0.7-1.9,1.7c-0.1,1,0.7,1.9,1.7,1.9c1,0.1,1.9-0.7,1.9-1.7v-0.1
			C451.1,254.8,450.4,254,449.4,253.9L449.4,253.9z"/>
		<path d="M453.5,253.2h0.9v0.8c0.3-0.6,0.9-0.9,1.6-0.9c1,0,1.9,0.8,1.9,1.8c0,0.1,0,0.1,0,0.2v3.1H457v-3c0.1-0.7-0.4-1.3-1-1.3
			c0,0-0.1,0-0.2,0c-0.8,0-1.5,0.7-1.5,1.8v2.5h-0.9L453.5,253.2z"/>
		<path d="M461.4,253.1c0.7,0,1.3,0.3,1.8,0.9v-3.3h0.8v7.5h-0.9v-0.8c-0.4,0.6-1.1,0.9-1.8,0.9c-1.4,0-2.6-1.2-2.6-2.6
			S459.9,253.1,461.4,253.1L461.4,253.1z M461.5,253.9c-1-0.1-1.9,0.7-1.9,1.7c-0.1,1,0.7,1.9,1.7,1.9c1,0.1,1.9-0.7,1.9-1.7v-0.1
			C463.3,254.8,462.6,254,461.5,253.9C461.6,253.9,461.6,253.9,461.5,253.9z"/>
		<path d="M467.9,258.3c-1.4,0-2.6-1.2-2.6-2.6s1.2-2.6,2.6-2.6s2.6,1.2,2.6,2.6C470.5,257.1,469.3,258.3,467.9,258.3L467.9,258.3z
			 M467.9,257.5c1,0,1.8-0.7,1.9-1.7s-0.7-1.8-1.7-1.9s-1.8,0.7-1.9,1.7c0,0,0,0,0,0.1c0,0.9,0.7,1.7,1.6,1.8
			C467.8,257.5,467.8,257.5,467.9,257.5L467.9,257.5z"/>
		<path d="M471.7,253.2h0.9v0.8c0.3-0.6,0.9-0.9,1.6-0.9c1,0,1.9,0.8,1.9,1.8c0,0.1,0,0.1,0,0.2v3.1h-0.9v-3c0.1-0.7-0.4-1.3-1-1.3
			c0,0-0.1,0-0.2,0c-0.8,0-1.5,0.7-1.5,1.8v2.5h-0.9v-5H471.7z"/>
		<path d="M478.2,258.7c0.2,0.7,0.9,1.1,1.6,1c0.9,0,1.6-0.7,1.6-1.5c0-0.1,0-0.1,0-0.2v-0.6c-0.4,0.6-1.1,0.9-1.7,0.9
			c-1.4-0.1-2.5-1.3-2.4-2.7c0.1-1.3,1.1-2.3,2.4-2.4c0.7,0,1.3,0.3,1.7,0.9v-0.8h0.9v4.7c0.1,1.3-0.8,2.4-2.1,2.5
			c-0.1,0-0.2,0-0.4,0c-1.1,0.1-2.2-0.6-2.4-1.7L478.2,258.7z M479.7,253.9c-1,0-1.8,0.7-1.8,1.7s0.7,1.8,1.7,1.8s1.8-0.7,1.8-1.7
			c0,0,0,0,0-0.1c0-0.9-0.7-1.7-1.6-1.7C479.8,253.9,479.8,253.9,479.7,253.9z"/>
	</g>
</g>
<g id="Shanghai">
	<g>
		<path d="M518.2,360.1c0.1,0.7,0.8,1.2,1.5,1.1c0.7,0,1.3-0.4,1.3-1.1s-0.3-1-1-1.2l-1-0.4c-1-0.2-1.7-1-1.6-2c0-1.1,0.9-1.9,2-1.9
			c0.1,0,0.1,0,0.2,0c1.1-0.1,2.1,0.8,2.2,1.9H521c-0.2-0.6-0.7-1-1.3-1c-0.7,0-1.2,0.4-1.2,1s0.3,0.9,1,1.1l0.9,0.3
			c1,0.2,1.7,1.1,1.7,2.1c0,1.1-0.9,2-2,2c-0.1,0-0.2,0-0.3,0c-1.2,0.1-2.3-0.8-2.5-2L518.2,360.1z"/>
	</g>
	<g>
		<path d="M523.3,354.5h0.9v3.3c0.3-0.6,0.9-0.9,1.6-0.9c1,0,1.9,0.8,1.9,1.8c0,0.1,0,0.1,0,0.2v3.1h-0.8v-3c0.1-0.7-0.4-1.3-1-1.3
			c0,0-0.1,0-0.2,0c-0.8,0-1.5,0.7-1.5,1.8v2.5h-0.9V354.5z"/>
		<path d="M531.2,356.9c0.7,0,1.3,0.3,1.8,0.9V357h0.9v5H533v-0.8c-0.4,0.6-1.1,0.9-1.8,0.9c-1.4,0-2.6-1.2-2.6-2.6
			S529.8,356.9,531.2,356.9L531.2,356.9z M531.3,357.7c-1-0.1-1.9,0.7-1.9,1.7c-0.1,1,0.7,1.9,1.7,1.9s1.9-0.7,1.9-1.7v-0.1
			C533.1,358.5,532.4,357.7,531.3,357.7C531.4,357.7,531.4,357.7,531.3,357.7z"/>
		<path d="M535.4,357h0.9v0.8c0.3-0.6,0.9-0.9,1.6-0.9c1,0,1.9,0.8,1.9,1.8c0,0.1,0,0.1,0,0.2v3.1H539v-3c0.1-0.7-0.4-1.3-1-1.3
			c0,0-0.1,0-0.2,0c-0.8,0-1.5,0.7-1.5,1.8v2.5h-0.9V357z"/>
		<path d="M541.9,362.4c0.2,0.7,0.9,1.1,1.6,1c0.9,0,1.6-0.6,1.6-1.5c0-0.1,0-0.2,0-0.2v-0.6c-0.4,0.6-1,0.9-1.7,0.9
			c-1.4-0.1-2.5-1.3-2.4-2.7c0.1-1.3,1.1-2.3,2.4-2.4c0.7,0,1.3,0.3,1.7,0.9V357h0.9v4.7c0.1,1.3-0.8,2.4-2.1,2.5
			c-0.1,0-0.2,0-0.3,0c-1.1,0.1-2.2-0.6-2.4-1.7L541.9,362.4z M543.5,357.6c-1,0-1.8,0.7-1.8,1.7s0.7,1.8,1.7,1.8s1.8-0.7,1.8-1.7
			c0,0,0,0,0-0.1C545.2,358.5,544.5,357.7,543.5,357.6C543.5,357.7,543.5,357.7,543.5,357.6L543.5,357.6z"/>
		<path d="M547.6,354.5h0.9v3.3c0.3-0.6,0.9-0.9,1.6-0.9c1,0,1.9,0.8,1.9,1.8c0,0.1,0,0.1,0,0.2v3.1h-1v-3c0.1-0.7-0.4-1.3-1-1.3
			c0,0-0.1,0-0.2,0c-0.8,0-1.5,0.7-1.5,1.8v2.5h-0.9v-7.5H547.6z"/>
		<path d="M555.5,356.9c0.7,0,1.3,0.3,1.8,0.9V357h0.8v5h-0.8v-0.8c-0.4,0.6-1.1,0.9-1.8,0.9c-1.4,0-2.6-1.2-2.6-2.6
			S554.1,356.9,555.5,356.9z M555.6,357.7c-1-0.1-1.9,0.7-1.9,1.7s0.7,1.9,1.7,1.9c1,0.1,1.9-0.7,1.9-1.7v-0.1
			C557.4,358.5,556.6,357.7,555.6,357.7C555.7,357.7,555.6,357.7,555.6,357.7z"/>
		<path d="M560.2,355.6c-0.3,0-0.6-0.3-0.6-0.6l0,0c0-0.3,0.3-0.6,0.6-0.6s0.6,0.3,0.6,0.6l0,0C560.8,355.4,560.5,355.6,560.2,355.6
			L560.2,355.6z M559.7,357h0.9v5h-0.9V357z"/>
	</g>
</g>
<g id="Shanxi">
	<g>
		<path d="M362.3,223.5c0.1,0.7,0.8,1.2,1.5,1.1c0.7,0,1.3-0.4,1.3-1.1s-0.3-1-1-1.2l-1-0.4c-1-0.2-1.7-1-1.6-2
			c0-1.1,0.9-1.9,1.9-1.9c0.1,0,0.1,0,0.2,0c1.1-0.1,2.1,0.8,2.2,1.9H365c-0.1-0.6-0.7-1.1-1.3-1c-0.7,0-1.2,0.4-1.2,1
			s0.3,0.9,1,1.1l0.9,0.3c1,0.2,1.7,1.1,1.7,2.1c0,1.1-0.9,2-2,2c-0.1,0-0.2,0-0.3,0c-1.2,0.1-2.3-0.8-2.5-2L362.3,223.5z"/>
	</g>
	<g>
		<path d="M367.3,217.9h0.9v3.3c0.3-0.6,0.9-0.9,1.6-0.9c1,0,1.9,0.8,1.9,1.8c0,0.1,0,0.1,0,0.2v3.1h-0.9v-3c0-0.8-0.5-1.4-1.2-1.4
			s-1.5,0.7-1.5,1.8v2.5h-0.9L367.3,217.9z"/>
		<path d="M375.2,220.3c0.7,0,1.3,0.3,1.8,0.9v-0.8h0.9v5H377v-0.8c-0.4,0.5-1.1,0.9-1.8,0.9c-1.4,0-2.6-1.2-2.6-2.6
			S373.8,220.3,375.2,220.3L375.2,220.3z M375.4,221.1c-1-0.1-1.9,0.7-1.9,1.7c-0.1,1,0.7,1.9,1.7,1.9c1,0.1,1.9-0.7,1.9-1.7v-0.1
			C377.1,222,376.4,221.2,375.4,221.1L375.4,221.1z"/>
		<path d="M379.5,220.4h0.9v0.8c0.3-0.6,0.9-0.9,1.6-0.9c1,0,1.9,0.8,1.9,1.8c0,0.1,0,0.1,0,0.2v3.1H383v-3c0.1-0.7-0.4-1.3-1-1.3
			c0,0-0.1,0-0.2,0c-0.8,0-1.4,0.7-1.4,1.8v2.5h-0.9V220.4z"/>
		<path d="M386.6,222.9l-1.9-2.5h1l1.4,1.8l1.4-1.8h1l-1.9,2.5l2,2.5h-1.1l-1.5-1.9l-1.4,1.9h-1.1L386.6,222.9z"/>
		<path d="M391.1,219.1c-0.3,0-0.6-0.3-0.6-0.6l0,0c0-0.3,0.3-0.6,0.6-0.6c0.3,0,0.6,0.3,0.6,0.6l0,0
			C391.7,218.8,391.4,219.1,391.1,219.1L391.1,219.1z M390.6,220.4h0.9v5h-0.9V220.4z"/>
	</g>
</g>
<g id="Sichuan">
	<g>
		<path d="M207.7,374.9c0.1,0.7,0.8,1.2,1.5,1.1c0.7,0,1.3-0.4,1.3-1.1s-0.4-1-1-1.2l-1-0.4c-1.1-0.4-1.6-1-1.6-2
			c0-1.1,0.9-1.9,2-1.9c0.1,0,0.1,0,0.2,0c1.1-0.1,2.1,0.8,2.2,1.9h-0.9c-0.1-0.6-0.7-1.1-1.3-1c-0.7,0-1.2,0.4-1.2,1s0.3,0.9,1,1.1
			l0.9,0.3c1.1,0.4,1.7,1,1.7,2.1s-0.9,2-2,2c-0.1,0-0.2,0-0.3,0c-1.2,0.1-2.3-0.8-2.5-2L207.7,374.9z"/>
	</g>
	<g>
		<path d="M213.1,370.4c-0.3,0-0.6-0.3-0.6-0.6l0,0c0-0.3,0.3-0.6,0.6-0.6s0.6,0.3,0.6,0.6l0,0C213.7,370.1,213.4,370.4,213.1,370.4
			L213.1,370.4z M212.6,371.7h0.9v5h-0.9V371.7z"/>
		<path d="M217.3,376.9c-1.4,0.1-2.7-1-2.8-2.4s1-2.7,2.4-2.8c0.1,0,0.2,0,0.3,0c1.2,0,2.2,0.7,2.5,1.9h-0.9
			c-0.2-0.7-0.9-1.1-1.6-1.1c-1,0.1-1.7,0.9-1.7,1.9c0.1,0.9,0.8,1.6,1.7,1.7c0.7,0,1.4-0.4,1.6-1.1h0.9
			C219.5,376.1,218.4,376.9,217.3,376.9z"/>
		<path d="M220.9,369.3h0.9v3.3c0.3-0.6,0.9-0.9,1.6-0.9c1,0,1.9,0.8,1.9,1.8c0,0.1,0,0.1,0,0.2v3.1h-0.9v-3c0.1-0.7-0.4-1.3-1-1.3
			c-0.1,0-0.1,0-0.2,0c-0.8,0-1.4,0.6-1.4,1.8v2.5h-0.9L220.9,369.3L220.9,369.3z"/>
		<path d="M226.6,371.8h0.9v2.9c0,0.8,0.4,1.4,1.1,1.4s1.4-0.7,1.4-1.8v-2.5h0.9v5H230V376c-0.3,0.6-0.9,0.9-1.5,0.9
			c-1,0-1.8-0.8-1.8-1.8c0-0.1,0-0.1,0-0.2L226.6,371.8z"/>
		<path d="M234.5,371.7c0.7,0,1.3,0.3,1.8,0.9v-0.8h0.9v5h-0.9V376c-0.4,0.6-1.1,0.9-1.8,0.9c-1.4-0.1-2.5-1.3-2.4-2.8
			C232.1,372.8,233.2,371.8,234.5,371.7L234.5,371.7z M234.6,372.5c-1-0.1-1.9,0.7-1.9,1.7c-0.1,1,0.7,1.9,1.7,1.9
			c1,0.1,1.9-0.7,1.9-1.7v-0.1C236.4,373.3,235.6,372.5,234.6,372.5C234.7,372.5,234.6,372.5,234.6,372.5L234.6,372.5z"/>
		<path d="M238.7,371.8h0.9v0.8c0.3-0.6,0.9-0.9,1.6-0.9c1,0,1.9,0.8,1.9,1.8c0,0.1,0,0.1,0,0.2v3.1h-0.9v-3c0.1-0.7-0.4-1.3-1-1.3
			c-0.1,0-0.1,0-0.2,0c-0.8,0-1.5,0.6-1.5,1.8v2.5h-0.9v-5H238.7z"/>
	</g>
</g>
<g id="Tianjin">
	<g>
		<path d="M447.9,185.4h-2.2v-0.9h5.3v0.9h-2.2v6.2h-0.9L447.9,185.4z"/>
	</g>
	<g>
		<path d="M452.3,185.2c-0.3,0-0.6-0.3-0.6-0.6l0,0c0-0.3,0.3-0.6,0.6-0.6c0.3,0,0.6,0.3,0.6,0.6l0,0
			C452.9,185,452.6,185.2,452.3,185.2L452.3,185.2z M451.9,186.6h0.9v5h-0.9V186.6z"/>
		<path d="M456.3,186.5c0.7,0,1.3,0.3,1.8,0.9v-0.8h0.9v5h-0.9v-0.8c-0.4,0.6-1.1,0.9-1.8,0.9c-1.4-0.1-2.5-1.3-2.4-2.8
			C454,187.6,455.1,186.6,456.3,186.5L456.3,186.5z M456.5,187.3c-1-0.1-1.9,0.7-1.9,1.7s0.7,1.9,1.7,1.9c1,0.1,1.9-0.7,1.9-1.7
			v-0.1C458.2,188.1,457.5,187.3,456.5,187.3L456.5,187.3z"/>
		<path d="M460.5,186.6h0.9v0.8c0.3-0.6,0.9-0.9,1.6-0.9c1,0,1.9,0.8,1.9,1.8c0,0.1,0,0.1,0,0.2v3.1H464v-2.9c0.1-0.7-0.4-1.3-1-1.3
			c0,0-0.1,0-0.2,0c-0.8,0-1.5,0.6-1.5,1.8v2.5h-0.9L460.5,186.6z"/>
		<path d="M467.3,192.2c0.1,0.8-0.5,1.5-1.3,1.5c-0.1,0-0.2,0-0.3,0c-0.1,0-0.3,0-0.4,0v-0.8h0.3c0.5,0,0.8-0.2,0.8-0.9v-5.6h0.9
			V192.2z M466.9,185.2c-0.3,0-0.6-0.3-0.6-0.6l0,0c0-0.3,0.3-0.6,0.6-0.6c0.3,0,0.6,0.3,0.6,0.6l0,0
			C467.5,184.9,467.2,185.2,466.9,185.2L466.9,185.2L466.9,185.2z"/>
		<path d="M469.3,185.2c-0.3,0-0.6-0.3-0.6-0.6l0,0c0-0.3,0.3-0.6,0.6-0.6c0.3,0,0.6,0.3,0.6,0.6l0,0
			C469.9,185,469.6,185.2,469.3,185.2L469.3,185.2z M468.9,186.6h0.9v5h-0.9V186.6z"/>
		<path d="M471.3,186.6h0.9v0.8c0.3-0.6,0.9-0.9,1.6-0.9c1,0,1.9,0.8,1.9,1.8c0,0.1,0,0.1,0,0.2v3.1h-0.9v-2.9
			c0.1-0.7-0.4-1.3-1-1.3c0,0-0.1,0-0.2,0c-0.8,0-1.5,0.6-1.5,1.8v2.5h-0.9v-5.1H471.3z"/>
	</g>
</g>
<g id="Xinjiang">
	<g>
		<path d="M33.5,64l-2.2,2.8h-1.1l2.8-3.6l-2.6-3.5h1.1l2.1,2.8l2.1-2.8h1.1l-2.6,3.5l2.7,3.6h-1.2L33.5,64z"/>
		<path d="M38.1,60.5c-0.3,0-0.6-0.3-0.6-0.6l0,0c0-0.3,0.3-0.6,0.6-0.6c0.3,0,0.6,0.3,0.6,0.6l0,0C38.7,60.2,38.5,60.5,38.1,60.5
			L38.1,60.5z M37.7,61.8h0.9v5h-0.9C37.7,66.8,37.7,61.8,37.7,61.8z"/>
		<path d="M40.2,61.8h0.9v0.8c0.3-0.6,0.9-0.9,1.6-0.9c1,0,1.9,0.8,1.9,1.8c0,0.1,0,0.1,0,0.2v3.1h-0.8v-3c0.1-0.7-0.4-1.3-1-1.3
			c0,0-0.1,0-0.2,0c-0.8,0-1.4,0.7-1.4,1.8v2.5h-0.9L40.2,61.8L40.2,61.8z"/>
		<path d="M47,67.5c0.1,0.8-0.5,1.5-1.3,1.5c-0.1,0-0.2,0-0.3,0c-0.1,0-0.3,0-0.4,0v-0.8h0.3c0.5,0,0.8-0.2,0.8-0.8v-5.6H47V67.5z
			 M46.6,60.5c-0.3,0-0.6-0.3-0.6-0.6c0-0.3,0.3-0.6,0.6-0.6c0.3,0,0.6,0.3,0.6,0.6l0,0C47.2,60.2,47,60.5,46.6,60.5L46.6,60.5
			L46.6,60.5z"/>
		<path d="M49.1,60.5c-0.3,0-0.6-0.3-0.6-0.6l0,0c0-0.3,0.3-0.6,0.6-0.6c0.3,0,0.6,0.3,0.6,0.6l0,0C49.7,60.2,49.4,60.5,49.1,60.5
			L49.1,60.5z M48.6,61.8h0.9v5h-0.9V61.8z"/>
		<path d="M53.2,61.7c0.7,0,1.3,0.3,1.8,0.9v-0.8h0.9v5H55V66c-0.4,0.6-1.1,0.9-1.8,0.9c-1.4,0-2.6-1.2-2.6-2.6S51.8,61.8,53.2,61.7
			L53.2,61.7z M53.3,62.5c-1-0.1-1.9,0.7-1.9,1.7c-0.1,1,0.7,1.9,1.7,1.9c1,0.1,1.9-0.7,1.9-1.7v-0.1C55.1,63.5,54.4,62.6,53.3,62.5
			C53.4,62.5,53.4,62.5,53.3,62.5z"/>
		<path d="M57.4,61.8h0.9v0.8c0.3-0.6,0.9-0.9,1.6-0.9c1,0,1.9,0.8,1.9,1.8c0,0.1,0,0.1,0,0.2v3.1H61v-3c0.1-0.7-0.4-1.3-1-1.3
			c0,0-0.1,0-0.2,0c-0.8,0-1.4,0.7-1.4,1.8v2.5h-0.9L57.4,61.8L57.4,61.8z"/>
		<path d="M64,67.3c0.2,0.7,0.9,1.1,1.6,1c0.9,0,1.6-0.7,1.6-1.5c0-0.1,0-0.1,0-0.2V66c-0.4,0.6-1.1,0.9-1.7,0.9
			c-1.4-0.1-2.5-1.3-2.4-2.7c0.1-1.3,1.1-2.3,2.4-2.4c0.7,0,1.3,0.3,1.7,0.9v-0.8H68v4.7c0.1,1.3-0.8,2.4-2.1,2.5
			c-0.1,0-0.2,0-0.4,0c-1.1,0.1-2.2-0.6-2.4-1.7L64,67.3z M65.6,62.5c-1,0-1.8,0.7-1.8,1.7s0.7,1.8,1.7,1.8s1.8-0.7,1.8-1.7
			c0,0,0,0,0-0.1C67.4,63.3,66.6,62.5,65.6,62.5C65.6,62.5,65.6,62.5,65.6,62.5L65.6,62.5z"/>
	</g>
</g>
<g id="Xizang">
	<g>
		<path d="M97.3,392.7l-2.2,2.9H94l2.7-3.6l-2.6-3.5h1.1l2.1,2.8l2.1-2.8h1.1l-2.6,3.5l2.7,3.6h-1.1L97.3,392.7z"/>
		<path d="M101.9,389.2c-0.3,0-0.6-0.3-0.6-0.6l0,0c0-0.3,0.3-0.6,0.6-0.6s0.6,0.3,0.6,0.6l0,0C102.5,389,102.3,389.2,101.9,389.2
			L101.9,389.2z M101.5,390.6h0.9v5h-0.9C101.5,395.6,101.5,390.6,101.5,390.6z"/>
	</g>
	<g>
		<path d="M103.6,394.9l2.9-3.5h-2.8v-0.8h3.9v0.7l-2.9,3.5h2.9v0.8h-4.1L103.6,394.9z"/>
	</g>
	<g>
		<path d="M110.7,390.5c0.7,0,1.3,0.3,1.8,0.9v-0.8h0.9v5h-0.9v-0.8c-0.4,0.6-1.1,0.9-1.8,0.9c-1.4,0-2.6-1.2-2.6-2.6
			S109.3,390.5,110.7,390.5L110.7,390.5z M110.8,391.3c-1-0.1-1.9,0.7-1.9,1.7c-0.1,1,0.7,1.9,1.7,1.9s1.9-0.7,1.9-1.7v-0.1
			C112.6,392.1,111.9,391.3,110.8,391.3C110.9,391.3,110.9,391.3,110.8,391.3L110.8,391.3z"/>
		<path d="M115,390.6h0.9v0.8c0.3-0.6,0.9-0.9,1.6-0.9c1,0,1.9,0.8,1.9,1.8c0,0.1,0,0.1,0,0.2v3.1h-0.9v-3c0.1-0.7-0.4-1.3-1-1.3
			c0,0-0.1,0-0.2,0c-0.8,0-1.4,0.7-1.4,1.8v2.5H115V390.6z"/>
		<path d="M121.5,396c0.2,0.7,0.9,1.1,1.6,1c0.9,0,1.6-0.7,1.6-1.5c0-0.1,0-0.1,0-0.2v-0.6c-0.4,0.6-1.1,0.9-1.7,0.9
			c-1.4-0.1-2.5-1.3-2.4-2.7c0.1-1.3,1.1-2.3,2.4-2.4c0.7,0,1.3,0.3,1.7,0.9v-0.8h0.9v4.7c0.1,1.3-0.8,2.4-2.1,2.5
			c-0.1,0-0.2,0-0.4,0c-1.1,0.1-2.2-0.6-2.4-1.7L121.5,396z M123,391.3c-1,0-1.8,0.7-1.8,1.7s0.7,1.8,1.7,1.8s1.8-0.7,1.8-1.7
			c0,0,0,0,0-0.1C124.8,392.1,124,391.3,123,391.3C123.1,391.3,123,391.3,123,391.3L123,391.3z"/>
	</g>
</g>
<g id="Yunnan">
	<g>
		<path d="M187.3,525.1l-2.8-4.1h1.1l2.1,3.2l2.1-3.2h1.1l-2.8,4.1v3h-0.9L187.3,525.1z"/>
		<path d="M191.1,523.1h0.9v2.9c0,0.8,0.4,1.4,1.1,1.4s1.4-0.7,1.4-1.8v-2.5h0.9v5h-0.9v-0.8c-0.3,0.6-0.9,0.9-1.5,0.9
			c-1,0-1.8-0.8-1.8-1.8c0-0.1,0-0.1,0-0.2L191.1,523.1z"/>
		<path d="M197,523.1h0.9v0.8c0.3-0.6,0.9-0.9,1.6-0.9c1,0,1.9,0.8,1.9,1.8c0,0.1,0,0.1,0,0.2v3.1h-0.9v-3c0.1-0.7-0.4-1.3-1-1.3
			c0,0-0.1,0-0.2,0c-0.8,0-1.4,0.7-1.4,1.8v2.5H197V523.1z"/>
		<path d="M202.8,523.1h0.9v0.8c0.3-0.6,0.9-0.9,1.6-0.9c1,0,1.9,0.8,1.9,1.8c0,0.1,0,0.1,0,0.2v3.1h-0.9v-3c0.1-0.7-0.4-1.3-1-1.3
			c0,0-0.1,0-0.2,0c-0.8,0-1.4,0.7-1.4,1.8v2.5h-0.9L202.8,523.1L202.8,523.1z"/>
		<path d="M210.8,523c0.7,0,1.3,0.3,1.8,0.9v-0.8h0.9v5h-0.9v-0.8c-0.4,0.6-1.1,0.9-1.8,0.9c-1.4,0-2.6-1.2-2.6-2.6
			C208.2,524.1,209.4,523,210.8,523L210.8,523L210.8,523z M210.9,523.8c-1-0.1-1.9,0.7-1.9,1.7c-0.1,1,0.7,1.9,1.7,1.9
			c1,0.1,1.9-0.7,1.9-1.7v-0.1C212.7,524.6,211.9,523.8,210.9,523.8C211,523.8,210.9,523.8,210.9,523.8z"/>
		<path d="M215,523.1h0.9v0.8c0.3-0.6,0.9-0.9,1.6-0.9c1,0,1.9,0.8,1.9,1.8c0,0.1,0,0.1,0,0.2v3.1h-0.9v-3c0.1-0.7-0.4-1.3-1-1.3
			c0,0-0.1,0-0.2,0c-0.8,0-1.4,0.7-1.4,1.8v2.5H215V523.1z"/>
	</g>
</g>
<g id="Zhejiang">
	<g>
		<path d="M495.7,387.2l3.8-5.6h-3.7v-0.9h5v0.6l-3.8,5.6h4v0.9h-5.2L495.7,387.2z"/>
	</g>
	<g>
		<path d="M502,380.3h0.9v3.3c0.3-0.6,0.9-0.9,1.6-0.9c1,0,1.9,0.8,1.9,1.8c0,0.1,0,0.1,0,0.2v3.1h-0.8v-3c0.1-0.7-0.4-1.3-1-1.3
			c0,0-0.1,0-0.2,0c-0.8,0-1.5,0.7-1.5,1.8v2.5H502V380.3z"/>
		<path d="M510,387.9c-1.4,0-2.6-1.2-2.6-2.6s1.2-2.6,2.6-2.6c1.3,0,2.4,1.1,2.4,2.4c0,0.1,0,0.3,0,0.4h-4.1c0,0.9,0.8,1.6,1.7,1.6
			c0.6,0,1.2-0.3,1.5-0.8h0.9C512,387.3,511.1,387.9,510,387.9z M508.4,384.8h3.1c0-0.8-0.7-1.4-1.5-1.4S508.4,384,508.4,384.8
			L508.4,384.8z"/>
		<path d="M514.6,388.4c0.1,0.8-0.5,1.5-1.3,1.5c-0.1,0-0.2,0-0.3,0s-0.3,0-0.4,0v-0.8h0.3c0.5,0,0.8-0.2,0.8-0.9v-5.5h0.9V388.4z
			 M514.1,381.4c-0.3,0-0.6-0.3-0.6-0.6l0,0c0-0.3,0.3-0.6,0.6-0.6s0.6,0.3,0.6,0.6l0,0C514.7,381.1,514.5,381.4,514.1,381.4
			L514.1,381.4z"/>
		<path d="M516.6,381.4c-0.3,0-0.6-0.3-0.6-0.6l0,0c0-0.3,0.3-0.6,0.6-0.6s0.6,0.3,0.6,0.6l0,0C517.2,381.1,517,381.4,516.6,381.4
			L516.6,381.4z M516.2,382.7h0.8v5h-0.9L516.2,382.7z"/>
		<path d="M520.7,382.7c0.7,0,1.3,0.3,1.8,0.9v-0.8h0.9v5h-0.9V387c-0.4,0.6-1.1,0.9-1.8,0.9c-1.4,0-2.6-1.2-2.6-2.6
			S519.3,382.7,520.7,382.7L520.7,382.7L520.7,382.7z M520.8,383.5c-1-0.1-1.9,0.7-1.9,1.7c-0.1,1,0.7,1.9,1.7,1.9s1.9-0.7,1.9-1.7
			v-0.1C522.6,384.3,521.9,383.5,520.8,383.5C520.9,383.5,520.9,383.5,520.8,383.5z"/>
		<path d="M524.9,382.8h0.9v0.8c0.3-0.6,0.9-0.9,1.6-0.9c1,0,1.9,0.8,1.9,1.8c0,0.1,0,0.1,0,0.2v3.1h-0.8v-3c0.1-0.7-0.4-1.3-1-1.3
			c0,0-0.1,0-0.2,0c-0.8,0-1.5,0.7-1.5,1.8v2.5h-0.9V382.8z"/>
		<path d="M531.4,388.2c0.2,0.7,0.9,1.1,1.6,1c0.9,0,1.6-0.7,1.6-1.5c0-0.1,0-0.1,0-0.2v-0.6c-0.4,0.6-1.1,0.9-1.7,0.9
			c-1.4-0.1-2.5-1.3-2.4-2.7c0.1-1.3,1.1-2.3,2.4-2.4c0.7,0,1.3,0.3,1.7,0.9v-0.8h0.9v4.7c0.1,1.3-0.8,2.4-2.1,2.5
			c-0.1,0-0.2,0-0.4,0c-1.1,0.1-2.2-0.6-2.4-1.7L531.4,388.2z M533,383.5c-1,0-1.8,0.7-1.8,1.7s0.7,1.8,1.7,1.8s1.8-0.7,1.8-1.7
			c0,0,0,0,0-0.1c0-0.9-0.7-1.7-1.6-1.7C533.1,383.5,533,383.5,533,383.5L533,383.5z"/>
	</g>
</g>
<g id="Tengchong_Yunnan_">
	<g>
		<path d="M116.1,568.6h-2.6v-1.1h6.4v1.1h-2.6v7.5h-1.1L116.1,568.6z"/>
		<path d="M122.5,576.1c-1.7,0-3.1-1.4-3.1-3.1c0-1.7,1.4-3.1,3.1-3.1c1.6,0,2.9,1.3,2.9,2.9c0,0.2,0,0.3,0,0.5h-4.9
			c0,1.1,0.9,1.9,2,1.9c0.7,0.1,1.4-0.3,1.7-1h1.1C124.9,575.4,123.8,576.2,122.5,576.1z M120.6,572.5h3.7c-0.1-1-0.9-1.7-1.8-1.7
			C121.5,570.8,120.7,571.5,120.6,572.5z"/>
		<path d="M126.9,570h1v0.9c0.4-0.7,1.1-1,1.9-1c1.2,0,2.2,0.9,2.3,2.1c0,0.1,0,0.2,0,0.3v3.7h-1v-3.5c0.1-0.8-0.4-1.5-1.2-1.6
			c-0.1,0-0.1,0-0.2,0c-1,0-1.7,0.8-1.7,2.2v3h-1L126.9,570z"/>
		<path d="M134.7,576.6c0.3,0.8,1.1,1.3,1.9,1.2c1,0,1.9-0.8,1.9-1.8c0-0.1,0-0.2,0-0.3V575c-0.5,0.7-1.3,1.1-2.1,1
			c-1.7,0-3-1.4-3-3.1c0-1.7,1.4-3,3-3c0.8,0,1.6,0.4,2.1,1V570h1v5.6c0.1,1.5-1,2.9-2.5,3c-0.2,0-0.3,0-0.5,0
			c-1.4,0.2-2.6-0.7-2.9-2.1L134.7,576.6z M136.6,570.8c-1.2-0.1-2.1,0.8-2.2,2s0.8,2.1,2,2.2s2.1-0.8,2.2-2v-0.1
			c0.1-1.1-0.8-2-1.9-2.1C136.6,570.8,136.6,570.8,136.6,570.8z"/>
		<path d="M144.2,576.1c-1.7,0-3.1-1.4-3.1-3.1c0-1.7,1.4-3.1,3.1-3.1l0,0c1.4,0,2.6,0.9,3,2.2h-1.1c-0.3-0.8-1.1-1.3-1.9-1.3
			c-1.2,0-2.2,1-2.2,2.2s1,2.2,2.2,2.2c0.8,0,1.6-0.5,1.9-1.3h1.1C146.8,575.2,145.6,576.2,144.2,576.1z"/>
		<path d="M148.6,567h1v3.9c0.4-0.7,1.1-1,1.9-1c1.2,0,2.2,0.9,2.3,2.1c0,0.1,0,0.2,0,0.3v3.7h-1v-3.5c0.1-0.8-0.4-1.5-1.2-1.6
			c-0.1,0-0.1,0-0.2,0c-1,0-1.7,0.8-1.7,2.2v3h-1L148.6,567z"/>
		<path d="M158.3,576.1c-1.7,0-3.1-1.4-3.1-3.1c0-1.7,1.4-3.1,3.1-3.1c1.7,0,3.1,1.4,3.1,3.1C161.4,574.7,160.1,576.1,158.3,576.1
			L158.3,576.1z M158.3,575.1c1.2,0,2.2-0.9,2.2-2.1s-0.9-2.2-2.1-2.2c-1.2,0-2.2,0.9-2.2,2.1c0,0,0,0,0,0.1
			c-0.1,1.1,0.8,2.1,1.9,2.2C158.2,575.2,158.2,575.2,158.3,575.1L158.3,575.1z"/>
		<path d="M162.9,570h1v0.9c0.4-0.7,1.1-1,1.9-1c1.2,0,2.2,0.9,2.3,2.1c0,0.1,0,0.2,0,0.3v3.7h-1v-3.5c0.1-0.8-0.4-1.5-1.2-1.6
			c-0.1,0-0.1,0-0.2,0c-1,0-1.7,0.8-1.7,2.2v3h-1L162.9,570z"/>
		<path d="M170.7,576.6c0.3,0.8,1.1,1.3,1.9,1.2c1,0,1.9-0.8,1.9-1.8c0-0.1,0-0.2,0-0.3V575c-0.5,0.7-1.3,1.1-2.1,1
			c-1.7,0-3-1.4-3-3.1c0-1.7,1.4-3,3-3c0.8,0,1.6,0.4,2.1,1V570h1v5.6c0.1,1.5-1,2.9-2.5,3c-0.2,0-0.3,0-0.5,0
			c-1.4,0.2-2.6-0.7-2.9-2.1L170.7,576.6z M172.6,570.8c-1.2-0.1-2.1,0.8-2.2,2s0.8,2.1,2,2.2s2.1-0.8,2.2-2v-0.1
			c0.1-1.1-0.8-2-1.9-2.1C172.6,570.8,172.6,570.8,172.6,570.8z"/>
		<path d="M122.4,592.3c-2.1-3.6-2.1-8,0-11.5h0.8c-1.9,3.6-1.9,7.9,0,11.5H122.4z"/>
		<path d="M127.1,586.8l-3.3-4.9h1.3l2.5,3.8l2.5-3.8h1.3l-3.3,4.9v3.6H127L127.1,586.8z"/>
		<path d="M131.6,584.4h1v3.5c0,1,0.5,1.6,1.4,1.6s1.7-0.8,1.7-2.2v-3h1v6h-1v-0.9c-0.4,0.6-1.1,1-1.9,1c-1.2,0-2.2-1-2.2-2.2
			c0-0.1,0-0.2,0-0.3V584.4z"/>
		<path d="M138.6,584.4h1v0.9c0.4-0.7,1.1-1,1.9-1c1.2,0,2.2,0.9,2.3,2.1c0,0.1,0,0.2,0,0.3v3.7h-1v-3.5c0.1-0.8-0.4-1.5-1.2-1.6
			c-0.1,0-0.1,0-0.2,0c-1,0-1.7,0.8-1.7,2.2v3h-1L138.6,584.4z"/>
		<path d="M145.7,584.4h1v0.9c0.4-0.7,1.1-1,1.9-1c1.2,0,2.2,0.9,2.3,2.1c0,0.1,0,0.2,0,0.3v3.7h-1v-3.5c0.1-0.8-0.4-1.5-1.2-1.6
			c-0.1,0-0.1,0-0.2,0c-1,0-1.7,0.8-1.7,2.2v3h-1L145.7,584.4z"/>
		<path d="M155.2,584.3c0.8,0,1.6,0.4,2.1,1v-0.9h1v6h-1v-0.9c-0.5,0.6-1.3,1-2.1,1c-1.7-0.1-3-1.6-2.9-3.4
			C152.5,585.6,153.7,584.4,155.2,584.3L155.2,584.3z M155.4,585.3c-1.2-0.1-2.2,0.8-2.3,2s0.8,2.2,2,2.3s2.2-0.8,2.3-2
			c0-0.1,0-0.1,0-0.2c0.1-1.1-0.8-2.1-1.9-2.2C155.5,585.2,155.4,585.2,155.4,585.3L155.4,585.3z"/>
		<path d="M160.3,584.4h1v0.9c0.4-0.7,1.1-1,1.9-1c1.2,0,2.2,0.9,2.3,2.1c0,0.1,0,0.2,0,0.3v3.7h-1v-3.5c0.1-0.8-0.4-1.5-1.2-1.6
			c-0.1,0-0.1,0-0.2,0c-1,0-1.7,0.8-1.7,2.2v3h-1L160.3,584.4z"/>
		<path d="M168,586.6c0-2-0.5-4-1.4-5.8h0.8c2.1,3.6,2.1,8,0,11.5h-0.8C167.5,590.6,168,588.6,168,586.6z"/>
	</g>
</g>
<path id="Triangle-2" class="st6" d="M48.8,96l7,7h15c1.1,0,2,0.9,2,2v15c0,1.1-0.9,2-2,2h-44c-1.1,0-2-0.9-2-2v-15c0-1.1,0.9-2,2-2
	h15L48.8,96z"/>
<g>
	<path d="M32.1,110.5v5.5h-0.9v-7.1H32l2.6,3.5l2.6-3.5H38v7.1h-0.9v-5.6l-2.6,3.4L32.1,110.5z"/>
	<path d="M41.8,110.9c0.7,0,1.3,0.3,1.8,0.9V111h0.9v5h-0.9v-0.8c-0.4,0.6-1.1,0.9-1.8,0.9c-1.4,0-2.6-1.2-2.6-2.6
		C39.2,112,40.4,110.9,41.8,110.9L41.8,110.9z M42,111.7c-1-0.1-1.9,0.7-1.9,1.7c-0.1,1,0.7,1.9,1.7,1.9c1,0.1,1.9-0.7,1.9-1.7v-0.1
		C43.7,112.5,43,111.7,42,111.7L42,111.7L42,111.7z"/>
	<path d="M47.4,113.5l-1.9-2.5h1l1.4,1.8l1.4-1.8h1l-1.9,2.5l2,2.5h-0.9l-1.5-1.9l-1.5,1.9h-1.1L47.4,113.5z"/>
	<path d="M51.9,112.4c-0.4,0-0.8-0.3-0.8-0.7s0.3-0.8,0.7-0.8s0.8,0.3,0.8,0.7l0,0C52.7,112.1,52.3,112.4,51.9,112.4z M51.9,116.1
		c-0.4,0-0.8-0.3-0.8-0.7s0.3-0.8,0.7-0.8s0.8,0.3,0.8,0.7l0,0C52.6,115.7,52.3,116.1,51.9,116.1L51.9,116.1z"/>
	<path d="M58.7,116.1c-1.3,0.1-2.4-0.9-2.5-2.2v-0.1H57c0.1,0.8,0.8,1.5,1.7,1.4c0.7,0.1,1.4-0.4,1.4-1.2v-0.1
		c0-0.9-0.6-1.3-1.6-1.3H58v-0.8h0.6c0.7,0.1,1.3-0.4,1.3-1.1l0,0c0-0.7-0.6-1.2-1.2-1.1c0,0,0,0-0.1,0c-0.8-0.1-1.4,0.5-1.5,1.2
		c0,0.1,0,0.1,0,0.2h-0.9c0-1.2,1-2.2,2.2-2.2c0.1,0,0.1,0,0.2,0c1.1-0.1,2.1,0.7,2.2,1.8v0.1c0,0.7-0.4,1.3-1,1.6
		c0.7,0.2,1.2,0.9,1.2,1.7c0,1.2-1,2.1-2.1,2.1C58.8,116.1,58.7,116.1,58.7,116.1z"/>
	<path d="M62.8,114.1c0.2,0.7,0.8,1.2,1.5,1.2c0.8,0,1.5-0.6,1.5-1.5c0,0,0,0,0-0.1c0-0.8-0.6-1.5-1.4-1.5h-0.1
		c-0.5,0-1.1,0.3-1.3,0.7l-0.8-0.2l0.7-3.8h3.3v0.8h-2.6l-0.4,2c0.4-0.2,0.8-0.3,1.2-0.3c1.3,0.1,2.2,1.3,2.1,2.5
		c-0.1,1.3-1.3,2.2-2.5,2.1c-1.1-0.1-2-0.9-2.1-2L62.8,114.1z"/>
</g>
<path id="Triangle-2-2" class="st6" d="M582.8,103l7,7h15c1.1,0,2,0.9,2,2v15c0,1.1-0.9,2-2,2h-44c-1.1,0-2-0.9-2-2v-15
	c0-1.1,0.9-2,2-2h15L582.8,103z"/>
<g id="Min:-21">
	<g>
		<path d="M568.1,117.5v5.5h-0.9v-7.1h0.9l2.6,3.5l2.6-3.5h0.8v7.1h-0.9v-5.5l-2.6,3.4L568.1,117.5z"/>
		<path d="M576.3,116.6c-0.3,0-0.6-0.3-0.6-0.6l0,0c0-0.3,0.3-0.6,0.6-0.6s0.6,0.3,0.6,0.6l0,0C576.9,116.4,576.6,116.6,576.3,116.6
			L576.3,116.6z M575.8,118h0.9v5h-0.9V118z"/>
		<path d="M578.3,118h0.9v0.8c0.3-0.6,0.9-0.9,1.6-0.9c1,0,1.9,0.8,1.9,1.8c0,0.1,0,0.1,0,0.2v3.1h-0.8v-3c0.1-0.7-0.4-1.3-1-1.3
			c0,0-0.1,0-0.2,0c-0.8,0-1.5,0.7-1.5,1.8v2.5h-0.9V118z"/>
		<path d="M584.8,119.4c-0.4,0-0.8-0.3-0.8-0.7s0.3-0.8,0.7-0.8s0.8,0.3,0.8,0.7l0,0C585.5,119.1,585.2,119.4,584.8,119.4z
			 M584.8,123.1c-0.4,0-0.8-0.3-0.8-0.7s0.3-0.8,0.7-0.8s0.8,0.3,0.8,0.7l0,0C585.5,122.7,585.2,123.1,584.8,123.1L584.8,123.1z"/>
		<path d="M593.7,123h-4.6v-0.3c0-1.5,1.3-2.2,2.4-3c0.8-0.6,1.3-1,1.3-1.8c0-0.7-0.5-1.2-1.2-1.2h-0.1c-0.8-0.1-1.4,0.5-1.5,1.3
			v0.1h-1c0-1.2,1-2.2,2.2-2.2c0.1,0,0.1,0,0.2,0c1.1-0.1,2.1,0.7,2.2,1.8c0,0.1,0,0.2,0,0.3c0,1-0.5,1.6-1.6,2.5
			c-0.8,0.6-1.7,1-1.8,1.8h3.5L593.7,123z"/>
		<path d="M595.6,116.7h-1.4l0.7-0.9h1.5v7.1h-0.9L595.6,116.7z"/>
	</g>
</g>
<path id="Triangle-2-3" class="st6" d="M640.9,573.7l11.5,7h26c1.1,0,2,0.9,2,2v15c0,1.1-0.9,2-2,2h-76c-1.1,0-2-0.9-2-2v-15
	c0-1.1,0.9-2,2-2h27L640.9,573.7z"/>
<g id="Amount-of-kids">
	<g>
		<path d="M608.5,586.6h0.8l3.2,7.1h-1l-0.9-2.1h-3.3l-0.9,2.1h-1L608.5,586.6z M610.2,590.8l-1.3-2.9l-1.3,2.9H610.2z"/>
		<path d="M613.3,588.7h0.8v0.8c0.3-0.5,0.9-0.9,1.5-0.9c0.7,0,1.3,0.4,1.5,1.1c0.3-0.7,0.9-1.1,1.6-1.1c1.1,0,1.8,0.8,1.8,2v3.1
			h-0.9v-2.9c0-0.8-0.3-1.4-1-1.4c-0.8,0-1.4,0.7-1.4,1.8v2.5h-0.9v-2.9c0-0.8-0.3-1.4-1-1.4c-0.8,0-1.4,0.7-1.4,1.8v2.5H613
			L613.3,588.7z"/>
		<path d="M624.3,593.8c-1.4,0-2.6-1.2-2.6-2.6c0-1.4,1.2-2.6,2.6-2.6c1.4,0,2.6,1.2,2.6,2.6C627,592.6,625.8,593.8,624.3,593.8
			C624.4,593.8,624.4,593.8,624.3,593.8z M624.3,593c1,0,1.8-0.7,1.9-1.7c0-1-0.7-1.8-1.7-1.9c-1,0-1.8,0.7-1.9,1.7c0,0,0,0,0,0.1
			c0,0.9,0.7,1.7,1.6,1.8C624.3,593,624.3,593,624.3,593z"/>
		<path d="M628.1,588.7h0.9v2.9c0,0.8,0.4,1.4,1.1,1.4s1.4-0.7,1.4-1.8v-2.5h0.9v5h-0.9v-0.8c-0.3,0.6-0.9,0.9-1.5,0.9
			c-1,0-1.8-0.8-1.8-1.8c0-0.1,0-0.1,0-0.2v-3.1H628.1z"/>
		<path d="M634,588.7h0.9v0.8c0.3-0.6,0.9-0.9,1.6-0.9c1,0,1.9,0.8,1.9,1.8c0,0.1,0,0.1,0,0.2v3.1h-0.8v-3c0.1-0.7-0.4-1.3-1-1.3
			c0,0-0.1,0-0.2,0c-0.8,0-1.5,0.7-1.5,1.8v2.5H634V588.7z"/>
		<path d="M641.8,593.7c-0.8,0.1-1.5-0.5-1.5-1.3c0-0.1,0-0.2,0-0.3v-2.7h-1.1v-0.8h1.1v-1.4h0.9v1.4h1.4v0.8h-1.5v2.6
			c0,0.6,0.3,0.8,0.8,0.8c0.2,0,0.4,0,0.6-0.1v0.8C642.3,593.7,642,593.7,641.8,593.7z"/>
		<path d="M648.3,593.8c-1.4,0-2.6-1.2-2.6-2.6c0-1.4,1.2-2.6,2.6-2.6c1.4,0,2.6,1.2,2.6,2.6S649.7,593.8,648.3,593.8L648.3,593.8z
			 M648.3,593c1,0,1.8-0.7,1.9-1.7c0-1-0.7-1.8-1.7-1.9c-1,0-1.8,0.7-1.9,1.7c0,0,0,0,0,0.1c0,0.9,0.7,1.7,1.6,1.8
			C648.2,593,648.2,593,648.3,593z"/>
		<path d="M652.4,589.5h-1.1v-0.8h1.1v-1c-0.1-0.8,0.5-1.5,1.3-1.5c0.1,0,0.2,0,0.2,0c0.3,0,0.5,0,0.8,0.1v0.8
			c-0.2-0.1-0.4-0.1-0.6-0.1c-0.5,0-0.8,0.2-0.8,0.8v0.9h1.5v0.8h-1.5v4.2h-0.9V589.5z"/>
		<path d="M657.8,586.2h0.9v4.5l2.2-2h1.1l-2.5,2.2l3,2.8h-1.1l-2.7-2.5v2.5h-0.9V586.2z"/>
		<path d="M663.7,587.3c-0.3,0-0.6-0.3-0.6-0.6l0,0c0-0.3,0.3-0.6,0.6-0.6s0.6,0.3,0.6,0.6l0,0C664.3,587.1,664,587.3,663.7,587.3
			L663.7,587.3z M663.2,588.7h0.9v5h-0.9V588.7z"/>
		<path d="M667.8,588.6c0.7,0,1.3,0.3,1.8,0.9v-3.3h0.9v7.5h-0.9v-0.8c-0.4,0.6-1.1,0.9-1.8,0.9c-1.4,0-2.6-1.2-2.6-2.6
			C665.2,589.7,666.3,588.6,667.8,588.6L667.8,588.6z M667.9,589.4c-1-0.1-1.9,0.7-1.9,1.7s0.7,1.9,1.7,1.9c1,0.1,1.9-0.7,1.9-1.7
			v-0.1C669.6,590.2,668.9,589.4,667.9,589.4L667.9,589.4L667.9,589.4z"/>
		<path d="M673.6,593.8c-1,0.1-1.9-0.6-2-1.5h0.9c0.1,0.5,0.6,0.9,1.2,0.8c0.5,0,1-0.2,1-0.7s-0.2-0.6-0.8-0.8l-0.7-0.2
			c-0.7-0.1-1.3-0.7-1.3-1.5s0.7-1.3,1.7-1.3c0.9-0.1,1.7,0.5,1.8,1.4h-0.9c-0.1-0.4-0.5-0.7-1-0.7s-0.9,0.2-0.9,0.6
			s0.2,0.6,0.8,0.7l0.8,0.2c0.7,0.1,1.3,0.7,1.3,1.5C675.5,593.3,674.7,593.8,673.6,593.8z"/>
	</g>
</g>
<g id="The-location-of-each">
	<g>
		<path d="M594.2,612.3h-2.3v-0.7h5.3v0.7h-2.3v6.4h-0.8L594.2,612.3z"/>
		<path d="M598.2,611.2h0.7v3.3c0.3-0.6,1-1,1.6-0.9c1,0,1.8,0.7,1.9,1.7c0,0.1,0,0.2,0,0.3v3.1h-0.7v-3c0.1-0.7-0.4-1.3-1.1-1.4
			h-0.1c-0.9,0-1.6,0.7-1.6,2v2.5h-0.7L598.2,611.2L598.2,611.2z"/>
		<path d="M603.6,616.2c-0.1-1.3,0.9-2.5,2.3-2.6c0.1,0,0.2,0,0.2,0c1.3,0,2.4,1.1,2.4,2.4c0,0.1,0,0.3,0,0.4h-4.1
			c0,1,0.8,1.7,1.8,1.8c0.7,0,1.3-0.3,1.6-0.9h0.7c-0.3,1-1.2,1.7-2.3,1.6c-1.4,0-2.5-1.1-2.5-2.5
			C603.6,616.3,603.6,616.2,603.6,616.2z M604.4,615.8h3.4c0-0.9-0.8-1.5-1.6-1.5C605.2,614.2,604.5,614.9,604.4,615.8L604.4,615.8z
			"/>
		<path d="M612.2,611.2h0.7v7.5h-0.7V611.2z"/>
		<path d="M614.2,616.2c0-1.4,1.2-2.6,2.6-2.6c1.4,0,2.6,1.2,2.6,2.6c0,1.4-1.2,2.6-2.6,2.6l0,0
			C615.4,618.8,614.3,617.7,614.2,616.2L614.2,616.2z M618.7,616.2c0-1-0.9-1.9-1.9-1.9s-1.9,0.9-1.9,1.9s0.9,1.9,1.9,1.9l0,0
			C617.9,618.1,618.8,617.2,618.7,616.2C618.8,616.2,618.8,616.2,618.7,616.2z"/>
		<path d="M620.4,616.2c0-1.4,1.1-2.6,2.5-2.6h0.1c1.1,0,2.2,0.7,2.5,1.8h-0.8c-0.3-0.7-1-1.2-1.7-1.2c-1.1,0.2-1.8,1.3-1.5,2.4
			c0.2,0.7,0.8,1.3,1.5,1.5c0.8,0,1.5-0.4,1.7-1.2h0.8c-0.3,1.1-1.4,1.8-2.5,1.8C621.5,618.8,620.4,617.7,620.4,616.2
			C620.3,616.2,620.3,616.2,620.4,616.2z"/>
		<path d="M626.2,616.2c0-1.4,1-2.6,2.4-2.6c0,0,0,0,0.1,0c0.7,0,1.4,0.3,1.8,0.9v-0.8h0.7v5h-0.7v-0.8c-0.4,0.6-1.1,0.9-1.8,0.9
			C627.3,618.8,626.2,617.6,626.2,616.2L626.2,616.2z M630.7,616.2c-0.1-1-0.9-1.8-1.9-1.7s-1.8,0.9-1.7,1.9s0.9,1.7,1.8,1.7
			C629.8,618.1,630.7,617.3,630.7,616.2L630.7,616.2z"/>
		<path d="M633.4,617.3v-3h-1.1v-0.7h1.1v-1.4h0.7v1.4h1.5v0.7h-1.5v2.9c0,0.6,0.3,0.8,0.8,0.8c0.2,0,0.4,0,0.6-0.1v0.6
			c-0.2,0.1-0.5,0.1-0.7,0.1C634.1,618.7,633.4,618.1,633.4,617.3C633.4,617.4,633.4,617.4,633.4,617.3z"/>
		<path d="M636.5,611.6c0-0.3,0.2-0.5,0.5-0.5s0.5,0.2,0.5,0.5s-0.2,0.5-0.5,0.5C636.7,612.2,636.5,611.9,636.5,611.6z M636.7,613.6
			h0.7v5h-0.7V613.6z"/>
		<path d="M638.7,616.2c0-1.4,1.2-2.6,2.6-2.6c1.4,0,2.6,1.2,2.6,2.6c0,1.4-1.2,2.6-2.6,2.6l0,0
			C639.9,618.8,638.7,617.7,638.7,616.2L638.7,616.2z M643.2,616.2c0-1-0.9-1.9-1.9-1.8c-1,0-1.9,0.9-1.8,1.9c0,1,0.9,1.8,1.9,1.8
			s1.9-0.8,1.9-1.8C643.2,616.2,643.2,616.2,643.2,616.2z"/>
		<path d="M645.2,613.7h0.7v0.8c0.3-0.6,1-1,1.6-0.9c1,0,1.8,0.7,1.9,1.7c0,0.1,0,0.2,0,0.3v3.1h-0.7v-3c0.1-0.7-0.4-1.3-1.1-1.4
			h-0.1c-0.9,0-1.6,0.7-1.6,2v2.5h-0.7L645.2,613.7L645.2,613.7z"/>
		<path d="M653.1,616.2c0-1.4,1.2-2.6,2.6-2.6c1.4,0,2.6,1.2,2.6,2.6c0,1.4-1.2,2.6-2.6,2.6l0,0
			C654.3,618.8,653.1,617.7,653.1,616.2L653.1,616.2z M657.6,616.2c0-1-0.9-1.9-1.9-1.9s-1.9,0.9-1.9,1.9s0.9,1.9,1.9,1.9
			S657.6,617.3,657.6,616.2L657.6,616.2z"/>
		<path d="M659.9,614.3h-1.1v-0.7h1.1v-1.1c-0.1-0.7,0.4-1.4,1.2-1.4c0.1,0,0.2,0,0.2,0c0.3,0,0.5,0,0.8,0.1v0.6
			c-0.2-0.1-0.4-0.1-0.6-0.1c-0.5,0-0.8,0.2-0.8,0.8v1.1h1.5v0.7h-1.5v4.3h-0.8V614.3z"/>
		<path d="M664.8,616.2c-0.1-1.3,0.9-2.5,2.3-2.6c0.1,0,0.2,0,0.2,0c1.3,0,2.4,1.1,2.4,2.4c0,0.1,0,0.3,0,0.4h-4.1
			c0,1,0.8,1.7,1.8,1.8c0.7,0,1.3-0.3,1.6-0.9h0.7c-0.3,1-1.2,1.7-2.3,1.6c-1.4,0-2.5-1.1-2.5-2.5
			C664.8,616.3,664.8,616.2,664.8,616.2z M665.6,615.8h3.4c0-0.9-0.8-1.5-1.6-1.5C666.4,614.2,665.7,614.9,665.6,615.8L665.6,615.8z
			"/>
		<path d="M670.6,616.2c0-1.4,1-2.6,2.4-2.6c0,0,0,0,0.1,0c0.7,0,1.4,0.3,1.8,0.9v-0.8h0.7v5h-0.7v-0.8c-0.4,0.6-1.1,0.9-1.8,0.9
			C671.7,618.8,670.5,617.6,670.6,616.2L670.6,616.2z M675,616.2c-0.1-1-0.9-1.8-1.9-1.7s-1.8,0.9-1.7,1.9s0.9,1.7,1.8,1.7
			C674.2,618.1,675,617.3,675,616.2L675,616.2z"/>
		<path d="M676.9,616.2c0-1.4,1.1-2.6,2.5-2.6h0.1c1.1,0,2.2,0.7,2.5,1.8h-0.8c-0.3-0.7-1-1.2-1.7-1.2c-1.1,0.2-1.8,1.3-1.5,2.4
			c0.2,0.7,0.8,1.3,1.5,1.5c0.8,0,1.5-0.4,1.7-1.2h0.8c-0.3,1.1-1.4,1.8-2.5,1.8C678.1,618.8,676.9,617.7,676.9,616.2L676.9,616.2z"
			/>
		<path d="M683.2,611.2h0.7v3.3c0.3-0.6,1-1,1.6-0.9c1,0,1.8,0.7,1.9,1.7c0,0.1,0,0.2,0,0.3v3.1h-0.7v-3c0.1-0.7-0.4-1.3-1.1-1.4
			h-0.1c-0.9,0-1.6,0.7-1.6,2v2.5h-0.7L683.2,611.2L683.2,611.2z"/>
	</g>
	<g>
		<path d="M592.2,629.2c0-1.4,1-2.6,2.4-2.6c0,0,0,0,0.1,0c0.7,0,1.4,0.3,1.8,0.9v-3.3h0.7v7.5h-0.7v-0.8c-0.4,0.6-1.1,0.9-1.8,0.9
			C593.3,631.8,592.2,630.6,592.2,629.2L592.2,629.2z M596.6,629.2c-0.1-1-0.9-1.8-1.9-1.7s-1.8,0.9-1.7,1.9s0.9,1.7,1.8,1.7
			C595.8,631.1,596.6,630.3,596.6,629.2L596.6,629.2L596.6,629.2z"/>
		<path d="M598.5,629.2c0-1.4,1.2-2.6,2.6-2.6c1.4,0,2.6,1.2,2.6,2.6c0,1.4-1.2,2.6-2.6,2.6l0,0
			C599.7,631.8,598.5,630.7,598.5,629.2L598.5,629.2z M603,629.2c0-1-0.9-1.9-1.9-1.8c-1,0-1.9,0.9-1.8,1.9c0,1,0.9,1.8,1.9,1.8
			s1.9-0.8,1.9-1.8C603,629.2,603,629.2,603,629.2z"/>
		<path d="M605.3,630.3v-3h-1.1v-0.7h1.1v-1.4h0.7v1.4h1.5v0.7H606v2.9c0,0.6,0.3,0.8,0.8,0.8c0.2,0,0.4,0,0.6-0.1v0.6
			c-0.2,0.1-0.5,0.1-0.7,0.1C606,631.7,605.3,631.1,605.3,630.3C605.3,630.4,605.3,630.4,605.3,630.3z"/>
		<path d="M610.7,629.2c0-1.4,1-2.6,2.4-2.6c0,0,0,0,0.1,0c0.7,0,1.4,0.3,1.8,0.9v-0.8h0.7v5H615v-0.8c-0.4,0.6-1.1,0.9-1.8,0.9
			C611.7,631.8,610.6,630.6,610.7,629.2C610.6,629.2,610.6,629.2,610.7,629.2z M615.1,629.2c-0.1-1-0.9-1.8-1.9-1.7
			s-1.8,0.9-1.7,1.9s0.9,1.7,1.8,1.7C614.2,631.1,615.1,630.3,615.1,629.2L615.1,629.2z"/>
		<path d="M617.4,626.7h0.7v1c0.2-0.6,0.8-1.1,1.5-1.1c0.1,0,0.2,0,0.4,0v0.7c-0.1,0-0.3-0.1-0.4-0.1c-0.6,0-1.4,0.6-1.4,1.8v2.5
			h-0.7L617.4,626.7L617.4,626.7z"/>
		<path d="M620.4,629.2c-0.1-1.3,0.9-2.5,2.3-2.6c0.1,0,0.2,0,0.2,0c1.3,0,2.4,1.1,2.4,2.4c0,0.1,0,0.3,0,0.4h-4.1
			c0,1,0.8,1.7,1.8,1.7c0.7,0,1.3-0.3,1.6-0.9h0.7c-0.3,1-1.2,1.7-2.3,1.6c-1.4,0-2.5-1.1-2.5-2.4
			C620.4,629.3,620.4,629.2,620.4,629.2z M621.1,628.8h3.4c0-0.9-0.8-1.5-1.6-1.5C622,627.2,621.2,627.9,621.1,628.8L621.1,628.8z"
			/>
		<path d="M629.7,630.8v0.8H629v-7.5h0.7v3.3c0.4-0.6,1.1-0.9,1.8-0.9c1.4,0,2.6,1.2,2.6,2.6c0,1.4-1.2,2.6-2.6,2.6
			C630.8,631.8,630.1,631.4,629.7,630.8z M633.3,629.2c-0.1-1-0.9-1.8-1.9-1.7s-1.8,0.9-1.7,1.9s0.9,1.7,1.8,1.7
			C632.5,631.1,633.3,630.3,633.3,629.2L633.3,629.2z"/>
		<path d="M634.9,629.2c0-1.4,1-2.6,2.4-2.6c0,0,0,0,0.1,0c0.7,0,1.4,0.3,1.8,0.9v-0.8h0.7v5h-0.7v-0.8c-0.4,0.6-1.1,0.9-1.8,0.9
			C636,631.8,634.9,630.6,634.9,629.2L634.9,629.2z M639.3,629.2c-0.1-1-0.9-1.8-1.9-1.7s-1.8,0.9-1.7,1.9s0.9,1.7,1.8,1.7
			c1,0,1.9-0.8,1.9-1.8C639.3,629.3,639.3,629.2,639.3,629.2L639.3,629.2z"/>
		<path d="M641.2,630.3h0.7c0.1,0.6,0.7,0.9,1.3,0.9s1.1-0.2,1.1-0.8s-0.3-0.7-0.9-0.9l-0.7-0.2c-0.7-0.1-1.3-0.7-1.3-1.5
			s0.7-1.3,1.6-1.3c0.9-0.1,1.6,0.5,1.8,1.4h-0.7c-0.1-0.5-0.6-0.8-1.1-0.8s-0.9,0.3-0.9,0.7s0.2,0.6,0.8,0.8l0.8,0.2
			c0.7,0.1,1.3,0.7,1.2,1.5c0,1-0.8,1.4-1.8,1.4C642.2,631.9,641.4,631.2,641.2,630.3L641.2,630.3z"/>
		<path d="M645.8,629.2c-0.1-1.3,0.9-2.5,2.3-2.6c0.1,0,0.2,0,0.2,0c1.3,0,2.4,1.1,2.4,2.4c0,0.1,0,0.3,0,0.4h-4.1
			c0,1,0.8,1.7,1.8,1.8c0.7,0,1.3-0.3,1.6-0.9h0.7c-0.3,1-1.2,1.7-2.3,1.6c-1.4,0-2.5-1.1-2.5-2.5
			C645.8,629.3,645.8,629.2,645.8,629.2z M646.6,628.8h3.4c0-0.9-0.8-1.5-1.6-1.5C647.4,627.2,646.7,627.9,646.6,628.8L646.6,628.8z
			"/>
		<path d="M651.6,629.2c0-1.4,1-2.6,2.4-2.6c0,0,0,0,0.1,0c0.7,0,1.4,0.3,1.8,0.9v-3.3h0.7v7.5h-0.7v-0.8c-0.4,0.6-1.1,0.9-1.8,0.9
			C652.7,631.8,651.6,630.6,651.6,629.2L651.6,629.2z M656,629.2c-0.1-1-0.9-1.8-1.9-1.7s-1.8,0.9-1.7,1.9s0.9,1.7,1.8,1.7
			C655.2,631.1,656,630.3,656,629.2L656,629.2z"/>
		<path d="M660.4,629.2c0-1.4,1.2-2.6,2.6-2.6c1.4,0,2.6,1.2,2.6,2.6c0,1.4-1.2,2.6-2.6,2.6l0,0
			C661.6,631.8,660.4,630.7,660.4,629.2L660.4,629.2z M664.9,629.2c0-1-0.9-1.9-1.9-1.8c-1,0-1.9,0.9-1.8,1.9c0,1,0.9,1.8,1.9,1.8
			s1.9-0.8,1.9-1.8C664.9,629.3,664.9,629.2,664.9,629.2L664.9,629.2z"/>
		<path d="M666.9,626.7h0.7v0.8c0.3-0.6,1-1,1.6-0.9c1,0,1.8,0.7,1.9,1.7c0,0.1,0,0.2,0,0.3v3.1h-0.7v-3c0.1-0.7-0.4-1.3-1.1-1.4
			h-0.1c-0.9,0-1.6,0.7-1.6,2v2.5h-0.7V626.7z"/>
		<path d="M675.4,630.3v-3h-1.1v-0.7h1.1v-1.4h0.7v1.4h1.5v0.7h-1.5v2.9c0,0.6,0.3,0.8,0.8,0.8c0.2,0,0.4,0,0.6-0.1v0.6
			c-0.2,0.1-0.5,0.1-0.7,0.1C676.1,631.7,675.4,631.1,675.4,630.3C675.4,630.4,675.4,630.4,675.4,630.3z"/>
		<path d="M678.7,624.2h0.7v3.3c0.5-0.9,1.7-1.2,2.6-0.7c0.6,0.3,1,1,0.9,1.7v3.1h-0.7v-3c0.1-0.7-0.4-1.3-1.1-1.4H681
			c-0.9,0-1.6,0.7-1.6,2v2.5h-0.7L678.7,624.2L678.7,624.2z"/>
		<path d="M684.1,629.2c-0.1-1.3,0.9-2.5,2.3-2.6c0.1,0,0.2,0,0.2,0c1.3,0,2.4,1.1,2.4,2.4c0,0.1,0,0.3,0,0.4h-4.1
			c0,1,0.8,1.7,1.8,1.8c0.7,0,1.3-0.3,1.6-0.9h0.7c-0.3,1-1.2,1.7-2.3,1.6c-1.4,0-2.5-1.1-2.5-2.5
			C684.1,629.3,684.1,629.2,684.1,629.2z M684.9,628.8h3.4c0-0.9-0.8-1.5-1.6-1.5C685.7,627.2,685,627.9,684.9,628.8L684.9,628.8z"
			/>
	</g>
	<g>
		<path d="M592.6,637.2h0.7v7.5h-0.7V637.2z"/>
		<path d="M594.6,642.2c0-1.4,1.2-2.6,2.6-2.6c1.4,0,2.6,1.2,2.6,2.6c0,1.4-1.2,2.6-2.6,2.6l0,0
			C595.8,644.8,594.6,643.7,594.6,642.2L594.6,642.2z M599.1,642.2c0-1-0.9-1.9-1.9-1.9s-1.9,0.9-1.9,1.9s0.9,1.9,1.9,1.9
			S599.1,643.3,599.1,642.2L599.1,642.2z"/>
		<path d="M600.7,642.2c0-1.4,1.1-2.6,2.5-2.6h0.1c1.1,0,2.2,0.7,2.5,1.8H605c-0.3-0.7-1-1.2-1.7-1.2c-1.1,0.2-1.8,1.3-1.5,2.4
			c0.2,0.7,0.8,1.3,1.5,1.5c0.8,0,1.5-0.4,1.7-1.2h0.8c-0.3,1.1-1.4,1.8-2.5,1.8C601.9,644.8,600.7,643.7,600.7,642.2L600.7,642.2z"
			/>
		<path d="M606.6,642.2c0-1.4,1-2.6,2.4-2.6c0,0,0,0,0.1,0c0.7,0,1.4,0.3,1.8,0.9v-0.8h0.7v5h-0.7v-0.8c-0.4,0.6-1.1,0.9-1.8,0.9
			C607.7,644.7,606.6,643.6,606.6,642.2L606.6,642.2z M611,642.2c-0.1-1-0.9-1.8-1.9-1.7s-1.8,0.9-1.7,1.9s0.9,1.7,1.8,1.7
			C610.2,644.1,611,643.3,611,642.2L611,642.2z"/>
		<path d="M613.7,643.3v-3h-1.1v-0.7h1.1v-1.4h0.7v1.4h1.5v0.7h-1.5v2.9c0,0.6,0.3,0.8,0.8,0.8c0.2,0,0.4,0,0.6-0.1v0.6
			c-0.2,0.1-0.5,0.1-0.7,0.1C614.4,644.7,613.7,644.1,613.7,643.3C613.7,643.4,613.7,643.4,613.7,643.3z"/>
		<path d="M616.8,637.6c0-0.3,0.2-0.5,0.5-0.5s0.5,0.2,0.5,0.5s-0.2,0.5-0.5,0.5C617.1,638.2,616.8,637.9,616.8,637.6z M617,639.6
			h0.7v5H617V639.6z"/>
		<path d="M619,642.2c0-1.4,1.2-2.6,2.6-2.6c1.4,0,2.6,1.2,2.6,2.6c0,1.4-1.2,2.6-2.6,2.6l0,0C620.2,644.8,619,643.7,619,642.2
			L619,642.2z M623.5,642.2c0-1-0.9-1.9-1.9-1.8c-1,0-1.9,0.9-1.8,1.9c0,1,0.9,1.8,1.9,1.8s1.9-0.8,1.9-1.8
			C623.5,642.2,623.5,642.2,623.5,642.2z"/>
		<path d="M625.5,639.7h0.7v0.8c0.3-0.6,1-1,1.6-0.9c1,0,1.8,0.7,1.9,1.7c0,0.1,0,0.2,0,0.3v3.1H629v-3c0.1-0.7-0.4-1.3-1.1-1.4
			h-0.1c-0.9,0-1.6,0.7-1.6,2v2.5h-0.7L625.5,639.7L625.5,639.7z"/>
		<path d="M633.4,642.2c0-1.4,1.2-2.6,2.6-2.6c1.4,0,2.6,1.2,2.6,2.6c0,1.4-1.2,2.6-2.6,2.6l0,0
			C634.6,644.8,633.5,643.7,633.4,642.2L633.4,642.2z M637.9,642.2c0-1-0.9-1.9-1.9-1.8c-1,0-1.9,0.9-1.8,1.9c0,1,0.9,1.8,1.9,1.8
			S637.9,643.3,637.9,642.2L637.9,642.2L637.9,642.2z"/>
		<path d="M640.2,640.3h-1.1v-0.7h1.1v-1.1c-0.1-0.7,0.4-1.4,1.2-1.4c0.1,0,0.2,0,0.2,0c0.3,0,0.5,0,0.8,0.1v0.6
			c-0.2-0.1-0.4-0.1-0.6-0.1c-0.5,0-0.8,0.2-0.8,0.8v1.1h1.5v0.7h-1.6v4.3h-0.7V640.3z"/>
		<path d="M645.2,642.2c0-1.4,1.1-2.6,2.5-2.6h0.1c1.1,0,2.2,0.7,2.5,1.8h-0.8c-0.3-0.7-1-1.2-1.7-1.2c-1.1,0.2-1.8,1.3-1.5,2.4
			c0.2,0.7,0.8,1.3,1.5,1.5c0.8,0,1.5-0.4,1.7-1.2h0.8c-0.3,1.1-1.4,1.8-2.5,1.8C646.4,644.8,645.2,643.7,645.2,642.2L645.2,642.2z"
			/>
		<path d="M651.1,642.2c0-1.4,1-2.6,2.4-2.6c0,0,0,0,0.1,0c0.7,0,1.4,0.3,1.8,0.9v-0.8h0.7v5h-0.7v-0.8c-0.4,0.6-1.1,0.9-1.8,0.9
			C652.2,644.8,651,643.6,651.1,642.2L651.1,642.2z M655.5,642.2c-0.1-1-0.9-1.8-1.9-1.7s-1.8,0.9-1.7,1.9s0.9,1.7,1.8,1.7
			C654.6,644.1,655.5,643.3,655.5,642.2L655.5,642.2z"/>
		<path d="M657.8,639.7h0.7v0.8c0.4-0.6,1.1-0.9,1.8-0.9c1.4,0,2.6,1.2,2.6,2.6c0,1.4-1.2,2.6-2.6,2.6c-0.7,0-1.4-0.3-1.8-0.9v2.9
			h-0.7V639.7z M662.1,642.2c0-1-0.9-1.8-1.9-1.8s-1.8,0.9-1.8,1.9s0.9,1.8,1.8,1.8C661.3,644.1,662.1,643.3,662.1,642.2
			L662.1,642.2z"/>
		<path d="M664,637.6c0-0.3,0.2-0.5,0.5-0.5s0.5,0.2,0.5,0.5s-0.2,0.5-0.5,0.5C664.2,638.2,664,637.9,664,637.6z M664.2,639.6h0.7v5
			h-0.7V639.6z"/>
		<path d="M667,643.3v-3h-1.1v-0.7h1.1v-1.4h0.7v1.4h1.5v0.7h-1.5v2.9c0,0.6,0.3,0.8,0.8,0.8c0.2,0,0.4,0,0.6-0.1v0.6
			c-0.2,0.1-0.5,0.1-0.7,0.1C667.7,644.7,667,644.1,667,643.3C667,643.4,667,643.4,667,643.3z"/>
		<path d="M669.8,642.2c0-1.4,1-2.6,2.4-2.6c0,0,0,0,0.1,0c0.7,0,1.4,0.3,1.8,0.9v-0.8h0.7v5h-0.7v-0.8c-0.4,0.6-1.1,0.9-1.8,0.9
			C670.9,644.8,669.8,643.6,669.8,642.2L669.8,642.2z M674.2,642.2c-0.1-1-0.9-1.8-1.9-1.7s-1.8,0.9-1.7,1.9s0.9,1.7,1.8,1.7
			C673.4,644.1,674.2,643.3,674.2,642.2L674.2,642.2z"/>
		<path d="M676.5,637.2h0.7v7.5h-0.7V637.2z"/>
	</g>
	<g>
		<path d="M592.2,655.2c0-1.4,1.1-2.6,2.5-2.6h0.1c1.1,0,2.2,0.7,2.5,1.8h-0.8c-0.3-0.7-1-1.2-1.7-1.2c-1.1,0.2-1.8,1.3-1.5,2.4
			c0.2,0.7,0.8,1.3,1.5,1.5c0.8,0,1.5-0.4,1.7-1.2h0.8c-0.3,1.1-1.4,1.8-2.5,1.8C593.4,657.8,592.2,656.7,592.2,655.2L592.2,655.2z"
			/>
		<path d="M598.3,650.6c0-0.3,0.2-0.5,0.5-0.6c0,0,0,0,0.1,0c0.3,0,0.5,0.2,0.5,0.5s-0.2,0.5-0.5,0.5
			C598.6,651.2,598.3,651,598.3,650.6C598.3,650.7,598.3,650.7,598.3,650.6z M598.5,652.6h0.7v5h-0.7V652.6z"/>
		<path d="M601.3,656.3v-3h-1.1v-0.7h1.1v-1.4h0.7v1.4h1.5v0.7H602v2.9c0,0.6,0.3,0.8,0.8,0.8c0.2,0,0.4,0,0.6-0.1v0.6
			c-0.2,0.1-0.5,0.1-0.7,0.1C602,657.7,601.3,657.1,601.3,656.3C601.3,656.4,601.3,656.4,601.3,656.3z"/>
		<path d="M604.9,659.8l1.1-2.3l-2.2-4.8h0.8l1.8,4l1.8-4h0.8l-3.3,7.1H604.9z"/>
		<path d="M612,650.6c0-0.3,0.2-0.5,0.5-0.5s0.5,0.2,0.5,0.5s-0.2,0.5-0.5,0.5C612.3,651.2,612,650.9,612,650.6z M612.2,652.6h0.7v5
			h-0.7V652.6z"/>
		<path d="M614.6,652.7h0.7v0.8c0.3-0.6,1-1,1.6-0.9c1,0,1.8,0.7,1.9,1.7c0,0.1,0,0.2,0,0.3v3.1h-0.7v-3c0.1-0.7-0.4-1.3-1.1-1.4
			h-0.1c-0.9,0-1.6,0.7-1.6,2v2.5h-0.7L614.6,652.7L614.6,652.7z"/>
		<path d="M623.1,656.3v-3H622v-0.7h1.1v-1.4h0.7v1.4h1.5v0.7h-1.5v2.9c0,0.6,0.3,0.8,0.8,0.8c0.2,0,0.4,0,0.6-0.1v0.6
			c-0.2,0.1-0.5,0.1-0.7,0.1C623.8,657.7,623.1,657.1,623.1,656.3C623.1,656.4,623.1,656.4,623.1,656.3z"/>
		<path d="M626.4,650.2h0.7v3.3c0.3-0.6,1-1,1.6-0.9c1,0,1.8,0.7,1.9,1.7c0,0.1,0,0.2,0,0.3v3.1h-0.7v-3c0.1-0.7-0.4-1.3-1.1-1.4
			h-0.1c-0.9,0-1.6,0.7-1.6,2v2.5h-0.7L626.4,650.2L626.4,650.2z"/>
		<path d="M631.9,655.2c-0.1-1.3,0.9-2.5,2.3-2.6c0.1,0,0.2,0,0.2,0c1.3,0,2.4,1.1,2.4,2.4c0,0.1,0,0.3,0,0.4h-4.1
			c0,1,0.8,1.7,1.8,1.8c0.7,0,1.3-0.3,1.6-0.9h0.7c-0.3,1-1.2,1.7-2.3,1.6c-1.4,0-2.5-1.1-2.5-2.5
			C631.9,655.3,631.9,655.2,631.9,655.2z M632.7,654.8h3.4c0-0.9-0.8-1.5-1.6-1.5C633.5,653.2,632.7,653.9,632.7,654.8L632.7,654.8z
			"/>
		<path d="M640.5,652.7h0.7v0.8c0.4-0.6,1.1-0.9,1.8-0.9c1.4,0,2.6,1.2,2.6,2.6c0,1.4-1.2,2.6-2.6,2.6c-0.7,0-1.4-0.3-1.8-0.9v2.9
			h-0.7V652.7z M644.8,655.2c-0.1-1-0.9-1.8-1.9-1.7s-1.8,0.9-1.7,1.9s0.9,1.7,1.8,1.7C644,657.1,644.8,656.3,644.8,655.2
			L644.8,655.2z"/>
		<path d="M646.9,652.7h0.7v1c0.2-0.6,0.8-1.1,1.5-1.1c0.1,0,0.2,0,0.4,0v0.7c-0.1,0-0.3-0.1-0.4-0.1c-0.6,0-1.4,0.6-1.4,1.8v2.5
			h-0.8V652.7z"/>
		<path d="M649.8,655.2c0-1.4,1.2-2.6,2.6-2.6c1.4,0,2.6,1.2,2.6,2.6c0,1.4-1.2,2.6-2.6,2.6l0,0C651,657.8,649.8,656.7,649.8,655.2
			L649.8,655.2z M654.3,655.2c0-1-0.9-1.9-1.9-1.8c-1,0-1.9,0.9-1.8,1.9c0,1,0.9,1.8,1.9,1.8s1.9-0.8,1.9-1.8
			C654.3,655.2,654.3,655.2,654.3,655.2z"/>
		<path d="M655.5,652.7h0.8l1.8,4l1.8-4h0.8l-2.3,5h-0.5L655.5,652.7z"/>
		<path d="M661.5,650.6c0-0.3,0.2-0.5,0.5-0.5s0.5,0.2,0.5,0.5s-0.2,0.5-0.5,0.5C661.7,651.2,661.5,650.9,661.5,650.6z M661.6,652.6
			h0.7v5h-0.7V652.6z"/>
		<path d="M664.1,652.7h0.7v0.8c0.3-0.6,1-1,1.6-0.9c1,0,1.8,0.7,1.9,1.7c0,0.1,0,0.2,0,0.3v3.1h-0.7v-3c0.1-0.7-0.4-1.3-1.1-1.4
			h-0.1c-0.9,0-1.6,0.7-1.6,2v2.5h-0.7L664.1,652.7L664.1,652.7z"/>
		<path d="M669.5,655.2c0-1.4,1.1-2.6,2.5-2.6h0.1c1.1,0,2.2,0.7,2.5,1.8h-0.7c-0.3-0.7-1-1.2-1.7-1.2c-1.1,0.2-1.8,1.3-1.5,2.4
			c0.2,0.7,0.8,1.3,1.5,1.5c0.8,0,1.5-0.4,1.7-1.2h0.8c-0.3,1.1-1.4,1.8-2.5,1.8C670.8,657.8,669.6,656.7,669.5,655.2
			C669.5,655.3,669.5,655.2,669.5,655.2z"/>
		<path d="M675.4,655.2c-0.1-1.3,0.9-2.5,2.3-2.6c0.1,0,0.2,0,0.2,0c1.3,0,2.4,1.1,2.4,2.4c0,0.1,0,0.3,0,0.4h-4.1
			c0,1,0.8,1.7,1.8,1.7c0.7,0,1.3-0.3,1.6-0.9h0.7c-0.3,1-1.2,1.7-2.3,1.6c-1.4,0-2.5-1.1-2.5-2.4
			C675.4,655.3,675.4,655.2,675.4,655.2z M676.2,654.8h3.4c0-0.9-0.8-1.5-1.6-1.5C677,653.2,676.2,653.9,676.2,654.8L676.2,654.8z"
			/>
		<path d="M681.3,657.1c0-0.4,0.3-0.7,0.7-0.6c0.4,0,0.7,0.3,0.6,0.7c0,0.4-0.3,0.7-0.7,0.7C681.6,657.8,681.3,657.5,681.3,657.1z"
			/>
	</g>
</g>
<path id="Fill-80-2" class="st4" d="M664,544.3c0,13-10.6,23.6-23.6,23.6s-23.6-10.6-23.6-23.6s10.6-23.6,23.6-23.6
	S664,531.2,664,544.3L664,544.3z"/>
<g id="Province">
	<g>
		<path d="M625.3,542.8c0,1.2-1,2.3-2.2,2.3c-0.1,0-0.1,0-0.2,0h-1.2v2.6h-0.9v-7.1h2.2c1.2-0.1,2.3,0.8,2.4,2.1
			C625.3,542.7,625.3,542.8,625.3,542.8z M624.4,542.8c0-0.8-0.6-1.4-1.3-1.4c-0.1,0-0.1,0-0.2,0h-1.2v2.8h1.2
			c0.8,0.1,1.4-0.5,1.5-1.2C624.4,543,624.4,542.9,624.4,542.8z"/>
		<path d="M626.4,542.7h0.9v1c0.2-0.6,0.8-1,1.4-1c0.1,0,0.3,0,0.4,0v0.9c-0.2-0.1-0.3-0.1-0.5-0.1c-0.6,0-1.3,0.5-1.3,1.7v2.5h-0.9
			L626.4,542.7z"/>
		<path d="M632,547.8c-1.4,0-2.6-1.2-2.6-2.6c0-1.4,1.2-2.6,2.6-2.6c1.4,0,2.6,1.2,2.6,2.6C634.7,546.6,633.5,547.8,632,547.8
			C632.1,547.8,632.1,547.8,632,547.8z M632,547c1,0,1.8-0.7,1.9-1.7c0-1-0.7-1.8-1.7-1.9c-1,0-1.8,0.7-1.9,1.7c0,0,0,0,0,0.1
			c0,0.9,0.7,1.7,1.6,1.8C632,547,632,547,632,547z"/>
		<path d="M635,542.7h1l1.7,3.8l1.7-3.8h1l-2.3,5h-0.7L635,542.7z"/>
		<path d="M641.6,541.3c-0.3,0-0.6-0.3-0.6-0.6l0,0c0-0.3,0.3-0.6,0.6-0.6s0.6,0.3,0.6,0.6l0,0C642.2,541.1,642,541.3,641.6,541.3
			L641.6,541.3z M641.2,542.7h0.9v5h-0.9V542.7z"/>
		<path d="M643.7,542.7h0.9v0.8c0.3-0.6,0.9-0.9,1.6-0.9c1,0,1.9,0.8,1.9,1.8c0,0.1,0,0.1,0,0.2v3.1h-0.8v-3c0.1-0.7-0.4-1.3-1-1.3
			c0,0-0.1,0-0.2,0c-0.8,0-1.5,0.7-1.5,1.8v2.5h-0.9V542.7z"/>
		<path d="M651.7,547.8c-1.4,0-2.6-1.2-2.6-2.6c0-1.4,1.2-2.6,2.6-2.6c1.2,0,2.2,0.7,2.5,1.9h-0.9c-0.2-0.7-0.9-1.1-1.6-1.1
			c-1,0-1.8,0.8-1.8,1.8s0.8,1.8,1.8,1.8c0.7,0,1.4-0.4,1.6-1.1h0.9C654,547.1,652.9,547.8,651.7,547.8z"/>
		<path d="M657.5,547.8c-1.4,0-2.6-1.2-2.6-2.6c0-1.4,1.2-2.6,2.6-2.6c1.3,0,2.4,1.1,2.4,2.4c0,0.1,0,0.3,0,0.4h-4
			c0,0.9,0.8,1.6,1.7,1.6c0.6,0,1.2-0.3,1.5-0.8h0.9C659.6,547.2,658.6,547.9,657.5,547.8z M655.9,544.8h3.1
			c-0.1-0.8-0.7-1.4-1.5-1.4S656,543.9,655.9,544.8L655.9,544.8z"/>
	</g>
</g>
<text transform="matrix(1 0 0 1 582.6996 315.9002)" class="st7 st8">Qinling - Huaihe</text>
<path class="st1" d="M692.2,665.1H588.7c-3.5,0-6.3-2.8-6.3-6.3V514.4c0-3.5,2.8-6.3,6.3-6.3h103.5c3.5,0,6.3,2.8,6.3,6.3v144.4
	C698.5,662.3,695.7,665.1,692.2,665.1z"/>
</svg>
