<?xml version="1.0" encoding="utf-8"?>
<!-- Generator: Adobe Illustrator 24.0.1, SVG Export Plug-In . SVG Version: 6.00 Build 0)  -->
<svg version="1.1" id="Layer_1" xmlns="http://www.w3.org/2000/svg" xmlns:xlink="http://www.w3.org/1999/xlink" x="0px" y="0px"
	 viewBox="0 0 752 448" style="enable-background:new 0 0 752 448;" xml:space="preserve">
<style type="text/css">
	.st0{fill-rule:evenodd;clip-rule:evenodd;fill:#FFFFFF;}
	.st1{fill:#689FB1;stroke:#FFFFFF;stroke-width:3;stroke-miterlimit:10;}
	.st2{fill:#689FB1;}
	
		.st3{fill-rule:evenodd;clip-rule:evenodd;fill:#FFFFFF;stroke:#528C9C;stroke-width:3;stroke-linecap:round;stroke-linejoin:round;}
	.st4{fill:#FFFFFF;stroke:#528C9C;stroke-width:3;stroke-linecap:round;stroke-linejoin:round;}
	.st5{fill-rule:evenodd;clip-rule:evenodd;fill:#528C9C;}
	.st6{fill:none;stroke:#528C9C;stroke-width:3;stroke-linecap:round;stroke-linejoin:round;}
	.st7{fill:#124B5F;}
	.st8{clip-path:url(#SVGID_2_);}
	.st9{clip-path:url(#SVGID_4_);}
	.st10{fill:#FFFFFF;stroke:#F5D032;stroke-width:3;}
	.st11{fill-rule:evenodd;clip-rule:evenodd;fill:#FFFFFF;stroke:#F5D032;stroke-width:3;}
	.st12{fill-rule:evenodd;clip-rule:evenodd;fill:#124B5F;}
	.st13{fill-rule:evenodd;clip-rule:evenodd;fill:#F5D032;}
	.st14{fill:none;stroke:#F5D032;stroke-width:3;stroke-linecap:round;}
</style>
<title>Untitled-2</title>
<path class="st0" d="M143.7,394c56.8,78.3,348,42,452,13c65.6-18.3,131-94,131-187c0-119-77.2-192.4-158.3-202.6
	C429.7,0,282.3,73.7,213.7,147C116.2,251.1,106.7,343,143.7,394z"/>
<path class="st1" d="M400.7,283h-18c-1.7,0-3,1.3-3,3v18c0,1.7,1.3,3,3,3h18c1.7,0,3-1.3,3-3v-18C403.7,284.3,402.4,283,400.7,283z"
	/>
<path class="st1" d="M400.7,258h-18c-1.7,0-3,1.3-3,3v18c0,1.7,1.3,3,3,3h18c1.7,0,3-1.3,3-3v-18C403.7,259.3,402.4,258,400.7,258z"
	/>
<path class="st1" d="M400.7,232.9h-18c-1.7,0-3,1.3-3,3v18c0,1.7,1.3,3,3,3h18c1.7,0,3-1.3,3-3v-18
	C403.7,234.3,402.4,232.9,400.7,232.9z"/>
<path class="st1" d="M250.7,282h-18c-1.7,0-3,1.3-3,3v18c0,1.7,1.3,3,3,3h18c1.7,0,3-1.3,3-3v-18C253.7,283.3,252.4,282,250.7,282z"
	/>
<path class="st1" d="M260.7,257h-18c-1.7,0-3,1.3-3,3v18c0,1.7,1.3,3,3,3h18c1.7,0,3-1.3,3-3v-18C263.7,258.3,262.4,257,260.7,257z"
	/>
<path class="st2" d="M567.7,265h-90c-1.7,0-3,1.3-3,3v24c0,1.7,1.3,3,3,3h90c1.7,0,3-1.3,3-3v-24C570.7,266.3,569.4,265,567.7,265z"
	/>
<g id="Group-12">
	<path id="Fill-1" class="st3" d="M565.7,89c-3.6-11.9-8.4-23.5-17-22s-39.8,17.4-43.8,28.2s21.6,35.7,26.3,37.6
		c5,2,10.3,7.7,13.8,9.5c4.6,2.5,12.8,9,12.8,9l13.1-7.3c0,0-3.1-16,1.5-23.8c3.2-5.2,7.3-10.4,8-15.9
		C581.5,96.5,567.3,94.1,565.7,89"/>
	<path id="Fill-5" class="st3" d="M504.7,210c-5.4,9.2-13.5,30.5-13.5,30.5s-3.4-2.1-9.2,1.3s-7.9,10.7-7.1,14.2
		c1.5,6.6,7,13.8,14.5,13.8c8.3,0,13.8-5.7,13.9-10.8c0.1-5.1,0.1-10.8,0.1-10.8s16.2-29.6,23.9-40.4c7.3-10.2,41.3-39.6,35.5-52.3
		c-1.6-3.6-14.6,1.4-23.4,7.6C529.3,170.2,511.4,198.5,504.7,210z"/>
	<polygon id="Fill-9" class="st0" points="657.1,281.4 656.3,387.2 641.1,385.3 634.4,275.7 	"/>
	<polygon id="Stroke-11" class="st4" points="656,285.4 655.3,391.2 640.1,389.3 633.3,279.7 	"/>
	<polygon id="Fill-13" class="st3" points="621.7,278.1 622,384.6 610.8,383.3 600.2,276.9 	"/>
	<path id="Fill-17" class="st5" d="M580.7,138c10.1,6.8,29,14,55,59c15.7,27.2,34,116,34,116l-81.2,10.1c0,0-7.3-55.1-15.8-86.1
		c-13.6-50.3-30.6-86.4-27.9-88.5C549.5,144.8,573.4,133,580.7,138z"/>
	<path id="Fill-19" class="st3" d="M590.3,221c-0.5,11.5-2.2,29.7-3.6,39c-0.9,5.9-4.3,18.8-6.7,21.8c-4.5,5.7-13.1,10.3-20.4,6.9
		c-8.1-3.8-10.9-11.8-8.7-16.9s11.8-6.4,14.7-9.8c8.5-9.8,6.6-47,4-61c-2.5-13.3-8.8-51.2,6.2-51.1C590.7,150,590.8,209.5,590.3,221
		z"/>
	<path id="Fill-23" class="st5" d="M656,377.1c7,1.7-0.2,17.7-3.1,21.5s-20.1,12.2-24.3,7.2s10.7-26.8,10.7-26.8L656,377.1z"/>
	<path id="Fill-27" class="st5" d="M528.7,70c7.5-5,14.3-10.2,26-9c21.4,2.3,34,62.6,34,62.6l-19.4,8c0,0-1.9-33.2-12.9-44.1
		c-5.9-5.8-13.3-8.1-24-3.5s-15.9,12-15.5,18.4c0.6,12.5,23.8,37.1,23.8,37.1l-17.2,7.5c0,0-30.2-49.4-16.7-66
		C514.1,71.8,519.9,71.7,528.7,70z"/>
	<path id="Fill-25" class="st5" d="M620.1,378.3c6.9,1.7,2.9,17.5,0,21.3s-19.7,12-23.9,7.1s12.6-29.7,12.6-29.7L620.1,378.3z"/>
	<path id="Fill-30" class="st5" d="M546.5,107.6c-2.2,0-1.7,3.1-1.1,4.1c0.4,0.5,0.9,0.9,1.6,1c0.9,0.1,1.8-0.6,2-1.5
		c0.1-1-0.3-2.1-1-2.8C547.6,108,547.1,107.8,546.5,107.6"/>
	<path id="Fill-32" class="st5" d="M530.2,113.8c-1,0.3-1.5,2-1.1,3c0.3,1,1.5,2.2,2.8,1.8c1.3-0.4,1.1-2.5,0.9-2.9
		C532.3,114.5,531.6,113.3,530.2,113.8"/>
	<path id="Stroke-34" class="st6" d="M548.7,117c3.4,7.1-7,12-11,7"/>
	<path id="Fill-36" class="st0" d="M527.3,117.5c-1.1-1.8-3.3-4.3-7.4-3.3s-6.4,3.1-5.4,6.7c0.7,2.7,6.7,7,10.2,5.6
		c2-0.9,3.4-2.9,3.3-5.2C527.9,121.2,527.8,118.3,527.3,117.5"/>
	<path id="Fill-38" class="st0" d="M563.2,100.6c0.4-2.4,1-5.2,5.2-5.7s5.5,0.8,6.7,4.9c0.9,3.1-2.1,9-6.1,9.7c-3.6,0.6-5-4.5-5-4.5
		S563,101.7,563.2,100.6"/>
	<path class="st6" d="M537.7,79c0,0-2,3,0,8s7,8,7,8"/>
	<path class="st6" d="M539.7,77c0,0-2,3,0,8s7,8,7,8"/>
	<path class="st6" d="M533.4,81c0,0-1.5,3,0,8c1,3.1,2.9,5.9,5.4,8"/>
	<path class="st6" d="M531.5,84.8c0,0-5.5-0.6-6.4,4.6c-0.8,4.9,1,12.3,1,12.3"/>
	<path class="st6" d="M531.8,82.7c0,0-2,2.7-1.4,7.9c0.5,3.3,1.8,6.3,3.9,8.8"/>
	<path class="st6" d="M529.7,83.6c0,0-2.3,2.4-2.2,7.7c0.1,3.3,1.1,6.5,2.9,9.2"/>
</g>
<path class="st7" d="M193.2,313h-19l0,0v87c0,5.2,4.3,9.5,9.5,9.5l0,0l0,0c5.2,0,9.5-4.3,9.5-9.5l0,0V313L193.2,313z"/>
<path class="st7" d="M734.2,307h-596c-3.6,0-6.5,2.9-6.5,6.5l0,0c0,3.6,2.9,6.5,6.5,6.5h596c3.6,0,6.5-2.9,6.5-6.5l0,0
	C740.7,309.9,737.8,307,734.2,307z"/>
<g>
	<g>
		<defs>
			<polygon id="SVGID_1_" points="-68.1,-1415.9 -68.1,-1351.9 -22.6,-1337.9 22.5,-1351.8 67.5,-1337.9 112.6,-1351.8 
				157.7,-1337.9 202.7,-1351.8 247.8,-1337.9 292.9,-1351.8 338,-1337.9 383,-1351.8 428.1,-1337.9 473.2,-1351.8 518.2,-1337.9 
				563.3,-1351.8 608.4,-1337.9 653.5,-1351.8 698.5,-1337.9 743.6,-1351.8 788.7,-1337.9 833.7,-1351.8 878.8,-1337.9 
				923.9,-1351.8 969,-1337.9 1014,-1351.8 1059.1,-1337.9 1104.2,-1351.8 1149.2,-1337.9 1194.3,-1351.8 1239.4,-1337.9 
				1284.5,-1351.8 1329.5,-1337.9 1374.9,-1351.9 1374.8,-1351.9 1374.8,-1415.9 			"/>
		</defs>
		<clipPath id="SVGID_2_">
			<use xlink:href="#SVGID_1_"  style="overflow:visible;"/>
		</clipPath>
		<g class="st8">
			<g>
				<g>
					<defs>
						<rect id="SVGID_3_" x="-68.1" y="-1415.9" width="1440" height="5064"/>
					</defs>
					<clipPath id="SVGID_4_">
						<use xlink:href="#SVGID_3_"  style="overflow:visible;"/>
					</clipPath>
					<g class="st9">
						<g>
							<g>
								<defs>
									<rect id="SVGID_5_" x="-68" y="-1415.9" width="1440" height="5064"/>
								</defs>
								<clipPath id="SVGID_6_">
									<use xlink:href="#SVGID_5_"  style="overflow:visible;"/>
								</clipPath>
							</g>
						</g>
					</g>
				</g>
			</g>
		</g>
	</g>
</g>
<polygon id="Stroke-2" class="st10" points="214.7,364.9 202.7,415.8 190.7,413.9 197.1,360.8 "/>
<polygon id="Stroke-5" class="st10" points="192.7,354.6 169.5,400.8 157.7,396.3 175.7,346.8 "/>
<polygon id="Fill-1-2" class="st11" points="495.7,355.9 486.3,406.8 476.9,404.9 481.9,351.8 "/>
<polygon id="Fill-4" class="st11" points="467.3,354.2 471.6,405.5 461.9,408.2 452.7,356.8 "/>
<path class="st7" d="M502.7,361h-57c-3.9,0-7,3.1-7,7l0,0c0,3.9,3.1,7,7,7h57c3.9,0,7-3.1,7-7l0,0C509.7,364.1,506.6,361,502.7,361z
	"/>
<path class="st12" d="M440.9,408.5c-0.4,1.6,0.5,3.2,2.1,3.7l0,0l0,0c1.6,0.4,3.2-0.5,3.7-2.1l0,0l9.8-36.7c0.4-1.6-0.5-3.2-2.1-3.7
	l0,0c-1.6-0.4-3.2,0.5-3.7,2.1l0,0L440.9,408.5z"/>
<path class="st12" d="M498.7,410.1c0.4,1.6,2.1,2.6,3.7,2.1l0,0l0,0c1.6-0.4,2.6-2.1,2.1-3.7l0,0l-9.8-36.7
	c-0.4-1.6-2.1-2.6-3.7-2.1c-1.6,0.4-2.6,2.1-2.1,3.7l0,0L498.7,410.1z"/>
<path id="Fill-68" class="st13" d="M492,403.6c1-4.1-6.6-6.1-11.5-5.8c-3.7,0.2-7.5,4.4-6.6,6.3s3.1,3.3,8.7,3.7
	C486.2,408.2,491.1,407.6,492,403.6"/>
<path id="Fill-71" class="st13" d="M474.6,405.6c0.9-4.2-6.3-6.1-10.9-5.8c-3.5,0.2-7.1,4.5-6.3,6.4s3,3.3,8.2,3.7
	C469.1,410.2,473.7,409.6,474.6,405.6"/>
<path id="Fill-68-2" class="st13" d="M207,413.6c1-4.1-6.6-6.1-11.5-5.8c-3.7,0.2-7.5,4.4-6.6,6.3s3.1,3.3,8.7,3.7
	C201.2,418.2,206.1,417.6,207,413.6"/>
<path id="Fill-71-2" class="st13" d="M170.7,401.9c2.8-4-7.5-9.6-14.7-11.6c-5.4-1.5-12.4,1.2-11.8,3.7s3.4,5,11.3,8
	C160.7,404,168,405.7,170.7,401.9"/>
<rect x="448.7" y="387" class="st7" width="48" height="3"/>
<path id="Fill-5-2" class="st13" d="M457.6,308.9c0,15.1-0.9,26.8-13.8,32.6c-6.7,3-24-0.6-22.4-16.8s7.2-37.1,26.2-46.3
	C474.5,265.4,457.6,308.9,457.6,308.9"/>
<path id="Fill-12" class="st13" d="M518.5,314.7c2.2,24.8-9.2,41.3-22.7,32.5s-15.9-60.4-15.9-60.4s14.6-11.6,19.6-9.4
	C511.7,282.9,517.2,300.7,518.5,314.7z"/>
<path id="Stroke-8" class="st10" d="M436.5,234.6c-1.8-12.3,0.4-22,8.1-24.6s45.2-3.1,52.8,4.7s1.1,36.6-2,40.4
	c-3.3,4.1-6,13.6-6.9,17.5s2.5,11.6,2.5,11.6l-21.7-0.7c0,0-7.8-18.7-12.8-20.6c-5.4-2-9.9-5.8-13-10.6
	C439.6,245.6,437.3,239.9,436.5,234.6z"/>
<path id="Fill-10" class="st13" d="M441.7,296.3c0,0-13.6,44-5,56.5c12.3,17.8,51.2,16.8,70.1,9.7C525,355.6,509,309,509,309
	s-2.4-8.6-10-24.4c-8.1-16.7-40.3-15.6-48.1-6.1C447.7,282.5,441.7,296.3,441.7,296.3z"/>
<path class="st13" d="M478.9,262c13.1-3.5,26.5-10.1,31.5-20.2c6.2-12.5-2.4-34.7-17.7-43.6s-37.2-8-52,5.9s-13.3,48-2.1,56.3
	C444.9,265,465.3,265.6,478.9,262z"/>
<polygon id="Fill-1-3" class="st11" points="347.7,355.9 338.3,406.8 328.9,404.9 333.9,351.8 "/>
<polygon id="Fill-4-2" class="st11" points="319.3,354.2 323.6,405.5 313.9,408.2 304.7,356.8 "/>
<path class="st7" d="M354.7,361h-57c-3.9,0-7,3.1-7,7l0,0c0,3.9,3.1,7,7,7h57c3.9,0,7-3.1,7-7l0,0C361.7,364.1,358.6,361,354.7,361z
	"/>
<path class="st12" d="M292.9,408.5c-0.4,1.6,0.5,3.2,2.1,3.7l0,0l0,0c1.6,0.4,3.2-0.5,3.7-2.1l0,0l9.8-36.7c0.4-1.6-0.5-3.2-2.1-3.7
	l0,0c-1.6-0.4-3.2,0.5-3.7,2.1l0,0L292.9,408.5z"/>
<path class="st12" d="M350.7,410.1c0.4,1.6,2.1,2.6,3.7,2.1l0,0l0,0c1.6-0.4,2.6-2.1,2.1-3.7l0,0l-9.8-36.7
	c-0.4-1.6-2.1-2.6-3.7-2.1s-2.6,2.1-2.1,3.7L350.7,410.1z"/>
<path id="Fill-68-3" class="st13" d="M344,403.6c1-4.1-6.6-6.1-11.5-5.8c-3.7,0.2-7.5,4.4-6.6,6.3s3.1,3.3,8.7,3.7
	C338.2,408.2,343.1,407.6,344,403.6"/>
<path id="Fill-71-3" class="st13" d="M326.6,405.6c0.9-4.2-6.3-6.1-10.9-5.8c-3.5,0.2-7.1,4.5-6.3,6.4s3,3.3,8.2,3.7
	C321.1,410.2,325.7,409.6,326.6,405.6"/>
<rect x="300.7" y="387" class="st7" width="48" height="3"/>
<path id="Fill-5-3" class="st13" d="M299.4,305.5c-7.9,12.9-14.7,22.4-28.8,20.7c-7.4-0.9-20.1-13-10.4-26s25.5-27.9,46.5-25.9
	C336.5,277.1,299.4,305.5,299.4,305.5"/>
<path id="Fill-12-2" class="st13" d="M363.5,283.6c21.4,12.7,28.1,31.5,13.1,37.5s-58.3-22.3-58.3-22.3s-0.9-18.6,3.8-21.4
	C333.7,270.5,351.5,276.4,363.5,283.6z"/>
<path id="Stroke-8-2" class="st10" d="M290.7,229.2c0.5-12.5,4.6-21.5,12.6-22.6s45,5.4,51,14.6s-5.8,36.2-9.6,39.3
	c-4,3.4-8.5,12.2-10.1,15.9s0.3,11.9,0.3,11.9l-21.2-4.8c0,0-4.1-19.9-8.7-22.7c-4.9-3-8.6-7.5-10.8-12.9
	C291.7,240.6,290.5,234.6,290.7,229.2z"/>
<path id="Fill-10-2" class="st13" d="M293.7,296.3c0,0-13.6,44-5,56.5c12.3,17.8,51.2,16.8,70.1,9.7C377,355.6,361,309,361,309
	s-2.4-8.6-10-24.4c-8.1-16.7-40.3-15.6-48.1-6.1C299.7,282.5,293.7,296.3,293.7,296.3z"/>
<path class="st13" d="M325.7,263.9c13.6-0.7,28-4.3,35-13.2c8.6-10.9,4.8-34.4-8.3-46.4s-34.7-15.6-52.1-5.1s-23,44.2-13.8,54.6
	C291.8,259.7,311.7,264.6,325.7,263.9z"/>
<path class="st7" d="M222.7,367h-57c-3.9,0-7,3.1-7,7l0,0c0,3.9,3.1,7,7,7h57c3.9,0,7-3.1,7-7l0,0C229.7,370.1,226.6,367,222.7,367z
	"/>
<path class="st12" d="M160.9,414.5c-0.4,1.6,0.5,3.2,2.1,3.7l0,0l0,0c1.6,0.4,3.2-0.5,3.7-2.1l0,0l9.8-36.7c0.4-1.6-0.5-3.2-2.1-3.7
	l0,0c-1.6-0.4-3.2,0.5-3.7,2.1l0,0L160.9,414.5z"/>
<path class="st12" d="M218.7,416.1c0.4,1.6,2.1,2.6,3.7,2.1l0,0l0,0c1.6-0.4,2.6-2.1,2.1-3.7l0,0l-9.8-36.7
	c-0.4-1.6-2.1-2.6-3.7-2.1s-2.6,2.1-2.1,3.7L218.7,416.1z"/>
<rect x="168.7" y="393" class="st7" width="48" height="3"/>
<path id="Fill-15" class="st0" d="M200,240.6c-0.1-2.7,0.2-7,4.7-8.5s7.9-0.4,9.4,4.3c1.1,3.6-1.6,12.2-5.7,12.8s-6.5-3.9-6.5-3.9
	S200.1,241.9,200,240.6"/>
<path id="Fill-17-2" class="st0" d="M160,247.6c-1.4-1.4-3.3-2.9-7.1-1.1s-4.3,3.3-3.4,6.6c0.6,2.5,6,4.8,9.7,3.2
	c3.4-1.4,2.2-5.5,2.2-5.5S160.6,248.3,160,247.6"/>
<path id="Stroke-8-3" class="st10" d="M145,243c-5.1-12.2-5.3-22.8,2-27.4s45.8-15,55.7-8.9s10.6,37.4,8.4,42.1
	c-2.4,5-2.7,15.6-2.6,19.8s5.6,11.3,5.6,11.3l-22.6,4.9c0,0-12.9-17.3-18.5-18c-6-0.7-11.7-3.4-16.1-7.5
	C151.1,253.6,147.3,248.3,145,243z"/>
<path id="Fill-10-3" class="st13" d="M166.4,290.7c0,0-19.2,45-11.4,59.2c11.1,20.1,52.3,23.4,73.1,17.9c20-5.3,8.2-56.3,8.2-56.3
	s-1.6-9.3-8-26.9c-6.7-18.6-17.3-17.8-28-17.3c-9.9,0.5-4.7,0.3-17.7,1.2L166.4,290.7z"/>
<path id="Fill-13-2" class="st13" d="M227,239c-5.3,10.7-14.3,13.8-18.6,10.7c-7.4-5.3-4.6-21.2-10.4-26s-12.5-1.2-28.4,2.9
	c-5.7,1.5-12.7-0.9-16.3,0.7s4.6,22.7,1.4,30.7c-0.5,1.4-2.4,1.8-4.1,0.6c-19.3-14.1-13.5-45.1,2.2-59.8s39-15.7,55.2-6.2
	S233.5,225.7,227,239"/>
<path id="Stroke-19" class="st14" d="M169.2,249.2c1.8,1.9,5.9,1.6,7.4,0.3c0.8-0.7,1.5-1.5,2-2.5"/>
<path id="Fill-21" class="st13" d="M162.6,240.2c2.4-1.3,3.6,2.4,3.6,3.6c-0.2,0.7-0.5,1.4-1.3,2c-0.9,0.5-2.2,0.4-3.1-0.4
	c-0.7-1.1-0.9-2.4-0.5-3.6C161.6,241.1,162.1,240.3,162.6,240.2"/>
<path id="Fill-23-2" class="st13" d="M177.9,236.9c1.6,0,2.9,0.9,3.3,2.5c0.4,1.6-0.7,3.1-2.2,3.4c-1.8,0.4-2.9-2-3.1-2.5
	C175.9,238.9,176.1,237.3,177.9,236.9"/>
<path id="Stroke-10" class="st10" d="M183.9,336.2l-8.5,16.2c0,0,7.8,7.2,0.6,15s-15.3,5.6-21.1,2.8s-8.9-11.5-4.3-17.8
	c4-5.4,13.2-3.8,13.2-3.8l8.2-22L183.9,336.2z"/>
<path id="Fill-12-3" class="st13" d="M202.5,312.8c-5.2,26-21.7,39.3-32.9,26.4s-9-53.8,1.9-66.3c3.8-4.4,18.4-7.4,22.8-3.7
	C205.2,278.3,205.5,298.2,202.5,312.8z"/>
<path class="st7" d="M688.2,313h-19l0,0v87c0,5.2,4.3,9.5,9.5,9.5l0,0l0,0c5.2,0,9.5-4.3,9.5-9.5l0,0V313z"/>
<path class="st1" d="M696.7,276h-24c-1.7,0-3,1.3-3,3v24c0,1.7,1.3,3,3,3h24c1.7,0,3-1.3,3-3v-24C699.7,277.3,698.4,276,696.7,276z"
	/>
<path class="st1" d="M696.7,244.9h-24c-1.7,0-3,1.3-3,3v24c0,1.7,1.3,3,3,3h24c1.7,0,3-1.3,3-3v-24
	C699.7,246.3,698.4,244.9,696.7,244.9z"/>
<path class="st0" d="M24.4,404.5c-1.5,2.1-9.1,1.1-11.8,0.4c-2.1-0.7-3.5-2.7-3.5-4.9c0-3.1,2-5.1,4.1-5.3c3.4-0.3,6.8,0.9,9.3,3.4
	C25.1,400.8,25.3,403.2,24.4,404.5z"/>
<path class="st0" d="M61.9,413.2c-3.8,2-16.6-2.3-17.1-5.9c-0.6-4.5,2-7.7,5.1-8.5c5.2-1.3,12,0,14.2,3.2
	C67.2,406.5,65.6,411.3,61.9,413.2z"/>
<path class="st0" d="M104.7,417.4c-3.8,3.8-21.2,3.5-23-0.7c-2.4-5.3-0.5-10.2,2.9-12.3c5.8-3.6,14.6-4.5,18.5-1.5
	C108.6,407.2,108.5,413.6,104.7,417.4z"/>
</svg>
