<?xml version="1.0" encoding="utf-8"?>
<!-- Generator: Adobe Illustrator 24.0.1, SVG Export Plug-In . SVG Version: 6.00 Build 0)  -->
<svg version="1.1" id="Layer_1" xmlns="http://www.w3.org/2000/svg" xmlns:xlink="http://www.w3.org/1999/xlink" x="0px" y="0px"
	 viewBox="0 0 833 607.5" style="enable-background:new 0 0 833 607.5;" xml:space="preserve">
<style type="text/css">
	.st0{enable-background:new    ;}
	.st1{fill:#457687;}
	.st2{font-family:'EuclidCircularA-Regular';}
	.st3{font-size:12px;}
	.st4{fill:none;stroke:#A3D3DC;stroke-width:0.92;stroke-miterlimit:10;}
	.st5{fill:#A3D3DC;}
	.st6{fill:#F5D032;}
</style>
<title>Untitled-2</title>
<g class="st0">
	<path class="st1" d="M791,552.5l2.5,3.9l-0.5,1.4l-3.2-4.9l-5.5,1.7l0.5-1.4l4.3-1.3l-2.5-3.8l0.5-1.4l3.1,4.8l5.6-1.7l-0.5,1.4
		L791,552.5z"/>
	<path class="st1" d="M788.8,545.4c-0.2,0.4-0.6,0.6-1,0.5c-0.4-0.1-0.6-0.6-0.5-1c0.2-0.4,0.6-0.6,1-0.5
		C788.8,544.5,789,545,788.8,545.4z M790.3,546.5l0.4-1l6.1,2.2l-0.4,1.1L790.3,546.5z"/>
	<path class="st1" d="M796.5,545.9l-3-5.1l-1.3,3.5l-1-0.4l1.7-4.8l0.8,0.3l3,5l1.3-3.6l1,0.4l-1.8,5L796.5,545.9z"/>
	<path class="st1" d="M794.3,535.1c0.3-0.9,1.1-1.6,1.8-1.8l-0.9-0.3l0.4-1.1l6.1,2.2l-0.4,1.1l-0.9-0.3c0.4,0.6,0.6,1.6,0.3,2.5
		c-0.6,1.7-2.5,2.5-4.3,1.8C794.6,538.6,793.7,536.8,794.3,535.1z M795.3,535.3c-0.4,1.2,0.2,2.4,1.5,2.9c1.2,0.4,2.5,0,3-1.3
		s-0.2-2.4-1.5-2.9S795.8,534.1,795.3,535.3z"/>
	<path class="st1" d="M796.3,530l0.4-1l0.9,0.3c-0.6-0.7-0.6-1.5-0.4-2.3c0.5-1.4,1.8-2,3.3-1.4l3.8,1.4l-0.4,1l-3.6-1.3
		c-1-0.4-1.9,0-2.2,0.8c-0.4,1,0.2,2.1,1.6,2.6l3,1.1l-0.4,1.1L796.3,530z"/>
	<path class="st1" d="M805.9,524.4c0.9,0,1.5-0.5,1.9-1.5c0.4-1.1,0-2.2-1.4-2.7l-0.7-0.3c0.5,0.6,0.6,1.6,0.3,2.5
		c-0.6,1.7-2.5,2.5-4.2,1.9c-1.7-0.6-2.6-2.4-2-4.1c0.3-0.9,1.1-1.5,1.8-1.7l-0.9-0.3l0.4-1.1l5.7,2.1c2,0.7,2.6,2.5,2,4.1
		c-0.6,1.6-1.9,2.5-3.2,2.2L805.9,524.4z M800.7,520.4c-0.4,1.2,0.2,2.4,1.4,2.8c1.2,0.4,2.4-0.1,2.9-1.3c0.4-1.2-0.2-2.4-1.4-2.8
		C802.4,518.7,801.2,519.2,800.7,520.4z"/>
</g>
<g class="st0">
	<path class="st1" d="M761.2,547.7c0.7-2.1,2.6-3.2,4.2-3.1l-0.5,1.3c-1.1,0.1-2.2,0.9-2.7,2.3c-0.7,1.9,0.3,3.9,2.2,4.6
		s3.9-0.2,4.6-2.1c0.6-1.8-0.2-3.5-1.8-4.3l-1.2,3.2l-1.1-0.4l1.6-4.4c3.3,0.9,4.4,3.7,3.5,6.2c-0.9,2.5-3.6,3.8-6.1,2.9
		C761.5,552.9,760.3,550.2,761.2,547.7z"/>
	<path class="st1" d="M766.8,540.2c0.3-0.9,1.1-1.6,1.8-1.8l-0.9-0.3l0.4-1.1l6.1,2.2l-0.4,1.1l-0.9-0.3c0.4,0.6,0.6,1.6,0.3,2.5
		c-0.6,1.7-2.5,2.5-4.3,1.8C767.2,543.7,766.2,541.9,766.8,540.2z M767.9,540.4c-0.4,1.2,0.2,2.4,1.5,2.9c1.2,0.4,2.5-0.1,3-1.3
		c0.4-1.2-0.2-2.4-1.5-2.9S768.3,539.2,767.9,540.4z"/>
	<path class="st1" d="M768.9,535.1l0.4-1l0.9,0.3c-0.6-0.7-0.6-1.5-0.4-2.3c0.5-1.4,1.8-2,3.3-1.4l3.8,1.4l-0.4,1l-3.6-1.3
		c-1-0.4-1.9,0-2.2,0.8c-0.4,1,0.2,2.1,1.6,2.6l3,1.1l-0.4,1.1L768.9,535.1z"/>
	<path class="st1" d="M778.4,528.2c-0.5,1.3-1.5,2.2-2.8,1.8l0.4-1.1c0.8,0.1,1.3-0.4,1.5-1.1c0.2-0.7,0.2-1.3-0.4-1.5
		c-0.5-0.2-0.9,0-1.3,0.7l-0.6,0.8c-0.7,1-1.5,1.2-2.4,0.9c-1-0.4-1.3-1.5-0.9-2.7c0.5-1.3,1.5-1.8,2.6-1.6l-0.4,1.1
		c-0.6,0-1.1,0.3-1.3,0.9c-0.2,0.6-0.1,1.2,0.4,1.3c0.5,0.2,0.8,0,1.2-0.6l0.6-0.9c0.6-0.9,1.5-1.2,2.4-0.9
		C778.7,525.7,778.9,526.9,778.4,528.2z"/>
	<path class="st1" d="M773.5,522.2l0.4-1.1l3.6,1.3c1,0.4,1.9,0.1,2.2-0.8c0.3-1-0.2-2-1.6-2.5l-3-1.1l0.4-1.1l6.1,2.2l-0.4,1
		l-0.9-0.3c0.6,0.7,0.7,1.5,0.4,2.3c-0.5,1.3-1.8,1.9-3.3,1.3L773.5,522.2z"/>
</g>
<g class="st0">
	<path class="st1" d="M734.6,557.7c0.7-2.1,2.6-3.2,4.2-3.1l-0.5,1.3c-1.1,0.1-2.2,0.9-2.7,2.3c-0.7,1.9,0.3,3.9,2.2,4.6
		s3.9-0.2,4.6-2.1c0.6-1.8-0.2-3.5-1.8-4.3l-1.2,3.2l-1.1-0.4l1.6-4.4c3.3,0.9,4.4,3.7,3.5,6.2c-0.9,2.5-3.6,3.8-6.1,2.9
		C735,562.9,733.7,560.2,734.6,557.7z"/>
	<path class="st1" d="M739.5,552.9l0.4-1.1l3.6,1.3c1,0.4,1.9,0.1,2.2-0.8c0.3-1-0.2-2-1.6-2.5l-3-1.1l0.4-1.1l6.1,2.2l-0.4,1.1
		l-0.9-0.3c0.6,0.7,0.7,1.5,0.4,2.3c-0.5,1.3-1.8,1.9-3.3,1.3L739.5,552.9z"/>
	<path class="st1" d="M740.6,544.6c-0.2,0.4-0.6,0.6-1,0.5c-0.4-0.1-0.6-0.6-0.5-1c0.2-0.4,0.6-0.6,1-0.5
		C740.6,543.7,740.8,544.2,740.6,544.6z M742.1,545.7l0.4-1l6.1,2.2l-0.4,1.1L742.1,545.7z"/>
	<path class="st1" d="M748.3,545.1l-3-5.1l-1.3,3.5l-1-0.4l1.7-4.8l0.8,0.3l3,5l1.3-3.6l1,0.4l-1.8,5L748.3,545.1z"/>
	<path class="st1" d="M742.3,535.6l0.4-1l4,1.5c-0.6-0.7-0.6-1.5-0.4-2.3c0.5-1.4,1.8-2,3.3-1.4l3.8,1.4l-0.4,1l-3.6-1.3
		c-1-0.4-1.9,0-2.2,0.8c-0.4,1,0.2,2.1,1.6,2.6l3,1.1l-0.4,1.1L742.3,535.6z"/>
	<path class="st1" d="M755.2,529.1c-0.7,1.8-2.6,2.7-4.3,2s-2.7-2.5-2-4.4c0.7-1.8,2.6-2.7,4.3-2
		C754.9,525.4,755.8,527.3,755.2,529.1z M754.2,528.8c0.5-1.3-0.2-2.5-1.4-2.9c-1.2-0.4-2.5,0-3,1.3c-0.5,1.3,0.2,2.5,1.4,2.9
		C752.4,530.5,753.7,530,754.2,528.8z"/>
	<path class="st1" d="M750.6,522.2l0.4-1.1l3.6,1.3c1,0.4,1.9,0.1,2.2-0.8c0.3-1-0.2-2-1.6-2.5l-3-1.1l0.4-1l6.1,2.2l-0.4,1.1
		l-0.9-0.3c0.6,0.7,0.7,1.5,0.4,2.3c-0.5,1.3-1.8,1.9-3.3,1.3L750.6,522.2z"/>
</g>
<g class="st0">
	<path class="st1" d="M714.7,557l-6.2,1.6l0.5-1.4l4.8-1.2l-2.9-4l0.5-1.4l3.8,5.2l3.7,1.3l-0.4,1.1L714.7,557z"/>
	<path class="st1" d="M713.9,551.5l0.4-1l3.6,1.3c1,0.4,1.9,0.1,2.2-0.8c0.3-1-0.2-2-1.6-2.5l-3-1.1l0.4-1.1l6.1,2.2l-0.4,1.1
		l-0.9-0.3c0.6,0.7,0.7,1.5,0.4,2.3c-0.5,1.3-1.8,1.9-3.3,1.3L713.9,551.5z"/>
	<path class="st1" d="M716.5,544.4l0.4-1.1l0.9,0.3c-0.6-0.7-0.6-1.5-0.4-2.3c0.5-1.4,1.8-2,3.3-1.4l3.8,1.4l-0.4,1l-3.6-1.3
		c-1-0.4-1.9,0-2.2,0.8c-0.4,1,0.2,2.1,1.6,2.6l3,1.1l-0.4,1L716.5,544.4z"/>
	<path class="st1" d="M719.1,537.2l0.4-1l0.9,0.3c-0.6-0.7-0.6-1.5-0.4-2.3c0.5-1.4,1.8-2,3.3-1.4l3.8,1.4l-0.4,1l-3.6-1.3
		c-1-0.4-1.9,0-2.2,0.8c-0.4,1,0.2,2.1,1.6,2.6l3,1.1l-0.4,1.1L719.1,537.2z"/>
	<path class="st1" d="M722.6,527.4c0.3-0.9,1.1-1.6,1.8-1.8l-0.9-0.3l0.4-1.1l6.1,2.2l-0.4,1.1l-0.9-0.3c0.4,0.6,0.6,1.6,0.3,2.5
		c-0.6,1.7-2.5,2.5-4.3,1.8C722.9,530.9,721.9,529.1,722.6,527.4z M723.6,527.6c-0.4,1.2,0.2,2.4,1.5,2.9s2.5,0,3-1.3
		s-0.2-2.4-1.5-2.9C725.3,525.9,724,526.4,723.6,527.6z"/>
	<path class="st1" d="M724.6,522.3l0.4-1.1l0.9,0.3c-0.6-0.7-0.6-1.5-0.4-2.3c0.5-1.4,1.8-2,3.3-1.4l3.8,1.4l-0.4,1l-3.6-1.3
		c-1-0.4-1.9,0-2.2,0.8c-0.4,1,0.2,2.1,1.6,2.6l3,1.1l-0.4,1L724.6,522.3z"/>
</g>
<g class="st0">
	<path class="st1" d="M693.6,556.3c0.3,1,0.3,2-0.1,3.1c-0.9,2.5-3.6,3.8-6.1,2.9c-2.5-0.9-3.8-3.6-2.9-6.1c0.9-2.5,3.6-3.8,6.1-2.9
		c1.1,0.4,1.9,1.1,2.5,2l2.1-1.1l-0.6,1.6L693.6,556.3z M692.5,559c0.3-0.7,0.3-1.5,0.1-2.1l-1.8,0.9l-0.5-1l1.9-1
		c-0.4-0.6-1-1.1-1.8-1.4c-1.9-0.7-3.9,0.2-4.6,2.1c-0.7,1.9,0.3,3.9,2.2,4.6C689.8,561.8,691.8,560.9,692.5,559z"/>
	<path class="st1" d="M688.1,549.8c-0.2,0.4-0.6,0.6-1,0.5c-0.4-0.1-0.6-0.6-0.5-1c0.2-0.4,0.6-0.6,1-0.5
		C688,548.9,688.3,549.4,688.1,549.8z M689.5,550.9l0.4-1l6.1,2.2l-0.4,1.1L689.5,550.9z"/>
	<path class="st1" d="M690.7,547.9l0.4-1.1l0.9,0.3c-0.6-0.7-0.6-1.5-0.4-2.3c0.5-1.4,1.8-2,3.3-1.4l3.8,1.4l-0.4,1l-3.6-1.3
		c-1-0.4-1.9,0-2.2,0.8c-0.4,1,0.2,2.1,1.6,2.6l3,1.1l-0.4,1L690.7,547.9z"/>
	<path class="st1" d="M700.2,542.4c0.9,0,1.5-0.5,1.9-1.5c0.4-1.1,0-2.2-1.4-2.7l-0.7-0.3c0.5,0.6,0.6,1.6,0.3,2.5
		c-0.6,1.7-2.5,2.5-4.2,1.9c-1.7-0.6-2.6-2.4-2-4.1c0.3-0.9,1.1-1.5,1.8-1.7l-0.9-0.3l0.4-1.1l5.7,2.1c2,0.7,2.6,2.5,2,4.1
		c-0.6,1.6-1.9,2.5-3.2,2.2L700.2,542.4z M695.1,538.3c-0.4,1.2,0.2,2.4,1.4,2.8c1.2,0.4,2.4-0.1,2.9-1.3c0.4-1.2-0.2-2.4-1.4-2.8
		C696.8,536.6,695.5,537.1,695.1,538.3z"/>
	<path class="st1" d="M693,531.9l0.4-1l4,1.5c-0.6-0.7-0.6-1.5-0.4-2.3c0.5-1.4,1.8-2,3.3-1.4l3.8,1.4l-0.4,1l-3.6-1.3
		c-1-0.4-1.9,0-2.2,0.8c-0.4,1,0.2,2.1,1.6,2.6l3,1.1l-0.4,1.1L693,531.9z"/>
	<path class="st1" d="M699.5,523.3c0.3-0.9,1.1-1.6,1.8-1.8l-0.9-0.3l0.4-1.1l6.1,2.2l-0.4,1.1l-0.9-0.3c0.4,0.6,0.6,1.6,0.3,2.5
		c-0.6,1.7-2.5,2.5-4.3,1.8C699.8,526.8,698.9,525,699.5,523.3z M700.5,523.5c-0.4,1.2,0.2,2.4,1.5,2.9c1.2,0.4,2.5-0.1,3-1.3
		c0.4-1.2-0.2-2.4-1.5-2.9C702.2,521.7,700.9,522.2,700.5,523.5z"/>
	<path class="st1" d="M700,517c-0.2,0.4-0.6,0.6-1,0.5c-0.4-0.1-0.6-0.6-0.5-1s0.6-0.6,1-0.5C700,516.1,700.2,516.6,700,517z
		 M701.5,518.1l0.4-1.1l6.1,2.2l-0.4,1L701.5,518.1z"/>
</g>
<g class="st0">
	<path class="st1" d="M659,559.1c0.7-2.1,2.6-3.2,4.2-3.1l-0.5,1.3c-1.1,0.1-2.2,0.9-2.7,2.3c-0.7,1.9,0.3,3.9,2.2,4.6
		s3.9-0.2,4.6-2.1c0.6-1.8-0.2-3.5-1.8-4.3l-1.2,3.2l-1.1-0.4l1.6-4.4c3.3,0.9,4.4,3.7,3.5,6.2c-0.9,2.5-3.6,3.8-6.1,2.9
		C659.3,564.3,658.1,561.7,659,559.1z"/>
	<path class="st1" d="M663.8,554.3l0.4-1.1l3.6,1.3c1,0.4,1.9,0.1,2.2-0.8c0.3-1-0.2-2-1.6-2.5l-3-1.1l0.4-1.1l6.1,2.2l-0.4,1.1
		l-0.9-0.3c0.6,0.7,0.7,1.5,0.4,2.3c-0.5,1.3-1.8,1.9-3.3,1.3L663.8,554.3z"/>
	<path class="st1" d="M667.2,544.6c0.3-0.9,1.1-1.6,1.8-1.8l-0.9-0.3l0.4-1.1l6.1,2.2l-0.4,1.1l-0.9-0.3c0.4,0.6,0.6,1.6,0.3,2.5
		c-0.6,1.7-2.5,2.5-4.3,1.8C667.6,548.1,666.6,546.3,667.2,544.6z M668.3,544.8c-0.4,1.2,0.2,2.4,1.5,2.9c1.2,0.4,2.5-0.1,3-1.3
		s-0.2-2.4-1.5-2.9C670,543.1,668.7,543.6,668.3,544.8z"/>
	<path class="st1" d="M669.3,539.5l0.4-1l0.9,0.3c-0.6-0.7-0.6-1.5-0.4-2.3c0.5-1.4,1.8-2,3.3-1.4l3.8,1.4l-0.4,1l-3.6-1.3
		c-1-0.4-1.9,0-2.2,0.8c-0.4,1,0.2,2.1,1.6,2.6l3,1.1l-0.4,1L669.3,539.5z"/>
	<path class="st1" d="M678.8,533.9c0.9,0,1.5-0.5,1.9-1.5c0.4-1.1,0-2.2-1.4-2.7l-0.7-0.3c0.5,0.6,0.6,1.6,0.3,2.5
		c-0.6,1.7-2.5,2.5-4.2,1.9c-1.7-0.6-2.6-2.4-2-4.1c0.3-0.9,1.1-1.5,1.8-1.7l-0.9-0.3l0.4-1.1l5.7,2.1c2,0.7,2.6,2.5,2,4.1
		c-0.6,1.6-1.9,2.5-3.2,2.2L678.8,533.9z M673.7,529.9c-0.4,1.2,0.2,2.4,1.4,2.8c1.2,0.4,2.4-0.1,2.9-1.3c0.4-1.2-0.2-2.4-1.4-2.8
		C675.3,528.2,674.1,528.7,673.7,529.9z"/>
	<path class="st1" d="M678.3,524.1l-3.9,1.2l0.5-1.3l2.8-0.9l-1.6-2.5l0.5-1.3l2.2,3.4l4-1.4l-0.5,1.3l-3,1l1.6,2.7l-0.5,1.3
		L678.3,524.1z"/>
	<path class="st1" d="M675.6,517c-0.2,0.4-0.6,0.6-1,0.5c-0.4-0.1-0.6-0.6-0.5-1c0.2-0.4,0.6-0.6,1-0.5
		C675.5,516.1,675.7,516.6,675.6,517z M677,518.1l0.4-1l6.1,2.2l-0.4,1.1L677,518.1z"/>
</g>
<g class="st0">
	<path class="st1" d="M639.1,560.1l2.5,3.9l-0.5,1.4l-3.2-4.9l-5.5,1.7l0.5-1.4l4.3-1.3l-2.5-3.8l0.5-1.4l3.1,4.8l5.6-1.7l-0.5,1.4
		L639.1,560.1z"/>
	<path class="st1" d="M636.9,552.9c-0.2,0.4-0.6,0.6-1,0.5c-0.4-0.1-0.6-0.6-0.5-1c0.2-0.4,0.6-0.6,1-0.5
		C636.9,552.1,637.1,552.5,636.9,552.9z M638.4,554.1l0.4-1l6.1,2.2l-0.4,1.1L638.4,554.1z"/>
	<path class="st1" d="M639.5,551l0.4-1l0.9,0.3c-0.6-0.7-0.6-1.5-0.4-2.3c0.5-1.4,1.8-2,3.3-1.4l3.8,1.4l-0.4,1l-3.6-1.3
		c-1-0.4-1.9,0-2.2,0.8c-0.4,1,0.2,2.1,1.6,2.6l3,1.1l-0.4,1.1L639.5,551z"/>
	<path class="st1" d="M640.7,542.6c-0.2,0.4-0.6,0.6-1,0.5c-0.4-0.1-0.6-0.6-0.5-1c0.2-0.4,0.6-0.6,1-0.5
		C640.6,541.8,640.8,542.2,640.7,542.6z M649.4,545.2c1.3,0.5,1.6,1.5,1.2,2.5c-0.1,0.2-0.1,0.4-0.2,0.5l-0.9-0.3
		c0-0.1,0.1-0.2,0.2-0.3c0.2-0.6,0.1-1-0.7-1.3l-6.8-2.5l0.4-1.1L649.4,545.2z"/>
	<path class="st1" d="M641.8,539.6c-0.2,0.4-0.6,0.6-1,0.5c-0.4-0.1-0.6-0.6-0.5-1s0.6-0.6,1-0.5
		C641.7,538.7,641.9,539.1,641.8,539.6z M643.2,540.7l0.4-1.1l6.1,2.2l-0.4,1L643.2,540.7z"/>
	<path class="st1" d="M645.1,535.1c0.3-0.9,1.1-1.6,1.8-1.8L646,533l0.4-1.1l6.1,2.2l-0.4,1.1l-0.9-0.3c0.4,0.6,0.6,1.6,0.3,2.5
		c-0.6,1.7-2.5,2.5-4.3,1.8C645.5,538.6,644.5,536.8,645.1,535.1z M646.2,535.3c-0.4,1.2,0.2,2.4,1.5,2.9c1.2,0.4,2.5-0.1,3-1.3
		c0.4-1.2-0.2-2.4-1.5-2.9S646.6,534,646.2,535.3z"/>
	<path class="st1" d="M647.1,530l0.4-1l0.9,0.3c-0.6-0.7-0.6-1.5-0.4-2.3c0.5-1.4,1.8-2,3.3-1.4l3.8,1.4l-0.4,1l-3.6-1.3
		c-1-0.4-1.9,0-2.2,0.8c-0.4,1,0.2,2.1,1.6,2.6l3,1.1l-0.4,1.1L647.1,530z"/>
	<path class="st1" d="M656.7,524.4c0.9,0,1.5-0.5,1.9-1.5c0.4-1.1,0-2.2-1.4-2.7l-0.7-0.3c0.5,0.6,0.6,1.6,0.3,2.5
		c-0.6,1.7-2.5,2.5-4.2,1.9c-1.7-0.6-2.6-2.4-2-4.1c0.3-0.9,1.1-1.5,1.8-1.7l-0.9-0.3l0.4-1.1l5.7,2.1c2,0.7,2.6,2.5,2,4.1
		c-0.6,1.6-1.9,2.5-3.2,2.2L656.7,524.4z M651.6,520.4c-0.4,1.2,0.2,2.4,1.4,2.8c1.2,0.4,2.4-0.1,2.9-1.3c0.4-1.2-0.2-2.4-1.4-2.8
		C653.2,518.7,652,519.2,651.6,520.4z"/>
</g>
<g class="st0">
	<path class="st1" d="M609,552.4l0.4-1.1l3.7,1.3l1.7-4.8l-3.7-1.3l0.4-1.1l8.7,3.2l-0.4,1.1l-3.9-1.4l-1.7,4.8l3.9,1.4l-0.4,1.1
		L609,552.4z"/>
	<path class="st1" d="M622,543.9c-0.6,1.8-2.5,2.6-4.3,1.9c-1.8-0.6-2.7-2.4-2-4.3c0.7-1.9,2.7-2.5,4.5-1.7l-1.8,5
		c1.1,0.4,2.3-0.2,2.7-1.3c0.3-0.8,0.2-1.5-0.4-2.1l0.4-1.1C622,541,622.6,542.4,622,543.9z M617.6,544.5l1.4-3.8
		c-1.2-0.2-2,0.3-2.4,1.2C616.3,542.8,616.4,543.9,617.6,544.5z"/>
	<path class="st1" d="M617.4,537.2l0.4-1l0.9,0.3c-0.6-0.7-0.6-1.5-0.4-2.3c0.5-1.4,1.8-2,3.3-1.4l3.8,1.4l-0.4,1l-3.6-1.3
		c-1-0.4-1.9,0-2.2,0.8c-0.4,1,0.2,2.1,1.6,2.6l3,1.1l-0.4,1.1L617.4,537.2z"/>
	<path class="st1" d="M620.8,527.4c0.3-0.9,1.1-1.6,1.8-1.8l-0.9-0.3l0.4-1.1l6.1,2.2l-0.4,1.1l-0.9-0.3c0.4,0.6,0.6,1.6,0.3,2.5
		c-0.6,1.7-2.5,2.5-4.3,1.8C621.2,530.9,620.2,529.1,620.8,527.4z M621.8,527.6c-0.4,1.2,0.2,2.4,1.5,2.9c1.2,0.4,2.5,0,3-1.3
		c0.4-1.2-0.2-2.4-1.5-2.9C623.6,525.9,622.3,526.4,621.8,527.6z"/>
	<path class="st1" d="M622.8,522.3l0.4-1.1l0.9,0.3c-0.6-0.7-0.6-1.5-0.4-2.3c0.5-1.4,1.8-2,3.3-1.4l3.8,1.4l-0.4,1l-3.6-1.3
		c-1-0.4-1.9,0-2.2,0.8c-0.4,1,0.2,2.1,1.6,2.6l3,1.1l-0.4,1L622.8,522.3z"/>
</g>
<g class="st0">
	<path class="st1" d="M589.3,562c1,0.3,1.8-0.5,2.1-1.4c0.3-0.9,0.1-1.8-0.7-2.1c-0.7-0.2-1.3,0-1.9,0.7l-0.9,1
		c-1,1.2-1.9,1.5-3.2,1.1c-1.4-0.5-1.9-2-1.3-3.5c0.6-1.8,2.2-2.2,3.3-1.9l-0.4,1.1c-1-0.1-1.6,0.5-1.9,1.2
		c-0.3,0.8-0.1,1.6,0.6,1.9c0.7,0.3,1.2,0,1.9-0.7l0.8-1c1-1.1,2-1.6,3.3-1.2c1.5,0.5,2,2,1.4,3.6c-0.7,1.8-2.2,2.5-3.6,2.1
		L589.3,562z"/>
	<path class="st1" d="M586.3,553.3c-0.2,0.4-0.6,0.6-1,0.5c-0.4-0.1-0.6-0.6-0.5-1c0.2-0.4,0.6-0.6,1-0.5
		C586.2,552.5,586.4,552.9,586.3,553.3z M587.7,554.5l0.4-1l6.1,2.2l-0.4,1.1L587.7,554.5z"/>
	<path class="st1" d="M596,551c-0.7,1.9-2.6,2.7-4.3,2c-1.7-0.6-2.7-2.5-2-4.3c0.6-1.5,1.9-2.4,3.4-2.3l-0.4,1.1
		c-0.9,0-1.7,0.5-2,1.5c-0.5,1.3,0.2,2.5,1.4,2.9c1.2,0.4,2.5,0,3-1.3c0.3-1,0.1-1.9-0.6-2.4l0.4-1.1
		C596.1,547.9,596.6,549.4,596,551z"/>
	<path class="st1" d="M588.4,543.1l0.4-1.1l4,1.5c-0.6-0.7-0.6-1.5-0.4-2.3c0.5-1.4,1.8-2,3.3-1.4l3.8,1.4l-0.4,1l-3.6-1.3
		c-1-0.4-1.9,0-2.2,0.8c-0.4,1,0.2,2.1,1.6,2.6l3,1.1l-0.4,1L588.4,543.1z"/>
	<path class="st1" d="M594,537.1l0.4-1.1l3.6,1.3c1,0.4,1.9,0.1,2.2-0.8c0.3-1-0.2-2-1.6-2.5l-3-1.1l0.4-1l6.1,2.2l-0.4,1.1
		l-0.9-0.3c0.6,0.7,0.7,1.5,0.4,2.3c-0.5,1.3-1.8,1.9-3.3,1.3L594,537.1z"/>
	<path class="st1" d="M597.4,527.4c0.3-0.9,1.1-1.6,1.8-1.8l-0.9-0.3l0.4-1.1l6.1,2.2l-0.4,1.1l-0.9-0.3c0.4,0.6,0.6,1.6,0.3,2.5
		c-0.6,1.7-2.5,2.5-4.3,1.8C597.8,530.9,596.8,529.1,597.4,527.4z M598.4,527.6c-0.4,1.2,0.2,2.4,1.5,2.9c1.2,0.4,2.5,0,3-1.3
		c0.4-1.2-0.2-2.4-1.5-2.9C600.2,525.9,598.9,526.4,598.4,527.6z"/>
	<path class="st1" d="M599.4,522.3l0.4-1.1l0.9,0.3c-0.6-0.7-0.6-1.5-0.4-2.3c0.5-1.4,1.8-2,3.3-1.4l3.8,1.4l-0.4,1l-3.6-1.3
		c-1-0.4-1.9,0-2.2,0.8c-0.4,1,0.2,2.1,1.6,2.6l3,1.1l-0.4,1L599.4,522.3z"/>
</g>
<g class="st0">
	<path class="st1" d="M568.8,555.5l-8.7,2.8l6.8,2.5l-0.4,1.1l-8.7-3.2l0.4-1l8.7-2.8l-6.8-2.5l0.4-1.1l8.7,3.2L568.8,555.5z"/>
	<path class="st1" d="M562.4,549.1c-0.2,0.4-0.6,0.6-1,0.5c-0.4-0.1-0.6-0.6-0.5-1c0.2-0.4,0.6-0.6,1-0.5
		C562.3,548.2,562.5,548.7,562.4,549.1z M563.8,550.2l0.4-1l6.1,2.2l-0.4,1.1L563.8,550.2z"/>
	<path class="st1" d="M564.9,547.2l0.4-1l0.9,0.3c-0.6-0.7-0.6-1.5-0.4-2.3c0.5-1.4,1.8-2,3.3-1.4l3.8,1.4l-0.4,1l-3.6-1.3
		c-1-0.4-1.9,0-2.2,0.8c-0.4,1,0.2,2.1,1.6,2.6l3,1.1l-0.4,1.1L564.9,547.2z"/>
	<path class="st1" d="M574.5,541.6c0.9,0,1.5-0.5,1.9-1.5c0.4-1.1,0-2.2-1.4-2.7l-0.7-0.3c0.5,0.6,0.6,1.6,0.3,2.5
		c-0.6,1.7-2.5,2.5-4.2,1.9c-1.7-0.6-2.6-2.4-2-4.1c0.3-0.9,1.1-1.5,1.8-1.7l-0.9-0.3l0.4-1.1l5.7,2.1c2,0.7,2.6,2.5,2,4.1
		c-0.6,1.6-1.9,2.5-3.2,2.2L574.5,541.6z M569.4,537.6c-0.4,1.2,0.2,2.4,1.4,2.8c1.2,0.4,2.4-0.1,2.9-1.3c0.4-1.2-0.2-2.4-1.4-2.8
		C571,535.9,569.8,536.4,569.4,537.6z"/>
	<path class="st1" d="M573.9,531.8l-3.9,1.2l0.5-1.3l2.8-0.9l-1.6-2.5l0.5-1.3l2.2,3.4l4-1.4l-0.5,1.3l-3,1l1.6,2.7l-0.5,1.3
		L573.9,531.8z"/>
	<path class="st1" d="M571.2,524.7c-0.2,0.4-0.6,0.6-1,0.5c-0.4-0.1-0.6-0.6-0.5-1c0.2-0.4,0.6-0.6,1-0.5
		C571.2,523.8,571.4,524.3,571.2,524.7z M572.7,525.8l0.4-1.1l6.1,2.2l-0.4,1L572.7,525.8z"/>
	<path class="st1" d="M574.6,520.2c0.3-0.9,1.1-1.6,1.8-1.8l-0.9-0.3l0.4-1.1l6.1,2.2l-0.4,1.1l-0.9-0.3c0.4,0.6,0.6,1.6,0.3,2.5
		c-0.6,1.7-2.5,2.5-4.3,1.8C574.9,523.7,574,521.9,574.6,520.2z M575.6,520.4c-0.4,1.2,0.2,2.4,1.5,2.9c1.2,0.4,2.5,0,3-1.3
		s-0.2-2.4-1.5-2.9C577.3,518.7,576.1,519.2,575.6,520.4z"/>
</g>
<g class="st0">
	<path class="st1" d="M539,561.9c1,0.3,1.8-0.5,2.1-1.4c0.3-0.9,0.1-1.8-0.7-2.1c-0.7-0.2-1.3,0-1.9,0.7l-0.9,1
		c-1,1.2-1.9,1.5-3.2,1.1c-1.4-0.5-1.9-2-1.3-3.5c0.6-1.8,2.2-2.2,3.3-1.9l-0.4,1.1c-1-0.1-1.6,0.5-1.9,1.2
		c-0.3,0.8-0.1,1.6,0.6,1.9c0.7,0.3,1.2,0,1.9-0.7l0.8-1c1-1.1,2-1.6,3.3-1.2c1.5,0.5,2,2,1.4,3.6c-0.7,1.8-2.2,2.6-3.6,2.1
		L539,561.9z"/>
	<path class="st1" d="M534.4,553.3l0.4-1.1l4,1.5c-0.6-0.7-0.6-1.5-0.4-2.3c0.5-1.4,1.8-2,3.3-1.4l3.8,1.4l-0.4,1l-3.6-1.3
		c-1-0.4-1.9,0-2.2,0.8c-0.4,1,0.2,2.1,1.6,2.6l3,1.1l-0.4,1L534.4,553.3z"/>
	<path class="st1" d="M540.9,544.6c0.3-0.9,1.1-1.6,1.8-1.8l-0.9-0.3l0.4-1.1l6.1,2.2l-0.4,1.1l-0.9-0.3c0.4,0.6,0.6,1.6,0.3,2.5
		c-0.6,1.7-2.5,2.5-4.3,1.8C541.2,548.1,540.2,546.3,540.9,544.6z M541.9,544.8c-0.4,1.2,0.2,2.4,1.5,2.9c1.2,0.4,2.5-0.1,3-1.3
		c0.4-1.2-0.2-2.4-1.5-2.9C543.6,543.1,542.3,543.6,541.9,544.8z"/>
	<path class="st1" d="M543.7,536.9c0.3-0.9,1.1-1.6,1.8-1.8l-0.9-0.3l0.4-1.1l6.1,2.2l-0.4,1.1l-0.9-0.3c0.4,0.6,0.6,1.6,0.3,2.5
		c-0.6,1.7-2.5,2.5-4.3,1.8C544,540.4,543,538.6,543.7,536.9z M544.7,537.1c-0.4,1.2,0.2,2.4,1.5,2.9c1.2,0.4,2.5,0,3-1.3
		s-0.2-2.4-1.5-2.9C546.4,535.4,545.1,535.9,544.7,537.1z"/>
	<path class="st1" d="M545.7,531.8l0.4-1l0.9,0.3c-0.6-0.7-0.6-1.5-0.4-2.3c0.5-1.4,1.8-2,3.3-1.4l3.8,1.4l-0.4,1l-3.6-1.3
		c-1-0.4-1.9,0-2.2,0.8c-0.4,1,0.2,2.1,1.6,2.6l3,1.1l-0.4,1.1L545.7,531.8z"/>
	<path class="st1" d="M551.9,524.1l-3.9,1.2l0.5-1.3l2.8-0.9l-1.6-2.5l0.5-1.3l2.2,3.4l4-1.4l-0.5,1.3l-3,1l1.6,2.7l-0.5,1.3
		L551.9,524.1z"/>
	<path class="st1" d="M549.2,517c-0.2,0.4-0.6,0.6-1,0.5c-0.4-0.1-0.6-0.6-0.5-1s0.6-0.6,1-0.5C549.1,516.1,549.4,516.6,549.2,517z
		 M550.7,518.1l0.4-1.1l6.1,2.2l-0.4,1L550.7,518.1z"/>
</g>
<g class="st0">
	<path class="st1" d="M514.9,554.3c1,0.3,1.8-0.5,2.1-1.4c0.3-0.9,0.1-1.8-0.7-2.1c-0.7-0.2-1.3,0-1.9,0.7l-0.9,1
		c-1,1.2-1.9,1.5-3.2,1.1c-1.4-0.5-1.9-2-1.3-3.5c0.6-1.8,2.2-2.2,3.3-1.9l-0.4,1.1c-1-0.1-1.6,0.5-1.9,1.2
		c-0.3,0.8-0.1,1.6,0.6,1.9c0.7,0.3,1.2,0,1.9-0.7l0.8-1c1-1.1,2-1.6,3.3-1.2c1.5,0.5,2,2,1.4,3.6c-0.7,1.8-2.2,2.5-3.6,2.1
		L514.9,554.3z"/>
	<path class="st1" d="M510.3,545.6l0.4-1.1l4,1.5c-0.6-0.7-0.6-1.5-0.4-2.3c0.5-1.4,1.8-2,3.3-1.4l3.8,1.4l-0.4,1l-3.6-1.3
		c-1-0.4-1.9,0-2.2,0.8c-0.4,1,0.2,2.1,1.6,2.6l3,1.1l-0.4,1L510.3,545.6z"/>
	<path class="st1" d="M516.8,536.9c0.3-0.9,1.1-1.6,1.8-1.8l-0.9-0.3l0.4-1.1l6.1,2.2l-0.4,1.1l-0.9-0.3c0.4,0.6,0.6,1.6,0.3,2.5
		c-0.6,1.7-2.5,2.5-4.3,1.8C517.1,540.5,516.2,538.6,516.8,536.9z M517.8,537.1c-0.4,1.2,0.2,2.4,1.5,2.9s2.5,0,3-1.3
		s-0.2-2.4-1.5-2.9C519.6,535.4,518.3,535.9,517.8,537.1z"/>
	<path class="st1" d="M518.8,531.8l0.4-1l0.9,0.3c-0.6-0.7-0.6-1.5-0.4-2.3c0.5-1.4,1.8-2,3.3-1.4l3.8,1.4l-0.4,1l-3.6-1.3
		c-1-0.4-1.9,0-2.2,0.8c-0.4,1,0.2,2.1,1.6,2.6l3,1.1l-0.4,1.1L518.8,531.8z"/>
	<path class="st1" d="M525,524.1l-3.9,1.2l0.5-1.3l2.8-0.9l-1.6-2.5l0.5-1.3l2.2,3.4l4-1.4l-0.5,1.3l-3,1l1.6,2.7l-0.5,1.3
		L525,524.1z"/>
	<path class="st1" d="M522.3,517c-0.2,0.4-0.6,0.6-1,0.5c-0.4-0.1-0.6-0.6-0.5-1c0.2-0.4,0.6-0.6,1-0.5
		C522.3,516.1,522.5,516.6,522.3,517z M523.8,518.1l0.4-1l6.1,2.2l-0.4,1.1L523.8,518.1z"/>
</g>
<g class="st0">
	<path class="st1" d="M483.9,548.1l0.4-1.1l3.7,1.3l1.7-4.8l-3.7-1.3l0.4-1.1l8.7,3.2l-0.4,1.1l-3.9-1.4l-1.7,4.8l3.9,1.4l-0.4,1.1
		L483.9,548.1z"/>
	<path class="st1" d="M496.9,539.6c-0.6,1.8-2.5,2.6-4.3,1.9c-1.8-0.6-2.7-2.4-2-4.3c0.7-1.9,2.7-2.5,4.5-1.7l-1.8,5
		c1.1,0.4,2.3-0.2,2.7-1.3c0.3-0.8,0.2-1.5-0.4-2.1l0.4-1.1C496.9,536.8,497.5,538.1,496.9,539.6z M492.5,540.3l1.4-3.8
		c-1.2-0.2-2,0.3-2.4,1.2C491.1,538.6,491.3,539.6,492.5,540.3z"/>
	<path class="st1" d="M498.8,534.1l-0.4,1.1l-9.2-3.3l0.4-1l4,1.5c-0.4-0.6-0.6-1.6-0.3-2.5c0.6-1.7,2.5-2.5,4.3-1.8
		c1.7,0.6,2.7,2.5,2.1,4.1c-0.3,0.9-1.1,1.6-1.8,1.8L498.8,534.1z M494.2,530.2c-0.4,1.2,0.2,2.4,1.5,2.9c1.2,0.4,2.5,0,3-1.3
		s-0.2-2.4-1.5-2.9C496,528.4,494.7,528.9,494.2,530.2z"/>
	<path class="st1" d="M502.3,524.9c-0.6,1.8-2.5,2.6-4.3,1.9c-1.8-0.6-2.7-2.4-2-4.3c0.7-1.9,2.7-2.5,4.5-1.7l-1.8,5
		c1.1,0.4,2.3-0.2,2.7-1.3c0.3-0.8,0.2-1.5-0.4-2.1l0.4-1.1C502.3,522,502.8,523.3,502.3,524.9z M497.8,525.5l1.4-3.8
		c-1.2-0.2-2,0.3-2.4,1.2C496.5,523.8,496.7,524.8,497.8,525.5z"/>
	<path class="st1" d="M496.2,517c-0.2,0.4-0.6,0.6-1,0.5c-0.4-0.1-0.6-0.6-0.5-1s0.6-0.6,1-0.5C496.2,516.1,496.4,516.6,496.2,517z
		 M497.7,518.1l0.4-1.1l6.1,2.2l-0.4,1L497.7,518.1z"/>
</g>
<g class="st0">
	<path class="st1" d="M443.2,587.4l0.4-1.1l3.7,1.3l1.7-4.8l-3.7-1.3l0.4-1.1l8.7,3.2l-0.4,1.1l-3.9-1.4l-1.7,4.8l3.9,1.4l-0.4,1.1
		L443.2,587.4z"/>
	<path class="st1" d="M456.3,578.9c-0.6,1.8-2.5,2.6-4.3,1.9c-1.8-0.6-2.7-2.4-2-4.3c0.7-1.9,2.7-2.5,4.5-1.7l-1.8,5
		c1.1,0.4,2.3-0.2,2.7-1.3c0.3-0.8,0.2-1.5-0.4-2.1l0.4-1.1C456.3,576,456.8,577.4,456.3,578.9z M451.8,579.5l1.4-3.8
		c-1.2-0.2-2,0.3-2.4,1.2C450.5,577.8,450.7,578.9,451.8,579.5z"/>
	<path class="st1" d="M450.2,571.1c-0.2,0.4-0.6,0.6-1,0.5c-0.4-0.1-0.6-0.6-0.5-1c0.2-0.4,0.6-0.6,1-0.5
		C450.1,570.2,450.4,570.6,450.2,571.1z M451.7,572.2l0.4-1l6.1,2.2l-0.4,1.1L451.7,572.2z"/>
	<path class="st1" d="M449.7,568l0.4-1.1l9.2,3.3l-0.4,1L449.7,568z"/>
	<path class="st1" d="M461.1,565.7c-0.7,1.8-2.6,2.7-4.3,2c-1.8-0.6-2.7-2.5-2-4.4c0.7-1.8,2.6-2.7,4.3-2
		C460.8,562,461.8,563.8,461.1,565.7z M460.1,565.3c0.5-1.3-0.2-2.5-1.4-2.9c-1.2-0.4-2.5,0-3,1.3s0.2,2.5,1.4,2.9
		C458.4,567.1,459.6,566.6,460.1,565.3z"/>
	<path class="st1" d="M456.6,558.7l0.4-1l0.9,0.3c-0.6-0.7-0.6-1.5-0.4-2.3c0.5-1.4,1.8-2,3.3-1.4l3.8,1.4l-0.4,1l-3.6-1.3
		c-1-0.4-1.9,0-2.2,0.8c-0.4,1,0.2,2.1,1.6,2.6l3,1.1l-0.4,1L456.6,558.7z"/>
	<path class="st1" d="M466.1,553.2c0.9,0,1.5-0.5,1.9-1.5c0.4-1.1,0-2.2-1.4-2.7l-0.7-0.3c0.5,0.6,0.6,1.6,0.3,2.5
		c-0.6,1.7-2.5,2.5-4.2,1.9c-1.7-0.6-2.6-2.4-2-4.1c0.3-0.9,1.1-1.5,1.8-1.7l-0.9-0.3l0.4-1.1l5.7,2.1c2,0.7,2.6,2.5,2,4.1
		c-0.6,1.6-1.9,2.5-3.2,2.2L466.1,553.2z M461,549.1c-0.4,1.2,0.2,2.4,1.4,2.8c1.2,0.4,2.4-0.1,2.9-1.3c0.4-1.2-0.2-2.4-1.4-2.8
		C462.7,547.4,461.4,547.9,461,549.1z"/>
	<path class="st1" d="M460.6,542.6c-0.2,0.4-0.6,0.6-1,0.5c-0.4-0.1-0.6-0.6-0.5-1c0.2-0.4,0.6-0.6,1-0.5
		C460.5,541.7,460.7,542.2,460.6,542.6z M469.3,545.2c1.3,0.5,1.6,1.5,1.2,2.5c-0.1,0.2-0.1,0.3-0.2,0.5l-0.9-0.3
		c0-0.1,0.1-0.2,0.2-0.3c0.2-0.6,0.1-1-0.7-1.3l-6.8-2.5l0.4-1.1L469.3,545.2z"/>
	<path class="st1" d="M461.7,539.6c-0.2,0.4-0.6,0.6-1,0.5c-0.4-0.1-0.6-0.6-0.5-1c0.2-0.4,0.6-0.6,1-0.5
		C461.6,538.7,461.8,539.1,461.7,539.6z M463.1,540.7l0.4-1l6.1,2.2l-0.4,1.1L463.1,540.7z"/>
	<path class="st1" d="M465,535.1c0.3-0.9,1.1-1.6,1.8-1.8l-0.9-0.3l0.4-1.1l6.1,2.2l-0.4,1.1l-0.9-0.3c0.4,0.6,0.6,1.6,0.3,2.5
		c-0.6,1.7-2.5,2.5-4.3,1.8C465.4,538.6,464.4,536.8,465,535.1z M466,535.3c-0.4,1.2,0.2,2.4,1.5,2.9c1.2,0.4,2.5-0.1,3-1.3
		s-0.2-2.4-1.5-2.9C467.8,533.6,466.5,534,466,535.3z"/>
	<path class="st1" d="M467,530l0.4-1.1l0.9,0.3c-0.6-0.7-0.6-1.5-0.4-2.3c0.5-1.4,1.8-2,3.3-1.4l3.8,1.4l-0.4,1l-3.6-1.3
		c-1-0.4-1.9,0-2.2,0.8c-0.4,1,0.2,2.1,1.6,2.6l3,1.1l-0.4,1L467,530z"/>
	<path class="st1" d="M476.6,524.4c0.9,0,1.5-0.5,1.9-1.5c0.4-1.1,0-2.2-1.4-2.7l-0.7-0.3c0.5,0.6,0.6,1.6,0.3,2.5
		c-0.6,1.7-2.5,2.5-4.2,1.9c-1.7-0.6-2.6-2.4-2-4.1c0.3-0.9,1.1-1.5,1.8-1.7l-0.9-0.3l0.4-1.1l5.7,2.1c2,0.7,2.6,2.5,2,4.1
		c-0.6,1.6-1.9,2.5-3.2,2.2L476.6,524.4z M471.5,520.4c-0.4,1.2,0.2,2.4,1.4,2.8c1.2,0.4,2.4-0.1,2.9-1.3c0.4-1.2-0.2-2.4-1.4-2.8
		C473.1,518.7,471.9,519.2,471.5,520.4z"/>
</g>
<g class="st0">
	<path class="st1" d="M444.6,538.2c-0.5,1.4-1.8,2.3-3.4,1.7l0.4-1.1c0.9,0.3,1.7-0.2,1.9-0.9s0.1-1.6-1.1-2l-6.2-2.2l0.4-1.1
		l6.3,2.3C444.8,535.4,445.1,536.9,444.6,538.2z"/>
	<path class="st1" d="M438.6,530.3c-0.2,0.4-0.6,0.6-1,0.5c-0.4-0.1-0.6-0.6-0.5-1c0.2-0.4,0.6-0.6,1-0.5
		C438.5,529.4,438.7,529.9,438.6,530.3z M440,531.4l0.4-1l6.1,2.2l-0.4,1.1L440,531.4z"/>
	<path class="st1" d="M438.1,527.3l0.4-1l9.2,3.3l-0.4,1.1L438.1,527.3z"/>
	<path class="st1" d="M440.8,524.2c-0.2,0.4-0.6,0.6-1,0.5c-0.4-0.1-0.6-0.6-0.5-1c0.2-0.4,0.6-0.6,1-0.5
		C440.7,523.3,440.9,523.8,440.8,524.2z M442.2,525.3l0.4-1l6.1,2.2l-0.4,1.1L442.2,525.3z"/>
	<path class="st1" d="M443.3,522.3l0.4-1.1l0.9,0.3c-0.6-0.7-0.6-1.5-0.4-2.3c0.5-1.4,1.8-2,3.3-1.4l3.8,1.4l-0.4,1l-3.6-1.3
		c-1-0.4-1.9,0-2.2,0.8c-0.4,1,0.2,2.1,1.6,2.6l3,1.1l-0.4,1L443.3,522.3z"/>
</g>
<g class="st0">
	<path class="st1" d="M409.6,544.5l0.3-0.9l10.1-0.7l-0.4,1.2l-2.9,0.2l-1.5,4l2.1,2l-0.4,1.2L409.6,544.5z M415.4,544.3l-4.2,0.3
		l3,2.9L415.4,544.3z"/>
	<path class="st1" d="M414.2,539.6l0.4-1.1l0.9,0.3c-0.6-0.7-0.6-1.5-0.4-2.3c0.5-1.4,1.8-2,3.3-1.4l3.8,1.4l-0.4,1l-3.6-1.3
		c-1-0.4-1.9,0-2.2,0.8c-0.4,1,0.2,2.1,1.6,2.6l3,1.1l-0.4,1L414.2,539.6z"/>
	<path class="st1" d="M413.8,531.3l0.4-1.1l4,1.5c-0.6-0.7-0.6-1.5-0.4-2.3c0.5-1.4,1.8-2,3.3-1.4l3.8,1.4l-0.4,1l-3.6-1.3
		c-1-0.4-1.9,0-2.2,0.8c-0.4,1,0.2,2.1,1.6,2.6l3,1.1l-0.4,1L413.8,531.3z"/>
	<path class="st1" d="M419.5,525.3l0.4-1.1l3.6,1.3c1,0.4,1.9,0.1,2.2-0.8c0.3-1-0.2-2-1.6-2.5l-3-1.1l0.4-1l6.1,2.2l-0.4,1.1
		l-0.9-0.3c0.6,0.7,0.7,1.5,0.4,2.3c-0.5,1.3-1.8,1.9-3.3,1.3L419.5,525.3z"/>
	<path class="st1" d="M420.6,517c-0.2,0.4-0.6,0.6-1,0.5c-0.4-0.1-0.6-0.6-0.5-1c0.2-0.4,0.6-0.6,1-0.5
		C420.6,516.1,420.8,516.6,420.6,517z M422.1,518.1l0.4-1l6.1,2.2l-0.4,1.1L422.1,518.1z"/>
</g>
<g class="st0">
	<path class="st1" d="M391.7,557c-0.5,1.4-1.8,2.3-3.4,1.7l0.4-1.1c0.9,0.3,1.7-0.2,1.9-0.9s0.1-1.6-1.1-2l-6.2-2.2l0.4-1.1l6.3,2.3
		C391.9,554.2,392.2,555.7,391.7,557z"/>
	<path class="st1" d="M385.6,549.1c-0.2,0.4-0.6,0.6-1,0.5c-0.4-0.1-0.6-0.6-0.5-1c0.2-0.4,0.6-0.6,1-0.5
		C385.6,548.2,385.8,548.7,385.6,549.1z M387.1,550.2l0.4-1l6.1,2.2l-0.4,1.1L387.1,550.2z"/>
	<path class="st1" d="M389,544.6c0.3-0.9,1.1-1.6,1.8-1.8l-0.9-0.3l0.4-1.1l6.1,2.2l-0.4,1.1l-0.9-0.3c0.4,0.6,0.6,1.6,0.3,2.5
		c-0.6,1.7-2.5,2.5-4.3,1.8S388.4,546.3,389,544.6z M390,544.8c-0.4,1.2,0.2,2.4,1.5,2.9c1.2,0.4,2.5-0.1,3-1.3s-0.2-2.4-1.5-2.9
		C391.7,543.1,390.5,543.6,390,544.8z"/>
	<path class="st1" d="M391,539.5l0.4-1.1l0.9,0.3c-0.6-0.7-0.6-1.5-0.4-2.3c0.5-1.4,1.8-2,3.3-1.4l3.8,1.4l-0.4,1l-3.6-1.3
		c-1-0.4-1.9,0-2.2,0.8c-0.4,1,0.2,2.1,1.6,2.6l3,1.1l-0.4,1L391,539.5z"/>
	<path class="st1" d="M400.6,533.9c0.9,0,1.5-0.5,1.9-1.5c0.4-1.1,0-2.2-1.4-2.7l-0.7-0.3c0.5,0.6,0.6,1.6,0.3,2.5
		c-0.6,1.7-2.5,2.5-4.2,1.9c-1.7-0.6-2.6-2.4-2-4.1c0.3-0.9,1.1-1.5,1.8-1.7l-0.9-0.3l0.4-1.1l5.7,2.1c2,0.7,2.6,2.5,2,4.1
		c-0.6,1.6-1.9,2.5-3.2,2.2L400.6,533.9z M395.4,529.9c-0.4,1.2,0.2,2.4,1.4,2.8c1.2,0.4,2.4-0.1,2.9-1.3c0.4-1.2-0.2-2.4-1.4-2.8
		C397.1,528.2,395.9,528.7,395.4,529.9z"/>
	<path class="st1" d="M400,524.1l-3.9,1.2l0.5-1.3l2.8-0.9l-1.6-2.5l0.5-1.3l2.2,3.4l4-1.4l-0.5,1.3l-3,1l1.6,2.7l-0.5,1.3
		L400,524.1z"/>
	<path class="st1" d="M397.3,517c-0.2,0.4-0.6,0.6-1,0.5c-0.4-0.1-0.6-0.6-0.5-1c0.2-0.4,0.6-0.6,1-0.5
		C397.3,516.1,397.5,516.6,397.3,517z M398.8,518.1l0.4-1l6.1,2.2l-0.4,1.1L398.8,518.1z"/>
</g>
<g class="st0">
	<path class="st1" d="M357,556l0.4-1.1l3.7,1.3l1.7-4.8l-3.7-1.3l0.4-1.1l8.7,3.2l-0.4,1.1l-3.9-1.4l-1.7,4.8l3.9,1.4l-0.4,1.1
		L357,556z"/>
	<path class="st1" d="M363.7,545.4c0.3-0.9,1.1-1.6,1.8-1.8l-0.9-0.3l0.4-1.1l6.1,2.2l-0.4,1.1l-0.9-0.3c0.4,0.6,0.6,1.6,0.3,2.5
		c-0.6,1.7-2.5,2.5-4.3,1.8S363.1,547.1,363.7,545.4z M364.7,545.5c-0.4,1.2,0.2,2.4,1.5,2.9c1.2,0.4,2.5-0.1,3-1.3
		s-0.2-2.4-1.5-2.9C366.5,543.8,365.2,544.3,364.7,545.5z"/>
	<path class="st1" d="M364.3,539.1c-0.2,0.4-0.6,0.6-1,0.5c-0.4-0.1-0.6-0.6-0.5-1c0.2-0.4,0.6-0.6,1-0.5
		C364.2,538.2,364.4,538.7,364.3,539.1z M365.7,540.2l0.4-1.1l6.1,2.2l-0.4,1L365.7,540.2z"/>
	<path class="st1" d="M366.8,537.2l0.4-1l0.9,0.3c-0.6-0.7-0.6-1.5-0.4-2.3c0.5-1.4,1.8-2,3.3-1.4l3.8,1.4l-0.4,1l-3.6-1.3
		c-1-0.4-1.9,0-2.2,0.8c-0.4,1,0.2,2.1,1.6,2.6l3,1.1l-0.4,1.1L366.8,537.2z"/>
	<path class="st1" d="M370.2,527.4c0.3-0.9,1.1-1.6,1.8-1.8l-0.9-0.3l0.4-1.1l6.1,2.2l-0.4,1.1l-0.9-0.3c0.4,0.6,0.6,1.6,0.3,2.5
		c-0.6,1.7-2.5,2.5-4.3,1.8C370.6,530.9,369.6,529.1,370.2,527.4z M371.2,527.6c-0.4,1.2,0.2,2.4,1.5,2.9c1.2,0.4,2.5-0.1,3-1.3
		c0.4-1.2-0.2-2.4-1.5-2.9C373,525.9,371.7,526.4,371.2,527.6z"/>
	<path class="st1" d="M372.2,522.3l0.4-1l0.9,0.3c-0.6-0.7-0.6-1.5-0.4-2.3c0.5-1.4,1.8-2,3.3-1.4l3.8,1.4l-0.4,1l-3.6-1.3
		c-1-0.4-1.9,0-2.2,0.8c-0.4,1,0.2,2.1,1.6,2.6l3,1.1l-0.4,1.1L372.2,522.3z"/>
</g>
<g class="st0">
	<path class="st1" d="M332.4,552.4l0.4-1.1l3.7,1.3l1.7-4.8l-3.7-1.3l0.4-1.1l8.7,3.2l-0.4,1.1l-3.9-1.4l-1.7,4.8l3.9,1.4l-0.4,1.1
		L332.4,552.4z"/>
	<path class="st1" d="M338.3,544.3l0.4-1.1l3.6,1.3c1,0.4,1.9,0.1,2.2-0.8c0.3-1-0.2-2-1.6-2.5l-3-1.1l0.4-1.1l6.1,2.2l-0.4,1
		l-0.9-0.3c0.6,0.7,0.7,1.5,0.4,2.3c-0.5,1.3-1.8,1.9-3.3,1.3L338.3,544.3z"/>
	<path class="st1" d="M340.9,537.2l0.4-1.1l0.9,0.3c-0.6-0.7-0.6-1.5-0.4-2.3c0.5-1.4,1.8-2,3.3-1.4l3.8,1.4l-0.4,1l-3.6-1.3
		c-1-0.4-1.9,0-2.2,0.8c-0.4,1,0.2,2.1,1.6,2.6l3,1.1l-0.4,1L340.9,537.2z"/>
	<path class="st1" d="M344.3,527.4c0.3-0.9,1.1-1.6,1.8-1.8l-0.9-0.3l0.4-1.1l6.1,2.2l-0.4,1.1l-0.9-0.3c0.4,0.6,0.6,1.6,0.3,2.5
		c-0.6,1.7-2.5,2.5-4.3,1.8C344.6,530.9,343.7,529.1,344.3,527.4z M345.3,527.6c-0.4,1.2,0.2,2.4,1.5,2.9c1.2,0.4,2.5-0.1,3-1.3
		c0.4-1.2-0.2-2.4-1.5-2.9C347,525.9,345.7,526.4,345.3,527.6z"/>
	<path class="st1" d="M346.3,522.3l0.4-1l0.9,0.3c-0.6-0.7-0.6-1.5-0.4-2.3c0.5-1.4,1.8-2,3.3-1.4l3.8,1.4l-0.4,1l-3.6-1.3
		c-1-0.4-1.9,0-2.2,0.8c-0.4,1,0.2,2.1,1.6,2.6l3,1.1l-0.4,1.1L346.3,522.3z"/>
</g>
<g class="st0">
	<path class="st1" d="M307.9,548.2l0.4-1.1l3.7,1.3l1.7-4.8l-3.7-1.3l0.4-1.1l8.7,3.2l-0.4,1.1l-3.9-1.4l-1.7,4.8l3.9,1.4l-0.4,1.1
		L307.9,548.2z"/>
	<path class="st1" d="M313.7,540.1l0.4-1.1l3.6,1.3c1,0.4,1.9,0.1,2.2-0.8c0.3-1-0.2-2-1.6-2.5l-3-1.1l0.4-1.1l6.1,2.2l-0.4,1
		l-0.9-0.3c0.6,0.7,0.7,1.5,0.4,2.3c-0.5,1.3-1.8,1.9-3.3,1.3L313.7,540.1z"/>
	<path class="st1" d="M322.8,534.1l-0.4,1l-9.2-3.3l0.4-1.1l4,1.5c-0.4-0.6-0.6-1.6-0.3-2.5c0.6-1.7,2.5-2.5,4.3-1.8
		c1.7,0.6,2.7,2.5,2.1,4.1c-0.3,0.9-1.1,1.6-1.8,1.8L322.8,534.1z M318.3,530.2c-0.4,1.2,0.2,2.4,1.5,2.9c1.2,0.4,2.5,0,3-1.3
		c0.4-1.2-0.2-2.4-1.5-2.9C320,528.4,318.7,528.9,318.3,530.2z"/>
	<path class="st1" d="M326.3,524.9c-0.7,1.8-2.5,2.6-4.3,1.9c-1.8-0.6-2.7-2.4-2-4.3c0.7-1.9,2.7-2.5,4.5-1.7l-1.8,5
		c1.1,0.4,2.3-0.2,2.7-1.3c0.3-0.8,0.2-1.5-0.4-2.1l0.4-1.1C326.3,522,326.9,523.3,326.3,524.9z M321.9,525.5l1.4-3.8
		c-1.2-0.2-2,0.3-2.4,1.2C320.5,523.8,320.7,524.8,321.9,525.5z"/>
	<path class="st1" d="M320.3,517c-0.2,0.4-0.6,0.6-1,0.5c-0.4-0.1-0.6-0.6-0.5-1c0.2-0.4,0.6-0.6,1-0.5
		C320.2,516.1,320.4,516.6,320.3,517z M321.7,518.1l0.4-1l6.1,2.2l-0.4,1.1L321.7,518.1z"/>
</g>
<g class="st0">
	<path class="st1" d="M272.7,574.7c0.8-2.2,2.8-3.3,4.5-3.1l-0.4,1.2c-1.2,0-2.5,0.8-3,2.3c-0.7,1.9,0.3,3.9,2.2,4.6
		s3.9-0.2,4.6-2.1c0.5-1.4,0.1-2.9-0.9-3.7l0.4-1.2c1.4,1,2.3,3.1,1.5,5.2c-0.9,2.5-3.6,3.8-6.1,2.9
		C273,579.9,271.8,577.3,272.7,574.7z"/>
	<path class="st1" d="M274.4,569l0.4-1.1l4,1.5c-0.6-0.7-0.6-1.5-0.4-2.3c0.5-1.4,1.8-2,3.3-1.4l3.8,1.4l-0.4,1l-3.6-1.3
		c-1-0.4-1.9,0-2.2,0.8c-0.4,1,0.2,2.1,1.6,2.6l3,1.1l-0.4,1L274.4,569z"/>
	<path class="st1" d="M287.3,562.5c-0.7,1.8-2.6,2.7-4.3,2c-1.8-0.6-2.7-2.5-2-4.4c0.7-1.8,2.6-2.7,4.3-2
		C287,558.8,288,560.7,287.3,562.5z M286.3,562.2c0.5-1.3-0.2-2.5-1.4-2.9c-1.2-0.4-2.5,0-3,1.3c-0.5,1.3,0.2,2.5,1.4,2.9
		C284.6,563.9,285.9,563.4,286.3,562.2z"/>
	<path class="st1" d="M282.8,555.6l0.4-1.1l0.9,0.3c-0.6-0.7-0.6-1.5-0.4-2.3c0.5-1.4,1.8-2,3.3-1.4l3.8,1.4l-0.4,1l-3.6-1.3
		c-1-0.4-1.9,0-2.2,0.8c-0.4,1,0.2,2.1,1.6,2.6l3,1.1l-0.4,1L282.8,555.6z"/>
	<path class="st1" d="M292.3,550c0.9,0,1.5-0.5,1.9-1.5c0.4-1.1,0-2.2-1.4-2.7l-0.7-0.3c0.5,0.6,0.6,1.6,0.3,2.5
		c-0.6,1.7-2.5,2.5-4.2,1.9c-1.7-0.6-2.6-2.4-2-4.1c0.3-0.9,1.1-1.5,1.8-1.7l-0.9-0.3l0.4-1.1l5.7,2.1c2,0.7,2.6,2.5,2,4.1
		c-0.6,1.6-1.9,2.5-3.2,2.2L292.3,550z M287.2,546c-0.4,1.2,0.2,2.4,1.4,2.8c1.2,0.4,2.4-0.1,2.9-1.3c0.4-1.2-0.2-2.4-1.4-2.8
		C288.9,544.3,287.6,544.8,287.2,546z"/>
	<path class="st1" d="M295,537.9c0.4,0.6,0.6,1.6,0.3,2.5c-0.6,1.7-2.5,2.5-4.3,1.8c-1.7-0.6-2.7-2.4-2.1-4.1
		c0.3-0.9,1.1-1.6,1.8-1.8l-0.9-0.3l0.4-1.1l8.7,3.2l-0.4,1.1L295,537.9z M290,538.3c-0.4,1.2,0.2,2.4,1.5,2.9
		c1.2,0.4,2.5-0.1,3-1.3c0.4-1.2-0.2-2.4-1.5-2.9C291.7,536.6,290.4,537.1,290,538.3z"/>
	<path class="st1" d="M289.5,531.9c-0.2,0.4-0.6,0.6-1,0.5c-0.4-0.1-0.6-0.6-0.5-1c0.2-0.4,0.6-0.6,1-0.5
		C289.5,531,289.7,531.4,289.5,531.9z M291,533l0.4-1.1l6.1,2.2l-0.4,1L291,533z"/>
	<path class="st1" d="M292.1,530l0.4-1.1l0.9,0.3c-0.6-0.7-0.6-1.5-0.4-2.3c0.5-1.4,1.8-2,3.3-1.4l3.8,1.4l-0.4,1l-3.6-1.3
		c-1-0.4-1.9,0-2.2,0.8c-0.4,1,0.2,2.1,1.6,2.6l3,1.1l-0.4,1L292.1,530z"/>
	<path class="st1" d="M301.7,524.4c0.9,0,1.5-0.5,1.9-1.5c0.4-1.1,0-2.2-1.4-2.7l-0.7-0.3c0.5,0.6,0.6,1.6,0.3,2.5
		c-0.6,1.7-2.5,2.5-4.2,1.9c-1.7-0.6-2.6-2.4-2-4.1c0.3-0.9,1.1-1.5,1.8-1.7l-0.9-0.3l0.4-1.1l5.7,2.1c2,0.7,2.6,2.5,2,4.1
		c-0.6,1.6-1.9,2.5-3.2,2.2L301.7,524.4z M296.5,520.4c-0.4,1.2,0.2,2.4,1.4,2.8c1.2,0.4,2.4-0.1,2.9-1.3c0.4-1.2-0.2-2.4-1.4-2.8
		C298.2,518.7,297,519.2,296.5,520.4z"/>
</g>
<g class="st0">
	<path class="st1" d="M257.1,576.8l-8.7,2.8l6.8,2.5l-0.4,1.1l-8.7-3.2l0.4-1l8.7-2.8l-6.8-2.5l0.4-1.1l8.7,3.2L257.1,576.8z"/>
	<path class="st1" d="M259.3,571.2c-0.6,1.8-2.5,2.6-4.3,1.9c-1.8-0.6-2.7-2.4-2-4.3c0.7-1.9,2.7-2.5,4.5-1.7l-1.8,5
		c1.1,0.4,2.3-0.2,2.7-1.3c0.3-0.8,0.2-1.5-0.4-2.1l0.4-1.1C259.3,568.4,259.9,569.7,259.3,571.2z M254.8,571.9l1.4-3.8
		c-1.2-0.2-2,0.3-2.4,1.2C253.5,570.2,253.7,571.2,254.8,571.9z"/>
	<path class="st1" d="M253.2,563.4c-0.2,0.4-0.6,0.6-1,0.5c-0.4-0.1-0.6-0.6-0.5-1c0.2-0.4,0.6-0.6,1-0.5
		C253.2,562.5,253.4,563,253.2,563.4z M254.7,564.5l0.4-1.1l6.1,2.2l-0.4,1L254.7,564.5z"/>
	<path class="st1" d="M256.7,557l6.7,2.5l-0.4,1.1l-8.7-3.2l0.4-1l5.5-1.7l-3.2-4.8l0.4-1l8.7,3.2l-0.4,1.1l-6.7-2.5l3.1,4.7
		L256.7,557z"/>
	<path class="st1" d="M268,547.4c-0.7,1.8-2.6,2.7-4.3,2c-1.8-0.6-2.7-2.5-2-4.4c0.7-1.8,2.6-2.7,4.3-2
		C267.7,543.7,268.6,545.5,268,547.4z M267,547c0.5-1.3-0.2-2.5-1.4-2.9c-1.2-0.4-2.5,0-3,1.3c-0.5,1.3,0.2,2.5,1.4,2.9
		C265.3,548.8,266.5,548.3,267,547z"/>
	<path class="st1" d="M263.5,540.4l0.4-1.1l0.9,0.3c-0.6-0.7-0.6-1.5-0.4-2.3c0.5-1.4,1.8-2,3.3-1.4l3.8,1.4l-0.4,1l-3.6-1.3
		c-1-0.4-1.9,0-2.2,0.8c-0.4,1,0.2,2.1,1.6,2.6l3,1.1l-0.4,1L263.5,540.4z"/>
	<path class="st1" d="M273,534.9c0.9,0,1.5-0.5,1.9-1.5c0.4-1.1,0-2.2-1.4-2.7l-0.7-0.3c0.5,0.6,0.6,1.6,0.3,2.5
		c-0.6,1.7-2.5,2.5-4.2,1.9c-1.7-0.6-2.6-2.4-2-4.1c0.3-0.9,1.1-1.5,1.8-1.7l-0.9-0.3l0.4-1.1l5.7,2.1c2,0.7,2.6,2.5,2,4.1
		c-0.6,1.6-1.9,2.5-3.2,2.2L273,534.9z M267.9,530.8c-0.4,1.2,0.2,2.4,1.4,2.8c1.2,0.4,2.4-0.1,2.9-1.3c0.4-1.2-0.2-2.4-1.4-2.8
		C269.6,529.1,268.3,529.6,267.9,530.8z"/>
	<path class="st1" d="M276.1,525.1c-0.7,1.8-2.6,2.7-4.3,2c-1.8-0.6-2.7-2.5-2-4.4c0.7-1.8,2.6-2.7,4.3-2
		C275.8,521.4,276.8,523.3,276.1,525.1z M275.1,524.7c0.5-1.3-0.2-2.5-1.4-2.9c-1.2-0.4-2.5,0-3,1.3c-0.5,1.3,0.2,2.5,1.4,2.9
		C273.4,526.5,274.6,526,275.1,524.7z"/>
	<path class="st1" d="M268.5,517l0.4-1l9.2,3.3l-0.4,1.1L268.5,517z"/>
</g>
<g class="st0">
	<path class="st1" d="M228.5,574.7c1,0.3,1.8-0.5,2.1-1.4c0.3-0.9,0.1-1.8-0.7-2.1c-0.7-0.2-1.3,0-1.9,0.7l-0.9,1
		c-1,1.2-1.9,1.5-3.2,1.1c-1.4-0.5-1.9-2-1.3-3.5c0.6-1.8,2.2-2.2,3.3-1.9l-0.4,1.1c-1-0.1-1.6,0.5-1.9,1.2
		c-0.3,0.8-0.1,1.6,0.6,1.9c0.7,0.3,1.2,0,1.9-0.7l0.8-1c1-1.1,2-1.6,3.3-1.2c1.5,0.5,2,2,1.4,3.6c-0.7,1.8-2.2,2.5-3.6,2.1
		L228.5,574.7z"/>
	<path class="st1" d="M223.9,566l0.4-1.1l4,1.5c-0.6-0.7-0.6-1.5-0.4-2.3c0.5-1.4,1.8-2,3.3-1.4l3.8,1.4l-0.4,1l-3.6-1.3
		c-1-0.4-1.9,0-2.2,0.8c-0.4,1,0.2,2.1,1.6,2.6l3,1.1l-0.4,1L223.9,566z"/>
	<path class="st1" d="M230.4,557.4c0.3-0.9,1.1-1.6,1.8-1.8l-0.9-0.3l0.4-1.1l6.1,2.2l-0.4,1.1l-0.9-0.3c0.4,0.6,0.6,1.6,0.3,2.5
		c-0.6,1.7-2.5,2.5-4.3,1.8C230.7,560.9,229.8,559.1,230.4,557.4z M231.4,557.6c-0.4,1.2,0.2,2.4,1.5,2.9s2.5,0,3-1.3
		s-0.2-2.4-1.5-2.9C233.1,555.9,231.9,556.3,231.4,557.6z"/>
	<path class="st1" d="M232.4,552.2l0.4-1l0.9,0.3c-0.6-0.7-0.6-1.5-0.4-2.3c0.5-1.4,1.8-2,3.3-1.4l3.8,1.4l-0.4,1l-3.6-1.3
		c-1-0.4-1.9,0-2.2,0.8c-0.4,1,0.2,2.1,1.6,2.6l3,1.1l-0.4,1.1L232.4,552.2z"/>
	<path class="st1" d="M235.8,542.5c0.3-0.9,1.1-1.6,1.8-1.8l-4-1.5l0.4-1.1l9.2,3.3l-0.4,1.1l-0.9-0.3c0.4,0.6,0.6,1.6,0.3,2.5
		c-0.6,1.7-2.5,2.5-4.3,1.8C236.1,546,235.2,544.2,235.8,542.5z M236.8,542.7c-0.4,1.2,0.2,2.4,1.5,2.9c1.2,0.4,2.5-0.1,3-1.3
		c0.4-1.2-0.2-2.4-1.5-2.9C238.6,541,237.3,541.5,236.8,542.7z"/>
	<path class="st1" d="M245,536.9c-0.7,1.8-2.6,2.7-4.3,2c-1.8-0.6-2.7-2.5-2-4.4c0.7-1.8,2.6-2.7,4.3-2
		C244.8,533.2,245.7,535.1,245,536.9z M244.1,536.6c0.5-1.3-0.2-2.5-1.4-2.9c-1.2-0.4-2.5,0-3,1.3c-0.5,1.3,0.2,2.5,1.4,2.9
		C242.3,538.3,243.6,537.8,244.1,536.6z"/>
	<path class="st1" d="M240.5,530l0.4-1l0.9,0.3c-0.6-0.7-0.6-1.5-0.4-2.3c0.5-1.4,1.8-2,3.3-1.4l3.8,1.4l-0.4,1l-3.6-1.3
		c-1-0.4-1.9,0-2.2,0.8c-0.4,1,0.2,2.1,1.6,2.6l3,1.1l-0.4,1.1L240.5,530z"/>
	<path class="st1" d="M250.1,524.4c0.9,0,1.5-0.5,1.9-1.5c0.4-1.1,0-2.2-1.4-2.7l-0.7-0.3c0.5,0.6,0.6,1.6,0.3,2.5
		c-0.6,1.7-2.5,2.5-4.2,1.9c-1.7-0.6-2.6-2.4-2-4.1c0.3-0.9,1.1-1.5,1.8-1.7l-0.9-0.3l0.4-1.1l5.7,2.1c2,0.7,2.6,2.5,2,4.1
		c-0.6,1.6-1.9,2.5-3.2,2.2L250.1,524.4z M244.9,520.4c-0.4,1.2,0.2,2.4,1.4,2.8c1.2,0.4,2.4-0.1,2.9-1.3c0.4-1.2-0.2-2.4-1.4-2.8
		C246.6,518.7,245.4,519.2,244.9,520.4z"/>
</g>
<g class="st0">
	<path class="st1" d="M198.1,563.9l0.4-1.1l7.6,2.8l1.5-4.2l1.1,0.4l-1.9,5.3L198.1,563.9z"/>
	<path class="st1" d="M201.6,557.2c-0.2,0.4-0.6,0.6-1,0.5c-0.4-0.1-0.6-0.6-0.5-1s0.6-0.6,1-0.5
		C201.5,556.3,201.7,556.8,201.6,557.2z M203,558.3l0.4-1.1l6.1,2.2l-0.4,1L203,558.3z"/>
	<path class="st1" d="M204.9,552.7c0.3-0.9,1.1-1.6,1.8-1.8l-0.9-0.3l0.4-1.1l6.1,2.2l-0.4,1.1l-0.9-0.3c0.4,0.6,0.6,1.6,0.3,2.5
		c-0.6,1.7-2.5,2.5-4.3,1.8C205.3,556.2,204.3,554.4,204.9,552.7z M206,552.9c-0.4,1.2,0.2,2.4,1.5,2.9c1.2,0.4,2.5,0,3-1.3
		c0.4-1.2-0.2-2.4-1.5-2.9C207.7,551.2,206.4,551.7,206,552.9z"/>
	<path class="st1" d="M214.2,547.2c-0.7,1.8-2.6,2.7-4.3,2c-1.8-0.6-2.7-2.5-2-4.4c0.7-1.8,2.6-2.7,4.3-2
		C213.9,543.4,214.8,545.3,214.2,547.2z M213.2,546.8c0.5-1.3-0.2-2.5-1.4-2.9c-1.2-0.4-2.5,0-3,1.3c-0.5,1.3,0.2,2.5,1.4,2.9
		C211.4,548.6,212.7,548.1,213.2,546.8z"/>
	<path class="st1" d="M209.6,540.2l0.4-1.1l0.9,0.3c-0.6-0.7-0.6-1.5-0.4-2.3c0.5-1.4,1.8-2,3.3-1.4l3.8,1.4l-0.4,1l-3.6-1.3
		c-1-0.4-1.9,0-2.2,0.8c-0.4,1,0.2,2.1,1.6,2.6l3,1.1l-0.4,1L209.6,540.2z"/>
	<path class="st1" d="M210.8,531.9c-0.2,0.4-0.6,0.6-1,0.5c-0.4-0.1-0.6-0.6-0.5-1c0.2-0.4,0.6-0.6,1-0.5
		C210.7,531,211,531.5,210.8,531.9z M212.2,533l0.4-1l6.1,2.2l-0.4,1.1L212.2,533z"/>
	<path class="st1" d="M213.4,530l0.4-1l0.9,0.3c-0.6-0.7-0.6-1.5-0.4-2.3c0.5-1.4,1.8-2,3.3-1.4l3.8,1.4l-0.4,1l-3.6-1.3
		c-1-0.4-1.9,0-2.2,0.8c-0.4,1,0.2,2.1,1.6,2.6l3,1.1l-0.4,1.1L213.4,530z"/>
	<path class="st1" d="M222.9,524.4c0.9,0,1.5-0.5,1.9-1.5c0.4-1.1,0-2.2-1.4-2.7l-0.7-0.3c0.5,0.6,0.6,1.6,0.3,2.5
		c-0.6,1.7-2.5,2.5-4.2,1.9c-1.7-0.6-2.6-2.4-2-4.1c0.3-0.9,1.1-1.5,1.8-1.7l-0.9-0.3l0.4-1.1l5.7,2.1c2,0.7,2.6,2.5,2,4.1
		c-0.6,1.6-1.9,2.5-3.2,2.2L222.9,524.4z M217.8,520.4c-0.4,1.2,0.2,2.4,1.4,2.8c1.2,0.4,2.4-0.1,2.9-1.3c0.4-1.2-0.2-2.4-1.4-2.8
		C219.5,518.7,218.2,519.2,217.8,520.4z"/>
</g>
<g class="st0">
	<path class="st1" d="M182.1,548.2l1.8-5l1.1,0.4l-1.4,3.9l2.6,1l1.1-3.1l1.1,0.4l-1.1,3.1l3.9,1.4l-0.4,1.1L182.1,548.2z"/>
	<path class="st1" d="M186.8,543.3l0.4-1.1l3.6,1.3c1,0.4,1.9,0.1,2.2-0.8c0.3-1-0.2-2-1.6-2.5l-3-1.1l0.4-1.1l6.1,2.2l-0.4,1.1
		l-0.9-0.3c0.6,0.7,0.7,1.5,0.4,2.3c-0.5,1.3-1.8,1.9-3.3,1.3L186.8,543.3z"/>
	<path class="st1" d="M188,534.9c-0.2,0.4-0.6,0.6-1,0.5c-0.4-0.1-0.6-0.6-0.5-1c0.2-0.4,0.6-0.6,1-0.5
		C188,534.1,188.2,534.5,188,534.9z M196.8,537.5c1.3,0.5,1.6,1.5,1.2,2.5c-0.1,0.2-0.1,0.4-0.2,0.5l-0.9-0.3c0-0.1,0.1-0.2,0.2-0.3
		c0.2-0.6,0.1-1-0.7-1.3l-6.8-2.5l0.4-1.1L196.8,537.5z"/>
	<path class="st1" d="M189.1,531.9c-0.2,0.4-0.6,0.6-1,0.5c-0.4-0.1-0.6-0.6-0.5-1c0.2-0.4,0.6-0.6,1-0.5
		C189.1,531,189.3,531.5,189.1,531.9z M190.6,533l0.4-1l6.1,2.2l-0.4,1.1L190.6,533z"/>
	<path class="st1" d="M192.5,527.4c0.3-0.9,1.1-1.6,1.8-1.8l-0.9-0.3l0.4-1.1l6.1,2.2l-0.4,1.1l-0.9-0.3c0.4,0.6,0.6,1.6,0.3,2.5
		c-0.6,1.7-2.5,2.5-4.3,1.8C192.8,530.9,191.9,529.1,192.5,527.4z M193.5,527.6c-0.4,1.2,0.2,2.4,1.5,2.9c1.2,0.4,2.5,0,3-1.3
		c0.4-1.2-0.2-2.4-1.5-2.9C195.2,525.9,194,526.4,193.5,527.6z"/>
	<path class="st1" d="M194.5,522.3l0.4-1.1l0.9,0.3c-0.6-0.7-0.6-1.5-0.4-2.3c0.5-1.4,1.8-2,3.3-1.4l3.8,1.4l-0.4,1l-3.6-1.3
		c-1-0.4-1.9,0-2.2,0.8c-0.4,1,0.2,2.1,1.6,2.6l3,1.1l-0.4,1L194.5,522.3z"/>
</g>
<g class="st0">
	<path class="st1" d="M145.3,579.6c0.7-2.1,2.6-3.2,4.2-3.1l-0.5,1.3c-1.1,0.1-2.2,0.9-2.7,2.3c-0.7,1.9,0.3,3.9,2.2,4.6
		s3.9-0.2,4.6-2.1c0.6-1.8-0.2-3.5-1.8-4.3l-1.2,3.2l-1.1-0.4l1.6-4.4c3.3,0.9,4.4,3.7,3.5,6.2c-0.9,2.5-3.6,3.8-6.1,2.9
		C145.7,584.8,144.4,582.1,145.3,579.6z"/>
	<path class="st1" d="M150.2,574.8l0.4-1.1l3.6,1.3c1,0.4,1.9,0.1,2.2-0.8c0.3-1-0.2-2-1.6-2.5l-3-1.1l0.4-1.1l6.1,2.2l-0.4,1.1
		l-0.9-0.3c0.6,0.7,0.7,1.5,0.4,2.3c-0.5,1.3-1.8,1.9-3.3,1.3L150.2,574.8z"/>
	<path class="st1" d="M153.6,565.1c0.3-0.9,1.1-1.6,1.8-1.8l-0.9-0.3l0.4-1.1l6.1,2.2l-0.4,1.1l-0.9-0.3c0.4,0.6,0.6,1.6,0.3,2.5
		c-0.6,1.7-2.5,2.5-4.3,1.8C153.9,568.6,152.9,566.8,153.6,565.1z M154.6,565.2c-0.4,1.2,0.2,2.4,1.5,2.9c1.2,0.4,2.5-0.1,3-1.3
		s-0.2-2.4-1.5-2.9C156.3,563.5,155,564,154.6,565.2z"/>
	<path class="st1" d="M155.6,559.9l0.4-1l0.9,0.3c-0.6-0.7-0.6-1.5-0.4-2.3c0.5-1.4,1.8-2,3.3-1.4l3.8,1.4l-0.4,1l-3.6-1.3
		c-1-0.4-1.9,0-2.2,0.8c-0.4,1,0.2,2.1,1.6,2.6l3,1.1l-0.4,1L155.6,559.9z"/>
	<path class="st1" d="M165.1,554.4c0.9,0,1.5-0.5,1.9-1.5c0.4-1.1,0-2.2-1.4-2.7l-0.7-0.3c0.5,0.6,0.6,1.6,0.3,2.5
		c-0.6,1.7-2.5,2.5-4.2,1.9c-1.7-0.6-2.6-2.4-2-4.1c0.3-0.9,1.1-1.5,1.8-1.7l-0.9-0.3l0.4-1.1l5.7,2.1c2,0.7,2.6,2.5,2,4.1
		c-0.6,1.6-1.9,2.5-3.2,2.2L165.1,554.4z M160,550.4c-0.4,1.2,0.2,2.4,1.4,2.8c1.2,0.4,2.4-0.1,2.9-1.3c0.4-1.2-0.2-2.4-1.4-2.8
		C161.7,548.6,160.4,549.1,160,550.4z"/>
	<path class="st1" d="M161.8,542.5c0.3-0.9,1.1-1.6,1.8-1.8l-4-1.5l0.4-1.1l9.2,3.3l-0.4,1.1l-0.9-0.3c0.4,0.6,0.6,1.6,0.3,2.5
		c-0.6,1.7-2.5,2.5-4.3,1.8C162.1,546,161.1,544.2,161.8,542.5z M162.8,542.7c-0.4,1.2,0.2,2.4,1.5,2.9c1.2,0.4,2.5-0.1,3-1.3
		c0.4-1.2-0.2-2.4-1.5-2.9C164.5,541,163.2,541.5,162.8,542.7z"/>
	<path class="st1" d="M171,536.9c-0.7,1.8-2.6,2.7-4.3,2c-1.8-0.6-2.7-2.5-2-4.4c0.7-1.8,2.6-2.7,4.3-2
		C170.7,533.2,171.7,535.1,171,536.9z M170,536.6c0.5-1.3-0.2-2.5-1.4-2.9c-1.2-0.4-2.5,0-3,1.3c-0.5,1.3,0.2,2.5,1.4,2.9
		C168.3,538.3,169.6,537.8,170,536.6z"/>
	<path class="st1" d="M166.5,530l0.4-1l0.9,0.3c-0.6-0.7-0.6-1.5-0.4-2.3c0.5-1.4,1.8-2,3.3-1.4l3.8,1.4l-0.4,1l-3.6-1.3
		c-1-0.4-1.9,0-2.2,0.8c-0.4,1,0.2,2.1,1.6,2.6l3,1.1l-0.4,1L166.5,530z"/>
	<path class="st1" d="M176,524.4c0.9,0,1.5-0.5,1.9-1.5c0.4-1.1,0-2.2-1.4-2.7l-0.7-0.3c0.5,0.6,0.6,1.6,0.3,2.5
		c-0.6,1.7-2.5,2.5-4.2,1.9c-1.7-0.6-2.6-2.4-2-4.1c0.3-0.9,1.1-1.5,1.8-1.7l-0.9-0.3l0.4-1.1l5.7,2.1c2,0.7,2.6,2.5,2,4.1
		c-0.6,1.6-1.9,2.5-3.2,2.2L176,524.4z M170.9,520.4c-0.4,1.2,0.2,2.4,1.4,2.8c1.2,0.4,2.4-0.1,2.9-1.3c0.4-1.2-0.2-2.4-1.4-2.8
		C172.6,518.7,171.3,519.2,170.9,520.4z"/>
</g>
<g class="st0">
	<path class="st1" d="M139.8,560.3c-0.5,1.4-1.8,2.3-3.4,1.7l0.4-1.1c0.9,0.3,1.7-0.2,1.9-0.9s0.1-1.6-1.1-2l-6.2-2.2l0.4-1.1
		l6.3,2.3C140,557.5,140.3,558.9,139.8,560.3z"/>
	<path class="st1" d="M133.8,552.3c-0.2,0.4-0.6,0.6-1,0.5c-0.4-0.1-0.6-0.6-0.5-1c0.2-0.4,0.6-0.6,1-0.5
		C133.7,551.5,133.9,551.9,133.8,552.3z M135.2,553.5l0.4-1l6.1,2.2l-0.4,1.1L135.2,553.5z"/>
	<path class="st1" d="M137.1,547.9c0.3-0.9,1.1-1.6,1.8-1.8l-0.9-0.3l0.4-1.1l6.1,2.2l-0.4,1.1l-0.9-0.3c0.4,0.6,0.6,1.6,0.3,2.5
		c-0.6,1.7-2.5,2.5-4.3,1.8S136.5,549.6,137.1,547.9z M138.1,548.1c-0.4,1.2,0.2,2.4,1.5,2.9c1.2,0.4,2.5-0.1,3-1.3
		s-0.2-2.4-1.5-2.9C139.9,546.3,138.6,546.8,138.1,548.1z"/>
	<path class="st1" d="M139.1,542.7l0.4-1.1l0.9,0.3c-0.6-0.7-0.6-1.5-0.4-2.3c0.5-1.4,1.8-2,3.3-1.4l3.8,1.4l-0.4,1l-3.6-1.3
		c-1-0.4-1.9,0-2.2,0.8c-0.4,1,0.2,2.1,1.6,2.6l3,1.1l-0.4,1L139.1,542.7z"/>
	<path class="st1" d="M148.7,537.2c0.9,0,1.5-0.5,1.9-1.5c0.4-1.1,0-2.2-1.4-2.7l-0.7-0.3c0.5,0.6,0.6,1.6,0.3,2.5
		c-0.6,1.7-2.5,2.5-4.2,1.9c-1.7-0.6-2.6-2.4-2-4.1c0.3-0.9,1.1-1.5,1.8-1.7l-0.9-0.3l0.4-1.1l5.7,2.1c2,0.7,2.6,2.5,2,4.1
		c-0.6,1.6-1.9,2.5-3.2,2.2L148.7,537.2z M143.6,533.2c-0.4,1.2,0.2,2.4,1.4,2.8c1.2,0.4,2.4-0.1,2.9-1.3c0.4-1.2-0.2-2.4-1.4-2.8
		C145.2,531.5,144,532,143.6,533.2z"/>
	<path class="st1" d="M151.5,528.2c-0.5,1.3-1.5,2.2-2.8,1.8l0.4-1.1c0.8,0.1,1.3-0.4,1.5-1.1c0.2-0.7,0.2-1.3-0.4-1.5
		c-0.5-0.2-0.9,0-1.3,0.7l-0.6,0.8c-0.7,1-1.5,1.2-2.4,0.9c-1-0.4-1.3-1.5-0.9-2.7c0.5-1.3,1.5-1.8,2.6-1.6l-0.4,1.1
		c-0.6,0-1.1,0.3-1.3,0.9c-0.2,0.6-0.1,1.2,0.4,1.3c0.5,0.2,0.8,0,1.2-0.6l0.6-0.9c0.6-0.9,1.5-1.2,2.4-0.9
		C151.7,525.7,151.9,526.9,151.5,528.2z"/>
	<path class="st1" d="M146.6,522.2l0.4-1.1l3.6,1.3c1,0.4,1.9,0.1,2.2-0.8c0.3-1-0.2-2-1.6-2.5l-3-1.1l0.4-1.1l6.1,2.2l-0.4,1
		l-0.9-0.3c0.6,0.7,0.7,1.5,0.4,2.3c-0.5,1.3-1.8,1.9-3.3,1.3L146.6,522.2z"/>
</g>
<g class="st0">
	<path class="st1" d="M107.9,550.8l-1,2.7l-1.1-0.4l2.4-6.5l1.1,0.4l-1,2.7l7.6,2.8l-0.4,1.1L107.9,550.8z"/>
	<path class="st1" d="M109.7,545.3c-0.2,0.4-0.6,0.6-1,0.5c-0.4-0.1-0.6-0.6-0.5-1c0.2-0.4,0.6-0.6,1-0.5
		C109.7,544.4,109.9,544.9,109.7,545.3z M111.2,546.4l0.4-1.1l6.1,2.2l-0.4,1L111.2,546.4z"/>
	<path class="st1" d="M113.1,540.8c0.3-0.9,1.1-1.6,1.8-1.8l-0.9-0.3l0.4-1.1l6.1,2.2l-0.4,1.1l-0.9-0.3c0.4,0.6,0.6,1.6,0.3,2.5
		c-0.6,1.7-2.5,2.5-4.3,1.8C113.4,544.3,112.5,542.5,113.1,540.8z M114.1,541c-0.4,1.2,0.2,2.4,1.5,2.9c1.2,0.4,2.5-0.1,3-1.3
		c0.4-1.2-0.2-2.4-1.5-2.9C115.8,539.3,114.5,539.8,114.1,541z"/>
	<path class="st1" d="M115.1,535.7l0.4-1l0.9,0.3c-0.6-0.7-0.6-1.5-0.4-2.3c0.5-1.4,1.8-2,3.3-1.4l3.8,1.4l-0.4,1l-3.6-1.3
		c-1-0.4-1.9,0-2.2,0.8c-0.4,1,0.2,2.1,1.6,2.6l3,1.1l-0.4,1.1L115.1,535.7z"/>
	<path class="st1" d="M116.3,527.2c-0.2,0.4-0.6,0.6-1,0.5c-0.4-0.1-0.6-0.6-0.5-1c0.2-0.4,0.6-0.6,1-0.5
		C116.2,526.4,116.4,526.8,116.3,527.2z M125,529.8c1.3,0.5,1.6,1.5,1.2,2.5c-0.1,0.2-0.1,0.3-0.2,0.5l-0.9-0.3
		c0-0.1,0.1-0.2,0.2-0.3c0.2-0.6,0.1-1-0.7-1.3l-6.8-2.5l0.4-1L125,529.8z"/>
	<path class="st1" d="M117.4,524.2c-0.2,0.4-0.6,0.6-1,0.5c-0.4-0.1-0.6-0.6-0.5-1s0.6-0.6,1-0.5
		C117.3,523.3,117.6,523.8,117.4,524.2z M118.8,525.3l0.4-1.1l6.1,2.2l-0.4,1L118.8,525.3z"/>
	<path class="st1" d="M119.9,522.3l0.4-1l0.9,0.3c-0.6-0.7-0.6-1.5-0.4-2.3c0.5-1.4,1.8-2,3.3-1.4l3.8,1.4l-0.4,1l-3.6-1.3
		c-1-0.4-1.9,0-2.2,0.8c-0.4,1,0.2,2.1,1.6,2.6l3,1.1l-0.4,1.1L119.9,522.3z"/>
</g>
<g class="st0">
	<path class="st1" d="M86,567.8l-5.1-7.2l-1.7,4.6l-1.1-0.4l2.2-6.1l0.8,0.3l5.1,7.2l1.8-4.8l1.1,0.4l-2.3,6.3L86,567.8z"/>
	<path class="st1" d="M80.4,557l0.4-1.1l4,1.5c-0.6-0.7-0.6-1.5-0.4-2.3c0.5-1.4,1.8-2,3.3-1.4l3.8,1.4l-0.4,1l-3.6-1.3
		c-1-0.4-1.9,0-2.2,0.8c-0.4,1,0.2,2.1,1.6,2.6l3,1.1l-0.4,1L80.4,557z"/>
	<path class="st1" d="M93.3,550.6c-0.6,1.8-2.5,2.6-4.3,1.9c-1.8-0.6-2.7-2.4-2-4.3c0.7-1.9,2.7-2.5,4.5-1.7l-1.8,5
		c1.1,0.4,2.3-0.2,2.7-1.3c0.3-0.8,0.2-1.5-0.4-2.1l0.4-1.1C93.3,547.7,93.8,549,93.3,550.6z M88.8,551.2l1.4-3.8
		c-1.2-0.2-2,0.3-2.4,1.2C87.5,549.5,87.7,550.5,88.8,551.2z"/>
	<path class="st1" d="M87.3,542.6c-0.2,0.4-0.6,0.6-1,0.5c-0.4-0.1-0.6-0.6-0.5-1c0.2-0.4,0.6-0.6,1-0.5
		C87.2,541.8,87.4,542.2,87.3,542.6z M96,545.2c1.3,0.5,1.6,1.5,1.2,2.5c-0.1,0.2-0.1,0.4-0.2,0.5l-0.9-0.3c0-0.1,0.1-0.2,0.2-0.3
		c0.2-0.6,0.1-1-0.7-1.3l-6.8-2.5l0.4-1L96,545.2z"/>
	<path class="st1" d="M88.4,539.6c-0.2,0.4-0.6,0.6-1,0.5c-0.4-0.1-0.6-0.6-0.5-1s0.6-0.6,1-0.5C88.3,538.7,88.5,539.1,88.4,539.6z
		 M89.8,540.7l0.4-1.1l6.1,2.2l-0.4,1L89.8,540.7z"/>
	<path class="st1" d="M91.7,535.1c0.3-0.9,1.1-1.6,1.8-1.8l-0.9-0.3l0.4-1.1l6.1,2.2l-0.4,1.1l-0.9-0.3c0.4,0.6,0.6,1.6,0.3,2.5
		c-0.6,1.7-2.5,2.5-4.3,1.8C92,538.6,91.1,536.8,91.7,535.1z M92.7,535.3c-0.4,1.2,0.2,2.4,1.5,2.9c1.2,0.4,2.5,0,3-1.3
		s-0.2-2.4-1.5-2.9S93.2,534.1,92.7,535.3z"/>
	<path class="st1" d="M93.7,530l0.4-1l0.9,0.3c-0.6-0.7-0.6-1.5-0.4-2.3c0.5-1.4,1.8-2,3.3-1.4l3.8,1.4l-0.4,1l-3.6-1.3
		c-1-0.4-1.9,0-2.2,0.8c-0.4,1,0.2,2.1,1.6,2.6l3,1.1l-0.4,1.1L93.7,530z"/>
	<path class="st1" d="M103.3,524.4c0.9,0,1.5-0.5,1.9-1.5c0.4-1.1,0-2.2-1.4-2.7l-0.7-0.3c0.5,0.6,0.6,1.6,0.3,2.5
		c-0.6,1.7-2.5,2.5-4.2,1.9c-1.7-0.6-2.6-2.4-2-4.1c0.3-0.9,1.1-1.5,1.8-1.7l-0.9-0.3l0.4-1.1l5.7,2.1c2,0.7,2.6,2.5,2,4.1
		c-0.6,1.6-1.9,2.5-3.2,2.2L103.3,524.4z M98.1,520.4c-0.4,1.2,0.2,2.4,1.4,2.8c1.2,0.4,2.4-0.1,2.9-1.3c0.4-1.2-0.2-2.4-1.4-2.8
		C99.8,518.7,98.6,519.2,98.1,520.4z"/>
</g>
<g class="st0">
	<path class="st1" d="M55.8,552.8l1-2.8c0.6-1.6,2-2.2,3.2-1.8c0.9,0.3,1.3,0.9,1.4,1.6c0.6-0.7,1.5-1.2,2.6-0.7
		c1.4,0.5,2.1,2.1,1.5,3.8l-1.1,3.1L55.8,552.8z M60.6,551.4c0.3-0.9,0-1.7-0.8-2c-0.7-0.3-1.6,0.1-1.9,1l-0.6,1.7l2.7,1L60.6,551.4
		z M64.6,552.5c0.4-1.2,0-2-0.8-2.3c-0.8-0.3-1.7,0-2.1,1.2l-0.7,2l2.9,1.1L64.6,552.5z"/>
	<path class="st1" d="M68.3,545.9c-0.6,1.8-2.5,2.6-4.3,1.9c-1.8-0.6-2.7-2.4-2-4.3c0.7-1.9,2.7-2.5,4.5-1.7l-1.8,5
		c1.1,0.4,2.3-0.2,2.7-1.3c0.3-0.8,0.2-1.5-0.4-2.1l0.4-1.1C68.3,543,68.8,544.4,68.3,545.9z M63.8,546.5l1.4-3.8
		c-1.2-0.2-2,0.3-2.4,1.2C62.5,544.8,62.7,545.9,63.8,546.5z"/>
	<path class="st1" d="M62.2,538c-0.2,0.4-0.6,0.6-1,0.5c-0.4-0.1-0.6-0.6-0.5-1c0.2-0.4,0.6-0.6,1-0.5
		C62.2,537.2,62.4,537.6,62.2,538z M63.7,539.2l0.4-1.1l6.1,2.2l-0.4,1L63.7,539.2z"/>
	<path class="st1" d="M63.4,534.9c-0.2,0.4-0.6,0.6-1,0.5c-0.4-0.1-0.6-0.6-0.5-1c0.2-0.4,0.6-0.6,1-0.5
		C63.3,534.1,63.5,534.5,63.4,534.9z M72.1,537.5c1.3,0.5,1.6,1.5,1.2,2.5c-0.1,0.2-0.1,0.3-0.2,0.5l-0.9-0.3c0-0.1,0.1-0.2,0.2-0.3
		c0.2-0.6,0.1-1-0.7-1.3l-6.8-2.5l0.4-1L72.1,537.5z"/>
	<path class="st1" d="M64.5,531.9c-0.2,0.4-0.6,0.6-1,0.5c-0.4-0.1-0.6-0.6-0.5-1s0.6-0.6,1-0.5C64.4,531,64.6,531.5,64.5,531.9z
		 M65.9,533l0.4-1.1l6.1,2.2l-0.4,1L65.9,533z"/>
	<path class="st1" d="M67,530l0.4-1l0.9,0.3c-0.6-0.7-0.6-1.5-0.4-2.3c0.5-1.4,1.8-2,3.3-1.4l3.8,1.4l-0.4,1l-3.6-1.3
		c-1-0.4-1.9,0-2.2,0.8c-0.4,1,0.2,2.1,1.6,2.6l3,1.1l-0.4,1L67,530z"/>
	<path class="st1" d="M76.6,524.4c0.9,0,1.5-0.5,1.9-1.5c0.4-1.1,0-2.2-1.4-2.7l-0.7-0.3c0.5,0.6,0.6,1.6,0.3,2.5
		c-0.6,1.7-2.5,2.5-4.2,1.9c-1.7-0.6-2.6-2.4-2-4.1c0.3-0.9,1.1-1.5,1.8-1.7l-0.9-0.3l0.4-1.1l5.7,2.1c2,0.7,2.6,2.5,2,4.1
		c-0.6,1.6-1.9,2.5-3.2,2.2L76.6,524.4z M71.5,520.4c-0.4,1.2,0.2,2.4,1.4,2.8c1.2,0.4,2.4-0.1,2.9-1.3c0.4-1.2-0.2-2.4-1.4-2.8
		C73.1,518.7,71.9,519.2,71.5,520.4z"/>
</g>
<g class="st0">
	<path class="st1" d="M28,570.3c1,0.3,1.8-0.5,2.1-1.4c0.3-0.9,0.1-1.8-0.7-2.1c-0.7-0.2-1.3,0-1.9,0.7l-0.9,1
		c-1,1.2-1.9,1.5-3.2,1.1c-1.4-0.5-1.9-2-1.3-3.5c0.6-1.8,2.2-2.2,3.3-1.9l-0.4,1.1c-1-0.1-1.6,0.5-1.9,1.2
		c-0.3,0.8-0.1,1.6,0.6,1.9c0.7,0.3,1.2,0,1.9-0.7l0.8-1c1-1.1,2-1.6,3.3-1.2c1.5,0.5,2,2,1.4,3.6c-0.7,1.8-2.2,2.5-3.6,2.1
		L28,570.3z"/>
	<path class="st1" d="M23.4,561.7l0.4-1.1l4,1.5c-0.6-0.7-0.6-1.5-0.4-2.3c0.5-1.4,1.8-2,3.3-1.4l3.8,1.4l-0.4,1l-3.6-1.3
		c-1-0.4-1.9,0-2.2,0.8c-0.4,1,0.2,2.1,1.6,2.6l3,1.1l-0.4,1L23.4,561.7z"/>
	<path class="st1" d="M29.9,553c0.3-0.9,1.1-1.6,1.8-1.8l-0.9-0.3l0.4-1.1l6.1,2.2l-0.4,1.1l-0.9-0.3c0.4,0.6,0.6,1.6,0.3,2.5
		c-0.6,1.7-2.5,2.5-4.3,1.8C30.2,556.5,29.2,554.7,29.9,553z M30.9,553.2c-0.4,1.2,0.2,2.4,1.5,2.9s2.5,0,3-1.3s-0.2-2.4-1.5-2.9
		C32.6,551.5,31.3,552,30.9,553.2z"/>
	<path class="st1" d="M31.9,547.9l0.4-1l0.9,0.3c-0.6-0.7-0.6-1.5-0.4-2.3c0.5-1.4,1.8-2,3.3-1.4l3.8,1.4l-0.4,1l-3.6-1.3
		c-1-0.4-1.9,0-2.2,0.8c-0.4,1,0.2,2.1,1.6,2.6l3,1.1l-0.4,1.1L31.9,547.9z"/>
	<path class="st1" d="M41.4,542.4c0.9,0,1.5-0.5,1.9-1.5c0.4-1.1,0-2.2-1.4-2.7l-0.7-0.3c0.5,0.6,0.6,1.6,0.3,2.5
		c-0.6,1.7-2.5,2.5-4.2,1.9c-1.7-0.6-2.6-2.4-2-4.1c0.3-0.9,1.1-1.5,1.8-1.7l-0.9-0.3l0.4-1.1l5.7,2.1c2,0.7,2.6,2.5,2,4.1
		c-0.6,1.6-1.9,2.5-3.2,2.2L41.4,542.4z M36.3,538.3c-0.4,1.2,0.2,2.4,1.4,2.8c1.2,0.4,2.4-0.1,2.9-1.3c0.4-1.2-0.2-2.4-1.4-2.8
		C38,536.6,36.8,537.1,36.3,538.3z"/>
	<path class="st1" d="M34.2,531.9l0.4-1l4,1.5c-0.6-0.7-0.6-1.5-0.4-2.3c0.5-1.4,1.8-2,3.3-1.4l3.8,1.4l-0.4,1l-3.6-1.3
		c-1-0.4-1.9,0-2.2,0.8c-0.4,1,0.2,2.1,1.6,2.6l3,1.1l-0.4,1L34.2,531.9z"/>
	<path class="st1" d="M40.7,523.3c0.3-0.9,1.1-1.6,1.8-1.8l-0.9-0.3l0.4-1.1l6.1,2.2l-0.4,1.1l-0.9-0.3c0.4,0.6,0.6,1.6,0.3,2.5
		c-0.6,1.7-2.5,2.5-4.3,1.8C41,526.8,40.1,525,40.7,523.3z M41.7,523.5c-0.4,1.2,0.2,2.4,1.5,2.9c1.2,0.4,2.5,0,3-1.3
		c0.4-1.2-0.2-2.4-1.5-2.9C43.5,521.7,42.2,522.2,41.7,523.5z"/>
	<path class="st1" d="M41.3,517c-0.2,0.4-0.6,0.6-1,0.5c-0.4-0.1-0.6-0.6-0.5-1c0.2-0.4,0.6-0.6,1-0.5
		C41.2,516.1,41.4,516.6,41.3,517z M42.7,518.1l0.4-1.1l6.1,2.2l-0.4,1L42.7,518.1z"/>
</g>
<g>
	<text transform="matrix(1 0 0 1 19.3973 421.9255)" class="st1 st2 st3">5</text>
</g>
<g>
	<text transform="matrix(1 0 0 1 19.3973 317.6785)" class="st1 st2 st3">10</text>
</g>
<g>
	<text transform="matrix(1 0 0 1 19.3973 211.7234)" class="st1 st2 st3">15</text>
</g>
<g>
	<text transform="matrix(1 0 0 1 19.3973 105.4691)" class="st1 st2 st3">20</text>
</g>
<g class="st0">
	<path class="st1" d="M13.9,15.3H9.8v-2.2h10.6v2.2h-4.1v12h-2.3V15.3z"/>
	<path class="st1" d="M22.1,12.3h2.2v6.4c0.6-1,1.7-1.6,3-1.6c2.3,0,3.8,1.6,3.8,4.2v6h-2.2v-5.7c0-1.6-0.8-2.5-2.1-2.5
		c-1.5,0-2.6,1.1-2.6,3.3v4.9h-2.2V12.3z"/>
	<path class="st1" d="M38.4,27.5c-3,0-5.1-2.2-5.1-5.2c0-3,2.1-5.2,5.1-5.2c3.1,0,5.2,2.3,5,5.7h-8c0.1,1.5,1.2,2.7,3,2.7
		c1.1,0,2.1-0.4,2.5-1.4h2.3C42.7,26,40.9,27.5,38.4,27.5z M35.5,21.3H41c-0.3-1.6-1.5-2.3-2.7-2.3C36.9,18.9,35.8,19.7,35.5,21.3z"
		/>
	<path class="st1" d="M54.4,17.1c1.4,0,2.6,0.7,3.2,1.5v-1.3h2.2v10h-2.2v-1.3c-0.6,0.8-1.8,1.5-3.2,1.5c-2.7,0-4.8-2.3-4.8-5.2
		S51.7,17.1,54.4,17.1z M54.8,19.1c-1.8,0-3,1.4-3,3.2c0,1.8,1.2,3.2,3,3.2c1.8,0,3-1.4,3-3.2C57.8,20.5,56.6,19.1,54.8,19.1z"/>
	<path class="st1" d="M62.8,17.3H65v1.4c0.6-0.9,1.6-1.6,2.8-1.6c1.5,0,2.6,0.7,3.1,2c0.6-1.3,1.9-2,3.2-2c2.3,0,3.6,1.7,3.6,4.2v6
		h-2.2v-5.6c0-1.6-0.6-2.6-1.8-2.6c-1.4,0-2.4,1.2-2.4,3.3v4.9h-2.2v-5.6c0-1.6-0.6-2.6-1.8-2.6c-1.4,0-2.4,1.2-2.4,3.3v4.9h-2.2
		V17.3z"/>
	<path class="st1" d="M85.1,27.5c-3,0-5.2-2.3-5.2-5.2s2.3-5.2,5.2-5.2c3,0,5.2,2.3,5.2,5.2S88.1,27.5,85.1,27.5z M85.1,25.4
		c1.8,0,3-1.4,3-3.2s-1.2-3.2-3-3.2c-1.8,0-3,1.4-3,3.2S83.3,25.4,85.1,25.4z"/>
	<path class="st1" d="M92.4,17.3h2.2v5.6c0,1.6,0.7,2.6,2,2.6c1.4,0,2.4-1.1,2.4-3.3v-4.9h2.2v10h-2.2v-1.4c-0.6,1-1.6,1.6-2.9,1.6
		c-2.3,0-3.7-1.7-3.7-4.2V17.3z"/>
	<path class="st1" d="M104.2,17.3h2.2v1.4c0.6-1,1.7-1.6,3-1.6c2.3,0,3.8,1.6,3.8,4.2v6h-2.2v-5.7c0-1.6-0.8-2.5-2.1-2.5
		c-1.5,0-2.6,1.1-2.6,3.3v4.9h-2.2V17.3z"/>
	<path class="st1" d="M120.3,27.4c-1.9,0-3.4-1.1-3.4-3.3v-4.8h-2.1v-2h2.1v-2.8h2.2v2.8h2.9v2h-2.9v4.5c0,1.2,0.5,1.7,1.7,1.7
		c0.4,0,0.9-0.1,1.2-0.2v2C121.5,27.3,121,27.4,120.3,27.4z"/>
	<path class="st1" d="M133.3,27.5c-3,0-5.2-2.3-5.2-5.2s2.3-5.2,5.2-5.2c3,0,5.2,2.3,5.2,5.2S136.2,27.5,133.3,27.5z M133.3,25.4
		c1.8,0,3-1.4,3-3.2s-1.2-3.2-3-3.2c-1.8,0-3,1.4-3,3.2S131.5,25.4,133.3,25.4z"/>
	<path class="st1" d="M141.5,19.2h-2.1v-2h2.1v-1.7c0-2.2,1.5-3.4,3.4-3.4c0.7,0,1.2,0.1,1.6,0.2v2c-0.3-0.1-0.8-0.2-1.2-0.2
		c-1.1,0-1.7,0.5-1.7,1.7v1.4h2.9v2h-2.9v8h-2.2V19.2z"/>
	<path class="st1" d="M157,27.5c-3,0-5.2-2.3-5.2-5.2s2.2-5.2,5.2-5.2c2.6,0,4.5,1.6,5.1,3.9h-2.3c-0.4-1.1-1.4-1.9-2.8-1.9
		c-1.8,0-3,1.3-3,3.2s1.2,3.2,3,3.2c1.4,0,2.4-0.8,2.8-1.9h2.3C161.6,25.8,159.7,27.5,157,27.5z"/>
	<path class="st1" d="M164.2,12.3h2.2v6.4c0.6-1,1.7-1.6,3-1.6c2.3,0,3.8,1.6,3.8,4.2v6H171v-5.7c0-1.6-0.8-2.5-2.1-2.5
		c-1.5,0-2.6,1.1-2.6,3.3v4.9h-2.2V12.3z"/>
	<path class="st1" d="M177.2,15.1c-0.8,0-1.5-0.7-1.5-1.5c0-0.8,0.7-1.5,1.5-1.5c0.8,0,1.5,0.7,1.5,1.5
		C178.6,14.4,178,15.1,177.2,15.1z M176.1,17.3h2.2v10h-2.2V17.3z"/>
	<path class="st1" d="M181.2,12.3h2.2v15h-2.2V12.3z"/>
	<path class="st1" d="M190.5,17.1c1.4,0,2.6,0.7,3.2,1.5v-6.3h2.2v15h-2.2v-1.3c-0.6,0.8-1.8,1.5-3.2,1.5c-2.7,0-4.8-2.3-4.8-5.2
		S187.7,17.1,190.5,17.1z M190.9,19.1c-1.8,0-3,1.4-3,3.2c0,1.8,1.2,3.2,3,3.2c1.8,0,3-1.4,3-3.2C193.9,20.5,192.7,19.1,190.9,19.1z
		"/>
	<path class="st1" d="M198.9,17.3h2.2v1.8c0.4-1.1,1.5-1.9,2.6-1.9c0.3,0,0.6,0,0.9,0.1v2.3c-0.4-0.1-0.7-0.2-1.1-0.2
		c-1.3,0-2.4,1.1-2.4,3.1v4.9h-2.2V17.3z"/>
	<path class="st1" d="M210.5,27.5c-3,0-5.1-2.2-5.1-5.2c0-3,2.1-5.2,5.1-5.2c3.1,0,5.2,2.3,5,5.7h-8c0.1,1.5,1.2,2.7,3,2.7
		c1.1,0,2.1-0.4,2.5-1.4h2.3C214.9,26,213.1,27.5,210.5,27.5z M207.7,21.3h5.5c-0.3-1.6-1.5-2.3-2.7-2.3
		C209.1,18.9,208,19.7,207.7,21.3z"/>
	<path class="st1" d="M217.8,17.3h2.2v1.4c0.6-1,1.7-1.6,3-1.6c2.3,0,3.8,1.6,3.8,4.2v6h-2.2v-5.7c0-1.6-0.8-2.5-2.1-2.5
		c-1.5,0-2.6,1.1-2.6,3.3v4.9h-2.2V17.3z"/>
	<path class="st1" d="M240.2,13.1h2l-7.7,16.4h-2L240.2,13.1z"/>
	<path class="st1" d="M252,27.4c-1.9,0-3.4-1.1-3.4-3.3v-4.8h-2.1v-2h2.1v-2.8h2.2v2.8h2.9v2h-2.9v4.5c0,1.2,0.5,1.7,1.7,1.7
		c0.4,0,0.9-0.1,1.2-0.2v2C253.2,27.3,252.6,27.4,252,27.4z"/>
	<path class="st1" d="M255.7,12.3h2.2v6.4c0.6-1,1.7-1.6,3-1.6c2.3,0,3.8,1.6,3.8,4.2v6h-2.2v-5.7c0-1.6-0.8-2.5-2.1-2.5
		c-1.5,0-2.6,1.1-2.6,3.3v4.9h-2.2V12.3z"/>
	<path class="st1" d="M272,27.5c-3,0-5.1-2.2-5.1-5.2c0-3,2.1-5.2,5.1-5.2c3.1,0,5.2,2.3,5,5.7h-8c0.1,1.5,1.2,2.7,3,2.7
		c1.1,0,2.1-0.4,2.5-1.4h2.3C276.3,26,274.5,27.5,272,27.5z M269.1,21.3h5.5c-0.3-1.6-1.5-2.3-2.7-2.3
		C270.6,18.9,269.4,19.7,269.1,21.3z"/>
	<path class="st1" d="M288.1,17.1c1.4,0,2.6,0.7,3.2,1.5v-1.3h2.2v10h-2.2v-1.3c-0.6,0.8-1.8,1.5-3.2,1.5c-2.7,0-4.8-2.3-4.8-5.2
		S285.3,17.1,288.1,17.1z M288.5,19.1c-1.8,0-3,1.4-3,3.2c0,1.8,1.2,3.2,3,3.2c1.8,0,3-1.4,3-3.2C291.4,20.5,290.2,19.1,288.5,19.1z
		"/>
	<path class="st1" d="M296.4,17.3h2.2v1.4c0.6-0.9,1.6-1.6,2.8-1.6c1.5,0,2.6,0.7,3.1,2c0.6-1.3,1.9-2,3.2-2c2.3,0,3.6,1.7,3.6,4.2
		v6h-2.2v-5.6c0-1.6-0.6-2.6-1.8-2.6c-1.4,0-2.4,1.2-2.4,3.3v4.9h-2.2v-5.6c0-1.6-0.6-2.6-1.8-2.6c-1.4,0-2.4,1.2-2.4,3.3v4.9h-2.2
		V17.3z"/>
	<path class="st1" d="M318.7,27.5c-3,0-5.2-2.3-5.2-5.2s2.3-5.2,5.2-5.2c3,0,5.2,2.3,5.2,5.2S321.7,27.5,318.7,27.5z M318.7,25.4
		c1.8,0,3-1.4,3-3.2s-1.2-3.2-3-3.2c-1.8,0-3,1.4-3,3.2S316.9,25.4,318.7,25.4z"/>
	<path class="st1" d="M326,17.3h2.2v5.6c0,1.6,0.7,2.6,2,2.6c1.4,0,2.4-1.1,2.4-3.3v-4.9h2.2v10h-2.2v-1.4c-0.6,1-1.6,1.6-2.9,1.6
		c-2.3,0-3.7-1.7-3.7-4.2V17.3z"/>
	<path class="st1" d="M337.8,17.3h2.2v1.4c0.6-1,1.7-1.6,3-1.6c2.3,0,3.8,1.6,3.8,4.2v6h-2.2v-5.7c0-1.6-0.8-2.5-2.1-2.5
		c-1.5,0-2.6,1.1-2.6,3.3v4.9h-2.2V17.3z"/>
	<path class="st1" d="M353.9,27.4c-1.9,0-3.4-1.1-3.4-3.3v-4.8h-2.1v-2h2.1v-2.8h2.2v2.8h2.9v2h-2.9v4.5c0,1.2,0.5,1.7,1.7,1.7
		c0.4,0,0.9-0.1,1.2-0.2v2C355.1,27.3,354.6,27.4,353.9,27.4z"/>
	<path class="st1" d="M366.9,27.5c-3,0-5.2-2.3-5.2-5.2s2.3-5.2,5.2-5.2c3,0,5.2,2.3,5.2,5.2S369.8,27.5,366.9,27.5z M366.9,25.4
		c1.8,0,3-1.4,3-3.2s-1.2-3.2-3-3.2c-1.8,0-3,1.4-3,3.2S365.1,25.4,366.9,25.4z"/>
	<path class="st1" d="M375.1,19.2H373v-2h2.1v-1.7c0-2.2,1.5-3.4,3.4-3.4c0.7,0,1.2,0.1,1.6,0.2v2c-0.3-0.1-0.8-0.2-1.2-0.2
		c-1.1,0-1.7,0.5-1.7,1.7v1.4h2.9v2h-2.9v8h-2.2V19.2z"/>
	<path class="st1" d="M390.1,27.4c-1.9,0-3.4-1.1-3.4-3.3v-4.8h-2.1v-2h2.1v-2.8h2.2v2.8h2.9v2h-2.9v4.5c0,1.2,0.5,1.7,1.7,1.7
		c0.4,0,0.9-0.1,1.2-0.2v2C391.3,27.3,390.8,27.4,390.1,27.4z"/>
	<path class="st1" d="M398.1,27.5c-3,0-5.1-2.2-5.1-5.2c0-3,2.1-5.2,5.1-5.2c3.1,0,5.2,2.3,5,5.7h-8c0.1,1.5,1.2,2.7,3,2.7
		c1.1,0,2.1-0.4,2.5-1.4h2.3C402.5,26,400.7,27.5,398.1,27.5z M395.3,21.3h5.5c-0.3-1.6-1.5-2.3-2.7-2.3
		C396.7,18.9,395.6,19.7,395.3,21.3z"/>
	<path class="st1" d="M409.5,17.1c1.4,0,2.6,0.7,3.2,1.5v-1.3h2.2v10h-2.2v-1.3c-0.6,0.8-1.8,1.5-3.2,1.5c-2.7,0-4.8-2.3-4.8-5.2
		S406.8,17.1,409.5,17.1z M409.9,19.1c-1.8,0-3,1.4-3,3.2c0,1.8,1.2,3.2,3,3.2c1.8,0,3-1.4,3-3.2C412.9,20.5,411.7,19.1,409.9,19.1z
		"/>
	<path class="st1" d="M422.4,27.5c-3,0-5.2-2.3-5.2-5.2s2.2-5.2,5.2-5.2c2.6,0,4.5,1.6,5.1,3.9h-2.3c-0.4-1.1-1.4-1.9-2.8-1.9
		c-1.8,0-3,1.3-3,3.2s1.2,3.2,3,3.2c1.4,0,2.4-0.8,2.8-1.9h2.3C426.9,25.8,425,27.5,422.4,27.5z"/>
	<path class="st1" d="M429.6,12.3h2.2v6.4c0.6-1,1.7-1.6,3-1.6c2.3,0,3.8,1.6,3.8,4.2v6h-2.2v-5.7c0-1.6-0.8-2.5-2.1-2.5
		c-1.5,0-2.6,1.1-2.6,3.3v4.9h-2.2V12.3z"/>
	<path class="st1" d="M445.9,27.5c-3,0-5.1-2.2-5.1-5.2c0-3,2.1-5.2,5.1-5.2c3.1,0,5.2,2.3,5,5.7h-8c0.1,1.5,1.2,2.7,3,2.7
		c1.1,0,2.1-0.4,2.5-1.4h2.3C450.2,26,448.4,27.5,445.9,27.5z M443,21.3h5.5c-0.3-1.6-1.5-2.3-2.7-2.3
		C444.4,18.9,443.3,19.7,443,21.3z"/>
	<path class="st1" d="M453.1,17.3h2.2v1.8c0.4-1.1,1.5-1.9,2.6-1.9c0.3,0,0.6,0,0.9,0.1v2.3c-0.4-0.1-0.7-0.2-1.1-0.2
		c-1.3,0-2.4,1.1-2.4,3.1v4.9h-2.2V17.3z"/>
	<path class="st1" d="M466.1,15.1c-0.8,0-1.5-0.7-1.5-1.5c0-0.8,0.7-1.5,1.5-1.5c0.8,0,1.5,0.7,1.5,1.5
		C467.5,14.4,466.9,15.1,466.1,15.1z M465,17.3h2.2v10H465V17.3z"/>
	<path class="st1" d="M470.1,17.3h2.2v1.4c0.6-1,1.7-1.6,3-1.6c2.3,0,3.8,1.6,3.8,4.2v6H477v-5.7c0-1.6-0.8-2.5-2.1-2.5
		c-1.5,0-2.6,1.1-2.6,3.3v4.9h-2.2V17.3z"/>
	<path class="st1" d="M486.7,12.3h2.2v8.8l3.8-3.8h2.8l-4.5,4.5l5.5,5.5h-2.8l-4.8-4.8v4.8h-2.2V12.3z"/>
	<path class="st1" d="M498.7,15.1c-0.8,0-1.5-0.7-1.5-1.5c0-0.8,0.7-1.5,1.5-1.5c0.8,0,1.5,0.7,1.5,1.5
		C500.2,14.4,499.6,15.1,498.7,15.1z M497.6,17.3h2.2v10h-2.2V17.3z"/>
	<path class="st1" d="M502.8,17.3h2.2v1.4c0.6-1,1.7-1.6,3-1.6c2.3,0,3.8,1.6,3.8,4.2v6h-2.2v-5.7c0-1.6-0.8-2.5-2.1-2.5
		c-1.5,0-2.6,1.1-2.6,3.3v4.9h-2.2V17.3z"/>
	<path class="st1" d="M518.8,17.1c1.4,0,2.6,0.7,3.2,1.5v-6.3h2.2v15H522v-1.3c-0.6,0.8-1.8,1.5-3.2,1.5c-2.7,0-4.8-2.3-4.8-5.2
		S516,17.1,518.8,17.1z M519.2,19.1c-1.8,0-3,1.4-3,3.2c0,1.8,1.2,3.2,3,3.2c1.8,0,3-1.4,3-3.2C522.2,20.5,521,19.1,519.2,19.1z"/>
	<path class="st1" d="M531.6,27.5c-3,0-5.1-2.2-5.1-5.2c0-3,2.1-5.2,5.1-5.2c3.1,0,5.2,2.3,5,5.7h-8c0.1,1.5,1.2,2.7,3,2.7
		c1.1,0,2.1-0.4,2.5-1.4h2.3C535.9,26,534.1,27.5,531.6,27.5z M528.7,21.3h5.5c-0.3-1.6-1.5-2.3-2.7-2.3
		C530.2,18.9,529,19.7,528.7,21.3z"/>
	<path class="st1" d="M538.9,17.3h2.2v1.8c0.4-1.1,1.5-1.9,2.6-1.9c0.3,0,0.6,0,0.9,0.1v2.3c-0.4-0.1-0.7-0.2-1.1-0.2
		c-1.3,0-2.4,1.1-2.4,3.1v4.9h-2.2V17.3z"/>
	<path class="st1" d="M548,28.1c0.4,1.2,1.4,1.7,2.8,1.7c1.5,0,2.7-1,2.7-2.9v-1.2c-0.6,0.9-1.8,1.6-3.2,1.6c-2.7,0-4.8-2.2-4.8-5.1
		c0-2.8,2.1-5.1,4.8-5.1c1.4,0,2.6,0.7,3.2,1.5v-1.3h2.2v9.4c0,3.5-2.3,5-5,5c-2.7,0-4.6-1.5-4.9-3.6H548z M550.6,19.1
		c-1.7,0-3,1.3-3,3.1c0,1.8,1.3,3.1,3,3.1c1.7,0,3-1.3,3-3.1C553.6,20.4,552.3,19.1,550.6,19.1z"/>
	<path class="st1" d="M562.7,17.1c1.4,0,2.6,0.7,3.2,1.5v-1.3h2.2v10h-2.2v-1.3c-0.6,0.8-1.8,1.5-3.2,1.5c-2.7,0-4.8-2.3-4.8-5.2
		S560,17.1,562.7,17.1z M563.1,19.1c-1.8,0-3,1.4-3,3.2c0,1.8,1.2,3.2,3,3.2s3-1.4,3-3.2C566.1,20.5,564.9,19.1,563.1,19.1z"/>
	<path class="st1" d="M571.1,17.3h2.2v1.8c0.4-1.1,1.5-1.9,2.6-1.9c0.3,0,0.6,0,0.9,0.1v2.3c-0.4-0.1-0.7-0.2-1.1-0.2
		c-1.3,0-2.4,1.1-2.4,3.1v4.9h-2.2V17.3z"/>
	<path class="st1" d="M583,27.4c-1.9,0-3.4-1.1-3.4-3.3v-4.8h-2.1v-2h2.1v-2.8h2.2v2.8h2.9v2h-2.9v4.5c0,1.2,0.5,1.7,1.7,1.7
		c0.4,0,0.9-0.1,1.2-0.2v2C584.2,27.3,583.7,27.4,583,27.4z"/>
	<path class="st1" d="M591,27.5c-3,0-5.1-2.2-5.1-5.2c0-3,2.1-5.2,5.1-5.2c3.1,0,5.2,2.3,5,5.7h-8c0.1,1.5,1.2,2.7,3,2.7
		c1.1,0,2.1-0.4,2.5-1.4h2.3C595.4,26,593.6,27.5,591,27.5z M588.2,21.3h5.5c-0.3-1.6-1.5-2.3-2.7-2.3
		C589.6,18.9,588.5,19.7,588.2,21.3z"/>
	<path class="st1" d="M598.3,17.3h2.2v1.4c0.6-1,1.7-1.6,3-1.6c2.3,0,3.8,1.6,3.8,4.2v6h-2.2v-5.7c0-1.6-0.8-2.5-2.1-2.5
		c-1.5,0-2.6,1.1-2.6,3.3v4.9h-2.2V17.3z"/>
	<path class="st1" d="M613.7,27.5c-2.3,0-4.2-1.2-4.3-3.2h2.3c0.2,1.1,1.1,1.5,2.1,1.5c1,0,1.6-0.4,1.6-1.1c0-0.7-0.4-1.1-1.5-1.3
		l-1.6-0.4c-1.7-0.4-2.6-1.6-2.6-3c0-1.7,1.5-2.8,3.7-2.8c2.2,0,3.7,1.2,3.8,3H615c-0.2-0.8-0.9-1.2-1.6-1.2c-0.8,0-1.5,0.4-1.5,1
		c0,0.6,0.5,1,1.3,1.2l1.7,0.4c1.8,0.5,2.7,1.5,2.7,3C617.6,26.5,615.9,27.5,613.7,27.5z"/>
</g>
<line class="st4" x1="822.9" y1="408.7" x2="12.9" y2="408.7"/>
<line class="st4" x1="822.9" y1="303.4" x2="12.9" y2="303.4"/>
<line class="st4" x1="822.9" y1="194.7" x2="12.9" y2="194.7"/>
<line class="st4" x1="822.9" y1="90.5" x2="12.9" y2="90.5"/>
<g>
	<circle class="st5" cx="803.7" cy="498" r="6.3"/>
	<circle class="st5" cx="803.6" cy="478.5" r="6.3"/>
	<circle class="st5" cx="803.6" cy="459" r="6.3"/>
	<circle class="st5" cx="803.6" cy="439.5" r="6.3"/>
	<circle class="st5" cx="803.6" cy="419.9" r="6.3"/>
	<circle class="st5" cx="803.6" cy="395.4" r="6.3"/>
	<circle class="st5" cx="803.6" cy="375.9" r="6.3"/>
	<circle class="st5" cx="803.6" cy="356.4" r="6.3"/>
	<circle class="st5" cx="803.6" cy="336.9" r="6.3"/>
	<circle class="st5" cx="803.6" cy="317.4" r="6.3"/>
	<circle class="st5" cx="803.6" cy="290.9" r="6.3"/>
	<circle class="st5" cx="803.6" cy="271.4" r="6.3"/>
	<circle class="st5" cx="803.6" cy="251.9" r="6.3"/>
	<circle class="st5" cx="803.6" cy="232.4" r="6.3"/>
	<circle class="st5" cx="803.6" cy="212.9" r="6.3"/>
	<circle class="st5" cx="803.6" cy="183.4" r="6.3"/>
	<circle class="st5" cx="803.6" cy="163.9" r="6.3"/>
	<circle class="st5" cx="803.6" cy="144.4" r="6.3"/>
	<circle class="st5" cx="803.6" cy="124.9" r="6.3"/>
	<circle class="st5" cx="803.6" cy="105.3" r="6.3"/>
</g>
<g>
	<circle class="st5" cx="778.5" cy="498" r="6.3"/>
	<circle class="st5" cx="778.5" cy="478.5" r="6.3"/>
	<circle class="st5" cx="778.5" cy="459" r="6.3"/>
	<circle class="st5" cx="778.5" cy="439.5" r="6.3"/>
	<circle class="st5" cx="778.5" cy="419.9" r="6.3"/>
	<circle class="st5" cx="778.5" cy="395.4" r="6.3"/>
	<circle class="st5" cx="778.5" cy="375.9" r="6.3"/>
	<circle class="st5" cx="778.5" cy="356.4" r="6.3"/>
	<circle class="st5" cx="778.5" cy="336.9" r="6.3"/>
	<circle class="st5" cx="778.5" cy="317.4" r="6.3"/>
	<circle class="st5" cx="778.5" cy="290.9" r="6.3"/>
	<circle class="st5" cx="778.5" cy="271.4" r="6.3"/>
	<circle class="st5" cx="778.5" cy="251.9" r="6.3"/>
	<circle class="st5" cx="778.5" cy="232.4" r="6.3"/>
	<circle class="st5" cx="778.5" cy="212.9" r="6.3"/>
	<circle class="st5" cx="778.5" cy="183.4" r="6.3"/>
</g>
<g>
	<circle class="st5" cx="753.3" cy="498" r="6.3"/>
	<circle class="st5" cx="753.3" cy="478.5" r="6.3"/>
	<circle class="st5" cx="753.3" cy="459" r="6.3"/>
	<circle class="st5" cx="753.3" cy="439.5" r="6.3"/>
	<circle class="st5" cx="753.3" cy="419.9" r="6.3"/>
	<circle class="st5" cx="753.3" cy="395.4" r="6.3"/>
	<circle class="st5" cx="753.3" cy="375.9" r="6.3"/>
	<circle class="st5" cx="753.3" cy="356.4" r="6.3"/>
	<circle class="st5" cx="753.3" cy="336.9" r="6.3"/>
	<circle class="st5" cx="753.3" cy="317.4" r="6.3"/>
	<circle class="st5" cx="753.3" cy="290.9" r="6.3"/>
	<circle class="st5" cx="753.3" cy="271.4" r="6.3"/>
</g>
<g>
	<circle class="st5" cx="728.1" cy="498" r="6.3"/>
	<circle class="st5" cx="728.1" cy="478.5" r="6.3"/>
	<circle class="st5" cx="728.1" cy="459" r="6.3"/>
	<circle class="st5" cx="728.1" cy="439.5" r="6.3"/>
	<circle class="st5" cx="728.1" cy="419.9" r="6.3"/>
	<circle class="st5" cx="728.1" cy="395.4" r="6.3"/>
	<circle class="st5" cx="728.1" cy="375.9" r="6.3"/>
	<circle class="st5" cx="728.1" cy="356.4" r="6.3"/>
	<circle class="st5" cx="728.1" cy="336.9" r="6.3"/>
	<circle class="st5" cx="728.1" cy="317.4" r="6.3"/>
	<circle class="st5" cx="728.1" cy="290.9" r="6.3"/>
	<circle class="st5" cx="728.1" cy="271.4" r="6.3"/>
	<circle class="st5" cx="728.1" cy="251.9" r="6.3"/>
	<circle class="st5" cx="728.1" cy="232.4" r="6.3"/>
	<circle class="st5" cx="728.1" cy="212.9" r="6.3"/>
</g>
<g>
	<circle class="st5" cx="702.9" cy="498" r="6.3"/>
	<circle class="st5" cx="702.9" cy="478.5" r="6.3"/>
	<circle class="st5" cx="702.9" cy="459" r="6.3"/>
	<circle class="st5" cx="702.9" cy="439.5" r="6.3"/>
	<circle class="st5" cx="702.9" cy="419.9" r="6.3"/>
	<circle class="st5" cx="702.9" cy="395.4" r="6.3"/>
	<circle class="st5" cx="702.9" cy="375.9" r="6.3"/>
	<circle class="st5" cx="702.9" cy="356.4" r="6.3"/>
	<circle class="st5" cx="702.9" cy="336.9" r="6.3"/>
	<circle class="st5" cx="702.9" cy="317.4" r="6.3"/>
	<circle class="st5" cx="702.9" cy="290.9" r="6.3"/>
	<circle class="st5" cx="702.9" cy="271.4" r="6.3"/>
</g>
<g>
	<circle class="st5" cx="677.8" cy="498" r="6.3"/>
	<circle class="st5" cx="677.8" cy="478.5" r="6.3"/>
	<circle class="st5" cx="677.8" cy="459" r="6.3"/>
	<circle class="st5" cx="677.8" cy="439.5" r="6.3"/>
	<circle class="st5" cx="677.8" cy="419.9" r="6.3"/>
	<circle class="st5" cx="677.8" cy="395.4" r="6.3"/>
	<circle class="st5" cx="677.8" cy="375.9" r="6.3"/>
	<circle class="st5" cx="677.8" cy="356.4" r="6.3"/>
	<circle class="st5" cx="677.8" cy="336.9" r="6.3"/>
	<circle class="st5" cx="677.8" cy="317.4" r="6.3"/>
	<circle class="st5" cx="677.8" cy="290.9" r="6.3"/>
	<circle class="st5" cx="677.8" cy="271.4" r="6.3"/>
	<circle class="st5" cx="677.8" cy="251.9" r="6.3"/>
	<circle class="st5" cx="677.8" cy="232.4" r="6.3"/>
	<circle class="st5" cx="677.8" cy="212.9" r="6.3"/>
</g>
<g>
	<circle class="st5" cx="652.6" cy="498" r="6.3"/>
	<circle class="st5" cx="652.6" cy="478.5" r="6.3"/>
	<circle class="st5" cx="652.6" cy="459" r="6.3"/>
	<circle class="st5" cx="652.6" cy="439.5" r="6.3"/>
	<circle class="st5" cx="652.6" cy="419.9" r="6.3"/>
	<circle class="st5" cx="652.6" cy="395.4" r="6.3"/>
	<circle class="st5" cx="652.6" cy="375.9" r="6.3"/>
	<circle class="st5" cx="652.6" cy="356.4" r="6.3"/>
	<circle class="st5" cx="652.6" cy="336.9" r="6.3"/>
	<circle class="st5" cx="652.6" cy="317.4" r="6.3"/>
	<circle class="st5" cx="652.6" cy="290.9" r="6.3"/>
	<circle class="st5" cx="652.6" cy="271.4" r="6.3"/>
	<circle class="st5" cx="652.6" cy="251.9" r="6.3"/>
	<circle class="st5" cx="652.6" cy="232.4" r="6.3"/>
	<circle class="st5" cx="652.6" cy="212.9" r="6.3"/>
	<circle class="st5" cx="652.6" cy="183.4" r="6.3"/>
</g>
<g>
	<circle class="st5" cx="627.4" cy="498" r="6.3"/>
	<circle class="st5" cx="627.4" cy="478.5" r="6.3"/>
	<circle class="st5" cx="627.4" cy="459" r="6.3"/>
	<circle class="st5" cx="627.4" cy="439.5" r="6.3"/>
	<circle class="st5" cx="627.4" cy="419.9" r="6.3"/>
	<circle class="st5" cx="627.4" cy="395.4" r="6.3"/>
	<circle class="st5" cx="627.4" cy="375.9" r="6.3"/>
	<circle class="st5" cx="627.4" cy="356.4" r="6.3"/>
	<circle class="st5" cx="627.4" cy="336.9" r="6.3"/>
	<circle class="st5" cx="627.4" cy="317.4" r="6.3"/>
	<circle class="st5" cx="627.4" cy="290.9" r="6.3"/>
	<circle class="st5" cx="627.4" cy="271.4" r="6.3"/>
	<circle class="st5" cx="627.4" cy="251.9" r="6.3"/>
	<circle class="st5" cx="627.4" cy="232.4" r="6.3"/>
</g>
<g>
	<circle class="st5" cx="602.3" cy="498" r="6.3"/>
	<circle class="st5" cx="602.3" cy="478.5" r="6.3"/>
	<circle class="st5" cx="602.3" cy="459" r="6.3"/>
	<circle class="st5" cx="602.3" cy="439.5" r="6.3"/>
	<circle class="st5" cx="602.3" cy="419.9" r="6.3"/>
	<circle class="st5" cx="602.3" cy="395.4" r="6.3"/>
	<circle class="st5" cx="602.3" cy="375.9" r="6.3"/>
	<circle class="st5" cx="602.3" cy="356.4" r="6.3"/>
	<circle class="st5" cx="602.3" cy="336.9" r="6.3"/>
	<circle class="st5" cx="602.3" cy="317.4" r="6.3"/>
	<circle class="st5" cx="602.3" cy="290.9" r="6.3"/>
	<circle class="st5" cx="602.3" cy="271.4" r="6.3"/>
	<circle class="st5" cx="602.3" cy="251.9" r="6.3"/>
	<circle class="st5" cx="602.3" cy="232.4" r="6.3"/>
</g>
<g>
	<circle class="st5" cx="577.1" cy="498" r="6.3"/>
	<circle class="st5" cx="577.1" cy="478.5" r="6.3"/>
	<circle class="st5" cx="577.1" cy="459" r="6.3"/>
	<circle class="st5" cx="577.1" cy="439.5" r="6.3"/>
	<circle class="st5" cx="577.1" cy="419.9" r="6.3"/>
	<circle class="st5" cx="577.1" cy="395.4" r="6.3"/>
	<circle class="st5" cx="577.1" cy="375.9" r="6.3"/>
	<circle class="st5" cx="577.1" cy="356.4" r="6.3"/>
	<circle class="st5" cx="577.1" cy="336.9" r="6.3"/>
	<circle class="st5" cx="577.1" cy="317.4" r="6.3"/>
	<circle class="st5" cx="577.1" cy="290.9" r="6.3"/>
	<circle class="st5" cx="577.1" cy="271.4" r="6.3"/>
	<circle class="st5" cx="577.1" cy="251.9" r="6.3"/>
</g>
<g>
	<circle class="st5" cx="551.9" cy="498" r="6.3"/>
	<circle class="st5" cx="551.9" cy="478.5" r="6.3"/>
	<circle class="st5" cx="551.9" cy="459" r="6.3"/>
	<circle class="st5" cx="551.9" cy="439.5" r="6.3"/>
	<circle class="st5" cx="551.9" cy="419.9" r="6.3"/>
	<circle class="st5" cx="551.9" cy="395.4" r="6.3"/>
	<circle class="st5" cx="551.9" cy="375.9" r="6.3"/>
	<circle class="st5" cx="551.9" cy="356.4" r="6.3"/>
	<circle class="st5" cx="551.9" cy="336.9" r="6.3"/>
	<circle class="st5" cx="551.9" cy="317.4" r="6.3"/>
</g>
<g>
	<circle class="st5" cx="526.7" cy="498" r="6.3"/>
	<circle class="st5" cx="526.7" cy="478.5" r="6.3"/>
	<circle class="st5" cx="526.7" cy="459" r="6.3"/>
	<circle class="st5" cx="526.7" cy="439.5" r="6.3"/>
	<circle class="st5" cx="526.7" cy="419.9" r="6.3"/>
	<circle class="st5" cx="526.7" cy="395.4" r="6.3"/>
	<circle class="st5" cx="526.7" cy="375.9" r="6.3"/>
	<circle class="st5" cx="526.7" cy="356.4" r="6.3"/>
	<circle class="st5" cx="526.7" cy="336.9" r="6.3"/>
	<circle class="st5" cx="526.7" cy="317.4" r="6.3"/>
	<circle class="st5" cx="526.7" cy="290.9" r="6.3"/>
	<circle class="st5" cx="526.7" cy="271.4" r="6.3"/>
</g>
<g>
	<circle class="st5" cx="501.6" cy="498" r="6.3"/>
	<circle class="st5" cx="501.6" cy="478.5" r="6.3"/>
	<circle class="st5" cx="501.6" cy="459" r="6.3"/>
	<circle class="st5" cx="501.6" cy="439.5" r="6.3"/>
	<circle class="st5" cx="501.6" cy="419.9" r="6.3"/>
	<circle class="st5" cx="501.6" cy="395.4" r="6.3"/>
	<circle class="st5" cx="501.6" cy="375.9" r="6.3"/>
	<circle class="st5" cx="501.6" cy="356.4" r="6.3"/>
	<circle class="st5" cx="501.6" cy="336.9" r="6.3"/>
	<circle class="st5" cx="501.6" cy="317.4" r="6.3"/>
	<circle class="st5" cx="501.6" cy="290.9" r="6.3"/>
	<circle class="st5" cx="501.6" cy="271.4" r="6.3"/>
	<circle class="st5" cx="501.6" cy="251.9" r="6.3"/>
	<circle class="st5" cx="501.6" cy="232.4" r="6.3"/>
	<circle class="st5" cx="501.6" cy="212.9" r="6.3"/>
</g>
<g>
	<circle class="st5" cx="476.4" cy="498" r="6.3"/>
	<circle class="st5" cx="476.4" cy="478.5" r="6.3"/>
	<circle class="st5" cx="476.4" cy="459" r="6.3"/>
	<circle class="st5" cx="476.4" cy="439.5" r="6.3"/>
	<circle class="st5" cx="476.4" cy="419.9" r="6.3"/>
	<circle class="st5" cx="476.4" cy="395.4" r="6.3"/>
	<circle class="st5" cx="476.4" cy="375.9" r="6.3"/>
	<circle class="st5" cx="476.4" cy="356.4" r="6.3"/>
</g>
<g>
	<circle class="st5" cx="451.2" cy="498" r="6.3"/>
	<circle class="st5" cx="451.2" cy="478.5" r="6.3"/>
	<circle class="st5" cx="451.2" cy="459" r="6.3"/>
	<circle class="st5" cx="451.2" cy="439.5" r="6.3"/>
	<circle class="st5" cx="451.2" cy="419.9" r="6.3"/>
	<circle class="st5" cx="451.2" cy="395.4" r="6.3"/>
	<circle class="st5" cx="451.2" cy="375.9" r="6.3"/>
	<circle class="st5" cx="451.2" cy="356.4" r="6.3"/>
	<circle class="st5" cx="451.2" cy="336.9" r="6.3"/>
</g>
<g>
	<circle class="st5" cx="426.1" cy="498" r="6.3"/>
	<circle class="st5" cx="426.1" cy="478.5" r="6.3"/>
	<circle class="st5" cx="426.1" cy="459" r="6.3"/>
	<circle class="st5" cx="426.1" cy="439.5" r="6.3"/>
	<circle class="st5" cx="426.1" cy="419.9" r="6.3"/>
	<circle class="st5" cx="426.1" cy="395.4" r="6.3"/>
	<circle class="st5" cx="426.1" cy="375.9" r="6.3"/>
	<circle class="st5" cx="426.1" cy="356.4" r="6.3"/>
	<circle class="st5" cx="426.1" cy="336.9" r="6.3"/>
	<circle class="st5" cx="426.1" cy="317.4" r="6.3"/>
	<circle class="st5" cx="426.1" cy="290.9" r="6.3"/>
	<circle class="st5" cx="426.1" cy="271.4" r="6.3"/>
	<circle class="st5" cx="426.1" cy="251.9" r="6.3"/>
	<circle class="st5" cx="426.1" cy="232.4" r="6.3"/>
	<circle class="st5" cx="426.1" cy="212.9" r="6.3"/>
	<circle class="st5" cx="426.1" cy="183.4" r="6.3"/>
</g>
<g>
	<circle class="st5" cx="400.9" cy="498" r="6.3"/>
	<circle class="st5" cx="400.9" cy="478.5" r="6.3"/>
	<circle class="st5" cx="400.9" cy="459" r="6.3"/>
	<circle class="st5" cx="400.9" cy="439.5" r="6.3"/>
	<circle class="st5" cx="400.9" cy="419.9" r="6.3"/>
	<circle class="st5" cx="400.9" cy="395.4" r="6.3"/>
	<circle class="st5" cx="400.9" cy="375.9" r="6.3"/>
	<circle class="st5" cx="400.9" cy="356.4" r="6.3"/>
	<circle class="st5" cx="400.9" cy="336.9" r="6.3"/>
	<circle class="st5" cx="400.9" cy="317.4" r="6.3"/>
	<circle class="st5" cx="400.9" cy="290.9" r="6.3"/>
	<circle class="st5" cx="400.9" cy="271.4" r="6.3"/>
	<circle class="st5" cx="400.9" cy="251.9" r="6.3"/>
	<circle class="st5" cx="400.9" cy="232.4" r="6.3"/>
</g>
<g>
	<circle class="st5" cx="375.7" cy="498" r="6.3"/>
	<circle class="st5" cx="375.7" cy="478.5" r="6.3"/>
	<circle class="st5" cx="375.7" cy="459" r="6.3"/>
	<circle class="st5" cx="375.7" cy="439.5" r="6.3"/>
	<circle class="st5" cx="375.7" cy="419.9" r="6.3"/>
	<circle class="st5" cx="375.7" cy="395.4" r="6.3"/>
	<circle class="st5" cx="375.7" cy="375.9" r="6.3"/>
	<circle class="st5" cx="375.7" cy="356.4" r="6.3"/>
	<circle class="st5" cx="375.7" cy="336.9" r="6.3"/>
</g>
<g>
	<circle class="st5" cx="350.5" cy="498" r="6.3"/>
	<circle class="st5" cx="350.5" cy="478.5" r="6.3"/>
	<circle class="st5" cx="350.5" cy="459" r="6.3"/>
	<circle class="st5" cx="350.5" cy="439.5" r="6.3"/>
	<circle class="st5" cx="350.5" cy="419.9" r="6.3"/>
	<circle class="st5" cx="350.5" cy="395.4" r="6.3"/>
	<circle class="st5" cx="350.5" cy="375.9" r="6.3"/>
	<circle class="st5" cx="350.5" cy="356.4" r="6.3"/>
	<circle class="st5" cx="350.5" cy="336.9" r="6.3"/>
	<circle class="st5" cx="350.5" cy="317.4" r="6.3"/>
	<circle class="st5" cx="350.5" cy="290.9" r="6.3"/>
	<circle class="st5" cx="350.5" cy="271.4" r="6.3"/>
</g>
<g>
	<circle class="st5" cx="325.4" cy="498" r="6.3"/>
	<circle class="st5" cx="325.4" cy="478.5" r="6.3"/>
	<circle class="st5" cx="325.4" cy="459" r="6.3"/>
	<circle class="st5" cx="325.4" cy="439.5" r="6.3"/>
	<circle class="st5" cx="325.4" cy="419.9" r="6.3"/>
	<circle class="st5" cx="325.4" cy="395.4" r="6.3"/>
	<circle class="st5" cx="325.4" cy="375.9" r="6.3"/>
	<circle class="st5" cx="325.4" cy="356.4" r="6.3"/>
	<circle class="st5" cx="325.4" cy="336.9" r="6.3"/>
	<circle class="st5" cx="325.4" cy="317.4" r="6.3"/>
	<circle class="st5" cx="325.4" cy="290.9" r="6.3"/>
</g>
<g>
	<circle class="st5" cx="300.2" cy="498" r="6.3"/>
	<circle class="st5" cx="300.2" cy="478.5" r="6.3"/>
	<circle class="st5" cx="300.2" cy="459" r="6.3"/>
	<circle class="st5" cx="300.2" cy="439.5" r="6.3"/>
	<circle class="st5" cx="300.2" cy="419.9" r="6.3"/>
	<circle class="st5" cx="300.2" cy="395.4" r="6.3"/>
	<circle class="st5" cx="300.2" cy="375.9" r="6.3"/>
	<circle class="st5" cx="300.2" cy="356.4" r="6.3"/>
	<circle class="st5" cx="300.2" cy="336.9" r="6.3"/>
	<circle class="st5" cx="300.2" cy="317.4" r="6.3"/>
	<circle class="st5" cx="300.2" cy="290.9" r="6.3"/>
	<circle class="st5" cx="300.2" cy="271.4" r="6.3"/>
</g>
<g>
	<circle class="st5" cx="275" cy="498" r="6.3"/>
	<circle class="st5" cx="275" cy="478.5" r="6.3"/>
	<circle class="st5" cx="275" cy="459" r="6.3"/>
	<circle class="st5" cx="275" cy="439.5" r="6.3"/>
	<circle class="st5" cx="275" cy="419.9" r="6.3"/>
	<circle class="st5" cx="275" cy="395.4" r="6.3"/>
	<circle class="st5" cx="275" cy="375.9" r="6.3"/>
	<circle class="st5" cx="275" cy="356.4" r="6.3"/>
	<circle class="st5" cx="275" cy="336.9" r="6.3"/>
</g>
<g>
	<circle class="st5" cx="249.9" cy="498" r="6.3"/>
	<circle class="st5" cx="249.9" cy="478.5" r="6.3"/>
	<circle class="st5" cx="249.9" cy="459" r="6.3"/>
	<circle class="st5" cx="249.9" cy="439.5" r="6.3"/>
	<circle class="st5" cx="249.9" cy="419.9" r="6.3"/>
	<circle class="st5" cx="249.9" cy="395.4" r="6.3"/>
	<circle class="st5" cx="249.9" cy="375.9" r="6.3"/>
	<circle class="st5" cx="249.9" cy="356.4" r="6.3"/>
	<circle class="st5" cx="249.9" cy="336.9" r="6.3"/>
	<circle class="st5" cx="249.9" cy="317.4" r="6.3"/>
	<circle class="st5" cx="249.9" cy="290.9" r="6.3"/>
</g>
<g>
	<circle class="st5" cx="224.7" cy="498" r="6.3"/>
	<circle class="st5" cx="224.7" cy="478.5" r="6.3"/>
	<circle class="st5" cx="224.7" cy="459" r="6.3"/>
	<circle class="st5" cx="224.7" cy="439.5" r="6.3"/>
	<circle class="st5" cx="224.7" cy="419.9" r="6.3"/>
	<circle class="st5" cx="224.7" cy="395.4" r="6.3"/>
	<circle class="st5" cx="224.7" cy="375.9" r="6.3"/>
	<circle class="st5" cx="224.7" cy="356.4" r="6.3"/>
</g>
<g>
	<circle class="st5" cx="199.5" cy="498" r="6.3"/>
	<circle class="st5" cx="199.5" cy="478.5" r="6.3"/>
	<circle class="st5" cx="199.5" cy="459" r="6.3"/>
	<circle class="st5" cx="199.5" cy="439.5" r="6.3"/>
	<circle class="st5" cx="199.5" cy="419.9" r="6.3"/>
	<circle class="st5" cx="199.5" cy="395.4" r="6.3"/>
	<circle class="st5" cx="199.5" cy="375.9" r="6.3"/>
	<circle class="st5" cx="199.5" cy="356.4" r="6.3"/>
	<circle class="st5" cx="199.5" cy="336.9" r="6.3"/>
	<circle class="st5" cx="199.5" cy="317.4" r="6.3"/>
	<circle class="st5" cx="199.5" cy="290.9" r="6.3"/>
</g>
<g>
	<circle class="st5" cx="174.3" cy="498" r="6.3"/>
	<circle class="st5" cx="174.3" cy="478.5" r="6.3"/>
	<circle class="st5" cx="174.3" cy="459" r="6.3"/>
	<circle class="st5" cx="174.3" cy="439.5" r="6.3"/>
	<circle class="st5" cx="174.3" cy="419.9" r="6.3"/>
	<circle class="st5" cx="174.3" cy="395.4" r="6.3"/>
	<circle class="st5" cx="174.3" cy="375.9" r="6.3"/>
	<circle class="st5" cx="174.3" cy="356.4" r="6.3"/>
	<circle class="st5" cx="174.3" cy="336.9" r="6.3"/>
</g>
<g>
	<circle class="st5" cx="149.2" cy="498" r="6.3"/>
	<circle class="st5" cx="149.2" cy="478.5" r="6.3"/>
	<circle class="st5" cx="149.2" cy="459" r="6.3"/>
	<circle class="st5" cx="149.2" cy="439.5" r="6.3"/>
	<circle class="st5" cx="149.2" cy="419.9" r="6.3"/>
	<circle class="st5" cx="149.2" cy="395.4" r="6.3"/>
	<circle class="st5" cx="149.2" cy="375.9" r="6.3"/>
	<circle class="st5" cx="149.2" cy="356.4" r="6.3"/>
	<circle class="st5" cx="149.2" cy="336.9" r="6.3"/>
	<circle class="st5" cx="149.2" cy="317.4" r="6.3"/>
	<circle class="st5" cx="149.2" cy="290.9" r="6.3"/>
</g>
<g>
	<circle class="st5" cx="124" cy="498" r="6.3"/>
	<circle class="st5" cx="124" cy="478.5" r="6.3"/>
	<circle class="st5" cx="124" cy="459" r="6.3"/>
	<circle class="st5" cx="124" cy="439.5" r="6.3"/>
	<circle class="st5" cx="124" cy="419.9" r="6.3"/>
	<circle class="st5" cx="124" cy="395.4" r="6.3"/>
	<circle class="st5" cx="124" cy="375.9" r="6.3"/>
	<circle class="st5" cx="124" cy="356.4" r="6.3"/>
	<circle class="st5" cx="124" cy="336.9" r="6.3"/>
	<circle class="st5" cx="124" cy="317.4" r="6.3"/>
</g>
<g>
	<circle class="st5" cx="98.8" cy="498" r="6.3"/>
	<circle class="st5" cx="98.8" cy="478.5" r="6.3"/>
	<circle class="st5" cx="98.8" cy="459" r="6.3"/>
	<circle class="st5" cx="98.8" cy="439.5" r="6.3"/>
	<circle class="st5" cx="98.8" cy="419.9" r="6.3"/>
	<circle class="st5" cx="98.8" cy="395.4" r="6.3"/>
	<circle class="st5" cx="98.8" cy="375.9" r="6.3"/>
	<circle class="st5" cx="98.8" cy="356.4" r="6.3"/>
	<circle class="st5" cx="98.8" cy="336.9" r="6.3"/>
</g>
<g>
	<circle class="st5" cx="73.7" cy="498" r="6.3"/>
	<circle class="st5" cx="73.7" cy="478.5" r="6.3"/>
	<circle class="st5" cx="73.7" cy="459" r="6.3"/>
	<circle class="st5" cx="73.7" cy="439.5" r="6.3"/>
	<circle class="st5" cx="73.7" cy="419.9" r="6.3"/>
	<circle class="st5" cx="73.7" cy="395.4" r="6.3"/>
</g>
<g>
	<circle class="st6" cx="48.5" cy="498" r="6.3"/>
	<circle class="st6" cx="48.5" cy="478.5" r="6.3"/>
	<circle class="st6" cx="48.5" cy="459" r="6.3"/>
	<circle class="st6" cx="48.5" cy="439.5" r="6.3"/>
	<circle class="st6" cx="48.5" cy="419.9" r="6.3"/>
	<circle class="st6" cx="48.5" cy="395.4" r="6.3"/>
	<circle class="st6" cx="48.5" cy="375.9" r="6.3"/>
	<circle class="st6" cx="48.5" cy="356.4" r="6.3"/>
	<circle class="st6" cx="48.5" cy="336.9" r="6.3"/>
</g>
</svg>
