<?xml version="1.0" encoding="utf-8"?>
<!-- Generator: Adobe Illustrator 24.0.1, SVG Export Plug-In . SVG Version: 6.00 Build 0)  -->
<svg version="1.1" id="Layer_1" xmlns="http://www.w3.org/2000/svg" xmlns:xlink="http://www.w3.org/1999/xlink" x="0px" y="0px"
	 viewBox="0 0 833 607.5" style="enable-background:new 0 0 833 607.5;" xml:space="preserve">
<style type="text/css">
	.st0{fill:#457687;}
	.st1{font-family:'EuclidCircularA-Regular';}
	.st2{font-size:13px;}
	.st3{font-size:12px;}
	.st4{font-family:'EuclidCircularA-Medium';}
	.st5{font-size:20px;}
	.st6{fill:none;stroke:#A3D3DC;stroke-width:0.92;stroke-miterlimit:10;}
	.st7{fill:#A3D3DC;}
	.st8{fill:#F5D032;}
</style>
<title>Untitled-2</title>
<g>
	<text transform="matrix(0.342 -0.9397 0.9397 0.342 793.0363 557.9079)" class="st0 st1 st2">Xizang</text>
	<text transform="matrix(0.342 -0.9397 0.9397 0.342 768.1706 555.9411)" class="st0 st1 st2">Gansu</text>
	<text transform="matrix(0.342 -0.9397 0.9397 0.342 741.6271 565.9577)" class="st0 st1 st2">Guizhou</text>
	<text transform="matrix(0.342 -0.9397 0.9397 0.342 717.0519 561.9147)" class="st0 st1 st2">Yunnan</text>
	<text transform="matrix(0.342 -0.9397 0.9397 0.342 691.5646 564.3942)" class="st0 st1 st2">Qinghai</text>
	<text transform="matrix(0.342 -0.9397 0.9397 0.342 666.0002 567.4108)" class="st0 st1 st2">Guangxi</text>
	<text transform="matrix(0.342 -0.9397 0.9397 0.342 641.131 565.4684)" class="st0 st1 st2">Xinjiang</text>
	<text transform="matrix(0.342 -0.9397 0.9397 0.342 617.2219 556.6735)" class="st0 st1 st2">Henan</text>
	<text transform="matrix(0.342 -0.9397 0.9397 0.342 590.9875 564.4792)" class="st0 st1 st2">Sichuan</text>
	<text transform="matrix(0.342 -0.9397 0.9397 0.342 566.0397 563.0993)" class="st0 st1 st2">Ningxia</text>
	<text transform="matrix(0.342 -0.9397 0.9397 0.342 540.7082 564.4548)" class="st0 st1 st2">Shaanxi</text>
	<text transform="matrix(0.342 -0.9397 0.9397 0.342 516.6447 556.7595)" class="st0 st1 st2">Shanxi</text>
	<text transform="matrix(0.342 -0.9397 0.9397 0.342 492.1134 552.3981)" class="st0 st1 st2">Hebei</text>
	<text transform="matrix(0.342 -0.9397 0.9397 0.342 451.4743 591.6833)" class="st0 st1 st2">Heilongjiang</text>
	<text transform="matrix(0.342 -0.9397 0.9397 0.342 443.425 541.0134)" class="st0 st1 st2">Jilin</text>
	<text transform="matrix(0.342 -0.9397 0.9397 0.342 416.8048 551.5798)" class="st0 st1 st2">Anhui</text>
	<text transform="matrix(0.342 -0.9397 0.9397 0.342 390.5119 559.8132)" class="st0 st1 st2">Jiangxi</text>
	<text transform="matrix(0.342 -0.9397 0.9397 0.342 365.297 560.3386)" class="st0 st1 st2">Hainan</text>
	<text transform="matrix(0.342 -0.9397 0.9397 0.342 340.6588 556.7468)" class="st0 st1 st2">Hunan</text>
	<text transform="matrix(0.342 -0.9397 0.9397 0.342 316.1154 552.4714)" class="st0 st1 st2">Hubei</text>
	<text transform="matrix(0.342 -0.9397 0.9397 0.342 279.7013 582.9977)" class="st0 st1 st2">Chongqing</text>
	<text transform="matrix(0.342 -0.9397 0.9397 0.342 254.3673 584.3796)" class="st0 st1 st2">Nei Mongol</text>
	<text transform="matrix(0.342 -0.9397 0.9397 0.342 230.2296 577.2077)" class="st0 st1 st2">Shandong</text>
	<text transform="matrix(0.342 -0.9397 0.9397 0.342 206.3449 568.2292)" class="st0 st1 st2">Liaoning</text>
	<text transform="matrix(0.342 -0.9397 0.9397 0.342 190.4015 552.5319)" class="st0 st1 st2">Fujian</text>
	<text transform="matrix(0.342 -0.9397 0.9397 0.342 152.3151 587.86)" class="st0 st1 st2">Guangdong</text>
	<text transform="matrix(0.342 -0.9397 0.9397 0.342 138.6437 563.0749)" class="st0 st1 st2">Jiangsu</text>
	<text transform="matrix(0.342 -0.9397 0.9397 0.342 114.4274 556.4655)" class="st0 st1 st2">Tianjin</text>
	<text transform="matrix(0.342 -0.9397 0.9397 0.342 86.6056 568.4743)" class="st0 st1 st2">Zhejiang</text>
	<text transform="matrix(0.342 -0.9397 0.9397 0.342 64.05 557.1501)" class="st0 st1 st2">Beijing</text>
	<text transform="matrix(0.342 -0.9397 0.9397 0.342 29.7111 572.8474)" class="st0 st1 st2">Shanghai</text>
</g>
<g>
	<text transform="matrix(1 0 0 1 19.3973 421.9255)" class="st0 st1 st3">5</text>
</g>
<g>
	<text transform="matrix(1 0 0 1 19.3973 317.6785)" class="st0 st1 st3">10</text>
</g>
<g>
	<text transform="matrix(1 0 0 1 19.3973 211.7234)" class="st0 st1 st3">15</text>
</g>
<g>
	<text transform="matrix(1 0 0 1 19.3973 105.4691)" class="st0 st1 st3">20</text>
</g>
<text transform="matrix(1 0 0 1 9.3973 27.277)" class="st0 st4 st5">The amount of children / the amount of teacher in kindgartens</text>
<line class="st6" x1="822.9" y1="408.7" x2="12.9" y2="408.7"/>
<line class="st6" x1="822.9" y1="303.4" x2="12.9" y2="303.4"/>
<line class="st6" x1="822.9" y1="194.7" x2="12.9" y2="194.7"/>
<line class="st6" x1="822.9" y1="90.5" x2="12.9" y2="90.5"/>
<g>
	<circle class="st7" cx="803.7" cy="498" r="6.3"/>
	<circle class="st7" cx="803.6" cy="478.5" r="6.3"/>
	<circle class="st7" cx="803.6" cy="459" r="6.3"/>
	<circle class="st7" cx="803.6" cy="439.5" r="6.3"/>
	<circle class="st7" cx="803.6" cy="419.9" r="6.3"/>
	<circle class="st7" cx="803.6" cy="395.4" r="6.3"/>
	<circle class="st7" cx="803.6" cy="375.9" r="6.3"/>
	<circle class="st7" cx="803.6" cy="356.4" r="6.3"/>
	<circle class="st7" cx="803.6" cy="336.9" r="6.3"/>
	<circle class="st7" cx="803.6" cy="317.4" r="6.3"/>
	<circle class="st7" cx="803.6" cy="290.9" r="6.3"/>
	<circle class="st7" cx="803.6" cy="271.4" r="6.3"/>
	<circle class="st7" cx="803.6" cy="251.9" r="6.3"/>
	<circle class="st7" cx="803.6" cy="232.4" r="6.3"/>
	<circle class="st7" cx="803.6" cy="212.9" r="6.3"/>
	<circle class="st7" cx="803.6" cy="183.4" r="6.3"/>
	<circle class="st7" cx="803.6" cy="163.9" r="6.3"/>
	<circle class="st7" cx="803.6" cy="144.4" r="6.3"/>
	<circle class="st7" cx="803.6" cy="124.9" r="6.3"/>
	<circle class="st7" cx="803.6" cy="105.3" r="6.3"/>
</g>
<g>
	<circle class="st7" cx="778.5" cy="498" r="6.3"/>
	<circle class="st7" cx="778.5" cy="478.5" r="6.3"/>
	<circle class="st7" cx="778.5" cy="459" r="6.3"/>
	<circle class="st7" cx="778.5" cy="439.5" r="6.3"/>
	<circle class="st7" cx="778.5" cy="419.9" r="6.3"/>
	<circle class="st7" cx="778.5" cy="395.4" r="6.3"/>
	<circle class="st7" cx="778.5" cy="375.9" r="6.3"/>
	<circle class="st7" cx="778.5" cy="356.4" r="6.3"/>
	<circle class="st7" cx="778.5" cy="336.9" r="6.3"/>
	<circle class="st7" cx="778.5" cy="317.4" r="6.3"/>
	<circle class="st7" cx="778.5" cy="290.9" r="6.3"/>
	<circle class="st7" cx="778.5" cy="271.4" r="6.3"/>
	<circle class="st7" cx="778.5" cy="251.9" r="6.3"/>
	<circle class="st7" cx="778.5" cy="232.4" r="6.3"/>
	<circle class="st7" cx="778.5" cy="212.9" r="6.3"/>
	<circle class="st7" cx="778.5" cy="183.4" r="6.3"/>
</g>
<g>
	<circle class="st7" cx="753.3" cy="498" r="6.3"/>
	<circle class="st7" cx="753.3" cy="478.5" r="6.3"/>
	<circle class="st7" cx="753.3" cy="459" r="6.3"/>
	<circle class="st7" cx="753.3" cy="439.5" r="6.3"/>
	<circle class="st7" cx="753.3" cy="419.9" r="6.3"/>
	<circle class="st7" cx="753.3" cy="395.4" r="6.3"/>
	<circle class="st7" cx="753.3" cy="375.9" r="6.3"/>
	<circle class="st7" cx="753.3" cy="356.4" r="6.3"/>
	<circle class="st7" cx="753.3" cy="336.9" r="6.3"/>
	<circle class="st7" cx="753.3" cy="317.4" r="6.3"/>
	<circle class="st7" cx="753.3" cy="290.9" r="6.3"/>
	<circle class="st7" cx="753.3" cy="271.4" r="6.3"/>
</g>
<g>
	<circle class="st7" cx="728.1" cy="498" r="6.3"/>
	<circle class="st7" cx="728.1" cy="478.5" r="6.3"/>
	<circle class="st7" cx="728.1" cy="459" r="6.3"/>
	<circle class="st7" cx="728.1" cy="439.5" r="6.3"/>
	<circle class="st7" cx="728.1" cy="419.9" r="6.3"/>
	<circle class="st7" cx="728.1" cy="395.4" r="6.3"/>
	<circle class="st7" cx="728.1" cy="375.9" r="6.3"/>
	<circle class="st7" cx="728.1" cy="356.4" r="6.3"/>
	<circle class="st7" cx="728.1" cy="336.9" r="6.3"/>
	<circle class="st7" cx="728.1" cy="317.4" r="6.3"/>
	<circle class="st7" cx="728.1" cy="290.9" r="6.3"/>
	<circle class="st7" cx="728.1" cy="271.4" r="6.3"/>
	<circle class="st7" cx="728.1" cy="251.9" r="6.3"/>
	<circle class="st7" cx="728.1" cy="232.4" r="6.3"/>
	<circle class="st7" cx="728.1" cy="212.9" r="6.3"/>
</g>
<g>
	<circle class="st7" cx="702.9" cy="498" r="6.3"/>
	<circle class="st7" cx="702.9" cy="478.5" r="6.3"/>
	<circle class="st7" cx="702.9" cy="459" r="6.3"/>
	<circle class="st7" cx="702.9" cy="439.5" r="6.3"/>
	<circle class="st7" cx="702.9" cy="419.9" r="6.3"/>
	<circle class="st7" cx="702.9" cy="395.4" r="6.3"/>
	<circle class="st7" cx="702.9" cy="375.9" r="6.3"/>
	<circle class="st7" cx="702.9" cy="356.4" r="6.3"/>
	<circle class="st7" cx="702.9" cy="336.9" r="6.3"/>
	<circle class="st7" cx="702.9" cy="317.4" r="6.3"/>
	<circle class="st7" cx="702.9" cy="290.9" r="6.3"/>
	<circle class="st7" cx="702.9" cy="271.4" r="6.3"/>
</g>
<g>
	<circle class="st7" cx="677.8" cy="498" r="6.3"/>
	<circle class="st7" cx="677.8" cy="478.5" r="6.3"/>
	<circle class="st7" cx="677.8" cy="459" r="6.3"/>
	<circle class="st7" cx="677.8" cy="439.5" r="6.3"/>
	<circle class="st7" cx="677.8" cy="419.9" r="6.3"/>
	<circle class="st7" cx="677.8" cy="395.4" r="6.3"/>
	<circle class="st7" cx="677.8" cy="375.9" r="6.3"/>
	<circle class="st7" cx="677.8" cy="356.4" r="6.3"/>
	<circle class="st7" cx="677.8" cy="336.9" r="6.3"/>
	<circle class="st7" cx="677.8" cy="317.4" r="6.3"/>
	<circle class="st7" cx="677.8" cy="290.9" r="6.3"/>
	<circle class="st7" cx="677.8" cy="271.4" r="6.3"/>
	<circle class="st7" cx="677.8" cy="251.9" r="6.3"/>
	<circle class="st7" cx="677.8" cy="232.4" r="6.3"/>
	<circle class="st7" cx="677.8" cy="212.9" r="6.3"/>
</g>
<g>
	<circle class="st7" cx="652.6" cy="498" r="6.3"/>
	<circle class="st7" cx="652.6" cy="478.5" r="6.3"/>
	<circle class="st7" cx="652.6" cy="459" r="6.3"/>
	<circle class="st7" cx="652.6" cy="439.5" r="6.3"/>
	<circle class="st7" cx="652.6" cy="419.9" r="6.3"/>
	<circle class="st7" cx="652.6" cy="395.4" r="6.3"/>
	<circle class="st7" cx="652.6" cy="375.9" r="6.3"/>
	<circle class="st7" cx="652.6" cy="356.4" r="6.3"/>
	<circle class="st7" cx="652.6" cy="336.9" r="6.3"/>
	<circle class="st7" cx="652.6" cy="317.4" r="6.3"/>
	<circle class="st7" cx="652.6" cy="290.9" r="6.3"/>
	<circle class="st7" cx="652.6" cy="271.4" r="6.3"/>
	<circle class="st7" cx="652.6" cy="251.9" r="6.3"/>
	<circle class="st7" cx="652.6" cy="232.4" r="6.3"/>
	<circle class="st7" cx="652.6" cy="212.9" r="6.3"/>
	<circle class="st7" cx="652.6" cy="183.4" r="6.3"/>
</g>
<g>
	<circle class="st7" cx="627.4" cy="498" r="6.3"/>
	<circle class="st7" cx="627.4" cy="478.5" r="6.3"/>
	<circle class="st7" cx="627.4" cy="459" r="6.3"/>
	<circle class="st7" cx="627.4" cy="439.5" r="6.3"/>
	<circle class="st7" cx="627.4" cy="419.9" r="6.3"/>
	<circle class="st7" cx="627.4" cy="395.4" r="6.3"/>
	<circle class="st7" cx="627.4" cy="375.9" r="6.3"/>
	<circle class="st7" cx="627.4" cy="356.4" r="6.3"/>
	<circle class="st7" cx="627.4" cy="336.9" r="6.3"/>
	<circle class="st7" cx="627.4" cy="317.4" r="6.3"/>
	<circle class="st7" cx="627.4" cy="290.9" r="6.3"/>
	<circle class="st7" cx="627.4" cy="271.4" r="6.3"/>
	<circle class="st7" cx="627.4" cy="251.9" r="6.3"/>
	<circle class="st7" cx="627.4" cy="232.4" r="6.3"/>
</g>
<g>
	<circle class="st7" cx="602.3" cy="498" r="6.3"/>
	<circle class="st7" cx="602.3" cy="478.5" r="6.3"/>
	<circle class="st7" cx="602.3" cy="459" r="6.3"/>
	<circle class="st7" cx="602.3" cy="439.5" r="6.3"/>
	<circle class="st7" cx="602.3" cy="419.9" r="6.3"/>
	<circle class="st7" cx="602.3" cy="395.4" r="6.3"/>
	<circle class="st7" cx="602.3" cy="375.9" r="6.3"/>
	<circle class="st7" cx="602.3" cy="356.4" r="6.3"/>
	<circle class="st7" cx="602.3" cy="336.9" r="6.3"/>
	<circle class="st7" cx="602.3" cy="317.4" r="6.3"/>
	<circle class="st7" cx="602.3" cy="290.9" r="6.3"/>
	<circle class="st7" cx="602.3" cy="271.4" r="6.3"/>
	<circle class="st7" cx="602.3" cy="251.9" r="6.3"/>
	<circle class="st7" cx="602.3" cy="232.4" r="6.3"/>
</g>
<g>
	<circle class="st7" cx="577.1" cy="498" r="6.3"/>
	<circle class="st7" cx="577.1" cy="478.5" r="6.3"/>
	<circle class="st7" cx="577.1" cy="459" r="6.3"/>
	<circle class="st7" cx="577.1" cy="439.5" r="6.3"/>
	<circle class="st7" cx="577.1" cy="419.9" r="6.3"/>
	<circle class="st7" cx="577.1" cy="395.4" r="6.3"/>
	<circle class="st7" cx="577.1" cy="375.9" r="6.3"/>
	<circle class="st7" cx="577.1" cy="356.4" r="6.3"/>
	<circle class="st7" cx="577.1" cy="336.9" r="6.3"/>
	<circle class="st7" cx="577.1" cy="317.4" r="6.3"/>
	<circle class="st7" cx="577.1" cy="290.9" r="6.3"/>
	<circle class="st7" cx="577.1" cy="271.4" r="6.3"/>
	<circle class="st7" cx="577.1" cy="251.9" r="6.3"/>
</g>
<g>
	<circle class="st7" cx="551.9" cy="498" r="6.3"/>
	<circle class="st7" cx="551.9" cy="478.5" r="6.3"/>
	<circle class="st7" cx="551.9" cy="459" r="6.3"/>
	<circle class="st7" cx="551.9" cy="439.5" r="6.3"/>
	<circle class="st7" cx="551.9" cy="419.9" r="6.3"/>
	<circle class="st7" cx="551.9" cy="395.4" r="6.3"/>
	<circle class="st7" cx="551.9" cy="375.9" r="6.3"/>
	<circle class="st7" cx="551.9" cy="356.4" r="6.3"/>
	<circle class="st7" cx="551.9" cy="336.9" r="6.3"/>
	<circle class="st7" cx="551.9" cy="317.4" r="6.3"/>
</g>
<g>
	<circle class="st7" cx="526.7" cy="498" r="6.3"/>
	<circle class="st7" cx="526.7" cy="478.5" r="6.3"/>
	<circle class="st7" cx="526.7" cy="459" r="6.3"/>
	<circle class="st7" cx="526.7" cy="439.5" r="6.3"/>
	<circle class="st7" cx="526.7" cy="419.9" r="6.3"/>
	<circle class="st7" cx="526.7" cy="395.4" r="6.3"/>
	<circle class="st7" cx="526.7" cy="375.9" r="6.3"/>
	<circle class="st7" cx="526.7" cy="356.4" r="6.3"/>
	<circle class="st7" cx="526.7" cy="336.9" r="6.3"/>
	<circle class="st7" cx="526.7" cy="317.4" r="6.3"/>
	<circle class="st7" cx="526.7" cy="290.9" r="6.3"/>
	<circle class="st7" cx="526.7" cy="271.4" r="6.3"/>
</g>
<g>
	<circle class="st7" cx="501.6" cy="498" r="6.3"/>
	<circle class="st7" cx="501.6" cy="478.5" r="6.3"/>
	<circle class="st7" cx="501.6" cy="459" r="6.3"/>
	<circle class="st7" cx="501.6" cy="439.5" r="6.3"/>
	<circle class="st7" cx="501.6" cy="419.9" r="6.3"/>
	<circle class="st7" cx="501.6" cy="395.4" r="6.3"/>
	<circle class="st7" cx="501.6" cy="375.9" r="6.3"/>
	<circle class="st7" cx="501.6" cy="356.4" r="6.3"/>
	<circle class="st7" cx="501.6" cy="336.9" r="6.3"/>
	<circle class="st7" cx="501.6" cy="317.4" r="6.3"/>
	<circle class="st7" cx="501.6" cy="290.9" r="6.3"/>
	<circle class="st7" cx="501.6" cy="271.4" r="6.3"/>
	<circle class="st7" cx="501.6" cy="251.9" r="6.3"/>
	<circle class="st7" cx="501.6" cy="232.4" r="6.3"/>
	<circle class="st7" cx="501.6" cy="212.9" r="6.3"/>
</g>
<g>
	<circle class="st7" cx="476.4" cy="498" r="6.3"/>
	<circle class="st7" cx="476.4" cy="478.5" r="6.3"/>
	<circle class="st7" cx="476.4" cy="459" r="6.3"/>
	<circle class="st7" cx="476.4" cy="439.5" r="6.3"/>
	<circle class="st7" cx="476.4" cy="419.9" r="6.3"/>
	<circle class="st7" cx="476.4" cy="395.4" r="6.3"/>
	<circle class="st7" cx="476.4" cy="375.9" r="6.3"/>
	<circle class="st7" cx="476.4" cy="356.4" r="6.3"/>
</g>
<g>
	<circle class="st7" cx="451.2" cy="498" r="6.3"/>
	<circle class="st7" cx="451.2" cy="478.5" r="6.3"/>
	<circle class="st7" cx="451.2" cy="459" r="6.3"/>
	<circle class="st7" cx="451.2" cy="439.5" r="6.3"/>
	<circle class="st7" cx="451.2" cy="419.9" r="6.3"/>
	<circle class="st7" cx="451.2" cy="395.4" r="6.3"/>
	<circle class="st7" cx="451.2" cy="375.9" r="6.3"/>
	<circle class="st7" cx="451.2" cy="356.4" r="6.3"/>
	<circle class="st7" cx="451.2" cy="336.9" r="6.3"/>
</g>
<g>
	<circle class="st7" cx="426.1" cy="498" r="6.3"/>
	<circle class="st7" cx="426.1" cy="478.5" r="6.3"/>
	<circle class="st7" cx="426.1" cy="459" r="6.3"/>
	<circle class="st7" cx="426.1" cy="439.5" r="6.3"/>
	<circle class="st7" cx="426.1" cy="419.9" r="6.3"/>
	<circle class="st7" cx="426.1" cy="395.4" r="6.3"/>
	<circle class="st7" cx="426.1" cy="375.9" r="6.3"/>
	<circle class="st7" cx="426.1" cy="356.4" r="6.3"/>
	<circle class="st7" cx="426.1" cy="336.9" r="6.3"/>
	<circle class="st7" cx="426.1" cy="317.4" r="6.3"/>
	<circle class="st7" cx="426.1" cy="290.9" r="6.3"/>
	<circle class="st7" cx="426.1" cy="271.4" r="6.3"/>
	<circle class="st7" cx="426.1" cy="251.9" r="6.3"/>
	<circle class="st7" cx="426.1" cy="232.4" r="6.3"/>
	<circle class="st7" cx="426.1" cy="212.9" r="6.3"/>
	<circle class="st7" cx="426.1" cy="183.4" r="6.3"/>
</g>
<g>
	<circle class="st7" cx="400.9" cy="498" r="6.3"/>
	<circle class="st7" cx="400.9" cy="478.5" r="6.3"/>
	<circle class="st7" cx="400.9" cy="459" r="6.3"/>
	<circle class="st7" cx="400.9" cy="439.5" r="6.3"/>
	<circle class="st7" cx="400.9" cy="419.9" r="6.3"/>
	<circle class="st7" cx="400.9" cy="395.4" r="6.3"/>
	<circle class="st7" cx="400.9" cy="375.9" r="6.3"/>
	<circle class="st7" cx="400.9" cy="356.4" r="6.3"/>
	<circle class="st7" cx="400.9" cy="336.9" r="6.3"/>
	<circle class="st7" cx="400.9" cy="317.4" r="6.3"/>
	<circle class="st7" cx="400.9" cy="290.9" r="6.3"/>
	<circle class="st7" cx="400.9" cy="271.4" r="6.3"/>
	<circle class="st7" cx="400.9" cy="251.9" r="6.3"/>
	<circle class="st7" cx="400.9" cy="232.4" r="6.3"/>
</g>
<g>
	<circle class="st7" cx="375.7" cy="498" r="6.3"/>
	<circle class="st7" cx="375.7" cy="478.5" r="6.3"/>
	<circle class="st7" cx="375.7" cy="459" r="6.3"/>
	<circle class="st7" cx="375.7" cy="439.5" r="6.3"/>
	<circle class="st7" cx="375.7" cy="419.9" r="6.3"/>
	<circle class="st7" cx="375.7" cy="395.4" r="6.3"/>
	<circle class="st7" cx="375.7" cy="375.9" r="6.3"/>
	<circle class="st7" cx="375.7" cy="356.4" r="6.3"/>
	<circle class="st7" cx="375.7" cy="336.9" r="6.3"/>
</g>
<g>
	<circle class="st7" cx="350.5" cy="498" r="6.3"/>
	<circle class="st7" cx="350.5" cy="478.5" r="6.3"/>
	<circle class="st7" cx="350.5" cy="459" r="6.3"/>
	<circle class="st7" cx="350.5" cy="439.5" r="6.3"/>
	<circle class="st7" cx="350.5" cy="419.9" r="6.3"/>
	<circle class="st7" cx="350.5" cy="395.4" r="6.3"/>
	<circle class="st7" cx="350.5" cy="375.9" r="6.3"/>
	<circle class="st7" cx="350.5" cy="356.4" r="6.3"/>
	<circle class="st7" cx="350.5" cy="336.9" r="6.3"/>
	<circle class="st7" cx="350.5" cy="317.4" r="6.3"/>
	<circle class="st7" cx="350.5" cy="290.9" r="6.3"/>
	<circle class="st7" cx="350.5" cy="271.4" r="6.3"/>
</g>
<g>
	<circle class="st7" cx="325.4" cy="498" r="6.3"/>
	<circle class="st7" cx="325.4" cy="478.5" r="6.3"/>
	<circle class="st7" cx="325.4" cy="459" r="6.3"/>
	<circle class="st7" cx="325.4" cy="439.5" r="6.3"/>
	<circle class="st7" cx="325.4" cy="419.9" r="6.3"/>
	<circle class="st7" cx="325.4" cy="395.4" r="6.3"/>
	<circle class="st7" cx="325.4" cy="375.9" r="6.3"/>
	<circle class="st7" cx="325.4" cy="356.4" r="6.3"/>
	<circle class="st7" cx="325.4" cy="336.9" r="6.3"/>
	<circle class="st7" cx="325.4" cy="317.4" r="6.3"/>
	<circle class="st7" cx="325.4" cy="290.9" r="6.3"/>
</g>
<g>
	<circle class="st7" cx="300.2" cy="498" r="6.3"/>
	<circle class="st7" cx="300.2" cy="478.5" r="6.3"/>
	<circle class="st7" cx="300.2" cy="459" r="6.3"/>
	<circle class="st7" cx="300.2" cy="439.5" r="6.3"/>
	<circle class="st7" cx="300.2" cy="419.9" r="6.3"/>
	<circle class="st7" cx="300.2" cy="395.4" r="6.3"/>
	<circle class="st7" cx="300.2" cy="375.9" r="6.3"/>
	<circle class="st7" cx="300.2" cy="356.4" r="6.3"/>
	<circle class="st7" cx="300.2" cy="336.9" r="6.3"/>
	<circle class="st7" cx="300.2" cy="317.4" r="6.3"/>
	<circle class="st7" cx="300.2" cy="290.9" r="6.3"/>
	<circle class="st7" cx="300.2" cy="271.4" r="6.3"/>
</g>
<g>
	<circle class="st7" cx="275" cy="498" r="6.3"/>
	<circle class="st7" cx="275" cy="478.5" r="6.3"/>
	<circle class="st7" cx="275" cy="459" r="6.3"/>
	<circle class="st7" cx="275" cy="439.5" r="6.3"/>
	<circle class="st7" cx="275" cy="419.9" r="6.3"/>
	<circle class="st7" cx="275" cy="395.4" r="6.3"/>
	<circle class="st7" cx="275" cy="375.9" r="6.3"/>
	<circle class="st7" cx="275" cy="356.4" r="6.3"/>
	<circle class="st7" cx="275" cy="336.9" r="6.3"/>
</g>
<g>
	<circle class="st7" cx="249.9" cy="498" r="6.3"/>
	<circle class="st7" cx="249.9" cy="478.5" r="6.3"/>
	<circle class="st7" cx="249.9" cy="459" r="6.3"/>
	<circle class="st7" cx="249.9" cy="439.5" r="6.3"/>
	<circle class="st7" cx="249.9" cy="419.9" r="6.3"/>
	<circle class="st7" cx="249.9" cy="395.4" r="6.3"/>
	<circle class="st7" cx="249.9" cy="375.9" r="6.3"/>
	<circle class="st7" cx="249.9" cy="356.4" r="6.3"/>
	<circle class="st7" cx="249.9" cy="336.9" r="6.3"/>
	<circle class="st7" cx="249.9" cy="317.4" r="6.3"/>
	<circle class="st7" cx="249.9" cy="290.9" r="6.3"/>
</g>
<g>
	<circle class="st7" cx="224.7" cy="498" r="6.3"/>
	<circle class="st7" cx="224.7" cy="478.5" r="6.3"/>
	<circle class="st7" cx="224.7" cy="459" r="6.3"/>
	<circle class="st7" cx="224.7" cy="439.5" r="6.3"/>
	<circle class="st7" cx="224.7" cy="419.9" r="6.3"/>
	<circle class="st7" cx="224.7" cy="395.4" r="6.3"/>
	<circle class="st7" cx="224.7" cy="375.9" r="6.3"/>
	<circle class="st7" cx="224.7" cy="356.4" r="6.3"/>
</g>
<g>
	<circle class="st7" cx="199.5" cy="498" r="6.3"/>
	<circle class="st7" cx="199.5" cy="478.5" r="6.3"/>
	<circle class="st7" cx="199.5" cy="459" r="6.3"/>
	<circle class="st7" cx="199.5" cy="439.5" r="6.3"/>
	<circle class="st7" cx="199.5" cy="419.9" r="6.3"/>
	<circle class="st7" cx="199.5" cy="395.4" r="6.3"/>
	<circle class="st7" cx="199.5" cy="375.9" r="6.3"/>
	<circle class="st7" cx="199.5" cy="356.4" r="6.3"/>
	<circle class="st7" cx="199.5" cy="336.9" r="6.3"/>
	<circle class="st7" cx="199.5" cy="317.4" r="6.3"/>
	<circle class="st7" cx="199.5" cy="290.9" r="6.3"/>
</g>
<g>
	<circle class="st7" cx="174.3" cy="498" r="6.3"/>
	<circle class="st7" cx="174.3" cy="478.5" r="6.3"/>
	<circle class="st7" cx="174.3" cy="459" r="6.3"/>
	<circle class="st7" cx="174.3" cy="439.5" r="6.3"/>
	<circle class="st7" cx="174.3" cy="419.9" r="6.3"/>
	<circle class="st7" cx="174.3" cy="395.4" r="6.3"/>
	<circle class="st7" cx="174.3" cy="375.9" r="6.3"/>
	<circle class="st7" cx="174.3" cy="356.4" r="6.3"/>
	<circle class="st7" cx="174.3" cy="336.9" r="6.3"/>
</g>
<g>
	<circle class="st7" cx="149.2" cy="498" r="6.3"/>
	<circle class="st7" cx="149.2" cy="478.5" r="6.3"/>
	<circle class="st7" cx="149.2" cy="459" r="6.3"/>
	<circle class="st7" cx="149.2" cy="439.5" r="6.3"/>
	<circle class="st7" cx="149.2" cy="419.9" r="6.3"/>
	<circle class="st7" cx="149.2" cy="395.4" r="6.3"/>
	<circle class="st7" cx="149.2" cy="375.9" r="6.3"/>
	<circle class="st7" cx="149.2" cy="356.4" r="6.3"/>
	<circle class="st7" cx="149.2" cy="336.9" r="6.3"/>
	<circle class="st7" cx="149.2" cy="317.4" r="6.3"/>
	<circle class="st7" cx="149.2" cy="290.9" r="6.3"/>
</g>
<g>
	<circle class="st7" cx="124" cy="498" r="6.3"/>
	<circle class="st7" cx="124" cy="478.5" r="6.3"/>
	<circle class="st7" cx="124" cy="459" r="6.3"/>
	<circle class="st7" cx="124" cy="439.5" r="6.3"/>
	<circle class="st7" cx="124" cy="419.9" r="6.3"/>
	<circle class="st7" cx="124" cy="395.4" r="6.3"/>
	<circle class="st7" cx="124" cy="375.9" r="6.3"/>
	<circle class="st7" cx="124" cy="356.4" r="6.3"/>
	<circle class="st7" cx="124" cy="336.9" r="6.3"/>
	<circle class="st7" cx="124" cy="317.4" r="6.3"/>
</g>
<g>
	<circle class="st7" cx="98.8" cy="498" r="6.3"/>
	<circle class="st7" cx="98.8" cy="478.5" r="6.3"/>
	<circle class="st7" cx="98.8" cy="459" r="6.3"/>
	<circle class="st7" cx="98.8" cy="439.5" r="6.3"/>
	<circle class="st7" cx="98.8" cy="419.9" r="6.3"/>
	<circle class="st7" cx="98.8" cy="395.4" r="6.3"/>
	<circle class="st7" cx="98.8" cy="375.9" r="6.3"/>
	<circle class="st7" cx="98.8" cy="356.4" r="6.3"/>
	<circle class="st7" cx="98.8" cy="336.9" r="6.3"/>
</g>
<g>
	<circle class="st7" cx="73.7" cy="498" r="6.3"/>
	<circle class="st7" cx="73.7" cy="478.5" r="6.3"/>
	<circle class="st7" cx="73.7" cy="459" r="6.3"/>
	<circle class="st7" cx="73.7" cy="439.5" r="6.3"/>
	<circle class="st7" cx="73.7" cy="419.9" r="6.3"/>
	<circle class="st7" cx="73.7" cy="395.4" r="6.3"/>
</g>
<g>
	<circle class="st8" cx="48.5" cy="498" r="6.3"/>
	<circle class="st8" cx="48.5" cy="478.5" r="6.3"/>
	<circle class="st8" cx="48.5" cy="459" r="6.3"/>
	<circle class="st8" cx="48.5" cy="439.5" r="6.3"/>
	<circle class="st8" cx="48.5" cy="419.9" r="6.3"/>
	<circle class="st8" cx="48.5" cy="395.4" r="6.3"/>
	<circle class="st8" cx="48.5" cy="375.9" r="6.3"/>
	<circle class="st8" cx="48.5" cy="356.4" r="6.3"/>
	<circle class="st8" cx="48.5" cy="336.9" r="6.3"/>
</g>
</svg>
