<?xml version="1.0" encoding="utf-8"?>
<!-- Generator: Adobe Illustrator 24.0.1, SVG Export Plug-In . SVG Version: 6.00 Build 0)  -->
<svg version="1.1" id="Layer_1" xmlns="http://www.w3.org/2000/svg" xmlns:xlink="http://www.w3.org/1999/xlink" x="0px" y="0px"
	 viewBox="0 0 1403.8 562.6" style="enable-background:new 0 0 1403.8 562.6;" xml:space="preserve">
<style type="text/css">
	.st0{fill:#FFFFFF;}
	
		.st1{fill-rule:evenodd;clip-rule:evenodd;fill:none;stroke:#689FB1;stroke-width:15;stroke-linecap:round;stroke-linejoin:round;stroke-miterlimit:10;}
	.st2{fill:#689FB1;}
	.st3{fill-rule:evenodd;clip-rule:evenodd;fill:#FFFFFF;}
	.st4{fill:#F9F9F9;stroke:#F5D032;stroke-width:3;}
	.st5{fill:none;stroke:#F5D032;stroke-width:3;}
	.st6{fill-rule:evenodd;clip-rule:evenodd;fill:#F5D032;}
	.st7{fill:none;stroke:#F5D032;stroke-width:2;}
	.st8{fill:none;stroke:#F5D032;stroke-width:2;stroke-linecap:round;stroke-linejoin:round;}
	.st9{fill-rule:evenodd;clip-rule:evenodd;fill:#528C9C;}
	.st10{fill-rule:evenodd;clip-rule:evenodd;fill:#FFFFFF;stroke:#F5D032;stroke-width:3;}
	.st11{fill:none;stroke:#F5D032;stroke-width:3;stroke-linecap:round;}
	
		.st12{fill-rule:evenodd;clip-rule:evenodd;fill:#FFFFFF;stroke:#689FB1;stroke-width:3;stroke-linecap:round;stroke-linejoin:round;}
	.st13{fill-rule:evenodd;clip-rule:evenodd;fill:#689FB1;stroke:#689FB1;stroke-miterlimit:10;}
	.st14{fill:#689FB1;stroke:#689FB1;stroke-width:3;stroke-linecap:round;stroke-linejoin:round;}
	
		.st15{fill-rule:evenodd;clip-rule:evenodd;fill:#689FB1;stroke:#689FB1;stroke-width:3;stroke-linecap:round;stroke-linejoin:round;}
	.st16{fill-rule:evenodd;clip-rule:evenodd;fill:#689FB1;}
	.st17{fill:none;stroke:#689FB1;stroke-width:3;stroke-linecap:round;stroke-linejoin:round;}
	.st18{fill-rule:evenodd;clip-rule:evenodd;fill:#FCFCFC;}
	.st19{fill:#FFFFFF;stroke:#F5D032;stroke-width:3;}
	.st20{fill-rule:evenodd;clip-rule:evenodd;fill:none;stroke:#689FB1;stroke-width:7;stroke-miterlimit:10;}
	.st21{fill:none;stroke:#689FB1;stroke-width:15;stroke-linecap:round;stroke-linejoin:round;stroke-miterlimit:10;}
	.st22{fill:none;stroke:#689FB1;stroke-width:7;stroke-miterlimit:10;}
</style>
<path class="st0" d="M1150.6,314.5c-48-5.7-100.8-9-156.1-9.1c-1.2,0-2.4,0-3.6,0c-75.5,0-146.3,5.8-206.9,15.8
	c-16.5,2.7-32.2,5.8-47.1,9.1c-93.9,21-154.1,53.3-154.1,89.6c0,63.3,182.7,114.5,408.1,114.5S1399,483.2,1399,420
	C1399,372.6,1296.6,332,1150.6,314.5z"/>
<polyline class="st1" points="978.1,482.5 934.8,34.4 891.5,482.5 "/>
<path class="st2" d="M883.8,367.2l123,31.3c3.7,0.9,5.9,4.7,5,8.4l-0.4,1.5c-0.9,3.7-4.7,5.9-8.4,5l-123-31.3
	c-3.7-0.9-5.9-4.7-5-8.4l0.4-1.5C876.4,368.4,880.2,366.2,883.8,367.2z"/>
<path class="st2" d="M1128.6,368.4H1251c5.5,0,10,4.5,10,10l0,0c0,5.5-4.5,10-10,10h-122.4c-5.5,0-10-4.5-10-10l0,0
	C1118.6,372.8,1123.1,368.4,1128.6,368.4z"/>
<ellipse class="st3" cx="202" cy="409.5" rx="152.9" ry="53.6"/>
<title>Untitled-2</title>
<g id="Group-2">
	<path id="Stroke-48" class="st4" d="M191.6,328.9l10.8-6.6c0,0,5.3,5,10.4-0.3c5.1-5.3,3.2-10.7,1-14.5c-2.6-4-7.9-5.2-11.9-2.6
		c-0.2,0.1-0.4,0.3-0.6,0.4c-3.6,2.9-2,9.1-2,9.1l-14.8,6.6L191.6,328.9z"/>
	<path id="Stroke-48-2" class="st4" d="M82.1,331l-10.8-6.5c0,0-5.3,5-10.4-0.3c-5.1-5.3-3.2-10.7-1-14.5c2.6-4,7.9-5.2,11.8-2.6
		c0.2,0.1,0.4,0.3,0.6,0.4c3.6,2.9,2,9.1,2,9.1l14.8,6.6L82.1,331z"/>
	<polygon id="Stroke-52" class="st4" points="122.7,399 137.6,430 144.9,427.3 133.4,394.1 	"/>
	<polygon id="Stroke-56" class="st4" points="151.5,395 182.8,409.2 186.7,402.4 156.5,384.4 	"/>
	<path id="Fill-58" class="st3" d="M110.1,284.4c-0.6-8.9,1.6-15.6,7.2-17c5.6-1.4,35.8-3,40.9,3c5,6-4.7,29.6-7.1,32
		c-2.6,2.7-5.1,9.3-5.9,12s1.2,8.4,1.2,8.4l-15.5-1.8c0,0-4.5-13.8-8-15.4c-3.7-1.8-6.8-4.7-8.7-8.3c-2.5-4.9-3.8-9.1-4.1-13"/>
	<path id="Stroke-60" class="st5" d="M110.1,284.4c-0.6-8.9,1.6-15.6,7.2-17c5.6-1.4,35.8-3,40.9,3c5,6-4.7,29.6-7.1,32
		c-2.6,2.7-5.1,9.3-5.9,12s1.2,8.4,1.2,8.4l-15.5-1.8c0,0-4.5-13.8-8-15.4c-3.7-1.8-6.8-4.7-8.7-8.3
		C111.7,292.4,110.4,288.2,110.1,284.4z"/>
	<path id="Fill-62" class="st6" d="M132.9,313.1c-6.6,0.7-17.9,1.2-26.6,2.3c-7.8,1-16.5-2-23.9,1.8c-3.8,2-8.4,11.2-0.4,16.3
		c8,5.1,30.3,4.8,30.3,4.8s-12.8,49.9-1.9,60.5c11.1,10.7,52.4,8.8,61.6-3.5c8.4-11.2-13-54.2-13-54.2s27.6,0.7,32.6-4.4
		c4.9-5.1,4.9-10.5,3.8-13.7c-3.1-9-13.5-8.9-29.3-10C155,312,143.9,312.1,132.9,313.1"/>
	<path id="Fill-64" class="st6" d="M135.6,430.1c-5.2-3.2-2.6-10.5,0.8-13.9c2.5-2.5,9.6-1.4,11.1,1c1.5,2.4,1.7,5.4-1.3,9.8
		C144.2,430,140.6,433.1,135.6,430.1"/>
	<path id="Fill-66" class="st6" d="M185.9,410.9c-4.1,0-4.8-6.5-3.8-10.5c0.8-3,5.4-5.3,7.1-4.3s2.7,3.2,2.2,7.8
		C191.2,407,189.9,411,185.9,410.9"/>
	<path id="Fill-68" class="st6" d="M102.5,295.7c1.4,3.2,10.3,2.3,12.4-0.5c3.7-4.7-1.4-13,1.3-17.1s5.9-2.7,16.7-2.9
		c10.8-0.2,15.7-3,18.3-2.6c2.6,0.4,1.5,14.9,4.6,19.5c1.7,2.5,8.3,1.8,10.3-0.4c10.3-11.7-0.1-32.6-12.6-39s-37.7-4.3-46.3,4.6
		C98.8,266.2,98.7,286.8,102.5,295.7"/>
	<path id="Fill-70" class="st3" d="M118.1,289.4c-0.4-1.7-1.4-4.2-4.5-4.3c-3.2-0.1-5.2,1-5.4,4.1c-0.1,2.3,3.2,7,6,6.7
		c2.8-0.3,3.5-3.4,3.5-3.4C117.9,291.4,118.1,290.4,118.1,289.4"/>
	<path id="Fill-72" class="st3" d="M152.7,285.4c1-1.6,2.3-3.5,6.3-2.9c4,0.6,4.9,1.9,5,5.1c0.1,2.5-4.3,6-8.2,5.6
		c-3.6-0.4-3.5-4.4-3.5-4.4S152.3,286.1,152.7,285.4"/>
	<path id="Fill-74" class="st3" d="M131.2,290c1.9-1.2,4.2-1.6,6.4-1.2c1.4,0.3,3.7,1.4,2.9,2.6s-3.7-0.7-5.5-0.5
		c-1.8,0.2-4.5,2.8-5.7,2.2C128.3,292.5,130,290.9,131.2,290"/>
	<path id="Stroke-76" class="st7" d="M131.4,290.3c2.6-1.6,5.7-2.2,8.7-1.7c1.9,0.4,4.9,1.8,3.8,3.5s-5,1-7.4,1.3
		c-2.5,0.3-6,1.8-7.7,1C127.4,293.6,129.7,291.5,131.4,290.3z"/>
	<polyline id="Stroke-78" class="st8" points="143.2,279.9 139.1,282 145.1,283.6 	"/>
	<polyline id="Stroke-80" class="st8" points="126.4,281.1 132,282.9 125.9,287.2 	"/>
	<path id="Fill-82" class="st9" d="M119.8,287.2c-2.6,0-5.3,0.3-7.9,0.9c-2.5,0.9-1.6,5.3,0.4,4.7
		C115.1,291.2,117.6,289.3,119.8,287.2"/>
	<path id="Fill-84" class="st9" d="M149,286c2.3,0,4.6,0.2,6.9,0.8c2.1,0.8,1.4,4.7-0.4,4.1C153.1,289.5,151,287.8,149,286"/>
	<path id="Fill-86" class="st9" d="M168.7,295.8c2.5,0.7,5,1.6,7.3,2.8c2.1,1.4,0,4.6-1.8,3.5C172.1,300.2,170.3,298.1,168.7,295.8"
		/>
	<path id="Fill-88" class="st9" d="M103,302.2c-3,1.2-5.8,2.6-8.5,4.4c-2.4,2.1,0.5,6.2,2.4,4.6C98.9,309.5,103,302.2,103,302.2"/>
	<path id="Fill-90" class="st9" d="M84.3,315.3c0,0-8.7,4.9-12,8.6s1.4,10.4,4.2,7.5C79.2,328.5,84.3,315.3,84.3,315.3"/>
</g>
<path class="st2" d="M289.4,384.9h13.8c1.3,0,2.3-1,2.3-2.3v-13.8c0-1.3-1-2.3-2.3-2.3h-13.8c-1.3,0-2.3,1-2.3,2.3v13.8
	C287.1,383.9,288.1,384.9,289.4,384.9z"/>
<path class="st2" d="M295.3,364.3h13.8c1.3,0,2.3-1,2.3-2.3v-13.8c0-1.3-1-2.3-2.3-2.3h-13.8c-1.3,0-2.3,1-2.3,2.3V362
	C293,363.2,294,364.3,295.3,364.3z"/>
<path class="st2" d="M289.4,346.7h13.8c1.3,0,2.3-1,2.3-2.3v-13.8c0-1.3-1-2.3-2.3-2.3h-13.8c-1.3,0-2.3,1-2.3,2.3v13.8
	C287.1,345.6,288.1,346.7,289.4,346.7z"/>
<path class="st2" d="M232.3,382.7h18.4c1.3,0,2.3-1,2.3-2.3V362c0-1.3-1-2.3-2.3-2.3h-18.4c-1.3,0-2.3,1-2.3,2.3v18.4
	C230,381.6,231.1,382.7,232.3,382.7z"/>
<path class="st2" d="M246.2,351.6l16.6,7.9c1.1,0.5,2.5,0.1,3.1-1.1l7.9-16.6c0.5-1.1,0.1-2.5-1.1-3.1l-16.6-7.9
	c-1.1-0.5-2.5-0.1-3.1,1.1l-7.9,16.6C244.6,349.7,245.1,351.1,246.2,351.6z"/>
<g id="Group-75">
	<g id="Group-11">
		<polygon id="Fill-40" class="st3" points="693.2,382.6 690,418.4 681.1,418.5 680,381.7 		"/>
		<polygon id="Stroke-42" class="st5" points="693.2,382.6 690,418.4 681.1,418.5 680,381.7 		"/>
		<polygon id="Fill-44" class="st3" points="659.1,380.7 655.9,416.5 647,416.6 645.9,379.8 		"/>
		<polygon id="Stroke-46" class="st5" points="659.1,380.7 655.9,416.5 647,416.6 645.9,379.8 		"/>
		<path id="Fill-68-2" class="st6" d="M693.8,420.7c0.8-4.2-5.6-6.2-9.8-5.9c-3.1,0.2-6.4,4.5-5.6,6.4s2.7,3.4,7.4,3.8
			C688.8,425.3,693,424.8,693.8,420.7"/>
		<path id="Fill-48" class="st10" d="M624.1,329l-5.3,9.5c0,0,4.7,4.3,0.3,8.9s-9.4,3.3-12.8,1.6c-3.5-1.8-4.9-6.2-3.1-9.7
			c0.2-0.3,0.3-0.6,0.5-0.9c2.4-3.2,8.1-2.2,8.1-2.2l5.1-13L624.1,329z"/>
		<path id="Fill-48-2" class="st10" d="M722.6,288.3l5.3-9.5c0,0-4.7-4.3-0.3-8.9s9.4-3.3,12.8-1.6c3.5,1.8,4.9,6.1,3.1,9.7
			c-0.2,0.3-0.3,0.6-0.5,0.9c-2.4,3.2-8.1,2.2-8.1,2.2l-5.1,13.1L722.6,288.3z"/>
		<path id="Fill-52" class="st3" d="M703.5,259.4c0.7-9.6-1.5-16.9-7.4-18.4s-37.7-3.6-43,2.8c-5.3,6.5,4.8,32,7.3,34.7
			c2.7,2.9,5.3,10.1,6.2,13s-1.3,9.1-1.3,9.1l16.3-1.8c0,0,3.5-12.5,8.4-16.6c3.4-2.8,7.3-5.2,9.2-8.9
			C701.8,268.1,703.2,263.6,703.5,259.4"/>
		<path id="Stroke-54" class="st5" d="M703.5,259.4c0.7-9.6-1.5-16.9-7.4-18.4s-37.7-3.6-43,2.8c-5.3,6.5,4.8,32,7.3,34.7
			c2.7,2.9,5.3,10.1,6.2,13s-1.3,9.1-1.3,9.1l16.3-1.8c0,0,3.5-12.5,8.4-16.6c3.4-2.8,7.3-5.2,9.2-8.9
			C701.8,268.1,703.2,263.6,703.5,259.4z"/>
		<path id="Fill-56" class="st6" d="M645.4,275.3c1.3,3.4,12.8,3.4,15.1,0.7c4.1-4.7,1.5-12.3,4.6-16.5s5.3-4.4,11.3-4.7
			c10.9-0.5,16.1-0.5,18.7,0.1c11.9,0.5,3.3,13.7,6.4,18.7c1.7,2.7,6.6,2.5,8.8,0.2c11.4-11.8,1.6-34.2-11.3-41.6
			s-39.1-2.2-48.5,6.7S641.9,265.8,645.4,275.3z"/>
		<path id="Fill-58-2" class="st6" d="M679,289.6c7.2,0.9,5.8,0.4,15.3,1.7c8.5,1.2,20.2-8.8,28.3-8.8c5.2,0,16.8,13.6,8.1,19.1
			s-29.5,15.6-29.5,15.6s13.5,54.3,1.6,65.6c-12.1,11.6-57,9.1-66.9-4.4c-9-12.2,14.6-58.8,14.6-58.8s-21.1,16.5-25.8,14.6
			c-7.2-2.9-9.2-8-9.1-11.7c0.5-11,18.7-24.8,31.9-30.5C656.4,288.4,666.9,287.6,679,289.6z"/>
		<path id="Fill-60" class="st6" d="M691.8,262.2c-2.3-0.8-3.2,2.1-3.1,3.1c0.2,0.6,0.7,1.1,1.3,1.4c1,0.4,2,0.1,2.8-0.6
			c0.6-0.8,0.6-1.8,0.2-2.7C692.7,262.8,692.3,262.4,691.8,262.2"/>
		<path id="Fill-62-2" class="st6" d="M679,262.5c-1.4,0-2.5,0.9-2.9,2.2c0,1.4,1.1,2.5,2.4,2.6c0,0,0,0,0,0c1.3,0,2.3-1,2.6-2.2
			c0.3-1.1-0.5-2.3-1.6-2.5C679.3,262.5,679.1,262.5,679,262.5"/>
		<path id="Fill-66-2" class="st3" d="M664.3,263.9c-0.3-2.4-0.8-5-3.2-3.8s-3.1,3.2-3.5,8c-0.4,3.7,1.6,8.6,4,7.5
			c2.1-0.9,2.6-6.8,2.6-6.8C664.3,267.2,664.4,265.6,664.3,263.9"/>
		<path id="Fill-71" class="st6" d="M657.2,419.8c0.8-4.2-5.5-6.2-9.5-6c-3,0.2-6.2,4.5-5.5,6.5s2.6,3.4,7.2,3.8
			C652.3,424.4,656.4,423.8,657.2,419.8"/>
		<path id="Stroke-73" class="st11" d="M691,272.6c-2.1,1.7-8.1,1.7-10.4,0.5"/>
	</g>
	<g id="Group-12">
		<path id="Fill-1" class="st12" d="M844.8,103.4c0.8-12.4,0.3-20.8-8.3-22.4s-54.7-2.3-62.2,6.3s7.7,41.1,11.3,44.4
			c4,3.6,6.9,10.8,9.5,13.8c3.5,4,8.8,12.9,8.8,12.9l14.8-2c0,0,2.7-16.1,9.8-21.7c4.8-3.8,10.5-7.1,13.1-12
			C845.5,115.7,844.5,108.8,844.8,103.4"/>
		<path id="Fill-5" class="st12" d="M756.6,223.5c-5.4,9.2-13.5,30.5-13.5,30.5s-3.4-2.1-9.2,1.3c-5.8,3.4-7.9,10.7-7.1,14.2
			c1.5,6.6,7,13.8,14.5,13.8c8.3,0,13.8-5.7,13.9-10.8c0.1-5.1,0.1-10.8,0.1-10.8s16.2-29.6,23.9-40.4c7.3-10.2,41.3-39.6,35.5-52.3
			c-1.7-3.6-14.6,1.4-23.4,7.6C781.3,183.7,763.3,212,756.6,223.5z"/>
		<polygon id="Fill-9" class="st13" points="847,306 846.2,411.8 831,409.8 824.3,300.2 		"/>
		<polygon id="Stroke-11" class="st14" points="847,306 846.2,411.8 831,409.8 824.3,300.2 		"/>
		<polygon id="Fill-13" class="st15" points="812.6,298.6 812.9,405.2 801.7,403.8 791.2,297.4 		"/>
		<path id="Fill-17" class="st16" d="M829.8,155.9c10.1,6.8,21.5,110.2,22.2,141.6c0.3,18,1.8,35.9,4.5,53.7l-86.1-3.6
			c0,0,18.9-188.2,23.3-191.6C798.4,152.3,822.5,151,829.8,155.9"/>
		<path id="Fill-19" class="st12" d="M836,163.6c8.3,11.9,18.3,45.4,21.1,56.5s5.7,37.2,5.7,37.2s4-1.7,9.5,2.8
			c5.5,4.5,6.7,12.6,5.3,16.2c-2.7,6.8-9.6,13.6-17.6,12.4c-8.8-1.4-13.8-8.2-13.1-13.7c0.7-5.5,1.5-11.5,1.5-11.5
			s-6.2-35.5-12.8-48.2c-6.2-12-23.7-49.1-12.6-59.3C826.1,153.2,829.4,154.2,836,163.6"/>
		<path id="Fill-23" class="st13" d="M845.9,397.6c7,1.7-0.2,17.7-3.2,21.5s-20.1,12.2-24.3,7.2s10.7-26.8,10.7-26.8L845.9,397.6z"
			/>
		<path id="Fill-27" class="st16" d="M808.4,73.5c8.8-2,18-4.4,28.5,0.9c19.2,9.7,5.8,69,5.8,69l-21,0.7c0,0,9.9-31.7,3.5-45.8
			c-3.5-7.6-9.6-12.3-21.3-11.7s-19.1,5.6-21,11.7c-3.8,11.9,9.2,43.2,9.2,43.2l-18.8,1c0,0-11.8-55.1,6.8-66
			C790.2,70.5,799.5,72,808.4,73.5z"/>
		<path id="Fill-25" class="st13" d="M811,398.9c6.9,1.7,2.9,17.5,0,21.3s-19.7,12-23.9,7.1s12.6-29.7,12.6-29.7L811,398.9z"/>
		<path id="Fill-30" class="st16" d="M809,113.3c-2.2-0.9-2.9,2.5-2.7,3.7c0.2,0.7,0.6,1.2,1.2,1.6c0.9,0.4,2,0.1,2.5-0.7
			c0.5-1,0.5-2.2,0.1-3.2C809.9,114,809.5,113.6,809,113.3"/>
		<path id="Fill-32" class="st16" d="M793.6,114.9c-1.3,0-2.3,0.9-2.5,2.2c0,1.3,1,2.4,2.3,2.4c1.6,0,2.2-1.7,2.2-2.2
			C795.7,116.2,795.4,115,793.6,114.9"/>
		<path id="Stroke-34" class="st17" d="M812,128.2c-2.4,3.1-13.7,4.1-16.1,1.2"/>
		<path id="Fill-36" class="st18" d="M787.4,116.1c-0.4-2-1.5-5.2-5.8-5.7s-7.1,0.6-7.4,4.3c-0.3,2.8,3.8,8.9,7.5,8.8
			c2.2-0.1,4.2-1.5,4.9-3.7C786.6,119.8,787.6,117,787.4,116.1"/>
		<path id="Fill-38" class="st18" d="M827,113c1.2-2.1,2.8-4.5,6.9-3.5s4.8,2.7,4.6,7c-0.2,3.3-5.1,7.7-9.2,6.9
			c-3.6-0.7-3.1-6-3.1-6S826.4,113.9,827,113"/>
		<path class="st17" d="M807.6,84.4c0,0-2,3,0,8s7,8,7,8"/>
		<path class="st17" d="M809.6,84.4c0,0-2,3,0,8s7,8,7,8"/>
		<path class="st17" d="M803.3,84.4c0,0-1.5,3,0,8c1,3.1,2.9,5.9,5.4,8"/>
		<path class="st17" d="M801.4,84.4c0,0-5.5-0.6-6.4,4.6c-0.8,4.9,1,12.3,1,12.3"/>
		<path class="st17" d="M801.7,84.4c0,0-2,2.7-1.4,7.9c0.5,3.2,1.8,6.3,3.9,8.8"/>
		<path class="st17" d="M799.6,84.4c0,0-2.3,2.4-2.3,7.7c0.1,3.3,1.2,6.5,3,9.2"/>
	</g>
</g>
<polygon id="Fill-1-2" class="st3" points="970.4,400 928.6,422.5 922.3,413 962.1,385.2 "/>
<polygon id="Stroke-2" class="st5" points="970.4,400 928.6,422.5 922.3,413 962.1,385.2 "/>
<g id="Group-5">
	<g>
		<path id="Fill-3" class="st6" d="M928.9,428.3c5.2-2.2,2.9-10.5-0.3-14.8c-2.4-3.2-9.5-3.6-11.1-1.4s-1.8,5.3,1,10.7
			C920.4,426.3,923.9,430.4,928.9,428.3"/>
	</g>
</g>
<polygon id="Fill-6" class="st3" points="944,381 897.2,384.5 895.4,373.4 942.5,364.2 "/>
<polygon id="Stroke-8" class="st5" points="944,381 897.2,384.5 895.4,373.4 942.5,364.2 "/>
<path id="Fill-12" class="st3" d="M960.2,270c1.9-12.3,6.9-20.8,14.9-21s44.1,10.5,49.1,20.2c5,9.8-9.7,35.2-13.8,37.9
	c-4.4,2.9-9.8,11.1-11.7,14.6s-1,11.8-1,11.8l-20.5-7.1c0,0-1.9-20.2-6.1-23.5c-4.5-3.5-7.8-8.4-9.3-13.9
	C959.9,281.4,959.3,275.3,960.2,270"/>
<path id="Fill-16" class="st6" d="M951.7,325.6c0,0-34.3,30.4-33.4,45.6c1.4,21.5,35.2,40.8,55,44.5c19.2,3.5,29.5-44.4,29.5-44.4
	s2.4-8.6,4-26c1.7-18.5-7.6-22-16.9-25.9c-8.6-3.5-4.1-1.6-15.5-6.1L951.7,325.6z"/>
<path id="Stroke-27" class="st19" d="M933.8,304.3l2.6-13.9c0,0-7.4-3.5-3.8-10.9c3.6-7.4,10-7.6,14.9-6.9c4.9,0.8,9.2,6.4,7.3,12.1
	c-1.7,4.9-8.9,5.8-8.9,5.8l-1.1,18.1L933.8,304.3z"/>
<path id="Fill-29" class="st3" d="M1024.4,319.3l11.3-8.5c0,0-3.1-7.6,4.5-10.7s12.5,1.1,15.6,5s2.4,11-2.8,13.9
	c-4.6,2.5-10.5-1.7-10.5-1.7l-13,12.7L1024.4,319.3z"/>
<path id="Stroke-31" class="st5" d="M1024.4,319.3l11.3-8.5c0,0-3.1-7.6,4.5-10.7s12.5,1.1,15.6,5s2.4,11-2.8,13.9
	c-4.6,2.5-10.5-1.7-10.5-1.7l-13,12.7L1024.4,319.3z"/>
<path id="Fill-33" class="st6" d="M974.2,314.4c-8.9-6.4-14.9-17.8-26-20.9c-5.8-1.6-19.3,3.4-16.1,16.3
	c3.2,12.9,26.2,33.9,26.2,33.9L974.2,314.4z"/>
<path id="Fill-35" class="st6" d="M996.5,374.1c7.4-8.2,31.7-29.3,36.1-40c2.3-5.6-1.2-19.6-14.3-17.8
	c-13.1,1.8-36.6,22.4-36.6,22.4L996.5,374.1z"/>
<path class="st20" d="M1092.2,51.9c0,0,7.7,100.9-17.2,187.8c-19.2,67.3-75.8,165.1-75.8,165.1"/>
<polyline class="st1" points="1356.4,482.5 1313.1,34.4 1269.8,482.5 "/>
<line class="st21" x1="933.9" y1="52.8" x2="1313.1" y2="52.8"/>
<line class="st22" x1="1147.5" y1="58.3" x2="1147.5" y2="381.5"/>
<line class="st22" x1="1238.2" y1="54.5" x2="1238.2" y2="378.3"/>
<line class="st22" x1="1284.6" y1="397.5" x2="1347.2" y2="397.5"/>
<path class="st20" d="M1004.7,54.5c0,0,2.4,81.3-21.6,159.9c-13.4,44.1-91.5,162.1-91.5,162.1"/>
<path id="Stroke-14" class="st5" d="M960.2,270c1.9-12.3,6.9-20.8,14.9-21s44.1,10.5,49.1,20.2c5,9.8-9.7,35.2-13.8,37.9
	c-4.4,2.9-9.8,11.1-11.7,14.6s-1,11.8-1,11.8l-20.5-7.1c0,0-1.9-20.2-6.1-23.5c-4.5-3.5-7.8-8.4-9.3-13.9
	C959.9,281.4,959.3,275.3,960.2,270z"/>
<g id="Group-20">
	<g>
		<path id="Fill-18" class="st6" d="M1026.9,305.3c-9.5,6-18.2,4-20.1-0.6c-3.3-7.9,6.6-19.2,4.3-25.9s-9.5-7.1-24.3-11.6
			c-5.3-1.6-9.7-7-13.4-7.4s-7.4,20.5-13.8,25.3c-1.1,0.8-2.9,0.3-3.6-1.5c-8.6-20.8,11.1-42.7,30.9-46.8s39,6.5,47.5,22.1
			S1038.7,297.9,1026.9,305.3"/>
	</g>
</g>
<path id="Fill-21" class="st3" d="M1001.8,295.9c1.2-2.3,3.6-5.5,7.9-4.5c4.3,1,6.6,3.6,5.5,8.1c-0.8,3.4-7.2,9-10.8,7.4
	s-3.3-6.3-3.3-6.3S1001.2,297,1001.8,295.9"/>
<path id="Fill-23-2" class="st3" d="M967.8,277.6c-0.5-1.8-1.2-3.9-5.2-4.3c-3.9-0.4-5.1,0.6-6,3.6c-0.7,2.3,2.4,6.8,6.2,7.3
	c3.4,0.5,4.4-3.3,4.4-3.3C967.6,279.8,967.7,278.7,967.8,277.6"/>
<path id="Stroke-37" class="st11" d="M975.5,290.6c0.5,2.4,4,4.2,5.8,3.9c1-0.1,2-0.5,2.8-1"/>
<path id="Fill-39" class="st6" d="M975.9,277.3c2.3,0.1,1.7,3.4,1,4.4c-0.4,0.5-1.1,0.9-1.7,0.9c-1,0-1.8-0.7-2-1.7
	c0-1.1,0.4-2.1,1.1-2.9C974.8,277.6,975.3,277.3,975.9,277.3"/>
<path id="Fill-41" class="st6" d="M989.5,283.8c1.2,0.6,1.8,2,1.4,3.3c-0.5,1.3-1.9,2-3.2,1.6c-1.5-0.6-1.3-2.7-1.1-3.2
	C987,284.4,987.9,283.2,989.5,283.8"/>
<path id="Fill-10" class="st6" d="M894.3,387.3c5.7,0.1,6.9-8.5,5.7-13.7c-0.9-3.9-7.2-7.2-9.5-5.8s-3.8,4.1-3.4,10.2
	C887.3,382,888.9,387.2,894.3,387.3"/>
</svg>
