<?xml version="1.0" encoding="utf-8"?>
<!-- Generator: Adobe Illustrator 24.0.1, SVG Export Plug-In . SVG Version: 6.00 Build 0)  -->
<svg version="1.1" id="Layer_1" xmlns="http://www.w3.org/2000/svg" xmlns:xlink="http://www.w3.org/1999/xlink" x="0px" y="0px"
	 viewBox="0 0 751.6 652.6" style="enable-background:new 0 0 751.6 652.6;" xml:space="preserve">
<style type="text/css">
	.st0{fill:#A3D3DC;}
	.st1{fill:none;stroke:#457687;stroke-miterlimit:10;}
	.st2{enable-background:new    ;}
	.st3{fill:#457687;}
</style>
<rect x="24.1" y="46.3" class="st0" width="89.7" height="89.7"/>
<rect x="131.1" y="50.8" class="st0" width="85.1" height="85.1"/>
<rect x="236.5" y="53.7" class="st0" width="82.3" height="82.3"/>
<rect x="343.1" y="53.7" class="st0" width="82.3" height="82.3"/>
<rect x="449.6" y="56" class="st0" width="80" height="80"/>
<rect x="555.3" y="58.3" class="st0" width="77.7" height="77.7"/>
<rect x="664.3" y="58.8" class="st0" width="77.1" height="77.1"/>
<rect x="24.1" y="191" class="st0" width="76.6" height="76.6"/>
<rect x="131.1" y="191.6" class="st0" width="76" height="76"/>
<rect x="236.5" y="201.9" class="st0" width="65.7" height="65.7"/>
<rect x="343.1" y="203" class="st0" width="64.6" height="64.6"/>
<rect x="449.6" y="203" class="st0" width="64.6" height="64.6"/>
<rect x="555.3" y="204.2" class="st0" width="63.4" height="63.4"/>
<rect x="664.3" y="205.9" class="st0" width="61.7" height="61.7"/>
<rect x="24.6" y="317.8" class="st0" width="59.4" height="59.4"/>
<rect x="131.1" y="318.9" class="st0" width="58.3" height="58.3"/>
<rect x="236.5" y="319.5" class="st0" width="57.7" height="57.7"/>
<rect x="343.1" y="320.6" class="st0" width="56.6" height="56.6"/>
<rect x="449.6" y="324.6" class="st0" width="52.6" height="52.6"/>
<rect x="555.3" y="325.8" class="st0" width="51.4" height="51.4"/>
<rect x="664.3" y="324.7" class="st0" width="51.4" height="51.4"/>
<rect x="24.1" y="441.7" class="st0" width="49.7" height="49.7"/>
<rect x="131.1" y="446.2" class="st0" width="45.1" height="45.1"/>
<rect x="236.5" y="446.2" class="st0" width="45.1" height="45.1"/>
<rect x="343.1" y="446.2" class="st0" width="45.1" height="45.1"/>
<rect x="449.6" y="446.2" class="st0" width="45.1" height="45.1"/>
<rect x="555.3" y="450.2" class="st0" width="41.1" height="41.1"/>
<rect x="664.3" y="450.9" class="st0" width="40.6" height="40.6"/>
<rect x="24.1" y="567" class="st0" width="39.4" height="39.4"/>
<rect x="131.1" y="571" class="st0" width="35.4" height="35.4"/>
<rect x="236.5" y="580.1" class="st0" width="26.3" height="26.3"/>
<title>Untitled-2</title>
<rect x="236.5" y="321.7" class="st1" width="55.5" height="55.5"/>
<rect x="131.1" y="321.7" class="st1" width="55.5" height="55.5"/>
<rect x="24.1" y="321.7" class="st1" width="55.5" height="55.5"/>
<rect x="449.6" y="321.7" class="st1" width="55.5" height="55.5"/>
<rect x="555.3" y="321.7" class="st1" width="55.5" height="55.5"/>
<rect x="343.1" y="321.7" class="st1" width="55.5" height="55.5"/>
<rect x="131.1" y="435.9" class="st1" width="55.5" height="55.5"/>
<rect x="24.1" y="435.9" class="st1" width="55.5" height="55.5"/>
<rect x="664.3" y="320.6" class="st1" width="55.5" height="55.5"/>
<rect x="449.6" y="435.9" class="st1" width="55.5" height="55.5"/>
<rect x="555.3" y="435.9" class="st1" width="55.5" height="55.5"/>
<rect x="343.1" y="435.9" class="st1" width="55.5" height="55.5"/>
<rect x="236.5" y="435.9" class="st1" width="55.5" height="55.5"/>
<rect x="131.1" y="550.8" class="st1" width="55.5" height="55.5"/>
<rect x="24.1" y="550.8" class="st1" width="55.5" height="55.5"/>
<rect x="664.3" y="435.8" class="st1" width="55.5" height="55.5"/>
<rect x="236.5" y="550.8" class="st1" width="55.5" height="55.5"/>
<rect x="236.5" y="212.1" class="st1" width="55.5" height="55.5"/>
<rect x="131.1" y="212.1" class="st1" width="55.5" height="55.5"/>
<rect x="24.1" y="212.1" class="st1" width="55.5" height="55.5"/>
<rect x="555.3" y="212.1" class="st1" width="55.5" height="55.5"/>
<rect x="664.3" y="212.1" class="st1" width="55.5" height="55.5"/>
<rect x="449.6" y="212.1" class="st1" width="55.5" height="55.5"/>
<rect x="343.1" y="212.1" class="st1" width="55.5" height="55.5"/>
<rect x="236.5" y="80.5" class="st1" width="55.5" height="55.5"/>
<rect x="131.1" y="80.5" class="st1" width="55.5" height="55.5"/>
<rect x="24.1" y="80.5" class="st1" width="55.5" height="55.5"/>
<rect x="555.3" y="80.5" class="st1" width="55.5" height="55.5"/>
<rect x="664.3" y="80.5" class="st1" width="55.5" height="55.5"/>
<rect x="449.6" y="80.5" class="st1" width="55.5" height="55.5"/>
<rect x="343.1" y="80.5" class="st1" width="55.5" height="55.5"/>
<g class="st2">
	<path class="st3" d="M27.3,19.4c0.2,1.4,1.5,2.1,2.8,2.1c1.3,0,2.4-0.7,2.4-1.8c0-1-0.6-1.6-2-2.1l-1.7-0.6c-2.2-0.7-3.5-2-3.5-4.1
		c0-2.5,1.9-3.9,4.5-3.9c3,0,4.6,2.1,4.7,4.1h-2.3c-0.3-1.3-1.4-1.9-2.4-1.9c-1.2,0-2.1,0.6-2.1,1.6c0,1,0.7,1.6,1.9,2l1.8,0.6
		c2.2,0.7,3.5,2.1,3.5,4.2c0,2.4-1.9,4.1-4.7,4.1c-3.2,0-5.1-2.1-5.2-4.3H27.3z"/>
	<path class="st3" d="M37,13.5h2.2v1.3c0.6-0.8,1.8-1.5,3.2-1.5c2.7,0,4.8,2.3,4.8,5.2s-2.1,5.2-4.8,5.2c-1.4,0-2.7-0.7-3.2-1.5v5.5
		H37V13.5z M42.1,15.3c-1.8,0-3,1.4-3,3.2c0,1.8,1.2,3.2,3,3.2c1.8,0,3-1.4,3-3.2C45,16.7,43.8,15.3,42.1,15.3z"/>
	<path class="st3" d="M54,23.7c-3,0-5.2-2.3-5.2-5.2s2.3-5.2,5.2-5.2c3,0,5.2,2.3,5.2,5.2S57,23.7,54,23.7z M54,21.6
		c1.8,0,3-1.4,3-3.2s-1.2-3.2-3-3.2c-1.8,0-3,1.4-3,3.2S52.3,21.6,54,21.6z"/>
	<path class="st3" d="M61.5,13.5h2.2v1.8c0.4-1.1,1.5-1.9,2.6-1.9c0.3,0,0.6,0,0.9,0.1v2.3c-0.4-0.1-0.7-0.2-1.1-0.2
		c-1.3,0-2.4,1.1-2.4,3.1v4.9h-2.2V13.5z"/>
	<path class="st3" d="M73.4,23.6c-1.9,0-3.4-1.1-3.4-3.3v-4.8h-2.1v-2H70v-2.8h2.2v2.8h2.9v2h-2.9v4.5c0,1.2,0.5,1.7,1.7,1.7
		c0.4,0,0.9-0.1,1.2-0.2v2C74.6,23.5,74.1,23.6,73.4,23.6z"/>
	<path class="st3" d="M86,13.3c1.4,0,2.6,0.7,3.2,1.5v-1.3h2.2v10h-2.2v-1.3c-0.6,0.8-1.8,1.5-3.2,1.5c-2.7,0-4.8-2.3-4.8-5.2
		S83.2,13.3,86,13.3z M86.4,15.3c-1.8,0-3,1.4-3,3.2c0,1.8,1.2,3.2,3,3.2c1.8,0,3-1.4,3-3.2C89.3,16.7,88.1,15.3,86.4,15.3z"/>
	<path class="st3" d="M94.3,13.5h2.2v1.8c0.4-1.1,1.5-1.9,2.6-1.9c0.3,0,0.6,0,0.9,0.1v2.3c-0.4-0.1-0.7-0.2-1.1-0.2
		c-1.3,0-2.4,1.1-2.4,3.1v4.9h-2.2V13.5z"/>
	<path class="st3" d="M106,23.7c-3,0-5.1-2.2-5.1-5.2c0-3,2.1-5.2,5.1-5.2c3.1,0,5.2,2.3,5,5.7h-8c0.1,1.5,1.2,2.7,3,2.7
		c1.1,0,2.1-0.4,2.5-1.4h2.3C110.3,22.2,108.5,23.7,106,23.7z M103.1,17.5h5.5c-0.3-1.6-1.5-2.3-2.7-2.3
		C104.6,15.1,103.4,15.9,103.1,17.5z"/>
	<path class="st3" d="M117.4,13.3c1.4,0,2.6,0.7,3.2,1.5v-1.3h2.2v10h-2.2v-1.3c-0.6,0.8-1.8,1.5-3.2,1.5c-2.7,0-4.8-2.3-4.8-5.2
		S114.6,13.3,117.4,13.3z M117.8,15.3c-1.8,0-3,1.4-3,3.2c0,1.8,1.2,3.2,3,3.2c1.8,0,3-1.4,3-3.2C120.8,16.7,119.6,15.3,117.8,15.3z
		"/>
	<path class="st3" d="M130.5,13.5h2.2v1.3c0.6-0.8,1.8-1.5,3.2-1.5c2.7,0,4.8,2.3,4.8,5.2s-2.1,5.2-4.8,5.2c-1.4,0-2.7-0.7-3.2-1.5
		v5.5h-2.2V13.5z M135.5,15.3c-1.8,0-3,1.4-3,3.2c0,1.8,1.2,3.2,3,3.2c1.8,0,3-1.4,3-3.2C138.5,16.7,137.2,15.3,135.5,15.3z"/>
	<path class="st3" d="M147.4,23.7c-3,0-5.1-2.2-5.1-5.2c0-3,2.1-5.2,5.1-5.2c3.1,0,5.2,2.3,5,5.7h-8c0.1,1.5,1.2,2.7,3,2.7
		c1.1,0,2.1-0.4,2.5-1.4h2.3C151.7,22.2,149.9,23.7,147.4,23.7z M144.5,17.5h5.5c-0.3-1.6-1.5-2.3-2.7-2.3
		C145.9,15.1,144.8,15.9,144.5,17.5z"/>
	<path class="st3" d="M154.6,13.5h2.2v1.8c0.4-1.1,1.5-1.9,2.6-1.9c0.3,0,0.6,0,0.9,0.1v2.3c-0.4-0.1-0.7-0.2-1.1-0.2
		c-1.3,0-2.4,1.1-2.4,3.1v4.9h-2.2V13.5z"/>
	<path class="st3" d="M171,23.7c-3,0-5.2-2.3-5.2-5.2s2.2-5.2,5.2-5.2c2.6,0,4.5,1.6,5.1,3.9h-2.3c-0.4-1.1-1.4-1.9-2.8-1.9
		c-1.8,0-3,1.3-3,3.2s1.2,3.2,3,3.2c1.4,0,2.4-0.8,2.8-1.9h2.3C175.5,22,173.6,23.7,171,23.7z"/>
	<path class="st3" d="M178.1,8.5h2.2v6.4c0.6-1,1.7-1.6,3-1.6c2.3,0,3.8,1.6,3.8,4.2v6H185v-5.7c0-1.6-0.8-2.5-2.1-2.5
		c-1.5,0-2.6,1.1-2.6,3.3v4.9h-2.2V8.5z"/>
	<path class="st3" d="M191.1,11.3c-0.8,0-1.5-0.7-1.5-1.5c0-0.8,0.7-1.5,1.5-1.5c0.8,0,1.5,0.7,1.5,1.5
		C192.6,10.6,191.9,11.3,191.1,11.3z M190,13.5h2.2v10H190V13.5z"/>
	<path class="st3" d="M195.2,8.5h2.2v15h-2.2V8.5z"/>
	<path class="st3" d="M204.4,13.3c1.4,0,2.6,0.7,3.2,1.5V8.5h2.2v15h-2.2v-1.3c-0.6,0.8-1.8,1.5-3.2,1.5c-2.7,0-4.8-2.3-4.8-5.2
		S201.7,13.3,204.4,13.3z M204.8,15.3c-1.8,0-3,1.4-3,3.2c0,1.8,1.2,3.2,3,3.2c1.8,0,3-1.4,3-3.2C207.8,16.7,206.6,15.3,204.8,15.3z
		"/>
	<path class="st3" d="M218.6,11.3c-0.8,0-1.5-0.7-1.5-1.5c0-0.8,0.7-1.5,1.5-1.5c0.8,0,1.5,0.7,1.5,1.5
		C220.1,10.6,219.4,11.3,218.6,11.3z M217.5,13.5h2.2v10h-2.2V13.5z"/>
	<path class="st3" d="M222.7,13.5h2.2v1.4c0.6-1,1.7-1.6,3-1.6c2.3,0,3.8,1.6,3.8,4.2v6h-2.2v-5.7c0-1.6-0.8-2.5-2.1-2.5
		c-1.5,0-2.6,1.1-2.6,3.3v4.9h-2.2V13.5z"/>
	<path class="st3" d="M243.3,13.3c1.4,0,2.6,0.7,3.2,1.5V8.5h2.2v15h-2.2v-1.3c-0.6,0.8-1.8,1.5-3.2,1.5c-2.7,0-4.8-2.3-4.8-5.2
		S240.6,13.3,243.3,13.3z M243.7,15.3c-1.8,0-3,1.4-3,3.2c0,1.8,1.2,3.2,3,3.2c1.8,0,3-1.4,3-3.2C246.7,16.7,245.5,15.3,243.7,15.3z
		"/>
	<path class="st3" d="M252.8,11.3c-0.8,0-1.5-0.7-1.5-1.5c0-0.8,0.7-1.5,1.5-1.5c0.8,0,1.5,0.7,1.5,1.5
		C254.3,10.6,253.6,11.3,252.8,11.3z M251.7,13.5h2.2v10h-2.2V13.5z"/>
	<path class="st3" d="M257.8,15.4h-2.1v-2h2.1v-1.8c0-2.2,1.5-3.3,3.4-3.3c0.7,0,1.2,0.1,1.6,0.2v2c-0.2-0.1-0.8-0.2-1.2-0.2
		c-1.1,0-1.7,0.5-1.7,1.7v1.4h2.3v2H260v8h-2.2V15.4z M265.1,15.4h-1.7v-2h1.7v-1.8c0-2.2,1.5-3.3,3.4-3.3c0.7,0,1.2,0.1,1.6,0.2v2
		c-0.3-0.1-0.8-0.2-1.2-0.2c-1.1,0-1.7,0.5-1.7,1.7v1.4h2.9v2h-2.9v8h-2.2V15.4z"/>
	<path class="st3" d="M276,23.7c-3,0-5.1-2.2-5.1-5.2c0-3,2.1-5.2,5.1-5.2c3.1,0,5.2,2.3,5,5.7h-8c0.1,1.5,1.2,2.7,3,2.7
		c1.1,0,2.1-0.4,2.5-1.4h2.3C280.4,22.2,278.6,23.7,276,23.7z M273.2,17.5h5.5c-0.3-1.6-1.5-2.3-2.7-2.3
		C274.6,15.1,273.5,15.9,273.2,17.5z"/>
	<path class="st3" d="M283.3,13.5h2.2v1.8c0.4-1.1,1.5-1.9,2.6-1.9c0.3,0,0.6,0,0.9,0.1v2.3c-0.4-0.1-0.7-0.2-1.1-0.2
		c-1.3,0-2.4,1.1-2.4,3.1v4.9h-2.2V13.5z"/>
	<path class="st3" d="M295,23.7c-3,0-5.1-2.2-5.1-5.2c0-3,2.1-5.2,5.1-5.2c3.1,0,5.2,2.3,5,5.7h-8c0.1,1.5,1.2,2.7,3,2.7
		c1.1,0,2.1-0.4,2.5-1.4h2.3C299.3,22.2,297.5,23.7,295,23.7z M292.1,17.5h5.5c-0.3-1.6-1.5-2.3-2.7-2.3
		C293.6,15.1,292.4,15.9,292.1,17.5z"/>
	<path class="st3" d="M302.3,13.5h2.2v1.4c0.6-1,1.7-1.6,3-1.6c2.3,0,3.8,1.6,3.8,4.2v6h-2.2v-5.7c0-1.6-0.8-2.5-2.1-2.5
		c-1.5,0-2.6,1.1-2.6,3.3v4.9h-2.2V13.5z"/>
	<path class="st3" d="M318.4,23.6c-1.9,0-3.4-1.1-3.4-3.3v-4.8h-2.1v-2h2.1v-2.8h2.2v2.8h2.9v2h-2.9v4.5c0,1.2,0.5,1.7,1.7,1.7
		c0.4,0,0.9-0.1,1.2-0.2v2C319.6,23.5,319,23.6,318.4,23.6z"/>
	<path class="st3" d="M326.8,13.5h2.2v1.8c0.4-1.1,1.5-1.9,2.6-1.9c0.3,0,0.6,0,0.9,0.1v2.3c-0.4-0.1-0.7-0.2-1.1-0.2
		c-1.3,0-2.4,1.1-2.4,3.1v4.9h-2.2V13.5z"/>
	<path class="st3" d="M338.4,23.7c-3,0-5.1-2.2-5.1-5.2c0-3,2.1-5.2,5.1-5.2c3.1,0,5.2,2.3,5,5.7h-8c0.1,1.5,1.2,2.7,3,2.7
		c1.1,0,2.1-0.4,2.5-1.4h2.3C342.8,22.2,341,23.7,338.4,23.7z M335.6,17.5h5.5c-0.3-1.6-1.5-2.3-2.7-2.3
		C337,15.1,335.9,15.9,335.6,17.5z"/>
	<path class="st3" d="M347.5,24.3c0.4,1.2,1.4,1.7,2.8,1.7c1.5,0,2.7-1,2.7-2.9v-1.2c-0.6,0.9-1.8,1.6-3.2,1.6
		c-2.7,0-4.8-2.2-4.8-5.1c0-2.8,2.1-5.1,4.8-5.1c1.4,0,2.6,0.7,3.2,1.5v-1.3h2.2v9.4c0,3.5-2.3,5-5,5c-2.7,0-4.6-1.5-4.9-3.6H347.5z
		 M350.2,15.3c-1.7,0-3,1.3-3,3.1c0,1.8,1.3,3.1,3,3.1c1.7,0,3-1.3,3-3.1C353.2,16.6,351.9,15.3,350.2,15.3z"/>
	<path class="st3" d="M359.3,11.3c-0.8,0-1.5-0.7-1.5-1.5c0-0.8,0.7-1.5,1.5-1.5c0.8,0,1.5,0.7,1.5,1.5
		C360.7,10.6,360.1,11.3,359.3,11.3z M358.2,13.5h2.2v10h-2.2V13.5z"/>
	<path class="st3" d="M367.9,23.7c-3,0-5.2-2.3-5.2-5.2s2.3-5.2,5.2-5.2c3,0,5.2,2.3,5.2,5.2S370.8,23.7,367.9,23.7z M367.9,21.6
		c1.8,0,3-1.4,3-3.2s-1.2-3.2-3-3.2c-1.8,0-3,1.4-3,3.2S366.1,21.6,367.9,21.6z"/>
	<path class="st3" d="M375.3,13.5h2.2v1.4c0.6-1,1.7-1.6,3-1.6c2.3,0,3.8,1.6,3.8,4.2v6h-2.2v-5.7c0-1.6-0.8-2.5-2.1-2.5
		c-1.5,0-2.6,1.1-2.6,3.3v4.9h-2.2V13.5z"/>
	<path class="st3" d="M390.7,23.7c-2.3,0-4.2-1.2-4.3-3.2h2.3c0.2,1.1,1.1,1.5,2.1,1.5c1,0,1.6-0.4,1.6-1.1c0-0.7-0.4-1.1-1.5-1.3
		l-1.6-0.4c-1.7-0.4-2.6-1.6-2.6-3c0-1.7,1.5-2.8,3.7-2.8c2.2,0,3.7,1.2,3.8,3h-2.2c-0.2-0.8-0.9-1.2-1.6-1.2c-0.8,0-1.5,0.4-1.5,1
		c0,0.6,0.5,1,1.3,1.2l1.7,0.4c1.8,0.5,2.7,1.5,2.7,3C394.6,22.7,393,23.7,390.7,23.7z"/>
	<path class="st3" d="M402.7,11.3c-0.8,0-1.5-0.7-1.5-1.5c0-0.8,0.7-1.5,1.5-1.5c0.8,0,1.5,0.7,1.5,1.5
		C404.1,10.6,403.5,11.3,402.7,11.3z M401.6,13.5h2.2v10h-2.2V13.5z"/>
	<path class="st3" d="M406.7,13.5h2.2v1.4c0.6-1,1.7-1.6,3-1.6c2.3,0,3.8,1.6,3.8,4.2v6h-2.2v-5.7c0-1.6-0.8-2.5-2.1-2.5
		c-1.5,0-2.6,1.1-2.6,3.3v4.9h-2.2V13.5z"/>
	<path class="st3" d="M430.1,9c3.4,0,6.2,2.2,6.8,5h-2.5c-0.6-1.6-2.3-2.7-4.3-2.7c-3,0-5,2.2-5,5.1s2.1,5.1,5,5.1
		c2,0,3.7-1.1,4.3-2.7h2.5c-0.7,2.8-3.4,5-6.8,5c-4.2,0-7.4-3.2-7.4-7.3S425.8,9,430.1,9z"/>
	<path class="st3" d="M439,8.5h2.2v6.4c0.6-1,1.7-1.6,3-1.6c2.3,0,3.8,1.6,3.8,4.2v6h-2.2v-5.7c0-1.6-0.8-2.5-2.1-2.5
		c-1.5,0-2.6,1.1-2.6,3.3v4.9H439V8.5z"/>
	<path class="st3" d="M452,11.3c-0.8,0-1.5-0.7-1.5-1.5c0-0.8,0.7-1.5,1.5-1.5c0.8,0,1.5,0.7,1.5,1.5
		C453.4,10.6,452.8,11.3,452,11.3z M450.9,13.5h2.2v10h-2.2V13.5z"/>
	<path class="st3" d="M456,13.5h2.2v1.4c0.6-1,1.7-1.6,3-1.6c2.3,0,3.8,1.6,3.8,4.2v6h-2.2v-5.7c0-1.6-0.8-2.5-2.1-2.5
		c-1.5,0-2.6,1.1-2.6,3.3v4.9H456V13.5z"/>
	<path class="st3" d="M472,13.3c1.4,0,2.6,0.7,3.2,1.5v-1.3h2.2v10h-2.2v-1.3c-0.6,0.8-1.8,1.5-3.2,1.5c-2.7,0-4.8-2.3-4.8-5.2
		S469.3,13.3,472,13.3z M472.4,15.3c-1.8,0-3,1.4-3,3.2c0,1.8,1.2,3.2,3,3.2s3-1.4,3-3.2C475.4,16.7,474.2,15.3,472.4,15.3z"/>
	<path class="st3" d="M487,26.7c-1.7-3.1-2.6-6.3-2.6-9.6s0.8-6.5,2.6-9.6h1.8c-1.7,3.3-2.4,6.3-2.4,9.6s0.7,6.3,2.4,9.6H487z"/>
	<path class="st3" d="M490.4,13.5h2.2v1.4c0.6-0.9,1.6-1.6,2.8-1.6c1.5,0,2.6,0.7,3.1,2c0.6-1.3,1.9-2,3.2-2c2.3,0,3.6,1.7,3.6,4.2
		v6h-2.2v-5.6c0-1.6-0.6-2.6-1.8-2.6c-1.4,0-2.4,1.2-2.4,3.3v4.9h-2.2v-5.6c0-1.6-0.6-2.6-1.8-2.6c-1.4,0-2.4,1.2-2.4,3.3v4.9h-2.2
		V13.5z"/>
	<path class="st3" d="M513.1,17.9h-5.9v-0.6c0-1.9,1.5-2.8,2.8-3.7c0.8-0.5,1.4-1.1,1.4-1.8c0-0.6-0.4-1.1-1.2-1.1
		c-0.8,0-1.3,0.5-1.3,1.2h-1.7c0-1.7,1.3-2.9,3-2.9c1.5,0,2.8,0.9,2.8,2.7c0,1.5-0.7,2.3-1.8,3c-0.6,0.4-1.5,0.9-1.7,1.5h3.6V17.9z"
		/>
	<path class="st3" d="M516.7,17.1c0-3.3-0.7-6.3-2.4-9.6h1.8c1.7,3.1,2.6,6.3,2.6,9.6s-0.8,6.5-2.6,9.6h-1.8
		C516,23.4,516.7,20.4,516.7,17.1z"/>
</g>
<g class="st2">
	<path d="M241.5,620.5c2,0,3.5,1.2,4,2.7h-1.2c-0.5-0.9-1.5-1.6-2.8-1.6c-1.9,0-3.3,1.5-3.3,3.3s1.4,3.3,3.3,3.3
		c1.8,0,3-1.2,3.1-2.9h-3.2v-1h4.3c0.2,3.1-1.8,5-4.3,5c-2.5,0-4.4-1.9-4.4-4.4S239,620.5,241.5,620.5z"/>
	<path d="M247.2,623.2h1v3.5c0,1,0.5,1.6,1.4,1.6c0.9,0,1.7-0.8,1.7-2.2v-3h1v6h-1v-0.9c-0.4,0.7-1.1,1-1.8,1
		c-1.3,0-2.2-0.9-2.2-2.4V623.2z"/>
	<path d="M256.7,623c0.9,0,1.7,0.5,2.1,1v-0.9h1v6h-1v-0.9c-0.4,0.6-1.2,1-2.1,1c-1.7,0-2.9-1.4-2.9-3.1
		C253.8,624.4,255,623,256.7,623z M256.8,624c-1.2,0-2.1,1-2.1,2.2c0,1.2,0.8,2.2,2.1,2.2s2-1,2-2.2
		C258.9,624.9,258.1,624,256.8,624z"/>
	<path d="M261.8,623.2h1v0.9c0.4-0.7,1.1-1,1.9-1c1.3,0,2.3,0.9,2.3,2.4v3.7h-1v-3.5c0-1-0.6-1.6-1.4-1.6c-1,0-1.7,0.8-1.7,2.2v3h-1
		V623.2z"/>
	<path d="M269.6,629.7c0.3,0.8,0.9,1.2,1.9,1.2c1.1,0,1.9-0.7,1.9-2.1v-0.7c-0.4,0.6-1.2,1.1-2.1,1.1c-1.7,0-2.9-1.3-2.9-3.1
		c0-1.7,1.3-3,2.9-3c0.9,0,1.7,0.4,2.1,1v-0.9h1v5.6c0,2-1.3,3-3,3c-1.6,0-2.7-0.9-2.9-2.1H269.6z M271.5,624c-1.2,0-2,0.9-2,2.1
		c0,1.2,0.8,2.1,2,2.1s2-0.9,2-2.1C273.5,624.9,272.7,624,271.5,624z"/>
	<path d="M277.9,626.1l-2.3-3h1.2l1.7,2.2l1.6-2.2h1.3l-2.3,3l2.4,3h-1.3l-1.8-2.3l-1.8,2.3h-1.3L277.9,626.1z"/>
	<path d="M283.3,621.6c-0.4,0-0.7-0.3-0.7-0.7c0-0.4,0.3-0.7,0.7-0.7s0.7,0.3,0.7,0.7C284,621.2,283.7,621.6,283.3,621.6z
		 M282.7,623.2h1v6h-1V623.2z"/>
</g>
<g class="st2">
	<path d="M135.2,626.9c0.1,0.9,1,1.4,1.8,1.4c0.9,0,1.6-0.5,1.6-1.3c0-0.7-0.4-1.1-1.2-1.4l-1.2-0.4c-1.3-0.5-2-1.2-2-2.4
		c0-1.4,1.1-2.2,2.6-2.2c1.7,0,2.6,1.2,2.7,2.3h-1.1c-0.2-0.9-0.9-1.3-1.6-1.3c-0.8,0-1.5,0.4-1.5,1.2c0,0.7,0.4,1.1,1.2,1.4
		l1.1,0.4c1.3,0.5,2,1.2,2,2.5c0,1.4-1.1,2.4-2.7,2.4c-1.8,0-2.9-1.1-3-2.4H135.2z"/>
	<path d="M141.7,621.6c-0.4,0-0.7-0.3-0.7-0.7c0-0.4,0.3-0.7,0.7-0.7s0.7,0.3,0.7,0.7C142.4,621.2,142.1,621.6,141.7,621.6z
		 M141.2,623.2h1v6h-1V623.2z"/>
	<path d="M146.8,629.3c-1.8,0-3.1-1.4-3.1-3.1c0-1.7,1.3-3.1,3.1-3.1c1.5,0,2.7,0.9,3,2.2h-1.1c-0.3-0.8-1-1.3-1.9-1.3
		c-1.2,0-2.1,1-2.1,2.2c0,1.2,0.8,2.2,2.1,2.2c0.9,0,1.7-0.5,1.9-1.3h1.1C149.5,628.3,148.3,629.3,146.8,629.3z"/>
	<path d="M151.2,620.2h1v3.9c0.4-0.7,1.1-1,1.9-1c1.3,0,2.3,0.9,2.3,2.4v3.7h-1v-3.5c0-1-0.6-1.6-1.4-1.6c-1,0-1.7,0.8-1.7,2.2v3h-1
		V620.2z"/>
	<path d="M158.2,623.2h1v3.5c0,1,0.5,1.6,1.4,1.6c0.9,0,1.7-0.8,1.7-2.2v-3h1v6h-1v-0.9c-0.4,0.7-1.1,1-1.8,1
		c-1.3,0-2.2-0.9-2.2-2.4V623.2z"/>
	<path d="M167.7,623c0.9,0,1.7,0.5,2.1,1v-0.9h1v6h-1v-0.9c-0.4,0.6-1.2,1-2.1,1c-1.7,0-2.9-1.4-2.9-3.1
		C164.8,624.4,166,623,167.7,623z M167.9,624c-1.2,0-2.1,1-2.1,2.2c0,1.2,0.8,2.2,2.1,2.2s2-1,2-2.2
		C169.9,624.9,169.1,624,167.9,624z"/>
	<path d="M172.8,623.2h1v0.9c0.4-0.7,1.1-1,1.9-1c1.3,0,2.3,0.9,2.3,2.4v3.7h-1v-3.5c0-1-0.6-1.6-1.4-1.6c-1,0-1.7,0.8-1.7,2.2v3h-1
		V623.2z"/>
</g>
<g class="st2">
	<path d="M28,620.6h0.9l3.8,8.5h-1.2l-1.1-2.5h-4l-1.1,2.5h-1.2L28,620.6z M30,625.7l-1.5-3.5l-1.5,3.5H30z"/>
	<path d="M33.7,623.2h1v0.9c0.4-0.7,1.1-1,1.9-1c1.3,0,2.3,0.9,2.3,2.4v3.7h-1v-3.5c0-1-0.6-1.6-1.4-1.6c-1,0-1.7,0.8-1.7,2.2v3h-1
		V623.2z"/>
	<path d="M40.8,620.2h1v3.9c0.4-0.7,1.1-1,1.9-1c1.3,0,2.3,0.9,2.3,2.4v3.7h-1v-3.5c0-1-0.6-1.6-1.4-1.6c-1,0-1.7,0.8-1.7,2.2v3h-1
		V620.2z"/>
	<path d="M47.8,623.2h1v3.5c0,1,0.5,1.6,1.4,1.6c0.9,0,1.7-0.8,1.7-2.2v-3h1v6h-1v-0.9c-0.4,0.7-1.1,1-1.8,1c-1.3,0-2.2-0.9-2.2-2.4
		V623.2z"/>
	<path d="M55.3,621.6c-0.4,0-0.7-0.3-0.7-0.7c0-0.4,0.3-0.7,0.7-0.7s0.7,0.3,0.7,0.7C56.1,621.2,55.7,621.6,55.3,621.6z M54.8,623.2
		h1v6h-1V623.2z"/>
</g>
<g class="st2">
	<path d="M669.3,504.7c2.1,0,3.7,1.4,4.1,3h-1.2c-0.4-1.1-1.5-1.9-2.9-1.9c-1.9,0-3.3,1.5-3.3,3.3s1.4,3.3,3.3,3.3
		c1.4,0,2.5-0.8,2.9-1.9h1.2c-0.4,1.5-1.9,3-4.1,3c-2.5,0-4.4-1.9-4.4-4.4S666.8,504.7,669.3,504.7z"/>
	<path d="M674.8,504.4h1v3.9c0.4-0.7,1.1-1,1.9-1c1.3,0,2.3,0.9,2.3,2.4v3.7h-1v-3.5c0-1-0.6-1.6-1.4-1.6c-1,0-1.7,0.8-1.7,2.2v3h-1
		V504.4z"/>
	<path d="M684.5,513.5c-1.8,0-3.1-1.4-3.1-3.1c0-1.7,1.3-3.1,3.1-3.1c1.8,0,3.1,1.4,3.1,3.1C687.6,512.1,686.3,513.5,684.5,513.5z
		 M684.5,512.5c1.2,0,2.1-1,2.1-2.2s-0.8-2.2-2.1-2.2c-1.2,0-2.1,1-2.1,2.2S683.3,512.5,684.5,512.5z"/>
	<path d="M689.1,507.4h1v0.9c0.4-0.7,1.1-1,1.9-1c1.3,0,2.3,0.9,2.3,2.4v3.7h-1v-3.5c0-1-0.6-1.6-1.4-1.6c-1,0-1.7,0.8-1.7,2.2v3h-1
		V507.4z"/>
	<path d="M696.9,513.9c0.3,0.8,0.9,1.2,1.9,1.2c1.1,0,1.9-0.7,1.9-2.1v-0.7c-0.4,0.6-1.2,1.1-2.1,1.1c-1.7,0-2.9-1.3-2.9-3.1
		c0-1.7,1.3-3,2.9-3c0.9,0,1.7,0.4,2.1,1v-0.9h1v5.6c0,2-1.3,3-3,3c-1.6,0-2.7-0.9-2.9-2.1H696.9z M698.8,508.2c-1.2,0-2,0.9-2,2.1
		c0,1.2,0.8,2.1,2,2.1s2-0.9,2-2.1C700.8,509.1,700,508.2,698.8,508.2z"/>
	<path d="M708.3,512.4c-0.4,0.6-1.2,1-2.1,1c-1.7,0-2.9-1.4-2.9-3.1c0-1.7,1.3-3.1,2.9-3.1c0.9,0,1.7,0.5,2.1,1v-0.9h1v8.5h-1V512.4
		z M706.3,508.2c-1.2,0-2.1,1-2.1,2.2c0,1.2,0.8,2.2,2.1,2.2c1.2,0,2-1,2-2.2C708.4,509.2,707.5,508.2,706.3,508.2z"/>
	<path d="M711.8,505.8c-0.4,0-0.7-0.3-0.7-0.7c0-0.4,0.3-0.7,0.7-0.7c0.4,0,0.7,0.3,0.7,0.7C712.5,505.4,712.2,505.8,711.8,505.8z
		 M711.3,507.4h1v6h-1V507.4z"/>
	<path d="M714.3,507.4h1v0.9c0.4-0.7,1.1-1,1.9-1c1.3,0,2.3,0.9,2.3,2.4v3.7h-1v-3.5c0-1-0.6-1.6-1.4-1.6c-1,0-1.7,0.8-1.7,2.2v3h-1
		V507.4z"/>
	<path d="M722.1,513.9c0.3,0.8,0.9,1.2,1.9,1.2c1.1,0,1.9-0.7,1.9-2.1v-0.7c-0.4,0.6-1.2,1.1-2.1,1.1c-1.7,0-2.9-1.3-2.9-3.1
		c0-1.7,1.3-3,2.9-3c0.9,0,1.7,0.4,2.1,1v-0.9h1v5.6c0,2-1.3,3-3,3c-1.6,0-2.7-0.9-2.9-2.1H722.1z M723.9,508.2c-1.2,0-2,0.9-2,2.1
		c0,1.2,0.8,2.1,2,2.1s2-0.9,2-2.1C726,509.1,725.1,508.2,723.9,508.2z"/>
</g>
<g class="st2">
	<path d="M556.4,504.9h1.1v3.6h4.7v-3.6h1.1v8.5h-1.1v-3.8h-4.7v3.8h-1.1V504.9z"/>
	<path d="M565.3,507.4h1v3.5c0,1,0.5,1.6,1.4,1.6c0.9,0,1.7-0.8,1.7-2.2v-3h1v6h-1v-0.9c-0.4,0.7-1.1,1-1.8,1
		c-1.3,0-2.2-0.9-2.2-2.4V507.4z"/>
	<path d="M572.3,507.4h1v0.9c0.4-0.7,1.1-1,1.9-1c1.3,0,2.3,0.9,2.3,2.4v3.7h-1v-3.5c0-1-0.6-1.6-1.4-1.6c-1,0-1.7,0.8-1.7,2.2v3h-1
		V507.4z"/>
	<path d="M581.8,507.3c0.9,0,1.7,0.5,2.1,1v-0.9h1v6h-1v-0.9c-0.4,0.6-1.2,1-2.1,1c-1.7,0-2.9-1.4-2.9-3.1
		C578.9,508.7,580.2,507.3,581.8,507.3z M582,508.2c-1.2,0-2.1,1-2.1,2.2c0,1.2,0.8,2.2,2.1,2.2c1.2,0,2-1,2-2.2
		C584,509.2,583.2,508.2,582,508.2z"/>
	<path d="M586.9,507.4h1v0.9c0.4-0.7,1.1-1,1.9-1c1.3,0,2.3,0.9,2.3,2.4v3.7h-1v-3.5c0-1-0.6-1.6-1.4-1.6c-1,0-1.7,0.8-1.7,2.2v3h-1
		V507.4z"/>
</g>
<g class="st2">
	<path d="M450.7,504.9h1.1v3.6h4.7v-3.6h1.1v8.5h-1.1v-3.8h-4.7v3.8h-1.1V504.9z"/>
	<path d="M459.6,507.4h1v3.5c0,1,0.5,1.6,1.4,1.6c0.9,0,1.7-0.8,1.7-2.2v-3h1v6h-1v-0.9c-0.4,0.7-1.1,1-1.8,1
		c-1.3,0-2.2-0.9-2.2-2.4V507.4z"/>
	<path d="M467.7,513.4h-1v-9h1v3.9c0.4-0.6,1.2-1,2.1-1c1.7,0,2.9,1.4,2.9,3.1c0,1.7-1.3,3.1-2.9,3.1c-0.9,0-1.7-0.5-2.1-1V513.4z
		 M469.6,508.2c-1.2,0-2,1-2,2.2c0,1.2,0.8,2.2,2,2.2c1.2,0,2-1,2-2.2C471.6,509.2,470.8,508.2,469.6,508.2z"/>
	<path d="M476.7,513.5c-1.8,0-3-1.3-3-3.1c0-1.8,1.2-3.1,3-3.1c1.9,0,3,1.5,2.9,3.4h-4.9c0,1.1,0.9,1.9,2,1.9c0.7,0,1.4-0.3,1.7-1
		h1.1C479.2,512.6,478.3,513.5,476.7,513.5z M474.8,509.8h3.7c-0.2-1.1-0.9-1.7-1.8-1.7C475.9,508.2,475,508.6,474.8,509.8z"/>
	<path d="M481.7,505.8c-0.4,0-0.7-0.3-0.7-0.7c0-0.4,0.3-0.7,0.7-0.7c0.4,0,0.7,0.3,0.7,0.7C482.4,505.4,482.1,505.8,481.7,505.8z
		 M481.1,507.4h1v6h-1V507.4z"/>
</g>
<g class="st2">
	<path d="M346.5,509.8l-3.3-4.9h1.3l2.5,3.8l2.5-3.8h1.3l-3.3,4.9v3.6h-1.1V509.8z"/>
	<path d="M351.1,507.4h1v3.5c0,1,0.5,1.6,1.4,1.6c0.9,0,1.7-0.8,1.7-2.2v-3h1v6h-1v-0.9c-0.4,0.7-1.1,1-1.8,1
		c-1.3,0-2.2-0.9-2.2-2.4V507.4z"/>
	<path d="M358.1,507.4h1v0.9c0.4-0.7,1.1-1,1.9-1c1.3,0,2.3,0.9,2.3,2.4v3.7h-1v-3.5c0-1-0.6-1.6-1.4-1.6c-1,0-1.7,0.8-1.7,2.2v3h-1
		V507.4z"/>
	<path d="M365.2,507.4h1v0.9c0.4-0.7,1.1-1,1.9-1c1.3,0,2.3,0.9,2.3,2.4v3.7h-1v-3.5c0-1-0.6-1.6-1.4-1.6c-1,0-1.7,0.8-1.7,2.2v3h-1
		V507.4z"/>
	<path d="M374.7,507.3c0.9,0,1.7,0.5,2.1,1v-0.9h1v6h-1v-0.9c-0.4,0.6-1.2,1-2.1,1c-1.7,0-2.9-1.4-2.9-3.1
		C371.8,508.7,373,507.3,374.7,507.3z M374.9,508.2c-1.2,0-2.1,1-2.1,2.2c0,1.2,0.8,2.2,2.1,2.2s2-1,2-2.2
		C376.9,509.2,376.1,508.2,374.9,508.2z"/>
	<path d="M379.8,507.4h1v0.9c0.4-0.7,1.1-1,1.9-1c1.3,0,2.3,0.9,2.3,2.4v3.7h-1v-3.5c0-1-0.6-1.6-1.4-1.6c-1,0-1.7,0.8-1.7,2.2v3h-1
		V507.4z"/>
</g>
<g class="st2">
	<path d="M237.6,504.9h5v1.1h-3.8v2.6h3v1.1h-3v3.8h-1.1V504.9z"/>
	<path d="M243.4,507.4h1v3.5c0,1,0.5,1.6,1.4,1.6c0.9,0,1.7-0.8,1.7-2.2v-3h1v6h-1v-0.9c-0.4,0.7-1.1,1-1.8,1
		c-1.3,0-2.2-0.9-2.2-2.4V507.4z"/>
	<path d="M251.5,514.2c0,1.2-0.8,1.8-1.8,1.8c-0.2,0-0.3,0-0.5,0V515c0.1,0,0.2,0,0.3,0c0.6,0,0.9-0.3,0.9-1v-6.7h1V514.2z
		 M251,505.8c-0.4,0-0.7-0.3-0.7-0.7c0-0.4,0.3-0.7,0.7-0.7s0.7,0.3,0.7,0.7C251.8,505.4,251.4,505.8,251,505.8z"/>
	<path d="M254,505.8c-0.4,0-0.7-0.3-0.7-0.7c0-0.4,0.3-0.7,0.7-0.7s0.7,0.3,0.7,0.7C254.7,505.4,254.4,505.8,254,505.8z
		 M253.5,507.4h1v6h-1V507.4z"/>
	<path d="M259,507.3c0.9,0,1.7,0.5,2.1,1v-0.9h1v6h-1v-0.9c-0.4,0.6-1.2,1-2.1,1c-1.7,0-2.9-1.4-2.9-3.1
		C256,508.7,257.3,507.3,259,507.3z M259.1,508.2c-1.2,0-2.1,1-2.1,2.2c0,1.2,0.8,2.2,2.1,2.2s2-1,2-2.2
		C261.2,509.2,260.3,508.2,259.1,508.2z"/>
	<path d="M264,507.4h1v0.9c0.4-0.7,1.1-1,1.9-1c1.3,0,2.3,0.9,2.3,2.4v3.7h-1v-3.5c0-1-0.6-1.6-1.4-1.6c-1,0-1.7,0.8-1.7,2.2v3h-1
		V507.4z"/>
</g>
<g class="st2">
	<path d="M132.3,504.9h1.1v3.6h4.7v-3.6h1.1v8.5H138v-3.8h-4.7v3.8h-1.1V504.9z"/>
	<path d="M143.7,513.5c-1.8,0-3-1.3-3-3.1c0-1.8,1.2-3.1,3-3.1c1.9,0,3,1.5,2.9,3.4h-4.9c0,1.1,0.9,1.9,2,1.9c0.7,0,1.4-0.3,1.7-1
		h1.1C146.2,512.6,145.2,513.5,143.7,513.5z M141.8,509.8h3.7c-0.2-1.1-0.9-1.7-1.8-1.7C142.8,508.2,142,508.6,141.8,509.8z"/>
	<path d="M148.1,507.4h1v0.9c0.4-0.7,1.1-1,1.9-1c1.3,0,2.3,0.9,2.3,2.4v3.7h-1v-3.5c0-1-0.6-1.6-1.4-1.6c-1,0-1.7,0.8-1.7,2.2v3h-1
		V507.4z"/>
	<path d="M157.6,507.3c0.9,0,1.7,0.5,2.1,1v-0.9h1v6h-1v-0.9c-0.4,0.6-1.2,1-2.1,1c-1.7,0-2.9-1.4-2.9-3.1
		C154.7,508.7,156,507.3,157.6,507.3z M157.8,508.2c-1.2,0-2.1,1-2.1,2.2c0,1.2,0.8,2.2,2.1,2.2s2-1,2-2.2
		C159.8,509.2,159,508.2,157.8,508.2z"/>
	<path d="M162.7,507.4h1v0.9c0.4-0.7,1.1-1,1.9-1c1.3,0,2.3,0.9,2.3,2.4v3.7h-1v-3.5c0-1-0.6-1.6-1.4-1.6c-1,0-1.7,0.8-1.7,2.2v3h-1
		V507.4z"/>
</g>
<g class="st2">
	<path d="M25.3,504.9h1.1v3.6H31v-3.6h1.1v8.5H31v-3.8h-4.7v3.8h-1.1V504.9z"/>
	<path d="M36.6,507.3c0.9,0,1.7,0.5,2.1,1v-0.9h1v6h-1v-0.9c-0.4,0.6-1.2,1-2.1,1c-1.7,0-2.9-1.4-2.9-3.1
		C33.7,508.7,34.9,507.3,36.6,507.3z M36.8,508.2c-1.2,0-2.1,1-2.1,2.2c0,1.2,0.8,2.2,2.1,2.2s2-1,2-2.2
		C38.8,509.2,38,508.2,36.8,508.2z"/>
	<path d="M42.2,505.8c-0.4,0-0.7-0.3-0.7-0.7c0-0.4,0.3-0.7,0.7-0.7s0.7,0.3,0.7,0.7C43,505.4,42.6,505.8,42.2,505.8z M41.7,507.4h1
		v6h-1V507.4z"/>
	<path d="M44.7,507.4h1v0.9c0.4-0.7,1.1-1,1.9-1c1.3,0,2.3,0.9,2.3,2.4v3.7h-1v-3.5c0-1-0.6-1.6-1.4-1.6c-1,0-1.7,0.8-1.7,2.2v3h-1
		V507.4z"/>
	<path d="M54.2,507.3c0.9,0,1.7,0.5,2.1,1v-0.9h1v6h-1v-0.9c-0.4,0.6-1.2,1-2.1,1c-1.7,0-2.9-1.4-2.9-3.1
		C51.3,508.7,52.6,507.3,54.2,507.3z M54.4,508.2c-1.2,0-2.1,1-2.1,2.2c0,1.2,0.8,2.2,2.1,2.2s2-1,2-2.2
		C56.4,509.2,55.6,508.2,54.4,508.2z"/>
	<path d="M59.3,507.4h1v0.9c0.4-0.7,1.1-1,1.9-1c1.3,0,2.3,0.9,2.3,2.4v3.7h-1v-3.5c0-1-0.6-1.6-1.4-1.6c-1,0-1.7,0.8-1.7,2.2v3h-1
		V507.4z"/>
</g>
<g class="st2">
	<path d="M668.3,397.9c-1.4,0-2.5-0.9-2.5-2.4h1.1c0,0.9,0.7,1.4,1.4,1.4s1.4-0.4,1.4-1.6v-6h1.1v6.2
		C670.8,397.2,669.6,397.9,668.3,397.9z"/>
	<path d="M673.2,390.2c-0.4,0-0.7-0.3-0.7-0.7c0-0.4,0.3-0.7,0.7-0.7c0.4,0,0.7,0.3,0.7,0.7C674,389.8,673.7,390.2,673.2,390.2z
		 M672.7,391.8h1v6h-1V391.8z"/>
	<path d="M678.2,391.7c0.9,0,1.7,0.5,2.1,1v-0.9h1v6h-1v-0.9c-0.4,0.6-1.2,1-2.1,1c-1.7,0-2.9-1.4-2.9-3.1
		C675.2,393.1,676.5,391.7,678.2,391.7z M678.3,392.6c-1.2,0-2.1,1-2.1,2.2c0,1.2,0.8,2.2,2.1,2.2c1.2,0,2-1,2-2.2
		C680.4,393.6,679.5,392.6,678.3,392.6z"/>
	<path d="M683.3,391.8h1v0.9c0.4-0.7,1.1-1,1.9-1c1.3,0,2.3,0.9,2.3,2.4v3.7h-1v-3.5c0-1-0.6-1.6-1.4-1.6c-1,0-1.7,0.8-1.7,2.2v3h-1
		V391.8z"/>
	<path d="M691.1,398.3c0.3,0.8,0.9,1.2,1.9,1.2c1.1,0,1.9-0.7,1.9-2.1v-0.7c-0.4,0.6-1.2,1.1-2.1,1.1c-1.7,0-2.9-1.3-2.9-3.1
		c0-1.7,1.3-3,2.9-3c0.9,0,1.7,0.4,2.1,1v-0.9h1v5.6c0,2-1.3,3-3,3c-1.6,0-2.7-0.9-2.9-2.1H691.1z M692.9,392.6c-1.2,0-2,0.9-2,2.1
		c0,1.2,0.8,2.1,2,2.1s2-0.9,2-2.1C695,393.5,694.1,392.6,692.9,392.6z"/>
	<path d="M699.4,394.7l-2.3-3h1.2l1.7,2.2l1.6-2.2h1.3l-2.3,3l2.4,3h-1.3l-1.8-2.3l-1.8,2.3H697L699.4,394.7z"/>
	<path d="M704.8,390.2c-0.4,0-0.7-0.3-0.7-0.7c0-0.4,0.3-0.7,0.7-0.7c0.4,0,0.7,0.3,0.7,0.7C705.5,389.8,705.2,390.2,704.8,390.2z
		 M704.2,391.8h1v6h-1V391.8z"/>
</g>
<g class="st2">
	<path d="M560.2,389.1c2,0,3.5,1.2,4,2.7H563c-0.5-0.9-1.5-1.6-2.8-1.6c-1.9,0-3.3,1.5-3.3,3.3s1.4,3.3,3.3,3.3c1.8,0,3-1.2,3.1-2.9
		h-3.2v-1h4.3c0.2,3.1-1.8,5-4.3,5c-2.5,0-4.4-1.9-4.4-4.4S557.7,389.1,560.2,389.1z"/>
	<path d="M565.9,391.8h1v3.5c0,1,0.5,1.6,1.4,1.6c0.9,0,1.7-0.8,1.7-2.2v-3h1v6h-1v-0.9c-0.4,0.7-1.1,1-1.8,1
		c-1.3,0-2.2-0.9-2.2-2.4V391.8z"/>
	<path d="M575.4,391.7c0.9,0,1.7,0.5,2.1,1v-0.9h1v6h-1v-0.9c-0.4,0.6-1.2,1-2.1,1c-1.7,0-2.9-1.4-2.9-3.1
		C572.5,393.1,573.7,391.7,575.4,391.7z M575.6,392.6c-1.2,0-2.1,1-2.1,2.2c0,1.2,0.8,2.2,2.1,2.2c1.2,0,2-1,2-2.2
		C577.6,393.6,576.8,392.6,575.6,392.6z"/>
	<path d="M580.5,391.8h1v0.9c0.4-0.7,1.1-1,1.9-1c1.3,0,2.3,0.9,2.3,2.4v3.7h-1v-3.5c0-1-0.6-1.6-1.4-1.6c-1,0-1.7,0.8-1.7,2.2v3h-1
		V391.8z"/>
	<path d="M588.3,398.3c0.3,0.8,0.9,1.2,1.9,1.2c1.1,0,1.9-0.7,1.9-2.1v-0.7c-0.4,0.6-1.2,1.1-2.1,1.1c-1.7,0-2.9-1.3-2.9-3.1
		c0-1.7,1.3-3,2.9-3c0.9,0,1.7,0.4,2.1,1v-0.9h1v5.6c0,2-1.3,3-3,3c-1.6,0-2.7-0.9-2.9-2.1H588.3z M590.2,392.6c-1.2,0-2,0.9-2,2.1
		c0,1.2,0.8,2.1,2,2.1s2-0.9,2-2.1C592.2,393.5,591.4,392.6,590.2,392.6z"/>
	<path d="M597.6,391.7c0.9,0,1.7,0.5,2.1,1v-3.9h1v9h-1v-0.9c-0.4,0.6-1.2,1-2.1,1c-1.7,0-2.9-1.4-2.9-3.1
		C594.7,393.1,595.9,391.7,597.6,391.7z M597.7,392.6c-1.2,0-2.1,1-2.1,2.2c0,1.2,0.8,2.2,2.1,2.2c1.2,0,2-1,2-2.2
		C599.8,393.6,599,392.6,597.7,392.6z"/>
	<path d="M605.3,397.9c-1.8,0-3.1-1.4-3.1-3.1c0-1.7,1.3-3.1,3.1-3.1c1.8,0,3.1,1.4,3.1,3.1C608.5,396.5,607.1,397.9,605.3,397.9z
		 M605.3,396.9c1.2,0,2.1-1,2.1-2.2s-0.8-2.2-2.1-2.2c-1.2,0-2.1,1-2.1,2.2S604.1,396.9,605.3,396.9z"/>
	<path d="M609.9,391.8h1v0.9c0.4-0.7,1.1-1,1.9-1c1.3,0,2.3,0.9,2.3,2.4v3.7h-1v-3.5c0-1-0.6-1.6-1.4-1.6c-1,0-1.7,0.8-1.7,2.2v3h-1
		V391.8z"/>
	<path d="M617.8,398.3c0.3,0.8,0.9,1.2,1.9,1.2c1.1,0,1.9-0.7,1.9-2.1v-0.7c-0.4,0.6-1.2,1.1-2.1,1.1c-1.7,0-2.9-1.3-2.9-3.1
		c0-1.7,1.3-3,2.9-3c0.9,0,1.7,0.4,2.1,1v-0.9h1v5.6c0,2-1.3,3-3,3c-1.6,0-2.7-0.9-2.9-2.1H617.8z M619.6,392.6c-1.2,0-2,0.9-2,2.1
		c0,1.2,0.8,2.1,2,2.1s2-0.9,2-2.1C621.7,393.5,620.8,392.6,619.6,392.6z"/>
</g>
<g class="st2">
	<path d="M454.5,389.1c2,0,3.5,1.2,4,2.7h-1.2c-0.5-0.9-1.5-1.6-2.8-1.6c-1.9,0-3.3,1.5-3.3,3.3s1.4,3.3,3.3,3.3
		c1.8,0,3-1.2,3.1-2.9h-3.2v-1h4.3c0.2,3.1-1.8,5-4.3,5c-2.5,0-4.4-1.9-4.4-4.4S452.1,389.1,454.5,389.1z"/>
	<path d="M460.2,391.8h1v3.5c0,1,0.5,1.6,1.4,1.6c0.9,0,1.7-0.8,1.7-2.2v-3h1v6h-1v-0.9c-0.4,0.7-1.1,1-1.8,1
		c-1.3,0-2.2-0.9-2.2-2.4V391.8z"/>
	<path d="M467.8,390.2c-0.4,0-0.7-0.3-0.7-0.7c0-0.4,0.3-0.7,0.7-0.7c0.4,0,0.7,0.3,0.7,0.7C468.5,389.8,468.2,390.2,467.8,390.2z
		 M467.3,391.8h1v6h-1V391.8z"/>
	<path d="M469.8,397l3.4-4.2h-3.4v-0.9h4.7v0.8l-3.4,4.2h3.5v0.9h-4.9V397z"/>
	<path d="M476.1,388.8h1v3.9c0.4-0.7,1.1-1,1.9-1c1.3,0,2.3,0.9,2.3,2.4v3.7h-1v-3.5c0-1-0.6-1.6-1.4-1.6c-1,0-1.7,0.8-1.7,2.2v3h-1
		V388.8z"/>
	<path d="M485.8,397.9c-1.8,0-3.1-1.4-3.1-3.1c0-1.7,1.3-3.1,3.1-3.1c1.8,0,3.1,1.4,3.1,3.1C488.9,396.5,487.6,397.9,485.8,397.9z
		 M485.8,396.9c1.2,0,2.1-1,2.1-2.2s-0.8-2.2-2.1-2.2s-2.1,1-2.1,2.2S484.6,396.9,485.8,396.9z"/>
	<path d="M490.3,391.8h1v3.5c0,1,0.5,1.6,1.4,1.6c0.9,0,1.7-0.8,1.7-2.2v-3h1v6h-1v-0.9c-0.4,0.7-1.1,1-1.8,1
		c-1.3,0-2.2-0.9-2.2-2.4V391.8z"/>
</g>
<g class="st2">
	<path d="M344.7,395.5c0.1,0.9,1,1.4,1.8,1.4c0.9,0,1.6-0.5,1.6-1.3c0-0.7-0.4-1.1-1.2-1.4l-1.2-0.4c-1.3-0.5-2-1.2-2-2.4
		c0-1.4,1.1-2.2,2.6-2.2c1.7,0,2.6,1.2,2.7,2.3h-1.1c-0.2-0.9-0.9-1.3-1.6-1.3c-0.8,0-1.5,0.4-1.5,1.2c0,0.7,0.4,1.1,1.2,1.4
		l1.1,0.4c1.3,0.5,2,1.2,2,2.5c0,1.4-1.1,2.4-2.7,2.4c-1.8,0-2.9-1.1-3-2.4H344.7z"/>
	<path d="M350.8,388.8h1v3.9c0.4-0.7,1.1-1,1.9-1c1.3,0,2.3,0.9,2.3,2.4v3.7h-1v-3.5c0-1-0.6-1.6-1.4-1.6c-1,0-1.7,0.8-1.7,2.2v3h-1
		V388.8z"/>
	<path d="M360.3,391.7c0.9,0,1.7,0.5,2.1,1v-0.9h1v6h-1v-0.9c-0.4,0.6-1.2,1-2.1,1c-1.7,0-2.9-1.4-2.9-3.1
		C357.4,393.1,358.6,391.7,360.3,391.7z M360.4,392.6c-1.2,0-2.1,1-2.1,2.2c0,1.2,0.8,2.2,2.1,2.2s2-1,2-2.2
		C362.5,393.6,361.7,392.6,360.4,392.6z"/>
	<path d="M365.4,391.8h1v0.9c0.4-0.7,1.1-1,1.9-1c1.3,0,2.3,0.9,2.3,2.4v3.7h-1v-3.5c0-1-0.6-1.6-1.4-1.6c-1,0-1.7,0.8-1.7,2.2v3h-1
		V391.8z"/>
	<path d="M373.2,398.3c0.3,0.8,0.9,1.2,1.9,1.2c1.1,0,1.9-0.7,1.9-2.1v-0.7c-0.4,0.6-1.2,1.1-2.1,1.1c-1.7,0-2.9-1.3-2.9-3.1
		c0-1.7,1.3-3,2.9-3c0.9,0,1.7,0.4,2.1,1v-0.9h1v5.6c0,2-1.3,3-3,3c-1.6,0-2.7-0.9-2.9-2.1H373.2z M375.1,392.6c-1.2,0-2,0.9-2,2.1
		c0,1.2,0.8,2.1,2,2.1s2-0.9,2-2.1C377.1,393.5,376.3,392.6,375.1,392.6z"/>
	<path d="M380,388.8h1v3.9c0.4-0.7,1.1-1,1.9-1c1.3,0,2.3,0.9,2.3,2.4v3.7h-1v-3.5c0-1-0.6-1.6-1.4-1.6c-1,0-1.7,0.8-1.7,2.2v3h-1
		V388.8z"/>
	<path d="M389.5,391.7c0.9,0,1.7,0.5,2.1,1v-0.9h1v6h-1v-0.9c-0.4,0.6-1.2,1-2.1,1c-1.7,0-2.9-1.4-2.9-3.1
		C386.6,393.1,387.8,391.7,389.5,391.7z M389.7,392.6c-1.2,0-2.1,1-2.1,2.2c0,1.2,0.8,2.2,2.1,2.2c1.2,0,2-1,2-2.2
		C391.7,393.6,390.9,392.6,389.7,392.6z"/>
	<path d="M395.1,390.2c-0.4,0-0.7-0.3-0.7-0.7c0-0.4,0.3-0.7,0.7-0.7c0.4,0,0.7,0.3,0.7,0.7C395.9,389.8,395.5,390.2,395.1,390.2z
		 M394.6,391.8h1v6h-1V391.8z"/>
</g>
<g class="st2">
	<path d="M238.1,395.5c0.1,0.9,1,1.4,1.8,1.4c0.9,0,1.6-0.5,1.6-1.3c0-0.7-0.4-1.1-1.2-1.4l-1.2-0.4c-1.3-0.5-2-1.2-2-2.4
		c0-1.4,1.1-2.2,2.6-2.2c1.7,0,2.6,1.2,2.7,2.3h-1.1c-0.2-0.9-0.9-1.3-1.6-1.3c-0.8,0-1.5,0.4-1.5,1.2c0,0.7,0.4,1.1,1.2,1.4
		l1.1,0.4c1.3,0.5,2,1.2,2,2.5c0,1.4-1.1,2.4-2.7,2.4c-1.8,0-2.9-1.1-3-2.4H238.1z"/>
	<path d="M244.2,388.8h1v3.9c0.4-0.7,1.1-1,1.9-1c1.3,0,2.3,0.9,2.3,2.4v3.7h-1v-3.5c0-1-0.6-1.6-1.4-1.6c-1,0-1.7,0.8-1.7,2.2v3h-1
		V388.8z"/>
	<path d="M253.8,391.7c0.9,0,1.7,0.5,2.1,1v-0.9h1v6h-1v-0.9c-0.4,0.6-1.2,1-2.1,1c-1.7,0-2.9-1.4-2.9-3.1
		C250.8,393.1,252.1,391.7,253.8,391.7z M253.9,392.6c-1.2,0-2.1,1-2.1,2.2c0,1.2,0.8,2.2,2.1,2.2s2-1,2-2.2
		C256,393.6,255.1,392.6,253.9,392.6z"/>
	<path d="M261.3,391.7c0.9,0,1.7,0.5,2.1,1v-0.9h1v6h-1v-0.9c-0.4,0.6-1.2,1-2.1,1c-1.7,0-2.9-1.4-2.9-3.1
		C258.4,393.1,259.6,391.7,261.3,391.7z M261.5,392.6c-1.2,0-2.1,1-2.1,2.2c0,1.2,0.8,2.2,2.1,2.2s2-1,2-2.2
		C263.5,393.6,262.7,392.6,261.5,392.6z"/>
	<path d="M266.4,391.8h1v0.9c0.4-0.7,1.1-1,1.9-1c1.3,0,2.3,0.9,2.3,2.4v3.7h-1v-3.5c0-1-0.6-1.6-1.4-1.6c-1,0-1.7,0.8-1.7,2.2v3h-1
		V391.8z"/>
	<path d="M275,394.7l-2.3-3h1.2l1.7,2.2l1.6-2.2h1.3l-2.3,3l2.4,3h-1.3l-1.8-2.3l-1.8,2.3h-1.3L275,394.7z"/>
	<path d="M280.4,390.2c-0.4,0-0.7-0.3-0.7-0.7c0-0.4,0.3-0.7,0.7-0.7s0.7,0.3,0.7,0.7C281.1,389.8,280.8,390.2,280.4,390.2z
		 M279.8,391.8h1v6h-1V391.8z"/>
</g>
<g class="st2">
	<path d="M136.4,390.3h-2.7v-1.1h6.4v1.1h-2.7v7.5h-1.1V390.3z"/>
	<path d="M141.8,390.2c-0.4,0-0.7-0.3-0.7-0.7c0-0.4,0.3-0.7,0.7-0.7s0.7,0.3,0.7,0.7C142.5,389.8,142.2,390.2,141.8,390.2z
		 M141.3,391.8h1v6h-1V391.8z"/>
	<path d="M145.3,397.8h-1v-9h1v3.9c0.4-0.6,1.2-1,2.1-1c1.7,0,2.9,1.4,2.9,3.1c0,1.7-1.3,3.1-2.9,3.1c-0.9,0-1.7-0.5-2.1-1V397.8z
		 M147.2,392.6c-1.2,0-2,1-2,2.2c0,1.2,0.8,2.2,2,2.2c1.2,0,2-1,2-2.2C149.3,393.6,148.4,392.6,147.2,392.6z"/>
	<path d="M154.4,397.9c-1.8,0-3-1.3-3-3.1c0-1.8,1.2-3.1,3-3.1c1.9,0,3,1.5,2.9,3.4h-4.9c0,1.1,0.9,1.9,2,1.9c0.7,0,1.4-0.3,1.7-1
		h1.1C156.9,397,155.9,397.9,154.4,397.9z M152.4,394.2h3.7c-0.2-1.1-0.9-1.7-1.8-1.7C153.5,392.6,152.6,393,152.4,394.2z"/>
	<path d="M161,397.8c-1,0-1.8-0.6-1.8-1.8v-3.3h-1.3v-0.9h1.3v-1.7h1v1.7h1.7v0.9h-1.7v3.1c0,0.8,0.3,1,1,1c0.3,0,0.5,0,0.7-0.1v0.9
		C161.7,397.8,161.4,397.8,161,397.8z"/>
</g>
<g class="st2">
	<path d="M29.1,389.1c2,0,3.5,1.2,4,2.7h-1.2c-0.5-0.9-1.5-1.6-2.8-1.6c-1.9,0-3.3,1.5-3.3,3.3s1.4,3.3,3.3,3.3c1.8,0,3-1.2,3.1-2.9
		H29v-1h4.3c0.2,3.1-1.8,5-4.3,5c-2.5,0-4.4-1.9-4.4-4.4S26.6,389.1,29.1,389.1z"/>
	<path d="M37.4,391.7c0.9,0,1.7,0.5,2.1,1v-0.9h1v6h-1v-0.9c-0.4,0.6-1.2,1-2.1,1c-1.7,0-2.9-1.4-2.9-3.1
		C34.4,393.1,35.7,391.7,37.4,391.7z M37.5,392.6c-1.2,0-2.1,1-2.1,2.2c0,1.2,0.8,2.2,2.1,2.2s2-1,2-2.2
		C39.6,393.6,38.7,392.6,37.5,392.6z"/>
	<path d="M42.5,391.8h1v0.9c0.4-0.7,1.1-1,1.9-1c1.3,0,2.3,0.9,2.3,2.4v3.7h-1v-3.5c0-1-0.6-1.6-1.4-1.6c-1,0-1.7,0.8-1.7,2.2v3h-1
		V391.8z"/>
	<path d="M51.5,397.9c-1.3,0-2.4-0.6-2.4-1.9h1.1c0.1,0.7,0.8,1,1.4,1c0.6,0,1.2-0.3,1.2-0.8c0-0.5-0.3-0.8-1-1l-0.9-0.2
		c-1-0.3-1.5-0.9-1.5-1.8c0-1,0.9-1.6,2.1-1.6c1.3,0,2.1,0.8,2.2,1.7h-1c-0.2-0.5-0.6-0.9-1.2-0.9c-0.6,0-1,0.3-1,0.7
		c0,0.4,0.3,0.7,0.9,0.9l1,0.3c1,0.3,1.5,0.9,1.5,1.8C53.7,397.3,52.7,397.9,51.5,397.9z"/>
	<path d="M55,391.8h1v3.5c0,1,0.5,1.6,1.4,1.6c0.9,0,1.7-0.8,1.7-2.2v-3h1v6h-1v-0.9c-0.4,0.7-1.1,1-1.8,1c-1.3,0-2.2-0.9-2.2-2.4
		V391.8z"/>
</g>
<g class="st2">
	<path d="M664.7,287.8l4.6-6.7h-4.5V280h6v0.7l-4.6,6.7h4.7v1.1h-6.2V287.8z"/>
	<path d="M672.3,279.6h1v3.9c0.4-0.7,1.1-1,1.9-1c1.3,0,2.3,0.9,2.3,2.4v3.7h-1V285c0-1-0.6-1.6-1.4-1.6c-1,0-1.7,0.8-1.7,2.2v3h-1
		V279.6z"/>
	<path d="M682,288.7c-1.8,0-3-1.3-3-3.1c0-1.8,1.2-3.1,3-3.1c1.9,0,3,1.5,2.9,3.4H680c0,1.1,0.9,1.9,2,1.9c0.7,0,1.4-0.3,1.7-1h1.1
		C684.5,287.8,683.5,288.7,682,288.7z M680,285h3.7c-0.2-1.1-0.9-1.7-1.8-1.7C681.1,283.4,680.2,283.8,680,285z"/>
	<path d="M687.5,289.4c0,1.2-0.8,1.8-1.8,1.8c-0.2,0-0.3,0-0.5,0v-0.9c0.1,0,0.2,0,0.3,0c0.6,0,0.9-0.3,0.9-1v-6.7h1V289.4z
		 M687,281c-0.4,0-0.7-0.3-0.7-0.7c0-0.4,0.3-0.7,0.7-0.7c0.4,0,0.7,0.3,0.7,0.7C687.7,280.6,687.4,281,687,281z"/>
	<path d="M690,281c-0.4,0-0.7-0.3-0.7-0.7c0-0.4,0.3-0.7,0.7-0.7c0.4,0,0.7,0.3,0.7,0.7C690.7,280.6,690.4,281,690,281z
		 M689.4,282.6h1v6h-1V282.6z"/>
	<path d="M694.9,282.4c0.9,0,1.7,0.5,2.1,1v-0.9h1v6h-1v-0.9c-0.4,0.6-1.2,1-2.1,1c-1.7,0-2.9-1.4-2.9-3.1
		C692,283.8,693.2,282.4,694.9,282.4z M695.1,283.4c-1.2,0-2.1,1-2.1,2.2c0,1.2,0.8,2.2,2.1,2.2c1.2,0,2-1,2-2.2
		C697.1,284.3,696.3,283.4,695.1,283.4z"/>
	<path d="M700,282.6h1v0.9c0.4-0.7,1.1-1,1.9-1c1.3,0,2.3,0.9,2.3,2.4v3.7h-1V285c0-1-0.6-1.6-1.4-1.6c-1,0-1.7,0.8-1.7,2.2v3h-1
		V282.6z"/>
	<path d="M707.8,289.1c0.3,0.8,0.9,1.2,1.9,1.2c1.1,0,1.9-0.7,1.9-2.1v-0.7c-0.4,0.6-1.2,1.1-2.1,1.1c-1.7,0-2.9-1.3-2.9-3.1
		c0-1.7,1.3-3,2.9-3c0.9,0,1.7,0.4,2.1,1v-0.9h1v5.6c0,2-1.3,3-3,3c-1.6,0-2.7-0.9-2.9-2.1H707.8z M709.7,283.4c-1.2,0-2,0.9-2,2.1
		c0,1.2,0.8,2.1,2,2.1s2-0.9,2-2.1C711.7,284.3,710.9,283.4,709.7,283.4z"/>
</g>
<g class="st2">
	<path d="M556.9,286.3c0.1,0.9,1,1.4,1.8,1.4c0.9,0,1.6-0.5,1.6-1.3c0-0.7-0.4-1.1-1.2-1.4l-1.2-0.4c-1.3-0.5-2-1.2-2-2.4
		c0-1.4,1.1-2.2,2.6-2.2c1.7,0,2.6,1.2,2.7,2.3h-1.1c-0.2-0.9-0.9-1.3-1.6-1.3c-0.8,0-1.5,0.4-1.5,1.2c0,0.7,0.4,1.1,1.2,1.4
		l1.1,0.4c1.3,0.5,2,1.2,2,2.5c0,1.4-1.1,2.4-2.7,2.4c-1.8,0-2.9-1.1-3-2.4H556.9z"/>
	<path d="M563,279.6h1v3.9c0.4-0.7,1.1-1,1.9-1c1.3,0,2.3,0.9,2.3,2.4v3.7h-1V285c0-1-0.6-1.6-1.4-1.6c-1,0-1.7,0.8-1.7,2.2v3h-1
		V279.6z"/>
	<path d="M572.5,282.4c0.9,0,1.7,0.5,2.1,1v-0.9h1v6h-1v-0.9c-0.4,0.6-1.2,1-2.1,1c-1.7,0-2.9-1.4-2.9-3.1
		C569.6,283.8,570.8,282.4,572.5,282.4z M572.7,283.4c-1.2,0-2.1,1-2.1,2.2c0,1.2,0.8,2.2,2.1,2.2c1.2,0,2-1,2-2.2
		C574.7,284.3,573.9,283.4,572.7,283.4z"/>
	<path d="M577.6,282.6h1v0.9c0.4-0.7,1.1-1,1.9-1c1.3,0,2.3,0.9,2.3,2.4v3.7h-1V285c0-1-0.6-1.6-1.4-1.6c-1,0-1.7,0.8-1.7,2.2v3h-1
		V282.6z"/>
	<path d="M586.2,285.5l-2.3-3h1.2l1.7,2.2l1.6-2.2h1.3l-2.3,3l2.4,3h-1.3l-1.8-2.3l-1.8,2.3h-1.3L586.2,285.5z"/>
	<path d="M591.5,281c-0.4,0-0.7-0.3-0.7-0.7c0-0.4,0.3-0.7,0.7-0.7c0.4,0,0.7,0.3,0.7,0.7C592.3,280.6,591.9,281,591.5,281z
		 M591,282.6h1v6h-1V282.6z"/>
</g>
<g class="st2">
	<path d="M452.4,281.1h-2.7V280h6.4v1.1h-2.7v7.5h-1.1V281.1z"/>
	<path d="M457.8,281c-0.4,0-0.7-0.3-0.7-0.7c0-0.4,0.3-0.7,0.7-0.7c0.4,0,0.7,0.3,0.7,0.7C458.5,280.6,458.2,281,457.8,281z
		 M457.3,282.6h1v6h-1V282.6z"/>
	<path d="M462.7,282.4c0.9,0,1.7,0.5,2.1,1v-0.9h1v6h-1v-0.9c-0.4,0.6-1.2,1-2.1,1c-1.7,0-2.9-1.4-2.9-3.1
		C459.8,283.8,461.1,282.4,462.7,282.4z M462.9,283.4c-1.2,0-2.1,1-2.1,2.2c0,1.2,0.8,2.2,2.1,2.2c1.2,0,2-1,2-2.2
		C464.9,284.3,464.1,283.4,462.9,283.4z"/>
	<path d="M467.8,282.6h1v0.9c0.4-0.7,1.1-1,1.9-1c1.3,0,2.3,0.9,2.3,2.4v3.7h-1V285c0-1-0.6-1.6-1.4-1.6c-1,0-1.7,0.8-1.7,2.2v3h-1
		V282.6z"/>
	<path d="M476,289.4c0,1.2-0.8,1.8-1.8,1.8c-0.2,0-0.3,0-0.5,0v-0.9c0.1,0,0.2,0,0.3,0c0.6,0,0.9-0.3,0.9-1v-6.7h1V289.4z
		 M475.5,281c-0.4,0-0.7-0.3-0.7-0.7c0-0.4,0.3-0.7,0.7-0.7c0.4,0,0.7,0.3,0.7,0.7C476.2,280.6,475.9,281,475.5,281z"/>
	<path d="M478.5,281c-0.4,0-0.7-0.3-0.7-0.7c0-0.4,0.3-0.7,0.7-0.7c0.4,0,0.7,0.3,0.7,0.7C479.2,280.6,478.9,281,478.5,281z
		 M478,282.6h1v6h-1V282.6z"/>
	<path d="M481,282.6h1v0.9c0.4-0.7,1.1-1,1.9-1c1.3,0,2.3,0.9,2.3,2.4v3.7h-1V285c0-1-0.6-1.6-1.4-1.6c-1,0-1.7,0.8-1.7,2.2v3h-1
		V282.6z"/>
</g>
<g class="st2">
	<path d="M344.2,280h1.1v3.6h4.7V280h1.1v8.5H350v-3.8h-4.7v3.8h-1.1V280z"/>
	<path d="M355.6,288.7c-1.8,0-3-1.3-3-3.1c0-1.8,1.2-3.1,3-3.1c1.9,0,3,1.5,2.9,3.4h-4.9c0,1.1,0.9,1.9,2,1.9c0.7,0,1.4-0.3,1.7-1
		h1.1C358.1,287.8,357.1,288.7,355.6,288.7z M353.7,285h3.7c-0.2-1.1-0.9-1.7-1.8-1.7C354.7,283.4,353.9,283.8,353.7,285z"/>
	<path d="M361,288.6h-1v-9h1v3.9c0.4-0.6,1.2-1,2.1-1c1.7,0,2.9,1.4,2.9,3.1c0,1.7-1.3,3.1-2.9,3.1c-0.9,0-1.7-0.5-2.1-1V288.6z
		 M363,283.4c-1.2,0-2,1-2,2.2c0,1.2,0.8,2.2,2,2.2c1.2,0,2-1,2-2.2C365,284.3,364.2,283.4,363,283.4z"/>
	<path d="M370.1,288.7c-1.8,0-3-1.3-3-3.1c0-1.8,1.2-3.1,3-3.1c1.9,0,3,1.5,2.9,3.4h-4.9c0,1.1,0.9,1.9,2,1.9c0.7,0,1.4-0.3,1.7-1
		h1.1C372.6,287.8,371.7,288.7,370.1,288.7z M368.2,285h3.7c-0.2-1.1-0.9-1.7-1.8-1.7C369.3,283.4,368.4,283.8,368.2,285z"/>
	<path d="M375.1,281c-0.4,0-0.7-0.3-0.7-0.7c0-0.4,0.3-0.7,0.7-0.7s0.7,0.3,0.7,0.7C375.8,280.6,375.5,281,375.1,281z M374.5,282.6
		h1v6h-1V282.6z"/>
</g>
<g class="st2">
	<path d="M244.4,288.7c-1.4,0-2.5-0.9-2.5-2.4h1.1c0,0.9,0.7,1.4,1.4,1.4c0.7,0,1.4-0.4,1.4-1.6v-6h1.1v6.2
		C246.9,288,245.8,288.7,244.4,288.7z"/>
	<path d="M249.4,281c-0.4,0-0.7-0.3-0.7-0.7c0-0.4,0.3-0.7,0.7-0.7s0.7,0.3,0.7,0.7C250.1,280.6,249.8,281,249.4,281z M248.9,282.6
		h1v6h-1V282.6z"/>
	<path d="M251.9,279.6h1v9h-1V279.6z"/>
	<path d="M255.4,281c-0.4,0-0.7-0.3-0.7-0.7c0-0.4,0.3-0.7,0.7-0.7s0.7,0.3,0.7,0.7C256.1,280.6,255.8,281,255.4,281z M254.9,282.6
		h1v6h-1V282.6z"/>
	<path d="M257.9,282.6h1v0.9c0.4-0.7,1.1-1,1.9-1c1.3,0,2.3,0.9,2.3,2.4v3.7h-1V285c0-1-0.6-1.6-1.4-1.6c-1,0-1.7,0.8-1.7,2.2v3h-1
		V282.6z"/>
</g>
<g class="st2">
	<path d="M132.3,280h2.8c1.6,0,2.5,1.1,2.5,2.3c0,0.8-0.4,1.4-0.9,1.7c0.8,0.3,1.5,0.9,1.5,2c0,1.4-1.1,2.5-2.9,2.5h-3V280z
		 M135.1,283.7c0.9,0,1.5-0.6,1.5-1.3c0-0.7-0.5-1.3-1.5-1.3h-1.7v2.7H135.1z M135.4,287.6c1.1,0,1.7-0.6,1.7-1.4
		c0-0.8-0.6-1.5-1.7-1.5h-2v2.9H135.4z"/>
	<path d="M142.2,288.7c-1.8,0-3-1.3-3-3.1c0-1.8,1.2-3.1,3-3.1c1.9,0,3,1.5,2.9,3.4h-4.9c0,1.1,0.9,1.9,2,1.9c0.7,0,1.4-0.3,1.7-1
		h1.1C144.7,287.8,143.7,288.7,142.2,288.7z M140.3,285h3.7c-0.2-1.1-0.9-1.7-1.8-1.7C141.3,283.4,140.5,283.8,140.3,285z"/>
	<path d="M147.1,281c-0.4,0-0.7-0.3-0.7-0.7c0-0.4,0.3-0.7,0.7-0.7s0.7,0.3,0.7,0.7C147.8,280.6,147.5,281,147.1,281z M146.6,282.6
		h1v6h-1V282.6z"/>
	<path d="M150.7,289.4c0,1.2-0.8,1.8-1.8,1.8c-0.2,0-0.3,0-0.5,0v-0.9c0.1,0,0.2,0,0.3,0c0.6,0,0.9-0.3,0.9-1v-6.7h1V289.4z
		 M150.2,281c-0.4,0-0.7-0.3-0.7-0.7c0-0.4,0.3-0.7,0.7-0.7s0.7,0.3,0.7,0.7C150.9,280.6,150.6,281,150.2,281z"/>
	<path d="M153.2,281c-0.4,0-0.7-0.3-0.7-0.7c0-0.4,0.3-0.7,0.7-0.7s0.7,0.3,0.7,0.7C153.9,280.6,153.6,281,153.2,281z M152.7,282.6
		h1v6h-1V282.6z"/>
	<path d="M155.7,282.6h1v0.9c0.4-0.7,1.1-1,1.9-1c1.3,0,2.3,0.9,2.3,2.4v3.7h-1V285c0-1-0.6-1.6-1.4-1.6c-1,0-1.7,0.8-1.7,2.2v3h-1
		V282.6z"/>
	<path d="M163.5,289.1c0.3,0.8,0.9,1.2,1.9,1.2c1.1,0,1.9-0.7,1.9-2.1v-0.7c-0.4,0.6-1.2,1.1-2.1,1.1c-1.7,0-2.9-1.3-2.9-3.1
		c0-1.7,1.3-3,2.9-3c0.9,0,1.7,0.4,2.1,1v-0.9h1v5.6c0,2-1.3,3-3,3c-1.6,0-2.7-0.9-2.9-2.1H163.5z M165.3,283.4c-1.2,0-2,0.9-2,2.1
		c0,1.2,0.8,2.1,2,2.1s2-0.9,2-2.1C167.4,284.3,166.5,283.4,165.3,283.4z"/>
</g>
<g class="st2">
	<path d="M25.3,280h1.1v7.5h4.1v1.1h-5.2V280z"/>
	<path d="M32.2,281c-0.4,0-0.7-0.3-0.7-0.7c0-0.4,0.3-0.7,0.7-0.7s0.7,0.3,0.7,0.7C32.9,280.6,32.6,281,32.2,281z M31.7,282.6h1v6
		h-1V282.6z"/>
	<path d="M37.1,282.4c0.9,0,1.7,0.5,2.1,1v-0.9h1v6h-1v-0.9c-0.4,0.6-1.2,1-2.1,1c-1.7,0-2.9-1.4-2.9-3.1
		C34.2,283.8,35.4,282.4,37.1,282.4z M37.3,283.4c-1.2,0-2.1,1-2.1,2.2c0,1.2,0.8,2.2,2.1,2.2s2-1,2-2.2
		C39.3,284.3,38.5,283.4,37.3,283.4z"/>
	<path d="M44.9,288.7c-1.8,0-3.1-1.4-3.1-3.1c0-1.7,1.3-3.1,3.1-3.1c1.8,0,3.1,1.4,3.1,3.1C48,287.3,46.7,288.7,44.9,288.7z
		 M44.9,287.7c1.2,0,2.1-1,2.1-2.2s-0.8-2.2-2.1-2.2c-1.2,0-2.1,1-2.1,2.2S43.6,287.7,44.9,287.7z"/>
	<path d="M49.5,282.6h1v0.9c0.4-0.7,1.1-1,1.9-1c1.3,0,2.3,0.9,2.3,2.4v3.7h-1V285c0-1-0.6-1.6-1.4-1.6c-1,0-1.7,0.8-1.7,2.2v3h-1
		V282.6z"/>
	<path d="M57.1,281c-0.4,0-0.7-0.3-0.7-0.7c0-0.4,0.3-0.7,0.7-0.7s0.7,0.3,0.7,0.7C57.8,280.6,57.5,281,57.1,281z M56.6,282.6h1v6
		h-1V282.6z"/>
	<path d="M59.5,282.6h1v0.9c0.4-0.7,1.1-1,1.9-1c1.3,0,2.3,0.9,2.3,2.4v3.7h-1V285c0-1-0.6-1.6-1.4-1.6c-1,0-1.7,0.8-1.7,2.2v3h-1
		V282.6z"/>
	<path d="M67.4,289.1c0.3,0.8,0.9,1.2,1.9,1.2c1.1,0,1.9-0.7,1.9-2.1v-0.7c-0.4,0.6-1.2,1.1-2.1,1.1c-1.7,0-2.9-1.3-2.9-3.1
		c0-1.7,1.3-3,2.9-3c0.9,0,1.7,0.4,2.1,1v-0.9h1v5.6c0,2-1.3,3-3,3c-1.6,0-2.7-0.9-2.9-2.1H67.4z M69.2,283.4c-1.2,0-2,0.9-2,2.1
		c0,1.2,0.8,2.1,2,2.1s2-0.9,2-2.1C71.3,284.3,70.4,283.4,69.2,283.4z"/>
</g>
<g class="st2">
	<path d="M668.4,156.5l-2.6,3.4h-1.4l3.3-4.3l-3.2-4.2h1.3l2.5,3.3l2.5-3.3h1.3l-3.1,4.2l3.3,4.3H671L668.4,156.5z"/>
	<path d="M673.9,152.3c-0.4,0-0.7-0.3-0.7-0.7c0-0.4,0.3-0.7,0.7-0.7c0.4,0,0.7,0.3,0.7,0.7C674.6,152,674.3,152.3,673.9,152.3z
		 M673.4,153.9h1v6h-1V153.9z"/>
	<path d="M676.3,153.9h1v0.9c0.4-0.7,1.1-1,1.9-1c1.3,0,2.3,0.9,2.3,2.4v3.7h-1v-3.5c0-1-0.6-1.6-1.4-1.6c-1,0-1.7,0.8-1.7,2.2v3h-1
		V153.9z"/>
	<path d="M684.5,160.7c0,1.2-0.8,1.8-1.8,1.8c-0.2,0-0.3,0-0.5,0v-0.9c0.1,0,0.2,0,0.3,0c0.6,0,0.9-0.3,0.9-1v-6.7h1V160.7z
		 M684,152.3c-0.4,0-0.7-0.3-0.7-0.7c0-0.4,0.3-0.7,0.7-0.7c0.4,0,0.7,0.3,0.7,0.7C684.8,152,684.4,152.3,684,152.3z"/>
	<path d="M687,152.3c-0.4,0-0.7-0.3-0.7-0.7c0-0.4,0.3-0.7,0.7-0.7c0.4,0,0.7,0.3,0.7,0.7C687.7,152,687.4,152.3,687,152.3z
		 M686.5,153.9h1v6h-1V153.9z"/>
	<path d="M691.9,153.8c0.9,0,1.7,0.5,2.1,1v-0.9h1v6h-1V159c-0.4,0.6-1.2,1-2.1,1c-1.7,0-2.9-1.4-2.9-3.1
		C689,155.2,690.3,153.8,691.9,153.8z M692.1,154.8c-1.2,0-2.1,1-2.1,2.2c0,1.2,0.8,2.2,2.1,2.2c1.2,0,2-1,2-2.2
		C694.1,155.7,693.3,154.8,692.1,154.8z"/>
	<path d="M697,153.9h1v0.9c0.4-0.7,1.1-1,1.9-1c1.3,0,2.3,0.9,2.3,2.4v3.7h-1v-3.5c0-1-0.6-1.6-1.4-1.6c-1,0-1.7,0.8-1.7,2.2v3h-1
		V153.9z"/>
	<path d="M704.9,160.5c0.3,0.8,0.9,1.2,1.9,1.2c1.1,0,1.9-0.7,1.9-2.1v-0.7c-0.4,0.6-1.2,1.1-2.1,1.1c-1.7,0-2.9-1.3-2.9-3.1
		c0-1.7,1.3-3,2.9-3c0.9,0,1.7,0.4,2.1,1v-0.9h1v5.6c0,2-1.3,3-3,3c-1.6,0-2.7-0.9-2.9-2.1H704.9z M706.7,154.8c-1.2,0-2,0.9-2,2.1
		c0,1.2,0.8,2.1,2,2.1s2-0.9,2-2.1C708.7,155.7,707.9,154.8,706.7,154.8z"/>
</g>
<g class="st2">
	<path d="M562.7,159.9l-5.2-6.6v6.6h-1.1v-8.5h1l5.2,6.6v-6.6h1.1v8.5H562.7z"/>
	<path d="M566.3,152.3c-0.4,0-0.7-0.3-0.7-0.7c0-0.4,0.3-0.7,0.7-0.7c0.4,0,0.7,0.3,0.7,0.7C567,152,566.7,152.3,566.3,152.3z
		 M565.7,153.9h1v6h-1V153.9z"/>
	<path d="M568.7,153.9h1v0.9c0.4-0.7,1.1-1,1.9-1c1.3,0,2.3,0.9,2.3,2.4v3.7h-1v-3.5c0-1-0.6-1.6-1.4-1.6c-1,0-1.7,0.8-1.7,2.2v3h-1
		V153.9z"/>
	<path d="M576.5,160.5c0.3,0.8,0.9,1.2,1.9,1.2c1.1,0,1.9-0.7,1.9-2.1v-0.7c-0.4,0.6-1.2,1.1-2.1,1.1c-1.7,0-2.9-1.3-2.9-3.1
		c0-1.7,1.3-3,2.9-3c0.9,0,1.7,0.4,2.1,1v-0.9h1v5.6c0,2-1.3,3-3,3c-1.6,0-2.7-0.9-2.9-2.1H576.5z M578.4,154.8c-1.2,0-2,0.9-2,2.1
		c0,1.2,0.8,2.1,2,2.1s2-0.9,2-2.1C580.4,155.7,579.6,154.8,578.4,154.8z"/>
	<path d="M584.9,156.9l-2.3-3h1.2l1.7,2.2l1.6-2.2h1.3l-2.3,3l2.4,3h-1.3l-1.8-2.3l-1.8,2.3h-1.3L584.9,156.9z"/>
	<path d="M590.2,152.3c-0.4,0-0.7-0.3-0.7-0.7c0-0.4,0.3-0.7,0.7-0.7c0.4,0,0.7,0.3,0.7,0.7C590.9,152,590.6,152.3,590.2,152.3z
		 M589.7,153.9h1v6h-1V153.9z"/>
	<path d="M595.1,153.8c0.9,0,1.7,0.5,2.1,1v-0.9h1v6h-1V159c-0.4,0.6-1.2,1-2.1,1c-1.7,0-2.9-1.4-2.9-3.1
		C592.2,155.2,593.5,153.8,595.1,153.8z M595.3,154.8c-1.2,0-2.1,1-2.1,2.2c0,1.2,0.8,2.2,2.1,2.2c1.2,0,2-1,2-2.2
		C597.3,155.7,596.5,154.8,595.3,154.8z"/>
</g>
<g class="st2">
	<path d="M452.4,160.1c-1.4,0-2.5-0.9-2.5-2.4h1.1c0,0.9,0.7,1.4,1.4,1.4c0.7,0,1.4-0.4,1.4-1.6v-6h1.1v6.2
		C454.9,159.4,453.7,160.1,452.4,160.1z"/>
	<path d="M457.4,152.3c-0.4,0-0.7-0.3-0.7-0.7c0-0.4,0.3-0.7,0.7-0.7c0.4,0,0.7,0.3,0.7,0.7C458.1,152,457.8,152.3,457.4,152.3z
		 M456.8,153.9h1v6h-1V153.9z"/>
	<path d="M462.3,153.8c0.9,0,1.7,0.5,2.1,1v-0.9h1v6h-1V159c-0.4,0.6-1.2,1-2.1,1c-1.7,0-2.9-1.4-2.9-3.1
		C459.3,155.2,460.6,153.8,462.3,153.8z M462.4,154.8c-1.2,0-2.1,1-2.1,2.2c0,1.2,0.8,2.2,2.1,2.2c1.2,0,2-1,2-2.2
		C464.5,155.7,463.7,154.8,462.4,154.8z"/>
	<path d="M467.4,153.9h1v0.9c0.4-0.7,1.1-1,1.9-1c1.3,0,2.3,0.9,2.3,2.4v3.7h-1v-3.5c0-1-0.6-1.6-1.4-1.6c-1,0-1.7,0.8-1.7,2.2v3h-1
		V153.9z"/>
	<path d="M475.2,160.5c0.3,0.8,0.9,1.2,1.9,1.2c1.1,0,1.9-0.7,1.9-2.1v-0.7c-0.4,0.6-1.2,1.1-2.1,1.1c-1.7,0-2.9-1.3-2.9-3.1
		c0-1.7,1.3-3,2.9-3c0.9,0,1.7,0.4,2.1,1v-0.9h1v5.6c0,2-1.3,3-3,3c-1.6,0-2.7-0.9-2.9-2.1H475.2z M477.1,154.8c-1.2,0-2,0.9-2,2.1
		c0,1.2,0.8,2.1,2,2.1s2-0.9,2-2.1C479.1,155.7,478.3,154.8,477.1,154.8z"/>
	<path d="M483.9,160.1c-1.3,0-2.4-0.6-2.4-1.9h1.1c0.1,0.7,0.8,1,1.4,1c0.6,0,1.2-0.3,1.2-0.8c0-0.5-0.3-0.8-1-1l-0.9-0.2
		c-1-0.3-1.5-0.9-1.5-1.8c0-1,0.9-1.6,2.1-1.6c1.3,0,2.1,0.8,2.2,1.7h-1c-0.2-0.5-0.6-0.9-1.2-0.9c-0.6,0-1,0.3-1,0.7
		c0,0.4,0.3,0.7,0.9,0.9l1,0.3c1,0.3,1.5,0.9,1.5,1.8C486.1,159.5,485.2,160.1,483.9,160.1z"/>
	<path d="M487.5,153.9h1v3.5c0,1,0.5,1.6,1.4,1.6c0.9,0,1.7-0.8,1.7-2.2v-3h1v6h-1V159c-0.4,0.7-1.1,1-1.8,1c-1.3,0-2.2-0.9-2.2-2.4
		V153.9z"/>
</g>
<g class="st2">
	<path d="M344.2,151.4h1.1v3.6h4.7v-3.6h1.1v8.5H350v-3.8h-4.7v3.8h-1.1V151.4z"/>
	<path d="M355.6,160.1c-1.8,0-3-1.3-3-3.1c0-1.8,1.2-3.1,3-3.1c1.9,0,3,1.5,2.9,3.4h-4.9c0,1.1,0.9,1.9,2,1.9c0.7,0,1.4-0.3,1.7-1
		h1.1C358.1,159.2,357.1,160.1,355.6,160.1z M353.7,156.4h3.7c-0.2-1.1-0.9-1.7-1.8-1.7C354.7,154.7,353.9,155.2,353.7,156.4z"/>
	<path d="M360.5,152.3c-0.4,0-0.7-0.3-0.7-0.7c0-0.4,0.3-0.7,0.7-0.7s0.7,0.3,0.7,0.7C361.3,152,361,152.3,360.5,152.3z M360,153.9
		h1v6h-1V153.9z"/>
	<path d="M363,150.9h1v9h-1V150.9z"/>
	<path d="M368.7,160.1c-1.8,0-3.1-1.4-3.1-3.1c0-1.7,1.3-3.1,3.1-3.1c1.8,0,3.1,1.4,3.1,3.1C371.8,158.7,370.5,160.1,368.7,160.1z
		 M368.7,159.1c1.2,0,2.1-1,2.1-2.2s-0.8-2.2-2.1-2.2c-1.2,0-2.1,1-2.1,2.2S367.4,159.1,368.7,159.1z"/>
	<path d="M373.3,153.9h1v0.9c0.4-0.7,1.1-1,1.9-1c1.3,0,2.3,0.9,2.3,2.4v3.7h-1v-3.5c0-1-0.6-1.6-1.4-1.6c-1,0-1.7,0.8-1.7,2.2v3h-1
		V153.9z"/>
	<path d="M381.1,160.5c0.3,0.8,0.9,1.2,1.9,1.2c1.1,0,1.9-0.7,1.9-2.1v-0.7c-0.4,0.6-1.2,1.1-2.1,1.1c-1.7,0-2.9-1.3-2.9-3.1
		c0-1.7,1.3-3,2.9-3c0.9,0,1.7,0.4,2.1,1v-0.9h1v5.6c0,2-1.3,3-3,3c-1.6,0-2.7-0.9-2.9-2.1H381.1z M382.9,154.8c-1.2,0-2,0.9-2,2.1
		c0,1.2,0.8,2.1,2,2.1s2-0.9,2-2.1C385,155.7,384.1,154.8,382.9,154.8z"/>
	<path d="M389,160.7c0,1.2-0.8,1.8-1.8,1.8c-0.2,0-0.3,0-0.5,0v-0.9c0.1,0,0.2,0,0.3,0c0.6,0,0.9-0.3,0.9-1v-6.7h1V160.7z
		 M388.5,152.3c-0.4,0-0.7-0.3-0.7-0.7c0-0.4,0.3-0.7,0.7-0.7c0.4,0,0.7,0.3,0.7,0.7C389.2,152,388.9,152.3,388.5,152.3z"/>
	<path d="M391.5,152.3c-0.4,0-0.7-0.3-0.7-0.7c0-0.4,0.3-0.7,0.7-0.7c0.4,0,0.7,0.3,0.7,0.7C392.2,152,391.9,152.3,391.5,152.3z
		 M391,153.9h1v6h-1V153.9z"/>
	<path d="M396.4,153.8c0.9,0,1.7,0.5,2.1,1v-0.9h1v6h-1V159c-0.4,0.6-1.2,1-2.1,1c-1.7,0-2.9-1.4-2.9-3.1
		C393.5,155.2,394.7,153.8,396.4,153.8z M396.6,154.8c-1.2,0-2.1,1-2.1,2.2c0,1.2,0.8,2.2,2.1,2.2c1.2,0,2-1,2-2.2
		C398.6,155.7,397.8,154.8,396.6,154.8z"/>
	<path d="M401.5,153.9h1v0.9c0.4-0.7,1.1-1,1.9-1c1.3,0,2.3,0.9,2.3,2.4v3.7h-1v-3.5c0-1-0.6-1.6-1.4-1.6c-1,0-1.7,0.8-1.7,2.2v3h-1
		V153.9z"/>
	<path d="M409.3,160.5c0.3,0.8,0.9,1.2,1.9,1.2c1.1,0,1.9-0.7,1.9-2.1v-0.7c-0.4,0.6-1.2,1.1-2.1,1.1c-1.7,0-2.9-1.3-2.9-3.1
		c0-1.7,1.3-3,2.9-3c0.9,0,1.7,0.4,2.1,1v-0.9h1v5.6c0,2-1.3,3-3,3c-1.6,0-2.7-0.9-2.9-2.1H409.3z M411.2,154.8c-1.2,0-2,0.9-2,2.1
		c0,1.2,0.8,2.1,2,2.1s2-0.9,2-2.1C413.2,155.7,412.4,154.8,411.2,154.8z"/>
</g>
<g class="st2">
	<path d="M244.1,159.2c-0.7,0.6-1.7,0.9-2.7,0.9c-2.4,0-4.4-1.9-4.4-4.4s2-4.4,4.4-4.4c2.5,0,4.4,1.9,4.4,4.4c0,1.1-0.4,2-1,2.8
		l1.6,1.5H245L244.1,159.2z M241.5,159c0.7,0,1.4-0.2,1.9-0.6l-1.4-1.3l0.7-0.8l1.4,1.3c0.4-0.6,0.7-1.3,0.7-2.1
		c0-1.9-1.4-3.3-3.3-3.3c-1.9,0-3.3,1.5-3.3,3.3S239.6,159,241.5,159z"/>
	<path d="M248.1,152.3c-0.4,0-0.7-0.3-0.7-0.7c0-0.4,0.3-0.7,0.7-0.7s0.7,0.3,0.7,0.7C248.8,152,248.5,152.3,248.1,152.3z
		 M247.6,153.9h1v6h-1V153.9z"/>
	<path d="M250.5,153.9h1v0.9c0.4-0.7,1.1-1,1.9-1c1.3,0,2.3,0.9,2.3,2.4v3.7h-1v-3.5c0-1-0.6-1.6-1.4-1.6c-1,0-1.7,0.8-1.7,2.2v3h-1
		V153.9z"/>
	<path d="M258.4,160.5c0.3,0.8,0.9,1.2,1.9,1.2c1.1,0,1.9-0.7,1.9-2.1v-0.7c-0.4,0.6-1.2,1.1-2.1,1.1c-1.7,0-2.9-1.3-2.9-3.1
		c0-1.7,1.3-3,2.9-3c0.9,0,1.7,0.4,2.1,1v-0.9h1v5.6c0,2-1.3,3-3,3c-1.6,0-2.7-0.9-2.9-2.1H258.4z M260.2,154.8c-1.2,0-2,0.9-2,2.1
		c0,1.2,0.8,2.1,2,2.1s2-0.9,2-2.1C262.3,155.7,261.4,154.8,260.2,154.8z"/>
	<path d="M265.2,150.9h1v3.9c0.4-0.7,1.1-1,1.9-1c1.3,0,2.3,0.9,2.3,2.4v3.7h-1v-3.5c0-1-0.6-1.6-1.4-1.6c-1,0-1.7,0.8-1.7,2.2v3h-1
		V150.9z"/>
	<path d="M274.7,153.8c0.9,0,1.7,0.5,2.1,1v-0.9h1v6h-1V159c-0.4,0.6-1.2,1-2.1,1c-1.7,0-2.9-1.4-2.9-3.1
		C271.8,155.2,273,153.8,274.7,153.8z M274.8,154.8c-1.2,0-2.1,1-2.1,2.2c0,1.2,0.8,2.2,2.1,2.2s2-1,2-2.2
		C276.9,155.7,276.1,154.8,274.8,154.8z"/>
	<path d="M280.3,152.3c-0.4,0-0.7-0.3-0.7-0.7c0-0.4,0.3-0.7,0.7-0.7s0.7,0.3,0.7,0.7C281,152,280.7,152.3,280.3,152.3z
		 M279.8,153.9h1v6h-1V153.9z"/>
</g>
<g class="st2">
	<path d="M132.8,157.7c0.1,0.9,1,1.4,1.8,1.4c0.9,0,1.6-0.5,1.6-1.3c0-0.7-0.4-1.1-1.2-1.4l-1.2-0.4c-1.3-0.5-2-1.2-2-2.4
		c0-1.4,1.1-2.2,2.6-2.2c1.7,0,2.6,1.2,2.7,2.3H136c-0.2-0.9-0.9-1.3-1.6-1.3c-0.8,0-1.5,0.4-1.5,1.2c0,0.7,0.4,1.1,1.2,1.4l1.1,0.4
		c1.3,0.5,2,1.2,2,2.5c0,1.4-1.1,2.4-2.7,2.4c-1.8,0-2.9-1.1-3-2.4H132.8z"/>
	<path d="M138.8,150.9h1v3.9c0.4-0.7,1.1-1,1.9-1c1.3,0,2.3,0.9,2.3,2.4v3.7h-1v-3.5c0-1-0.6-1.6-1.4-1.6c-1,0-1.7,0.8-1.7,2.2v3h-1
		V150.9z"/>
	<path d="M148.4,153.8c0.9,0,1.7,0.5,2.1,1v-0.9h1v6h-1V159c-0.4,0.6-1.2,1-2.1,1c-1.7,0-2.9-1.4-2.9-3.1
		C145.4,155.2,146.7,153.8,148.4,153.8z M148.5,154.8c-1.2,0-2.1,1-2.1,2.2c0,1.2,0.8,2.2,2.1,2.2s2-1,2-2.2
		C150.6,155.7,149.7,154.8,148.5,154.8z"/>
	<path d="M153.5,153.9h1v0.9c0.4-0.7,1.1-1,1.9-1c1.3,0,2.3,0.9,2.3,2.4v3.7h-1v-3.5c0-1-0.6-1.6-1.4-1.6c-1,0-1.7,0.8-1.7,2.2v3h-1
		V153.9z"/>
	<path d="M163,153.8c0.9,0,1.7,0.5,2.1,1v-3.9h1v9h-1V159c-0.4,0.6-1.2,1-2.1,1c-1.7,0-2.9-1.4-2.9-3.1
		C160.1,155.2,161.3,153.8,163,153.8z M163.2,154.8c-1.2,0-2.1,1-2.1,2.2c0,1.2,0.8,2.2,2.1,2.2s2-1,2-2.2
		C165.2,155.7,164.4,154.8,163.2,154.8z"/>
	<path d="M170.8,160.1c-1.8,0-3.1-1.4-3.1-3.1c0-1.7,1.3-3.1,3.1-3.1c1.8,0,3.1,1.4,3.1,3.1C173.9,158.7,172.6,160.1,170.8,160.1z
		 M170.8,159.1c1.2,0,2.1-1,2.1-2.2s-0.8-2.2-2.1-2.2c-1.2,0-2.1,1-2.1,2.2S169.5,159.1,170.8,159.1z"/>
	<path d="M175.4,153.9h1v0.9c0.4-0.7,1.1-1,1.9-1c1.3,0,2.3,0.9,2.3,2.4v3.7h-1v-3.5c0-1-0.6-1.6-1.4-1.6c-1,0-1.7,0.8-1.7,2.2v3h-1
		V153.9z"/>
	<path d="M183.2,160.5c0.3,0.8,0.9,1.2,1.9,1.2c1.1,0,1.9-0.7,1.9-2.1v-0.7c-0.4,0.6-1.2,1.1-2.1,1.1c-1.7,0-2.9-1.3-2.9-3.1
		c0-1.7,1.3-3,2.9-3c0.9,0,1.7,0.4,2.1,1v-0.9h1v5.6c0,2-1.3,3-3,3c-1.6,0-2.7-0.9-2.9-2.1H183.2z M185,154.8c-1.2,0-2,0.9-2,2.1
		c0,1.2,0.8,2.1,2,2.1s2-0.9,2-2.1C187.1,155.7,186.2,154.8,185,154.8z"/>
</g>
<g class="st2">
	<path d="M25.3,151.4h1.1v8.5h-1.1V151.4z"/>
	<path d="M28.5,153.9h1v0.9c0.4-0.7,1.1-1,1.9-1c1.3,0,2.3,0.9,2.3,2.4v3.7h-1v-3.5c0-1-0.6-1.6-1.4-1.6c-1,0-1.7,0.8-1.7,2.2v3h-1
		V153.9z"/>
	<path d="M35.5,153.9h1v0.9c0.4-0.7,1.1-1,1.9-1c1.3,0,2.3,0.9,2.3,2.4v3.7h-1v-3.5c0-1-0.6-1.6-1.4-1.6c-1,0-1.7,0.8-1.7,2.2v3h-1
		V153.9z"/>
	<path d="M45.1,160.1c-1.8,0-3-1.3-3-3.1c0-1.8,1.2-3.1,3-3.1c1.9,0,3,1.5,2.9,3.4h-4.9c0,1.1,0.9,1.9,2,1.9c0.7,0,1.4-0.3,1.7-1
		h1.1C47.6,159.2,46.7,160.1,45.1,160.1z M43.2,156.4H47c-0.2-1.1-0.9-1.7-1.8-1.7C44.3,154.7,43.4,155.2,43.2,156.4z"/>
	<path d="M49.5,153.9h1v1.2c0.2-0.8,1-1.2,1.7-1.2c0.2,0,0.3,0,0.5,0v1.1c-0.2-0.1-0.4-0.1-0.6-0.1c-0.8,0-1.6,0.7-1.6,2.1v3h-1
		V153.9z"/>
	<path d="M57.8,153.3v6.6h-1.1v-8.5h1l3.2,4.2l3.2-4.2h1v8.5h-1.1v-6.6l-3.1,4.1L57.8,153.3z"/>
	<path d="M69.7,160.1c-1.8,0-3.1-1.4-3.1-3.1c0-1.7,1.3-3.1,3.1-3.1c1.8,0,3.1,1.4,3.1,3.1C72.8,158.7,71.5,160.1,69.7,160.1z
		 M69.7,159.1c1.2,0,2.1-1,2.1-2.2s-0.8-2.2-2.1-2.2c-1.2,0-2.1,1-2.1,2.2S68.5,159.1,69.7,159.1z"/>
	<path d="M74.3,153.9h1v0.9c0.4-0.7,1.1-1,1.9-1c1.3,0,2.3,0.9,2.3,2.4v3.7h-1v-3.5c0-1-0.6-1.6-1.4-1.6c-1,0-1.7,0.8-1.7,2.2v3h-1
		V153.9z"/>
	<path d="M82.1,160.5c0.3,0.8,0.9,1.2,1.9,1.2c1.1,0,1.9-0.7,1.9-2.1v-0.7c-0.4,0.6-1.2,1.1-2.1,1.1c-1.7,0-2.9-1.3-2.9-3.1
		c0-1.7,1.3-3,2.9-3c0.9,0,1.7,0.4,2.1,1v-0.9h1v5.6c0,2-1.3,3-3,3c-1.6,0-2.7-0.9-2.9-2.1H82.1z M84,154.8c-1.2,0-2,0.9-2,2.1
		c0,1.2,0.8,2.1,2,2.1s2-0.9,2-2.1C86,155.7,85.2,154.8,84,154.8z"/>
	<path d="M91.6,160.1c-1.8,0-3.1-1.4-3.1-3.1c0-1.7,1.3-3.1,3.1-3.1c1.8,0,3.1,1.4,3.1,3.1C94.7,158.7,93.4,160.1,91.6,160.1z
		 M91.6,159.1c1.2,0,2.1-1,2.1-2.2s-0.8-2.2-2.1-2.2c-1.2,0-2.1,1-2.1,2.2S90.3,159.1,91.6,159.1z"/>
	<path d="M96.2,151h1v9h-1V151z"/>
	<path d="M99.7,152.3c-0.4,0-0.7-0.3-0.7-0.7c0-0.4,0.3-0.7,0.7-0.7s0.7,0.3,0.7,0.7C100.4,152,100.1,152.3,99.7,152.3z M99.2,153.9
		h1v6h-1V153.9z"/>
	<path d="M104.6,153.8c0.9,0,1.7,0.5,2.1,1v-0.9h1v6h-1V159c-0.4,0.6-1.2,1-2.1,1c-1.7,0-2.9-1.4-2.9-3.1
		C101.7,155.2,103,153.8,104.6,153.8z M104.8,154.8c-1.2,0-2.1,1-2.1,2.2c0,1.2,0.8,2.2,2.1,2.2s2-1,2-2.2
		C106.8,155.7,106,154.8,104.8,154.8z"/>
</g>
<g class="st2">
	<path d="M34.5,126.8c-1.7,0-2.9-1.3-2.9-2.8c0-0.9,0.4-1.5,1-2.2l3.1-3.7h1.3l-2.6,3.1c0.1,0,0.2,0,0.3,0c1.4,0,2.7,1.3,2.7,2.7
		C37.3,125.6,36.1,126.8,34.5,126.8z M34.5,125.8c1,0,1.8-0.8,1.8-1.8c0-1-0.8-1.8-1.8-1.8c-1,0-1.8,0.8-1.8,1.8
		C32.6,125,33.4,125.8,34.5,125.8z"/>
	<path d="M38.9,128.4h-0.7l0.8-1.7c-0.3-0.1-0.5-0.4-0.5-0.8c0-0.5,0.4-0.9,0.9-0.9s0.9,0.4,0.9,0.9c0,0.2-0.1,0.4-0.2,0.5
		L38.9,128.4z"/>
	<path d="M44.2,126.8c-1.7,0-2.9-1.3-2.9-2.8c0-0.9,0.4-1.5,1-2.2l3.1-3.7h1.3l-2.6,3.1c0.1,0,0.2,0,0.3,0c1.4,0,2.7,1.3,2.7,2.7
		C47.1,125.6,45.9,126.8,44.2,126.8z M44.2,125.8c1,0,1.8-0.8,1.8-1.8c0-1-0.8-1.8-1.8-1.8c-1,0-1.8,0.8-1.8,1.8
		C42.4,125,43.2,125.8,44.2,125.8z"/>
	<path d="M49.3,119.2h-1.6l0.8-1h1.8v8.5h-1V119.2z"/>
</g>
<g class="st2">
	<path d="M144.3,126.8c-1.7,0-2.9-1.3-2.9-2.8c0-0.9,0.4-1.5,1-2.2l3.1-3.7h1.3l-2.6,3.1c0.1,0,0.2,0,0.3,0c1.4,0,2.7,1.3,2.7,2.7
		C147.2,125.6,146,126.8,144.3,126.8z M144.3,125.8c1,0,1.8-0.8,1.8-1.8c0-1-0.8-1.8-1.8-1.8c-1,0-1.8,0.8-1.8,1.8
		C142.5,125,143.3,125.8,144.3,125.8z"/>
	<path d="M148.8,128.4h-0.7l0.8-1.7c-0.3-0.1-0.5-0.4-0.5-0.8c0-0.5,0.4-0.9,0.9-0.9s0.9,0.4,0.9,0.9c0,0.2-0.1,0.4-0.2,0.5
		L148.8,128.4z"/>
	<path d="M152.1,119.2h-1.6l0.8-1h1.8v8.5h-1V119.2z"/>
	<path d="M157.7,126.8c-1.7,0-2.9-1.1-2.9-2.7c0-1,0.5-1.8,1.4-2.2c-0.6-0.4-0.9-1-0.9-1.7c0-1.3,1-2.2,2.4-2.2
		c1.4,0,2.4,0.9,2.4,2.2c0,0.7-0.3,1.3-0.9,1.7c0.8,0.4,1.3,1.2,1.3,2.2C160.5,125.7,159.4,126.8,157.7,126.8z M157.7,125.8
		c1.1,0,1.8-0.8,1.8-1.7c0-1-0.7-1.7-1.8-1.7c-1.1,0-1.8,0.7-1.8,1.7C155.9,125.1,156.6,125.8,157.7,125.8z M157.7,121.5
		c0.9,0,1.4-0.6,1.4-1.3c0-0.7-0.5-1.2-1.4-1.2c-0.8,0-1.4,0.5-1.4,1.2C156.3,120.9,156.9,121.5,157.7,121.5z"/>
</g>
<g class="st2">
	<path d="M245,124.4c0.2,0.8,0.9,1.4,1.8,1.4c1.1,0,1.8-0.8,1.8-1.8c0-1-0.7-1.8-1.8-1.8c-0.7,0-1.3,0.3-1.6,0.9l-1-0.3l0.9-4.5h4v1
		H246l-0.5,2.4c0.3-0.3,0.9-0.4,1.5-0.4c1.6,0,2.7,1.3,2.7,2.9c0,1.5-1.2,2.7-2.9,2.7c-1.5,0-2.8-1.1-2.9-2.4H245z"/>
	<path d="M251.2,128.4h-0.7l0.8-1.7c-0.3-0.1-0.5-0.4-0.5-0.8c0-0.5,0.4-0.9,0.9-0.9s0.9,0.4,0.9,0.9c0,0.2-0.1,0.4-0.2,0.5
		L251.2,128.4z"/>
	<path d="M256.7,123.6c-0.1,0-0.2,0-0.3,0c-1.4,0-2.7-1.3-2.7-2.7c0-1.6,1.2-2.8,2.9-2.8c1.7,0,2.9,1.3,2.9,2.8c0,0.9-0.4,1.5-1,2.2
		l-3.1,3.7h-1.3L256.7,123.6z M256.6,122.7c1,0,1.8-0.8,1.8-1.8c0-1-0.8-1.8-1.8-1.8s-1.8,0.8-1.8,1.8
		C254.8,121.9,255.6,122.7,256.6,122.7z"/>
	<path d="M263,126.8c-1.7,0-2.9-1.3-2.9-2.8c0-0.9,0.4-1.5,1-2.2l3.1-3.7h1.3l-2.6,3.1c0.1,0,0.2,0,0.3,0c1.4,0,2.7,1.3,2.7,2.7
		C265.9,125.6,264.6,126.8,263,126.8z M263,125.8c1,0,1.8-0.8,1.8-1.8c0-1-0.8-1.8-1.8-1.8c-1,0-1.8,0.8-1.8,1.8
		C261.1,125,261.9,125.8,263,125.8z"/>
</g>
<g class="st2">
	<path d="M351.5,124.4c0.2,0.8,0.9,1.4,1.8,1.4c1.1,0,1.8-0.8,1.8-1.8c0-1-0.7-1.8-1.8-1.8c-0.7,0-1.3,0.3-1.6,0.9l-1-0.3l0.9-4.5h4
		v1h-3.2l-0.5,2.4c0.3-0.3,0.9-0.4,1.5-0.4c1.6,0,2.7,1.3,2.7,2.9c0,1.5-1.2,2.7-2.9,2.7c-1.5,0-2.8-1.1-2.9-2.4H351.5z"/>
	<path d="M357.7,128.4H357l0.8-1.7c-0.3-0.1-0.5-0.4-0.5-0.8c0-0.5,0.4-0.9,0.9-0.9s0.9,0.4,0.9,0.9c0,0.2-0.1,0.4-0.2,0.5
		L357.7,128.4z"/>
	<path d="M363.2,123.6c-0.1,0-0.2,0-0.3,0c-1.4,0-2.7-1.3-2.7-2.7c0-1.6,1.2-2.8,2.9-2.8c1.7,0,2.9,1.3,2.9,2.8c0,0.9-0.4,1.5-1,2.2
		l-3.1,3.7h-1.3L363.2,123.6z M363.1,122.7c1,0,1.8-0.8,1.8-1.8c0-1-0.8-1.8-1.8-1.8s-1.8,0.8-1.8,1.8
		C361.3,121.9,362.1,122.7,363.1,122.7z"/>
	<path d="M367.9,124.4c0.2,0.8,0.9,1.4,1.8,1.4c1.1,0,1.8-0.8,1.8-1.8c0-1-0.7-1.8-1.8-1.8c-0.7,0-1.3,0.3-1.6,0.9l-1-0.3l0.9-4.5h4
		v1h-3.2l-0.5,2.4c0.3-0.3,0.9-0.4,1.5-0.4c1.6,0,2.7,1.3,2.7,2.9c0,1.5-1.2,2.7-2.9,2.7c-1.5,0-2.8-1.1-2.9-2.4H367.9z"/>
</g>
<g class="st2">
	<path d="M458.1,124.4c0.2,0.8,0.9,1.4,1.8,1.4c1.1,0,1.8-0.8,1.8-1.8c0-1-0.7-1.8-1.8-1.8c-0.7,0-1.3,0.3-1.6,0.9l-1-0.3l0.9-4.5h4
		v1H459l-0.5,2.4c0.3-0.3,0.9-0.4,1.5-0.4c1.6,0,2.7,1.3,2.7,2.9c0,1.5-1.2,2.7-2.9,2.7c-1.5,0-2.8-1.1-2.9-2.4H458.1z"/>
	<path d="M464.3,128.4h-0.7l0.8-1.7c-0.3-0.1-0.5-0.4-0.5-0.8c0-0.5,0.4-0.9,0.9-0.9c0.5,0,0.9,0.4,0.9,0.9c0,0.2-0.1,0.4-0.2,0.5
		L464.3,128.4z"/>
	<path d="M467,126.7l4-7.5h-4.4v-1h5.6v0.9l-4.1,7.7H467z"/>
	<path d="M475,126.8c-1.7,0-2.9-1.3-2.9-2.8c0-0.9,0.4-1.5,1-2.2l3.1-3.7h1.3l-2.6,3.1c0.1,0,0.2,0,0.3,0c1.4,0,2.7,1.3,2.7,2.7
		C477.9,125.6,476.7,126.8,475,126.8z M475,125.8c1,0,1.8-0.8,1.8-1.8c0-1-0.8-1.8-1.8-1.8c-1,0-1.8,0.8-1.8,1.8
		C473.2,125,474,125.8,475,125.8z"/>
</g>
<g class="st2">
	<path d="M563.7,124.4c0.2,0.8,0.9,1.4,1.8,1.4c1.1,0,1.8-0.8,1.8-1.8c0-1-0.7-1.8-1.8-1.8c-0.7,0-1.3,0.3-1.6,0.9l-1-0.3l0.9-4.5h4
		v1h-3.2l-0.5,2.4c0.3-0.3,0.9-0.4,1.5-0.4c1.6,0,2.7,1.3,2.7,2.9c0,1.5-1.2,2.7-2.9,2.7c-1.5,0-2.8-1.1-2.9-2.4H563.7z"/>
	<path d="M569.9,128.4h-0.7l0.8-1.7c-0.3-0.1-0.5-0.4-0.5-0.8c0-0.5,0.4-0.9,0.9-0.9c0.5,0,0.9,0.4,0.9,0.9c0,0.2-0.1,0.4-0.2,0.5
		L569.9,128.4z"/>
	<path d="M573.5,124.4c0.2,0.8,0.9,1.4,1.8,1.4c1.1,0,1.8-0.8,1.8-1.8c0-1-0.7-1.8-1.8-1.8c-0.7,0-1.3,0.3-1.6,0.9l-1-0.3l0.9-4.5h4
		v1h-3.2l-0.5,2.4c0.3-0.3,0.9-0.4,1.5-0.4c1.6,0,2.7,1.3,2.7,2.9c0,1.5-1.2,2.7-2.9,2.7c-1.5,0-2.8-1.1-2.9-2.4H573.5z"/>
	<path d="M582.1,126.8c-1.7,0-2.9-1.1-2.9-2.7c0-1,0.5-1.8,1.4-2.2c-0.6-0.4-0.9-1-0.9-1.7c0-1.3,1-2.2,2.4-2.2
		c1.4,0,2.4,0.9,2.4,2.2c0,0.7-0.3,1.3-0.9,1.7c0.8,0.4,1.3,1.2,1.3,2.2C584.9,125.7,583.8,126.8,582.1,126.8z M582.1,125.8
		c1.1,0,1.8-0.8,1.8-1.7c0-1-0.7-1.7-1.8-1.7c-1.1,0-1.8,0.7-1.8,1.7C580.3,125.1,581,125.8,582.1,125.8z M582.1,121.5
		c0.9,0,1.4-0.6,1.4-1.3c0-0.7-0.5-1.2-1.4-1.2c-0.8,0-1.4,0.5-1.4,1.2C580.7,120.9,581.2,121.5,582.1,121.5z"/>
</g>
<g class="st2">
	<path d="M672.8,124.4c0.2,0.8,0.9,1.4,1.8,1.4c1.1,0,1.8-0.8,1.8-1.8c0-1-0.7-1.8-1.8-1.8c-0.7,0-1.3,0.3-1.6,0.9l-1-0.3l0.9-4.5h4
		v1h-3.2l-0.5,2.4c0.3-0.3,0.9-0.4,1.5-0.4c1.6,0,2.7,1.3,2.7,2.9c0,1.5-1.2,2.7-2.9,2.7c-1.5,0-2.8-1.1-2.9-2.4H672.8z"/>
	<path d="M679,128.4h-0.7l0.8-1.7c-0.3-0.1-0.5-0.4-0.5-0.8c0-0.5,0.4-0.9,0.9-0.9s0.9,0.4,0.9,0.9c0,0.2-0.1,0.4-0.2,0.5L679,128.4
		z"/>
	<path d="M682.6,124.4c0.2,0.8,0.9,1.4,1.8,1.4c1.1,0,1.8-0.8,1.8-1.8c0-1-0.7-1.8-1.8-1.8c-0.7,0-1.3,0.3-1.6,0.9l-1-0.3l0.9-4.5h4
		v1h-3.2l-0.5,2.4c0.3-0.3,0.9-0.4,1.5-0.4c1.6,0,2.7,1.3,2.7,2.9c0,1.5-1.2,2.7-2.9,2.7c-1.5,0-2.8-1.1-2.9-2.4H682.6z"/>
</g>
<g class="st2">
	<path d="M32.6,258.5c0.2,0.8,0.9,1.4,1.8,1.4c1.1,0,1.8-0.8,1.8-1.8c0-1-0.7-1.8-1.8-1.8c-0.7,0-1.3,0.3-1.6,0.9l-1-0.3l0.9-4.5h4
		v1h-3.2l-0.5,2.4c0.3-0.3,0.9-0.4,1.5-0.4c1.6,0,2.7,1.3,2.7,2.9c0,1.5-1.2,2.7-2.9,2.7c-1.5,0-2.8-1.1-2.9-2.4H32.6z"/>
	<path d="M38.8,262.5h-0.7l0.8-1.7c-0.3-0.1-0.5-0.4-0.5-0.8c0-0.5,0.4-0.9,0.9-0.9s0.9,0.4,0.9,0.9c0,0.2-0.1,0.4-0.2,0.5
		L38.8,262.5z"/>
	<path d="M45.6,258.5h-4.5v-0.8l4.7-5.4h0.9v5.2h1.2v1h-1.2v2.3h-1V258.5z M45.6,253.9l-3.2,3.7h3.2V253.9z"/>
	<path d="M51.6,257.7c-0.1,0-0.2,0-0.3,0c-1.4,0-2.7-1.3-2.7-2.7c0-1.6,1.2-2.8,2.9-2.8c1.7,0,2.9,1.3,2.9,2.8c0,0.9-0.4,1.5-1,2.2
		l-3.1,3.7H49L51.6,257.7z M51.5,256.8c1,0,1.8-0.8,1.8-1.8c0-1-0.8-1.8-1.8-1.8s-1.8,0.8-1.8,1.8C49.7,256,50.4,256.8,51.5,256.8z"
		/>
</g>
<g class="st2">
	<path d="M139.6,258.5c0.2,0.8,0.9,1.4,1.8,1.4c1.1,0,1.8-0.8,1.8-1.8c0-1-0.7-1.8-1.8-1.8c-0.7,0-1.3,0.3-1.6,0.9l-1-0.3l0.9-4.5h4
		v1h-3.2l-0.5,2.4c0.3-0.3,0.9-0.4,1.5-0.4c1.6,0,2.7,1.3,2.7,2.9c0,1.5-1.2,2.7-2.9,2.7c-1.5,0-2.8-1.1-2.9-2.4H139.6z"/>
	<path d="M145.8,262.5h-0.7l0.8-1.7c-0.3-0.1-0.5-0.4-0.5-0.8c0-0.5,0.4-0.9,0.9-0.9s0.9,0.4,0.9,0.9c0,0.2-0.1,0.4-0.2,0.5
		L145.8,262.5z"/>
	<path d="M152.6,258.5h-4.5v-0.8l4.7-5.4h0.9v5.2h1.2v1h-1.2v2.3h-1V258.5z M152.6,253.9l-3.2,3.7h3.2V253.9z"/>
	<path d="M161.3,260.8h-5.5v-0.4c0-1.8,1.6-2.7,2.9-3.6c1-0.7,1.5-1.2,1.5-2.2c0-0.9-0.6-1.5-1.6-1.5c-0.9,0-1.8,0.6-1.8,1.7h-1.1
		c0-1.6,1.2-2.7,2.8-2.7c1.4,0,2.6,0.8,2.6,2.5c0,1.2-0.6,2-2,3c-1,0.7-2,1.2-2.2,2.2h4.2V260.8z"/>
</g>
<g class="st2">
	<path d="M248.3,258.5h-4.5v-0.8l4.7-5.4h0.9v5.2h1.2v1h-1.2v2.3h-1V258.5z M248.3,253.9l-3.2,3.7h3.2V253.9z"/>
	<path d="M251.9,262.5h-0.7l0.8-1.7c-0.3-0.1-0.5-0.4-0.5-0.8c0-0.5,0.4-0.9,0.9-0.9s0.9,0.4,0.9,0.9c0,0.2-0.1,0.4-0.2,0.5
		L251.9,262.5z"/>
	<path d="M257.3,260.9c-1.7,0-2.9-1.3-2.9-2.8c0-0.9,0.4-1.5,1-2.2l3.1-3.7h1.3l-2.6,3.1c0.1,0,0.2,0,0.3,0c1.4,0,2.7,1.3,2.7,2.7
		C260.2,259.7,259,260.9,257.3,260.9z M257.3,259.9c1,0,1.8-0.8,1.8-1.8c0-1-0.8-1.8-1.8-1.8c-1,0-1.8,0.8-1.8,1.8
		C255.5,259.1,256.3,259.9,257.3,259.9z"/>
	<path d="M266.8,260.8h-5.5v-0.4c0-1.8,1.6-2.7,2.9-3.6c1-0.7,1.5-1.2,1.5-2.2c0-0.9-0.6-1.5-1.6-1.5c-0.9,0-1.8,0.6-1.8,1.7h-1.1
		c0-1.6,1.2-2.7,2.8-2.7c1.4,0,2.6,0.8,2.6,2.5c0,1.2-0.6,2-2,3c-1,0.7-2,1.2-2.2,2.2h4.2V260.8z"/>
</g>
<g class="st2">
	<path d="M357.7,258.5h-4.5v-0.8l4.7-5.4h0.9v5.2h1.2v1h-1.2v2.3h-1V258.5z M357.7,253.9l-3.2,3.7h3.2V253.9z"/>
	<path d="M361.4,262.5h-0.7l0.8-1.7c-0.3-0.1-0.5-0.4-0.5-0.8c0-0.5,0.4-0.9,0.9-0.9s0.9,0.4,0.9,0.9c0,0.2-0.1,0.4-0.2,0.5
		L361.4,262.5z"/>
	<path d="M364.9,258.5c0.2,0.8,0.9,1.4,1.8,1.4c1.1,0,1.8-0.8,1.8-1.8c0-1-0.7-1.8-1.8-1.8c-0.7,0-1.3,0.3-1.6,0.9l-1-0.3l0.9-4.5h4
		v1h-3.2l-0.5,2.4c0.3-0.3,0.9-0.4,1.5-0.4c1.6,0,2.7,1.3,2.7,2.9c0,1.5-1.2,2.7-2.9,2.7c-1.5,0-2.8-1.1-2.9-2.4H364.9z"/>
	<path d="M376.2,260.8h-5.5v-0.4c0-1.8,1.6-2.7,2.9-3.6c1-0.7,1.5-1.2,1.5-2.2c0-0.9-0.6-1.5-1.6-1.5c-0.9,0-1.8,0.6-1.8,1.7h-1.1
		c0-1.6,1.2-2.7,2.8-2.7c1.4,0,2.6,0.8,2.6,2.5c0,1.2-0.6,2-2,3c-1,0.7-2,1.2-2.2,2.2h4.2V260.8z"/>
</g>
<g class="st2">
	<path d="M464.2,258.5h-4.5v-0.8l4.7-5.4h0.9v5.2h1.2v1h-1.2v2.3h-1V258.5z M464.2,253.9l-3.2,3.7h3.2V253.9z"/>
	<path d="M467.9,262.5h-0.7l0.8-1.7c-0.3-0.1-0.5-0.4-0.5-0.8c0-0.5,0.4-0.9,0.9-0.9s0.9,0.4,0.9,0.9c0,0.2-0.1,0.4-0.2,0.5
		L467.9,262.5z"/>
	<path d="M471.4,258.5c0.2,0.8,0.9,1.4,1.8,1.4c1.1,0,1.8-0.8,1.8-1.8c0-1-0.7-1.8-1.8-1.8c-0.7,0-1.3,0.3-1.6,0.9l-1-0.3l0.9-4.5h4
		v1h-3.2l-0.5,2.4c0.3-0.3,0.9-0.4,1.5-0.4c1.6,0,2.7,1.3,2.7,2.9c0,1.5-1.2,2.7-2.9,2.7c-1.5,0-2.8-1.1-2.9-2.4H471.4z"/>
	<path d="M482.7,260.8h-5.5v-0.4c0-1.8,1.6-2.7,2.9-3.6c1-0.7,1.5-1.2,1.5-2.2c0-0.9-0.6-1.5-1.6-1.5c-0.9,0-1.8,0.6-1.8,1.7h-1.1
		c0-1.6,1.2-2.7,2.8-2.7c1.4,0,2.6,0.8,2.6,2.5c0,1.2-0.6,2-2,3c-1,0.7-2,1.2-2.2,2.2h4.2V260.8z"/>
</g>
<g class="st2">
	<path d="M567,258.5h-4.5v-0.8l4.7-5.4h0.9v5.2h1.2v1H568v2.3h-1V258.5z M567,253.9l-3.2,3.7h3.2V253.9z"/>
	<path d="M570.7,262.5H570l0.8-1.7c-0.3-0.1-0.5-0.4-0.5-0.8c0-0.5,0.4-0.9,0.9-0.9s0.9,0.4,0.9,0.9c0,0.2-0.1,0.4-0.2,0.5
		L570.7,262.5z"/>
	<path d="M577.5,258.5h-4.5v-0.8l4.7-5.4h0.9v5.2h1.2v1h-1.2v2.3h-1V258.5z M577.5,253.9l-3.2,3.7h3.2V253.9z"/>
	<path d="M581.6,258.5c0.2,0.8,0.9,1.4,1.8,1.4c1.1,0,1.8-0.8,1.8-1.8c0-1-0.7-1.8-1.8-1.8c-0.7,0-1.3,0.3-1.6,0.9l-1-0.3l0.9-4.5h4
		v1h-3.2l-0.5,2.4c0.3-0.3,0.9-0.4,1.5-0.4c1.6,0,2.7,1.3,2.7,2.9c0,1.5-1.2,2.7-2.9,2.7c-1.5,0-2.8-1.1-2.9-2.4H581.6z"/>
</g>
<g class="st2">
	<path d="M676.1,258.5h-4.5v-0.8l4.7-5.4h0.9v5.2h1.2v1h-1.2v2.3h-1V258.5z M676.1,253.9l-3.2,3.7h3.2V253.9z"/>
	<path d="M679.8,262.5h-0.7l0.8-1.7c-0.3-0.1-0.5-0.4-0.5-0.8c0-0.5,0.4-0.9,0.9-0.9c0.5,0,0.9,0.4,0.9,0.9c0,0.2-0.1,0.4-0.2,0.5
		L679.8,262.5z"/>
	<path d="M685.4,260.9c-1.7,0-3-1.1-3-2.7h1c0.1,1,0.9,1.7,2,1.7c0.9,0,1.7-0.5,1.7-1.5c0-1.1-0.8-1.5-1.9-1.5h-0.6v-0.9h0.7
		c0.9,0,1.6-0.6,1.6-1.4c0-0.8-0.7-1.4-1.5-1.4c-1,0-1.8,0.6-1.8,1.7h-1.1c0-1.7,1.3-2.7,2.8-2.7c1.4,0,2.6,0.9,2.6,2.3
		c0,0.8-0.5,1.5-1.2,1.9c0.9,0.3,1.4,1.1,1.4,2.1C688.2,259.9,687,260.9,685.4,260.9z"/>
	<path d="M692.3,260.9c-1.7,0-3-1.1-3-2.7h1c0.1,1,0.9,1.7,2,1.7c0.9,0,1.7-0.5,1.7-1.5c0-1.1-0.8-1.5-1.9-1.5h-0.6v-0.9h0.7
		c0.9,0,1.6-0.6,1.6-1.4c0-0.8-0.7-1.4-1.5-1.4c-1,0-1.8,0.6-1.8,1.7h-1.1c0-1.7,1.3-2.7,2.8-2.7c1.4,0,2.6,0.9,2.6,2.3
		c0,0.8-0.5,1.5-1.2,1.9c0.9,0.3,1.4,1.1,1.4,2.1C695.1,259.9,694,260.9,692.3,260.9z"/>
</g>
<g class="st2">
	<path d="M35.9,368.2h-4.5v-0.8L36,362h0.9v5.2h1.2v1h-1.2v2.3h-1V368.2z M35.9,363.6l-3.2,3.7h3.2V363.6z"/>
	<path d="M39.6,372.2h-0.7l0.8-1.7c-0.3-0.1-0.5-0.4-0.5-0.8c0-0.5,0.4-0.9,0.9-0.9s0.9,0.4,0.9,0.9c0,0.2-0.1,0.4-0.2,0.5
		L39.6,372.2z"/>
	<path d="M42.9,363h-1.6l0.8-1h1.8v8.5h-1V363z"/>
	<path d="M48.5,370.6c-1.7,0-2.9-1.1-2.9-2.7c0-1,0.5-1.8,1.4-2.2c-0.6-0.4-0.9-1-0.9-1.7c0-1.3,1-2.2,2.4-2.2
		c1.4,0,2.4,0.9,2.4,2.2c0,0.7-0.3,1.3-0.9,1.7c0.8,0.4,1.3,1.2,1.3,2.2C51.3,369.5,50.2,370.6,48.5,370.6z M48.5,369.7
		c1.1,0,1.8-0.8,1.8-1.7c0-1-0.7-1.7-1.8-1.7c-1.1,0-1.8,0.7-1.8,1.7C46.7,368.9,47.4,369.7,48.5,369.7z M48.5,365.3
		c0.9,0,1.4-0.6,1.4-1.3c0-0.7-0.5-1.2-1.4-1.2c-0.8,0-1.4,0.5-1.4,1.2C47.1,364.7,47.7,365.3,48.5,365.3z"/>
</g>
<g class="st2">
	<path d="M142.9,368.2h-4.5v-0.8l4.7-5.4h0.9v5.2h1.2v1h-1.2v2.3h-1V368.2z M142.9,363.6l-3.2,3.7h3.2V363.6z"/>
	<path d="M146.6,372.2h-0.7l0.8-1.7c-0.3-0.1-0.5-0.4-0.5-0.8c0-0.5,0.4-0.9,0.9-0.9s0.9,0.4,0.9,0.9c0,0.2-0.1,0.4-0.2,0.5
		L146.6,372.2z"/>
	<path d="M152.1,370.6c-1.8,0-3-1.3-3-3.2v-2.4c0-1.9,1.3-3.2,3-3.2s3,1.3,3,3.2v2.4C155.2,369.3,153.9,370.6,152.1,370.6z
		 M152.1,369.6c1.2,0,2-0.8,2-2.2v-2.4c0-1.4-0.8-2.2-2-2.2c-1.2,0-2,0.8-2,2.2v2.4C150.2,368.8,151,369.6,152.1,369.6z"/>
	<path d="M156.6,370.5l4-7.5h-4.4v-1h5.6v0.9l-4.1,7.7H156.6z"/>
</g>
<g class="st2">
	<path d="M248.3,368.2h-4.5v-0.8l4.7-5.4h0.9v5.2h1.2v1h-1.2v2.3h-1V368.2z M248.3,363.6l-3.2,3.7h3.2V363.6z"/>
	<path d="M251.9,372.2h-0.7l0.8-1.7c-0.3-0.1-0.5-0.4-0.5-0.8c0-0.5,0.4-0.9,0.9-0.9s0.9,0.4,0.9,0.9c0,0.2-0.1,0.4-0.2,0.5
		L251.9,372.2z"/>
	<path d="M257.5,370.6c-1.8,0-3-1.3-3-3.2v-2.4c0-1.9,1.3-3.2,3-3.2s3,1.3,3,3.2v2.4C260.6,369.3,259.3,370.6,257.5,370.6z
		 M257.5,369.6c1.2,0,2-0.8,2-2.2v-2.4c0-1.4-0.8-2.2-2-2.2c-1.2,0-2,0.8-2,2.2v2.4C255.6,368.8,256.4,369.6,257.5,369.6z"/>
	<path d="M264.6,370.6c-1.7,0-2.9-1.3-2.9-2.8c0-0.9,0.4-1.5,1-2.2l3.1-3.7h1.3l-2.6,3.1c0.1,0,0.2,0,0.3,0c1.4,0,2.7,1.3,2.7,2.7
		C267.5,369.4,266.3,370.6,264.6,370.6z M264.6,369.6c1,0,1.8-0.8,1.8-1.8c0-1-0.8-1.8-1.8-1.8c-1,0-1.8,0.8-1.8,1.8
		C262.8,368.8,263.6,369.6,264.6,369.6z"/>
</g>
<g class="st2">
	<path d="M353.6,370.6c-1.7,0-3-1.1-3-2.7h1c0.1,1,0.9,1.7,2,1.7c0.9,0,1.7-0.5,1.7-1.5c0-1.1-0.8-1.5-1.9-1.5h-0.6v-0.9h0.7
		c0.9,0,1.6-0.6,1.6-1.4c0-0.8-0.7-1.4-1.5-1.4c-1,0-1.8,0.6-1.8,1.7h-1.1c0-1.7,1.3-2.7,2.8-2.7c1.4,0,2.6,0.9,2.6,2.3
		c0,0.8-0.5,1.5-1.2,1.9c0.9,0.3,1.4,1.1,1.4,2.1C356.4,369.6,355.2,370.6,353.6,370.6z"/>
	<path d="M358,372.2h-0.7l0.8-1.7c-0.3-0.1-0.5-0.4-0.5-0.8c0-0.5,0.4-0.9,0.9-0.9s0.9,0.4,0.9,0.9c0,0.2-0.1,0.4-0.2,0.5L358,372.2
		z"/>
	<path d="M363.5,367.4c-0.1,0-0.2,0-0.3,0c-1.4,0-2.7-1.3-2.7-2.7c0-1.6,1.2-2.8,2.9-2.8c1.7,0,2.9,1.3,2.9,2.8c0,0.9-0.4,1.5-1,2.2
		l-3.1,3.7h-1.3L363.5,367.4z M363.4,366.5c1,0,1.8-0.8,1.8-1.8c0-1-0.8-1.8-1.8-1.8s-1.8,0.8-1.8,1.8
		C361.6,365.7,362.4,366.5,363.4,366.5z"/>
	<path d="M368.2,368.2c0.2,0.8,0.9,1.4,1.8,1.4c1.1,0,1.8-0.8,1.8-1.8c0-1-0.7-1.8-1.8-1.8c-0.7,0-1.3,0.3-1.6,0.9l-1-0.3l0.9-4.5h4
		v1h-3.2l-0.5,2.4c0.3-0.3,0.9-0.4,1.5-0.4c1.6,0,2.7,1.3,2.7,2.9c0,1.5-1.2,2.7-2.9,2.7c-1.5,0-2.8-1.1-2.9-2.4H368.2z"/>
</g>
<g class="st2">
	<path d="M460.1,370.6c-1.7,0-3-1.1-3-2.7h1c0.1,1,0.9,1.7,2,1.7c0.9,0,1.7-0.5,1.7-1.5c0-1.1-0.8-1.5-1.9-1.5h-0.6v-0.9h0.7
		c0.9,0,1.6-0.6,1.6-1.4c0-0.8-0.7-1.4-1.5-1.4c-1,0-1.8,0.6-1.8,1.7h-1.1c0-1.7,1.3-2.7,2.8-2.7c1.4,0,2.6,0.9,2.6,2.3
		c0,0.8-0.5,1.5-1.2,1.9c0.9,0.3,1.4,1.1,1.4,2.1C462.9,369.6,461.8,370.6,460.1,370.6z"/>
	<path d="M464.6,372.2h-0.7l0.8-1.7c-0.3-0.1-0.5-0.4-0.5-0.8c0-0.5,0.4-0.9,0.9-0.9c0.5,0,0.9,0.4,0.9,0.9c0,0.2-0.1,0.4-0.2,0.5
		L464.6,372.2z"/>
	<path d="M469.9,370.6c-1.7,0-2.9-1.3-2.9-2.8c0-0.9,0.4-1.5,1-2.2l3.1-3.7h1.3l-2.6,3.1c0.1,0,0.2,0,0.3,0c1.4,0,2.7,1.3,2.7,2.7
		C472.8,369.4,471.6,370.6,469.9,370.6z M469.9,369.6c1,0,1.8-0.8,1.8-1.8c0-1-0.8-1.8-1.8-1.8c-1,0-1.8,0.8-1.8,1.8
		C468.1,368.8,468.9,369.6,469.9,369.6z"/>
	<path d="M476.7,367.4c-0.1,0-0.2,0-0.3,0c-1.4,0-2.7-1.3-2.7-2.7c0-1.6,1.2-2.8,2.9-2.8c1.7,0,2.9,1.3,2.9,2.8c0,0.9-0.4,1.5-1,2.2
		l-3.1,3.7h-1.3L476.7,367.4z M476.6,366.5c1,0,1.8-0.8,1.8-1.8c0-1-0.8-1.8-1.8-1.8c-1,0-1.8,0.8-1.8,1.8
		C474.8,365.7,475.5,366.5,476.6,366.5z"/>
</g>
<g class="st2">
	<path d="M565.8,370.6c-1.7,0-3-1.1-3-2.7h1c0.1,1,0.9,1.7,2,1.7c0.9,0,1.7-0.5,1.7-1.5c0-1.1-0.8-1.5-1.9-1.5H565v-0.9h0.7
		c0.9,0,1.6-0.6,1.6-1.4c0-0.8-0.7-1.4-1.5-1.4c-1,0-1.8,0.6-1.8,1.7h-1.1c0-1.7,1.3-2.7,2.8-2.7c1.4,0,2.6,0.9,2.6,2.3
		c0,0.8-0.5,1.5-1.2,1.9c0.9,0.3,1.4,1.1,1.4,2.1C568.6,369.6,567.4,370.6,565.8,370.6z"/>
	<path d="M570.2,372.2h-0.7l0.8-1.7c-0.3-0.1-0.5-0.4-0.5-0.8c0-0.5,0.4-0.9,0.9-0.9c0.5,0,0.9,0.4,0.9,0.9c0,0.2-0.1,0.4-0.2,0.5
		L570.2,372.2z"/>
	<path d="M575.6,370.6c-1.7,0-2.9-1.3-2.9-2.8c0-0.9,0.4-1.5,1-2.2l3.1-3.7h1.3l-2.6,3.1c0.1,0,0.2,0,0.3,0c1.4,0,2.7,1.3,2.7,2.7
		C578.5,369.4,577.3,370.6,575.6,370.6z M575.6,369.6c1,0,1.8-0.8,1.8-1.8c0-1-0.8-1.8-1.8-1.8c-1,0-1.8,0.8-1.8,1.8
		C573.8,368.8,574.6,369.6,575.6,369.6z"/>
	<path d="M580.7,363H579l0.8-1h1.8v8.5h-1V363z"/>
</g>
<g class="st2">
	<path d="M674.9,370.6c-1.7,0-3-1.1-3-2.7h1c0.1,1,0.9,1.7,2,1.7c0.9,0,1.7-0.5,1.7-1.5c0-1.1-0.8-1.5-1.9-1.5h-0.6v-0.9h0.7
		c0.9,0,1.6-0.6,1.6-1.4c0-0.8-0.7-1.4-1.5-1.4c-1,0-1.8,0.6-1.8,1.7H672c0-1.7,1.3-2.7,2.8-2.7c1.4,0,2.6,0.9,2.6,2.3
		c0,0.8-0.5,1.5-1.2,1.9c0.9,0.3,1.4,1.1,1.4,2.1C677.7,369.6,676.5,370.6,674.9,370.6z"/>
	<path d="M679.3,372.2h-0.7l0.8-1.7c-0.3-0.1-0.5-0.4-0.5-0.8c0-0.5,0.4-0.9,0.9-0.9s0.9,0.4,0.9,0.9c0,0.2-0.1,0.4-0.2,0.5
		L679.3,372.2z"/>
	<path d="M684.7,370.6c-1.7,0-2.9-1.3-2.9-2.8c0-0.9,0.4-1.5,1-2.2l3.1-3.7h1.3l-2.6,3.1c0.1,0,0.2,0,0.3,0c1.4,0,2.7,1.3,2.7,2.7
		C687.6,369.4,686.3,370.6,684.7,370.6z M684.7,369.6c1,0,1.8-0.8,1.8-1.8c0-1-0.8-1.8-1.8-1.8c-1,0-1.8,0.8-1.8,1.8
		C682.9,368.8,683.7,369.6,684.7,369.6z"/>
	<path d="M689.8,363h-1.6l0.8-1h1.8v8.5h-1V363z"/>
</g>
<g class="st2">
	<path d="M34.7,484.1c-1.7,0-3-1.1-3-2.7h1c0.1,1,0.9,1.7,2,1.7c0.9,0,1.7-0.5,1.7-1.5c0-1.1-0.8-1.5-1.9-1.5h-0.6v-0.9h0.7
		c0.9,0,1.6-0.6,1.6-1.4c0-0.8-0.7-1.4-1.5-1.4c-1,0-1.8,0.6-1.8,1.7h-1.1c0-1.7,1.3-2.7,2.8-2.7c1.4,0,2.6,0.9,2.6,2.3
		c0,0.8-0.5,1.5-1.2,1.9c0.9,0.3,1.4,1.1,1.4,2.1C37.5,483.1,36.3,484.1,34.7,484.1z"/>
	<path d="M39.1,485.7h-0.7l0.8-1.7c-0.3-0.1-0.5-0.4-0.5-0.8c0-0.5,0.4-0.9,0.9-0.9s0.9,0.4,0.9,0.9c0,0.2-0.1,0.4-0.2,0.5
		L39.1,485.7z"/>
	<path d="M45.9,481.7h-4.5v-0.8l4.7-5.4h0.9v5.2h1.2v1h-1.2v2.3h-1V481.7z M45.9,477l-3.2,3.7h3.2V477z"/>
	<path d="M52,484.1c-1.7,0-2.9-1.1-2.9-2.7c0-1,0.5-1.8,1.4-2.2c-0.6-0.4-0.9-1-0.9-1.7c0-1.3,1-2.2,2.4-2.2c1.4,0,2.4,0.9,2.4,2.2
		c0,0.7-0.3,1.3-0.9,1.7c0.8,0.4,1.3,1.2,1.3,2.2C54.9,483,53.7,484.1,52,484.1z M52,483.1c1.1,0,1.8-0.8,1.8-1.7
		c0-1-0.7-1.7-1.8-1.7c-1.1,0-1.8,0.7-1.8,1.7C50.2,482.4,50.9,483.1,52,483.1z M52,478.8c0.9,0,1.4-0.6,1.4-1.3
		c0-0.7-0.5-1.2-1.4-1.2c-0.8,0-1.4,0.5-1.4,1.2C50.6,478.2,51.2,478.8,52,478.8z"/>
</g>
<g class="st2">
	<path d="M141.7,484.1c-1.7,0-3-1.1-3-2.7h1c0.1,1,0.9,1.7,2,1.7c0.9,0,1.7-0.5,1.7-1.5c0-1.1-0.8-1.5-1.9-1.5h-0.6v-0.9h0.7
		c0.9,0,1.6-0.6,1.6-1.4c0-0.8-0.7-1.4-1.5-1.4c-1,0-1.8,0.6-1.8,1.7h-1.1c0-1.7,1.3-2.7,2.8-2.7c1.4,0,2.6,0.9,2.6,2.3
		c0,0.8-0.5,1.5-1.2,1.9c0.9,0.3,1.4,1.1,1.4,2.1C144.5,483.1,143.3,484.1,141.7,484.1z"/>
	<path d="M146.1,485.7h-0.7l0.8-1.7c-0.3-0.1-0.5-0.4-0.5-0.8c0-0.5,0.4-0.9,0.9-0.9s0.9,0.4,0.9,0.9c0,0.2-0.1,0.4-0.2,0.5
		L146.1,485.7z"/>
	<path d="M154.3,484h-5.5v-0.4c0-1.8,1.6-2.7,2.9-3.6c1-0.7,1.5-1.2,1.5-2.2c0-0.9-0.6-1.5-1.6-1.5c-0.9,0-1.8,0.6-1.8,1.7h-1.1
		c0-1.6,1.2-2.7,2.8-2.7c1.4,0,2.6,0.8,2.6,2.5c0,1.2-0.6,2-2,3c-1,0.7-2,1.2-2.2,2.2h4.2V484z"/>
</g>
<g class="st2">
	<path d="M247.1,484.1c-1.7,0-3-1.1-3-2.7h1c0.1,1,0.9,1.7,2,1.7c0.9,0,1.7-0.5,1.7-1.5c0-1.1-0.8-1.5-1.9-1.5h-0.6v-0.9h0.7
		c0.9,0,1.6-0.6,1.6-1.4c0-0.8-0.7-1.4-1.5-1.4c-1,0-1.8,0.6-1.8,1.7h-1.1c0-1.7,1.3-2.7,2.8-2.7c1.4,0,2.6,0.9,2.6,2.3
		c0,0.8-0.5,1.5-1.2,1.9c0.9,0.3,1.4,1.1,1.4,2.1C249.9,483.1,248.7,484.1,247.1,484.1z"/>
	<path d="M251.5,485.7h-0.7l0.8-1.7c-0.3-0.1-0.5-0.4-0.5-0.8c0-0.5,0.4-0.9,0.9-0.9s0.9,0.4,0.9,0.9c0,0.2-0.1,0.4-0.2,0.5
		L251.5,485.7z"/>
	<path d="M259.7,484h-5.5v-0.4c0-1.8,1.6-2.7,2.9-3.6c1-0.7,1.5-1.2,1.5-2.2c0-0.9-0.6-1.5-1.6-1.5c-0.9,0-1.8,0.6-1.8,1.7h-1.1
		c0-1.6,1.2-2.7,2.8-2.7c1.4,0,2.6,0.8,2.6,2.5c0,1.2-0.6,2-2,3c-1,0.7-2,1.2-2.2,2.2h4.2V484z"/>
</g>
<g class="st2">
	<path d="M353.6,484.1c-1.7,0-3-1.1-3-2.7h1c0.1,1,0.9,1.7,2,1.7c0.9,0,1.7-0.5,1.7-1.5c0-1.1-0.8-1.5-1.9-1.5h-0.6v-0.9h0.7
		c0.9,0,1.6-0.6,1.6-1.4c0-0.8-0.7-1.4-1.5-1.4c-1,0-1.8,0.6-1.8,1.7h-1.1c0-1.7,1.3-2.7,2.8-2.7c1.4,0,2.6,0.9,2.6,2.3
		c0,0.8-0.5,1.5-1.2,1.9c0.9,0.3,1.4,1.1,1.4,2.1C356.4,483.1,355.2,484.1,353.6,484.1z"/>
	<path d="M358,485.7h-0.7l0.8-1.7c-0.3-0.1-0.5-0.4-0.5-0.8c0-0.5,0.4-0.9,0.9-0.9s0.9,0.4,0.9,0.9c0,0.2-0.1,0.4-0.2,0.5L358,485.7
		z"/>
	<path d="M366.2,484h-5.5v-0.4c0-1.8,1.6-2.7,2.9-3.6c1-0.7,1.5-1.2,1.5-2.2c0-0.9-0.6-1.5-1.6-1.5c-0.9,0-1.8,0.6-1.8,1.7h-1.1
		c0-1.6,1.2-2.7,2.8-2.7c1.4,0,2.6,0.8,2.6,2.5c0,1.2-0.6,2-2,3c-1,0.7-2,1.2-2.2,2.2h4.2V484z"/>
</g>
<g class="st2">
	<path d="M460.1,484.1c-1.7,0-3-1.1-3-2.7h1c0.1,1,0.9,1.7,2,1.7c0.9,0,1.7-0.5,1.7-1.5c0-1.1-0.8-1.5-1.9-1.5h-0.6v-0.9h0.7
		c0.9,0,1.6-0.6,1.6-1.4c0-0.8-0.7-1.4-1.5-1.4c-1,0-1.8,0.6-1.8,1.7h-1.1c0-1.7,1.3-2.7,2.8-2.7c1.4,0,2.6,0.9,2.6,2.3
		c0,0.8-0.5,1.5-1.2,1.9c0.9,0.3,1.4,1.1,1.4,2.1C462.9,483.1,461.8,484.1,460.1,484.1z"/>
	<path d="M464.6,485.7h-0.7l0.8-1.7c-0.3-0.1-0.5-0.4-0.5-0.8c0-0.5,0.4-0.9,0.9-0.9s0.9,0.4,0.9,0.9c0,0.2-0.1,0.4-0.2,0.5
		L464.6,485.7z"/>
	<path d="M467.9,476.5h-1.6l0.8-1h1.8v8.5h-1V476.5z"/>
	<path d="M473.6,480.9c-0.1,0-0.2,0-0.3,0c-1.4,0-2.7-1.3-2.7-2.7c0-1.6,1.2-2.8,2.9-2.8c1.7,0,2.9,1.3,2.9,2.8c0,0.9-0.4,1.5-1,2.2
		l-3.1,3.7H471L473.6,480.9z M473.5,480c1,0,1.8-0.8,1.8-1.8c0-1-0.8-1.8-1.8-1.8s-1.8,0.8-1.8,1.8C471.6,479.2,472.4,480,473.5,480
		z"/>
</g>
<g class="st2">
	<path d="M568.4,484h-5.5v-0.4c0-1.8,1.6-2.7,2.9-3.6c1-0.7,1.5-1.2,1.5-2.2c0-0.9-0.6-1.5-1.6-1.5c-0.9,0-1.8,0.6-1.8,1.7h-1.1
		c0-1.6,1.2-2.7,2.8-2.7c1.4,0,2.6,0.8,2.6,2.5c0,1.2-0.6,2-2,3c-1,0.7-2,1.2-2.2,2.2h4.2V484z"/>
	<path d="M570,485.7h-0.7l0.8-1.7c-0.3-0.1-0.5-0.4-0.5-0.8c0-0.5,0.4-0.9,0.9-0.9c0.5,0,0.9,0.4,0.9,0.9c0,0.2-0.1,0.4-0.2,0.5
		L570,485.7z"/>
	<path d="M575.5,480.9c-0.1,0-0.2,0-0.3,0c-1.4,0-2.7-1.3-2.7-2.7c0-1.6,1.2-2.8,2.9-2.8c1.7,0,2.9,1.3,2.9,2.8c0,0.9-0.4,1.5-1,2.2
		l-3.1,3.7h-1.3L575.5,480.9z M575.4,480c1,0,1.8-0.8,1.8-1.8c0-1-0.8-1.8-1.8-1.8c-1,0-1.8,0.8-1.8,1.8
		C573.5,479.2,574.3,480,575.4,480z"/>
	<path d="M580.1,481.7c0.2,0.8,0.9,1.4,1.8,1.4c1.1,0,1.8-0.8,1.8-1.8c0-1-0.7-1.8-1.8-1.8c-0.7,0-1.3,0.3-1.6,0.9l-1-0.3l0.9-4.5h4
		v1h-3.2l-0.5,2.4c0.3-0.3,0.9-0.4,1.5-0.4c1.6,0,2.7,1.3,2.7,2.9c0,1.5-1.2,2.7-2.9,2.7c-1.5,0-2.8-1.1-2.9-2.4H580.1z"/>
</g>
<g class="st2">
	<path d="M677.4,484h-5.5v-0.4c0-1.8,1.6-2.7,2.9-3.6c1-0.7,1.5-1.2,1.5-2.2c0-0.9-0.6-1.5-1.6-1.5c-0.9,0-1.8,0.6-1.8,1.7h-1.1
		c0-1.6,1.2-2.7,2.8-2.7c1.4,0,2.6,0.8,2.6,2.5c0,1.2-0.6,2-2,3c-1,0.7-2,1.2-2.2,2.2h4.2V484z"/>
	<path d="M679.1,485.7h-0.7l0.8-1.7c-0.3-0.1-0.5-0.4-0.5-0.8c0-0.5,0.4-0.9,0.9-0.9c0.5,0,0.9,0.4,0.9,0.9c0,0.2-0.1,0.4-0.2,0.5
		L679.1,485.7z"/>
	<path d="M684.6,480.9c-0.1,0-0.2,0-0.3,0c-1.4,0-2.7-1.3-2.7-2.7c0-1.6,1.2-2.8,2.9-2.8s2.9,1.3,2.9,2.8c0,0.9-0.4,1.5-1,2.2
		l-3.1,3.7h-1.3L684.6,480.9z M684.5,480c1,0,1.8-0.8,1.8-1.8c0-1-0.8-1.8-1.8-1.8c-1,0-1.8,0.8-1.8,1.8
		C682.6,479.2,683.4,480,684.5,480z"/>
	<path d="M689.5,476.5h-1.6l0.8-1h1.8v8.5h-1V476.5z"/>
</g>
<g class="st2">
	<path d="M37.2,600.9h-5.5v-0.4c0-1.8,1.6-2.7,2.9-3.6c1-0.7,1.5-1.2,1.5-2.2c0-0.9-0.6-1.5-1.6-1.5c-0.9,0-1.8,0.6-1.8,1.7h-1.1
		c0-1.6,1.2-2.7,2.8-2.7c1.4,0,2.6,0.8,2.6,2.5c0,1.2-0.6,2-2,3c-1,0.7-2,1.2-2.2,2.2h4.2V600.9z"/>
	<path d="M38.8,602.6h-0.7l0.8-1.7c-0.3-0.1-0.5-0.4-0.5-0.8c0-0.5,0.4-0.9,0.9-0.9s0.9,0.4,0.9,0.9c0,0.2-0.1,0.4-0.2,0.5
		L38.8,602.6z"/>
	<path d="M44.3,601c-1.7,0-2.9-1.1-2.9-2.7c0-1,0.5-1.8,1.4-2.2c-0.6-0.4-0.9-1-0.9-1.7c0-1.3,1-2.2,2.4-2.2c1.4,0,2.4,0.9,2.4,2.2
		c0,0.7-0.3,1.3-0.9,1.7c0.8,0.4,1.3,1.2,1.3,2.2C47.2,599.9,46,601,44.3,601z M44.3,600c1.1,0,1.8-0.8,1.8-1.7c0-1-0.7-1.7-1.8-1.7
		c-1.1,0-1.8,0.7-1.8,1.7C42.5,599.3,43.2,600,44.3,600z M44.3,595.7c0.9,0,1.4-0.6,1.4-1.3c0-0.7-0.5-1.2-1.4-1.2
		c-0.8,0-1.4,0.5-1.4,1.2C43,595.1,43.5,595.7,44.3,595.7z"/>
	<path d="M48.5,600.9l4-7.5h-4.4v-1h5.6v0.9l-4.1,7.7H48.5z"/>
</g>
<g class="st2">
	<path d="M144.2,600.9h-5.5v-0.4c0-1.8,1.6-2.7,2.9-3.6c1-0.7,1.5-1.2,1.5-2.2c0-0.9-0.6-1.5-1.6-1.5c-0.9,0-1.8,0.6-1.8,1.7h-1.1
		c0-1.6,1.2-2.7,2.8-2.7c1.4,0,2.6,0.8,2.6,2.5c0,1.2-0.6,2-2,3c-1,0.7-2,1.2-2.2,2.2h4.2V600.9z"/>
	<path d="M145.8,602.6h-0.7l0.8-1.7c-0.3-0.1-0.5-0.4-0.5-0.8c0-0.5,0.4-0.9,0.9-0.9s0.9,0.4,0.9,0.9c0,0.2-0.1,0.4-0.2,0.5
		L145.8,602.6z"/>
	<path d="M151.2,601c-1.7,0-2.9-1.3-2.9-2.8c0-0.9,0.4-1.5,1-2.2l3.1-3.7h1.3l-2.6,3.1c0.1,0,0.2,0,0.3,0c1.4,0,2.7,1.3,2.7,2.7
		C154.1,599.8,152.9,601,151.2,601z M151.2,600c1,0,1.8-0.8,1.8-1.8c0-1-0.8-1.8-1.8-1.8c-1,0-1.8,0.8-1.8,1.8
		C149.4,599.2,150.2,600,151.2,600z"/>
	<path d="M158.2,601c-1.7,0-3-1.1-3-2.7h1c0.1,1,0.9,1.7,2,1.7c0.9,0,1.7-0.5,1.7-1.5c0-1.1-0.8-1.5-1.9-1.5h-0.6V596h0.7
		c0.9,0,1.6-0.6,1.6-1.4c0-0.8-0.7-1.4-1.5-1.4c-1,0-1.8,0.6-1.8,1.7h-1.1c0-1.7,1.3-2.7,2.8-2.7c1.4,0,2.6,0.9,2.6,2.3
		c0,0.8-0.5,1.5-1.2,1.9c0.9,0.3,1.4,1.1,1.4,2.1C161,600,159.8,601,158.2,601z"/>
</g>
<g class="st2">
	<path d="M249.6,600.9h-5.5v-0.4c0-1.8,1.6-2.7,2.9-3.6c1-0.7,1.5-1.2,1.5-2.2c0-0.9-0.6-1.5-1.6-1.5c-0.9,0-1.8,0.6-1.8,1.7h-1.1
		c0-1.6,1.2-2.7,2.8-2.7c1.4,0,2.6,0.8,2.6,2.5c0,1.2-0.6,2-2,3c-1,0.7-2,1.2-2.2,2.2h4.2V600.9z"/>
	<path d="M251.2,602.6h-0.7l0.8-1.7c-0.3-0.1-0.5-0.4-0.5-0.8c0-0.5,0.4-0.9,0.9-0.9s0.9,0.4,0.9,0.9c0,0.2-0.1,0.4-0.2,0.5
		L251.2,602.6z"/>
	<path d="M254.6,593.4h-1.6l0.8-1h1.8v8.5h-1V593.4z"/>
	<path d="M262.8,600.9h-5.5v-0.4c0-1.8,1.6-2.7,2.9-3.6c1-0.7,1.5-1.2,1.5-2.2c0-0.9-0.6-1.5-1.6-1.5c-0.9,0-1.8,0.6-1.8,1.7h-1.1
		c0-1.6,1.2-2.7,2.8-2.7c1.4,0,2.6,0.8,2.6,2.5c0,1.2-0.6,2-2,3c-1,0.7-2,1.2-2.2,2.2h4.2V600.9z"/>
</g>
</svg>
