<?xml version="1.0" encoding="utf-8"?>
<!-- Generator: Adobe Illustrator 24.0.1, SVG Export Plug-In . SVG Version: 6.00 Build 0)  -->
<svg version="1.1" id="Layer_1" xmlns="http://www.w3.org/2000/svg" xmlns:xlink="http://www.w3.org/1999/xlink" x="0px" y="0px"
	 viewBox="0 0 751.6 652.6" style="enable-background:new 0 0 751.6 652.6;" xml:space="preserve">
<style type="text/css">
	.st0{fill:#A3D3DC;}
	.st1{fill:none;stroke:#457687;stroke-miterlimit:10;}
	.st2{fill:#457687;}
	.st3{font-family:'EuclidCircularA-Medium';}
	.st4{font-size:20px;}
	.st5{font-family:'EuclidCircularA-Regular';}
	.st6{font-size:12px;}
</style>
<rect x="24.1" y="46.3" class="st0" width="89.7" height="89.7"/>
<rect x="131.1" y="50.8" class="st0" width="85.1" height="85.1"/>
<rect x="236.5" y="53.7" class="st0" width="82.3" height="82.3"/>
<rect x="343.1" y="53.7" class="st0" width="82.3" height="82.3"/>
<rect x="449.6" y="56" class="st0" width="80" height="80"/>
<rect x="555.3" y="58.3" class="st0" width="77.7" height="77.7"/>
<rect x="664.3" y="58.8" class="st0" width="77.1" height="77.1"/>
<rect x="24.1" y="191" class="st0" width="76.6" height="76.6"/>
<rect x="131.1" y="191.6" class="st0" width="76" height="76"/>
<rect x="236.5" y="201.9" class="st0" width="65.7" height="65.7"/>
<rect x="343.1" y="203" class="st0" width="64.6" height="64.6"/>
<rect x="449.6" y="203" class="st0" width="64.6" height="64.6"/>
<rect x="555.3" y="204.2" class="st0" width="63.4" height="63.4"/>
<rect x="664.3" y="205.9" class="st0" width="61.7" height="61.7"/>
<rect x="24.6" y="317.8" class="st0" width="59.4" height="59.4"/>
<rect x="131.1" y="318.9" class="st0" width="58.3" height="58.3"/>
<rect x="236.5" y="319.5" class="st0" width="57.7" height="57.7"/>
<rect x="343.1" y="320.6" class="st0" width="56.6" height="56.6"/>
<rect x="449.6" y="324.6" class="st0" width="52.6" height="52.6"/>
<rect x="555.3" y="325.8" class="st0" width="51.4" height="51.4"/>
<rect x="664.3" y="324.7" class="st0" width="51.4" height="51.4"/>
<rect x="24.1" y="441.7" class="st0" width="49.7" height="49.7"/>
<rect x="131.1" y="446.2" class="st0" width="45.1" height="45.1"/>
<rect x="236.5" y="446.2" class="st0" width="45.1" height="45.1"/>
<rect x="343.1" y="446.2" class="st0" width="45.1" height="45.1"/>
<rect x="449.6" y="446.2" class="st0" width="45.1" height="45.1"/>
<rect x="555.3" y="450.2" class="st0" width="41.1" height="41.1"/>
<rect x="664.3" y="450.9" class="st0" width="40.6" height="40.6"/>
<rect x="24.1" y="567" class="st0" width="39.4" height="39.4"/>
<rect x="131.1" y="571" class="st0" width="35.4" height="35.4"/>
<rect x="236.5" y="580.1" class="st0" width="26.3" height="26.3"/>
<title>Untitled-2</title>
<rect x="236.5" y="321.7" class="st1" width="55.5" height="55.5"/>
<rect x="131.1" y="321.7" class="st1" width="55.5" height="55.5"/>
<rect x="24.1" y="321.7" class="st1" width="55.5" height="55.5"/>
<rect x="449.6" y="321.7" class="st1" width="55.5" height="55.5"/>
<rect x="555.3" y="321.7" class="st1" width="55.5" height="55.5"/>
<rect x="343.1" y="321.7" class="st1" width="55.5" height="55.5"/>
<rect x="131.1" y="435.9" class="st1" width="55.5" height="55.5"/>
<rect x="24.1" y="435.9" class="st1" width="55.5" height="55.5"/>
<rect x="664.3" y="320.6" class="st1" width="55.5" height="55.5"/>
<rect x="449.6" y="435.9" class="st1" width="55.5" height="55.5"/>
<rect x="555.3" y="435.9" class="st1" width="55.5" height="55.5"/>
<rect x="343.1" y="435.9" class="st1" width="55.5" height="55.5"/>
<rect x="236.5" y="435.9" class="st1" width="55.5" height="55.5"/>
<rect x="131.1" y="550.8" class="st1" width="55.5" height="55.5"/>
<rect x="24.1" y="550.8" class="st1" width="55.5" height="55.5"/>
<rect x="664.3" y="435.8" class="st1" width="55.5" height="55.5"/>
<rect x="236.5" y="550.8" class="st1" width="55.5" height="55.5"/>
<rect x="236.5" y="212.1" class="st1" width="55.5" height="55.5"/>
<rect x="131.1" y="212.1" class="st1" width="55.5" height="55.5"/>
<rect x="24.1" y="212.1" class="st1" width="55.5" height="55.5"/>
<rect x="555.3" y="212.1" class="st1" width="55.5" height="55.5"/>
<rect x="664.3" y="212.1" class="st1" width="55.5" height="55.5"/>
<rect x="449.6" y="212.1" class="st1" width="55.5" height="55.5"/>
<rect x="343.1" y="212.1" class="st1" width="55.5" height="55.5"/>
<rect x="236.5" y="80.5" class="st1" width="55.5" height="55.5"/>
<rect x="131.1" y="80.5" class="st1" width="55.5" height="55.5"/>
<rect x="24.1" y="80.5" class="st1" width="55.5" height="55.5"/>
<rect x="555.3" y="80.5" class="st1" width="55.5" height="55.5"/>
<rect x="664.3" y="80.5" class="st1" width="55.5" height="55.5"/>
<rect x="449.6" y="80.5" class="st1" width="55.5" height="55.5"/>
<rect x="343.1" y="80.5" class="st1" width="55.5" height="55.5"/>
<text transform="matrix(1 0 0 1 24.1315 23.49)" class="st2 st3 st4">Sport area per child in different regions in China (m2)</text>
<text transform="matrix(1 0 0 1 236.5192 629.1565)" class="st5 st6">Guangxi</text>
<text transform="matrix(1 0 0 1 136.5919 629.1565)" class="st5 st6"> </text>
<text transform="matrix(1 0 0 1 133.5314 629.157)" class="st5 st6">Sichuan</text>
<text transform="matrix(1 0 0 1 24.132 629.1575)" class="st5 st6">Anhui</text>
<g>
	<text transform="matrix(1 0 0 1 664.3405 513.3728)" class="st5 st6">Chongqing</text>
</g>
<g>
	<text transform="matrix(1 0 0 1 555.2541 513.3728)" class="st5 st6">Hunan</text>
</g>
<g>
	<text transform="matrix(1 0 0 1 449.5812 513.3728)" class="st5 st6">Hubei</text>
</g>
<g>
	<text transform="matrix(1 0 0 1 343.0504 513.3728)" class="st5 st6">Yunnan</text>
</g>
<g>
	<text transform="matrix(1 0 0 1 236.5187 513.3728)" class="st5 st6">Fujian</text>
</g>
<g>
	<text transform="matrix(1 0 0 1 131.2121 513.3728)" class="st5 st6"> </text>
	<text transform="matrix(1 0 0 1 131.132 513.3728)" class="st5 st6">Henan</text>
</g>
<g>
	<text transform="matrix(1 0 0 1 24.2116 513.3723)" class="st5 st6"> </text>
	<text transform="matrix(1 0 0 1 24.1315 513.3723)" class="st5 st6">Hainan</text>
</g>
<g>
	<text transform="matrix(1 0 0 1 669.5207 397.7751)" class="st5 st6"> </text>
	<text transform="matrix(1 0 0 1 665.4704 397.7751)" class="st5 st6">Jiangxi</text>
</g>
<g>
	<text transform="matrix(1 0 0 1 555.2546 397.7751)" class="st5 st6">Guangdong</text>
</g>
<g>
	<text transform="matrix(1 0 0 1 449.5817 397.7751)" class="st5 st6">Guizhou</text>
</g>
<g>
	<text transform="matrix(1 0 0 1 343.05 397.7754)" class="st5 st6">Shanghai</text>
</g>
<g>
	<text transform="matrix(1 0 0 1 236.5192 397.7754)" class="st5 st6">Shaanxi</text>
</g>
<g>
	<text transform="matrix(1 0 0 1 131.1315 397.7751)" class="st5 st6"> </text>
	<text transform="matrix(1 0 0 1 133.5475 397.7751)" class="st5 st6"> </text>
	<text transform="matrix(1 0 0 1 133.5475 397.7751)" class="st5 st6">Tibet</text>
</g>
<g>
	<text transform="matrix(1 0 0 1 24.132 397.7747)" class="st5 st6">Gansu</text>
</g>
<g>
	<text transform="matrix(1 0 0 1 664.34 288.5588)" class="st5 st6">Zhejiang</text>
</g>
<g>
	<text transform="matrix(1 0 0 1 555.2536 288.5588)" class="st5 st6">Shanxi</text>
</g>
<g>
	<text transform="matrix(1 0 0 1 449.6403 288.5591)" class="st5 st6"> </text>
	<text transform="matrix(1 0 0 1 449.5807 288.5591)" class="st5 st6">Tianjin</text>
</g>
<g>
	<text transform="matrix(1 0 0 1 343.13 288.5591)" class="st5 st6"> </text>
	<text transform="matrix(1 0 0 1 343.05 288.5591)" class="st5 st6">Hebei</text>
</g>
<g>
	<text transform="matrix(1 0 0 1 241.6994 288.5591)" class="st5 st6"> </text>
	<text transform="matrix(1 0 0 1 241.6491 288.5591)" class="st5 st6">Jilin</text>
</g>
<g>
	<text transform="matrix(1 0 0 1 131.1315 288.5591)" class="st5 st6">Beijing</text>
</g>
<g>
	<text transform="matrix(1 0 0 1 24.132 288.5586)" class="st5 st6">Liaoning</text>
</g>
<text transform="matrix(1 0 0 1 664.34 159.9453)" class="st5 st6">Xinjiang</text>
<text transform="matrix(1 0 0 1 555.2541 159.9456)" class="st5 st6">Ningxia</text>
<text transform="matrix(1 0 0 1 449.5817 159.9448)" class="st5 st6"> </text>
<text transform="matrix(1 0 0 1 449.5812 159.9448)" class="st5 st6">Jiangsu</text>
<text transform="matrix(1 0 0 1 343.05 159.9448)" class="st5 st6"> </text>
<text transform="matrix(1 0 0 1 343.05 159.9448)" class="st5 st6">Heilongjiang</text>
<text transform="matrix(1 0 0 1 236.5192 159.9448)" class="st5 st6">Qinghai</text>
<text transform="matrix(1 0 0 1 131.1315 159.9448)" class="st5 st6">Shandong</text>
<text transform="matrix(1 0 0 1 71.4674 159.9448)" class="st5 st6"> </text>
<text transform="matrix(1 0 0 1 24.132 159.9451)" class="st5 st6">Inner Mongolia</text>
<g>
	<text transform="matrix(1 0 0 1 31.1309 126.6909)" class="st5 st6">6,61</text>
</g>
<g>
	<text transform="matrix(1 0 0 1 138.1313 126.6909)" class="st5 st6"> 6,18</text>
</g>
<g>
	<text transform="matrix(1 0 0 1 243.519 126.6909)" class="st5 st6">5,96</text>
</g>
<g>
	<text transform="matrix(1 0 0 1 350.0498 126.6909)" class="st5 st6">5,95</text>
</g>
<g>
	<text transform="matrix(1 0 0 1 456.5806 126.6909)" class="st5 st6">5,76</text>
</g>
<g>
	<text transform="matrix(1 0 0 1 562.2544 126.6909)" class="st5 st6">5,58</text>
</g>
<g>
	<text transform="matrix(1 0 0 1 671.3408 126.6909)" class="st5 st6">5,5</text>
</g>
<g>
	<text transform="matrix(1 0 0 1 31.1313 260.8142)" class="st5 st6">5,49</text>
</g>
<g>
	<text transform="matrix(1 0 0 1 138.1313 260.814)" class="st5 st6">5,42</text>
</g>
<g>
	<text transform="matrix(1 0 0 1 243.519 260.8137)" class="st5 st6">4,62</text>
</g>
<g>
	<text transform="matrix(1 0 0 1 350.0503 260.814)" class="st5 st6"> 4,52</text>
</g>
<g>
	<text transform="matrix(1 0 0 1 456.5811 260.8147)" class="st5 st6"> 4,52</text>
</g>
<g>
	<text transform="matrix(1 0 0 1 562.2534 260.8142)" class="st5 st6">4,45</text>
</g>
<g>
	<text transform="matrix(1 0 0 1 671.3403 260.814)" class="st5 st6">4,33</text>
</g>
<g>
	<text transform="matrix(1 0 0 1 31.1313 370.5232)" class="st5 st6">4,18</text>
</g>
<g>
	<text transform="matrix(1 0 0 1 138.1313 370.5234)" class="st5 st6">4,07</text>
</g>
<g>
	<text transform="matrix(1 0 0 1 243.5195 370.5232)" class="st5 st6">4,06</text>
</g>
<g>
	<text transform="matrix(1 0 0 1 350.0498 370.5232)" class="st5 st6">3,95</text>
</g>
<g>
	<text transform="matrix(1 0 0 1 456.5806 370.5232)" class="st5 st6">3,69</text>
</g>
<g>
	<text transform="matrix(1 0 0 1 562.2534 370.5234)" class="st5 st6">3,61</text>
</g>
<g>
	<text transform="matrix(1 0 0 1 671.3408 370.5232)" class="st5 st6">3,61</text>
</g>
<g>
	<text transform="matrix(1 0 0 1 31.1309 483.9875)" class="st5 st6">3,48</text>
</g>
<g>
	<text transform="matrix(1 0 0 1 138.1318 483.9875)" class="st5 st6">3,2</text>
</g>
<g>
	<text transform="matrix(1 0 0 1 243.5195 483.9875)" class="st5 st6">3,2</text>
</g>
<g>
	<text transform="matrix(1 0 0 1 350.0508 483.9875)" class="st5 st6">3,2</text>
</g>
<g>
	<text transform="matrix(1 0 0 1 456.5811 483.9875)" class="st5 st6">3,19</text>
</g>
<g>
	<text transform="matrix(1 0 0 1 562.2539 483.9875)" class="st5 st6">2,95</text>
</g>
<g>
	<text transform="matrix(1 0 0 1 671.3403 483.988)" class="st5 st6">2,91</text>
</g>
<g>
	<text transform="matrix(1 0 0 1 31.1313 600.9119)" class="st5 st6">2,87</text>
</g>
<g>
	<text transform="matrix(1 0 0 1 138.1318 600.9121)" class="st5 st6">2,63</text>
</g>
<g>
	<text transform="matrix(1 0 0 1 243.5195 600.9114)" class="st5 st6">2,12</text>
</g>
</svg>
