<?xml version="1.0" encoding="utf-8"?>
<!-- Generator: Adobe Illustrator 24.0.1, SVG Export Plug-In . SVG Version: 6.00 Build 0)  -->
<svg version="1.1" id="Layer_1" xmlns="http://www.w3.org/2000/svg" xmlns:xlink="http://www.w3.org/1999/xlink" x="0px" y="0px"
	 viewBox="0 0 151.1 108.5" style="enable-background:new 0 0 151.1 108.5;" xml:space="preserve">
<style type="text/css">
	.st0{fill:#A3D3DC;}
	.st1{fill:none;stroke:#457687;stroke-miterlimit:10;}
	.st2{enable-background:new    ;}
	.st3{fill:none;stroke:#457687;stroke-width:0.75;stroke-miterlimit:10;}
</style>
<title>Untitled-2</title>
<rect x="5.5" y="54.9" class="st0" width="26.3" height="26.3"/>
<rect x="5.5" y="24.9" class="st1" width="55.5" height="55.5"/>
<g class="st2">
	<path d="M87.2,65.3H88l3.1,7.1h-1l-0.9-2.1H86l-0.9,2.1h-1L87.2,65.3z M88.9,69.5l-1.3-2.9l-1.3,2.9H88.9z"/>
</g>
<g class="st2">
	<path d="M94.1,72.5c-1.5,0-2.6-1.2-2.6-2.6c0-1.4,1.1-2.6,2.6-2.6c1.3,0,2.2,0.8,2.5,1.9h-0.9c-0.2-0.6-0.8-1.1-1.6-1.1
		c-1,0-1.7,0.8-1.7,1.8c0,1,0.7,1.8,1.7,1.8c0.8,0,1.4-0.4,1.6-1.1h0.9C96.3,71.8,95.3,72.5,94.1,72.5z"/>
</g>
<g class="st2">
	<path d="M99.7,72.5c-0.9,0-1.5-0.5-1.5-1.5v-2.7h-1.1v-0.8h1.1V66H99v1.4h1.4v0.8H99v2.6c0,0.6,0.3,0.8,0.8,0.8
		c0.2,0,0.5,0,0.6-0.1v0.8C100.2,72.4,100,72.5,99.7,72.5z"/>
	<path d="M101.5,67.4h0.9v2.9c0,0.8,0.4,1.4,1.1,1.4c0.8,0,1.4-0.7,1.4-1.8v-2.5h0.9v5h-0.9v-0.8c-0.3,0.6-0.9,0.9-1.5,0.9
		c-1.1,0-1.8-0.8-1.8-2V67.4z"/>
	<path d="M109.4,67.3c0.7,0,1.4,0.4,1.8,0.9v-0.8h0.9v5h-0.9v-0.8c-0.3,0.5-1,0.9-1.8,0.9c-1.4,0-2.4-1.2-2.4-2.6
		C106.9,68.5,108,67.3,109.4,67.3z M109.5,68.1c-1,0-1.7,0.8-1.7,1.8c0,1,0.7,1.8,1.7,1.8c1,0,1.7-0.8,1.7-1.8
		C111.2,68.9,110.5,68.1,109.5,68.1z"/>
	<path d="M113.6,64.9h0.9v7.5h-0.9V64.9z"/>
	<path d="M120.6,67.3c0.8,0,1.4,0.4,1.8,0.9v-0.8h0.9v5h-0.9v-0.8c-0.3,0.5-1,0.9-1.8,0.9c-1.4,0-2.4-1.2-2.4-2.6
		C118.1,68.5,119.2,67.3,120.6,67.3z M120.7,68.1c-1,0-1.7,0.8-1.7,1.8c0,1,0.7,1.8,1.7,1.8s1.7-0.8,1.7-1.8
		C122.4,68.9,121.7,68.1,120.7,68.1z"/>
</g>
<g class="st2">
	<path d="M124.7,67.4h0.9v1c0.2-0.6,0.8-1,1.4-1c0.1,0,0.2,0,0.4,0v0.9c-0.2-0.1-0.3-0.1-0.5-0.1c-0.6,0-1.3,0.5-1.3,1.7v2.5h-0.9
		V67.4z"/>
</g>
<g class="st2">
	<path d="M130.2,72.5c-1.5,0-2.5-1.1-2.5-2.6c0-1.5,1-2.6,2.5-2.6c1.6,0,2.5,1.3,2.4,2.8h-4.1c0,0.9,0.8,1.6,1.7,1.6
		c0.6,0,1.2-0.2,1.4-0.8h0.9C132.3,71.8,131.5,72.5,130.2,72.5z M128.6,69.5h3.1c-0.2-0.9-0.8-1.4-1.5-1.4
		C129.5,68.1,128.8,68.5,128.6,69.5z"/>
	<path d="M135.9,67.3c0.8,0,1.4,0.4,1.8,0.9v-0.8h0.9v5h-0.9v-0.8c-0.3,0.5-1,0.9-1.8,0.9c-1.4,0-2.4-1.2-2.4-2.6
		C133.5,68.5,134.5,67.3,135.9,67.3z M136.1,68.1c-1,0-1.7,0.8-1.7,1.8c0,1,0.7,1.8,1.7,1.8c1,0,1.7-0.8,1.7-1.8
		C137.8,68.9,137.1,68.1,136.1,68.1z"/>
</g>
<g class="st2">
	<path d="M6.4,87.8h2.4c1.3,0,2.1,0.8,2.1,2c0,1-0.7,1.7-1.7,1.9l2.7,3.2h-1.2L8,91.7H7.3v3.2H6.4V87.8z M8.7,90.8
		c0.8,0,1.3-0.4,1.3-1.1c0-0.7-0.5-1.1-1.3-1.1H7.3v2.2H8.7z"/>
	<path d="M14.6,95c-1.5,0-2.5-1.1-2.5-2.6c0-1.5,1-2.6,2.5-2.6c1.6,0,2.5,1.3,2.4,2.8h-4.1c0,0.9,0.8,1.6,1.7,1.6
		c0.6,0,1.1-0.2,1.4-0.8h0.9C16.7,94.3,15.9,95,14.6,95z M13,92h3.1c-0.2-0.9-0.8-1.4-1.5-1.4C13.9,90.6,13.2,91,13,92z"/>
	<path d="M18.9,95.4c0.2,0.7,0.8,1,1.6,1c0.9,0,1.6-0.6,1.6-1.7V94c-0.3,0.5-1,0.9-1.7,0.9c-1.4,0-2.4-1.1-2.4-2.5
		c0-1.4,1.1-2.5,2.4-2.5c0.7,0,1.4,0.4,1.7,0.9v-0.8h0.9v4.7c0,1.7-1.1,2.5-2.5,2.5c-1.3,0-2.3-0.7-2.4-1.7H18.9z M20.4,90.6
		c-1,0-1.7,0.8-1.7,1.7c0,1,0.7,1.7,1.7,1.7s1.7-0.7,1.7-1.7C22.1,91.3,21.4,90.6,20.4,90.6z"/>
	<path d="M25,88.6c-0.3,0-0.6-0.3-0.6-0.6c0-0.3,0.3-0.6,0.6-0.6s0.6,0.3,0.6,0.6C25.6,88.3,25.3,88.6,25,88.6z M24.5,89.9h0.9v5
		h-0.9V89.9z"/>
	<path d="M29.2,95c-1.5,0-2.6-1.2-2.6-2.6c0-1.4,1.1-2.6,2.6-2.6c1.5,0,2.6,1.2,2.6,2.6C31.9,93.8,30.7,95,29.2,95z M29.2,94.2
		c1,0,1.7-0.8,1.7-1.8c0-1-0.7-1.8-1.7-1.8s-1.7,0.8-1.7,1.8C27.5,93.4,28.2,94.2,29.2,94.2z"/>
	<path d="M33.1,89.9h0.9v0.8c0.3-0.6,0.9-0.9,1.6-0.9c1.1,0,1.9,0.8,1.9,2v3.1h-0.8V92c0-0.8-0.5-1.4-1.2-1.4
		c-0.8,0-1.4,0.7-1.4,1.8v2.5h-0.9V89.9z"/>
</g>
<line class="st3" x1="30.1" y1="38.9" x2="78.8" y2="38.9"/>
<line class="st3" x1="18.6" y1="68.9" x2="78.8" y2="68.9"/>
<g class="st2">
	<path d="M81.5,40.4c0.1,0.8,0.9,1.1,1.5,1.1c0.7,0,1.3-0.4,1.3-1.1c0-0.6-0.3-1-1-1.2l-1-0.4c-1.1-0.4-1.6-1-1.6-2
		c0-1.2,0.9-1.9,2.2-1.9c1.4,0,2.1,1,2.2,1.9h-0.9c-0.2-0.7-0.8-1-1.3-1c-0.7,0-1.2,0.4-1.2,1c0,0.6,0.3,0.9,1,1.1l0.9,0.3
		c1.1,0.4,1.7,1,1.7,2.1c0,1.2-0.9,2-2.3,2c-1.5,0-2.4-0.9-2.5-2H81.5z"/>
	<path d="M88.5,42.3c-0.9,0-1.5-0.5-1.5-1.5v-2.7h-1.1v-0.8H87v-1.4h0.9v1.4h1.4v0.8h-1.4v2.6c0,0.6,0.3,0.8,0.8,0.8
		c0.2,0,0.4,0,0.6-0.1v0.8C89.1,42.3,88.8,42.3,88.5,42.3z"/>
	<path d="M92.4,37.2c0.7,0,1.4,0.4,1.8,0.9v-0.8H95v5h-0.9v-0.8c-0.3,0.5-1,0.9-1.8,0.9c-1.4,0-2.4-1.2-2.4-2.6
		C89.9,38.3,91,37.2,92.4,37.2z M92.5,38c-1,0-1.7,0.8-1.7,1.8c0,1,0.7,1.8,1.7,1.8s1.7-0.8,1.7-1.8C94.2,38.8,93.5,38,92.5,38z"/>
	<path d="M96.6,37.3h0.9V38c0.3-0.6,0.9-0.9,1.6-0.9c1.1,0,1.9,0.8,1.9,2v3.1h-0.8v-2.9c0-0.8-0.5-1.4-1.2-1.4
		c-0.8,0-1.4,0.7-1.4,1.8v2.5h-0.9V37.3z"/>
	<path d="M104.6,37.2c0.7,0,1.4,0.4,1.8,0.9v-3.3h0.9v7.5h-0.9v-0.8c-0.3,0.5-1,0.9-1.8,0.9c-1.4,0-2.4-1.2-2.4-2.6
		C102.1,38.3,103.2,37.2,104.6,37.2z M104.7,38c-1,0-1.7,0.8-1.7,1.8c0,1,0.7,1.8,1.7,1.8s1.7-0.8,1.7-1.8
		C106.4,38.8,105.7,38,104.7,38z"/>
	<path d="M110.9,37.2c0.8,0,1.4,0.4,1.8,0.9v-0.8h0.9v5h-0.9v-0.8c-0.3,0.5-1,0.9-1.8,0.9c-1.4,0-2.4-1.2-2.4-2.6
		C108.4,38.3,109.5,37.2,110.9,37.2z M111,38c-1,0-1.7,0.8-1.7,1.8c0,1,0.7,1.8,1.7,1.8c1,0,1.7-0.8,1.7-1.8
		C112.7,38.8,112,38,111,38z"/>
	<path d="M115.1,37.3h0.9v1c0.2-0.6,0.8-1,1.4-1c0.1,0,0.2,0,0.4,0v0.9c-0.2-0.1-0.3-0.1-0.5-0.1c-0.6,0-1.3,0.5-1.3,1.7v2.5h-0.9
		V37.3z"/>
	<path d="M120.7,37.2c0.7,0,1.4,0.4,1.8,0.9v-3.3h0.9v7.5h-0.9v-0.8c-0.3,0.5-1,0.9-1.8,0.9c-1.4,0-2.4-1.2-2.4-2.6
		C118.2,38.3,119.3,37.2,120.7,37.2z M120.8,38c-1,0-1.7,0.8-1.7,1.8c0,1,0.7,1.8,1.7,1.8s1.7-0.8,1.7-1.8
		C122.5,38.8,121.8,38,120.8,38z"/>
	<path d="M129.4,37.2c0.8,0,1.4,0.4,1.8,0.9v-0.8h0.9v5h-0.9v-0.8c-0.3,0.5-1,0.9-1.8,0.9c-1.4,0-2.4-1.2-2.4-2.6
		C126.9,38.3,128,37.2,129.4,37.2z M129.5,38c-1,0-1.7,0.8-1.7,1.8c0,1,0.7,1.8,1.7,1.8c1,0,1.7-0.8,1.7-1.8
		C131.2,38.8,130.5,38,129.5,38z"/>
	<path d="M133.6,37.3h0.9v1c0.2-0.6,0.8-1,1.4-1c0.1,0,0.2,0,0.4,0v0.9c-0.2-0.1-0.3-0.1-0.5-0.1c-0.6,0-1.3,0.5-1.3,1.7v2.5h-0.9
		V37.3z"/>
	<path d="M139.2,42.4c-1.5,0-2.5-1.1-2.5-2.6c0-1.5,1-2.6,2.5-2.6c1.6,0,2.5,1.3,2.4,2.8h-4.1c0,0.9,0.8,1.6,1.7,1.6
		c0.6,0,1.2-0.2,1.4-0.8h0.9C141.3,41.6,140.5,42.4,139.2,42.4z M137.6,39.3h3.1c-0.2-0.9-0.8-1.4-1.5-1.4
		C138.5,37.9,137.8,38.3,137.6,39.3z"/>
	<path d="M144.9,37.2c0.8,0,1.4,0.4,1.8,0.9v-0.8h0.9v5h-0.9v-0.8c-0.3,0.5-1,0.9-1.8,0.9c-1.4,0-2.4-1.2-2.4-2.6
		C142.5,38.3,143.5,37.2,144.9,37.2z M145.1,38c-1,0-1.7,0.8-1.7,1.8c0,1,0.7,1.8,1.7,1.8c1,0,1.7-0.8,1.7-1.8
		C146.8,38.8,146.1,38,145.1,38z"/>
</g>
<g class="st2">
	<path d="M105.4,55.9c-0.9-1.6-1.3-3.1-1.3-4.8s0.4-3.2,1.3-4.8h0.7c-0.8,1.6-1.2,3.2-1.2,4.8s0.4,3.1,1.2,4.8H105.4z"/>
	<path d="M110.1,52.3h-3.8v-0.7l3.9-4.5h0.7v4.4h1v0.8h-1v1.9h-0.9V52.3z M110.1,48.5l-2.6,3.1h2.6V48.5z"/>
	<path d="M113.1,49.3h0.9V50c0.3-0.5,0.8-0.9,1.5-0.9c0.8,0,1.3,0.4,1.5,1.1c0.3-0.7,0.9-1.1,1.6-1.1c1.1,0,1.7,0.8,1.7,2v3.1h-0.9
		v-2.9c0-0.8-0.3-1.4-1-1.4c-0.8,0-1.4,0.7-1.4,1.8v2.5h-0.9v-2.9c0-0.8-0.3-1.4-1-1.4c-0.8,0-1.4,0.7-1.4,1.8v2.5h-0.9V49.3z"/>
	<path d="M124.4,50.2h-2.9v-0.2c0-0.9,0.8-1.4,1.4-1.8c0.4-0.3,0.7-0.6,0.7-1c0-0.4-0.3-0.6-0.7-0.6c-0.4,0-0.8,0.3-0.8,0.7h-0.7
		c0-0.8,0.6-1.4,1.5-1.4c0.7,0,1.4,0.4,1.4,1.3c0,0.7-0.3,1.1-0.9,1.5c-0.4,0.3-0.8,0.5-1,0.9h1.9V50.2z"/>
	<path d="M126.2,51.1c0-1.6-0.4-3.1-1.2-4.8h0.7c0.9,1.6,1.3,3.1,1.3,4.8s-0.4,3.2-1.3,4.8H125C125.8,54.2,126.2,52.7,126.2,51.1z"
		/>
</g>
<path d="M6.3,10.4h2.6c1.3,0,2.1,0.8,2.1,2c0,1-0.6,1.6-1.6,1.9l2.6,3.2h-1.4L8,14.3H7.5v3.1H6.3V10.4z M8.7,13.3
	c0.7,0,1.1-0.3,1.1-0.9s-0.4-0.9-1.1-0.9H7.5v1.9H8.7z"/>
<path d="M14.7,17.6c-1.5,0-2.6-1.1-2.6-2.6c0-1.5,1-2.6,2.6-2.6c1.5,0,2.6,1.2,2.5,2.9h-4c0,0.8,0.6,1.4,1.5,1.4
	c0.5,0,1-0.2,1.3-0.7h1.1C16.8,16.8,15.9,17.6,14.7,17.6z M13.2,14.4H16c-0.2-0.8-0.7-1.2-1.3-1.2C14,13.3,13.4,13.7,13.2,14.4z"/>
<path d="M20.4,12.4c0.7,0,1.3,0.4,1.6,0.8v-0.7h1.1v5H22v-0.7c-0.3,0.4-0.9,0.8-1.6,0.8c-1.4,0-2.4-1.2-2.4-2.6
	C17.9,13.5,19,12.4,20.4,12.4z M20.6,13.4c-0.9,0-1.5,0.7-1.5,1.6s0.6,1.6,1.5,1.6S22,15.9,22,15S21.4,13.4,20.6,13.4z"/>
<path d="M26.6,12.4c0.7,0,1.3,0.4,1.6,0.8V10h1.1v7.5h-1.1v-0.7c-0.3,0.4-0.9,0.8-1.6,0.8c-1.4,0-2.4-1.2-2.4-2.6
	C24.2,13.5,25.2,12.4,26.6,12.4z M26.8,13.4c-0.9,0-1.5,0.7-1.5,1.6s0.6,1.6,1.5,1.6s1.5-0.7,1.5-1.6S27.7,13.4,26.8,13.4z"/>
<path d="M33.7,11.4c-0.4,0-0.7-0.3-0.7-0.7c0-0.4,0.3-0.7,0.7-0.7c0.4,0,0.7,0.3,0.7,0.7C34.4,11,34.1,11.4,33.7,11.4z M33.1,12.5
	h1.1v5h-1.1V12.5z"/>
<path d="M35.7,12.5h1.1v0.7c0.3-0.5,0.9-0.8,1.5-0.8c1.2,0,1.9,0.8,1.9,2.1v3h-1.1v-2.8c0-0.8-0.4-1.3-1-1.3c-0.7,0-1.3,0.6-1.3,1.6
	v2.5h-1.1V12.5z"/>
<path d="M43.4,17.6c-1.2,0-2.1-0.6-2.1-1.6h1.1c0.1,0.5,0.5,0.7,1,0.7c0.5,0,0.8-0.2,0.8-0.5s-0.2-0.5-0.7-0.7l-0.8-0.2
	c-0.9-0.2-1.3-0.8-1.3-1.5c0-0.8,0.7-1.4,1.9-1.4c1.1,0,1.8,0.6,1.9,1.5h-1.1c-0.1-0.4-0.4-0.6-0.8-0.6c-0.4,0-0.7,0.2-0.7,0.5
	c0,0.3,0.2,0.5,0.7,0.6l0.8,0.2c0.9,0.2,1.3,0.8,1.3,1.5C45.4,17,44.5,17.6,43.4,17.6z"/>
<path d="M48.6,17.5c-1,0-1.7-0.5-1.7-1.7v-2.4h-1v-1h1v-1.4h1.1v1.4h1.4v1h-1.4v2.2c0,0.6,0.3,0.8,0.8,0.8c0.2,0,0.4,0,0.6-0.1v1
	C49.2,17.5,48.9,17.5,48.6,17.5z"/>
<path d="M50.4,12.5h1.1v0.9c0.2-0.6,0.7-0.9,1.3-0.9c0.1,0,0.3,0,0.4,0v1.1c-0.2-0.1-0.3-0.1-0.5-0.1c-0.6,0-1.2,0.5-1.2,1.5v2.4
	h-1.1V12.5z"/>
<path d="M54.1,12.5h1.1v2.8c0,0.8,0.4,1.3,1,1.3c0.7,0,1.2-0.6,1.2-1.6v-2.5h1.1v5h-1.1v-0.7c-0.3,0.5-0.8,0.8-1.5,0.8
	c-1.1,0-1.9-0.8-1.9-2.1V12.5z"/>
<path d="M62.3,17.6c-1.5,0-2.6-1.2-2.6-2.6c0-1.4,1.1-2.6,2.6-2.6c1.3,0,2.3,0.8,2.5,1.9h-1.2c-0.2-0.5-0.7-0.9-1.4-0.9
	c-0.9,0-1.5,0.7-1.5,1.6c0,0.9,0.6,1.6,1.5,1.6c0.7,0,1.2-0.4,1.4-0.9h1.2C64.6,16.7,63.6,17.6,62.3,17.6z"/>
<path d="M68,17.5c-1,0-1.7-0.5-1.7-1.7v-2.4h-1v-1h1v-1.4h1.1v1.4h1.4v1h-1.4v2.2c0,0.6,0.3,0.8,0.8,0.8c0.2,0,0.4,0,0.6-0.1v1
	C68.6,17.5,68.3,17.5,68,17.5z"/>
<path d="M70.4,11.4c-0.4,0-0.7-0.3-0.7-0.7c0-0.4,0.3-0.7,0.7-0.7c0.4,0,0.7,0.3,0.7,0.7C71.1,11,70.8,11.4,70.4,11.4z M69.9,12.5
	H71v5h-1.1V12.5z"/>
<path d="M74.7,17.6c-1.5,0-2.6-1.1-2.6-2.6s1.1-2.6,2.6-2.6c1.5,0,2.6,1.1,2.6,2.6S76.2,17.6,74.7,17.6z M74.7,16.5
	c0.9,0,1.5-0.7,1.5-1.6c0-0.9-0.6-1.6-1.5-1.6c-0.9,0-1.5,0.7-1.5,1.6C73.2,15.8,73.8,16.5,74.7,16.5z"/>
<path d="M78.4,12.5h1.1v0.7c0.3-0.5,0.9-0.8,1.5-0.8c1.2,0,1.9,0.8,1.9,2.1v3h-1.1v-2.8c0-0.8-0.4-1.3-1-1.3c-0.7,0-1.3,0.6-1.3,1.6
	v2.5h-1.1V12.5z"/>
</svg>
