<?xml version="1.0" encoding="utf-8"?>
<!-- Generator: Adobe Illustrator 24.0.1, SVG Export Plug-In . SVG Version: 6.00 Build 0)  -->
<svg version="1.1" id="Layer_1" xmlns="http://www.w3.org/2000/svg" xmlns:xlink="http://www.w3.org/1999/xlink" x="0px" y="0px"
	 viewBox="0 0 151.1 108.5" style="enable-background:new 0 0 151.1 108.5;" xml:space="preserve">
<style type="text/css">
	.st0{fill:#A3D3DC;}
	.st1{fill:none;stroke:#457687;stroke-miterlimit:10;}
	.st2{font-family:'EuclidCircularA-Regular';}
	.st3{font-size:10px;}
	.st4{fill:none;stroke:#457687;stroke-width:0.75;stroke-miterlimit:10;}
	.st5{font-family:'EuclidCircularA-Medium';}
</style>
<title>Untitled-2</title>
<rect x="5.5" y="54.9" class="st0" width="26.3" height="26.3"/>
<rect x="5.5" y="24.9" class="st1" width="55.5" height="55.5"/>
<g id="Guangxi-2">
	<text transform="matrix(1 0 0 1 84.0347 72.4354)" class="st2 st3">A</text>
	<text transform="matrix(1 0 0 1 91.0547 72.4354)" class="st2 st3">c</text>
	<text transform="matrix(1 0 0 1 96.9147 72.4354)" class="st2 st3">tual a</text>
	<text transform="matrix(1 0 0 1 123.8947 72.4354)" class="st2 st3">r</text>
	<text transform="matrix(1 0 0 1 127.2847 72.4354)" class="st2 st3">ea</text>
</g>
<text transform="matrix(1 0 0 1 5.4599 94.8993)" class="st2 st3">Region</text>
<line class="st4" x1="30.1" y1="38.9" x2="78.8" y2="38.9"/>
<line class="st4" x1="18.6" y1="68.9" x2="78.8" y2="68.9"/>
<text transform="matrix(1 0 0 1 80.1572 42.2697)" class="st2 st3">Standard area</text>
<text transform="matrix(1 0 0 1 101.2572 54.2697)" class="st2 st3"> (4m²)</text>
<g>
	<text transform="matrix(1 0 0 1 5.46 17.4561)" class="st5 st3">Read instruction</text>
</g>
</svg>
