<?xml version="1.0" encoding="utf-8"?>
<!-- Generator: Adobe Illustrator 24.0.1, SVG Export Plug-In . SVG Version: 6.00 Build 0)  -->
<svg version="1.1" id="Layer_1" xmlns="http://www.w3.org/2000/svg" xmlns:xlink="http://www.w3.org/1999/xlink" x="0px" y="0px"
	 viewBox="0 0 1079.9 381" style="enable-background:new 0 0 1079.9 381;" xml:space="preserve">
<style type="text/css">
	.st0{fill:#FFFFFF;}
	.st1{fill:none;stroke:#F5D032;stroke-width:4;}
	.st2{fill-rule:evenodd;clip-rule:evenodd;fill:#FFFFFF;}
	.st3{fill:none;stroke:#F5D032;stroke-width:3;}
	.st4{fill:none;stroke:#F5D032;stroke-width:2;}
	.st5{fill:#FFFFFF;stroke:#F5D032;stroke-width:3;}
	.st6{fill-rule:evenodd;clip-rule:evenodd;fill:#F5D032;}
	.st7{fill:none;stroke:#F5D032;stroke-width:2;stroke-linecap:round;}
</style>
<title>Untitled-2</title>
<path id="Oval-Copy" class="st0" d="M651,162.4C641.7,75,586.8,20,525.7,25.1c-90.2,7.6-106.3,116.1-87.6,201.1
	c18.4,83.9,79.6,117.7,134,105.4C629.7,318.7,660,247.7,651,162.4z"/>
<g>
	<polygon id="Fill-1-4" class="st0" points="735.7,271 743.6,296.9 737.7,299.3 726.6,274.1 	"/>
	<polygon id="Fill-3-4" class="st0" points="716.4,270.8 710,297 703.6,296 706.9,268.8 	"/>
	<path id="Fill-5-4" class="st0" d="M700.1,188c-5.2-4.7-10.6-6.7-14.2-4c-3.6,2.8-14.9,16.9-13.6,23c1.4,6,8.6,12.6,11.4,12.4
		c3-0.3,13.6,0.6,15.6,1.4c2.1,0.8,7.3,8.3,7.3,8.3l6.4-10.3c0,0-5.7-7.7-5.8-12.5c-0.1-3.3,0.3-6.6-1-9.4
		C704.8,193.5,702.7,190.5,700.1,188"/>
	<g id="Group-11-4">
		<g>
			<path id="Fill-9-4" class="st0" d="M681.2,223.9c2.1,0.8,5.5-3.8,5.2-5.9c-0.5-3.8-6.6-5-7.2-8.1c-0.6-3.1,1.4-4,6-9
				c4.7-5,5.5-8.5,6.8-9.5c1.3-1,7.5,5.9,11,6.4c1.9,0.3,4.6-3,4.4-4.9c-0.8-9.9-14.9-14.3-23.5-11.4c-8.4,3-18.6,15.4-18.3,23.3
				C666,212.6,675.4,221.7,681.2,223.9"/>
		</g>
	</g>
	<path id="Fill-12-4" class="st0" d="M695.5,200.8c-0.8,0.5,0,1.5,0.4,1.8c0.3,0.1,0.5,0.1,0.8,0c0.3-0.2,0.5-0.6,0.4-1
		c-0.2-0.4-0.5-0.7-0.9-0.9C695.9,200.6,695.7,200.6,695.5,200.8"/>
	<path id="Fill-14-4" class="st0" d="M689.1,208.1c-0.3,0.4-0.3,1,0.1,1.4s1.1,0.4,1.5,0c0.4-0.5,0-1.2-0.2-1.3
		C690.1,207.9,689.5,207.6,689.1,208.1"/>
	<path id="Fill-16-4" class="st0" d="M745.9,296.4c-0.7-3.2-5.6-2.8-8.4-1.4c-2.1,1-3.1,4.9-2,6c1.1,1.2,2.8,1.6,6.1,0.6
		C743.8,300.9,746.5,299.4,745.9,296.4"/>
	<path id="Fill-18-4" class="st0" d="M711.3,299.4c1.1-3.1-3.4-5.2-6.4-5.5c-2.3-0.2-5.1,2.6-4.8,4.2c0.3,1.6,1.6,2.8,4.9,3.7
		C707.2,302.4,710.3,302.4,711.3,299.4"/>
	<path id="Stroke-20-4" class="st0" d="M699.4,205.5c0.5,2.3-2.3,5.8-4.6,5.4"/>
	<path id="Fill-22-4" class="st0" d="M717.7,185l-6.1-6.3c0,0,2.7-4.4-1.8-7c-4.5-2.7-7.8-0.6-10.2,1.5c-2.4,2.3-2.4,6-0.1,8.4
		c0.1,0.2,0.3,0.3,0.5,0.4c2.6,2,6.6,0,6.6,0l6.7,9.1L717.7,185z"/>
	<path id="Fill-26-4" class="st0" d="M689.4,242.9l4,6.5c0,0,4.3-1.3,5.5,3c1.3,4.3-1.3,6.7-3.6,8.2c-2.5,1.5-5.6,0.7-7-1.8
		c-0.1-0.2-0.2-0.3-0.3-0.5c-1.1-2.6,1.5-5.5,1.5-5.5l-3.5-7.7L689.4,242.9z"/>
	<path id="Fill-30-4" class="st0" d="M712.6,205.6c0.7-5.9-6-13.5-2.9-19.8c1.8-3.5,5.1-3.9,8.7-1.8c4.5,2.6,6.2,11.2,7,21
		c0.9,11.4-0.6,18.1,0.9,21c4.1,7.7,23.9,35,15.6,42.9c-8.5,8.1-37,13.3-43.9,3.9c-6.3-8.6,7.2-38.8-1.4-39
		c-4.1-0.1-3.1,15.4-6.3,16.8c-4.7,2-6.8-2.9-6.7-5.4c0.4-7.7,3.8-19.9,12.3-22.7C704.8,219.5,711.5,215,712.6,205.6"/>
</g>
<g>
	<polygon id="Fill-1-5" class="st0" points="840.4,271 848.3,296.9 842.4,299.3 831.2,274.1 	"/>
	<polygon id="Fill-3-5" class="st0" points="821.1,270.8 814.7,297 808.2,296 811.6,268.8 	"/>
	<path id="Fill-5-5" class="st0" d="M804.7,188c-5.2-4.7-10.6-6.7-14.2-4c-3.6,2.8-14.9,16.9-13.6,23c1.4,6,8.6,12.6,11.4,12.4
		c3-0.3,13.6,0.6,15.6,1.4c2.1,0.8,7.3,8.3,7.3,8.3l6.4-10.3c0,0-5.7-7.7-5.8-12.5c-0.1-3.3,0.3-6.6-1-9.4
		C809.5,193.5,807.4,190.5,804.7,188"/>
	<g id="Group-11-5">
		<g>
			<path id="Fill-9-5" class="st0" d="M785.8,223.9c2.1,0.8,5.5-3.8,5.2-5.9c-0.5-3.8-6.6-5-7.2-8.1c-0.7-3.1,1.4-4,6-9
				c4.7-5,5.5-8.5,6.8-9.5c1.3-1,7.5,5.9,11,6.4c1.9,0.3,4.6-3,4.4-4.9c-0.8-9.9-14.9-14.3-23.5-11.4c-8.4,3-18.6,15.4-18.3,23.3
				C770.7,212.6,780.1,221.7,785.8,223.9"/>
		</g>
	</g>
	<path id="Fill-12-5" class="st0" d="M800.1,200.8c-0.8,0.5,0,1.5,0.4,1.8c0.3,0.1,0.5,0.1,0.8,0c0.3-0.2,0.5-0.6,0.4-1
		c-0.2-0.4-0.5-0.7-0.9-0.9C800.6,200.6,800.3,200.6,800.1,200.8"/>
	<path id="Fill-14-5" class="st0" d="M793.7,208.1c-0.3,0.4-0.3,1,0.1,1.4c0.4,0.4,1.1,0.4,1.5,0c0.4-0.5,0-1.2-0.2-1.3
		C794.7,207.9,794.2,207.6,793.7,208.1"/>
	<path id="Fill-16-5" class="st0" d="M850.6,296.4c-0.7-3.2-5.6-2.8-8.4-1.4c-2.1,1-3.1,4.9-2,6c1.1,1.2,2.8,1.6,6.1,0.6
		C848.5,300.9,851.2,299.4,850.6,296.4"/>
	<path id="Fill-18-5" class="st0" d="M816,299.4c1.1-3.1-3.4-5.2-6.4-5.5c-2.3-0.2-5.1,2.6-4.8,4.2c0.3,1.6,1.6,2.8,4.9,3.7
		C811.8,302.4,815,302.4,816,299.4"/>
	<path id="Stroke-20-5" class="st0" d="M804.1,205.5c0.5,2.3-2.3,5.8-4.6,5.4"/>
	<path id="Fill-22-5" class="st0" d="M822.4,185l-6.1-6.3c0,0,2.7-4.4-1.8-7c-4.5-2.7-7.8-0.6-10.2,1.5c-2.4,2.3-2.4,6-0.1,8.4
		c0.1,0.2,0.3,0.3,0.5,0.4c2.6,2,6.6,0,6.6,0l6.7,9.1L822.4,185z"/>
	<path id="Fill-26-5" class="st0" d="M794.1,242.9l4,6.5c0,0,4.3-1.3,5.5,3c1.3,4.3-1.3,6.7-3.6,8.2c-2.5,1.5-5.6,0.7-7-1.8
		c-0.1-0.2-0.2-0.3-0.3-0.5c-1.1-2.6,1.5-5.5,1.5-5.5l-3.5-7.7L794.1,242.9z"/>
	<path id="Fill-30-5" class="st0" d="M817.2,205.6c0.7-5.9-6-13.5-2.9-19.8c1.8-3.5,5.1-3.9,8.7-1.8c4.5,2.6,6.2,11.2,7,21
		c0.9,11.4-0.6,18.1,0.9,21c4.1,7.7,23.9,35,15.6,42.9c-8.5,8.1-37,13.3-43.9,3.9c-6.3-8.6,7.2-38.8-1.4-39
		c-4.1-0.1-3.1,15.4-6.3,16.8c-4.7,2-6.8-2.9-6.7-5.4c0.4-7.7,3.8-19.9,12.3-22.7C809.5,219.5,816.2,215,817.2,205.6"/>
</g>
<g>
	<polygon id="Fill-1-6" class="st0" points="945.1,271 953,296.9 947.1,299.3 935.9,274.1 	"/>
	<polygon id="Fill-3-6" class="st0" points="925.8,270.8 919.3,297 912.9,296 916.3,268.8 	"/>
	<path id="Fill-5-6" class="st0" d="M909.4,188c-5.2-4.7-10.6-6.7-14.2-4c-3.6,2.8-14.9,16.9-13.6,23c1.4,6,8.6,12.6,11.4,12.4
		c3-0.3,13.6,0.6,15.6,1.4c2.1,0.8,7.3,8.3,7.3,8.3l6.4-10.3c0,0-5.7-7.7-5.8-12.5c-0.1-3.3,0.3-6.6-1-9.4
		C914.1,193.5,912.1,190.5,909.4,188"/>
	<g id="Group-11-6">
		<g>
			<path id="Fill-9-6" class="st0" d="M890.5,223.9c2.1,0.8,5.5-3.8,5.2-5.9c-0.5-3.8-6.6-5-7.2-8.1c-0.7-3.1,1.4-4,6-9
				c4.7-5,5.5-8.5,6.8-9.5s7.5,5.9,11,6.4c1.9,0.3,4.6-3,4.4-4.9c-0.8-9.9-14.9-14.3-23.5-11.4c-8.4,3-18.6,15.4-18.3,23.3
				C875.4,212.6,884.7,221.7,890.5,223.9"/>
		</g>
	</g>
	<path id="Fill-12-6" class="st0" d="M904.8,200.8c-0.8,0.5,0,1.5,0.4,1.8c0.3,0.1,0.5,0.1,0.8,0c0.3-0.2,0.5-0.6,0.4-1
		c-0.2-0.4-0.5-0.7-0.9-0.9C905.2,200.6,905,200.6,904.8,200.8"/>
	<path id="Fill-14-6" class="st0" d="M898.4,208.1c-0.3,0.4-0.3,1,0.1,1.4c0.4,0.4,1.1,0.4,1.5,0c0.4-0.5,0-1.2-0.2-1.3
		C899.4,207.9,898.9,207.6,898.4,208.1"/>
	<path id="Fill-16-6" class="st0" d="M955.3,296.4c-0.7-3.2-5.6-2.8-8.4-1.4c-2.1,1-3.1,4.9-2,6c1.1,1.2,2.8,1.6,6.1,0.6
		C953.2,300.9,955.9,299.4,955.3,296.4"/>
	<path id="Fill-18-6" class="st0" d="M920.7,299.4c1.1-3.1-3.4-5.2-6.4-5.5c-2.3-0.2-5.1,2.6-4.8,4.2c0.3,1.6,1.6,2.8,4.9,3.7
		C916.5,302.4,919.6,302.4,920.7,299.4"/>
	<path id="Stroke-20-6" class="st0" d="M908.8,205.5c0.5,2.3-2.3,5.8-4.6,5.4"/>
	<path id="Fill-22-6" class="st0" d="M927.1,185l-6.1-6.3c0,0,2.7-4.4-1.8-7c-4.5-2.7-7.8-0.6-10.2,1.5c-2.4,2.3-2.4,6-0.1,8.4
		c0.1,0.2,0.3,0.3,0.5,0.4c2.6,2,6.6,0,6.6,0l6.8,9.1L927.1,185z"/>
	<path id="Fill-26-6" class="st0" d="M898.8,242.9l4,6.5c0,0,4.3-1.3,5.5,3s-1.3,6.7-3.6,8.2c-2.5,1.5-5.6,0.7-7-1.8
		c-0.1-0.2-0.2-0.3-0.3-0.5c-1.1-2.6,1.5-5.5,1.5-5.5l-3.5-7.7L898.8,242.9z"/>
	<path id="Fill-30-6" class="st0" d="M921.9,205.6c0.7-5.9-6-13.5-2.9-19.8c1.8-3.5,5.1-3.9,8.7-1.8c4.5,2.6,6.2,11.2,7,21
		c0.9,11.4-0.6,18.1,0.9,21c4.1,7.7,23.9,35,15.6,42.9c-8.5,8.1-37,13.3-43.9,3.9c-6.3-8.6,7.2-38.8-1.4-39
		c-4.1-0.1-3.1,15.4-6.3,16.8c-4.7,2-6.8-2.9-6.7-5.4c0.4-7.7,3.8-19.9,12.3-22.7C914.1,219.5,920.8,215,921.9,205.6"/>
</g>
<g id="Group-41">
	<path id="Stroke-39" class="st1" d="M491.3,239.8c0,0-55.3-168.8,32.4-180.3s84,173.4,84,173.4"/>
	<path id="Fill-1-7" class="st2" d="M509.7,222.4l-5.8,8.8c0,0,4,4.6-0.5,8.7s-9,2.3-12.1,0.4c-3.3-2.3-4-6.8-1.7-10.1
		c0.1-0.2,0.2-0.3,0.3-0.4c2.5-2.9,7.7-1.4,7.7-1.4l6-12.2L509.7,222.4z"/>
	<path id="Stroke-3" class="st3" d="M509.7,222.4l-5.8,8.8c0,0,4,4.6-0.5,8.7s-9,2.3-12.1,0.4c-3.3-2.3-4-6.8-1.7-10.1
		c0.1-0.2,0.2-0.3,0.3-0.4c2.5-2.9,7.7-1.4,7.7-1.4l6-12.2L509.7,222.4z"/>
	<polygon id="Fill-5-7" class="st2" points="530.5,270.2 533.1,301.1 540.3,301.2 541.3,269.5 	"/>
	<polygon id="Stroke-7" class="st4" points="530.5,270.2 533.1,301.1 540.3,301.2 541.3,269.5 	"/>
	<polygon id="Fill-9-7" class="st2" points="559.1,259.9 561.7,290.8 568.9,290.9 569.8,259.1 	"/>
	<polygon id="Stroke-11" class="st4" points="559.1,259.9 561.7,290.8 568.9,290.9 569.8,259.1 	"/>
	<path id="Stroke-15" class="st5" d="M590,224.5l4.4,8.2c0,0-3.9,3.7-0.2,7.7s7.8,2.8,10.7,1.3c3.1-1.7,4.2-5.5,2.5-8.6
		c-0.1-0.2-0.2-0.4-0.3-0.5c-2-2.8-6.7-1.9-6.7-1.9l-4.3-11.2L590,224.5z"/>
	<path id="Fill-17" class="st2" d="M521.9,164.6c-0.6-8.2,1.3-14.5,6.3-15.9s32-3.1,36.6,2.4s-4.1,27.5-6.2,29.8
		c-2.3,2.5-4.5,8.7-5.2,11.2s1.1,7.8,1.1,7.8l-13.8-1.5c0,0-3-10.8-7.2-14.3c-2.9-2.4-6.2-4.4-7.8-7.6
		C523.6,172.8,522.3,168.8,521.9,164.6"/>
	<path id="Stroke-19" class="st3" d="M521.9,164.6c-0.6-8.2,1.3-14.5,6.3-15.9s32-3.1,36.6,2.4s-4.1,27.5-6.2,29.8
		c-2.3,2.5-4.5,8.7-5.2,11.2s1.1,7.8,1.1,7.8l-13.8-1.5c0,0-3-10.8-7.2-14.3c-2.9-2.4-6.2-4.4-7.8-7.6
		C523.6,172.8,522.4,168.8,521.9,164.6z"/>
	<path id="Fill-21" class="st6" d="M573.8,175.3c-0.9,3-9,3-11.1,0.8c-3.7-3.8,0.1-11.7-2.8-15.1s-5.5-1.9-15.2-1
		s-14.3-1.2-16.5-0.6s0.1,13.4-2.3,17.8c-1.3,2.4-7.2,2.4-9.2,0.6c-10.3-9.5-3-29,7.6-35.9s33.2-7.4,41.7-0.2
		S576.4,167.1,573.8,175.3"/>
	<path id="Fill-23" class="st6" d="M542.7,190.2c-6.1,0.7-4.9,0.4-12.9,1.5c-7.2,1-28.7,14.1-32,22.1c-1.5,3.7-1.6,9.4,5.8,14.1
		c7.4,4.7,20.4-14.1,20.4-14.1s-11.4,46.4-1.3,56.1c10.2,9.9,48.2,7.8,56.6-3.7C586.9,255.8,567,216,567,216s17.9,14,21.8,12.5
		c6.1-2.5,7.8-6.8,7.7-10c-0.4-9.4-15.8-21.2-27-26S549.3,189.4,542.7,190.2"/>
	<path id="Fill-25" class="st6" d="M536.4,167.1c2.2-0.6,2.8,1.9,2.8,2.7c0,0.4-0.6,1.1-1.3,1.3c-0.9,0.4-2.2,0-2.5-0.4
		c-0.6-0.8-0.6-1.7-0.3-2.5C535.4,167.7,535.7,167.3,536.4,167.1"/>
	<path id="Fill-27" class="st6" d="M551.2,166.9c1.3,0,2.1,0.8,2.5,1.9c0,1.3-0.8,2.1-1.9,2.3h-0.2c-1.5,0-2.1-1.5-2.1-1.9
		C549.6,168.2,549.8,167.1,551.2,166.9"/>
	<path id="Fill-29" class="st2" d="M558.1,168.7c0.2-1.8,1-4.5,4.2-5.1s5.4,0.4,5.8,3.6c0.3,2.4-2.6,7.7-5.5,7.7s-3.9-3.1-3.9-3.1
		C558.4,170.9,558.2,169.8,558.1,168.7"/>
	<path id="Fill-31" class="st2" d="M529.7,167.2c-1.3-1.8-3-3.9-7.5-2.6s-5.3,2.8-5,6.7c0.2,2.9,5.5,6.6,9.9,5.6
		c4-0.9,3.4-5.7,3.4-5.7S530.3,168.1,529.7,167.2"/>
	<path id="Fill-33" class="st6" d="M529.9,303.5c-0.7-3.6,4.8-5.3,8.4-5c2.7,0.2,5.5,3.8,4.8,5.5s-2.3,2.9-6.3,3.2
		C534.2,307.5,530.6,307,529.9,303.5"/>
	<path id="Fill-35" class="st6" d="M559.8,293.2c-0.7-3.6,4.8-5.3,8.4-5c2.7,0.2,5.5,3.8,4.8,5.5s-2.3,2.9-6.3,3.2
		C564.1,297.1,560.5,296.7,559.8,293.2"/>
	<path id="Stroke-37" class="st7" d="M539.3,174.7c1.6,0.5,7.7,0.9,9.4,0.4"/>
</g>
<g>
	<polygon id="Fill-1-6_1_" class="st0" points="1049.7,271 1057.7,296.9 1051.8,299.3 1040.6,274.1 	"/>
	<polygon id="Fill-3-6_1_" class="st0" points="1030.5,270.8 1024,297 1017.6,296 1020.9,268.8 	"/>
	<path id="Fill-5-6_1_" class="st0" d="M1014.1,188c-5.2-4.7-10.6-6.7-14.2-4c-3.6,2.8-14.9,16.9-13.6,23s8.6,12.6,11.4,12.4
		c3-0.3,13.6,0.6,15.6,1.4c2.1,0.8,7.3,8.3,7.3,8.3l6.4-10.3c0,0-5.7-7.7-5.8-12.5c-0.1-3.3,0.3-6.6-1-9.4
		C1018.8,193.5,1016.8,190.5,1014.1,188"/>
	<g id="Group-11-6_1_">
		<g>
			<path id="Fill-9-6_1_" class="st0" d="M995.2,223.9c2.1,0.8,5.5-3.8,5.2-5.9c-0.5-3.8-6.6-5-7.2-8.1c-0.7-3.1,1.4-4,6-9
				c4.7-5,5.5-8.5,6.8-9.5c1.3-1,7.5,5.9,11,6.4c1.9,0.3,4.6-3,4.4-4.9c-0.8-9.9-14.9-14.3-23.5-11.4c-8.4,3-18.6,15.4-18.3,23.3
				C980,212.6,989.4,221.7,995.2,223.9"/>
		</g>
	</g>
	<path id="Fill-12-6_1_" class="st0" d="M1009.4,200.8c-0.8,0.5,0,1.5,0.4,1.8c0.3,0.1,0.5,0.1,0.8,0c0.3-0.2,0.5-0.6,0.4-1
		c-0.2-0.4-0.5-0.7-0.9-0.9C1009.9,200.6,1009.7,200.6,1009.4,200.8"/>
	<path id="Fill-14-6_1_" class="st0" d="M1003.1,208.1c-0.3,0.4-0.3,1,0.1,1.4s1.1,0.4,1.5,0c0.4-0.5,0-1.2-0.2-1.3
		C1004.1,207.9,1003.6,207.6,1003.1,208.1"/>
	<path id="Fill-16-6_1_" class="st0" d="M1059.9,296.4c-0.7-3.2-5.6-2.8-8.4-1.4c-2.1,1-3.1,4.9-2,6s2.8,1.6,6.1,0.6
		C1057.8,300.9,1060.6,299.4,1059.9,296.4"/>
	<path id="Fill-18-6_1_" class="st0" d="M1025.4,299.4c1.1-3.1-3.4-5.2-6.4-5.5c-2.3-0.2-5.1,2.6-4.8,4.2c0.3,1.6,1.6,2.8,4.9,3.7
		C1021.2,302.4,1024.3,302.4,1025.4,299.4"/>
	<path id="Stroke-20-6_1_" class="st0" d="M1013.4,205.5c0.5,2.3-2.3,5.8-4.6,5.4"/>
	<path id="Fill-22-6_1_" class="st0" d="M1031.8,185l-6.1-6.3c0,0,2.7-4.4-1.8-7c-4.5-2.7-7.8-0.6-10.2,1.5c-2.4,2.3-2.4,6-0.1,8.4
		c0.1,0.2,0.3,0.3,0.5,0.4c2.6,2,6.6,0,6.6,0l6.8,9.1L1031.8,185z"/>
	<path id="Fill-26-6_1_" class="st0" d="M1003.5,242.9l4,6.5c0,0,4.3-1.3,5.5,3c1.3,4.3-1.3,6.7-3.6,8.2c-2.5,1.5-5.6,0.7-7-1.8
		c-0.1-0.2-0.2-0.3-0.3-0.5c-1.1-2.6,1.5-5.5,1.5-5.5l-3.5-7.7L1003.5,242.9z"/>
	<path id="Fill-30-6_1_" class="st0" d="M1026.6,205.6c0.7-5.9-6-13.5-2.9-19.8c1.8-3.5,5.1-3.9,8.7-1.8c4.5,2.6,6.2,11.2,7,21
		c0.9,11.4-0.6,18.1,0.9,21c4.1,7.7,23.9,35,15.6,42.9c-8.5,8.1-37,13.3-43.9,3.9c-6.3-8.6,7.2-38.8-1.4-39
		c-4.1-0.1-3.1,15.4-6.3,16.8c-4.7,2-6.8-2.9-6.7-5.4c0.4-7.7,3.8-19.9,12.3-22.7C1018.8,219.5,1025.5,215,1026.6,205.6"/>
</g>
<g>
	<polygon id="Fill-1-4_1_" class="st0" points="91.4,271 99.3,296.9 93.4,299.3 82.2,274.1 	"/>
	<polygon id="Fill-3-4_1_" class="st0" points="72.1,270.8 65.7,297 59.2,296 62.6,268.8 	"/>
	<path id="Fill-5-4_1_" class="st0" d="M55.7,188c-5.2-4.7-10.6-6.7-14.2-4C38,186.8,26.6,201,28,207c1.4,6,8.6,12.6,11.4,12.4
		c3-0.3,13.6,0.6,15.6,1.4c2.1,0.8,7.3,8.3,7.3,8.3l6.4-10.3c0,0-5.7-7.7-5.8-12.5c-0.1-3.3,0.3-6.6-1-9.4
		C60.5,193.5,58.4,190.5,55.7,188"/>
	<g id="Group-11-4_1_">
		<g>
			<path id="Fill-9-4_1_" class="st0" d="M36.8,223.9c2.1,0.8,5.5-3.8,5.2-5.9c-0.5-3.8-6.6-5-7.2-8.1c-0.7-3.1,1.4-4,6-9
				c4.7-5,5.5-8.5,6.8-9.5c1.3-1,7.5,5.9,11,6.4c1.9,0.3,4.6-3,4.4-4.9c-0.8-9.9-14.9-14.3-23.5-11.4c-8.4,3-18.6,15.4-18.3,23.3
				C21.7,212.6,31.1,221.7,36.8,223.9"/>
		</g>
	</g>
	<path id="Fill-12-4_1_" class="st0" d="M51.2,200.8c-0.8,0.5,0,1.5,0.4,1.8c0.3,0.1,0.5,0.1,0.8,0c0.3-0.2,0.5-0.6,0.4-1
		c-0.2-0.4-0.5-0.7-0.9-0.9C51.6,200.6,51.4,200.6,51.2,200.8"/>
	<path id="Fill-14-4_1_" class="st0" d="M44.7,208.1c-0.3,0.4-0.3,1,0.1,1.4c0.4,0.4,1.1,0.4,1.5,0c0.4-0.5,0-1.2-0.2-1.3
		C45.7,207.9,45.2,207.6,44.7,208.1"/>
	<path id="Fill-16-4_1_" class="st0" d="M101.6,296.4c-0.7-3.2-5.6-2.8-8.4-1.4c-2.1,1-3.1,4.9-2,6s2.8,1.6,6.1,0.6
		C99.5,300.9,102.2,299.4,101.6,296.4"/>
	<path id="Fill-18-4_1_" class="st0" d="M67,299.4c1.1-3.1-3.4-5.2-6.4-5.5c-2.3-0.2-5.1,2.6-4.8,4.2c0.3,1.6,1.6,2.8,4.9,3.7
		C62.8,302.4,66,302.4,67,299.4"/>
	<path id="Stroke-20-4_1_" class="st0" d="M55.1,205.5c0.5,2.3-2.3,5.8-4.6,5.4"/>
	<path id="Fill-22-4_1_" class="st0" d="M73.4,185l-6.1-6.3c0,0,2.7-4.4-1.8-7c-4.5-2.7-7.8-0.6-10.2,1.5c-2.4,2.3-2.4,6-0.1,8.4
		c0.1,0.2,0.3,0.3,0.5,0.4c2.6,2,6.6,0,6.6,0l6.7,9.1L73.4,185z"/>
	<path id="Fill-26-4_1_" class="st0" d="M45.1,242.9l4,6.5c0,0,4.3-1.3,5.5,3c1.3,4.3-1.3,6.7-3.6,8.2c-2.5,1.5-5.6,0.7-7-1.8
		c-0.1-0.2-0.2-0.3-0.3-0.5c-1.1-2.6,1.5-5.5,1.5-5.5l-3.5-7.7L45.1,242.9z"/>
	<path id="Fill-30-4_1_" class="st0" d="M68.2,205.6c0.7-5.9-6-13.5-2.9-19.8c1.8-3.5,5.1-3.9,8.7-1.8c4.5,2.6,6.2,11.2,7,21
		c0.9,11.4-0.6,18.1,0.9,21c4.1,7.7,23.9,35,15.6,42.9c-8.5,8.1-37,13.3-43.9,3.9c-6.3-8.6,7.2-38.8-1.4-39
		c-4.1-0.1-3.1,15.4-6.3,16.8c-4.7,2-6.8-2.9-6.7-5.4c0.4-7.7,3.8-19.9,12.3-22.7C60.5,219.5,67.1,215,68.2,205.6"/>
</g>
<g>
	<polygon id="Fill-1-5_1_" class="st0" points="196.1,271 204,296.9 198.1,299.3 186.9,274.1 	"/>
	<polygon id="Fill-3-5_1_" class="st0" points="176.8,270.8 170.3,297 163.9,296 167.2,268.8 	"/>
	<path id="Fill-5-5_1_" class="st0" d="M160.4,188c-5.2-4.7-10.6-6.7-14.2-4c-3.6,2.8-14.9,16.9-13.6,23c1.4,6,8.6,12.6,11.4,12.4
		c3-0.3,13.6,0.6,15.6,1.4c2.1,0.8,7.3,8.3,7.3,8.3l6.4-10.3c0,0-5.7-7.7-5.8-12.5c-0.1-3.3,0.3-6.6-1-9.4
		C165.1,193.5,163.1,190.5,160.4,188"/>
	<g id="Group-11-5_1_">
		<g>
			<path id="Fill-9-5_1_" class="st0" d="M141.5,223.9c2.1,0.8,5.5-3.8,5.2-5.9c-0.5-3.8-6.6-5-7.2-8.1c-0.7-3.1,1.4-4,6-9
				c4.7-5,5.5-8.5,6.8-9.5c1.3-1,7.5,5.9,11,6.4c1.9,0.3,4.6-3,4.4-4.9c-0.8-9.9-14.9-14.3-23.5-11.4c-8.4,3-18.6,15.4-18.3,23.3
				C126.3,212.5,135.7,221.7,141.5,223.9"/>
		</g>
	</g>
	<path id="Fill-12-5_1_" class="st0" d="M155.8,200.8c-0.8,0.5,0,1.5,0.4,1.8c0.3,0.1,0.5,0.1,0.8,0c0.3-0.2,0.5-0.6,0.4-1
		c-0.2-0.4-0.5-0.7-0.9-0.9C156.2,200.6,156,200.6,155.8,200.8"/>
	<path id="Fill-14-5_1_" class="st0" d="M149.4,208.1c-0.3,0.4-0.3,1,0.1,1.4s1.1,0.4,1.5,0c0.4-0.5,0-1.2-0.2-1.3
		C150.4,207.9,149.9,207.6,149.4,208.1"/>
	<path id="Fill-16-5_1_" class="st0" d="M206.3,296.4c-0.7-3.2-5.6-2.8-8.4-1.4c-2.1,1-3.1,4.9-2,6c1.1,1.1,2.8,1.6,6.1,0.6
		C204.2,300.9,206.9,299.4,206.3,296.4"/>
	<path id="Fill-18-5_1_" class="st0" d="M171.7,299.4c1.1-3.1-3.4-5.2-6.4-5.5c-2.3-0.2-5.1,2.6-4.8,4.2c0.3,1.6,1.6,2.8,4.9,3.7
		C167.5,302.4,170.6,302.4,171.7,299.4"/>
	<path id="Stroke-20-5_1_" class="st0" d="M159.8,205.5c0.5,2.3-2.3,5.8-4.6,5.4"/>
	<path id="Fill-22-5_1_" class="st0" d="M178.1,185l-6.1-6.3c0,0,2.7-4.4-1.8-7c-4.5-2.7-7.8-0.6-10.2,1.5c-2.4,2.3-2.4,6-0.1,8.4
		c0.1,0.2,0.3,0.3,0.5,0.4c2.6,2,6.6,0,6.6,0l6.7,9.1L178.1,185z"/>
	<path id="Fill-26-5_1_" class="st0" d="M149.8,242.9l4,6.5c0,0,4.3-1.3,5.5,3c1.3,4.3-1.3,6.7-3.6,8.2c-2.5,1.5-5.6,0.7-7-1.8
		c-0.1-0.2-0.2-0.3-0.3-0.5c-1.1-2.6,1.5-5.5,1.5-5.5l-3.5-7.7L149.8,242.9z"/>
	<path id="Fill-30-5_1_" class="st0" d="M172.9,205.6c0.7-5.9-6-13.5-2.9-19.8c1.8-3.5,5.1-3.9,8.7-1.8c4.5,2.6,6.2,11.2,7,21
		c0.9,11.4-0.6,18.1,0.9,21c4.1,7.7,23.9,35,15.6,42.9c-8.5,8.1-37,13.3-43.9,3.9c-6.3-8.6,7.2-38.8-1.4-39
		c-4.1-0.1-3.1,15.4-6.3,16.8c-4.7,2-6.8-2.9-6.7-5.4c0.4-7.7,3.8-19.9,12.3-22.7C165.1,219.5,171.8,215,172.9,205.6"/>
</g>
<g>
	<polygon id="Fill-1-6_3_" class="st0" points="300.7,271 308.7,296.9 302.7,299.3 291.6,274.1 	"/>
	<polygon id="Fill-3-6_3_" class="st0" points="281.5,270.8 275,297 268.6,296 271.9,268.8 	"/>
	<path id="Fill-5-6_3_" class="st0" d="M265.1,188c-5.2-4.7-10.6-6.7-14.2-4c-3.6,2.8-14.9,16.9-13.6,23c1.4,6,8.6,12.6,11.4,12.4
		c3-0.3,13.6,0.6,15.6,1.4c2.1,0.8,7.3,8.3,7.3,8.3l6.4-10.3c0,0-5.7-7.7-5.8-12.5c-0.1-3.3,0.3-6.6-1-9.4
		C269.8,193.5,267.8,190.5,265.1,188"/>
	<g id="Group-11-6_3_">
		<g>
			<path id="Fill-9-6_3_" class="st0" d="M246.2,223.9c2.1,0.8,5.5-3.8,5.2-5.9c-0.5-3.8-6.6-5-7.2-8.1c-0.7-3.1,1.4-4,6-9
				c4.7-5,5.5-8.5,6.8-9.5c1.3-1,7.5,5.9,11,6.4c1.9,0.3,4.6-3,4.4-4.9c-0.8-9.9-14.9-14.3-23.5-11.4c-8.4,3-18.6,15.4-18.3,23.3
				C231,212.6,240.4,221.7,246.2,223.9"/>
		</g>
	</g>
	<path id="Fill-12-6_3_" class="st0" d="M260.4,200.8c-0.8,0.5,0,1.5,0.4,1.8c0.3,0.1,0.5,0.1,0.8,0c0.3-0.2,0.5-0.6,0.4-1
		c-0.2-0.4-0.5-0.7-0.9-0.9C260.9,200.6,260.7,200.6,260.4,200.8"/>
	<path id="Fill-14-6_3_" class="st0" d="M254.1,208.1c-0.3,0.4-0.3,1,0.1,1.4c0.4,0.4,1.1,0.4,1.5,0c0.4-0.5,0-1.2-0.2-1.3
		C255.1,207.9,254.6,207.6,254.1,208.1"/>
	<path id="Fill-16-6_3_" class="st0" d="M310.9,296.4c-0.7-3.2-5.6-2.8-8.4-1.4c-2.1,1-3.1,4.9-2,6c1.1,1.2,2.8,1.6,6.1,0.6
		C308.8,300.9,311.6,299.4,310.9,296.4"/>
	<path id="Fill-18-6_3_" class="st0" d="M276.4,299.4c1.1-3.1-3.4-5.2-6.4-5.5c-2.3-0.2-5.1,2.6-4.8,4.2c0.3,1.6,1.6,2.8,4.9,3.7
		C272.2,302.4,275.3,302.4,276.4,299.4"/>
	<path id="Stroke-20-6_3_" class="st0" d="M264.4,205.5c0.5,2.3-2.3,5.8-4.6,5.4"/>
	<path id="Fill-22-6_3_" class="st0" d="M282.8,185l-6.1-6.3c0,0,2.7-4.4-1.8-7c-4.5-2.7-7.8-0.6-10.2,1.5c-2.4,2.3-2.4,6-0.1,8.4
		c0.1,0.2,0.3,0.3,0.5,0.4c2.6,2,6.6,0,6.6,0l6.8,9.1L282.8,185z"/>
	<path id="Fill-26-6_3_" class="st0" d="M254.4,242.9l4,6.5c0,0,4.3-1.3,5.5,3c1.3,4.3-1.3,6.7-3.6,8.2c-2.5,1.5-5.6,0.7-7-1.8
		c-0.1-0.2-0.2-0.3-0.3-0.5c-1.1-2.6,1.5-5.5,1.5-5.5l-3.5-7.7L254.4,242.9z"/>
	<path id="Fill-30-6_3_" class="st0" d="M277.6,205.6c0.7-5.9-6-13.5-2.9-19.8c1.8-3.5,5.1-3.9,8.7-1.8c4.5,2.6,6.2,11.2,7,21
		c0.9,11.4-0.6,18.1,0.9,21c4.1,7.7,23.9,35,15.6,42.9c-8.5,8.1-37,13.3-43.9,3.9c-6.3-8.6,7.2-38.8-1.4-39
		c-4.1-0.1-3.1,15.4-6.3,16.8c-4.7,2-6.8-2.9-6.7-5.4c0.4-7.7,3.8-19.9,12.3-22.7C269.8,219.5,276.5,215,277.6,205.6"/>
</g>
<g>
	<polygon id="Fill-1-6_2_" class="st0" points="405.4,271 413.3,296.9 407.4,299.3 396.3,274.1 	"/>
	<polygon id="Fill-3-6_2_" class="st0" points="386.1,270.8 379.7,297 373.2,296 376.6,268.8 	"/>
	<path id="Fill-5-6_2_" class="st0" d="M369.8,188c-5.2-4.7-10.6-6.7-14.2-4c-3.6,2.8-14.9,16.9-13.6,23s8.6,12.6,11.4,12.4
		c3-0.3,13.6,0.6,15.6,1.4c2.1,0.8,7.3,8.3,7.3,8.3l6.4-10.3c0,0-5.7-7.7-5.8-12.5c-0.1-3.3,0.3-6.6-1-9.4
		C374.4,193.5,372.4,190.5,369.8,188"/>
	<g id="Group-11-6_2_">
		<g>
			<path id="Fill-9-6_2_" class="st0" d="M350.8,223.9c2.1,0.8,5.5-3.8,5.2-5.9c-0.5-3.8-6.6-5-7.2-8.1s1.4-4,6-9
				c4.7-5,5.5-8.5,6.8-9.5c1.3-1,7.5,5.9,11,6.4c1.9,0.3,4.6-3,4.4-4.9c-0.8-9.9-14.9-14.3-23.5-11.4c-8.4,3-18.6,15.4-18.3,23.3
				C335.6,212.5,345.1,221.7,350.8,223.9"/>
		</g>
	</g>
	<path id="Fill-12-6_2_" class="st0" d="M365.1,200.8c-0.8,0.5,0,1.5,0.4,1.8c0.3,0.1,0.5,0.1,0.8,0c0.3-0.2,0.5-0.6,0.4-1
		c-0.2-0.4-0.5-0.7-0.9-0.9C365.6,200.6,365.3,200.6,365.1,200.8"/>
	<path id="Fill-14-6_2_" class="st0" d="M358.7,208.1c-0.3,0.4-0.3,1,0.1,1.4c0.4,0.4,1.1,0.4,1.5,0c0.4-0.5,0-1.2-0.2-1.3
		C359.8,207.9,359.2,207.6,358.7,208.1"/>
	<path id="Fill-16-6_2_" class="st0" d="M415.6,296.4c-0.7-3.2-5.6-2.8-8.4-1.4c-2.1,1-3.1,4.9-2,6c1.1,1.2,2.8,1.6,6.1,0.6
		C413.5,300.9,416.2,299.4,415.6,296.4"/>
	<path id="Fill-18-6_2_" class="st0" d="M381,299.4c1.1-3.1-3.4-5.2-6.4-5.5c-2.3-0.2-5.1,2.6-4.8,4.2c0.3,1.6,1.6,2.8,4.9,3.7
		C376.9,302.4,380,302.4,381,299.4"/>
	<path id="Stroke-20-6_2_" class="st0" d="M369.1,205.5c0.5,2.3-2.3,5.8-4.6,5.4"/>
	<path id="Fill-22-6_2_" class="st0" d="M387.4,185l-6.1-6.3c0,0,2.7-4.4-1.8-7c-4.5-2.7-7.8-0.6-10.2,1.5c-2.4,2.3-2.4,6-0.1,8.4
		c0.1,0.2,0.3,0.3,0.5,0.4c2.6,2,6.6,0,6.6,0l6.8,9.1L387.4,185z"/>
	<path id="Fill-26-6_2_" class="st0" d="M359.1,242.9l4,6.5c0,0,4.3-1.3,5.5,3c1.3,4.3-1.3,6.7-3.6,8.2c-2.5,1.5-5.6,0.7-7-1.8
		c-0.1-0.2-0.2-0.3-0.3-0.5c-1.1-2.6,1.5-5.5,1.5-5.5l-3.5-7.7L359.1,242.9z"/>
	<path id="Fill-30-6_2_" class="st0" d="M382.3,205.6c0.7-5.9-6-13.5-2.9-19.8c1.8-3.5,5.1-3.9,8.7-1.8c4.5,2.6,6.2,11.2,7,21
		c0.9,11.4-0.6,18.1,0.9,21c4.1,7.7,23.9,35,15.6,42.9c-8.5,8.1-37,13.3-43.9,3.9c-6.3-8.6,7.2-38.8-1.4-39
		c-4.1-0.1-3.1,15.4-6.3,16.8c-4.7,2-6.8-2.9-6.7-5.4c0.4-7.7,3.8-19.9,12.3-22.7C374.4,219.5,381.2,215,382.3,205.6"/>
</g>
</svg>
