<?xml version="1.0" encoding="utf-8"?>
<!-- Generator: Adobe Illustrator 24.0.1, SVG Export Plug-In . SVG Version: 6.00 Build 0)  -->
<svg version="1.1" id="Layer_1" xmlns="http://www.w3.org/2000/svg" xmlns:xlink="http://www.w3.org/1999/xlink" x="0px" y="0px"
	 viewBox="0 0 706 651.5" style="enable-background:new 0 0 706 651.5;" xml:space="preserve">
<style type="text/css">
	.st0{fill:#457687;}
	.st1{fill:none;stroke:#528C9C;stroke-width:2;stroke-linecap:round;stroke-linejoin:round;}
	.st2{fill:none;stroke:#528C9C;stroke-width:2;stroke-miterlimit:10;}
	.st3{clip-path:url(#SVGID_2_);}
	.st4{clip-path:url(#SVGID_4_);}
	.st5{fill:#F5D032;}
	.st6{fill-rule:evenodd;clip-rule:evenodd;fill:#A3D3DC;}
	.st7{fill-rule:evenodd;clip-rule:evenodd;fill:#457687;}
	.st8{clip-path:url(#SVGID_6_);}
	.st9{clip-path:url(#SVGID_8_);}
	.st10{clip-path:url(#SVGID_10_);}
	.st11{clip-path:url(#SVGID_12_);}
	.st12{clip-path:url(#SVGID_14_);}
	.st13{clip-path:url(#SVGID_16_);}
	.st14{fill:#A3D3DC;}
	.st15{fill-rule:evenodd;clip-rule:evenodd;fill:#F2F2F2;}
</style>
<title>Untitled-2</title>
<path class="st0" d="M457.8,26.6c0.2,1.2,1.3,2,2.5,1.9c1.2,0,2.1-0.6,2.1-1.6s-0.5-1.5-1.8-1.9l-1.6-0.5c-2-0.6-3.1-1.8-3.1-3.7
	c0-2.2,1.7-3.5,4.1-3.5c2.2-0.1,4.1,1.5,4.2,3.7h-2.1c-0.2-1-1.1-1.7-2.2-1.7s-1.9,0.6-1.9,1.5s0.6,1.4,1.7,1.8l1.6,0.5
	c2,0.7,3.2,1.8,3.2,3.8c0,2.2-1.7,3.7-4.2,3.7c-2.9,0-4.6-1.9-4.7-3.9L457.8,26.6z"/>
<path class="st0" d="M466.7,16.7h2v5.7c0.6-0.9,1.6-1.5,2.7-1.4c2.1,0,3.4,1.5,3.4,3.8v5.4h-2v-5.1c0-1.4-0.7-2.3-1.9-2.3
	c-1.3,0-2.3,1-2.3,3v4.4h-2L466.7,16.7z"/>
<path class="st0" d="M481.1,21c1.1,0,2.2,0.5,2.9,1.4v-1.2h2v9h-2V29c-0.7,0.9-1.8,1.4-2.9,1.4c-2.6-0.2-4.5-2.5-4.3-5.1
	C477,23,478.8,21.2,481.1,21L481.1,21z M481.5,22.8c-1.6-0.1-3,1.1-3.1,2.7c-0.1,1.6,1.1,3,2.7,3.1s3-1.1,3.1-2.7c0-0.1,0-0.1,0-0.2
	c0.1-1.5-1-2.8-2.5-2.9C481.6,22.9,481.5,22.9,481.5,22.8L481.5,22.8z"/>
<path class="st0" d="M488.6,21.2h2v1.2c0.6-0.9,1.6-1.5,2.7-1.4c2.1,0,3.4,1.5,3.4,3.8v5.4h-2v-5.1c0-1.4-0.7-2.3-1.9-2.3
	c-1.3,0-2.3,1-2.3,3v4.4h-2L488.6,21.2z"/>
<path class="st0" d="M501,30.9c0.4,1,1.4,1.7,2.5,1.5c1.3,0,2.4-1,2.5-2.3c0-0.1,0-0.2,0-0.3v-1.1c-0.7,0.9-1.8,1.4-2.9,1.4
	c-2.5-0.1-4.5-2.3-4.4-4.8c0.1-2.4,2-4.2,4.4-4.4c1.1,0,2.2,0.5,2.9,1.4v-1.2h2v8.5c0.2,2.3-1.5,4.3-3.8,4.5c-0.2,0-0.5,0-0.7,0
	c-2.5,0-4.1-1.4-4.4-3.2C499.1,30.9,501,30.9,501,30.9z M503.4,22.8c-1.5,0-2.8,1.2-2.8,2.7s1.2,2.8,2.7,2.8s2.8-1.2,2.8-2.7v-0.1
	c0.1-1.5-1.1-2.7-2.5-2.8C503.5,22.8,503.5,22.8,503.4,22.8L503.4,22.8z"/>
<path class="st0" d="M510.6,16.7h2v5.7c0.6-0.9,1.6-1.5,2.7-1.4c2.1,0,3.4,1.5,3.4,3.8v5.4h-2v-5.1c0-1.4-0.7-2.3-1.9-2.3
	c-1.3,0-2.3,1-2.3,3v4.4h-2L510.6,16.7z"/>
<path class="st0" d="M524.9,21c1.1,0,2.2,0.5,2.9,1.4v-1.2h2v9h-2V29c-0.7,0.9-1.8,1.4-2.9,1.4c-2.6-0.2-4.5-2.5-4.3-5.1
	C520.8,23,522.6,21.2,524.9,21L524.9,21z M525.3,22.8c-1.6-0.1-3,1.1-3.1,2.7s1.1,3,2.7,3.1s3-1.1,3.1-2.7c0-0.1,0-0.1,0-0.2
	c0.1-1.5-1-2.8-2.5-2.9C525.4,22.9,525.4,22.8,525.3,22.8z"/>
<path class="st0" d="M533.5,19.3c-0.7,0.1-1.4-0.5-1.4-1.2c-0.1-0.7,0.5-1.4,1.2-1.4c0.1,0,0.2,0,0.2,0c0.7,0.1,1.3,0.7,1.2,1.4
	C534.6,18.7,534.1,19.2,533.5,19.3z M532.5,21.3h2v9h-2V21.3z"/>
<path class="st0" d="M61.1,21.6c0,2.3-1.8,4.2-4.2,4.2c-0.1,0-0.2,0-0.3,0h-2v4.4h-2.1V17.5h4.1c2.3-0.1,4.3,1.6,4.4,3.9
	C61.1,21.4,61.1,21.5,61.1,21.6z M59,21.6c0-1.2-0.9-2.2-2.1-2.2c-0.1,0-0.2,0-0.2,0h-2v4.4h2c1.2,0.1,2.2-0.8,2.3-2
	C59,21.8,59,21.7,59,21.6L59,21.6z"/>
<path class="st0" d="M66.6,30.4c-2.6-0.1-4.6-2.3-4.5-4.9c0.1-2.4,2-4.4,4.5-4.5c2.8,0,4.7,2.1,4.5,5.2H64c0.1,1.4,1.3,2.5,2.7,2.5
	l0,0c0.9,0.1,1.8-0.4,2.3-1.3h2C70.4,29.3,68.6,30.5,66.6,30.4z M64,24.8h5c-0.2-1.2-1.2-2.1-2.4-2.1C65.3,22.6,64.2,23.6,64,24.8z"
	/>
<path class="st0" d="M73.2,21.2h2v1.6c0.4-1,1.3-1.7,2.4-1.7c0.3,0,0.5,0,0.8,0.1v2c-0.3-0.1-0.7-0.2-1-0.2c-1.1,0-2.2,1-2.2,2.8
	v4.4h-2L73.2,21.2z"/>
<path class="st0" d="M83.8,30.4c-2.6,0.1-4.8-1.9-4.9-4.5s1.9-4.8,4.5-4.9c0.1,0,0.3,0,0.4,0c2.2-0.1,4.1,1.4,4.6,3.5h-2.1
	c-0.4-1-1.4-1.7-2.5-1.7c-1.6,0.1-2.8,1.5-2.7,3.1c0.1,1.5,1.3,2.6,2.7,2.7c1.1,0,2.1-0.6,2.5-1.7h2.1C87.8,29,85.9,30.5,83.8,30.4z
	"/>
<path class="st0" d="M94.2,30.4c-2.6-0.1-4.6-2.3-4.5-4.9c0.1-2.4,2-4.4,4.5-4.5c2.8,0,4.7,2.1,4.5,5.2h-7.2
	c0.1,1.4,1.3,2.5,2.7,2.5c0,0,0,0,0.1,0c0.9,0.1,1.8-0.4,2.3-1.3h2.1C98,29.3,96.2,30.5,94.2,30.4z M91.6,24.8h5
	c-0.2-1.2-1.2-2.1-2.4-2.1C92.9,22.6,91.8,23.6,91.6,24.8z"/>
<path class="st0" d="M100.7,21.2h2v1.2c0.6-0.9,1.6-1.5,2.7-1.4c2.1,0,3.4,1.5,3.4,3.8v5.4h-2v-5.1c0-1.4-0.7-2.3-1.9-2.3
	c-1.3,0-2.3,1-2.3,3v4.4h-2L100.7,21.2z"/>
<path class="st0" d="M115.2,30.3c-1.5,0.2-2.9-1-3.1-2.5c0-0.2,0-0.3,0-0.5V23h-1.9v-1.8h1.9v-2.5h2v2.5h2.6V23h-2.6v4
	c0,1.1,0.5,1.5,1.5,1.5c0.4,0,0.7-0.1,1.1-0.2v1.8C116.2,30.3,115.7,30.3,115.2,30.3z"/>
<path class="st0" d="M122.2,21c1.1,0,2.2,0.5,2.8,1.4v-1.2h2v9h-2V29c-0.7,0.9-1.8,1.4-2.9,1.4c-2.6-0.2-4.5-2.5-4.3-5.1
	C118,23,119.8,21.2,122.2,21L122.2,21z M122.5,22.8c-1.6-0.1-3,1.1-3.1,2.7s1.1,3,2.7,3.1s3-1.1,3.1-2.7c0-0.1,0-0.1,0-0.2
	c0.1-1.5-1-2.8-2.5-2.9C122.6,22.9,122.6,22.9,122.5,22.8z"/>
<path class="st0" d="M131.3,30.9c0.4,1,1.4,1.7,2.5,1.5c1.3,0,2.4-1,2.5-2.3c0-0.1,0-0.2,0-0.3v-1.1c-0.7,0.9-1.8,1.4-2.9,1.4
	c-2.5-0.1-4.5-2.3-4.4-4.8c0.1-2.4,2-4.2,4.4-4.4c1.1,0,2.2,0.5,2.9,1.4v-1.2h2v8.5c0.2,2.3-1.5,4.3-3.8,4.5c-0.2,0-0.5,0-0.7,0
	c-2.5,0-4.1-1.4-4.4-3.2C129.4,30.9,131.3,30.9,131.3,30.9z M133.7,22.8c-1.5,0-2.8,1.2-2.8,2.7s1.2,2.8,2.7,2.8s2.8-1.2,2.8-2.7
	v-0.1c0.1-1.5-1.1-2.7-2.5-2.8C133.8,22.8,133.8,22.8,133.7,22.8z"/>
<path class="st0" d="M144.9,30.4c-2.6-0.1-4.6-2.3-4.5-4.9c0.1-2.4,2-4.4,4.5-4.5c2.8,0,4.7,2.1,4.5,5.2h-7.2
	c0.1,1.4,1.3,2.5,2.7,2.5h0.1c0.9,0.1,1.8-0.4,2.3-1.3h2.1C148.7,29.3,146.9,30.6,144.9,30.4z M142.3,24.8h5
	c-0.2-1.2-1.2-2.1-2.4-2.1C143.6,22.6,142.5,23.6,142.3,24.8z"/>
<path class="st0" d="M159.7,30.4c-2.6,0-4.7-2.1-4.7-4.7c0-2.6,2.1-4.7,4.7-4.7c2.6,0,4.7,2.1,4.7,4.7
	C164.4,28.3,162.3,30.4,159.7,30.4C159.8,30.4,159.8,30.4,159.7,30.4z M159.7,28.6c1.6,0.1,2.9-1.2,3-2.7s-1.2-2.9-2.7-3
	c-1.6-0.1-2.9,1.2-3,2.7v0.1c-0.1,1.5,1.1,2.8,2.6,2.8C159.6,28.6,159.7,28.6,159.7,28.6z"/>
<path class="st0" d="M167.1,23h-1.9v-1.8h1.9v-1.5c-0.1-1.6,1.1-3,2.7-3.1c0.1,0,0.3,0,0.4,0c0.5,0,1,0.1,1.5,0.2v1.8
	c-0.3-0.1-0.7-0.2-1.1-0.2c-1,0-1.5,0.4-1.5,1.5v1.3h2.6V23h-2.6v7.2h-2L167.1,23z"/>
<path class="st0" d="M178.7,30.9c0.4,1,1.4,1.7,2.5,1.5c1.3,0,2.4-1,2.5-2.3c0-0.1,0-0.2,0-0.3v-1.1c-0.7,0.9-1.8,1.4-2.9,1.4
	c-2.5-0.1-4.5-2.3-4.4-4.8c0.1-2.4,2-4.2,4.4-4.4c1.1,0,2.2,0.5,2.9,1.4v-1.2h2v8.5c0.2,2.3-1.5,4.3-3.8,4.5c-0.2,0-0.5,0-0.7,0
	c-2.5,0-4.1-1.4-4.4-3.2C176.8,30.9,178.7,30.9,178.7,30.9z M181.1,22.8c-1.5,0-2.8,1.2-2.8,2.7s1.2,2.8,2.7,2.8s2.8-1.2,2.8-2.7
	v-0.1c0.1-1.5-1.1-2.7-2.5-2.8C181.2,22.8,181.2,22.8,181.1,22.8z"/>
<path class="st0" d="M188.3,21.2h2v1.6c0.4-1,1.3-1.7,2.4-1.7c0.3,0,0.5,0,0.8,0.1v2c-0.3-0.1-0.7-0.2-1-0.2c-1.1,0-2.2,1-2.2,2.8
	v4.4h-2V21.2z"/>
<path class="st0" d="M198.8,30.4c-2.6-0.1-4.6-2.3-4.5-4.9c0.1-2.4,2-4.4,4.5-4.5c2.8,0,4.7,2.1,4.5,5.2h-7.2
	c0.1,1.4,1.3,2.5,2.7,2.5l0,0c0.9,0.1,1.8-0.4,2.3-1.3h2.1C202.6,29.3,200.8,30.5,198.8,30.4z M196.2,24.8h5
	c-0.2-1.2-1.2-2.1-2.4-2.1C197.5,22.6,196.4,23.6,196.2,24.8z"/>
<path class="st0" d="M209.3,30.4c-2.6-0.1-4.6-2.3-4.5-4.9c0.1-2.4,2-4.4,4.5-4.5c2.8,0,4.7,2.1,4.5,5.2h-7.2
	c0.1,1.4,1.3,2.5,2.7,2.5l0,0c0.9,0.1,1.8-0.4,2.3-1.3h2.1C213.1,29.3,211.3,30.5,209.3,30.4z M206.8,24.8h5
	c-0.2-1.2-1.2-2.1-2.4-2.1C208.1,22.6,206.9,23.6,206.8,24.8z"/>
<path class="st0" d="M215.9,21.2h2v1.2c0.6-0.9,1.6-1.5,2.7-1.4c2.1,0,3.4,1.5,3.4,3.8v5.4h-2v-5.1c0-1.4-0.7-2.3-1.9-2.3
	c-1.3,0-2.3,1-2.3,3v4.4h-2L215.9,21.2z"/>
<path class="st0" d="M234.5,21c1.1,0,2.2,0.5,2.9,1.4v-1.2h2v9h-2V29c-0.7,0.9-1.8,1.4-2.9,1.4c-2.6-0.2-4.5-2.5-4.3-5.1
	C230.4,23,232.2,21.2,234.5,21L234.5,21z M234.9,22.8c-1.6-0.1-3,1.1-3.1,2.7s1.1,3,2.7,3.1c1.6,0.1,3-1.1,3.1-2.7
	c0-0.1,0-0.1,0-0.2c0.1-1.5-1-2.8-2.5-2.9C235,22.9,234.9,22.9,234.9,22.8z"/>
<path class="st0" d="M242,21.2h2v1.6c0.4-1,1.3-1.7,2.4-1.7c0.3,0,0.5,0,0.8,0.1v2c-0.3-0.1-0.7-0.2-1-0.2c-1.1,0-2.2,1-2.2,2.8v4.4
	h-2V21.2z"/>
<path class="st0" d="M252.6,30.4c-2.6-0.1-4.6-2.3-4.5-4.9c0.1-2.4,2-4.4,4.5-4.5c2.8,0,4.7,2.1,4.5,5.2h-7.2
	c0.1,1.4,1.3,2.5,2.7,2.5c0,0,0,0,0.1,0c0.9,0.1,1.8-0.4,2.3-1.3h2.1C256.4,29.3,254.5,30.5,252.6,30.4z M250,24.8h5
	c-0.2-1.2-1.2-2.1-2.4-2.1C251.3,22.6,250.2,23.6,250,24.8z"/>
<path class="st0" d="M262.8,21c1.1,0,2.2,0.5,2.9,1.4v-1.2h2v9h-2V29c-0.7,0.9-1.8,1.4-2.9,1.4c-2.6-0.2-4.5-2.5-4.3-5.1
	C258.7,23,260.5,21.2,262.8,21L262.8,21z M263.2,22.8c-1.6-0.1-3,1.1-3.1,2.7c-0.1,1.6,1.1,3,2.7,3.1s3-1.1,3.1-2.7
	c0-0.1,0-0.1,0-0.2c0.1-1.5-1-2.8-2.5-2.9C263.3,22.9,263.2,22.9,263.2,22.8L263.2,22.8z"/>
<path class="st0" d="M275.6,19.3c-0.7,0.1-1.4-0.5-1.4-1.2c-0.1-0.7,0.5-1.4,1.2-1.4c0.1,0,0.2,0,0.2,0c0.7,0.1,1.3,0.7,1.2,1.4
	C276.7,18.7,276.2,19.2,275.6,19.3z M274.6,21.3h2v9h-2V21.3z"/>
<path class="st0" d="M279.2,21.2h2v1.2c0.6-0.9,1.6-1.5,2.7-1.4c2.1,0,3.4,1.5,3.4,3.8v5.4h-2v-5.1c0-1.4-0.7-2.3-1.9-2.3
	s-2.3,1-2.3,3v4.4h-2L279.2,21.2z"/>
<path class="st0" d="M294.1,16.7h2v7.9l3.4-3.4h2.5l-4,4l4.9,5h-2.5l-4.3-4.4v4.4h-2V16.7z"/>
<path class="st0" d="M305,19.3c-0.7,0.1-1.4-0.5-1.4-1.2c-0.1-0.7,0.5-1.4,1.2-1.4c0.1,0,0.2,0,0.2,0c0.7,0.1,1.3,0.7,1.2,1.4
	C306.2,18.7,305.6,19.2,305,19.3z M304,21.3h2v9h-2V21.3z"/>
<path class="st0" d="M308.6,21.2h2v1.2c0.6-0.9,1.6-1.5,2.7-1.4c2.1,0,3.4,1.5,3.4,3.8v5.4h-2v-5.1c0-1.4-0.7-2.3-1.9-2.3
	c-1.3,0-2.3,1-2.3,3v4.4h-2L308.6,21.2z"/>
<path class="st0" d="M323,21c1.1,0,2.2,0.5,2.9,1.4v-5.7h2v13.5h-2V29c-0.7,0.9-1.8,1.4-2.9,1.4c-2.6-0.2-4.5-2.5-4.3-5.1
	C318.9,23.1,320.7,21.2,323,21z M323.4,22.8c-1.6-0.1-3,1.1-3.1,2.7c-0.1,1.6,1.1,3,2.7,3.1s3-1.1,3.1-2.7c0-0.1,0-0.1,0-0.2
	c0.1-1.5-1-2.8-2.5-2.9C323.5,22.9,323.4,22.9,323.4,22.8z"/>
<path class="st0" d="M332.2,30.9c0.4,1,1.4,1.7,2.5,1.5c1.3,0,2.4-1,2.5-2.3c0-0.1,0-0.2,0-0.3v-1.1c-0.7,0.9-1.8,1.4-2.9,1.4
	c-2.5-0.1-4.5-2.3-4.4-4.8c0.1-2.4,2-4.2,4.4-4.4c1.1,0,2.2,0.5,2.9,1.4v-1.2h2v8.5c0.2,2.3-1.5,4.3-3.8,4.5c-0.2,0-0.5,0-0.7,0
	c-2.5,0-4.1-1.4-4.4-3.2C330.3,30.9,332.2,30.9,332.2,30.9z M334.6,22.8c-1.5,0-2.8,1.2-2.8,2.7s1.2,2.8,2.7,2.8s2.8-1.2,2.8-2.7
	v-0.1c0.1-1.5-1.1-2.7-2.5-2.8C334.7,22.9,334.6,22.8,334.6,22.8z"/>
<path class="st0" d="M345.5,21c1.1,0,2.2,0.5,2.9,1.4v-1.2h2v9h-2V29c-0.7,0.9-1.8,1.4-2.9,1.4c-2.6-0.2-4.5-2.5-4.3-5.1
	C341.3,23,343.2,21.2,345.5,21L345.5,21z M345.8,22.8c-1.6-0.1-3,1.1-3.1,2.7c-0.1,1.6,1.1,3,2.7,3.1s3-1.1,3.1-2.7
	c0-0.1,0-0.1,0-0.2c0.1-1.5-1-2.8-2.5-2.9C345.9,22.9,345.9,22.9,345.8,22.8z"/>
<path class="st0" d="M353,21.2h2v1.6c0.4-1,1.3-1.7,2.4-1.7c0.3,0,0.5,0,0.8,0.1v2c-0.3-0.1-0.7-0.2-1-0.2c-1.1,0-2.2,1-2.2,2.8v4.4
	h-2L353,21.2z"/>
<path class="st0" d="M363.7,30.3c-1.5,0.2-2.9-1-3.1-2.5c0-0.2,0-0.3,0-0.5V23h-1.9v-1.8h1.9v-2.5h2v2.5h2.6V23h-2.6v4
	c0,1.1,0.5,1.5,1.5,1.5c0.4,0,0.7-0.1,1.1-0.2v1.8C364.7,30.3,364.2,30.3,363.7,30.3z"/>
<path class="st0" d="M371,30.4c-2.6-0.1-4.6-2.3-4.5-4.9c0.1-2.4,2-4.4,4.5-4.5c2.8,0,4.7,2.1,4.5,5.2h-7.2c0.1,1.4,1.3,2.5,2.7,2.4
	c0.9,0.1,1.8-0.4,2.3-1.3h2.1C374.7,29.3,373,30.5,371,30.4z M368.4,24.8h5c-0.2-1.2-1.2-2.1-2.4-2.1
	C369.7,22.6,368.6,23.5,368.4,24.8L368.4,24.8z"/>
<path class="st0" d="M377.5,21.2h2v1.2c0.6-0.9,1.6-1.5,2.7-1.4c2.1,0,3.4,1.5,3.4,3.8v5.4h-2v-5.1c0-1.4-0.7-2.3-1.9-2.3
	c-1.3,0-2.3,1-2.3,3v4.4h-2L377.5,21.2z"/>
<polyline class="st1" points="613,19.2 629.1,34.2 645,19.2 "/>
<path class="st2" d="M439,5.2h215c1.1,0,2,0.9,2,2v35c0,1.1-0.9,2-2,2H439c-1.1,0-2-0.9-2-2v-35C437,6.1,437.9,5.2,439,5.2z"/>
<g>
	<g>
		<g>
			<defs>
				<polygon id="SVGID_1_" points="320.5,270.2 327,283.2 314,283.2 				"/>
			</defs>
			<clipPath id="SVGID_2_">
				<use xlink:href="#SVGID_1_"  style="overflow:visible;"/>
			</clipPath>
			<g class="st3">
				<g>
					<g>
						<g>
							<defs>
								<rect id="SVGID_3_" x="-673" y="-3357.8" width="1440" height="5000"/>
							</defs>
							<clipPath id="SVGID_4_">
								<use xlink:href="#SVGID_3_"  style="overflow:visible;"/>
							</clipPath>
							<g class="st4">
								<rect x="309" y="265.2" class="st5" width="23" height="23"/>
							</g>
						</g>
					</g>
				</g>
			</g>
		</g>
	</g>
</g>
<polygon class="st6" points="321.5,166.2 328,179.2 315,179.2 "/>
<polygon class="st7" points="257.5,270.5 264,283.5 251,283.5 "/>
<g>
	<g>
		<g>
			<defs>
				<polygon id="SVGID_5_" points="460.1,603.2 467.6,618.3 452.5,618.3 				"/>
			</defs>
			<clipPath id="SVGID_6_">
				<use xlink:href="#SVGID_5_"  style="overflow:visible;"/>
			</clipPath>
			<g class="st8">
				<g>
					<g>
						<g>
							<defs>
								<rect id="SVGID_7_" x="-738.7" y="-3993.7" width="1670.3" height="5799.7"/>
							</defs>
							<clipPath id="SVGID_8_">
								<use xlink:href="#SVGID_7_"  style="overflow:visible;"/>
							</clipPath>
							<g class="st9">
								<rect x="446.7" y="597.4" class="st5" width="26.7" height="26.7"/>
							</g>
						</g>
					</g>
				</g>
			</g>
		</g>
	</g>
</g>
<g>
	<g>
		<g>
			<defs>
				<polygon id="SVGID_9_" points="267.5,603.2 275.1,618.3 260,618.3 				"/>
			</defs>
			<clipPath id="SVGID_10_">
				<use xlink:href="#SVGID_9_"  style="overflow:visible;"/>
			</clipPath>
			<g class="st10">
				<g>
					<g>
						<g>
							<defs>
								<rect id="SVGID_11_" x="-761.9" y="-3993.7" width="1670.3" height="5799.7"/>
							</defs>
							<clipPath id="SVGID_12_">
								<use xlink:href="#SVGID_11_"  style="overflow:visible;"/>
							</clipPath>
							<g class="st11">
								<rect x="254.2" y="597.4" class="st0" width="26.7" height="26.7"/>
							</g>
						</g>
					</g>
				</g>
			</g>
		</g>
	</g>
</g>
<path d="M80.5,609.5v7.7h-1.3v-9.9h1.2l3.7,5l3.7-4.9H89v9.9h-1.3v-7.7l-3.6,4.8L80.5,609.5z"/>
<path d="M91.9,608.3c-0.5,0-0.8-0.3-0.8-0.8s0.3-0.8,0.8-0.8s0.8,0.3,0.8,0.8C92.8,608,92.4,608.3,91.9,608.3L91.9,608.3z
	 M91.3,610.2h1.2v7h-1.2V610.2z"/>
<path d="M94.8,610.2H96v1c0.5-0.8,1.3-1.2,2.2-1.2c1.4,0,2.6,1,2.7,2.4c0,0.1,0,0.2,0,0.3v4.3h-1.2v-4.2c0.1-0.9-0.5-1.7-1.4-1.9
	c-0.1,0-0.1,0-0.2,0c-1.2,0-2,0.9-2,2.6v3.5h-1.2L94.8,610.2z"/>
<path d="M103.5,608.3c-0.5,0-0.8-0.3-0.8-0.8s0.3-0.8,0.8-0.8s0.8,0.3,0.8,0.8S104,608.3,103.5,608.3L103.5,608.3z M102.9,610.2h1.2
	v7h-1.2V610.2z"/>
<path d="M106.3,610.2h1.2v1c0.5-0.7,1.3-1.2,2.1-1.2c0.9,0,1.9,0.6,2.1,1.5c0.3-0.9,1.3-1.5,2.3-1.5c1.5,0,2.4,1.2,2.4,2.8v4.3h-1.2
	V613c0-1.2-0.5-1.9-1.4-1.9c-1.2,0-2,0.9-2,2.6v3.5h-1.2v-4.1c0-1.2-0.5-1.9-1.4-1.9c-1.2,0-2,0.9-2,2.6v3.5H106L106.3,610.2z"/>
<path d="M118.5,610.2h1.2v4.1c0,1.2,0.6,1.9,1.6,1.9s2-0.9,2-2.6V610h1.2v7h-1.2v-1c-0.5,0.8-1.3,1.3-2.1,1.2c-1.4,0-2.6-1-2.6-2.6
	c0-0.1,0-0.2,0-0.3L118.5,610.2z"/>
<path d="M126.6,610.2h1.2v1c0.5-0.7,1.3-1.2,2.1-1.2c0.9,0,1.9,0.6,2.1,1.5c0.3-0.9,1.3-1.5,2.3-1.5c1.5,0,2.4,1.2,2.4,2.8v4.3h-1.2
	V613c0-1.2-0.5-1.9-1.4-1.9c-1.2,0-1.9,0.9-1.9,2.6v3.5H131v-4.1c0-1.2-0.5-1.9-1.4-1.9c-1.2,0-2,0.9-2,2.6v3.5h-1.2L126.6,610.2z"
	/>
<path d="M143.1,617.8c0.3,0.9,1.3,1.5,2.2,1.4c1.2,0,2.2-0.9,2.2-2.1c0-0.1,0-0.2,0-0.3V616c-0.6,0.8-1.5,1.3-2.4,1.2
	c-2,0-3.5-1.6-3.5-3.6s1.6-3.5,3.5-3.5c0.9,0,1.9,0.5,2.4,1.2v-1h1.2v6.5c0.1,1.7-1.2,3.4-2.9,3.5c-0.2,0-0.3,0-0.6,0
	c-1.6,0.2-3-0.8-3.4-2.4L143.1,617.8z M145.3,611.2c-1.4,0.1-2.3,1.3-2.3,2.6c0.1,1.2,1,2.2,2.3,2.3c1.4-0.1,2.3-1.3,2.3-2.6
	C147.5,612.2,146.5,611.2,145.3,611.2z"/>
<path d="M151,610.2h1.2v1.4c0.2-0.8,1-1.4,2-1.4c0.2,0,0.3,0,0.6,0v1.3c-0.2-0.1-0.5-0.1-0.7-0.1c-0.9,0-1.9,0.8-1.9,2.4v3.5H151
	V610.2z"/>
<path d="M158.8,617.4c-2,0-3.5-1.5-3.5-3.5v-0.1c-0.1-2,1.4-3.6,3.4-3.6h0.1c1.9,0,3.4,1.5,3.4,3.4c0,0.2,0,0.3,0,0.6h-5.7
	c0,1.3,1,2.2,2.3,2.2c0.8,0.1,1.6-0.3,2-1.2h1.3C161.6,616.4,160.4,617.4,158.8,617.4z M156.6,613.1h4.3c-0.1-1.2-1-2-2.1-2
	S156.6,611.9,156.6,613.1z"/>
<path d="M166.8,617.4c-2,0-3.5-1.5-3.5-3.5v-0.1c-0.1-2,1.4-3.6,3.4-3.6h0.1c1.9,0,3.4,1.5,3.4,3.4c0,0.2,0,0.3,0,0.6h-5.7
	c0,1.3,1,2.2,2.3,2.2c0.8,0,1.6-0.3,2-1.2h1.3C169.7,616.4,168.4,617.4,166.8,617.4z M164.6,613.1h4.3c-0.1-1-1-2-2.1-2
	S164.8,611.9,164.6,613.1z"/>
<path d="M172,610.2h1.2v1c0.5-0.8,1.3-1.2,2.2-1.2c1.4,0,2.6,1,2.7,2.4c0,0.1,0,0.2,0,0.3v4.3h-1.2v-4.2c0.1-0.9-0.5-1.7-1.4-1.9
	c-0.1,0-0.1,0-0.2,0c-1.2,0-2,0.9-2,2.6v3.5h-1.2L172,610.2z"/>
<path d="M186.5,610c0.9,0,1.9,0.5,2.4,1.2v-1h1.2v7h-1.2v-1c-0.6,0.8-1.5,1.3-2.4,1.2c-2-0.1-3.5-1.9-3.4-3.9
	C183.2,611.6,184.6,610.2,186.5,610L186.5,610z M186.6,611.2c-1.4-0.1-2.6,0.9-2.7,2.3c-0.1,1.4,0.9,2.6,2.3,2.7s2.6-0.9,2.7-2.3
	c0-0.1,0-0.1,0-0.2c0.1-1.3-0.9-2.4-2.2-2.6C186.7,611.2,186.6,611.2,186.6,611.2L186.6,611.2z"/>
<path d="M192.3,610.2h1.2v1.4c0.2-0.8,1-1.4,2-1.4c0.2,0,0.3,0,0.6,0v1.3c-0.2-0.1-0.5-0.1-0.7-0.1c-0.9,0-1.9,0.8-1.9,2.4v3.5h-1.2
	L192.3,610.2L192.3,610.2z"/>
<path d="M200.1,617.4c-2,0-3.6-1.6-3.6-3.6s1.6-3.6,3.6-3.6c1.9,0,3.4,1.5,3.4,3.4c0,0.2,0,0.3,0,0.6h-5.7c0,1.3,1,2.2,2.3,2.2
	c0.8,0,1.6-0.3,2-1.2h1.3C202.9,616.4,201.5,617.4,200.1,617.4z M197.9,613.1h4.3c-0.1-1.2-1-2-2.1-2
	C199,611.1,198,611.9,197.9,613.1L197.9,613.1z"/>
<path d="M208,610c0.9,0,1.9,0.5,2.4,1.2v-1h1.2v7h-1.2v-1c-0.6,0.8-1.5,1.3-2.4,1.2c-2-0.1-3.5-1.9-3.4-3.9
	C204.9,611.6,206.3,610.2,208,610L208,610z M208.3,611.2c-1.4-0.1-2.6,0.9-2.7,2.3c-0.1,1.4,0.9,2.6,2.3,2.7s2.6-0.9,2.7-2.3
	c0-0.1,0-0.1,0-0.2c0.1-1.3-0.9-2.4-2.2-2.6C208.4,611.2,208.3,611.2,208.3,611.2L208.3,611.2z"/>
<path d="M283.5,609.5v7.7h-1.3v-9.9h1.2l3.7,4.9l3.7-4.9h1.2v9.9h-1.3v-7.7l-3.6,4.8L283.5,609.5z"/>
<path d="M297.1,610c0.9,0,1.9,0.5,2.4,1.2v-1h1.2v7h-1.2v-1c-0.6,0.8-1.5,1.3-2.4,1.2c-2-0.1-3.5-1.9-3.4-3.9
	C294,611.6,295.4,610.2,297.1,610L297.1,610z M297.3,611.2c-1.4-0.1-2.6,0.9-2.7,2.3c-0.1,1.4,0.9,2.6,2.3,2.7
	c1.4,0.1,2.6-0.9,2.7-2.3c0-0.1,0-0.1,0-0.2C299.7,612.4,298.7,611.3,297.3,611.2C297.3,611.2,297.3,611.2,297.3,611.2L297.3,611.2z
	"/>
<path d="M304.8,613.6l-2.6-3.5h1.4l2,2.6l1.9-2.6h1.5l-2.6,3.5l2.8,3.5h-1.5l-2.1-2.6l-2.1,2.7H302L304.8,613.6z"/>
<path d="M311,608.3c-0.5,0-0.8-0.3-0.8-0.8s0.3-0.8,0.8-0.8s0.8,0.3,0.8,0.8S311.5,608.3,311,608.3L311,608.3z M310.4,610.2h1.2v7
	h-1.2V610.2z"/>
<path d="M316.1,617.4c-1.4,0.2-2.7-0.8-2.8-2.2l0,0h1.3c0.1,0.7,0.8,1.3,1.6,1.2c0.7,0,1.3-0.3,1.3-0.9c0-0.6-0.3-0.9-1.2-1.2
	l-1-0.2c-1-0.1-1.7-1-1.7-2.1c0-1.2,1-1.9,2.4-1.9c1.3-0.1,2.3,0.7,2.6,2h-1.2c-0.1-0.6-0.7-1-1.3-0.9c-0.7,0-1.2,0.3-1.2,0.9
	c0,0.6,0.3,0.8,1,1l1.2,0.2c1,0.1,1.7,1,1.7,2.1C318.7,616.7,317.5,617.4,316.1,617.4z"/>
<path d="M320.3,610.2h1.2v1c0.5-0.7,1.3-1.2,2.1-1.2c0.9,0,1.9,0.6,2.2,1.5c0.3-0.9,1.3-1.5,2.3-1.5c1.5,0,2.4,1.2,2.4,2.8v4.3h-1.2
	V613c0-1.2-0.5-1.9-1.4-1.9c-1.2,0-1.9,0.9-1.9,2.6v3.5h-1.2v-4.1c0-1.2-0.5-1.9-1.4-1.9c-1.2,0-2,0.9-2,2.6v3.5h-1.2L320.3,610.2z"
	/>
<path d="M336.9,617.8c0.3,0.9,1.3,1.5,2.2,1.4c1.2,0,2.2-0.9,2.2-2.1c0-0.1,0-0.2,0-0.3V616c-0.6,0.8-1.5,1.3-2.4,1.2
	c-2,0-3.5-1.6-3.5-3.6s1.6-3.5,3.5-3.5c0.9,0,1.9,0.5,2.4,1.2v-1h1.2v6.5c0.1,1.7-1.2,3.4-2.9,3.5c-0.1,0-0.3,0-0.5,0
	c-1.6,0.2-3-0.8-3.4-2.4L336.9,617.8z M339,611.2c-1.4-0.1-2.4,0.9-2.6,2.3c-0.1,1.4,0.9,2.4,2.3,2.6c1.4,0.1,2.4-0.9,2.6-2.3v-0.1
	C341.4,612.4,340.4,611.4,339,611.2C339.1,611.2,339.1,611.2,339,611.2z"/>
<path d="M344.8,610.2h1.2v1.4c0.2-0.8,1-1.4,2-1.4c0.2,0,0.3,0,0.6,0v1.3c-0.2-0.1-0.5-0.1-0.7-0.1c-0.9,0-1.9,0.8-1.9,2.4v3.5h-1.2
	V610.2z"/>
<path d="M352.6,617.4c-2,0-3.6-1.6-3.6-3.6s1.6-3.6,3.6-3.6c1.9,0,3.4,1.5,3.4,3.4c0,0.2,0,0.3,0,0.6h-5.7c0,1.3,1,2.2,2.3,2.2
	c0.8,0,1.6-0.3,2-1.2h1.3C355.3,616.4,354.1,617.4,352.6,617.4z M350.4,613.1h4.3c-0.1-1.2-1-2-2.1-2
	C351.4,611.1,350.5,611.9,350.4,613.1z"/>
<path d="M360.7,617.4c-2,0-3.5-1.5-3.5-3.5v-0.1c-0.1-2,1.4-3.6,3.4-3.6h0.1c1.9,0,3.4,1.5,3.4,3.4c0,0.2,0,0.3,0,0.6h-5.7
	c0,1.3,1,2.2,2.3,2.2c0.8,0.1,1.6-0.3,2-1.2h1.3C363.5,616.4,362.1,617.4,360.7,617.4z M358.4,613.1h4.3c-0.1-1.2-1-2-2.1-2
	C359.5,611.1,358.5,611.9,358.4,613.1L358.4,613.1z"/>
<path d="M365.7,610.2h1.2v1c0.5-0.8,1.3-1.2,2.2-1.2c1.4,0,2.6,1,2.7,2.4c0,0.1,0,0.2,0,0.3v4.3h-1.2v-4.2c0.1-0.9-0.5-1.7-1.4-1.9
	c-0.1,0-0.1,0-0.2,0c-1.2,0-2,0.9-2,2.6v3.5h-1.2L365.7,610.2z"/>
<path d="M380.2,610c0.9,0,1.9,0.5,2.4,1.2v-1h1.2v7h-1.2v-1c-0.6,0.8-1.5,1.3-2.4,1.2c-2-0.1-3.5-1.9-3.4-3.9
	C376.9,611.6,378.4,610.2,380.2,610L380.2,610z M380.3,611.2c-1.4-0.1-2.6,0.9-2.7,2.3c-0.1,1.4,0.9,2.6,2.3,2.7
	c1.4,0.1,2.6-0.9,2.7-2.3c0-0.1,0-0.1,0-0.2C382.7,612.4,381.7,611.3,380.3,611.2C380.4,611.2,380.4,611.2,380.3,611.2L380.3,611.2z
	"/>
<path d="M386.1,610.2h1.2v1.4c0.2-0.8,1-1.4,2-1.4c0.2,0,0.3,0,0.6,0v1.3c-0.2-0.1-0.5-0.1-0.7-0.1c-0.9,0-1.9,0.8-1.9,2.4v3.5h-1.2
	V610.2z"/>
<path d="M393.8,617.4c-2,0-3.5-1.5-3.5-3.5v-0.1c-0.1-2,1.4-3.6,3.4-3.6c0.1,0,0.1,0,0.2,0c1.9,0,3.4,1.5,3.4,3.4c0,0.2,0,0.3,0,0.6
	h-5.7c0,1.3,1,2.2,2.3,2.2c0.8,0,1.6-0.3,2-1.2h1.2C396.7,616.4,395.4,617.5,393.8,617.4z M391.6,613.1h4.3c-0.1-1.2-1-2-2.1-2
	C392.7,611.1,391.8,611.9,391.6,613.1L391.6,613.1z"/>
<path d="M401.9,610c0.9,0,1.9,0.5,2.4,1.2v-1h1.2v7h-1.2v-1c-0.6,0.8-1.5,1.3-2.4,1.2c-2-0.1-3.5-1.9-3.4-3.9
	C398.6,611.6,400,610.2,401.9,610L401.9,610z M402,611.2c-1.4-0.1-2.6,0.9-2.7,2.3c-0.1,1.4,0.9,2.6,2.3,2.7
	c1.4,0.1,2.6-0.9,2.7-2.3c0-0.1,0-0.1,0-0.2C404.4,612.4,403.4,611.3,402,611.2C402.1,611.2,402.1,611.2,402,611.2L402,611.2z"/>
<path d="M476.6,614.6c0.2,1,1.2,1.7,2.1,1.6c1,0,1.9-0.6,1.9-1.5s-0.5-1.3-1.4-1.6l-1.4-0.5c-1.4-0.2-2.3-1.4-2.3-2.8
	c0-1.5,1.3-2.7,2.8-2.6c0.1,0,0.2,0,0.2,0c1.6-0.1,3,1,3.1,2.7h-1.3c-0.2-0.9-0.9-1.5-1.9-1.5c-0.9,0-1.7,0.5-1.7,1.4
	s0.5,1.3,1.4,1.6l1.3,0.5c1.4,0.3,2.3,1.5,2.3,2.9c0,1.5-1.3,2.8-2.9,2.8c-0.1,0-0.2,0-0.3,0c-1.7,0.2-3.2-1-3.5-2.8l0,0h1.6
	L476.6,614.6L476.6,614.6z"/>
<path d="M486.2,617.2c-1,0.1-2-0.7-2.1-1.7c0-0.1,0-0.2,0-0.3v-3.8h-1.5v-1.2h1.5v-2h1.2v2h2.1v1.2h-2v3.6c0,0.9,0.5,1.2,1.2,1.2
	c0.2,0,0.6,0,0.8-0.1v1C487,617.1,486.5,617.2,486.2,617.2z"/>
<path d="M491.6,610c0.9,0,1.9,0.5,2.4,1.2v-1h1.2v7H494v-1c-0.6,0.8-1.5,1.3-2.4,1.2c-2-0.1-3.5-1.9-3.4-3.9
	C488.4,611.6,489.8,610.2,491.6,610L491.6,610z M491.7,611.2c-1.4-0.1-2.6,0.9-2.7,2.3c-0.1,1.4,0.9,2.6,2.3,2.7
	c1.4,0.1,2.6-0.9,2.7-2.3c0-0.1,0-0.1,0-0.2C494.1,612.4,493.1,611.3,491.7,611.2C491.9,611.2,491.9,611.2,491.7,611.2L491.7,611.2z
	"/>
<path d="M497.5,610.2h1.2v1c0.5-0.8,1.3-1.2,2.2-1.2c1.4,0,2.6,1,2.7,2.4c0,0.1,0,0.2,0,0.3v4.3h-1.2v-4.2c0.1-0.9-0.5-1.7-1.4-1.9
	c-0.1,0-0.1,0-0.2,0c-1.2,0-2,0.9-2,2.6v3.5h-1.2L497.5,610.2z"/>
<path d="M508.6,610c0.9,0,1.9,0.5,2.4,1.2v-4.5h1.2v10.4H511v-1c-0.6,0.8-1.5,1.3-2.4,1.2c-2-0.1-3.5-1.9-3.4-3.9
	C505.3,611.6,506.8,610.2,508.6,610L508.6,610z M508.8,611.2c-1.4-0.1-2.6,0.9-2.7,2.3c-0.1,1.4,0.9,2.6,2.3,2.7s2.6-0.9,2.7-2.3
	c0-0.1,0-0.1,0-0.2C511.2,612.4,510.2,611.3,508.8,611.2C508.8,611.2,508.8,611.2,508.8,611.2L508.8,611.2z"/>
<path d="M517.4,610c0.9,0,1.9,0.5,2.4,1.2v-1h1.2v7h-1.2v-1c-0.6,0.8-1.5,1.3-2.4,1.2c-2-0.1-3.5-1.9-3.4-3.9
	C514.1,611.6,515.5,610.2,517.4,610L517.4,610z M517.5,611.2c-1.4-0.1-2.6,0.9-2.7,2.3c-0.1,1.4,0.9,2.6,2.3,2.7s2.6-0.9,2.7-2.3
	c0-0.1,0-0.1,0-0.2C519.9,612.4,518.9,611.3,517.5,611.2C517.6,611.2,517.5,611.2,517.5,611.2L517.5,611.2z"/>
<path d="M523.2,610.2h1.2v1.4c0.2-0.8,1-1.4,2-1.4c0.2,0,0.3,0,0.6,0v1.3c-0.2-0.1-0.5-0.1-0.7-0.1c-0.9,0-1.9,0.8-1.9,2.4v3.5h-1.2
	L523.2,610.2L523.2,610.2z"/>
<path d="M531,610c0.9,0,1.9,0.5,2.4,1.2v-4.5h1.2v10.4h-1.2v-1c-0.6,0.8-1.5,1.3-2.4,1.2c-2-0.1-3.5-1.9-3.4-3.9
	C527.8,611.6,529.2,610.2,531,610L531,610z M531.2,611.2c-1.4-0.1-2.6,0.9-2.7,2.3c-0.1,1.4,0.9,2.6,2.3,2.7
	c1.4,0.1,2.6-0.9,2.7-2.3c0-0.1,0-0.1,0-0.2C533.6,612.4,532.6,611.3,531.2,611.2C531.2,611.2,531.2,611.2,531.2,611.2L531.2,611.2z
	"/>
<path d="M541,617.8c0.3,0.9,1.3,1.5,2.2,1.4c1.2,0,2.2-0.9,2.2-2.1c0-0.1,0-0.2,0-0.3V616c-0.6,0.8-1.5,1.3-2.4,1.2
	c-2,0-3.5-1.6-3.5-3.6s1.6-3.5,3.5-3.5c0.9,0,1.9,0.5,2.4,1.2v-1h1.2v6.5c0.1,1.7-1.2,3.4-2.9,3.5c-0.1,0-0.3,0-0.5,0
	c-1.6,0.2-3-0.8-3.4-2.4L541,617.8z M543.3,611.2c-1.4-0.1-2.4,0.9-2.6,2.3c-0.1,1.4,0.9,2.4,2.3,2.6c1.4,0.1,2.4-0.9,2.6-2.3v-0.1
	C545.7,612.4,544.7,611.4,543.3,611.2C543.4,611.2,543.3,611.2,543.3,611.2z"/>
<path d="M548.9,610.2h1.2v1.4c0.2-0.8,1-1.4,2-1.4c0.2,0,0.3,0,0.6,0v1.3c-0.2-0.1-0.5-0.1-0.7-0.1c-0.9,0-1.9,0.8-1.9,2.4v3.5h-1.2
	L548.9,610.2L548.9,610.2z"/>
<path d="M556.8,617.4c-2,0-3.6-1.6-3.6-3.6s1.6-3.6,3.6-3.6c1.9,0,3.4,1.5,3.4,3.4c0,0.2,0,0.3,0,0.6h-5.7c0,1.3,1,2.2,2.3,2.2
	c0.8,0.1,1.6-0.3,2-1.2h1.3C559.6,616.4,558.2,617.4,556.8,617.4z M554.5,613.1h4.3c-0.1-1.2-1-2-2.1-2
	C555.7,611.1,554.6,611.9,554.5,613.1z"/>
<path d="M564.8,617.4c-2,0-3.6-1.6-3.6-3.6s1.6-3.6,3.6-3.6c1.9,0,3.4,1.5,3.4,3.4c0,0.2,0,0.3,0,0.6h-5.7c0,1.3,1,2.2,2.3,2.2
	c0.8,0.1,1.6-0.3,2-1.2h1.3C567.6,616.4,566.3,617.4,564.8,617.4z M562.6,613.1h4.3c-0.1-1.2-1-2-2.1-2S562.7,611.9,562.6,613.1z"/>
<path d="M569.9,610.2h1.2v1c0.5-0.8,1.3-1.2,2.2-1.2c1.4,0,2.6,1,2.7,2.4c0,0.1,0,0.2,0,0.3v4.3h-1.2v-4.2c0.1-0.9-0.5-1.7-1.4-1.9
	c-0.1,0-0.1,0-0.2,0c-1.2,0-2,0.9-2,2.6v3.5H570L569.9,610.2z"/>
<path d="M584.3,610c0.9,0,1.9,0.5,2.4,1.2v-1h1.2v7h-1.2v-1c-0.6,0.8-1.5,1.3-2.4,1.2c-2-0.1-3.5-1.9-3.4-3.9
	C581.2,611.6,582.6,610.2,584.3,610L584.3,610z M584.5,611.2c-1.4-0.1-2.6,0.9-2.7,2.3c-0.1,1.4,0.9,2.6,2.3,2.7
	c1.4,0.1,2.6-0.9,2.7-2.3c0-0.1,0-0.1,0-0.2C586.9,612.4,585.9,611.3,584.5,611.2C584.7,611.2,584.5,611.2,584.5,611.2L584.5,611.2z
	"/>
<path d="M590.2,610.2h1.2v1.4c0.2-0.8,1-1.4,2-1.4c0.2,0,0.3,0,0.6,0v1.3c-0.2-0.1-0.5-0.1-0.7-0.1c-0.9,0-1.9,0.8-1.9,2.4v3.5h-1.2
	L590.2,610.2z"/>
<path d="M598.1,617.4c-2,0-3.5-1.5-3.5-3.5v-0.1c-0.1-2,1.4-3.6,3.4-3.6h0.1c1.9,0,3.4,1.5,3.4,3.4c0,0.2,0,0.3,0,0.6h-5.7
	c0,1.3,1,2.2,2.3,2.2c0.8,0,1.6-0.3,2-1.2h1.2C600.9,616.4,599.5,617.4,598.1,617.4z M595.8,613.1h4.3c-0.1-1.2-1-2-2.1-2
	C597,611.1,595.9,611.9,595.8,613.1z"/>
<path d="M606,610c0.9,0,1.9,0.5,2.4,1.2v-1h1.2v7h-1.2v-1c-0.6,0.8-1.5,1.3-2.4,1.2c-2-0.1-3.5-1.9-3.4-3.9
	C602.9,611.6,604.3,610.2,606,610L606,610z M606.2,611.2c-1.4-0.1-2.6,0.9-2.7,2.3c-0.1,1.4,0.9,2.6,2.3,2.7s2.6-0.9,2.7-2.3
	c0-0.1,0-0.1,0-0.2C608.6,612.4,607.7,611.3,606.2,611.2C606.4,611.2,606.2,611.2,606.2,611.2L606.2,611.2z"/>
<g>
	<g>
		<g>
			<defs>
				<polygon id="SVGID_13_" points="64.5,603.2 72.1,618.3 57,618.3 				"/>
			</defs>
			<clipPath id="SVGID_14_">
				<use xlink:href="#SVGID_13_"  style="overflow:visible;"/>
			</clipPath>
			<g class="st12">
				<g>
					<g>
						<g>
							<defs>
								<rect id="SVGID_15_" x="-796.7" y="-3993.7" width="1670.3" height="5799.7"/>
							</defs>
							<clipPath id="SVGID_16_">
								<use xlink:href="#SVGID_15_"  style="overflow:visible;"/>
							</clipPath>
							<g class="st13">
								<rect x="51.2" y="597.4" class="st14" width="26.7" height="26.7"/>
							</g>
						</g>
					</g>
				</g>
			</g>
		</g>
	</g>
</g>
<g id="Group-8">
	<path id="Fill-1" class="st6" d="M95,112c-0.1-13.1-10.8-23.6-23.9-23.5s-23.6,10.8-23.5,23.9c0.1,11.8,8.8,21.7,20.5,23.3v23.5
		h5.7v-23.4C85.8,134.4,95,124.2,95,112"/>
	<path id="Fill-4" class="st6" d="M158.6,111.7c-0.1-13.3-10.9-23.9-24.1-23.9s-23.9,10.9-23.9,24.1c0.1,11.9,8.9,22,20.7,23.6v23.9
		h5.7v-23.8C149.3,134.4,158.6,124,158.6,111.7"/>
	<path id="Fill-6" class="st6" d="M219.6,111.7c-0.1-13.3-10.9-23.9-24.1-23.9c-13.3,0.1-23.9,10.9-23.9,24.1
		c0.1,11.9,8.9,22,20.7,23.6v23.9h5.7v-23.8C210.3,134.4,219.6,124,219.6,111.7"/>
	<path id="Fill-8" class="st6" d="M282.6,111.7c-0.1-13.3-10.9-23.9-24.1-23.9c-13.3,0.1-23.9,10.9-23.9,24.1
		c0.1,11.9,8.9,22,20.7,23.6v23.9h5.7v-23.8C273.3,134.4,282.6,124,282.6,111.7"/>
	<path id="Fill-10" class="st6" d="M345.6,111.7c-0.1-13.3-10.9-23.9-24.1-23.9c-13.3,0.1-23.9,10.9-23.9,24.1
		c0.1,11.9,8.9,22,20.7,23.6v23.9h5.7v-23.8C336.3,134.4,345.6,124,345.6,111.7"/>
	<path id="Fill-12" class="st6" d="M407.6,111.7c-0.1-13.3-10.9-23.9-24.1-23.9c-13.3,0.1-23.9,10.9-23.9,24.1
		c0.1,11.9,8.9,22,20.7,23.6v23.9h5.7v-23.8C398.3,134.4,407.6,124,407.6,111.7"/>
	<path id="Fill-14" class="st6" d="M470.6,111.7c-0.1-13.3-10.9-23.9-24.1-23.9c-13.3,0.1-23.9,10.9-23.9,24.1
		c0.1,11.9,8.9,22,20.7,23.6v23.9h5.7v-23.8C461.3,134.4,470.6,124,470.6,111.7"/>
	<path id="Fill-16" class="st6" d="M533.6,111.7c-0.1-13.3-10.9-23.9-24.1-23.9c-13.3,0.1-23.9,10.9-23.9,24.1
		c0.1,11.9,8.9,22,20.7,23.6v23.9h5.7v-23.8C524.3,134.4,533.6,124,533.6,111.7"/>
	<path id="Fill-18" class="st6" d="M594.6,111.7c-0.1-13.3-10.9-23.9-24.1-23.9s-23.9,10.9-23.9,24.1c0.1,11.9,8.9,22,20.7,23.6
		v23.9h5.7v-23.8C585.3,134.4,594.6,124,594.6,111.7"/>
	<path id="Fill-20" class="st6" d="M657.6,111.7c-0.1-13.3-10.9-23.9-24.1-23.9s-23.9,10.9-23.9,24.1c0.1,11.9,8.9,22,20.7,23.6
		v23.9h5.7v-23.8C648.3,134.4,657.6,124,657.6,111.7"/>
</g>
<g id="Group-13">
	<path id="Fill-22" class="st6" d="M95,218.2c-0.1-13.1-10.8-23.6-23.9-23.5s-23.6,10.8-23.5,23.9c0.1,11.8,8.8,21.7,20.5,23.3v23.5
		h5.7V242C85.9,240.7,95.1,230.4,95,218.2"/>
	<path id="Fill-25" class="st6" d="M158.6,217.7c-0.1-13.3-10.9-23.9-24.1-23.9s-23.9,10.9-23.9,24.1c0.1,11.9,8.9,22,20.7,23.6
		v23.9h5.7v-23.8C149.3,240.4,158.6,230,158.6,217.7"/>
	<path id="Fill-27" class="st6" d="M219.6,217.7c-0.1-13.3-10.9-23.9-24.1-23.9c-13.3,0.1-23.9,10.9-23.9,24.1
		c0.1,11.9,8.9,22,20.7,23.6v23.9h5.7v-23.8C210.3,240.4,219.6,230,219.6,217.7"/>
	<path id="Fill-29" class="st6" d="M282.6,217.7c-0.1-13.3-10.9-23.9-24.1-23.9c-13.3,0.1-23.9,10.9-23.9,24.1
		c0.1,11.9,8.9,22,20.7,23.6v23.9h5.7v-23.8C273.3,240.4,282.6,230,282.6,217.7"/>
	<path id="Fill-31" class="st15" d="M345.6,217.7c-0.1-13.3-10.9-23.9-24.1-23.9c-13.3,0.1-23.9,10.9-23.9,24.1
		c0.1,11.9,8.9,22,20.7,23.6v23.9h5.7v-23.8C336.3,240.4,345.6,230,345.6,217.7"/>
	<path id="Fill-33" class="st15" d="M407.6,217.7c-0.1-13.3-10.9-23.9-24.1-23.9c-13.3,0.1-23.9,10.9-23.9,24.1
		c0.1,11.9,8.9,22,20.7,23.6v23.9h5.7v-23.8C398.3,240.4,407.6,230,407.6,217.7"/>
	<path id="Fill-35" class="st15" d="M470.6,217.7c-0.1-13.3-10.9-23.9-24.1-23.9c-13.3,0.1-23.9,10.9-23.9,24.1
		c0.1,11.9,8.9,22,20.7,23.6v23.9h5.7v-23.8C461.3,240.4,470.6,230,470.6,217.7"/>
	<path id="Fill-37" class="st15" d="M533.6,217.7c-0.1-13.3-10.9-23.9-24.1-23.9c-13.3,0.1-23.9,10.9-23.9,24.1
		c0.1,11.9,8.9,22,20.7,23.6v23.9h5.7v-23.8C524.3,240.4,533.6,230,533.6,217.7"/>
	<path id="Fill-39" class="st15" d="M594.6,217.7c-0.1-13.3-10.9-23.9-24.1-23.9c-13.3,0.1-23.9,10.9-23.9,24.1
		c0.1,11.9,8.9,22,20.7,23.6v23.9h5.7v-23.8C585.3,240.4,594.6,230,594.6,217.7"/>
	<path id="Fill-41" class="st15" d="M657.6,217.7c-0.1-13.3-10.9-23.9-24.1-23.9c-13.3,0.1-23.9,10.9-23.9,24.1
		c0.1,11.9,8.9,22,20.7,23.6v23.9h5.7v-23.8C648.3,240.4,657.6,230,657.6,217.7"/>
</g>
<g id="Group-15">
	<path id="Fill-43" class="st15" d="M95,426.8c-0.1-13.1-10.8-23.6-23.9-23.5S47.5,414,47.6,427.1c0.1,11.8,8.8,21.7,20.5,23.3v22.5
		h5.7v-22.4C85.8,449.2,95,439,95,426.8"/>
	<path id="Fill-46" class="st15" d="M158.6,426.7c-0.1-13.3-10.9-23.9-24.1-23.9s-23.9,10.9-23.9,24.1c0.1,11.9,8.9,22,20.7,23.6
		v22.9h5.7v-22.8C149.3,449.4,158.6,439,158.6,426.7"/>
	<path id="Fill-48" class="st15" d="M219.6,426.7c-0.1-13.3-10.9-23.9-24.1-23.9c-13.3,0.1-23.9,10.9-23.9,24.1
		c0.1,11.9,8.9,22,20.7,23.6v22.9h5.7v-22.8C210.3,449.4,219.6,439,219.6,426.7"/>
	<path id="Fill-50" class="st15" d="M282.6,426.7c-0.1-13.3-10.9-23.9-24.1-23.9c-13.3,0.1-23.9,10.9-23.9,24.1
		c0.1,11.9,8.9,22,20.7,23.6v22.9h5.7v-22.8C273.3,449.4,282.6,439,282.6,426.7"/>
	<path id="Fill-52" class="st15" d="M345.6,426.7c-0.1-13.3-10.9-23.9-24.1-23.9c-13.3,0.1-23.9,10.9-23.9,24.1
		c0.1,11.9,8.9,22,20.7,23.6v22.9h5.7v-22.8C336.3,449.4,345.6,439,345.6,426.7"/>
	<path id="Fill-54" class="st15" d="M407.6,426.7c-0.1-13.3-10.9-23.9-24.1-23.9c-13.3,0.1-23.9,10.9-23.9,24.1
		c0.1,11.9,8.9,22,20.7,23.6v22.9h5.7v-22.8C398.3,449.4,407.6,439,407.6,426.7"/>
	<path id="Fill-56" class="st15" d="M470.6,426.7c-0.1-13.3-10.9-23.9-24.1-23.9c-13.3,0.1-23.9,10.9-23.9,24.1
		c0.1,11.9,8.9,22,20.7,23.6v22.9h5.7v-22.8C461.3,449.4,470.6,439,470.6,426.7"/>
	<path id="Fill-58" class="st15" d="M533.6,426.7c-0.1-13.3-10.9-23.9-24.1-23.9c-13.3,0.1-23.9,10.9-23.9,24.1
		c0.1,11.9,8.9,22,20.7,23.6v22.9h5.7v-22.8C524.3,449.4,533.6,439,533.6,426.7"/>
	<path id="Fill-60" class="st15" d="M594.6,426.7c-0.1-13.3-10.9-23.9-24.1-23.9c-13.3,0.1-23.9,10.9-23.9,24.1
		c0.1,11.9,8.9,22,20.7,23.6v22.9h5.7v-22.8C585.3,449.4,594.6,439,594.6,426.7"/>
	<path id="Fill-62" class="st15" d="M657.6,426.7c-0.1-13.3-10.9-23.9-24.1-23.9c-13.3,0.1-23.9,10.9-23.9,24.1
		c0.1,11.9,8.9,22,20.7,23.6v22.9h5.7v-22.8C648.3,449.4,657.6,439,657.6,426.7"/>
</g>
<g id="Group-17">
	<path id="Fill-64" class="st15" d="M95,530.8c-0.2-13.1-11-23.5-24.1-23.3s-23.5,11-23.3,24.1c0.2,11.7,8.9,21.5,20.5,23.1v23.8
		h5.7v-23.7C85.9,553.4,95.1,543,95,530.8"/>
	<path id="Fill-67" class="st15" d="M158.6,530.7c-0.1-13.3-10.9-23.9-24.1-23.9s-23.9,10.9-23.9,24.1c0.1,11.9,8.9,22,20.7,23.6
		v23.9h5.7v-23.8C149.3,553.4,158.6,543,158.6,530.7"/>
	<path id="Fill-69" class="st15" d="M219.6,530.7c-0.1-13.3-10.9-23.9-24.1-23.9c-13.3,0.1-23.9,10.9-23.9,24.1
		c0.1,11.9,8.9,22,20.7,23.6v23.9h5.7v-23.8C210.3,553.4,219.6,543,219.6,530.7"/>
	<path id="Fill-71" class="st15" d="M282.6,530.7c-0.1-13.3-10.9-23.9-24.1-23.9c-13.3,0.1-23.9,10.9-23.9,24.1
		c0.1,11.9,8.9,22,20.7,23.6v23.9h5.7v-23.8C273.3,553.4,282.6,543,282.6,530.7"/>
	<path id="Fill-73" class="st15" d="M345.6,530.7c-0.1-13.3-10.9-23.9-24.1-23.9c-13.3,0.1-23.9,10.9-23.9,24.1
		c0.1,11.9,8.9,22,20.7,23.6v23.9h5.7v-23.8C336.3,553.4,345.6,543,345.6,530.7"/>
	<path id="Fill-75" class="st15" d="M407.6,530.7c-0.1-13.3-10.9-23.9-24.1-23.9c-13.3,0.1-23.9,10.9-23.9,24.1
		c0.1,11.9,8.9,22,20.7,23.6v23.9h5.7v-23.8C398.3,553.4,407.6,543,407.6,530.7"/>
	<path id="Fill-77" class="st15" d="M470.6,530.7c-0.1-13.3-10.9-23.9-24.1-23.9c-13.3,0.1-23.9,10.9-23.9,24.1
		c0.1,11.9,8.9,22,20.7,23.6v23.9h5.7v-23.8C461.3,553.4,470.6,543,470.6,530.7"/>
	<path id="Fill-79" class="st15" d="M533.6,530.7c-0.1-13.3-10.9-23.9-24.1-23.9s-23.9,10.9-23.9,24.1c0.1,11.9,8.9,22,20.7,23.6
		v23.9h5.7v-23.8C524.3,553.4,533.6,543,533.6,530.7"/>
	<path id="Fill-81" class="st15" d="M594.6,530.7c-0.1-13.3-10.9-23.9-24.1-23.9s-23.9,10.9-23.9,24.1c0.1,11.9,8.9,22,20.7,23.6
		v23.9h5.7v-23.8C585.3,553.4,594.6,543,594.6,530.7"/>
	<path id="Fill-83" class="st15" d="M657.6,530.7c-0.1-13.3-10.9-23.9-24.1-23.9s-23.9,10.9-23.9,24.1c0.1,11.9,8.9,22,20.7,23.6
		v23.9h5.7v-23.8C648.3,553.4,657.6,543,657.6,530.7"/>
</g>
<g id="Group-14">
	<path id="Fill-85" class="st15" d="M95,323c-0.1-13.1-10.8-23.6-23.9-23.5s-23.6,10.8-23.5,23.9c0.1,11.8,8.8,21.7,20.5,23.3v22.5
		h5.7v-22.4C85.8,345.4,95,335.2,95,323"/>
	<path id="Fill-88" class="st15" d="M158.6,322.7c-0.1-13.3-10.9-23.9-24.1-23.9s-23.9,10.9-23.9,24.1c0.1,11.9,8.9,22,20.7,23.6
		v22.9h5.7v-22.8C149.3,345.4,158.6,335,158.6,322.7"/>
	<path id="Fill-90" class="st15" d="M219.6,322.7c-0.1-13.3-10.9-23.9-24.1-23.9c-13.3,0.1-23.9,10.9-23.9,24.1
		c0.1,11.9,8.9,22,20.7,23.6v22.9h5.7v-22.8C210.3,345.4,219.6,335,219.6,322.7"/>
	<path id="Fill-92" class="st15" d="M282.6,322.7c-0.1-13.3-10.9-23.9-24.1-23.9c-13.3,0.1-23.9,10.9-23.9,24.1
		c0.1,11.9,8.9,22,20.7,23.6v22.9h5.7v-22.8C273.3,345.4,282.6,335,282.6,322.7"/>
	<path id="Fill-94" class="st15" d="M345.6,322.7c-0.1-13.3-10.9-23.9-24.1-23.9c-13.3,0.1-23.9,10.9-23.9,24.1
		c0.1,11.9,8.9,22,20.7,23.6v22.9h5.7v-22.8C336.3,345.4,345.6,335,345.6,322.7"/>
	<path id="Fill-96" class="st15" d="M407.6,322.7c-0.1-13.3-10.9-23.9-24.1-23.9c-13.3,0.1-23.9,10.9-23.9,24.1
		c0.1,11.9,8.9,22,20.7,23.6v22.9h5.7v-22.8C398.3,345.4,407.6,335,407.6,322.7"/>
	<path id="Fill-98" class="st15" d="M470.6,322.7c-0.1-13.3-10.9-23.9-24.1-23.9c-13.3,0.1-23.9,10.9-23.9,24.1
		c0.1,11.9,8.9,22,20.7,23.6v22.9h5.7v-22.8C461.3,345.4,470.6,335,470.6,322.7"/>
	<path id="Fill-100" class="st15" d="M533.6,322.7c-0.1-13.3-10.9-23.9-24.1-23.9c-13.3,0.1-23.9,10.9-23.9,24.1
		c0.1,11.9,8.9,22,20.7,23.6v22.9h5.7v-22.8C524.3,345.4,533.6,335,533.6,322.7"/>
	<path id="Fill-102" class="st15" d="M594.6,322.7c-0.1-13.3-10.9-23.9-24.1-23.9c-13.3,0.1-23.9,10.9-23.9,24.1
		c0.1,11.9,8.9,22,20.7,23.6v22.9h5.7v-22.8C585.3,345.4,594.6,335,594.6,322.7"/>
	<path id="Fill-104" class="st15" d="M657.6,322.7c-0.1-13.3-10.9-23.9-24.1-23.9c-13.3,0.1-23.9,10.9-23.9,24.1
		c0.1,11.9,8.9,22,20.7,23.6v22.9h5.7v-22.8C648.3,345.4,657.6,335,657.6,322.7"/>
</g>
</svg>
