<?xml version="1.0" encoding="utf-8"?>
<!-- Generator: Adobe Illustrator 24.0.1, SVG Export Plug-In . SVG Version: 6.00 Build 0)  -->
<svg version="1.1" id="Layer_1" xmlns="http://www.w3.org/2000/svg" xmlns:xlink="http://www.w3.org/1999/xlink" x="0px" y="0px"
	 viewBox="0 0 1407 421" style="enable-background:new 0 0 1407 421;" xml:space="preserve">
<style type="text/css">
	.st0{fill-rule:evenodd;clip-rule:evenodd;fill:#FFFFFF;}
	.st1{fill:none;stroke:#F5D032;stroke-width:4;}
	.st2{fill-rule:evenodd;clip-rule:evenodd;fill:#F5D032;}
	.st3{fill:none;stroke:#F5D032;stroke-width:2;stroke-linecap:round;}
	
		.st4{fill-rule:evenodd;clip-rule:evenodd;fill:#FFFFFF;stroke:#F5D032;stroke-width:4;stroke-linecap:round;stroke-linejoin:round;}
	.st5{fill:#FFFFFF;stroke:#F5D032;stroke-width:4;stroke-linecap:round;stroke-linejoin:round;}
	.st6{fill:none;stroke:#F5D032;stroke-width:4;stroke-linecap:round;stroke-linejoin:round;}
	.st7{fill-rule:evenodd;clip-rule:evenodd;fill:#528C9C;}
</style>
<title>5</title>
<path class="st0" d="M551.2,56.6C628.7-17.2,788.1-3.4,843,52c40.3,40.7,40.3,101.8,35,135c-9.1,56.7-72.4,133.1-27.7,162.8
	c44.8,29.6-63.6,71.2-150.5,71.2S492,370.1,492,249.8C492,161.5,513.7,92.3,551.2,56.6z"/>
<g id="Group-43">
	<polygon id="Fill-1" class="st0" points="719.5,334.6 717.2,365.8 702.5,365.9 697.5,333.9 	"/>
	<polygon id="Stroke-2" class="st1" points="719.5,334.6 717.2,365.8 702.5,365.9 697.5,333.9 	"/>
	<polygon id="Fill-3" class="st0" points="657.5,329.4 654.7,390.2 639.9,390.9 635.5,328.9 	"/>
	<polygon id="Stroke-4" class="st1" points="657.6,329.3 654.8,390.2 640.1,390.9 635.7,328.7 	"/>
	<path id="Fill-6" class="st2" d="M722.3,368.5c1.3-11.8-9.5-16.5-16.5-15.2c-5.2,0.9-10.6,13.3-9.3,18.6s4.5,9,12.4,9.6
		C714.2,381.9,721.1,379.9,722.3,368.5"/>
	<path id="Fill-8" class="st2" d="M659.6,383.6c1.2-14.6-9.6-20.2-16.6-18.5c-5.2,1.2-10.6,16.6-9.2,23.1s4.5,11,12.4,11.7
		C651.4,400.3,658.3,397.7,659.6,383.6"/>
	<path id="Fill-10" class="st0" d="M742.4,139.7c4.6-15.4,3.5-28.2-5.9-32.8S674.1,87.3,662.8,96s-3.5,54.1-0.2,59.4
		c3.5,5.8,5.3,18.4,5.7,23.6s-5.4,14.3-5.4,14.3l28.1,3c0,0,13.5-22.6,20.2-24.1c7.3-1.6,13.8-5.6,18.6-11.2
		C736.4,153.3,740.4,146.4,742.4,139.7"/>
	<path id="Stroke-12" class="st1" d="M742.4,139.7c4.6-15.4,3.5-28.2-5.9-32.8S674.1,87.3,662.8,96s-3.5,54.1-0.2,59.4
		c3.5,5.8,5.3,18.4,5.7,23.6s-5.4,14.3-5.4,14.3l28.1,3c0,0,13.5-22.6,20.2-24.1c7.3-1.6,13.8-5.6,18.6-11.2
		C736.4,153.2,740.4,146.4,742.4,139.7z"/>
	<g id="Group-16">
		<g>
			<path id="Fill-14" class="st2" d="M729.9,225.5c0,0,19,88.4,0.5,108.7c-18.8,20.7-93.9,21.8-111.9,0.5
				c-16.4-19.4,3.5-101.2,3.5-101.2s4-15.7,18.8-33c16.8-19.8,26.1-20,39.3-19.3c8.2,0.4,13-0.2,20.2-0.3s9.9,6.4,14.4,11.9
				C721.1,200.8,729.9,225.4,729.9,225.5"/>
		</g>
	</g>
	<g id="Group-19">
		<g>
			<path id="Fill-17" class="st2" d="M644.3,144.1c7.8,12.3,19.2,14.8,24,10.5c8.3-7.4,2.9-26.2,9.3-32.8s9.5,2.9,29.5,5.8
				c7.2,1,15.3-2.8,19.9-1.2s2.8,22.1,7.7,31.4c0.9,1.6,3.2,1.9,5.1,0.2c21.7-19.6,8.3-53-6.6-65.6c-21-15.7-45.3-19.8-65.6-8.1
				C647.6,95.6,634.6,128.9,644.3,144.1"/>
		</g>
	</g>
	<path id="Fill-20" class="st0" d="M675.4,145.9c-0.2-3.3-1.1-8.5-6.8-9.6s-9.7,0.5-10.9,6.5c-0.9,4.4,3.5,14.6,8.6,14.7
		s7.4-5.6,7.4-5.6S675.5,147.5,675.4,145.9"/>
	<path id="Fill-22" class="st0" d="M729.2,144.4c1.5-1.9,3.6-3.9,8.5-2.2s5.6,3.5,5,7.5c-0.5,3.1-6.6,6.6-11.4,5.1
		c-4.3-1.3-3.3-6.3-3.3-6.3S728.5,145.3,729.2,144.4"/>
	<path id="Stroke-24" class="st3" d="M703.1,159.3c-1.9,2.5-7,2.7-8.9,1.4c-1.1-0.7-2.1-1.7-2.8-2.8"/>
	<path id="Fill-26" class="st2" d="M711.4,147.6c-2.6-1.1-3.5,2.9-3.4,4.2c0.2,0.8,0.7,1.5,1.4,1.9c1.1,0.5,2.3,0.2,3.1-0.8
		c0.6-1.2,0.7-2.5,0.2-3.7C712.5,148.5,712,148,711.4,147.6"/>
	<path id="Fill-28" class="st2" d="M692.2,144.6c-1.6,0.1-2.9,1.3-3.2,2.9c-0.1,1.7,1.1,3.2,2.7,3.4c2,0.1,2.8-2.3,2.8-2.9
		C694.6,146.4,694.2,144.7,692.2,144.6"/>
	<polygon id="Fill-30" class="st4" points="722.5,225.5 680.6,232.3 638,225.5 628.2,287.2 675.3,291.9 722.5,276.2 	"/>
	<path id="Fill-32" class="st4" d="M625,231l-2.4,14.8c0,0-10.5,1.4-9.2,11.9c1.3,10.5,9.3,13.5,15.7,14.5s14-4.2,13.8-12.1
		c-0.1-6.7-8.7-10.7-8.7-10.7L628,223L625,231z"/>
	<path id="Stroke-38" class="st5" d="M729.5,229.4l1.9,16.3c0,0,10.5,1.4,9.2,11.9c-1.4,10.6-9.3,13.5-15.7,14.5s-14-4.2-13.8-12.1
		c0.1-6.7,8.7-10.7,8.7-10.7l5.8-29L729.5,229.4z"/>
	<line id="Stroke-40" class="st6" x1="680.6" y1="232.3" x2="675.3" y2="291.9"/>
</g>
<path id="Fill-1-2" class="st7" d="M812,248.9c-14.1,0-25.5,11.3-25.5,25.4l0,0l0,0c0,13,9.9,23.9,22.9,25.2l0,0v19.4h6.1v-19.5
	c12.6-1.7,22-12.4,22-25.1l0,0C837.5,260.2,826,248.9,812,248.9L812,248.9z"/>
<path id="Fill-1-Copy-3" class="st0" d="M962.9,248.9c-14.1,0-25.5,11.3-25.5,25.4l0,0l0,0c0,13,9.9,23.9,22.9,25.2l0,0v19.4h6.1
	v-19.5c12.6-1.7,22-12.4,22-25.1l0,0C988.4,260.2,976.9,248.9,962.9,248.9L962.9,248.9z"/>
<path id="Fill-1-Copy-12" class="st0" d="M143.7,248.9c-14.1,0-25.5,11.3-25.5,25.4l0,0l0,0c0,13,9.9,23.9,22.9,25.2l0,0v19.4h6.1
	v-19.5c12.6-1.7,22-12.4,22-25.1l0,0C169.2,260.2,157.7,248.9,143.7,248.9L143.7,248.9z"/>
<path id="Fill-1-Copy-2" class="st0" d="M887.4,248.9c-14.1,0-25.5,11.3-25.5,25.4l0,0l0,0c0,13,9.9,23.9,22.9,25.2l0,0v19.4h6.1
	v-19.5c12.6-1.7,22-12.4,22-25.1l0,0C912.9,260.2,901.4,248.9,887.4,248.9L887.4,248.9z"/>
<path id="Fill-1-Copy-4" class="st0" d="M1038.3,248.9c-14.1,0-25.5,11.3-25.5,25.4l0,0l0,0c0,13,9.9,23.9,22.9,25.2l0,0v19.4h6.1
	v-19.5c12.6-1.7,22-12.4,22-25.1l0,0C1063.8,260.2,1052.3,248.9,1038.3,248.9L1038.3,248.9z"/>
<path id="Fill-1-Copy-14" class="st0" d="M221.3,248.9c-14.1,0-25.5,11.3-25.5,25.4l0,0l0,0c0,13,9.9,23.9,22.9,25.2l0,0v19.4h6.1
	v-19.5c12.6-1.7,22-12.4,22-25.1l0,0C246.8,260.2,235.3,248.9,221.3,248.9L221.3,248.9z"/>
<path id="Fill-1-Copy-6" class="st0" d="M1113.7,248.9c-14.1,0-25.5,11.3-25.5,25.4l0,0l0,0c0,13,9.9,23.9,22.9,25.2l0,0v19.4h6.1
	v-19.5c12.6-1.7,22-12.4,22-25.1l0,0C1139.2,260.2,1127.7,248.9,1113.7,248.9L1113.7,248.9z"/>
<path id="Fill-1-Copy-15" class="st0" d="M299,248.9c-14.1,0-25.5,11.3-25.5,25.4l0,0l0,0c0,13,9.9,23.9,22.9,25.2l0,0v19.4h6.1
	v-19.5c12.6-1.7,22-12.4,22-25.1l0,0C324.5,260.2,313,248.9,299,248.9L299,248.9z"/>
<path id="Fill-1-Copy-5" class="st0" d="M1189.1,248.9c-14.1,0-25.5,11.3-25.5,25.4l0,0l0,0c0,13,9.9,23.9,22.9,25.2l0,0v19.4h6.1
	v-19.5c12.6-1.7,22-12.4,22-25.1l0,0C1214.6,260.2,1203.1,248.9,1189.1,248.9L1189.1,248.9z"/>
<path id="Fill-1-Copy-16" class="st0" d="M376.7,248.9c-14.1,0-25.5,11.3-25.5,25.4l0,0l0,0c0,13,9.9,23.9,22.9,25.2l0,0v19.4h6.1
	v-19.5c12.6-1.7,22-12.4,22-25.1l0,0C402.2,260.2,390.7,248.9,376.7,248.9L376.7,248.9z"/>
<path id="Fill-1-Copy-8" class="st0" d="M1264.6,248.9c-14.1,0-25.5,11.3-25.5,25.4l0,0l0,0c0,13,9.9,23.9,22.9,25.2l0,0v19.4h6.1
	v-19.5c12.6-1.7,22-12.4,22-25.1l0,0C1290.1,260.2,1278.6,248.9,1264.6,248.9L1264.6,248.9z"/>
<path id="Fill-1-Copy-17" class="st0" d="M454.3,248.9c-14.1,0-25.5,11.3-25.5,25.4l0,0l0,0c0,13,9.9,23.9,22.9,25.2l0,0v19.4h6.1
	v-19.5c12.6-1.7,22-12.4,22-25.1l0,0C479.8,260.2,468.3,248.9,454.3,248.9L454.3,248.9z"/>
<path id="Fill-1-Copy-18" class="st7" d="M532,248.9c-14.1,0-25.5,11.3-25.5,25.4l0,0l0,0c0,13,9.9,23.9,22.9,25.2l0,0v19.4h6.1
	v-19.5c12.6-1.7,22-12.4,22-25.1l0,0C557.5,260.2,546,248.9,532,248.9L532,248.9z"/>
<path id="Fill-1-Copy-10" class="st0" d="M1340,248.9c-14.1,0-25.5,11.3-25.5,25.4l0,0l0,0c0,13,9.9,23.9,22.9,25.2l0,0v19.4h6.1
	v-19.5c12.6-1.7,22-12.4,22-25.1l0,0C1365.5,260.2,1354,248.9,1340,248.9L1340,248.9z"/>
<path id="Fill-1-Copy-11" class="st0" d="M66,248.9c-14.1,0-25.5,11.3-25.5,25.4l0,0l0,0c0,13,9.9,23.9,22.9,25.2l0,0v19.4h6.1
	v-19.5c12.6-1.7,22-12.4,22-25.1l0,0C91.5,260.2,80,248.9,66,248.9L66,248.9z"/>
</svg>
