<?xml version="1.0" encoding="utf-8"?>
<!-- Generator: Adobe Illustrator 24.0.1, SVG Export Plug-In . SVG Version: 6.00 Build 0)  -->
<svg version="1.1" id="Layer_1" xmlns="http://www.w3.org/2000/svg" xmlns:xlink="http://www.w3.org/1999/xlink" x="0px" y="0px"
	 viewBox="0 0 721 346" style="enable-background:new 0 0 721 346;" xml:space="preserve">
<style type="text/css">
	.st0{fill:none;stroke:#A3D3DC;stroke-width:0.92;stroke-miterlimit:10;}
	.st1{fill:none;stroke:#528C9C;stroke-width:1.28;stroke-miterlimit:10;}
	.st2{fill:#A3D3DC;}
	.st3{fill:url(#SVGID_1_);}
	.st4{fill:url(#SVGID_2_);}
	.st5{enable-background:new    ;}
	.st6{fill:#528C9C;}
</style>
<title>Untitled-2</title>
<line class="st0" x1="10" y1="93.9" x2="10" y2="224.4"/>
<line class="st0" x1="76" y1="94.2" x2="76" y2="224.6"/>
<line class="st0" x1="142.1" y1="94.2" x2="142.1" y2="224.6"/>
<line class="st0" x1="208.1" y1="94.2" x2="208.1" y2="224.6"/>
<line class="st0" x1="274.2" y1="94.2" x2="274.2" y2="224.6"/>
<line class="st0" x1="406.3" y1="94.2" x2="406.3" y2="224.6"/>
<line class="st0" x1="472.3" y1="94.2" x2="472.3" y2="224.6"/>
<line class="st0" x1="538.4" y1="94.2" x2="538.4" y2="224.6"/>
<line class="st0" x1="604.4" y1="94.2" x2="604.4" y2="224.6"/>
<line class="st1" x1="562.1" y1="93.9" x2="562.1" y2="276.4"/>
<line class="st0" x1="340.2" y1="94.2" x2="340.2" y2="224.6"/>
<rect x="64.5" y="147.7" class="st2" width="43.8" height="23.4"/>
<rect x="9.4" y="43.4" class="st2" width="13" height="13.1"/>
<linearGradient id="SVGID_1_" gradientUnits="userSpaceOnUse" x1="161.95" y1="3193.95" x2="175.09" y2="3193.95" gradientTransform="matrix(1 0 0 1 0 -3144)">
	<stop  offset="0" style="stop-color:#F5D032"/>
	<stop  offset="9.000000e-02" style="stop-color:#F5D032;stop-opacity:0.95"/>
	<stop  offset="0.27" style="stop-color:#F5D032;stop-opacity:0.8"/>
	<stop  offset="0.5" style="stop-color:#F5D032;stop-opacity:0.57"/>
	<stop  offset="0.52" style="stop-color:#F5D032;stop-opacity:0.55"/>
	<stop  offset="0.71" style="stop-color:#F5D032;stop-opacity:0.34"/>
	<stop  offset="1" style="stop-color:#F5D032;stop-opacity:0"/>
</linearGradient>
<rect x="161.9" y="43.4" class="st3" width="13.1" height="13.1"/>
<linearGradient id="SVGID_2_" gradientUnits="userSpaceOnUse" x1="-6593.5103" y1="-2500.3301" x2="-6593.5103" y2="-3009.03" gradientTransform="matrix(6.123234e-17 1 -1 6.123234e-17 -2312.23 6752.9102)">
	<stop  offset="0" style="stop-color:#F5D032"/>
	<stop  offset="9.000000e-02" style="stop-color:#F5D032;stop-opacity:0.95"/>
	<stop  offset="0.27" style="stop-color:#F5D032;stop-opacity:0.8"/>
	<stop  offset="0.5" style="stop-color:#F5D032;stop-opacity:0.57"/>
	<stop  offset="0.52" style="stop-color:#F5D032;stop-opacity:0.55"/>
	<stop  offset="0.71" style="stop-color:#F5D032;stop-opacity:0.34"/>
	<stop  offset="1" style="stop-color:#F5D032;stop-opacity:0"/>
</linearGradient>
<rect x="188.1" y="147.7" class="st4" width="508.7" height="23.4"/>
<line class="st1" x1="247.8" y1="93.9" x2="247.8" y2="276.4"/>
<path class="st2" d="M529.5,243.8c0-0.9,0.5-1.7,1.2-2c-0.5-0.3-0.8-0.9-0.8-1.4c0-1,0.8-1.9,1.9-1.9h0.1c1-0.1,1.9,0.7,2,1.7
	c0,0.1,0,0.1,0,0.2c0,0.6-0.3,1.1-0.8,1.4c0.8,0.3,1.3,1.1,1.2,2c0,1.2-1,2.3-2.2,2.3c-0.1,0-0.2,0-0.2,0c-1.3,0.1-2.3-0.8-2.4-2.1
	C529.5,243.9,529.5,243.9,529.5,243.8z M533.6,243.8c0-0.9-0.6-1.6-1.5-1.6c-0.1,0-0.1,0-0.2,0c-0.9,0.1-1.5,0.8-1.5,1.7
	c0.1,0.9,0.8,1.5,1.7,1.5C533,245.3,533.6,244.6,533.6,243.8z M533.2,240.4c0-0.6-0.5-1.1-1.1-1.1H532c-0.6-0.1-1.2,0.4-1.3,1.1
	c0,0,0,0,0,0.1c0,0.7,0.6,1.2,1.2,1.2l0,0C532.6,241.6,533.2,241.1,533.2,240.4L533.2,240.4L533.2,240.4z"/>
<path class="st2" d="M535.5,243.4v-2.1c-0.1-1.4,1-2.6,2.4-2.7c1.4-0.1,2.6,1,2.7,2.4c0,0.1,0,0.2,0,0.3v2.1c0.1,1.4-1,2.6-2.4,2.7
	c-1.4,0.1-2.6-1-2.7-2.4C535.5,243.6,535.5,243.5,535.5,243.4z M539.9,243.4v-2.1c0.1-1-0.6-1.9-1.6-2s-1.9,0.6-2,1.6
	c0,0.1,0,0.3,0,0.4v2.1c-0.1,1,0.6,1.9,1.6,2s1.9-0.6,2-1.6C539.9,243.6,539.9,243.5,539.9,243.4z"/>
<path class="st2" d="M541.9,243.4v-2.1c0-1.4,1.1-2.6,2.5-2.6s2.6,1.1,2.6,2.5l0,0v2.1c0.1,1.4-0.9,2.7-2.3,2.8
	c-1.4,0.1-2.7-0.9-2.8-2.3C541.9,243.7,541.9,243.5,541.9,243.4z M546.3,243.4v-2.1c0.1-1-0.6-1.9-1.6-2s-1.9,0.6-2,1.6
	c0,0.1,0,0.3,0,0.4v2.1c-0.1,1,0.6,1.9,1.6,2s1.9-0.6,2-1.6C546.3,243.6,546.3,243.5,546.3,243.4z"/>
<path class="st2" d="M463.8,246l3.5-6.6h-3.9v-0.7h4.7v0.6l-3.5,6.7H463.8z"/>
<path class="st2" d="M468.9,243.4v-2.1c0-1.4,1.1-2.6,2.6-2.6c1.4,0,2.5,1.1,2.5,2.6v2.1c0.1,1.4-0.9,2.7-2.3,2.8s-2.7-0.9-2.8-2.3
	C468.9,243.7,468.9,243.5,468.9,243.4z M473.3,243.4v-2.1c0.1-1-0.6-1.9-1.6-2s-1.9,0.6-2,1.6c0,0.1,0,0.3,0,0.4v2.1
	c-0.1,1,0.6,1.9,1.6,2s1.9-0.6,2-1.6C473.3,243.6,473.3,243.5,473.3,243.4z"/>
<path class="st2" d="M475.3,243.4v-2.1c-0.1-1.4,1-2.6,2.4-2.7c1.4-0.1,2.6,1,2.7,2.4c0,0.1,0,0.2,0,0.3v2.1c0.1,1.4-1,2.6-2.4,2.7
	c-1.4,0.1-2.6-1-2.7-2.4C475.3,243.6,475.3,243.5,475.3,243.4z M479.7,243.4v-2.1c0.1-1-0.7-1.9-1.7-2s-1.9,0.7-2,1.7
	c0,0.1,0,0.2,0,0.3v2.1c-0.1,1,0.7,1.9,1.7,2s1.9-0.7,2-1.7C479.7,243.6,479.7,243.5,479.7,243.4z"/>
<path class="st2" d="M397.5,243.7c0-0.7,0.3-1.3,0.8-1.8l2.8-3.2h0.9l-2.4,2.7c0.1,0,0.3-0.1,0.4-0.1c1.3,0.1,2.3,1.1,2.3,2.4
	c0,1.4-1.1,2.5-2.5,2.5C398.6,246.1,397.5,245,397.5,243.7L397.5,243.7L397.5,243.7z M401.7,243.7c0-0.9-0.8-1.7-1.7-1.7
	c-0.9,0-1.7,0.8-1.7,1.7s0.8,1.7,1.7,1.7l0,0C400.9,245.4,401.7,244.7,401.7,243.7L401.7,243.7L401.7,243.7z"/>
<path class="st2" d="M403.5,243.4v-2.1c-0.1-1.4,1-2.6,2.4-2.7c1.4-0.1,2.6,1,2.7,2.4c0,0.1,0,0.2,0,0.3v2.1c0.1,1.4-1,2.6-2.4,2.7
	c-1.4,0.1-2.6-1-2.7-2.4C403.5,243.6,403.5,243.5,403.5,243.4z M407.9,243.4v-2.1c0.1-1-0.7-1.9-1.7-2s-1.9,0.7-2,1.7
	c0,0.1,0,0.2,0,0.3v2.1c-0.1,1,0.7,1.9,1.7,2s1.9-0.7,2-1.7C407.9,243.6,407.9,243.5,407.9,243.4z"/>
<path class="st2" d="M410,243.4v-2.1c0-1.4,1.1-2.6,2.5-2.6s2.6,1.1,2.6,2.6v2.1c0.1,1.4-0.9,2.7-2.3,2.8s-2.7-0.9-2.8-2.3
	C410,243.7,410,243.5,410,243.4z M414.4,243.4v-2.1c0.1-1-0.6-1.9-1.6-2s-1.9,0.6-2,1.6c0,0.1,0,0.3,0,0.4v2.1c-0.1,1,0.6,1.9,1.6,2
	s1.9-0.6,2-1.6C414.4,243.6,414.4,243.5,414.4,243.4z"/>
<path class="st2" d="M331.6,244h0.7c0.2,0.9,1.2,1.5,2.1,1.3c0.8-0.2,1.3-0.9,1.3-1.6c0-0.9-0.7-1.7-1.6-1.7H334
	c-0.6,0-1.1,0.3-1.5,0.7l-0.7-0.2l0.7-3.8h3.4v0.7h-2.8l-0.4,2.3c0.4-0.3,0.9-0.5,1.4-0.4c1.3,0,2.4,1.1,2.4,2.5
	c0,1.3-1.1,2.4-2.5,2.4C332.8,246.1,331.7,245.2,331.6,244z"/>
<path class="st2" d="M337.5,243.4v-2.1c0-1.4,1.1-2.6,2.5-2.6s2.6,1.1,2.6,2.6v2.1c0.1,1.4-0.9,2.7-2.3,2.8s-2.7-0.9-2.8-2.3
	C337.5,243.7,337.5,243.5,337.5,243.4z M341.9,243.4v-2.1c0.1-1-0.6-1.9-1.6-2s-1.9,0.6-2,1.6c0,0.1,0,0.3,0,0.4v2.1
	c-0.1,1,0.6,1.9,1.6,2s1.9-0.6,2-1.6C341.9,243.6,341.9,243.5,341.9,243.4z"/>
<path class="st2" d="M344,243.4v-2.1c0-1.4,1.1-2.6,2.5-2.6s2.6,1.1,2.6,2.6v2.1c0.1,1.4-0.9,2.7-2.3,2.8s-2.7-0.9-2.8-2.3
	C344,243.7,344,243.5,344,243.4z M348.4,243.4v-2.1c0.1-1-0.6-1.9-1.6-2s-1.9,0.6-2,1.6c0,0.1,0,0.3,0,0.4v2.1c-0.1,1,0.6,1.9,1.6,2
	s1.9-0.6,2-1.6C348.4,243.6,348.4,243.5,348.4,243.4z"/>
<path class="st2" d="M269.4,243.9h-4v-0.6l4.1-4.7h0.6v4.6h1v0.7h-1v2.1h-0.7V243.9z M269.4,239.8l-3,3.4h3V239.8z"/>
<path class="st2" d="M272.2,243.4v-2.1c0-1.4,1.1-2.6,2.6-2.6c1.4,0,2.5,1.1,2.5,2.6v2.1c0.1,1.4-0.9,2.7-2.3,2.8s-2.7-0.9-2.8-2.3
	C272.2,243.7,272.2,243.5,272.2,243.4z M276.6,243.4v-2.1c0.1-1-0.6-1.9-1.6-2s-1.9,0.6-2,1.6c0,0.1,0,0.3,0,0.4v2.1
	c-0.1,1,0.6,1.9,1.6,2s1.9-0.6,2-1.6C276.6,243.6,276.6,243.5,276.6,243.4z"/>
<path class="st2" d="M278.6,243.4v-2.1c0-1.4,1.1-2.6,2.5-2.6s2.6,1.1,2.6,2.6v2.1c0.1,1.4-0.9,2.7-2.3,2.8s-2.7-0.9-2.8-2.3
	C278.6,243.7,278.6,243.5,278.6,243.4z M283,243.4v-2.1c0.1-1-0.6-1.9-1.6-2s-1.9,0.6-2,1.6c0,0.1,0,0.3,0,0.4v2.1
	c-0.1,1,0.6,1.9,1.6,2s1.9-0.6,2-1.6C283,243.6,283,243.5,283,243.4z"/>
<path class="st2" d="M199.8,243.8h0.7c0.1,0.9,0.9,1.6,1.8,1.6c0.8,0.1,1.5-0.5,1.6-1.3c0-0.1,0-0.1,0-0.2c0-1-0.7-1.4-1.7-1.4h-0.5
	v-0.7h0.6c0.8,0.1,1.4-0.5,1.5-1.3l0,0c0-0.7-0.6-1.3-1.4-1.3h-0.1c-0.8-0.1-1.6,0.5-1.7,1.4c0,0.1,0,0.1,0,0.2H200
	c0-1.2,1-2.3,2.2-2.3c0.1,0,0.1,0,0.2,0c1.1-0.1,2.1,0.7,2.2,1.8c0,0.1,0,0.1,0,0.2c0,0.7-0.4,1.3-1,1.6c0.8,0.3,1.3,1,1.2,1.8
	c0,1.2-1,2.2-2.2,2.2c-0.1,0-0.1,0-0.2,0c-1.3,0.1-2.5-0.8-2.7-2.1C199.8,243.9,199.8,243.9,199.8,243.8z"/>
<path class="st2" d="M206,243.4v-2.1c-0.1-1.4,1-2.6,2.4-2.7s2.6,1,2.7,2.4c0,0.1,0,0.2,0,0.3v2.1c0.1,1.4-1,2.6-2.4,2.7
	s-2.6-1-2.7-2.4C206,243.6,206,243.5,206,243.4z M210.4,243.4v-2.1c0.1-1-0.7-1.9-1.7-2s-1.9,0.7-2,1.7c0,0.1,0,0.2,0,0.3v2.1
	c-0.1,1,0.7,1.9,1.7,2s1.9-0.7,2-1.7C210.4,243.6,210.4,243.5,210.4,243.4z"/>
<path class="st2" d="M212.4,243.4v-2.1c0-1.4,1.1-2.6,2.6-2.6s2.6,1.1,2.6,2.6v2.1c0.1,1.4-0.9,2.7-2.3,2.8
	c-1.4,0.1-2.7-0.9-2.8-2.3C212.4,243.7,212.4,243.5,212.4,243.4z M216.8,243.4v-2.1c0.1-1-0.6-1.9-1.6-2s-1.9,0.6-2,1.6
	c0,0.1,0,0.3,0,0.4v2.1c-0.1,1,0.6,1.9,1.6,2s1.9-0.6,2-1.6C216.8,243.6,216.8,243.5,216.8,243.4z"/>
<path class="st2" d="M138.6,246h-4.7v-0.3c0-1.6,1.4-2.3,2.5-3.1c0.9-0.7,1.4-1.1,1.4-2c0-0.7-0.6-1.4-1.3-1.4h-0.1
	c-0.8-0.1-1.6,0.6-1.6,1.4c0,0.1,0,0.1,0,0.2H134c0-1.2,0.9-2.3,2.2-2.3c0.1,0,0.1,0,0.2,0c1.1-0.1,2.1,0.7,2.2,1.8
	c0,0.1,0,0.2,0,0.3c0,1-0.5,1.6-1.7,2.6c-1,0.7-1.9,1.1-2,2.1h3.9L138.6,246z"/>
<path class="st2" d="M139.8,243.4v-2.1c0-1.4,1.1-2.6,2.6-2.6s2.6,1.1,2.6,2.6v2.1c0.1,1.4-0.9,2.7-2.3,2.8
	c-1.4,0.1-2.7-0.9-2.8-2.3C139.8,243.7,139.8,243.5,139.8,243.4z M144.2,243.4v-2.1c0.1-1-0.6-1.9-1.6-2s-1.9,0.6-2,1.6
	c0,0.1,0,0.3,0,0.4v2.1c-0.1,1,0.6,1.9,1.6,2s1.9-0.6,2-1.6C144.2,243.6,144.2,243.5,144.2,243.4z"/>
<path class="st2" d="M146.2,243.4v-2.1c0-1.4,1.1-2.6,2.6-2.6s2.6,1.1,2.6,2.6v2.1c0.1,1.4-0.9,2.7-2.3,2.8
	c-1.4,0.1-2.7-0.9-2.8-2.3C146.2,243.7,146.2,243.5,146.2,243.4z M150.6,243.4v-2.1c0.1-1-0.6-1.9-1.6-2s-1.9,0.6-2,1.6
	c0,0.1,0,0.3,0,0.4v2.1c-0.1,1,0.6,1.9,1.6,2s1.9-0.6,2-1.6C150.6,243.6,150.6,243.5,150.6,243.4z"/>
<path class="st2" d="M69,239.4h-1.4l0.6-0.7h1.5v7.4H69V239.4z"/>
<path class="st2" d="M71.3,243.4v-2.1c-0.1-1.4,1-2.6,2.4-2.7c1.4-0.1,2.6,1,2.7,2.4c0,0.1,0,0.2,0,0.3v2.1c0.1,1.4-1,2.6-2.4,2.7
	c-1.4,0.1-2.6-1-2.7-2.4C71.3,243.6,71.3,243.5,71.3,243.4z M75.7,243.4v-2.1c0.1-1-0.6-1.9-1.6-2s-1.9,0.6-2,1.6c0,0.1,0,0.3,0,0.4
	v2.1c-0.1,1,0.6,1.9,1.6,2s1.9-0.6,2-1.6C75.7,243.6,75.7,243.5,75.7,243.4z"/>
<path class="st2" d="M77.8,243.4v-2.1c0-1.4,1.1-2.6,2.5-2.6s2.6,1.1,2.6,2.5l0,0v2.1c0.1,1.4-0.9,2.7-2.3,2.8s-2.7-0.9-2.8-2.3
	C77.7,243.7,77.7,243.5,77.8,243.4z M82.1,243.4v-2.1c0.1-1-0.6-1.9-1.6-2s-1.9,0.6-2,1.6c0,0.1,0,0.3,0,0.4v2.1
	c-0.1,1,0.6,1.9,1.6,2s1.9-0.6,2-1.6C82.1,243.6,82.1,243.5,82.1,243.4z"/>
<path class="st2" d="M8.4,243.4v-2.1c-0.1-1.4,1-2.6,2.4-2.7s2.6,1,2.7,2.4c0,0.1,0,0.2,0,0.3v2.1c0.1,1.4-1,2.6-2.4,2.7
	s-2.6-1-2.7-2.4C8.4,243.6,8.4,243.5,8.4,243.4z M12.8,243.4v-2.1c0.1-1-0.7-1.9-1.7-2s-1.9,0.7-2,1.7c0,0.1,0,0.2,0,0.3v2.1
	c-0.1,1,0.7,1.9,1.7,2s1.9-0.7,2-1.7C12.8,243.6,12.8,243.5,12.8,243.4z"/>
<path class="st2" d="M598.1,243.3c-0.1,0-0.3,0.1-0.4,0.1c-1.3-0.1-2.3-1.1-2.3-2.4c0.1-1.4,1.3-2.4,2.6-2.3
	c1.2,0.1,2.2,1.1,2.3,2.3c0,0.7-0.3,1.4-0.8,1.8l-2.9,3.2h-0.9L598.1,243.3z M599.6,240.9c0-0.9-0.8-1.7-1.7-1.7s-1.7,0.8-1.7,1.7
	s0.8,1.7,1.7,1.7l0,0C598.8,242.7,599.6,241.9,599.6,240.9C599.6,241,599.6,241,599.6,240.9L599.6,240.9z"/>
<path class="st2" d="M601.3,243.4v-2.1c-0.1-1.4,1-2.6,2.4-2.7c1.4-0.1,2.6,1,2.7,2.4c0,0.1,0,0.2,0,0.3v2.1c0.1,1.4-1,2.6-2.4,2.7
	c-1.4,0.1-2.6-1-2.7-2.4C601.3,243.6,601.3,243.5,601.3,243.4z M605.7,243.4v-2.1c0.1-1-0.6-1.9-1.6-2s-1.9,0.6-2,1.6
	c0,0.1,0,0.3,0,0.4v2.1c-0.1,1,0.6,1.9,1.6,2s1.9-0.6,2-1.6C605.7,243.6,605.7,243.5,605.7,243.4z"/>
<path class="st2" d="M607.8,243.4v-2.1c0-1.4,1.1-2.6,2.5-2.6s2.6,1.1,2.6,2.5l0,0v2.1c0.1,1.4-0.9,2.7-2.3,2.8
	c-1.4,0.1-2.7-0.9-2.8-2.3C607.7,243.7,607.7,243.5,607.8,243.4z M612.1,243.4v-2.1c0.1-1-0.6-1.9-1.6-2s-1.9,0.6-2,1.6
	c0,0.1,0,0.3,0,0.4v2.1c-0.1,1,0.6,1.9,1.6,2s1.9-0.6,2-1.6C612.1,243.6,612.1,243.5,612.1,243.4z"/>
<g class="st5">
	<path class="st6" d="M10.2,12.5h2.3v6.1l5.7-6.1h3l-6.3,6.8l7.7,7.4h-3.2L12.5,20v6.6h-2.3V12.5z"/>
	<path class="st6" d="M24.7,14.5c-0.8,0-1.5-0.7-1.5-1.5c0-0.8,0.7-1.5,1.5-1.5c0.8,0,1.5,0.7,1.5,1.5
		C26.1,13.8,25.5,14.5,24.7,14.5z M23.6,16.7h2.2v10h-2.2V16.7z"/>
	<path class="st6" d="M28.7,16.7h2.2V18c0.6-1,1.7-1.6,3-1.6c2.3,0,3.8,1.6,3.8,4.2v6h-2.2V21c0-1.6-0.8-2.5-2.1-2.5
		c-1.5,0-2.6,1.1-2.6,3.3v4.9h-2.2V16.7z"/>
	<path class="st6" d="M44.7,16.5c1.4,0,2.6,0.7,3.2,1.5v-6.3h2.2v15h-2.2v-1.3c-0.6,0.8-1.8,1.5-3.2,1.5c-2.7,0-4.8-2.3-4.8-5.2
		S42,16.5,44.7,16.5z M45.1,18.5c-1.8,0-3,1.4-3,3.2c0,1.8,1.2,3.2,3,3.2c1.8,0,3-1.4,3-3.2C48.1,19.9,46.9,18.5,45.1,18.5z"/>
	<path class="st6" d="M57.5,26.9c-3,0-5.1-2.2-5.1-5.2c0-3,2.1-5.2,5.1-5.2c3.1,0,5.2,2.3,5,5.7h-8c0.1,1.5,1.2,2.7,3,2.7
		c1.1,0,2.1-0.4,2.5-1.4h2.3C61.8,25.4,60,26.9,57.5,26.9z M54.6,20.7h5.5c-0.3-1.6-1.5-2.3-2.7-2.3C56.1,18.3,54.9,19.1,54.6,20.7z
		"/>
	<path class="st6" d="M64.8,16.7H67v1.8c0.4-1.1,1.5-1.9,2.6-1.9c0.3,0,0.6,0,0.9,0.1v2.3c-0.4-0.1-0.7-0.2-1.1-0.2
		c-1.3,0-2.4,1.1-2.4,3.1v4.9h-2.2V16.7z"/>
	<path class="st6" d="M73.9,27.5c0.4,1.2,1.4,1.7,2.8,1.7c1.5,0,2.7-1,2.7-2.9v-1.2c-0.6,0.9-1.8,1.6-3.2,1.6
		c-2.7,0-4.8-2.2-4.8-5.1c0-2.8,2.1-5.1,4.8-5.1c1.4,0,2.6,0.7,3.2,1.5v-1.3h2.2v9.4c0,3.5-2.3,5-5,5c-2.7,0-4.6-1.5-4.9-3.6H73.9z
		 M76.6,18.5c-1.7,0-3,1.3-3,3.1c0,1.8,1.3,3.1,3,3.1c1.7,0,3-1.3,3-3.1C79.5,19.8,78.3,18.5,76.6,18.5z"/>
	<path class="st6" d="M88.6,16.5c1.4,0,2.6,0.7,3.2,1.5v-1.3H94v10h-2.2v-1.3c-0.6,0.8-1.8,1.5-3.2,1.5c-2.7,0-4.8-2.3-4.8-5.2
		S85.9,16.5,88.6,16.5z M89,18.5c-1.8,0-3,1.4-3,3.2c0,1.8,1.2,3.2,3,3.2c1.8,0,3-1.4,3-3.2C92,19.9,90.8,18.5,89,18.5z"/>
	<path class="st6" d="M97,16.7h2.2v1.8c0.4-1.1,1.5-1.9,2.6-1.9c0.3,0,0.6,0,0.9,0.1v2.3c-0.4-0.1-0.7-0.2-1.1-0.2
		c-1.3,0-2.4,1.1-2.4,3.1v4.9H97V16.7z"/>
	<path class="st6" d="M108.9,26.8c-1.9,0-3.4-1.1-3.4-3.3v-4.8h-2.1v-2h2.1v-2.8h2.2v2.8h2.9v2h-2.9v4.5c0,1.2,0.5,1.7,1.7,1.7
		c0.4,0,0.9-0.1,1.2-0.2v2C110.1,26.7,109.6,26.8,108.9,26.8z"/>
	<path class="st6" d="M116.9,26.9c-3,0-5.1-2.2-5.1-5.2c0-3,2.1-5.2,5.1-5.2c3.1,0,5.2,2.3,5,5.7h-8c0.1,1.5,1.2,2.7,3,2.7
		c1.1,0,2.1-0.4,2.5-1.4h2.3C121.3,25.4,119.5,26.9,116.9,26.9z M114.1,20.7h5.5c-0.3-1.6-1.5-2.3-2.7-2.3
		C115.5,18.3,114.4,19.1,114.1,20.7z"/>
	<path class="st6" d="M124.2,16.7h2.2V18c0.6-1,1.7-1.6,3-1.6c2.3,0,3.8,1.6,3.8,4.2v6h-2.2V21c0-1.6-0.8-2.5-2.1-2.5
		c-1.5,0-2.6,1.1-2.6,3.3v4.9h-2.2V16.7z"/>
	<path class="st6" d="M143.2,14.7h-4.1v-2.2h10.6v2.2h-4.1v12h-2.3V14.7z"/>
	<path class="st6" d="M149.7,16.7h2.2v5.6c0,1.6,0.7,2.6,2,2.6c1.4,0,2.4-1.1,2.4-3.3v-4.9h2.2v10h-2.2v-1.4c-0.6,1-1.6,1.6-2.9,1.6
		c-2.3,0-3.7-1.7-3.7-4.2V16.7z"/>
	<path class="st6" d="M162.6,14.5c-0.8,0-1.5-0.7-1.5-1.5c0-0.8,0.7-1.5,1.5-1.5c0.8,0,1.5,0.7,1.5,1.5
		C164.1,13.8,163.4,14.5,162.6,14.5z M161.5,16.7h2.2v10h-2.2V16.7z"/>
	<path class="st6" d="M171,26.8c-1.9,0-3.4-1.1-3.4-3.3v-4.8h-2.1v-2h2.1v-2.8h2.2v2.8h2.9v2h-2.9v4.5c0,1.2,0.5,1.7,1.7,1.7
		c0.4,0,0.9-0.1,1.2-0.2v2C172.2,26.7,171.7,26.8,171,26.8z"/>
	<path class="st6" d="M175.8,14.5c-0.8,0-1.5-0.7-1.5-1.5c0-0.8,0.7-1.5,1.5-1.5c0.8,0,1.5,0.7,1.5,1.5
		C177.3,13.8,176.7,14.5,175.8,14.5z M174.7,16.7h2.2v10h-2.2V16.7z"/>
	<path class="st6" d="M184.4,26.9c-3,0-5.2-2.3-5.2-5.2s2.3-5.2,5.2-5.2c3,0,5.2,2.3,5.2,5.2S187.4,26.9,184.4,26.9z M184.4,24.8
		c1.8,0,3-1.4,3-3.2s-1.2-3.2-3-3.2c-1.8,0-3,1.4-3,3.2S182.6,24.8,184.4,24.8z"/>
	<path class="st6" d="M191.9,16.7h2.2V18c0.6-1,1.7-1.6,3-1.6c2.3,0,3.8,1.6,3.8,4.2v6h-2.2V21c0-1.6-0.8-2.5-2.1-2.5
		c-1.5,0-2.6,1.1-2.6,3.3v4.9h-2.2V16.7z"/>
	<path class="st6" d="M208.7,12.5h8.4v2.2h-6.1v3.7h4.8v2.2h-4.8v6.1h-2.3V12.5z"/>
	<path class="st6" d="M222.7,26.9c-3,0-5.1-2.2-5.1-5.2c0-3,2.1-5.2,5.1-5.2c3.1,0,5.2,2.3,5,5.7h-8c0.1,1.5,1.2,2.7,3,2.7
		c1.1,0,2.1-0.4,2.5-1.4h2.3C227.1,25.4,225.3,26.9,222.7,26.9z M219.9,20.7h5.5c-0.3-1.6-1.5-2.3-2.7-2.3
		C221.3,18.3,220.2,19.1,219.9,20.7z"/>
	<path class="st6" d="M234.4,26.9c-3,0-5.1-2.2-5.1-5.2c0-3,2.1-5.2,5.1-5.2c3.1,0,5.2,2.3,5,5.7h-8c0.1,1.5,1.2,2.7,3,2.7
		c1.1,0,2.1-0.4,2.5-1.4h2.3C238.8,25.4,237,26.9,234.4,26.9z M231.6,20.7h5.5c-0.3-1.6-1.5-2.3-2.7-2.3
		C233,18.3,231.9,19.1,231.6,20.7z"/>
</g>
<g class="st5">
	<path class="st6" d="M249.6,20.4h1.5c0-0.3,0-0.6,0-0.8c0-0.3,0-0.6,0-0.9h-2l0.5-1.1h1.7c0.8-3.2,3.7-5.4,7.1-5.4
		c3,0,5.6,1.7,6.7,4.4h-2.5c-0.9-1.5-2.4-2.3-4.2-2.3c-2.3,0-4.1,1.3-4.8,3.2h7.8l-0.5,1.1h-7.6c0,0.3-0.1,0.6-0.1,0.9
		c0,0.3,0,0.6,0.1,0.8h6.9l-0.4,1.1h-6.2c0.7,1.9,2.5,3.2,4.8,3.2c1.8,0,3.3-0.8,4.2-2.3h2.5c-1.1,2.8-3.7,4.4-6.7,4.4
		c-3.5,0-6.3-2.2-7.1-5.4h-2.2L249.6,20.4z"/>
</g>
<g class="st5">
	<path class="st6" d="M276.6,12.5h2l-7.7,16.4h-2L276.6,12.5z"/>
</g>
<g class="st5">
	<path class="st6" d="M284.6,16.5v10.2h-2.3V12.5h2.1l5,6.7l5-6.7h2.1v14.2h-2.4V16.5l-4.7,6.4L284.6,16.5z"/>
	<path class="st6" d="M304,26.9c-3,0-5.2-2.3-5.2-5.2s2.3-5.2,5.2-5.2c3,0,5.2,2.3,5.2,5.2S307,26.9,304,26.9z M304,24.8
		c1.8,0,3-1.4,3-3.2s-1.2-3.2-3-3.2c-1.8,0-3,1.4-3,3.2S302.3,24.8,304,24.8z"/>
	<path class="st6" d="M311.5,16.7h2.2V18c0.6-1,1.7-1.6,3-1.6c2.3,0,3.8,1.6,3.8,4.2v6h-2.2V21c0-1.6-0.8-2.5-2.1-2.5
		c-1.5,0-2.6,1.1-2.6,3.3v4.9h-2.2V16.7z"/>
	<path class="st6" d="M327.6,26.8c-1.9,0-3.4-1.1-3.4-3.3v-4.8h-2.1v-2h2.1v-2.8h2.2v2.8h2.9v2h-2.9v4.5c0,1.2,0.5,1.7,1.7,1.7
		c0.4,0,0.9-0.1,1.2-0.2v2C328.8,26.7,328.3,26.8,327.6,26.8z"/>
	<path class="st6" d="M331.3,11.7h2.2V18c0.6-1,1.7-1.6,3-1.6c2.3,0,3.8,1.6,3.8,4.2v6h-2.2V21c0-1.6-0.8-2.5-2.1-2.5
		c-1.5,0-2.6,1.1-2.6,3.3v4.9h-2.2V11.7z"/>
</g>
<g class="st5">
	<path class="st6" d="M27.1,44.7h3.1c1.7,0,2.7,1,2.7,2.5c0,1.3-0.9,2.3-2.3,2.5l3.5,4.2h-1.5l-3.5-4.2h-0.9v4.2h-1.2V44.7z
		 M30.1,48.6c1.1,0,1.7-0.5,1.7-1.4c0-0.9-0.6-1.4-1.7-1.4h-1.8v2.8H30.1z"/>
	<path class="st6" d="M35,47.4h1.1v3.8c0,1.1,0.6,1.8,1.5,1.8c1,0,1.8-0.9,1.8-2.4v-3.2h1.1v6.5h-1.1v-1c-0.4,0.8-1.2,1.1-2,1.1
		c-1.4,0-2.4-1-2.4-2.6V47.4z"/>
	<path class="st6" d="M42.6,47.4h1.1v1c0.4-0.8,1.2-1.1,2.1-1.1c1.5,0,2.5,1,2.5,2.6v4h-1.1V50c0-1.1-0.6-1.8-1.5-1.8
		c-1.1,0-1.9,0.9-1.9,2.4v3.2h-1.1V47.4z"/>
	<path class="st6" d="M54.5,53.9h-1.1v-9.7h1.1v4.2c0.4-0.6,1.3-1.1,2.3-1.1c1.8,0,3.2,1.5,3.2,3.4c0,1.9-1.4,3.4-3.2,3.4
		c-1,0-1.9-0.5-2.3-1.1V53.9z M56.6,48.3c-1.3,0-2.2,1-2.2,2.3c0,1.3,0.9,2.3,2.2,2.3c1.3,0,2.2-1,2.2-2.3
		C58.8,49.3,57.9,48.3,56.6,48.3z"/>
	<path class="st6" d="M61.9,56.6l1.4-3l-2.8-6.1h1.2l2.2,4.9l2.2-4.9h1.2l-4.3,9.2H61.9z"/>
	<path class="st6" d="M75.6,44.5c2.2,0,3.8,1.3,4.4,2.9h-1.3c-0.5-1-1.6-1.7-3-1.7c-2,0-3.6,1.6-3.6,3.6s1.5,3.6,3.6,3.6
		c1.9,0,3.2-1.3,3.4-3.2h-3.4v-1.1h4.7c0.3,3.4-1.9,5.4-4.6,5.4c-2.7,0-4.8-2.1-4.8-4.8S72.9,44.5,75.6,44.5z"/>
	<path class="st6" d="M84.8,54c-2,0-3.4-1.5-3.4-3.4c0-1.9,1.4-3.4,3.4-3.4c1.9,0,3.4,1.5,3.4,3.4C88.2,52.5,86.7,54,84.8,54z
		 M84.8,53c1.3,0,2.2-1,2.2-2.3s-0.9-2.3-2.2-2.3c-1.3,0-2.3,1-2.3,2.3S83.4,53,84.8,53z"/>
	<path class="st6" d="M88.6,47.4h1.2l2.2,4.9l2.2-4.9h1.2l-3,6.5h-0.9L88.6,47.4z"/>
	<path class="st6" d="M99.3,54c-1.9,0-3.3-1.4-3.3-3.4c0-1.9,1.3-3.4,3.3-3.4c2,0,3.3,1.7,3.1,3.7h-5.3c0,1.2,1,2.1,2.2,2.1
		c0.8,0,1.5-0.3,1.9-1.1h1.1C102,53,100.9,54,99.3,54z M97.2,50h4c-0.2-1.2-1-1.8-2-1.8C98.4,48.2,97.4,48.8,97.2,50z"/>
	<path class="st6" d="M104,47.4h1.1v1.3c0.3-0.8,1.1-1.3,1.8-1.3c0.2,0,0.3,0,0.5,0.1v1.2c-0.2-0.1-0.4-0.1-0.6-0.1
		c-0.8,0-1.7,0.7-1.7,2.2v3.2H104V47.4z"/>
	<path class="st6" d="M108.8,47.4h1.1v1c0.4-0.8,1.2-1.1,2.1-1.1c1.5,0,2.5,1,2.5,2.6v4h-1.1V50c0-1.1-0.6-1.8-1.5-1.8
		c-1.1,0-1.9,0.9-1.9,2.4v3.2h-1.1V47.4z"/>
	<path class="st6" d="M116.4,47.4h1.1v1c0.4-0.7,1.1-1.1,2-1.1c1,0,1.7,0.5,2,1.4c0.4-0.9,1.2-1.4,2.1-1.4c1.4,0,2.3,1,2.3,2.6v4
		h-1.1V50c0-1-0.4-1.8-1.3-1.8c-1.1,0-1.8,0.9-1.8,2.4v3.2h-1.1V50c0-1-0.4-1.8-1.3-1.8c-1.1,0-1.8,0.9-1.8,2.4v3.2h-1.1V47.4z"/>
	<path class="st6" d="M130.7,54c-1.9,0-3.3-1.4-3.3-3.4c0-1.9,1.3-3.4,3.3-3.4c2,0,3.3,1.7,3.1,3.7h-5.3c0,1.2,1,2.1,2.2,2.1
		c0.8,0,1.5-0.3,1.9-1.1h1.1C133.4,53,132.3,54,130.7,54z M128.6,50h4c-0.2-1.2-1-1.8-2-1.8C129.7,48.2,128.8,48.8,128.6,50z"/>
	<path class="st6" d="M135.4,47.4h1.1v1c0.4-0.8,1.2-1.1,2.1-1.1c1.5,0,2.5,1,2.5,2.6v4h-1.1V50c0-1.1-0.6-1.8-1.5-1.8
		c-1.1,0-1.9,0.9-1.9,2.4v3.2h-1.1V47.4z"/>
	<path class="st6" d="M145.5,53.9c-1.1,0-2-0.6-2-2v-3.5h-1.4v-1h1.4v-1.8h1.1v1.8h1.9v1h-1.9v3.4c0,0.8,0.4,1.1,1.1,1.1
		c0.3,0,0.6-0.1,0.8-0.1v1C146.2,53.9,145.9,53.9,145.5,53.9z"/>
</g>
<g class="st5">
	<path class="st6" d="M181.5,44.7h3.1c1.7,0,2.7,1,2.7,2.5c0,1.3-0.9,2.3-2.3,2.5l3.5,4.2h-1.5l-3.5-4.2h-0.9v4.2h-1.2V44.7z
		 M184.5,48.6c1.1,0,1.7-0.5,1.7-1.4c0-0.9-0.6-1.4-1.7-1.4h-1.8v2.8H184.5z"/>
	<path class="st6" d="M189.4,47.4h1.1v3.8c0,1.1,0.6,1.8,1.5,1.8c1,0,1.8-0.9,1.8-2.4v-3.2h1.1v6.5h-1.1v-1c-0.4,0.8-1.2,1.1-2,1.1
		c-1.4,0-2.4-1-2.4-2.6V47.4z"/>
	<path class="st6" d="M197,47.4h1.1v1c0.4-0.8,1.2-1.1,2.1-1.1c1.5,0,2.5,1,2.5,2.6v4h-1.1V50c0-1.1-0.6-1.8-1.5-1.8
		c-1.1,0-1.9,0.9-1.9,2.4v3.2H197V47.4z"/>
	<path class="st6" d="M208.9,53.9h-1.1v-9.7h1.1v4.2c0.4-0.6,1.3-1.1,2.3-1.1c1.8,0,3.2,1.5,3.2,3.4c0,1.9-1.4,3.4-3.2,3.4
		c-1,0-1.9-0.5-2.3-1.1V53.9z M211,48.3c-1.3,0-2.2,1-2.2,2.3c0,1.3,0.9,2.3,2.2,2.3c1.3,0,2.2-1,2.2-2.3
		C213.2,49.3,212.3,48.3,211,48.3z"/>
	<path class="st6" d="M216.3,56.6l1.4-3l-2.8-6.1h1.2l2.2,4.9l2.2-4.9h1.2l-4.3,9.2H216.3z"/>
	<path class="st6" d="M232.7,53.9l-5.6-7.2v7.2h-1.2v-9.2h1.1l5.6,7.2v-7.2h1.2v9.2H232.7z"/>
	<path class="st6" d="M238.8,54c-2,0-3.4-1.5-3.4-3.4c0-1.9,1.4-3.4,3.4-3.4c1.9,0,3.4,1.5,3.4,3.4C242.2,52.5,240.7,54,238.8,54z
		 M238.8,53c1.3,0,2.2-1,2.2-2.3s-0.9-2.3-2.2-2.3c-1.3,0-2.3,1-2.3,2.3S237.4,53,238.8,53z"/>
	<path class="st6" d="M243.8,47.4h1.1v1c0.4-0.8,1.2-1.1,2.1-1.1c1.5,0,2.5,1,2.5,2.6v4h-1.1V50c0-1.1-0.6-1.8-1.5-1.8
		c-1.1,0-1.9,0.9-1.9,2.4v3.2h-1.1V47.4z"/>
	<path class="st6" d="M251.2,49.7h3.3v1.1h-3.3V49.7z"/>
	<path class="st6" d="M260.7,44.5c2.2,0,3.8,1.3,4.4,2.9h-1.3c-0.5-1-1.6-1.7-3-1.7c-2,0-3.6,1.6-3.6,3.6s1.5,3.6,3.6,3.6
		c1.9,0,3.2-1.3,3.4-3.2h-3.4v-1.1h4.7c0.3,3.4-1.9,5.4-4.6,5.4c-2.7,0-4.8-2.1-4.8-4.8S258,44.5,260.7,44.5z"/>
	<path class="st6" d="M269.9,54c-2,0-3.4-1.5-3.4-3.4c0-1.9,1.4-3.4,3.4-3.4c1.9,0,3.4,1.5,3.4,3.4C273.2,52.5,271.8,54,269.9,54z
		 M269.9,53c1.3,0,2.2-1,2.2-2.3s-0.9-2.3-2.2-2.3c-1.3,0-2.3,1-2.3,2.3S268.5,53,269.9,53z"/>
	<path class="st6" d="M273.7,47.4h1.2l2.2,4.9l2.2-4.9h1.2l-3,6.5h-0.9L273.7,47.4z"/>
	<path class="st6" d="M284.4,54c-1.9,0-3.3-1.4-3.3-3.4c0-1.9,1.3-3.4,3.3-3.4c2,0,3.3,1.7,3.1,3.7h-5.3c0,1.2,1,2.1,2.2,2.1
		c0.8,0,1.5-0.3,1.9-1.1h1.1C287.1,53,286,54,284.4,54z M282.3,50h4c-0.2-1.2-1-1.8-2-1.8C283.4,48.2,282.5,48.8,282.3,50z"/>
	<path class="st6" d="M289.1,47.4h1.1v1.3c0.3-0.8,1.1-1.3,1.8-1.3c0.2,0,0.3,0,0.5,0.1v1.2c-0.2-0.1-0.4-0.1-0.6-0.1
		c-0.8,0-1.7,0.7-1.7,2.2v3.2h-1.1V47.4z"/>
	<path class="st6" d="M293.9,47.4h1.1v1c0.4-0.8,1.2-1.1,2.1-1.1c1.5,0,2.5,1,2.5,2.6v4h-1.1V50c0-1.1-0.6-1.8-1.5-1.8
		c-1.1,0-1.9,0.9-1.9,2.4v3.2h-1.1V47.4z"/>
	<path class="st6" d="M301.5,47.4h1.1v1c0.4-0.7,1.1-1.1,2-1.1c1,0,1.7,0.5,2,1.4c0.4-0.9,1.2-1.4,2.1-1.4c1.4,0,2.3,1,2.3,2.6v4
		h-1.1V50c0-1-0.4-1.8-1.3-1.8c-1.1,0-1.8,0.9-1.8,2.4v3.2h-1.1V50c0-1-0.4-1.8-1.3-1.8c-1.1,0-1.8,0.9-1.8,2.4v3.2h-1.1V47.4z"/>
	<path class="st6" d="M315.8,54c-1.9,0-3.3-1.4-3.3-3.4c0-1.9,1.3-3.4,3.3-3.4c2,0,3.3,1.7,3.1,3.7h-5.3c0,1.2,1,2.1,2.2,2.1
		c0.8,0,1.5-0.3,1.9-1.1h1.1C318.5,53,317.4,54,315.8,54z M313.7,50h4c-0.2-1.2-1-1.8-2-1.8C314.8,48.2,313.9,48.8,313.7,50z"/>
	<path class="st6" d="M320.5,47.4h1.1v1c0.4-0.8,1.2-1.1,2.1-1.1c1.5,0,2.5,1,2.5,2.6v4H325V50c0-1.1-0.6-1.8-1.5-1.8
		c-1.1,0-1.9,0.9-1.9,2.4v3.2h-1.1V47.4z"/>
	<path class="st6" d="M330.6,53.9c-1.1,0-2-0.6-2-2v-3.5h-1.4v-1h1.4v-1.8h1.1v1.8h1.9v1h-1.9v3.4c0,0.8,0.4,1.1,1.1,1.1
		c0.3,0,0.6-0.1,0.8-0.1v1C331.3,53.9,331,53.9,330.6,53.9z"/>
</g>
<g class="st5">
	<path class="st6" d="M184.6,287.7v6.6h-1.1v-8.5h1l3.2,4.2l3.2-4.2h1v8.5h-1.1v-6.6l-3.1,4.1L184.6,287.7z"/>
	<path class="st6" d="M194.4,286.7c-0.4,0-0.7-0.3-0.7-0.7c0-0.4,0.3-0.7,0.7-0.7s0.7,0.3,0.7,0.7
		C195.1,286.4,194.8,286.7,194.4,286.7z M193.9,288.3h1v6h-1V288.3z"/>
	<path class="st6" d="M196.9,288.3h1v0.9c0.4-0.7,1.1-1,1.9-1c1.3,0,2.3,0.9,2.3,2.4v3.7h-1v-3.5c0-1-0.6-1.6-1.4-1.6
		c-1,0-1.7,0.8-1.7,2.2v3h-1V288.3z"/>
	<path class="st6" d="M204.5,286.7c-0.4,0-0.7-0.3-0.7-0.7c0-0.4,0.3-0.7,0.7-0.7s0.7,0.3,0.7,0.7
		C205.2,286.4,204.9,286.7,204.5,286.7z M203.9,288.3h1v6h-1V288.3z"/>
	<path class="st6" d="M206.9,288.3h1v0.9c0.3-0.6,1-1,1.8-1c0.9,0,1.5,0.5,1.8,1.3c0.3-0.8,1.1-1.3,2-1.3c1.3,0,2.1,1,2.1,2.4v3.7
		h-1v-3.5c0-1-0.4-1.6-1.2-1.6c-1,0-1.6,0.8-1.6,2.2v3h-1v-3.5c0-1-0.4-1.6-1.2-1.6c-1,0-1.7,0.8-1.7,2.2v3h-1V288.3z"/>
	<path class="st6" d="M217.5,288.3h1v3.5c0,1,0.5,1.6,1.4,1.6c0.9,0,1.7-0.8,1.7-2.2v-3h1v6h-1v-0.9c-0.4,0.7-1.1,1-1.8,1
		c-1.3,0-2.2-0.9-2.2-2.4V288.3z"/>
	<path class="st6" d="M224.5,288.3h1v0.9c0.3-0.6,1-1,1.8-1c0.9,0,1.5,0.5,1.8,1.3c0.3-0.8,1.1-1.3,2-1.3c1.3,0,2.1,1,2.1,2.4v3.7
		h-1v-3.5c0-1-0.4-1.6-1.2-1.6c-1,0-1.6,0.8-1.6,2.2v3h-1v-3.5c0-1-0.4-1.6-1.2-1.6c-1,0-1.7,0.8-1.7,2.2v3h-1V288.3z"/>
	<path class="st6" d="M238,285.3h1v9h-1V285.3z"/>
	<path class="st6" d="M241.5,286.7c-0.4,0-0.7-0.3-0.7-0.7c0-0.4,0.3-0.7,0.7-0.7s0.7,0.3,0.7,0.7
		C242.2,286.4,241.9,286.7,241.5,286.7z M241,288.3h1v6h-1V288.3z"/>
	<path class="st6" d="M243.1,288.3h1.2l2.1,4.5l2.1-4.5h1.2l-2.8,6h-0.9L243.1,288.3z"/>
	<path class="st6" d="M251.1,286.7c-0.4,0-0.7-0.3-0.7-0.7c0-0.4,0.3-0.7,0.7-0.7s0.7,0.3,0.7,0.7
		C251.8,286.4,251.5,286.7,251.1,286.7z M250.5,288.3h1v6h-1V288.3z"/>
	<path class="st6" d="M253.5,288.3h1v0.9c0.4-0.7,1.1-1,1.9-1c1.3,0,2.3,0.9,2.3,2.4v3.7h-1v-3.5c0-1-0.6-1.6-1.4-1.6
		c-1,0-1.7,0.8-1.7,2.2v3h-1V288.3z"/>
	<path class="st6" d="M261.3,294.9c0.3,0.8,0.9,1.2,1.9,1.2c1.1,0,1.9-0.7,1.9-2.1v-0.7c-0.4,0.6-1.2,1.1-2.1,1.1
		c-1.7,0-2.9-1.3-2.9-3.1c0-1.7,1.3-3,2.9-3c0.9,0,1.7,0.4,2.1,1v-0.9h1v5.6c0,2-1.3,3-3,3c-1.6,0-2.7-0.9-2.9-2.1H261.3z
		 M263.2,289.2c-1.2,0-2,0.9-2,2.1c0,1.2,0.8,2.1,2,2.1s2-0.9,2-2.1C265.2,290.1,264.4,289.2,263.2,289.2z"/>
	<path class="st6" d="M273,294.5c-1.3,0-2.4-0.6-2.4-1.9h1.1c0.1,0.7,0.8,1,1.4,1c0.6,0,1.2-0.3,1.2-0.8c0-0.5-0.3-0.8-1-1l-0.9-0.2
		c-1-0.3-1.5-0.9-1.5-1.8c0-1,0.9-1.6,2.1-1.6c1.3,0,2.1,0.8,2.2,1.7h-1c-0.2-0.5-0.6-0.9-1.2-0.9c-0.6,0-1,0.3-1,0.7
		c0,0.4,0.3,0.7,0.9,0.9l1,0.3c1,0.3,1.5,0.9,1.5,1.8C275.2,293.9,274.2,294.5,273,294.5z"/>
	<path class="st6" d="M278.9,294.4c-1,0-1.8-0.6-1.8-1.8v-3.3h-1.3v-0.9h1.3v-1.7h1v1.7h1.7v0.9h-1.7v3.1c0,0.8,0.3,1,1,1
		c0.3,0,0.5,0,0.7-0.1v0.9C279.5,294.3,279.2,294.4,278.9,294.4z"/>
	<path class="st6" d="M283.5,288.2c0.9,0,1.7,0.5,2.1,1v-0.9h1v6h-1v-0.9c-0.4,0.6-1.2,1-2.1,1c-1.7,0-2.9-1.4-2.9-3.1
		C280.6,289.6,281.8,288.2,283.5,288.2z M283.6,289.2c-1.2,0-2.1,1-2.1,2.2c0,1.2,0.8,2.2,2.1,2.2s2-1,2-2.2
		C285.7,290.1,284.9,289.2,283.6,289.2z"/>
	<path class="st6" d="M288.6,288.3h1v0.9c0.4-0.7,1.1-1,1.9-1c1.3,0,2.3,0.9,2.3,2.4v3.7h-1v-3.5c0-1-0.6-1.6-1.4-1.6
		c-1,0-1.7,0.8-1.7,2.2v3h-1V288.3z"/>
	<path class="st6" d="M298.1,288.2c0.9,0,1.7,0.5,2.1,1v-3.9h1v9h-1v-0.9c-0.4,0.6-1.2,1-2.1,1c-1.7,0-2.9-1.4-2.9-3.1
		C295.2,289.6,296.4,288.2,298.1,288.2z M298.3,289.2c-1.2,0-2.1,1-2.1,2.2c0,1.2,0.8,2.2,2.1,2.2s2-1,2-2.2
		C300.3,290.1,299.5,289.2,298.3,289.2z"/>
	<path class="st6" d="M305.7,288.2c0.9,0,1.7,0.5,2.1,1v-0.9h1v6h-1v-0.9c-0.4,0.6-1.2,1-2.1,1c-1.7,0-2.9-1.4-2.9-3.1
		C302.7,289.6,304,288.2,305.7,288.2z M305.8,289.2c-1.2,0-2.1,1-2.1,2.2c0,1.2,0.8,2.2,2.1,2.2s2-1,2-2.2
		C307.9,290.1,307,289.2,305.8,289.2z"/>
	<path class="st6" d="M310.8,288.3h1v1.2c0.2-0.8,1-1.2,1.7-1.2c0.2,0,0.3,0,0.5,0v1.1c-0.2-0.1-0.4-0.1-0.6-0.1
		c-0.8,0-1.6,0.7-1.6,2.1v3h-1V288.3z"/>
	<path class="st6" d="M317.4,288.2c0.9,0,1.7,0.5,2.1,1v-3.9h1v9h-1v-0.9c-0.4,0.6-1.2,1-2.1,1c-1.7,0-2.9-1.4-2.9-3.1
		C314.5,289.6,315.7,288.2,317.4,288.2z M317.6,289.2c-1.2,0-2.1,1-2.1,2.2c0,1.2,0.8,2.2,2.1,2.2s2-1,2-2.2
		C319.6,290.1,318.8,289.2,317.6,289.2z"/>
</g>
<g class="st5">
	<path class="st6" d="M522.2,285.8h0.9l3.8,8.5h-1.2l-1.1-2.5h-4l-1.1,2.5h-1.2L522.2,285.8z M524.2,290.8l-1.5-3.5l-1.5,3.5H524.2z
		"/>
	<path class="st6" d="M526.7,288.3h1.2l2.1,4.5l2.1-4.5h1.2l-2.8,6h-0.9L526.7,288.3z"/>
	<path class="st6" d="M536.5,294.5c-1.8,0-3-1.3-3-3.1c0-1.8,1.2-3.1,3-3.1c1.9,0,3,1.5,2.9,3.4h-4.9c0,1.1,0.9,1.9,2,1.9
		c0.7,0,1.4-0.3,1.7-1h1.1C539,293.6,538.1,294.5,536.5,294.5z M534.6,290.8h3.7c-0.2-1.1-0.9-1.7-1.8-1.7
		C535.7,289.1,534.8,289.6,534.6,290.8z"/>
	<path class="st6" d="M540.9,288.3h1v1.2c0.2-0.8,1-1.2,1.7-1.2c0.2,0,0.3,0,0.5,0v1.1c-0.2-0.1-0.4-0.1-0.6-0.1
		c-0.8,0-1.6,0.7-1.6,2.1v3h-1V288.3z"/>
	<path class="st6" d="M547.6,288.2c0.9,0,1.7,0.5,2.1,1v-0.9h1v6h-1v-0.9c-0.4,0.6-1.2,1-2.1,1c-1.7,0-2.9-1.4-2.9-3.1
		C544.6,289.6,545.9,288.2,547.6,288.2z M547.7,289.2c-1.2,0-2.1,1-2.1,2.2c0,1.2,0.8,2.2,2.1,2.2c1.2,0,2-1,2-2.2
		C549.8,290.1,549,289.2,547.7,289.2z"/>
	<path class="st6" d="M553.4,294.9c0.3,0.8,0.9,1.2,1.9,1.2c1.1,0,1.9-0.7,1.9-2.1v-0.7c-0.4,0.6-1.2,1.1-2.1,1.1
		c-1.7,0-2.9-1.3-2.9-3.1c0-1.7,1.3-3,2.9-3c0.9,0,1.7,0.4,2.1,1v-0.9h1v5.6c0,2-1.3,3-3,3c-1.6,0-2.7-0.9-2.9-2.1H553.4z
		 M555.3,289.2c-1.2,0-2,0.9-2,2.1c0,1.2,0.8,2.1,2,2.1s2-0.9,2-2.1C557.3,290.1,556.5,289.2,555.3,289.2z"/>
	<path class="st6" d="M562.8,294.5c-1.8,0-3-1.3-3-3.1c0-1.8,1.2-3.1,3-3.1c1.9,0,3,1.5,2.9,3.4h-4.9c0,1.1,0.9,1.9,2,1.9
		c0.7,0,1.4-0.3,1.7-1h1.1C565.3,293.6,564.3,294.5,562.8,294.5z M560.8,290.8h3.7c-0.2-1.1-0.9-1.7-1.8-1.7
		C561.9,289.1,561,289.6,560.8,290.8z"/>
	<path class="st6" d="M570.2,285.8h1.1v8.5h-1.1V285.8z"/>
	<path class="st6" d="M573.4,288.3h1v0.9c0.4-0.7,1.1-1,1.9-1c1.3,0,2.3,0.9,2.3,2.4v3.7h-1v-3.5c0-1-0.6-1.6-1.4-1.6
		c-1,0-1.7,0.8-1.7,2.2v3h-1V288.3z"/>
	<path class="st6" d="M583.1,294.5c-1.8,0-3.1-1.4-3.1-3.1c0-1.7,1.3-3.1,3.1-3.1c1.5,0,2.7,0.9,3,2.2H585c-0.3-0.8-1-1.3-1.9-1.3
		c-1.2,0-2.1,1-2.1,2.2c0,1.2,0.8,2.2,2.1,2.2c0.9,0,1.7-0.5,1.9-1.3h1.1C585.8,293.5,584.6,294.5,583.1,294.5z"/>
	<path class="st6" d="M590.2,294.5c-1.8,0-3.1-1.4-3.1-3.1c0-1.7,1.3-3.1,3.1-3.1c1.8,0,3.1,1.4,3.1,3.1
		C593.3,293.1,592,294.5,590.2,294.5z M590.2,293.5c1.2,0,2.1-1,2.1-2.2s-0.8-2.2-2.1-2.2c-1.2,0-2.1,1-2.1,2.2
		S588.9,293.5,590.2,293.5z"/>
	<path class="st6" d="M594.8,288.3h1v0.9c0.3-0.6,1-1,1.8-1c0.9,0,1.5,0.5,1.8,1.3c0.3-0.8,1.1-1.3,2-1.3c1.3,0,2.1,1,2.1,2.4v3.7
		h-1v-3.5c0-1-0.4-1.6-1.2-1.6c-1,0-1.6,0.8-1.6,2.2v3h-1v-3.5c0-1-0.4-1.6-1.2-1.6c-1,0-1.7,0.8-1.7,2.2v3h-1V288.3z"/>
	<path class="st6" d="M608,294.5c-1.8,0-3-1.3-3-3.1c0-1.8,1.2-3.1,3-3.1c1.9,0,3,1.5,2.9,3.4H606c0,1.1,0.9,1.9,2,1.9
		c0.7,0,1.4-0.3,1.7-1h1.1C610.5,293.6,609.5,294.5,608,294.5z M606,290.8h3.7c-0.2-1.1-0.9-1.7-1.8-1.7
		C607.1,289.1,606.2,289.6,606,290.8z"/>
</g>
<g class="st5">
	<path class="st6" d="M521.8,308.9c-1.7,0-2.9-1.1-2.9-2.7c0-1,0.5-1.8,1.4-2.2c-0.6-0.4-0.9-1-0.9-1.7c0-1.3,1-2.2,2.4-2.2
		c1.4,0,2.4,0.9,2.4,2.2c0,0.7-0.3,1.3-0.9,1.7c0.8,0.4,1.3,1.2,1.3,2.2C524.7,307.7,523.5,308.9,521.8,308.9z M521.8,307.9
		c1.1,0,1.8-0.8,1.8-1.7c0-1-0.7-1.7-1.8-1.7c-1.1,0-1.8,0.7-1.8,1.7C520,307.1,520.7,307.9,521.8,307.9z M521.8,303.6
		c0.9,0,1.4-0.6,1.4-1.3c0-0.7-0.5-1.2-1.4-1.2c-0.8,0-1.4,0.5-1.4,1.2C520.4,303,521,303.6,521.8,303.6z"/>
	<path class="st6" d="M528.8,308.9c-1.7,0-3-1.1-3-2.7h1c0.1,1,0.9,1.7,2,1.7c0.9,0,1.7-0.5,1.7-1.5c0-1.1-0.8-1.5-1.9-1.5H528v-0.9
		h0.7c0.9,0,1.6-0.6,1.6-1.4c0-0.8-0.7-1.4-1.5-1.4c-1,0-1.8,0.6-1.8,1.7h-1.1c0-1.7,1.3-2.7,2.8-2.7c1.4,0,2.6,0.9,2.6,2.3
		c0,0.8-0.5,1.5-1.2,1.9c0.9,0.3,1.4,1.1,1.4,2.1C531.6,307.8,530.4,308.9,528.8,308.9z"/>
	<path class="st6" d="M535.7,308.9c-1.7,0-3-1.1-3-2.7h1c0.1,1,0.9,1.7,2,1.7c0.9,0,1.7-0.5,1.7-1.5c0-1.1-0.8-1.5-1.9-1.5H535v-0.9
		h0.7c0.9,0,1.6-0.6,1.6-1.4c0-0.8-0.7-1.4-1.5-1.4c-1,0-1.8,0.6-1.8,1.7h-1.1c0-1.7,1.3-2.7,2.8-2.7c1.4,0,2.6,0.9,2.6,2.3
		c0,0.8-0.5,1.5-1.2,1.9c0.9,0.3,1.4,1.1,1.4,2.1C538.5,307.8,537.4,308.9,535.7,308.9z"/>
</g>
<g class="st5">
	<path class="st6" d="M539.9,305h1.1c0-0.2,0-0.4,0-0.6c0-0.2,0-0.4,0-0.6h-1.4l0.3-0.7h1.2c0.5-1.9,2.2-3.2,4.2-3.2
		c1.8,0,3.4,1,4,2.7h-1.1c-0.6-1-1.6-1.7-2.9-1.7c-1.5,0-2.7,0.9-3.2,2.1h5l-0.3,0.7H542c0,0.2,0,0.4,0,0.6c0,0.2,0,0.4,0,0.6h4.4
		l-0.3,0.6h-3.9c0.5,1.3,1.6,2.2,3.2,2.2c1.3,0,2.3-0.6,2.9-1.7h1.1c-0.7,1.6-2.2,2.7-4,2.7c-2.1,0-3.7-1.3-4.3-3.2h-1.5L539.9,305z
		"/>
</g>
<g class="st5">
	<path class="st6" d="M556.1,300.2h1l-4.6,9.8h-1L556.1,300.2z"/>
</g>
<g class="st5">
	<path class="st6" d="M560.6,302.1v6.6h-1.1v-8.5h1l3.2,4.2l3.2-4.2h1v8.5h-1.1v-6.6l-3.1,4.1L560.6,302.1z"/>
	<path class="st6" d="M572.5,308.9c-1.8,0-3.1-1.4-3.1-3.1c0-1.7,1.3-3.1,3.1-3.1c1.8,0,3.1,1.4,3.1,3.1
		C575.7,307.5,574.3,308.9,572.5,308.9z M572.5,307.9c1.2,0,2.1-1,2.1-2.2s-0.8-2.2-2.1-2.2s-2.1,1-2.1,2.2S571.3,307.9,572.5,307.9
		z"/>
	<path class="st6" d="M577.1,302.7h1v0.9c0.4-0.7,1.1-1,1.9-1c1.3,0,2.3,0.9,2.3,2.4v3.7h-1v-3.5c0-1-0.6-1.6-1.4-1.6
		c-1,0-1.7,0.8-1.7,2.2v3h-1V302.7z"/>
	<path class="st6" d="M586.5,308.8c-1,0-1.8-0.6-1.8-1.8v-3.3h-1.3v-0.9h1.3v-1.7h1v1.7h1.7v0.9h-1.7v3.1c0,0.8,0.3,1,1,1
		c0.3,0,0.5,0,0.7-0.1v0.9C587.1,308.7,586.8,308.8,586.5,308.8z"/>
	<path class="st6" d="M588.7,299.7h1v3.9c0.4-0.7,1.1-1,1.9-1c1.3,0,2.3,0.9,2.3,2.4v3.7h-1v-3.5c0-1-0.6-1.6-1.4-1.6
		c-1,0-1.7,0.8-1.7,2.2v3h-1V299.7z"/>
</g>
</svg>
