<?xml version="1.0" encoding="utf-8"?>
<!-- Generator: Adobe Illustrator 24.0.1, SVG Export Plug-In . SVG Version: 6.00 Build 0)  -->
<svg version="1.1" id="Layer_1" xmlns="http://www.w3.org/2000/svg" xmlns:xlink="http://www.w3.org/1999/xlink" x="0px" y="0px"
	 viewBox="0 0 721 346" style="enable-background:new 0 0 721 346;" xml:space="preserve">
<style type="text/css">
	.st0{fill:none;stroke:#A3D3DC;stroke-width:0.92;stroke-miterlimit:10;}
	.st1{fill:none;stroke:#528C9C;stroke-width:1.28;stroke-miterlimit:10;}
	.st2{fill:#A3D3DC;}
	.st3{fill:url(#SVGID_1_);}
	.st4{fill:url(#SVGID_2_);}
	.st5{fill:#528C9C;}
	.st6{font-family:'EuclidCircularA-Medium';}
	.st7{font-size:20px;}
	.st8{letter-spacing:2;}
	.st9{letter-spacing:1;}
	.st10{font-family:'EuclidCircularA-Regular';}
	.st11{font-size:12.9654px;}
	.st12{font-size:12px;}
</style>
<title>Untitled-2</title>
<line class="st0" x1="10" y1="93.9" x2="10" y2="224.4"/>
<line class="st0" x1="76" y1="94.2" x2="76" y2="224.6"/>
<line class="st0" x1="142.1" y1="94.2" x2="142.1" y2="224.6"/>
<line class="st0" x1="208.1" y1="94.2" x2="208.1" y2="224.6"/>
<line class="st0" x1="274.2" y1="94.2" x2="274.2" y2="224.6"/>
<line class="st0" x1="406.3" y1="94.2" x2="406.3" y2="224.6"/>
<line class="st0" x1="472.3" y1="94.2" x2="472.3" y2="224.6"/>
<line class="st0" x1="538.4" y1="94.2" x2="538.4" y2="224.6"/>
<line class="st0" x1="604.4" y1="94.2" x2="604.4" y2="224.6"/>
<line class="st1" x1="562.1" y1="93.9" x2="562.1" y2="276.4"/>
<line class="st0" x1="340.2" y1="94.2" x2="340.2" y2="224.6"/>
<rect x="64.5" y="147.7" class="st2" width="43.8" height="23.4"/>
<rect x="9.4" y="43.4" class="st2" width="13" height="13.1"/>
<linearGradient id="SVGID_1_" gradientUnits="userSpaceOnUse" x1="161.95" y1="-1273.9" x2="175.09" y2="-1273.9" gradientTransform="matrix(1 0 0 -1 0 -1224)">
	<stop  offset="0" style="stop-color:#F5D032"/>
	<stop  offset="9.000000e-02" style="stop-color:#F5D032;stop-opacity:0.95"/>
	<stop  offset="0.27" style="stop-color:#F5D032;stop-opacity:0.8"/>
	<stop  offset="0.5" style="stop-color:#F5D032;stop-opacity:0.57"/>
	<stop  offset="0.52" style="stop-color:#F5D032;stop-opacity:0.55"/>
	<stop  offset="0.71" style="stop-color:#F5D032;stop-opacity:0.34"/>
	<stop  offset="1" style="stop-color:#F5D032;stop-opacity:0"/>
</linearGradient>
<rect x="161.9" y="43.4" class="st3" width="13.1" height="13.1"/>
<linearGradient id="SVGID_2_" gradientUnits="userSpaceOnUse" x1="-7200.5103" y1="3455.3301" x2="-7200.5103" y2="3964.03" gradientTransform="matrix(6.123234e-17 1 1 -6.123234e-17 -3267.23 7359.9102)">
	<stop  offset="0" style="stop-color:#F5D032"/>
	<stop  offset="9.000000e-02" style="stop-color:#F5D032;stop-opacity:0.95"/>
	<stop  offset="0.27" style="stop-color:#F5D032;stop-opacity:0.8"/>
	<stop  offset="0.5" style="stop-color:#F5D032;stop-opacity:0.57"/>
	<stop  offset="0.52" style="stop-color:#F5D032;stop-opacity:0.55"/>
	<stop  offset="0.71" style="stop-color:#F5D032;stop-opacity:0.34"/>
	<stop  offset="1" style="stop-color:#F5D032;stop-opacity:0"/>
</linearGradient>
<rect x="188.1" y="147.7" class="st4" width="508.7" height="23.4"/>
<line class="st1" x1="247.8" y1="93.9" x2="247.8" y2="276.4"/>
<path class="st2" d="M529.5,243.8c0-0.9,0.5-1.7,1.2-2c-0.5-0.3-0.8-0.9-0.8-1.4c0-1,0.8-1.9,1.9-1.9h0.1c1-0.1,1.9,0.7,2,1.7
	c0,0.1,0,0.1,0,0.2c0,0.6-0.3,1.1-0.8,1.4c0.8,0.3,1.3,1.1,1.2,2c0,1.2-1,2.3-2.2,2.3c-0.1,0-0.2,0-0.2,0c-1.3,0.1-2.3-0.8-2.4-2.1
	C529.5,243.9,529.5,243.9,529.5,243.8z M533.6,243.8c0-0.9-0.6-1.6-1.5-1.6c-0.1,0-0.1,0-0.2,0c-0.9,0.1-1.5,0.8-1.5,1.7
	c0.1,0.9,0.8,1.5,1.7,1.5C533,245.3,533.6,244.6,533.6,243.8z M533.2,240.4c0-0.6-0.5-1.1-1.1-1.1H532c-0.6-0.1-1.2,0.4-1.3,1.1
	c0,0,0,0,0,0.1c0,0.7,0.6,1.2,1.2,1.2l0,0C532.6,241.6,533.2,241.1,533.2,240.4L533.2,240.4L533.2,240.4z"/>
<path class="st2" d="M535.5,243.4v-2.1c-0.1-1.4,1-2.6,2.4-2.7c1.4-0.1,2.6,1,2.7,2.4c0,0.1,0,0.2,0,0.3v2.1c0.1,1.4-1,2.6-2.4,2.7
	c-1.4,0.1-2.6-1-2.7-2.4C535.5,243.6,535.5,243.5,535.5,243.4z M539.9,243.4v-2.1c0.1-1-0.6-1.9-1.6-2s-1.9,0.6-2,1.6
	c0,0.1,0,0.3,0,0.4v2.1c-0.1,1,0.6,1.9,1.6,2s1.9-0.6,2-1.6C539.9,243.6,539.9,243.5,539.9,243.4z"/>
<path class="st2" d="M541.9,243.4v-2.1c0-1.4,1.1-2.6,2.5-2.6s2.6,1.1,2.6,2.5l0,0v2.1c0.1,1.4-0.9,2.7-2.3,2.8
	c-1.4,0.1-2.7-0.9-2.8-2.3C541.9,243.7,541.9,243.5,541.9,243.4z M546.3,243.4v-2.1c0.1-1-0.6-1.9-1.6-2s-1.9,0.6-2,1.6
	c0,0.1,0,0.3,0,0.4v2.1c-0.1,1,0.6,1.9,1.6,2s1.9-0.6,2-1.6C546.3,243.6,546.3,243.5,546.3,243.4z"/>
<path class="st2" d="M463.8,246l3.5-6.6h-3.9v-0.7h4.7v0.6l-3.5,6.7H463.8z"/>
<path class="st2" d="M468.9,243.4v-2.1c0-1.4,1.1-2.6,2.6-2.6c1.4,0,2.5,1.1,2.5,2.6v2.1c0.1,1.4-0.9,2.7-2.3,2.8s-2.7-0.9-2.8-2.3
	C468.9,243.7,468.9,243.5,468.9,243.4z M473.3,243.4v-2.1c0.1-1-0.6-1.9-1.6-2s-1.9,0.6-2,1.6c0,0.1,0,0.3,0,0.4v2.1
	c-0.1,1,0.6,1.9,1.6,2s1.9-0.6,2-1.6C473.3,243.6,473.3,243.5,473.3,243.4z"/>
<path class="st2" d="M475.3,243.4v-2.1c-0.1-1.4,1-2.6,2.4-2.7c1.4-0.1,2.6,1,2.7,2.4c0,0.1,0,0.2,0,0.3v2.1c0.1,1.4-1,2.6-2.4,2.7
	c-1.4,0.1-2.6-1-2.7-2.4C475.3,243.6,475.3,243.5,475.3,243.4z M479.7,243.4v-2.1c0.1-1-0.7-1.9-1.7-2s-1.9,0.7-2,1.7
	c0,0.1,0,0.2,0,0.3v2.1c-0.1,1,0.7,1.9,1.7,2s1.9-0.7,2-1.7C479.7,243.6,479.7,243.5,479.7,243.4z"/>
<path class="st2" d="M397.5,243.7c0-0.7,0.3-1.3,0.8-1.8l2.8-3.2h0.9l-2.4,2.7c0.1,0,0.3-0.1,0.4-0.1c1.3,0.1,2.3,1.1,2.3,2.4
	c0,1.4-1.1,2.5-2.5,2.5C398.6,246.1,397.5,245,397.5,243.7L397.5,243.7L397.5,243.7z M401.7,243.7c0-0.9-0.8-1.7-1.7-1.7
	c-0.9,0-1.7,0.8-1.7,1.7s0.8,1.7,1.7,1.7l0,0C400.9,245.4,401.7,244.7,401.7,243.7L401.7,243.7L401.7,243.7z"/>
<path class="st2" d="M403.5,243.4v-2.1c-0.1-1.4,1-2.6,2.4-2.7c1.4-0.1,2.6,1,2.7,2.4c0,0.1,0,0.2,0,0.3v2.1c0.1,1.4-1,2.6-2.4,2.7
	c-1.4,0.1-2.6-1-2.7-2.4C403.5,243.6,403.5,243.5,403.5,243.4z M407.9,243.4v-2.1c0.1-1-0.7-1.9-1.7-2s-1.9,0.7-2,1.7
	c0,0.1,0,0.2,0,0.3v2.1c-0.1,1,0.7,1.9,1.7,2s1.9-0.7,2-1.7C407.9,243.6,407.9,243.5,407.9,243.4z"/>
<path class="st2" d="M410,243.4v-2.1c0-1.4,1.1-2.6,2.5-2.6s2.6,1.1,2.6,2.6v2.1c0.1,1.4-0.9,2.7-2.3,2.8s-2.7-0.9-2.8-2.3
	C410,243.7,410,243.5,410,243.4z M414.4,243.4v-2.1c0.1-1-0.6-1.9-1.6-2s-1.9,0.6-2,1.6c0,0.1,0,0.3,0,0.4v2.1c-0.1,1,0.6,1.9,1.6,2
	s1.9-0.6,2-1.6C414.4,243.6,414.4,243.5,414.4,243.4z"/>
<path class="st2" d="M331.6,244h0.7c0.2,0.9,1.2,1.5,2.1,1.3c0.8-0.2,1.3-0.9,1.3-1.6c0-0.9-0.7-1.7-1.6-1.7H334
	c-0.6,0-1.1,0.3-1.5,0.7l-0.7-0.2l0.7-3.8h3.4v0.7h-2.8l-0.4,2.3c0.4-0.3,0.9-0.5,1.4-0.4c1.3,0,2.4,1.1,2.4,2.5
	c0,1.3-1.1,2.4-2.5,2.4C332.8,246.1,331.7,245.2,331.6,244z"/>
<path class="st2" d="M337.5,243.4v-2.1c0-1.4,1.1-2.6,2.5-2.6s2.6,1.1,2.6,2.6v2.1c0.1,1.4-0.9,2.7-2.3,2.8s-2.7-0.9-2.8-2.3
	C337.5,243.7,337.5,243.5,337.5,243.4z M341.9,243.4v-2.1c0.1-1-0.6-1.9-1.6-2s-1.9,0.6-2,1.6c0,0.1,0,0.3,0,0.4v2.1
	c-0.1,1,0.6,1.9,1.6,2s1.9-0.6,2-1.6C341.9,243.6,341.9,243.5,341.9,243.4z"/>
<path class="st2" d="M344,243.4v-2.1c0-1.4,1.1-2.6,2.5-2.6s2.6,1.1,2.6,2.6v2.1c0.1,1.4-0.9,2.7-2.3,2.8s-2.7-0.9-2.8-2.3
	C344,243.7,344,243.5,344,243.4z M348.4,243.4v-2.1c0.1-1-0.6-1.9-1.6-2s-1.9,0.6-2,1.6c0,0.1,0,0.3,0,0.4v2.1c-0.1,1,0.6,1.9,1.6,2
	s1.9-0.6,2-1.6C348.4,243.6,348.4,243.5,348.4,243.4z"/>
<path class="st2" d="M269.4,243.9h-4v-0.6l4.1-4.7h0.6v4.6h1v0.7h-1v2.1h-0.7V243.9z M269.4,239.8l-3,3.4h3V239.8z"/>
<path class="st2" d="M272.2,243.4v-2.1c0-1.4,1.1-2.6,2.6-2.6c1.4,0,2.5,1.1,2.5,2.6v2.1c0.1,1.4-0.9,2.7-2.3,2.8s-2.7-0.9-2.8-2.3
	C272.2,243.7,272.2,243.5,272.2,243.4z M276.6,243.4v-2.1c0.1-1-0.6-1.9-1.6-2s-1.9,0.6-2,1.6c0,0.1,0,0.3,0,0.4v2.1
	c-0.1,1,0.6,1.9,1.6,2s1.9-0.6,2-1.6C276.6,243.6,276.6,243.5,276.6,243.4z"/>
<path class="st2" d="M278.6,243.4v-2.1c0-1.4,1.1-2.6,2.5-2.6s2.6,1.1,2.6,2.6v2.1c0.1,1.4-0.9,2.7-2.3,2.8s-2.7-0.9-2.8-2.3
	C278.6,243.7,278.6,243.5,278.6,243.4z M283,243.4v-2.1c0.1-1-0.6-1.9-1.6-2s-1.9,0.6-2,1.6c0,0.1,0,0.3,0,0.4v2.1
	c-0.1,1,0.6,1.9,1.6,2s1.9-0.6,2-1.6C283,243.6,283,243.5,283,243.4z"/>
<path class="st2" d="M199.8,243.8h0.7c0.1,0.9,0.9,1.6,1.8,1.6c0.8,0.1,1.5-0.5,1.6-1.3c0-0.1,0-0.1,0-0.2c0-1-0.7-1.4-1.7-1.4h-0.5
	v-0.7h0.6c0.8,0.1,1.4-0.5,1.5-1.3l0,0c0-0.7-0.6-1.3-1.4-1.3h-0.1c-0.8-0.1-1.6,0.5-1.7,1.4c0,0.1,0,0.1,0,0.2H200
	c0-1.2,1-2.3,2.2-2.3c0.1,0,0.1,0,0.2,0c1.1-0.1,2.1,0.7,2.2,1.8c0,0.1,0,0.1,0,0.2c0,0.7-0.4,1.3-1,1.6c0.8,0.3,1.3,1,1.2,1.8
	c0,1.2-1,2.2-2.2,2.2c-0.1,0-0.1,0-0.2,0c-1.3,0.1-2.5-0.8-2.7-2.1C199.8,243.9,199.8,243.9,199.8,243.8z"/>
<path class="st2" d="M206,243.4v-2.1c-0.1-1.4,1-2.6,2.4-2.7s2.6,1,2.7,2.4c0,0.1,0,0.2,0,0.3v2.1c0.1,1.4-1,2.6-2.4,2.7
	s-2.6-1-2.7-2.4C206,243.6,206,243.5,206,243.4z M210.4,243.4v-2.1c0.1-1-0.7-1.9-1.7-2s-1.9,0.7-2,1.7c0,0.1,0,0.2,0,0.3v2.1
	c-0.1,1,0.7,1.9,1.7,2s1.9-0.7,2-1.7C210.4,243.6,210.4,243.5,210.4,243.4z"/>
<path class="st2" d="M212.4,243.4v-2.1c0-1.4,1.1-2.6,2.6-2.6s2.6,1.1,2.6,2.6v2.1c0.1,1.4-0.9,2.7-2.3,2.8
	c-1.4,0.1-2.7-0.9-2.8-2.3C212.4,243.7,212.4,243.5,212.4,243.4z M216.8,243.4v-2.1c0.1-1-0.6-1.9-1.6-2s-1.9,0.6-2,1.6
	c0,0.1,0,0.3,0,0.4v2.1c-0.1,1,0.6,1.9,1.6,2s1.9-0.6,2-1.6C216.8,243.6,216.8,243.5,216.8,243.4z"/>
<path class="st2" d="M138.6,246h-4.7v-0.3c0-1.6,1.4-2.3,2.5-3.1c0.9-0.7,1.4-1.1,1.4-2c0-0.7-0.6-1.4-1.3-1.4h-0.1
	c-0.8-0.1-1.6,0.6-1.6,1.4c0,0.1,0,0.1,0,0.2H134c0-1.2,0.9-2.3,2.2-2.3c0.1,0,0.1,0,0.2,0c1.1-0.1,2.1,0.7,2.2,1.8
	c0,0.1,0,0.2,0,0.3c0,1-0.5,1.6-1.7,2.6c-1,0.7-1.9,1.1-2,2.1h3.9L138.6,246z"/>
<path class="st2" d="M139.8,243.4v-2.1c0-1.4,1.1-2.6,2.6-2.6s2.6,1.1,2.6,2.6v2.1c0.1,1.4-0.9,2.7-2.3,2.8
	c-1.4,0.1-2.7-0.9-2.8-2.3C139.8,243.7,139.8,243.5,139.8,243.4z M144.2,243.4v-2.1c0.1-1-0.6-1.9-1.6-2s-1.9,0.6-2,1.6
	c0,0.1,0,0.3,0,0.4v2.1c-0.1,1,0.6,1.9,1.6,2s1.9-0.6,2-1.6C144.2,243.6,144.2,243.5,144.2,243.4z"/>
<path class="st2" d="M146.2,243.4v-2.1c0-1.4,1.1-2.6,2.6-2.6s2.6,1.1,2.6,2.6v2.1c0.1,1.4-0.9,2.7-2.3,2.8
	c-1.4,0.1-2.7-0.9-2.8-2.3C146.2,243.7,146.2,243.5,146.2,243.4z M150.6,243.4v-2.1c0.1-1-0.6-1.9-1.6-2s-1.9,0.6-2,1.6
	c0,0.1,0,0.3,0,0.4v2.1c-0.1,1,0.6,1.9,1.6,2s1.9-0.6,2-1.6C150.6,243.6,150.6,243.5,150.6,243.4z"/>
<path class="st2" d="M69,239.4h-1.4l0.6-0.7h1.5v7.4H69V239.4z"/>
<path class="st2" d="M71.3,243.4v-2.1c-0.1-1.4,1-2.6,2.4-2.7c1.4-0.1,2.6,1,2.7,2.4c0,0.1,0,0.2,0,0.3v2.1c0.1,1.4-1,2.6-2.4,2.7
	c-1.4,0.1-2.6-1-2.7-2.4C71.3,243.6,71.3,243.5,71.3,243.4z M75.7,243.4v-2.1c0.1-1-0.6-1.9-1.6-2s-1.9,0.6-2,1.6c0,0.1,0,0.3,0,0.4
	v2.1c-0.1,1,0.6,1.9,1.6,2s1.9-0.6,2-1.6C75.7,243.6,75.7,243.5,75.7,243.4z"/>
<path class="st2" d="M77.8,243.4v-2.1c0-1.4,1.1-2.6,2.5-2.6s2.6,1.1,2.6,2.5l0,0v2.1c0.1,1.4-0.9,2.7-2.3,2.8s-2.7-0.9-2.8-2.3
	C77.7,243.7,77.7,243.5,77.8,243.4z M82.1,243.4v-2.1c0.1-1-0.6-1.9-1.6-2s-1.9,0.6-2,1.6c0,0.1,0,0.3,0,0.4v2.1
	c-0.1,1,0.6,1.9,1.6,2s1.9-0.6,2-1.6C82.1,243.6,82.1,243.5,82.1,243.4z"/>
<path class="st2" d="M8.4,243.4v-2.1c-0.1-1.4,1-2.6,2.4-2.7s2.6,1,2.7,2.4c0,0.1,0,0.2,0,0.3v2.1c0.1,1.4-1,2.6-2.4,2.7
	s-2.6-1-2.7-2.4C8.4,243.6,8.4,243.5,8.4,243.4z M12.8,243.4v-2.1c0.1-1-0.7-1.9-1.7-2s-1.9,0.7-2,1.7c0,0.1,0,0.2,0,0.3v2.1
	c-0.1,1,0.7,1.9,1.7,2s1.9-0.7,2-1.7C12.8,243.6,12.8,243.5,12.8,243.4z"/>
<path class="st2" d="M598.1,243.3c-0.1,0-0.3,0.1-0.4,0.1c-1.3-0.1-2.3-1.1-2.3-2.4c0.1-1.4,1.3-2.4,2.6-2.3
	c1.2,0.1,2.2,1.1,2.3,2.3c0,0.7-0.3,1.4-0.8,1.8l-2.9,3.2h-0.9L598.1,243.3z M599.6,240.9c0-0.9-0.8-1.7-1.7-1.7s-1.7,0.8-1.7,1.7
	s0.8,1.7,1.7,1.7l0,0C598.8,242.7,599.6,241.9,599.6,240.9C599.6,241,599.6,241,599.6,240.9L599.6,240.9z"/>
<path class="st2" d="M601.3,243.4v-2.1c-0.1-1.4,1-2.6,2.4-2.7c1.4-0.1,2.6,1,2.7,2.4c0,0.1,0,0.2,0,0.3v2.1c0.1,1.4-1,2.6-2.4,2.7
	c-1.4,0.1-2.6-1-2.7-2.4C601.3,243.6,601.3,243.5,601.3,243.4z M605.7,243.4v-2.1c0.1-1-0.6-1.9-1.6-2s-1.9,0.6-2,1.6
	c0,0.1,0,0.3,0,0.4v2.1c-0.1,1,0.6,1.9,1.6,2s1.9-0.6,2-1.6C605.7,243.6,605.7,243.5,605.7,243.4z"/>
<path class="st2" d="M607.8,243.4v-2.1c0-1.4,1.1-2.6,2.5-2.6s2.6,1.1,2.6,2.5l0,0v2.1c0.1,1.4-0.9,2.7-2.3,2.8
	c-1.4,0.1-2.7-0.9-2.8-2.3C607.7,243.7,607.7,243.5,607.8,243.4z M612.1,243.4v-2.1c0.1-1-0.6-1.9-1.6-2s-1.9,0.6-2,1.6
	c0,0.1,0,0.3,0,0.4v2.1c-0.1,1,0.6,1.9,1.6,2s1.9-0.6,2-1.6C612.1,243.6,612.1,243.5,612.1,243.4z"/>
<g>
	<text transform="matrix(1 0 0 1 8.4355 26.6852)"><tspan x="0" y="0" class="st5 st6 st7">Kindergarten Tuition Fee </tspan><tspan x="240.1" y="0" class="st5 st6 st7 st8">€</tspan><tspan x="260" y="0" class="st5 st6 st7 st9">/</tspan><tspan x="272.1" y="0" class="st5 st6 st7">Month</tspan></text>
</g>
<g>
	<text transform="matrix(1 0 0 1 25.8896 53.8628)" class="st5 st10 st11">Run by Government</text>
</g>
<g>
	<text transform="matrix(1 0 0 1 180.3076 53.8628)" class="st5 st10 st11">Run by Non-Government</text>
</g>
<g>
	<text transform="matrix(1 0 0 1 182.3096 294.334)" class="st5 st10 st12">Minimum living standard</text>
</g>
<g>
	<text transform="matrix(1 0 0 1 518.3682 294.3336)"><tspan x="0" y="0" class="st5 st10 st12">Average Income</tspan><tspan x="0" y="14.4" class="st5 st10 st12">833</tspan><tspan x="20.8" y="14.4" class="st5 st10 st12 st9">€</tspan><tspan x="32.9" y="14.4" class="st5 st10 st12">/</tspan><tspan x="40" y="14.4" class="st5 st10 st12">Month</tspan></text>
</g>
</svg>
