<?xml version="1.0" encoding="utf-8"?>
<!-- Generator: Adobe Illustrator 24.0.1, SVG Export Plug-In . SVG Version: 6.00 Build 0)  -->
<svg version="1.1" id="Layer_1" xmlns="http://www.w3.org/2000/svg" xmlns:xlink="http://www.w3.org/1999/xlink" x="0px" y="0px"
	 viewBox="0 0 66.9 202.3" style="enable-background:new 0 0 66.9 202.3;" xml:space="preserve">
<style type="text/css">
	.st0{fill:none;stroke:#FFFFFF;stroke-width:2;stroke-miterlimit:10;}
	.st1{fill:none;stroke:#F5D032;stroke-width:1.2839;stroke-miterlimit:10;}
	.st2{fill:#FFFDF5;}
	.st3{enable-background:new    ;}
	.st4{fill:#DDB926;}
</style>
<line class="st0" x1="34.5" y1="1" x2="34.5" y2="183.5"/>
<title>Untitled-2</title>
<line class="st1" x1="33.5" y1="0" x2="33.5" y2="182.5"/>
<rect y="188.1" class="st2" width="66.9" height="14.2"/>
<g class="st3">
	<path class="st4" d="M4.5,195.6l-3.3-4.9h1.3l2.5,3.8l2.5-3.8h1.3l-3.3,4.9v3.6H4.5V195.6z"/>
	<path class="st4" d="M11.4,199.3c-1.8,0-3.1-1.4-3.1-3.1c0-1.7,1.3-3.1,3.1-3.1c1.8,0,3.1,1.4,3.1,3.1
		C14.5,197.9,13.2,199.3,11.4,199.3z M11.4,198.4c1.2,0,2.1-1,2.1-2.2s-0.8-2.2-2.1-2.2c-1.2,0-2.1,1-2.1,2.2S10.1,198.4,11.4,198.4
		z"/>
	<path class="st4" d="M15.9,193.2h1v3.5c0,1,0.5,1.6,1.4,1.6c0.9,0,1.7-0.8,1.7-2.2v-3h1v6h-1v-0.9c-0.4,0.7-1.1,1-1.8,1
		c-1.3,0-2.2-0.9-2.2-2.4V193.2z"/>
	<path class="st4" d="M22.9,193.2h1v1.2c0.2-0.8,1-1.2,1.7-1.2c0.2,0,0.3,0,0.5,0v1.1c-0.2-0.1-0.4-0.1-0.6-0.1
		c-0.8,0-1.6,0.7-1.6,2.1v3h-1V193.2z"/>
	<path class="st4" d="M34.7,199.3c-1.3,0-2.4-0.6-2.4-1.9h1.1c0.1,0.7,0.8,1,1.4,1c0.6,0,1.2-0.3,1.2-0.8c0-0.5-0.3-0.8-1-1
		l-0.9-0.2c-1-0.3-1.5-0.9-1.5-1.8c0-1,0.9-1.6,2.1-1.6c1.3,0,2.1,0.8,2.2,1.7h-1c-0.2-0.5-0.6-0.9-1.2-0.9c-0.6,0-1,0.3-1,0.7
		c0,0.4,0.3,0.7,0.9,0.9l1,0.3c1,0.3,1.5,0.9,1.5,1.8C36.9,198.8,36,199.3,34.7,199.3z"/>
	<path class="st4" d="M40.9,193.1c0.9,0,1.7,0.5,2.1,1v-0.9h1v6h-1v-0.9c-0.4,0.6-1.2,1-2.1,1c-1.7,0-2.9-1.4-2.9-3.1
		C37.9,194.5,39.2,193.1,40.9,193.1z M41,194c-1.2,0-2.1,1-2.1,2.2c0,1.2,0.8,2.2,2.1,2.2c1.2,0,2-1,2-2.2C43.1,195,42.2,194,41,194
		z"/>
	<path class="st4" d="M46,190.2h1v9h-1V190.2z"/>
	<path class="st4" d="M51.4,193.1c0.9,0,1.7,0.5,2.1,1v-0.9h1v6h-1v-0.9c-0.4,0.6-1.2,1-2.1,1c-1.7,0-2.9-1.4-2.9-3.1
		C48.5,194.5,49.7,193.1,51.4,193.1z M51.6,194c-1.2,0-2.1,1-2.1,2.2c0,1.2,0.8,2.2,2.1,2.2c1.2,0,2-1,2-2.2
		C53.6,195,52.8,194,51.6,194z"/>
	<path class="st4" d="M56.5,193.2h1v1.2c0.2-0.8,1-1.2,1.7-1.2c0.2,0,0.3,0,0.5,0v1.1c-0.2-0.1-0.4-0.1-0.6-0.1
		c-0.8,0-1.6,0.7-1.6,2.1v3h-1V193.2z"/>
	<path class="st4" d="M61.3,201.7l1.3-2.8l-2.6-5.7h1.1l2.1,4.5l2.1-4.5h1.2l-3.9,8.5H61.3z"/>
</g>
</svg>
