<?xml version="1.0" encoding="utf-8"?>
<!-- Generator: Adobe Illustrator 24.0.1, SVG Export Plug-In . SVG Version: 6.00 Build 0)  -->
<svg version="1.1" id="Layer_1" xmlns="http://www.w3.org/2000/svg" xmlns:xlink="http://www.w3.org/1999/xlink" x="0px" y="0px"
	 viewBox="0 0 624 768" style="enable-background:new 0 0 624 768;" xml:space="preserve">
<style type="text/css">
	.st0{fill-rule:evenodd;clip-rule:evenodd;fill:#FFFFFF;}
	.st1{fill-rule:evenodd;clip-rule:evenodd;fill:#F5D032;}
	.st2{fill:#FFFFFF;}
	.st3{fill-rule:evenodd;clip-rule:evenodd;fill:#689FB1;}
	.st4{fill:none;stroke:#F5D032;stroke-width:3;stroke-linecap:round;}
</style>
<title>Untitled-2</title>
<path id="Fill-10" class="st0" d="M485.5,307.7c13.2-22.3,16.3-42.8,3.4-53.6c-12.9-10.8-89.2-54.7-110.1-45.5s-26.1,83.1-23.1,92.8
	c3.3,10.4,1.2,30.8-0.2,39s-14,20.4-14,20.4l42.6,15.6c0,0,29.6-30,40.6-29.8c12,0.2,24.3-3.6,33.3-10.3
	C470.9,326.5,479.8,317.3,485.5,307.7"/>
<polygon id="Fill-1" class="st0" points="390.7,587.7 409.9,684 387.5,690.9 356.6,595.5 "/>
<polygon id="Fill-3" class="st0" points="317.3,583.3 356.6,673.2 336.2,684.6 285.5,598.2 "/>
<g id="Group-7">
	<g>
		<path id="Fill-5" class="st1" d="M420.5,686.7c-1.2-11.6-19-11.9-29.4-8.1c-7.8,2.8-12.8,16.4-9.4,21c3.4,4.5,9.3,6.8,21.7,4.4
			C411.4,702.3,421.7,697.9,420.5,686.7"/>
	</g>
</g>
<path id="Fill-8" class="st1" d="M364.7,677c-3.7-11.4-21.7-7.7-31.2-1.7c-7.1,4.5-9.2,19.4-4.8,23.1c4.4,3.7,10.8,4.7,22.6-0.4
	C359.1,694.7,368.2,687.9,364.7,677"/>
<g id="Group-16">
	<g>
		<path id="Fill-14" class="st1" d="M418,431.8c0,0,10.4,150.7-26.3,175.4c-37.3,25.2-154.9-2.2-174.8-42.6
			C198.8,528,282.7,415,282.7,415s7.5-17,27.8-47.4c21.6-32.2,41.3-25.7,61.6-19.6c18.6,5.6,50.7,12.8,75,20.7L418,431.8z"/>
	</g>
</g>
<path id="Stroke-19" class="st2" d="M356,466.7l-58.8-16.1c0,0,4.9-33.6-21.8-41.8c-26.7-8.2-55.1,10.7-58.8,24.5
	c-3.6,13.9-5.4,59.6,33.2,67c38.6,7.5,42.9-5.2,42.9-5.2l44.4-4.4L356,466.7z"/>
<path id="Fill-21" class="st1" d="M331.4,276.8c7.5,22.2,24.2,30.5,33.3,25.6c15.8-8.4,14.7-39.8,27.2-47.6
	c12.5-7.7,24.6,1.1,54.6,13.2c10.8,4.4,24.9,1.6,31.5,5.8c6.6,4.2-15,42.8-11,59.1c0.7,2.8,4.3,4.2,7.8,2.3
	c41.3-22.1,39.4-89.4,12.7-122.1s-77.3-48.6-111.6-34.5S322.1,249.4,331.4,276.8"/>
<path id="Fill-23" class="st0" d="M379.2,288.5c1-5.2,1.5-13.6-6.8-17.6c-8.2-4-15-2.9-19.1,5.9c-3,6.6-0.2,24,7.6,26.2
	c7.7,2.2,13.4-5.9,13.4-5.9S378.7,290.9,379.2,288.5"/>
<path id="Fill-25" class="st0" d="M458.8,312.2c3.1-2.2,7.2-4.6,14.1-0.2s7.5,7.4,5,13.4c-2,4.6-12.9,7.6-19.8,3.6
	c-6.2-3.6-2.8-10.9-2.8-10.9S457.4,313.3,458.8,312.2"/>
<path id="Fill-27" class="st3" d="M295.9,526.7c41.4,9.2,168.9,35.8,228.3-23.3c49.8-49.6,72.4-218.3,72.4-218.3l-53.5-52.5
	c0,0-63.3,121.1-99.5,176.9c-36.4,56.2-136.1,35.7-136.1,35.7L295.9,526.7z"/>
<polygon id="Fill-29" class="st3" points="356.6,768 629.6,810.9 663.6,-22.9 624,0 "/>
<path id="Fill-31" class="st0" d="M500.1,428.6l29.5,2c0,0,3.2,16.8,20.1,13.6c16.9-3.2,20.9-16.2,21.9-26.5s-8.1-22-20.7-21.1
	c-10.8,0.8-16.4,14.8-16.4,14.8l-37.3-7.5L500.1,428.6z"/>
<path id="Fill-35" class="st1" d="M438.2,366.1c21.9,7.1,57.6,6,76.7,20.8c10,7.7,18.3,36.7-7.3,47.3c-25.6,10.6-89.7-2-89.7-2
	L438.2,366.1z"/>
<path id="Stroke-37" class="st4" d="M453.5,301.9c-1.3,0.4-2.8,0.5-4.1,0.5c-4.1,0-8.4-3.6-8.4-3.6"/>
<path id="Stroke-39" class="st4" d="M425,289.1c0,0-5-0.3-7.5-1.5c-1.9-1-3.6-2.2-5-3.8"/>
<path id="Stroke-41" class="st4" d="M433.9,321.1c-4,3.3-12,1.6-14.5-1.4c-1.5-1.6-2.6-3.6-3.3-5.7"/>
<ellipse class="st0" cx="184.6" cy="266" rx="20.4" ry="20.4"/>
<circle class="st0" cx="252.6" cy="272" r="12.8"/>
<ellipse transform="matrix(0.2567 -0.9665 0.9665 0.2567 -148.3839 273.6518)" class="st0" cx="103.7" cy="233.3" rx="28.6" ry="28.6"/>
</svg>
